<svg xmlns="http://www.w3.org/2000/svg" xmlns:xlink="http://www.w3.org/1999/xlink" width="85.854" height="85.854" viewBox="0 0 85.854 85.854">
  <defs>
    <filter id="Elipse_11499" x="0" y="0" width="85.854" height="85.854" filterUnits="userSpaceOnUse">
      <feOffset dy="3" input="SourceAlpha"/>
      <feGaussianBlur stdDeviation="3" result="blur"/>
      <feFlood flood-opacity="0.161"/>
      <feComposite operator="in" in2="blur"/>
      <feComposite in="SourceGraphic"/>
    </filter>
    <clipPath id="clip-path">
      <rect id="Rectángulo_402435" data-name="Rectángulo 402435" width="44.488" height="44.29" fill="#fff"/>
    </clipPath>
  </defs>
  <g id="Grupo_1102762" data-name="Grupo 1102762" transform="translate(-256.743 -992.475)">
    <g transform="matrix(1, 0, 0, 1, 256.74, 992.47)" filter="url(#Elipse_11499)">
      <circle id="Elipse_11499-2" data-name="Elipse 11499" cx="33.927" cy="33.927" r="33.927" transform="translate(9 6)" fill="#b771e5"/>
    </g>
    <g id="Grupo_1102160" data-name="Grupo 1102160" transform="translate(277.426 1010.258)">
      <g id="Grupo_1102159" data-name="Grupo 1102159" clip-path="url(#clip-path)">
        <path id="Trazado_901684" data-name="Trazado 901684" d="M35.914,14.277c5.572,1.337,8.535,4.556,8.573,9.218.039,4.791-2.81,7.954-8.573,9.455,0,1.462,0,2.946,0,4.429,0,1.9-.762,2.667-2.635,2.667q-10.583,0-21.165,0h-1.06l.673,4.243H0c.562-2.272,1-4.546,1.706-6.733a6.87,6.87,0,0,0-.266-4.882,18.623,18.623,0,0,1-1.209-4.8,6.5,6.5,0,0,1,2.061-5.235C3.308,21.6,4.378,20.6,5.364,19.528a2,2,0,0,0,.511-1.22c.035-4.763.021-9.526.023-14.289,0-1.768.793-2.559,2.558-2.563,1.786,0,3.572-.01,5.358.005a1.332,1.332,0,0,0,1.11-.5,2.816,2.816,0,0,1,1.723-.9q4.238-.137,8.481,0a2.817,2.817,0,0,1,1.735.871,1.429,1.429,0,0,0,1.187.525c1.816-.018,3.632-.014,5.447-.005A2.178,2.178,0,0,1,35.912,3.9c.007,3.451,0,6.9,0,10.38m-17.12,8.589h7.089V20.413l.184.116a3.353,3.353,0,0,0,.634-.713,9.09,9.09,0,0,1,4.3-4.478.957.957,0,0,0,.629-1.014c-.027-2.619-.011-5.239-.015-7.859,0-.226-.04-.452-.061-.672H10.191v1q0,8.35,0,16.7a8.88,8.88,0,0,0,.85,4.71,5.962,5.962,0,0,1-.262,5.824c-.721,1.406-1.125,1.754,1.091,1.738,6.251-.046,12.5-.016,18.754-.016h1c0-1.069.044-2.021-.026-2.965a1.209,1.209,0,0,0-.545-.839,9.624,9.624,0,0,1-4.357-4.563,3.2,3.2,0,0,0-.625-.694l-.2.095v-2.46h-7.08ZM6.022,30.432c-.363-.544-.7-1-.985-1.483a2.988,2.988,0,0,1,.586-4.143c.1-.1.251-.22.253-.334.019-1.07.011-2.141.011-3.4-1.034,1.037-1.932,1.865-2.744,2.77a5.514,5.514,0,0,0-1.4,5.131,45.893,45.893,0,0,0,1.68,4.968.869.869,0,0,0,.674.369c1.457.034,2.915.042,4.372-.006a1.113,1.113,0,0,0,.793-.485c1.909-3.411.621-5.612-1.294-7.643a1.447,1.447,0,0,0-1.332-.234,1.617,1.617,0,0,0-.681,1.187,2.793,2.793,0,0,0,.467,1.308,13.709,13.709,0,0,0,.78,1.212l-1.181.784M27.74,25.922a7.789,7.789,0,0,0,8.442,5.488,7.865,7.865,0,0,0-.222-15.63,7.727,7.727,0,0,0-8.191,5.533l1.1.652c2.04-3.934,4.47-5.364,7.784-4.616a6.431,6.431,0,0,1,.3,12.451,6.238,6.238,0,0,1-4.111-.213,6.7,6.7,0,0,1-3.923-4.367l-1.185.7M8.87,35.8H3.594L1.838,42.843h8.2L8.87,35.8m24.187-3.126c0,.482-.008.836,0,1.189.087,3.29-.077,3.356-3.368,3.335-6.006-.039-12.013-.011-18.02-.011H10.557l.267,1.423H32.365q.624,0,1.249,0c.533,0,.855-.253.859-.8.01-1.628,0-3.257,0-4.9l-1.42-.232m-24.3-7.9V23.713q0-8.785,0-17.57c0-1.34.487-1.823,1.824-1.828,1.27-.005,2.541,0,3.834,0V2.89c-1.954,0-3.852,0-5.75,0-1.233,0-1.331.1-1.332,1.316q0,9.543,0,19.087v.966l1.423.516m22.7-1.141c-1.313.923-1.359,1.151-.561,2.5a5,5,0,1,0,.169-5.316c-.961,1.42-.92,1.761.391,2.814M25.863,4.277c.021-.186.038-.273.039-.361,0-.416.007-.832,0-1.249-.008-1.053-.147-1.2-1.175-1.2-2.111-.005-4.222-.01-6.333,0-2.687.014-2.536-.4-2.464,2.653,0,.048.06.094.1.16Zm1.521.037c1.4,0,2.73-.013,4.063,0a1.444,1.444,0,0,1,1.606,1.6c.016.714,0,1.428,0,2.141v6.486l1.421-.241c0-3.558.017-7.065-.032-10.571a1.1,1.1,0,0,0-.706-.8c-2.1-.065-4.208-.037-6.355-.037Zm-.018,20.161,1.406-.87-1.406-.837Z" transform="translate(0 0)" fill="#fff"/>
        <path id="Trazado_901685" data-name="Trazado 901685" d="M89.053,44.7H73.44V40.514H89.053ZM74.842,43.249H87.618V41.93H74.842Z" transform="translate(-60.324 -33.278)" fill="#fff"/>
        <path id="Trazado_901686" data-name="Trazado 901686" d="M115.211,76.425l-5.653,3.395V77.158h-4.272V75.746H109.5V73l5.714,3.424m-4.206.843,1.39-.851-1.39-.836Z" transform="translate(-86.482 -59.963)" fill="#fff"/>
        <path id="Trazado_901687" data-name="Trazado 901687" d="M109.535,159.855v-2.679H105.3v-1.411h4.2v-2.751l5.72,3.426-5.689,3.416m1.532-4.234v1.654l1.336-.85-1.336-.8" transform="translate(-86.494 -125.685)" fill="#fff"/>
        <path id="Trazado_901688" data-name="Trazado 901688" d="M77.508,84.644H73.341V80.431h4.167ZM74.785,83.2h1.31V81.854h-1.31Z" transform="translate(-60.242 -66.066)" fill="#fff"/>
        <path id="Trazado_901689" data-name="Trazado 901689" d="M73.391,120.4h4.18v4.181h-4.18Zm2.759,1.438H74.813v1.321H76.15Z" transform="translate(-60.283 -98.893)" fill="#fff"/>
        <path id="Trazado_901690" data-name="Trazado 901690" d="M77.6,164.663H73.392V160.5H77.6Zm-1.467-2.729h-1.31v1.325h1.31Z" transform="translate(-60.284 -131.833)" fill="#fff"/>
        <path id="Trazado_901691" data-name="Trazado 901691" d="M184.137,115.751a3.581,3.581,0,1,1-3.583-3.562,3.582,3.582,0,0,1,3.583,3.562m-3.6-2.126a2.137,2.137,0,1,0,2.167,2.129,2.157,2.157,0,0,0-2.167-2.129" transform="translate(-145.368 -92.152)" fill="#fff"/>
      </g>
    </g>
  </g>
</svg>
