<svg xmlns="http://www.w3.org/2000/svg" xmlns:xlink="http://www.w3.org/1999/xlink" width="90" height="90" viewBox="0 0 90 90">
  <defs>
    <clipPath id="clip-path">
      <rect id="Rectángulo_402449" data-name="Rectángulo 402449" width="56.435" height="56.377" fill="#698d59"/>
    </clipPath>
  </defs>
  <g id="Grupo_1102762" data-name="Grupo 1102762" transform="translate(-764.755 -1805.014)">
    <path id="Trazado_876531" data-name="Trazado 876531" d="M45,0A45,45,0,1,1,0,45,45,45,0,0,1,45,0Z" transform="translate(764.755 1805.014)" fill="#fff"/>
    <g id="Grupo_1102170" data-name="Grupo 1102170" transform="translate(781.051 1821.825)">
      <g id="Grupo_1102169" data-name="Grupo 1102169" clip-path="url(#clip-path)">
        <path id="Trazado_901716" data-name="Trazado 901716" d="M69.133,47.156a21.574,21.574,0,0,1-2.722,10.6,4.478,4.478,0,0,1-3.8,2.505,2.012,2.012,0,0,0-2.14,2.142,4.426,4.426,0,0,1-2.508,3.8,21.655,21.655,0,0,1-21.088.045,4.475,4.475,0,0,1-2.592-3.878c-.1-1.382-.744-1.99-2.171-2.112a4.434,4.434,0,0,1-3.783-2.534,21.639,21.639,0,0,1-.014-21.086,4.47,4.47,0,0,1,3.894-2.567A1.986,1.986,0,0,0,34.277,32a4.466,4.466,0,0,1,2.57-3.892,21.645,21.645,0,0,1,21.087.016,4.435,4.435,0,0,1,2.531,3.785c.126,1.475.715,2.035,2.24,2.181a4.378,4.378,0,0,1,3.624,2.364,21.448,21.448,0,0,1,2.8,10.7M47.372,66.9a19.478,19.478,0,0,0,9.636-2.48,2.569,2.569,0,0,0,1.442-2.191,4,4,0,0,1,3.916-3.976,2.6,2.6,0,0,0,2.287-1.5,19.681,19.681,0,0,0,0-19.161,2.6,2.6,0,0,0-2.285-1.5,3.976,3.976,0,0,1-3.908-3.847,2.671,2.671,0,0,0-1.56-2.381,19.659,19.659,0,0,0-19.158.064A2.531,2.531,0,0,0,36.3,32.113a4,4,0,0,1-3.916,3.976,2.6,2.6,0,0,0-2.286,1.5,19.67,19.67,0,0,0,0,19.159,2.6,2.6,0,0,0,2.284,1.5A3.974,3.974,0,0,1,36.288,62.1a2.7,2.7,0,0,0,1.559,2.383A19.584,19.584,0,0,0,47.372,66.9" transform="translate(-19.13 -18.977)" fill="#698d59"/>
        <path id="Trazado_901717" data-name="Trazado 901717" d="M175.355,5.624c1.8-1.82,3.366-3.342,4.862-4.928a1.339,1.339,0,0,1,2.308.026c.674.748,1.392,1.46,2.136,2.139.854.779.775,1.449-.034,2.217-1.583,1.5-3.121,3.05-5.151,5.045a7.2,7.2,0,0,1,1.6.975,1.521,1.521,0,0,1,.386,1.294,1.556,1.556,0,0,1-1.2.639c-2.224.062-4.451.03-6.677.027a1.18,1.18,0,0,1-1.331-1.316c-.006-2.268-.03-4.536.027-6.8.01-.387.319-1,.613-1.087a1.755,1.755,0,0,1,1.314.365,7.742,7.742,0,0,1,1.147,1.408m2.732,5.371c-1.086-1.1-.529-1.778.2-2.484,1.534-1.482,3.028-3,4.451-4.423l-1.51-1.6c-1.45,1.481-2.916,2.92-4.311,4.425-.761.822-1.507,1.306-2.527.516v3.563Z" transform="translate(-128.834 -0.036)" fill="#698d59"/>
        <path id="Trazado_901718" data-name="Trazado 901718" d="M5.694,9.951C3.869,8.151,2.315,6.632.778,5.1-.264,4.054-.256,3.782.783,2.724,1.49,2.005,2.231,1.318,2.915.579c.737-.8,1.387-.751,2.124.015,1.539,1.6,3.116,3.161,5.033,5.1a9.1,9.1,0,0,1,1.164-1.62,1.448,1.448,0,0,1,1.222-.253,1.265,1.265,0,0,1,.584.988c.05,2.351.082,4.706-.032,7.052a1.665,1.665,0,0,1-1.181,1.108c-2.3.11-4.618.082-6.926.021a1.387,1.387,0,0,1-1.061-.66,1.474,1.474,0,0,1,.332-1.209A9.114,9.114,0,0,1,5.694,9.951M11,7.2c-1.13,1.137-1.821.453-2.54-.287C7,5.413,5.514,3.941,4.116,2.534l-1.722,1.4c1.572,1.54,3.025,2.987,4.505,4.4.77.737,1.506,1.443.455,2.556H11Z" transform="translate(0 0)" fill="#698d59"/>
        <path id="Trazado_901719" data-name="Trazado 901719" d="M10.116,179.476c-1.766,1.789-3.321,3.313-4.813,4.9-.813.862-1.5.917-2.306.017a29.915,29.915,0,0,0-2.135-2.137,1.3,1.3,0,0,1-.018-2.214c1.6-1.527,3.157-3.107,5.046-4.976a10.78,10.78,0,0,1-1.627-1.208c-.721-.793-.37-1.755.687-1.788,2.39-.074,4.784-.048,7.176-.011.835.013,1.123.609,1.122,1.382,0,2.183.031,4.366-.028,6.547-.012.435-.289,1.13-.592,1.224a1.954,1.954,0,0,1-1.407-.406,6.715,6.715,0,0,1-1.1-1.326M7.45,174.106c1.088,1.124.443,1.816-.307,2.542C5.64,178.1,4.176,179.6,2.668,181.1l1.525,1.6c1.513-1.556,2.951-3.018,4.37-4.5.73-.761,1.426-1.558,2.553-.437v-3.668Z" transform="translate(-0.172 -128.665)" fill="#698d59"/>
        <path id="Trazado_901720" data-name="Trazado 901720" d="M179.619,175.1c1.873,1.843,3.408,3.393,4.99,4.894.814.772.871,1.442.024,2.216-.743.679-1.462,1.39-2.135,2.137a1.338,1.338,0,0,1-2.307.021c-1.495-1.586-3.055-3.109-5-5.078a8.82,8.82,0,0,1-1.1,1.645,1.45,1.45,0,0,1-1.221.279,1.246,1.246,0,0,1-.607-.971c-.052-2.349-.085-4.7.027-7.047a1.661,1.661,0,0,1,1.157-1.13c2.3-.112,4.615-.083,6.922-.025a1.408,1.408,0,0,1,1.078.641,1.468,1.468,0,0,1-.307,1.217,9.173,9.173,0,0,1-1.518,1.2m-1.651-.971H174.31v3.655c1.09-1.05,1.795-.46,2.521.312,1.434,1.525,2.91,3.009,4.445,4.588l1.6-1.627c-1.552-1.52-3.031-3-4.548-4.442-.762-.724-1.376-1.423-.357-2.487" transform="translate(-128.81 -128.645)" fill="#698d59"/>
        <path id="Trazado_901721" data-name="Trazado 901721" d="M73.482,4.816A26.827,26.827,0,0,1,85.674,7.651,2.067,2.067,0,0,1,86.72,8.759c.208.843-.781,1.258-1.8.758A25.473,25.473,0,0,0,76.667,7.04a24.683,24.683,0,0,0-13.7,2.245c-.341.16-.689.45-1.025.438a1.481,1.481,0,0,1-1.117-.487,1.521,1.521,0,0,1,.236-1.19c.144-.247.55-.351.85-.5A26.748,26.748,0,0,1,73.482,4.816" transform="translate(-45.456 -3.602)" fill="#698d59"/>
        <path id="Trazado_901722" data-name="Trazado 901722" d="M4.78,72.952a27.949,27.949,0,0,1,2.908-12c.523-1.051,1.351-1.391,1.777-.7a2.063,2.063,0,0,1-.038,1.672,25.2,25.2,0,0,0,.05,22.206,2.493,2.493,0,0,1,.168,1.392c-.033.21-.581.555-.755.486-.42-.168-.968-.473-1.095-.847-.947-2.8-1.878-5.614-2.653-8.467a21.511,21.511,0,0,1-.362-3.743" transform="translate(-3.575 -44.797)" fill="#698d59"/>
        <path id="Trazado_901723" data-name="Trazado 901723" d="M204.481,73.286A26.821,26.821,0,0,1,201.627,85.4a2.014,2.014,0,0,1-1.124,1.015c-.8.18-1.231-.775-.765-1.715a25.544,25.544,0,0,0,2.521-8.372,24.651,24.651,0,0,0-2.265-13.692c-.161-.341-.454-.694-.433-1.026a1.577,1.577,0,0,1,.532-1.109,1.27,1.27,0,0,1,1.095.19,2.4,2.4,0,0,1,.574.951,26.853,26.853,0,0,1,2.72,11.645" transform="translate(-149.255 -45.204)" fill="#698d59"/>
        <path id="Trazado_901724" data-name="Trazado 901724" d="M73.1,204.115a27.033,27.033,0,0,1-11.779-2.82c-.649-.32-1.4-.669-.948-1.584.438-.889,1.127-.573,1.82-.244a24.737,24.737,0,0,0,22.18.019c.678-.321,1.378-.693,1.835.191.511.987-.326,1.323-1,1.656a27.119,27.119,0,0,1-12.1,2.783" transform="translate(-45.053 -148.94)" fill="#698d59"/>
        <path id="Trazado_901725" data-name="Trazado 901725" d="M148.01,84.752c0-2.433.034-4.866-.015-7.3-.024-1.165.377-1.727,1.6-1.661,1.046.056,2.1.022,3.145.009.878-.011,1.327.384,1.327,1.281q-.005,7.8,0,15.6c0,.9-.458,1.285-1.333,1.275q-1.7-.021-3.4,0c-.971.014-1.338-.479-1.332-1.408.018-2.6.006-5.2.006-7.8m3.951-6.87H150.1V91.875h1.86Z" transform="translate(-110.695 -56.687)" fill="#698d59"/>
        <path id="Trazado_901726" data-name="Trazado 901726" d="M122.1,98.946c0,1.845-.026,3.69.01,5.534.021,1.084-.457,1.523-1.518,1.483s-2.1-.026-3.144,0c-.928.02-1.41-.361-1.408-1.331q.015-5.724,0-11.447c0-.958.445-1.371,1.386-1.353,1.09.021,2.181.026,3.27,0,1.027-.027,1.427.462,1.412,1.457-.028,1.886-.008,3.774-.008,5.661m-2.108-5.033h-1.86v9.961h1.86Z" transform="translate(-86.795 -68.684)" fill="#698d59"/>
        <path id="Trazado_901727" data-name="Trazado 901727" d="M90.111,113.01c0,1.174-.021,2.348.007,3.52.025,1.02-.448,1.447-1.449,1.419-1.089-.031-2.179-.018-3.269,0-.868.012-1.345-.357-1.344-1.262q0-3.772,0-7.544c0-.808.352-1.276,1.192-1.281,1.215-.008,2.431,0,3.646,0a1.094,1.094,0,0,1,1.218,1.256q0,1.949,0,3.9m-2.1-3.043H86.173V115.9h1.842Z" transform="translate(-62.871 -80.671)" fill="#698d59"/>
        <path id="Trazado_901728" data-name="Trazado 901728" d="M55.007,129.887c-3.162.031-2.978.156-2.98-3.02,0-3.257-.169-3.037,3.089-3.042,3.159,0,2.979-.153,2.98,3.025,0,3.258.166,3.057-3.089,3.037m.968-3.975H54.127v1.9h1.848Z" transform="translate(-38.914 -92.615)" fill="#698d59"/>
      </g>
    </g>
  </g>
</svg>
