<svg xmlns="http://www.w3.org/2000/svg" xmlns:xlink="http://www.w3.org/1999/xlink" width="90" height="90" viewBox="0 0 90 90">
  <defs>
    <clipPath id="clip-path">
      <rect id="Rectángulo_402475" data-name="Rectángulo 402475" width="57.13" height="57.087" fill="#fff"/>
    </clipPath>
  </defs>
  <g id="Grupo_1102769" data-name="Grupo 1102769" transform="translate(-1110.717 -1591.37)">
    <path id="Trazado_876532" data-name="Trazado 876532" d="M45,0A45,45,0,1,1,0,45,45,45,0,0,1,45,0Z" transform="translate(1110.717 1591.37)" fill="#382a8e"/>
    <g id="Grupo_1102200" data-name="Grupo 1102200" transform="translate(1127.152 1607.826)">
      <g id="Grupo_1102199" data-name="Grupo 1102199" clip-path="url(#clip-path)">
        <path id="Trazado_901807" data-name="Trazado 901807" d="M11.855,33.227V24.445L9.729,27.2,8.217,26.071c1.046-1.4,2.071-2.737,3.06-4.1a2.252,2.252,0,0,0,.522-1.14c.04-3.4.024-6.8.024-10.273H6.189V35.121H4.267c-.017-.378-.049-.762-.049-1.146q0-11.825,0-23.651c0-1.624.132-1.752,1.775-1.754q3.031,0,6.061,0c1.529,0,1.678.157,1.68,1.729,0,2.674,0,5.347,0,8.287,1.2-1.372,2-2.485,1.941-4.23-.144-4.234-.05-8.476-.045-12.715,0-1.453.182-1.626,1.659-1.63q3.09-.007,6.18,0c1.525,0,1.674.158,1.676,1.734,0,3.13.086,6.263-.037,9.388a1.991,1.991,0,0,0,1.933,2.394c0-1.778-.006-3.531,0-5.285.006-1.376.2-1.568,1.6-1.573q3.149-.01,6.3,0c1.444,0,1.613.183,1.619,1.671,0,1.1,0,2.2,0,3.466,1.231-.772,2.036-1.461,1.936-3.012-.158-2.446-.021-4.91-.052-7.366C38.429.422,38.831-.014,39.851,0c2.258.032,4.516.026,6.774,0,.959-.01,1.363.409,1.351,1.361-.025,2.02-.007,4.041-.007,6.061,0,1.765,0,1.765,1.854,2.253.014-.239.036-.47.039-.7.034-2.31.034-2.31,2.29-2.31,1.981,0,3.962.009,5.943,0,.814-.005,1.285.316,1.285,1.178,0,3.045,0,6.09,0,9.215H57.518V8.673h-5.6c-1.043,2.831,1.7,2.745,3.065,3.858l-.762,1.605-2.449-1.1v4.044H49.864a29.194,29.194,0,0,1,.028-3.494c.175-1.452-.5-2.079-1.9-2.36v5.845H46.06c0-1.94-.057-3.834.024-5.723A1.75,1.75,0,0,0,45.006,9.53a2.291,2.291,0,0,0-3.09.331,3.669,3.669,0,0,0-1.58,3.5c.123,1.207.025,2.436.025,3.713H38.507V13.086c-2.148.642-2.064,2.285-1.925,3.976H34.721l-.178-1.052c-1.63,1.959-3.394,2.825-5.611.463V34.2H27.04V17.365c0-1.747,0-1.747-1.888-2.322V32.291H23.236V31.062c0-5.189-.045-10.38.034-15.568.018-1.2-.28-1.936-1.44-2.289a9.3,9.3,0,0,1-1.169-.551c-.97,1.3-1.968,2.572-2.885,3.9a2.314,2.314,0,0,0-.228,1.237c-.015,4.791-.01,9.582-.01,14.467H15.666V19.467c-1.19,1.337-2.055,2.365-1.975,4.078.149,3.2.043,6.4.043,9.681ZM23.162,11.64V2.012H17.628V13.5c.2-.265.274-.359.347-.45.672-.825,1.215-2.113,2.052-2.346.857-.238,2,.557,3.134.938M28.95,8.624c0,1.893-.016,3.668.018,5.441a1.069,1.069,0,0,0,.386.747c1.837,1.305,2.194,1.28,3.918-.152a11.813,11.813,0,0,0,.991-.845,1.18,1.18,0,0,0,.366-.682c.033-1.487.017-2.976.017-4.508ZM46.014,1.983h-5.58V8.476l.124.386c1.536-2.467,3.4-2.543,5.457-.827Z" transform="translate(-3.213 0)" fill="#fff"/>
        <path id="Trazado_901808" data-name="Trazado 901808" d="M28.59,157.279H31.5q12,0,24,0c1.413,0,1.615.194,1.621,1.548.009,2.178-.02,4.357.012,6.535.015.994-.363,1.444-1.393,1.442-14.218-.019-28.436.014-42.654-.052A18.784,18.784,0,0,1,3.857,164.4C1.32,162.976-.218,161,.025,157.877a46.213,46.213,0,0,0,.01-5.582,5.715,5.715,0,0,1,2.439-5.006,15.871,15.871,0,0,1,7.418-2.954,23.881,23.881,0,0,1,13.4,1.319,14.628,14.628,0,0,1,3.4,2.122,5.056,5.056,0,0,1,1.906,4.286c-.054,1.693-.012,3.388-.012,5.217M1.961,155.567c0,1.026.065,1.889-.014,2.739A4,4,0,0,0,3.963,162.2a13.174,13.174,0,0,0,2.291,1.236,21.669,21.669,0,0,0,8.364,1.454q19.667-.006,39.334,0h1.18v-5.646H53.308v2.72H51.346v-2.7H45.668v2.727H43.787v-2.711H38.066v2.693H36.145v-2.717H30.467v2.7H28.546v-2.682H22.824v2.708h-1.88v-2.69H15.225v2.673H13.31v-2.67l-5.658-.825V161H5.758a7.17,7.17,0,0,1,.007-1.03c.243-1.529-.105-2.649-1.781-3.143a9.646,9.646,0,0,1-2.022-1.259M14.238,157.3a19.987,19.987,0,0,0,9.542-2.141c1.439-.8,2.882-1.757,2.858-3.625-.024-1.8-1.442-2.722-2.834-3.523a16.887,16.887,0,0,0-7.131-2.015,20.625,20.625,0,0,0-11.756,1.984c-1.451.776-2.907,1.728-2.912,3.587s1.445,2.8,2.888,3.6a19.952,19.952,0,0,0,9.346,2.127m9.955-.086H26.61v-1.615l-2.416,1.615" transform="translate(0 -109.719)" fill="#fff"/>
        <path id="Trazado_901809" data-name="Trazado 901809" d="M141.5,80.03c3.366,0,6.733-.008,10.1,0a2.894,2.894,0,0,1,3.226,3.229q.014,8.2,0,16.4c0,2.092-1.132,3.19-3.254,3.2-1.941.01-3.883-.047-5.82.036a2.339,2.339,0,0,0-1.438.727c-.7.749-1.25,1.631-1.876,2.448-.6.78-1.221.8-1.839.014a2.823,2.823,0,0,1-.349-.48c-1.146-2.364-3.006-3.178-5.576-2.774a19.783,19.783,0,0,1-3.559.023,2.812,2.812,0,0,1-2.91-2.939q-.035-8.435,0-16.871a2.831,2.831,0,0,1,3.082-3.008c3.406-.018,6.812,0,10.218,0m.027,24.046a24.559,24.559,0,0,0,1.516-2.027,2.242,2.242,0,0,1,2.275-1.119c2.056.072,4.117,0,6.175.031,1,.016,1.438-.376,1.435-1.4q-.031-8.135,0-16.27c0-.951-.392-1.362-1.35-1.36q-10.094.022-20.189,0c-.9,0-1.291.4-1.289,1.3q.016,8.194,0,16.388c0,.965.425,1.355,1.37,1.34,1.662-.027,3.338.121,4.984-.04,1.942-.19,3.376.331,4.271,2.128a6.981,6.981,0,0,0,.808,1.029" transform="translate(-97.711 -60.999)" fill="#fff"/>
        <path id="Trazado_901810" data-name="Trazado 901810" d="M39.215,162.9c1.747.4,3.445.715,5.092,1.2.888.262,1.783.958,1.539,1.962a3.042,3.042,0,0,1-1.539,1.862,12.833,12.833,0,0,1-10.129-.022,2.644,2.644,0,0,1-1.456-1.87,2.568,2.568,0,0,1,1.446-1.864,42.021,42.021,0,0,1,5.047-1.27m4.68,3.238c-2.356-1.434-7.581-1.365-9.116.052a13.087,13.087,0,0,0,9.116-.052" transform="translate(-24.942 -124.17)" fill="#fff"/>
        <path id="Trazado_901811" data-name="Trazado 901811" d="M155.016,98.136V96.308h1.872c.026.563.05,1.106.079,1.739h5.6c.04-.556.081-1.127.126-1.753h1.794V97.9c.189.122.252.2.316.2,2.641.031,2.611-.178,2.6,2.75-.016,3.05-.027,6.1.009,9.149.013,1.079-.432,1.476-1.492,1.468q-6.119-.046-12.238,0c-1.145.011-1.535-.454-1.521-1.563.041-3.247.014-6.495.014-9.743,0-1.98.031-2.012,1.973-2.031.235,0,.47,0,.874,0m-.89,11.322h11.3v-5.538h-11.3Zm0-7.6h11.3v-1.749h-11.3Z" transform="translate(-115.98 -73.4)" fill="#fff"/>
        <rect id="Rectángulo_402473" data-name="Rectángulo 402473" width="1.743" height="1.806" transform="translate(41.039 32.428)" fill="#fff"/>
        <rect id="Rectángulo_402474" data-name="Rectángulo 402474" width="1.757" height="1.778" transform="translate(44.815 32.4)" fill="#fff"/>
      </g>
    </g>
  </g>
</svg>
