<svg xmlns="http://www.w3.org/2000/svg" xmlns:xlink="http://www.w3.org/1999/xlink" width="60" height="60" viewBox="0 0 60 60">
  <defs>
    <clipPath id="clip-path">
      <rect id="Rectángulo_402482" data-name="Rectángulo 402482" width="37.135" height="39.157" fill="#fff"/>
    </clipPath>
  </defs>
  <g id="Grupo_1102776" data-name="Grupo 1102776" transform="translate(-186.467 -3655.542)">
    <circle id="Elipse_11490" data-name="Elipse 11490" cx="30" cy="30" r="30" transform="translate(186.467 3655.542)" fill="#4635b1"/>
    <g id="Grupo_1102214" data-name="Grupo 1102214" transform="translate(197.899 3665.963)">
      <g id="Grupo_1102213" data-name="Grupo 1102213" clip-path="url(#clip-path)">
        <path id="Trazado_901854" data-name="Trazado 901854" d="M17.708,28.216H13.6a7.009,7.009,0,0,1,.551,6.021,6.778,6.778,0,0,1-10.62,2.858c-2.563-2.086-3.092-5-1.575-8.82a1.323,1.323,0,0,0-.292-.086C0,28.1,0,28.1,0,26.387Q0,13.755,0,1.123C0,0,0,0,1.129,0H22.906c1.075,0,1.078,0,1.079,1.106q0,6.422,0,12.845V14.98h.968c3.715,0,7.429.017,11.143-.014.757-.006,1.041.18,1.038,1q-.043,11.1,0,22.2c0,.817-.282,1-1.038.992q-8.676-.039-17.353,0c-.834,0-1.062-.263-1.052-1.072.039-3.256.016-6.513.016-9.87M.881,27.3c.834-.087,1.586.266,2.308-.4a6.7,6.7,0,0,1,9.249-.027,1.352,1.352,0,0,0,.7.417c1.5.038,2.992.019,4.521.019v-5.37h-.885c-2.211,0-4.422.012-6.632-.011-.4,0-1.089.238-1.069-.441s.708-.38,1.1-.391c1.246-.037,2.494-.014,3.741-.014h3.725V17.2c-2.562,0-5.055.016-7.547-.018-.355,0-1.015-.269-1.008-.382.042-.7.655-.44,1.05-.445,2.04-.025,4.081-.012,6.122-.012h1.407c.1-1.361.1-1.361,1.394-1.361h4.016V.926H.881ZM18.624,38.22H36.216V15.879H18.624ZM1.888,31.83A5.93,5.93,0,1,0,7.776,25.9,5.946,5.946,0,0,0,1.888,31.83" transform="translate(0 0)" fill="#fff"/>
        <path id="Trazado_901855" data-name="Trazado 901855" d="M58.606,41.329c-1.558,0-3.116.023-4.672-.02-.286-.008-.566-.282-.848-.434.27-.136.539-.388.81-.39q4.63-.042,9.26,0c.282,0,.561.284.842.436a2.678,2.678,0,0,1-.89.389c-1.5.04-3,.018-4.5.018" transform="translate(-44.053 -33.579)" fill="#fff"/>
        <path id="Trazado_901856" data-name="Trazado 901856" d="M58.48,69.06c-1.558,0-3.116.017-4.672-.018-.241-.005-.477-.251-.715-.386.228-.151.455-.431.684-.433q4.757-.043,9.515,0c.239,0,.476.264.713.4-.256.145-.509.409-.768.415-1.585.039-3.171.019-4.757.019" transform="translate(-44.059 -56.596)" fill="#fff"/>
        <path id="Trazado_901857" data-name="Trazado 901857" d="M25.075,64.091a9.979,9.979,0,0,1,.913-1.05c.124-.111.426-.025.646-.03-.018.2.039.465-.067.588a10.628,10.628,0,0,1-1.31,1.305.732.732,0,0,1-.707.02c-.311-.283-.8-.783-.721-1.007.288-.771.671-.076,1.246.175" transform="translate(-19.767 -52.266)" fill="#fff"/>
        <path id="Trazado_901858" data-name="Trazado 901858" d="M24.835,119.765a10.419,10.419,0,0,1,.936-1.1c.125-.114.43-.03.653-.037-.019.2.037.466-.07.59a10.566,10.566,0,0,1-1.31,1.306.732.732,0,0,1-.709.012,6.319,6.319,0,0,1-.77-1.031c.2-.087.411-.26.6-.237s.349.244.672.5" transform="translate(-19.556 -98.426)" fill="#fff"/>
        <path id="Trazado_901859" data-name="Trazado 901859" d="M25.078,91.9A10.058,10.058,0,0,1,26,90.849c.125-.113.426-.031.647-.037-.017.2.043.467-.064.59a10.5,10.5,0,0,1-1.312,1.307.738.738,0,0,1-.714.014c-.309-.284-.8-.79-.711-1.012.3-.78.668-.062,1.236.191" transform="translate(-19.776 -75.342)" fill="#fff"/>
        <path id="Trazado_901860" data-name="Trazado 901860" d="M25.141,36.31a7.446,7.446,0,0,1,.818-.987c.164-.144.476-.119.721-.17a2.24,2.24,0,0,1-.169.773,5.409,5.409,0,0,1-.763.791c-.778.775-.925.775-1.633-.112a1.859,1.859,0,0,1-.19-.656,5.054,5.054,0,0,1,.731.02c.119.019.219.148.484.341" transform="translate(-19.854 -29.171)" fill="#fff"/>
        <path id="Trazado_901861" data-name="Trazado 901861" d="M125.079,111.365c-2.182,0-4.365-.02-6.547.012-.666.01-.913-.212-.887-.881.04-1.019.026-2.041,0-3.06-.011-.534.179-.765.738-.764q6.675.019,13.349,0c.508,0,.72.2.715.7-.011,1.077-.02,2.154,0,3.231.014.608-.27.77-.831.764-2.182-.02-4.365-.008-6.547-.008m-6.519-.927h12.97v-2.847H118.56Z" transform="translate(-97.627 -88.522)" fill="#fff"/>
        <path id="Trazado_901862" data-name="Trazado 901862" d="M182.56,171.312c2.239.024,1.965-.278,1.979,1.984.008,1.313,0,1.314-1.3,1.314-.705,0-1.41-.009-2.115,0-.5.007-.73-.222-.713-.717.005-.141,0-.282,0-.423.03-2.5-.318-2.125,2.146-2.16m1.077.862c-.687,0-1.274.016-1.86,0-.517-.018-.54.32-.494.67s-.244.872.421.9c.633.028,1.268.006,1.933.006Z" transform="translate(-149.715 -142.162)" fill="#fff"/>
        <path id="Trazado_901863" data-name="Trazado 901863" d="M119.761,171.3c2.319.019,2.011-.263,2.028,2.022.009,1.275,0,1.275-1.252,1.276-.733,0-1.466-.006-2.2,0-.456,0-.668-.207-.66-.668.011-.62.024-1.242-.005-1.86s.265-.8.82-.772c.422.021.846,0,1.268,0m-1.157,2.359h2.278V172.21H118.6Z" transform="translate(-97.649 -142.146)" fill="#fff"/>
        <path id="Trazado_901864" data-name="Trazado 901864" d="M151.033,171.32c2.371.024,1.971-.263,2,2.031.016,1.266,0,1.267-1.241,1.268a18.34,18.34,0,0,1-2.2-.034c-.242-.029-.47-.4-.646-.652-.079-.115-.017-.329-.014-.5.041-2.4-.383-2.086,2.1-2.113m1.113.913h-2.3v1.459h2.3Z" transform="translate(-123.574 -142.169)" fill="#fff"/>
        <path id="Trazado_901865" data-name="Trazado 901865" d="M182.561,198.813c1.984,0,1.984,0,1.982,1.961,0,1.3,0,1.3-1.3,1.3-.7,0-1.41-.016-2.114,0-.512.015-.723-.223-.713-.709,0-.141,0-.282,0-.423-.011-2.137-.011-2.137,2.146-2.137m1.064.924h-2.277v1.44h2.277Z" transform="translate(-149.717 -164.985)" fill="#fff"/>
        <path id="Trazado_901866" data-name="Trazado 901866" d="M182.484,147.241c-2.07,0-2.07,0-2.065-2.05,0-1.217,0-1.217,1.218-1.218.7,0,1.411.025,2.114-.007.595-.027.829.234.795.8-.009.141,0,.282,0,.423.005,2.051.005,2.051-2.062,2.051m-1.141-.9h2.289v-1.472h-2.289Z" transform="translate(-149.72 -119.469)" fill="#fff"/>
        <path id="Trazado_901867" data-name="Trazado 901867" d="M119.783,147.2c-2.074,0-2.074,0-2.07-2.056,0-1.21,0-1.211,1.222-1.211a18.93,18.93,0,0,1,2.207.031c.248.029.5.384.665.641.092.139.018.386.019.585,0,2.01,0,2.01-2.043,2.01m-1.166-.927H120.9v-1.439h-2.282Z" transform="translate(-97.683 -119.432)" fill="#fff"/>
        <path id="Trazado_901868" data-name="Trazado 901868" d="M151.17,147.275c-2.111,0-2.111,0-2.108-2.082,0-1.183,0-1.184,1.152-1.185.762,0,1.523.009,2.285,0,.457-.007.678.182.666.653a16.446,16.446,0,0,0,.007,1.691c.054.686-.182,1.006-.9.931a10.621,10.621,0,0,0-1.1-.006m-1.216-.908h2.3v-1.443h-2.3Z" transform="translate(-123.699 -119.503)" fill="#fff"/>
        <path id="Trazado_901869" data-name="Trazado 901869" d="M119.733,198.723c2.026,0,2.026,0,2.023,2.029,0,1.234,0,1.235-1.211,1.235-.68,0-1.363-.035-2.04.01s-.913-.255-.868-.9a9.791,9.791,0,0,0,0-1.444c-.054-.683.178-1.015.908-.937a11.183,11.183,0,0,0,1.19.007m1.125.9h-2.3v1.445h2.3Z" transform="translate(-97.614 -164.895)" fill="#fff"/>
        <path id="Trazado_901870" data-name="Trazado 901870" d="M151.034,202.038c-2.3-.029-1.965.3-1.987-1.954-.012-1.309,0-1.309,1.269-1.31.677,0,1.355.022,2.03-.006.565-.024.867.161.8.769a3.891,3.891,0,0,0,0,.423c0,2.079,0,2.079-2.112,2.079m-1.069-.9h2.274V199.67h-2.274Z" transform="translate(-123.682 -164.945)" fill="#fff"/>
        <path id="Trazado_901871" data-name="Trazado 901871" d="M31.883,162.12l.665-1.385.74,1.405a6.8,6.8,0,0,1,1.147.021c.208.031.382.287.572.441-.187.13-.369.364-.562.373-.877.041-1.757.025-2.635.018-.617,0-1.086.2-1.1.888s.477.9,1.078.919c.567.014,1.134-.01,1.7.01a1.745,1.745,0,1,1,.056,3.487l-.51.042a3.829,3.829,0,0,1-.063.818,2.29,2.29,0,0,1-.369.569,2.559,2.559,0,0,1-.454-.595,3.1,3.1,0,0,1-.061-.836,11.779,11.779,0,0,1-1.381-.016c-.205-.025-.389-.225-.583-.345.188-.163.367-.455.565-.468.847-.054,1.7-.037,2.55-.022.632.011,1.192-.128,1.208-.865.017-.8-.583-.93-1.24-.916q-.68.015-1.361,0c-1.231-.031-1.985-.684-2.007-1.726-.023-1.07.672-1.722,1.916-1.8a.619.619,0,0,0,.129-.016" transform="translate(-24.76 -133.386)" fill="#fff"/>
      </g>
    </g>
  </g>
</svg>
