<svg xmlns="http://www.w3.org/2000/svg" xmlns:xlink="http://www.w3.org/1999/xlink" width="90" height="90" viewBox="0 0 90 90">
  <defs>
    <clipPath id="clip-path">
      <rect id="Rectángulo_402499" data-name="Rectángulo 402499" width="57.034" height="57.027" fill="#698d59"/>
    </clipPath>
  </defs>
  <g id="Grupo_1102781" data-name="Grupo 1102781" transform="translate(-764.755 -4415.681)">
    <path id="Trazado_876531" data-name="Trazado 876531" d="M45,0A45,45,0,1,1,0,45,45,45,0,0,1,45,0Z" transform="translate(764.755 4415.681)" fill="#fff"/>
    <g id="Grupo_1102228" data-name="Grupo 1102228" transform="translate(778.051 4435.078)">
      <g id="Grupo_1102227" data-name="Grupo 1102227" clip-path="url(#clip-path)">
        <path id="Trazado_901918" data-name="Trazado 901918" d="M25.759,45.024H0V41.681C0,38.31,0,34.938,0,31.567A11.915,11.915,0,0,1,9.9,19.512a4.12,4.12,0,0,0,.462-.172C8.08,17.132,6.933,14.553,7.5,11.4a8.065,8.065,0,0,1,3.19-5.145,8.229,8.229,0,0,1,10.887.881c3.244,3.349,3.093,7.665-.544,12.185h7.905c-.353-.745-.645-1.391-.961-2.025-1.11-2.225-2.2-4.464-3.353-6.664-.833-1.583-1.069-3.115.087-4.623,1.01-1.319,2.447-1.637,4.717-1.033,0-.736-.019-1.442,0-2.146A2.726,2.726,0,0,1,32.283.014Q43.2-.015,54.12.012a2.716,2.716,0,0,1,2.9,2.876q.033,7.241,0,14.481a2.747,2.747,0,0,1-2.907,2.874.491.491,0,0,1-.115,0c-2.934-.633-4.857.572-6.015,3.252a5.027,5.027,0,0,1-.917,1.314,2.536,2.536,0,0,1-2.908.788,2.568,2.568,0,0,1-1.831-2.4c-.059-.944-.012-1.895-.012-2.952H37.775c.143.353.231.6.337.829,1.376,3.029-.287,5.6-3.641,5.607-2.414.007-4.828.033-7.241-.013-1.095-.021-1.493.41-1.486,1.5.032,5.172.014,10.344.014,15.516v1.346M22.831,21.165a19.86,19.86,0,0,1-7.713,13.059,1.415,1.415,0,0,0-.378.986c-.038,1.608-.017,3.218-.017,4.827v3.121h9.189V41.844q0-6.839,0-13.677c0-2.335,1.011-3.329,3.374-3.332,2.414,0,4.827.009,7.24,0,1.985-.011,2.748-1.26,1.854-3.057q-3.449-6.938-6.927-13.861c-.051-.1-.1-.209-.153-.308a1.86,1.86,0,0,0-2.5-.956,1.818,1.818,0,0,0-.756,2.638c2.022,4.079,4.071,8.145,6.106,12.217.181.363.332.741.515,1.15l-1.581.795c-.313-.6-.574-1.2-.924-1.731a1.157,1.157,0,0,0-.75-.529c-2.178-.042-4.356-.024-6.586-.024M44.153,18.4c0,1.569-.045,2.983.03,4.391a1.419,1.419,0,0,0,.657,1.03c.214.1.745-.225,1.009-.486A7.855,7.855,0,0,0,46.7,22.11c.816-1.2,1.385-2.873,2.52-3.472,1.177-.621,2.9-.212,4.389-.238,1.4-.024,1.572-.181,1.573-1.611q.006-6.663,0-13.326c0-1.47-.15-1.611-1.683-1.611q-9.707,0-19.414,0c-2.983,0-2.7-.183-2.845,2.791a9.439,9.439,0,0,0,1.828,6.1l.086-1.457h5.539v5.373H40.5V3.775h5.531V14.64h1.85V5.586h5.393v11H35.992c.288,1.329.868,1.956,2.287,1.848,1.9-.145,3.815-.036,5.874-.036M5.513,31.32H7.368V43.147h5.509c0-2.526.02-4.973-.008-7.419-.014-1.256-.223-2.553,1.4-3.16A19.765,19.765,0,0,1,8.552,21.879a9.81,9.81,0,0,0-6.683,9.069c-.06,3.867-.018,7.736-.014,11.6a3.454,3.454,0,0,0,.1.608H5.513ZM15.687,6.453a6.43,6.43,0,1,0,6.382,6.477,6.45,6.45,0,0,0-6.382-6.477m.2,24.872c.4-.692,1.173-1.4,1.134-2.058-.148-2.506-.539-5-.895-7.488-.037-.262-.438-.473-.875-.916-.344,2.65-.566,4.888-.946,7.1a2.824,2.824,0,0,0,1.582,3.365M44.067,5.582h-1.7v9.086h1.7Zm5.672,9.051h1.673V7.389H49.739ZM12.2,27.136l.394-.1c.238-1.919.476-3.838.712-5.734H10.157L12.2,27.136m6.489-.1.414.089,1.991-5.867H17.964c.249,1.991.486,3.885.723,5.777m16.354-12.4H36.7V11.067H35.042Z" transform="translate(0 0)" fill="#698d59"/>
        <path id="Trazado_901919" data-name="Trazado 901919" d="M145.918,144.127l-6.475-3.637c1.892-1.979,2.967-4.188,2.54-6.894a7.162,7.162,0,0,0-2.548-4.5,7.3,7.3,0,0,0-9.666.2c-3.132,2.842-3.11,6.3.127,11.241l-6.337,3.6c-4.35-4.558-5.338-13.515.589-19.641a14.663,14.663,0,0,1,21.769,19.627m-5.466-16.847,2.535-2.383a12.445,12.445,0,0,0-7.286-2.972V125.3l4.751,1.984m-15.479-.914a12.548,12.548,0,0,0-3.055,7.377h3.367l2.067-4.917-2.38-2.46m8.784-4.467a12.753,12.753,0,0,0-7.386,3.076l2.422,2.386,4.964-2.068Zm10.766,4.53-2.453,2.344,2.065,4.972h3.382a12.494,12.494,0,0,0-2.994-7.316m-17.531,13.634-1.606-4.351h-3.491a12.022,12.022,0,0,0,2.116,6.043l2.981-1.693m17.082-4.37-1.629,4.362,3.008,1.686a11.843,11.843,0,0,0,2.068-6.049Z" transform="translate(-92.411 -92.41)" fill="#698d59"/>
        <path id="Trazado_901920" data-name="Trazado 901920" d="M168.769,180.286c-3.5-.019-5.925-3.35-4.527-6.179,1.031-2.087,1.079-4.262,1.456-6.417.322-1.845.495-3.716.761-5.572.191-1.333.956-2.077,2.051-2.06s1.815.764,2,2.118c.416,3.032.786,6.071,1.238,9.1a6.964,6.964,0,0,0,.719,2.127,4.491,4.491,0,0,1-.028,4.595,4.393,4.393,0,0,1-3.67,2.29m-.261-1.85a2.751,2.751,0,1,0-2.778-2.751,2.776,2.776,0,0,0,2.778,2.751m1.357-7.279-1.249-8.952-.294.024-1.211,8.928Z" transform="translate(-126.172 -123.259)" fill="#698d59"/>
        <rect id="Rectángulo_402497" data-name="Rectángulo 402497" width="1.666" height="1.748" transform="translate(16.649 35.891)" fill="#698d59"/>
        <rect id="Rectángulo_402498" data-name="Rectángulo 402498" width="1.714" height="1.707" transform="translate(16.632 39.602)" fill="#698d59"/>
      </g>
    </g>
  </g>
</svg>
