<svg xmlns="http://www.w3.org/2000/svg" xmlns:xlink="http://www.w3.org/1999/xlink" width="90" height="90" viewBox="0 0 90 90">
  <defs>
    <clipPath id="clip-path">
      <rect id="Rectángulo_402500" data-name="Rectángulo 402500" width="66.707" height="66.82" fill="#698d59"/>
    </clipPath>
  </defs>
  <g id="Grupo_1102782" data-name="Grupo 1102782" transform="translate(-1079.755 -4415.681)">
    <path id="Trazado_876531" data-name="Trazado 876531" d="M45,0A45,45,0,1,1,0,45,45,45,0,0,1,45,0Z" transform="translate(1079.755 4415.681)" fill="#fff"/>
    <g id="Grupo_1102230" data-name="Grupo 1102230" transform="translate(1091.651 4427.271)">
      <g id="Grupo_1102229" data-name="Grupo 1102229" clip-path="url(#clip-path)">
        <path id="Trazado_901921" data-name="Trazado 901921" d="M34.474,165.617H66.766v2.131H34.644v5.437c1.207,0,2.447.037,3.683-.012a1.438,1.438,0,0,1,1.685,1.322c.192.965.485,1.91.728,2.838.113.06.2.146.266.133,2.265-.435,3.511.639,4.17,2.712.228.718.69,1.359.99,2.058.438,1.024.048,1.63-1.072,1.721-.312.026-.628.007-.942.007q-10.843,0-21.686,0c-2,0-2.324-.545-1.433-2.349.179-.362.389-.711.536-1.085.8-2.029,1.714-3.88,4.505-2.915.32-1.2.627-2.223.856-3.262a1.327,1.327,0,0,1,1.52-1.175c1.249.029,2.5.008,3.834.008v-5.354H.136v-2.178H32.343v-5.306h2.132Zm8.858,16.128c-.6-2.086-.6-2.087-2.583-2.087H26.093c-1.95,0-2.047.082-2.488,2.087Zm-14.924-4.32H38.494l-.51-2.024H28.912l-.5,2.024" transform="translate(-0.099 -117.15)" fill="#698d59"/>
        <path id="Trazado_901922" data-name="Trazado 901922" d="M85.805,28.024a14.012,14.012,0,1,1,14-14.056,14.031,14.031,0,0,1-14,14.056M97.645,14A11.848,11.848,0,1,0,85.735,25.86,11.868,11.868,0,0,0,97.645,14" transform="translate(-52.446 0)" fill="#698d59"/>
        <path id="Trazado_901923" data-name="Trazado 901923" d="M3.991,145.806v-2.025H7.107v-7.5H9.28v7.345h3.245v-7.362h2.127v7.378H17.9V136.3h2.173v7.386h3.159v2.123Z" transform="translate(-2.916 -99.554)" fill="#698d59"/>
        <path id="Trazado_901924" data-name="Trazado 901924" d="M191.434,143.74v2.043H172.15v-2.036h3.1v-7.463h2.173v7.368h3.2v-7.385h2.173v7.353h3.245V136.25h2.129v7.49Z" transform="translate(-125.773 -99.544)" fill="#698d59"/>
        <path id="Trazado_901925" data-name="Trazado 901925" d="M178.794,104.842c-3.052,0-6.1.035-9.155-.033a4.725,4.725,0,0,1-1.586-.694c.307-.531.487-1.245.943-1.562,2.87-2,5.813-3.892,8.705-5.86a1.608,1.608,0,0,1,2.072-.042c2.928,1.995,5.907,3.915,8.819,5.933.43.3.6.969.894,1.468-.513.263-1.02.743-1.539.755-3.05.072-6.1.036-9.154.036m6.025-2.212c-2.071-1.379-3.8-2.549-5.559-3.682a.955.955,0,0,0-.823-.094c-1.819,1.162-3.609,2.372-5.721,3.776Z" transform="translate(-122.78 -70.352)" fill="#698d59"/>
        <path id="Trazado_901926" data-name="Trazado 901926" d="M10.7,104.844c-3.052,0-6.1.036-9.154-.035-.52-.012-1.03-.485-1.544-.746.291-.5.463-1.167.893-1.464,2.912-2.018,5.891-3.937,8.817-5.934a1.608,1.608,0,0,1,2.072.02c2.894,1.966,5.837,3.859,8.708,5.857.457.318.638,1.035.946,1.567a5.336,5.336,0,0,1-1.717.7c-3.005.071-6.013.033-9.02.033m6.071-2.219c-2.1-1.393-3.867-2.583-5.658-3.743a.806.806,0,0,0-.712-.037c-1.818,1.171-3.613,2.378-5.723,3.78Z" transform="translate(0 -70.354)" fill="#698d59"/>
        <path id="Trazado_901927" data-name="Trazado 901927" d="M122.105,144.272c.028.218.064.388.068.558.009.445,0,.89,0,1.433H120.1v-1.991Z" transform="translate(-87.746 -105.405)" fill="#698d59"/>
        <path id="Trazado_901928" data-name="Trazado 901928" d="M100.391,40.865,99.444,39.8l12.113-12.11.831,1.171-12,12" transform="translate(-72.654 -20.23)" fill="#698d59"/>
        <path id="Trazado_901929" data-name="Trazado 901929" d="M102.266,29.134a3.23,3.23,0,1,1-6.46-.048,3.23,3.23,0,0,1,6.46.048m-1.71.072c-.672-.518-1.058-1.048-1.425-1.035-.389.014-.76.544-1.138.848.343.393.627.988,1.047,1.109.3.088.79-.454,1.516-.923" transform="translate(-69.995 -18.945)" fill="#698d59"/>
        <path id="Trazado_901930" data-name="Trazado 901930" d="M134.264,57.371a3.231,3.231,0,1,1-6.46-.13,3.231,3.231,0,0,1,6.46.13m-3.247-1.527c-.48.691-1,1.109-.965,1.479s.606.709.943,1.06c.367-.365.945-.686,1.032-1.108.064-.314-.508-.759-1.01-1.431" transform="translate(-93.372 -39.524)" fill="#698d59"/>
      </g>
    </g>
  </g>
</svg>
