<svg xmlns="http://www.w3.org/2000/svg" xmlns:xlink="http://www.w3.org/1999/xlink" width="90" height="90" viewBox="0 0 90 90">
  <defs>
    <clipPath id="clip-path">
      <rect id="Rectángulo_402501" data-name="Rectángulo 402501" width="59.257" height="73.727" fill="#698d59"/>
    </clipPath>
  </defs>
  <g id="Grupo_1102783" data-name="Grupo 1102783" transform="translate(-589.274 -4888.681)">
    <path id="Trazado_876531" data-name="Trazado 876531" d="M45,0A45,45,0,1,1,0,45,45,45,0,0,1,45,0Z" transform="translate(589.274 4888.681)" fill="#fff"/>
    <g id="Grupo_1102232" data-name="Grupo 1102232" transform="translate(604.646 4896.817)">
      <g id="Grupo_1102231" data-name="Grupo 1102231" clip-path="url(#clip-path)">
        <path id="Trazado_901931" data-name="Trazado 901931" d="M3.22,19.895a12.262,12.262,0,0,1-2.177-.036,1.482,1.482,0,0,1-1.027-.793c-.093-.335.247-.835.489-1.2.145-.22.465-.325.709-.478,8.944-5.6,17.9-11.181,26.818-16.823a2.482,2.482,0,0,1,3.1-.039c8.912,5.651,17.878,11.218,26.8,16.856a6.668,6.668,0,0,1,1.33,1.65c-.682.3-1.348.64-2.052.868a4.615,4.615,0,0,1-1.218.075c-.23,1.119-.125,2.478-.753,3.116-.574.583-1.941.384-3.033.541V46.27c1.023.127,2.343-.087,2.978.474s.558,1.892.8,2.894c.45.384,1.384.795,1.443,1.307a16.81,16.81,0,0,1-.175,4.257c-.034.241-.963.5-1.481.5-3.84.042-7.681.023-11.521.023H42.589c1.553,6.745-.167,12.251-6.077,15.9a12.517,12.517,0,0,1-14.39-.354c-5.477-3.721-7.019-9.076-5.5-15.543-3.891,0-7.721,0-11.55,0-3.558,0-3.414.33-3.414-3.449,0-1.231-.052-2.406,1.64-2.366.5-3.236.5-3.236,3.664-3.608V23.656c-1.052-.18-2.439-.02-3.059-.634s-.477-2-.682-3.127m1.769-2.319H54.228C46.032,12.445,38.149,7.5,30.236,2.6a1.641,1.641,0,0,0-1.381.072c-1.3.717-2.539,1.549-3.8,2.338L4.989,17.576M29.813,71.422a11.437,11.437,0,1,0-11.63-11.249,11.465,11.465,0,0,0,11.63,11.249M27.184,46.333h4.838V23.543H27.184ZM19.436,23.574H14.712V46.352h4.724Zm25.052-.044H39.774V46.349h4.715Zm-32.214.017H9.286V46.354h2.988Zm9.554,22.789h3.043V23.566H21.828Zm12.507-.028h2.983V23.5H34.335Zm12.58-.013h3.017V23.539H46.915ZM5.733,21.332H19.252q16.479,0,32.958,0c1.339,0,1.339-.015,1.161-1.341H5.733Zm16.152,27.8-.161-.51H5.678c.025.478.046.871.071,1.344,4.527,0,8.938.047,13.346-.038a11.2,11.2,0,0,0,2.791-.8m31.588-.519H37.352a3.107,3.107,0,0,0,2.984,1.376c4.357-.059,8.714-.023,13.137-.023ZM4.008,52.238c-.317,1.049.034,1.361.941,1.355,3.938-.027,7.876.026,11.813-.055.546-.011,1.079-.608,1.619-.933l-.234-.367Zm37.046,0-.251.471c.547.291,1.089.825,1.641.835,3.936.073,7.875.022,11.812.05,1.033.007,1.232-.42.915-1.355Z" transform="translate(0 0)" fill="#698d59"/>
        <path id="Trazado_901932" data-name="Trazado 901932" d="M95.9,28.928a4.633,4.633,0,1,1-4.647-4.664A4.593,4.593,0,0,1,95.9,28.928M91.262,26.4a2.509,2.509,0,1,0,2.505,2.467A2.566,2.566,0,0,0,91.262,26.4" transform="translate(-61.664 -17.271)" fill="#698d59"/>
        <path id="Trazado_901933" data-name="Trazado 901933" d="M94.021,184.3a10.2,10.2,0,0,1-.653,1.078q-4.518,5.773-9.055,11.53c-.5.634-1.052,1.271-1.889.589-.76-.619-.323-1.279.146-1.875,3.052-3.878,6.089-7.768,9.18-11.614a2.271,2.271,0,0,1,1.423-.667c.349-.039.745.342,1.12.536Z" transform="translate(-58.376 -130.497)" fill="#698d59"/>
        <path id="Trazado_901934" data-name="Trazado 901934" d="M111.415,214.452a3.688,3.688,0,0,1-3.8,3.679,3.772,3.772,0,0,1-3.706-3.809,3.85,3.85,0,0,1,3.837-3.712,3.751,3.751,0,0,1,3.665,3.842m-5.516-.461-.022.691c.61.435,1.235,1.226,1.824,1.2a2.2,2.2,0,0,0,1.51-1.447,1.288,1.288,0,0,0-1.524-1.56c-.638.1-1.195.726-1.788,1.116" transform="translate(-73.964 -149.911)" fill="#698d59"/>
        <path id="Trazado_901935" data-name="Trazado 901935" d="M79.247,187.017a3.674,3.674,0,0,1-3.782-3.679A3.765,3.765,0,0,1,79.13,179.5a3.841,3.841,0,0,1,3.816,3.723,3.733,3.733,0,0,1-3.7,3.794m.245-5.542-.678.011c-.407.6-1.082,1.164-1.159,1.8a1.4,1.4,0,0,0,1.627,1.568,1.343,1.343,0,0,0,1.4-1.623c-.14-.642-.778-1.176-1.193-1.758" transform="translate(-53.715 -127.766)" fill="#698d59"/>
      </g>
    </g>
  </g>
</svg>
