<svg xmlns="http://www.w3.org/2000/svg" xmlns:xlink="http://www.w3.org/1999/xlink" width="108" height="108" viewBox="0 0 108 108">
  <defs>
    <filter id="Trazado_879799" x="0" y="0" width="108" height="108" filterUnits="userSpaceOnUse">
      <feOffset dy="3" input="SourceAlpha"/>
      <feGaussianBlur stdDeviation="3" result="blur"/>
      <feFlood flood-opacity="0.161"/>
      <feComposite operator="in" in2="blur"/>
      <feComposite in="SourceGraphic"/>
    </filter>
    <clipPath id="clip-path">
      <rect id="Rectángulo_402463" data-name="Rectángulo 402463" width="61.243" height="67.016" fill="#fff"/>
    </clipPath>
  </defs>
  <g id="Grupo_1102764" data-name="Grupo 1102764" transform="translate(-256.5 -632.713)">
    <g transform="matrix(1, 0, 0, 1, 256.5, 632.71)" filter="url(#Trazado_879799)">
      <path id="Trazado_879799-2" data-name="Trazado 879799" d="M45,0A45,45,0,1,1,0,45,45,45,0,0,1,45,0Z" transform="translate(9 6)" fill="#b771e5"/>
    </g>
    <g id="Grupo_1102186" data-name="Grupo 1102186" transform="translate(279.878 650.205)">
      <g id="Grupo_1102185" data-name="Grupo 1102185" clip-path="url(#clip-path)">
        <path id="Trazado_901770" data-name="Trazado 901770" d="M0,38.494C-.073,27.328,8.282,16.131,19.641,12.782a2.867,2.867,0,0,0,1.917-1.576,21.063,21.063,0,0,1,39.679,9.313,21.592,21.592,0,0,1-2.686,10.3c-.912,1.816-2.382,3.437-2.906,5.338s-.045,4.043-.235,6.059c-.927,9.859-8.359,22.484-23.377,24.512C19.95,68.363,8.869,62.864,3.446,52.809A30.367,30.367,0,0,1,0,38.494M40.171,49.461c1.708-1.806,3.3-3.4,4.8-5.088,4.415-4.984,8.552-10.17,11.356-16.28a15.845,15.845,0,0,0,1.55-9.284c-1.168-7.321-5.209-12.39-12.205-14.687C38.592,1.8,32.162,3.483,27.111,8.944,22.153,14.3,20.8,20.632,23.757,27.51c3.675,8.552,9.893,15.226,16.414,21.951M19.625,16.347l-.341-.233c-1.663.9-3.349,1.762-4.966,2.738a1.349,1.349,0,0,0-.4,1.241,3.872,3.872,0,0,1-.382,3.892,9.879,9.879,0,0,0-.775,1.539c-.731,1.712-1.185,3.376.246,5.037a11.131,11.131,0,0,1,2.184,5.9A6.28,6.28,0,0,0,18.606,41.3c.384.218.761.451,1.155.649q3.436,1.729,6.879,3.445c1.753.879,1.868,1.117,1.489,3q-.262,1.3-.518,2.6c-.636,3.245-.328,3.888,2.55,5.328a10.789,10.789,0,0,0,1.07.527,2.141,2.141,0,0,1,1.486,2.372c-.054,1.346-.012,2.695-.012,4.225a24.539,24.539,0,0,0,14.833-9.5,1.319,1.319,0,0,0-.825-1.954c-.77-.2-1.587-.237-2.334-.49A2.228,2.228,0,0,0,41.8,52.2c-1.354,1.387-1.947,1.386-3.321-.02-2.536-2.6-4.98-5.281-7.52-7.872A4.386,4.386,0,0,0,29.1,43.274a31.2,31.2,0,0,1-4.448-1.125,28.33,28.33,0,0,1-4.537-2.987,2.94,2.94,0,0,1-1.055-1.428c-.367-1.27-.565-2.59-.818-3.892a1.749,1.749,0,0,1,1.219-2.2c.733-.276,1.45-.592,2.237-.917-2.268-4.623-3.376-9.324-2.071-14.382M18.051,61.822c2.956,1.593,8.564,2.536,11.289,1.9.67-3.59.48-3.994-2.588-5.527a6.244,6.244,0,0,1-1.514-.805,2.456,2.456,0,0,1-.893-1.472,53.767,53.767,0,0,1,.389-6.6,1.431,1.431,0,0,0-.945-1.8c-3.18-1.626-6.518-2.962-9.329-5.275a4.612,4.612,0,0,1-1.806-2.789,23.327,23.327,0,0,0-3.636-9.444,2.817,2.817,0,0,1-.222-2.122c.582-2.1,1.337-4.151,2.014-6.188a6.3,6.3,0,0,0-.519.442,25.594,25.594,0,0,0-6.7,12.739c-.513,2.353-.356,4.352,1.739,5.859.8.575,1.536,1.542,2.4,1.668,2.428.355,3.855,1.88,5.016,3.744a2.732,2.732,0,0,0,2.174,1.472A7.9,7.9,0,0,1,20.4,50.694c1.124,1.325,1.335,1.68.336,3.118a13.824,13.824,0,0,0-2.681,8.01M3.7,44.274A24.749,24.749,0,0,0,15.056,60.379a13.023,13.023,0,0,1,2.914-8.044c-1.14-.525-2.041-.994-2.984-1.357-.738-.285-1.532-.42-2.292-.653a3.733,3.733,0,0,1-2.5-2.155A4.326,4.326,0,0,0,6.95,45.521,18.649,18.649,0,0,1,3.7,44.274m23.163-4.527.17-.252c-1.167-1.793-2.31-3.6-3.531-5.358a1.122,1.122,0,0,0-1.072-.172,1.437,1.437,0,0,0-.679,1c-.1,1.637,1.155,2.306,2.315,3.024.936.58,1.865,1.172,2.8,1.76M50.233,49.6c.148-.649.676-1.589.434-2.245-.309-.834-1.3-1.772-2.288-1.349a13.968,13.968,0,0,0-2.9,2.364l4.757,1.23m.3-6.724L52,43.83c.107-1,.2-1.86.292-2.725L52,41.034,50.53,42.873" transform="translate(0.001 0)" fill="#fff"/>
        <path id="Trazado_901771" data-name="Trazado 901771" d="M110.308,23.859a14.723,14.723,0,0,1,14.77,14.888,14.756,14.756,0,1,1-29.511-.237,14.729,14.729,0,0,1,14.741-14.651m-6.991,23.767c0-2.326-.044-4.444.025-6.557a4.3,4.3,0,0,1,.551-1.989c1.542-2.583,3.155-5.124,4.767-7.666.986-1.556,2.169-1.557,3.185-.009,1.117,1.7,2.1,3.505,3.33,5.116a9.955,9.955,0,0,1,2.175,7.525,32.843,32.843,0,0,0-.022,3.643,11.511,11.511,0,1,0-18.089-12.3,11.283,11.283,0,0,0,4.078,12.241m8.59,2.638c.857-.442,2.081-.745,2.113-1.143.184-2.347.091-4.715.091-7.075h-2.2Zm-3.373-.36V42.061h-1.866a1.234,1.234,0,0,0-.122.317q-.02,2.785-.028,5.571c0,1.791.029,1.82,2.015,1.956m1.739-15.033-2.386,3.816h4.822l-2.436-3.816" transform="translate(-70.17 -17.518)" fill="#fff"/>
      </g>
    </g>
  </g>
</svg>
