<svg xmlns="http://www.w3.org/2000/svg" xmlns:xlink="http://www.w3.org/1999/xlink" width="90" height="90" viewBox="0 0 90 90">
  <defs>
    <clipPath id="clip-path">
      <rect id="Rectángulo_402466" data-name="Rectángulo 402466" width="43.587" height="63.428" fill="#fff"/>
    </clipPath>
  </defs>
  <g id="Grupo_1102765" data-name="Grupo 1102765" transform="translate(-757.967 -1131.576)">
    <circle id="Elipse_11507" data-name="Elipse 11507" cx="45" cy="45" r="45" transform="translate(757.967 1131.576)" fill="#382a8e"/>
    <g id="Grupo_1102192" data-name="Grupo 1102192" transform="translate(781.673 1144.862)">
      <g id="Grupo_1102191" data-name="Grupo 1102191" clip-path="url(#clip-path)">
        <path id="Trazado_901786" data-name="Trazado 901786" d="M14.26,3.253a2.926,2.926,0,0,0,.1-.5C14.234-.53,14.678.047,17.268.028,20.609,0,23.949.021,27.29.022c1.9,0,1.927.027,1.937,1.953,0,.365,0,.729,0,1.184a18.494,18.494,0,0,1,1.9.119,3.68,3.68,0,0,1,2.948,2.19,1.168,1.168,0,0,0,1.318.784c2.227-.029,4.454.018,6.681-.023,1.121-.021,1.518.442,1.517,1.554q-.031,27.034,0,54.068c0,1.191-.482,1.578-1.634,1.576q-20.167-.035-40.334-.017C.167,63.411,0,63.239,0,61.75Q0,34.84,0,7.93C0,6.421.182,6.247,1.727,6.243c2.145-.006,4.29.014,6.433-.017.363-.005.941-.109,1.05-.341,1.01-2.142,2.77-2.807,5.05-2.632M1.935,61.608H3.4c12.254,0,24.507-.022,36.76.032,1.282.006,1.562-.351,1.559-1.581q-.061-25.188-.027-50.375V8.214h-7.2c0,.481,0,.847,0,1.212-.015,2-.042,2.025-2,2.025H11.206c-2.217,0-2.214,0-2.241-2.165,0-.358-.05-.715-.077-1.077H1.935ZM16.309,1.967a2.022,2.022,0,0,0-.142.407c-.225,2.57-.224,2.57-2.811,2.7-.124.006-.248,0-.37.019A2.123,2.123,0,0,0,10.936,6.91a19.033,19.033,0,0,0-.025,2.65H32.675c0-.707.014-1.323,0-1.938a2.23,2.23,0,0,0-2.42-2.489c-.535-.024-1.071-.008-1.607-.013-.8-.008-1.221-.377-1.19-1.217.024-.639,0-1.279,0-1.935Z" transform="translate(0 0)" fill="#fff"/>
        <path id="Trazado_901787" data-name="Trazado 901787" d="M46.071,66.547A17.825,17.825,0,0,1,50.188,75.6c.224,1.75.178,3.536.228,5.307.02.71-.379,1.043-1.086,1.04-1.485-.006-2.971-.027-4.456.01-.954.024-1.312-.4-1.355-1.329a39.565,39.565,0,0,0-.408-5.036,19.74,19.74,0,0,0-1.328-3.446l-3.638,4.752c-.777,1.015-1.585,2.009-2.325,3.051a4.2,4.2,0,0,1-4.736,1.834,5.23,5.23,0,0,1-4.033-4.21,4.088,4.088,0,0,1,2.2-4.666c2.45-1.509,4.9-3.016,7.391-4.548-1.813-1.15-5-1.418-7.564-.688a11.33,11.33,0,0,0-8.233,10.7c-.015.784-.029,1.569,0,2.351.031.818-.285,1.237-1.144,1.227-1.526-.019-3.053-.008-4.58-.005A1.036,1.036,0,0,1,13.96,80.8c-.373-7.707,2.261-14.013,9.059-17.985,6.631-3.875,13.312-3.434,19.7.821a1.228,1.228,0,0,0,1.621,0,27.187,27.187,0,0,1,3.067-1.852c.375-.185.946.026,1.428.056a3.415,3.415,0,0,1-.226,1.319c-.78,1.153-1.664,2.236-2.538,3.385M19.03,80.112c0-.52-.007-.964,0-1.408.18-10.024,9.832-16.1,18.937-11.941a1.455,1.455,0,0,0,1.1.063c.892-.453,1.722-1.026,2.615-1.576-4.7-3.838-12.336-4.148-17.924-.821a16.275,16.275,0,0,0-7.888,15.684ZM43.919,66.346l-.185-.242Q40.865,67.856,38,69.609q-4.051,2.479-8.1,4.964a2.3,2.3,0,0,0-1.072,2.559,3.441,3.441,0,0,0,2.445,2.832,2.22,2.22,0,0,0,2.7-.593C37.3,75.043,40.6,70.69,43.919,66.346m1.56,13.588H48.57a16.686,16.686,0,0,0-3.662-11.865c-.524.676-.913,1.258-1.384,1.765-.555.6-.518,1.058-.147,1.819a26.342,26.342,0,0,1,1.751,4.711,21.193,21.193,0,0,1,.351,3.57" transform="translate(-10.478 -45.266)" fill="#fff"/>
        <path id="Trazado_901788" data-name="Trazado 901788" d="M45.4,172.1q6.189,0,12.379,0c.33,0,.728-.1.973.054a1.624,1.624,0,0,1,.777.928c.036.25-.4.657-.715.84a2.093,2.093,0,0,1-.97.08q-12.5,0-25,0a1.947,1.947,0,0,1-.966-.1c-.3-.193-.664-.588-.653-.884a1.31,1.31,0,0,1,.706-.849,2.607,2.607,0,0,1,1.1-.07q6.189,0,12.379,0" transform="translate(-23.491 -129.464)" fill="#fff"/>
        <path id="Trazado_901789" data-name="Trazado 901789" d="M45.425,214.945q-6.127,0-12.254,0a2.667,2.667,0,0,1-1.1-.056c-.35-.173-.866-.627-.817-.851.081-.37.526-.7.881-.954.165-.119.481-.032.728-.032q12.563,0,25.127,0c.288,0,.641-.078.849.057.31.2.706.554.718.855s-.359.705-.667.876a2.4,2.4,0,0,1-1.09.1q-6.189.008-12.378,0" transform="translate(-23.515 -160.278)" fill="#fff"/>
        <path id="Trazado_901790" data-name="Trazado 901790" d="M45.359,194.458H33.112c-.33,0-.724.107-.974-.036a1.884,1.884,0,0,1-.889-.935c-.054-.192.483-.623.823-.827.216-.129.563-.048.851-.048q12.495,0,24.989,0c.247,0,.559-.082.729.035a7.871,7.871,0,0,1,.965.92c-.337.3-.635.759-1.019.848a9,9,0,0,1-1.971.044H45.359" transform="translate(-23.509 -144.902)" fill="#fff"/>
        <path id="Trazado_901791" data-name="Trazado 901791" d="M66.168,26.866c-1.935,0-3.869.006-5.8,0-.657,0-1.437.072-1.459-.888s.706-.95,1.4-.949q5.8,0,11.608,0c.69,0,1.42,0,1.4.949s-.8.885-1.459.888c-1.893.009-3.787,0-5.68,0" transform="translate(-44.32 -18.83)" fill="#fff"/>
        <path id="Trazado_901792" data-name="Trazado 901792" d="M76.123,15.376a20.353,20.353,0,0,1-2.834-.043c-.4-.057-.738-.574-1.1-.881.365-.312.717-.873,1.1-.892a55.089,55.089,0,0,1,5.553,0c.373.019.718.583,1.076.9-.357.307-.682.821-1.076.88a18.237,18.237,0,0,1-2.71.041" transform="translate(-54.313 -10.15)" fill="#fff"/>
        <path id="Trazado_901793" data-name="Trazado 901793" d="M83.972,114.1a2.418,2.418,0,0,1,2.393,2.463,2.434,2.434,0,1,1-4.867-.077,2.419,2.419,0,0,1,2.474-2.386" transform="translate(-61.319 -85.847)" fill="#fff"/>
      </g>
    </g>
  </g>
</svg>
