<svg xmlns="http://www.w3.org/2000/svg" xmlns:xlink="http://www.w3.org/1999/xlink" width="90" height="90" viewBox="0 0 90 90">
  <defs>
    <clipPath id="clip-path">
      <rect id="Rectángulo_402468" data-name="Rectángulo 402468" width="65.849" height="66.24" fill="#fff"/>
    </clipPath>
  </defs>
  <g id="Grupo_1102767" data-name="Grupo 1102767" transform="translate(-323.717 -1591.37)">
    <circle id="Elipse_11511" data-name="Elipse 11511" cx="45" cy="45" r="45" transform="translate(323.717 1591.37)" fill="#382a8e"/>
    <g id="Grupo_1102196" data-name="Grupo 1102196" transform="translate(335.292 1603.25)">
      <g id="Grupo_1102195" data-name="Grupo 1102195" clip-path="url(#clip-path)">
        <path id="Trazado_901796" data-name="Trazado 901796" d="M19.928,47.94a27.79,27.79,0,1,1,27.813,27.8,27.832,27.832,0,0,1-27.813-27.8m29.08,25.143c5.59-.149,12.832-3.23,15.562-6.646-.771-.706-1.563-1.424-2.347-2.153-.661-.615-1.068-1.355-.334-2.112.795-.819,1.558-.371,2.2.323.723.777,1.434,1.566,2.239,2.446a25.284,25.284,0,0,0,6.542-15.7c-1.266,0-2.375-.006-3.485,0-.89.006-1.569-.331-1.57-1.29s.673-1.3,1.566-1.293c1.145.008,2.29,0,3.518,0a25.6,25.6,0,0,0-6.679-15.809,18.5,18.5,0,0,1-1.316,1.723c-1.616,1.664-2.413,1.98-3.012,1.16-1.087-1.487.435-2.1,1.158-2.92a14.189,14.189,0,0,1,1.712-1.423,25.42,25.42,0,0,0-15.757-6.611c0,1.217-.01,2.324,0,3.429.011.94-.313,1.67-1.351,1.637-.958-.031-1.249-.745-1.236-1.625.016-1.135,0-2.271,0-3.4-5.535.128-12.8,3.218-15.562,6.643.741.676,1.5,1.364,2.258,2.061.682.631,1.213,1.386.42,2.2-.859.885-1.633.3-2.292-.414-.693-.746-1.373-1.505-2.143-2.352a25.243,25.243,0,0,0-6.551,15.7c1.268,0,2.377.007,3.486,0,.891-.007,1.569.328,1.573,1.287s-.671,1.3-1.563,1.3c-1.145-.007-2.291,0-3.511,0a25.387,25.387,0,0,0,6.551,15.676c.8-.861,1.517-1.641,2.243-2.414.646-.687,1.411-1.16,2.2-.336s.268,1.568-.409,2.206c-.765.721-1.531,1.441-2.289,2.153,3.688,3.777,11.111,6.829,15.586,6.464,0-1.093.013-2.2,0-3.306-.014-.879.272-1.6,1.23-1.631,1.038-.039,1.368.687,1.357,1.629-.012,1.106,0,2.212,0,3.4" transform="translate(-14.801 -14.973)" fill="#fff"/>
        <path id="Trazado_901797" data-name="Trazado 901797" d="M32.905,65.913A32.946,32.946,0,1,1,65.647,29.491a32.4,32.4,0,0,1-4.972,21.225c-.227.362-.418.859-.754,1.013-.477.219-1.229.411-1.576.182a1.942,1.942,0,0,1-.451-1.52c.028-.415.446-.806.7-1.2,11.7-18.5.329-43.18-21.308-46.267A30.355,30.355,0,1,0,49.549,58.377q.162-.1.322-.212c.731-.5,1.481-.606,2.024.2A1.229,1.229,0,0,1,51.3,60.29a72.489,72.489,0,0,1-9.043,4.2c-2.972.971-6.187,1.2-9.3,1.755l-.058-.327" transform="translate(0 0)" fill="#fff"/>
        <path id="Trazado_901798" data-name="Trazado 901798" d="M212.984,211.931c-.485.352-1,1.016-1.446.972a1.806,1.806,0,0,1-1.229-1.208c-.064-.339.67-1.138,1.1-1.179.484-.046,1.027.528,1.544.833q.015.291.03.583" transform="translate(-156.197 -156.351)" fill="#fff"/>
        <path id="Trazado_901799" data-name="Trazado 901799" d="M87.988,87.781a3.011,3.011,0,0,1,0-.386,5.154,5.154,0,0,0-1.849-4.748,11.364,11.364,0,0,1,.39-16.436,11.636,11.636,0,0,1,16.59.87A11.467,11.467,0,0,1,101.868,83.5a2.471,2.471,0,0,0-1.026,2.266c.065,1.5.043,3,.008,4.5a6.43,6.43,0,0,1-12.858-.04c-.019-.814,0-1.629,0-2.444m10.363-1.53c0-1.1-.3-2.216.081-3.014.4-.841,1.464-1.354,2.2-2.047a8.934,8.934,0,0,0,.187-12.783,9.051,9.051,0,0,0-13,.151c-3.409,3.618-3.275,9.644.6,12.722,1.69,1.342,2.455,2.665,2.174,4.7-.009.065.07.143.135.266Zm-.15,2.72H90.639c-.234,3.072,1.275,5.036,3.784,5.052,1.914.012,4.329-1.663,3.779-5.052" transform="translate(-61.506 -46.9)" fill="#fff"/>
        <path id="Trazado_901800" data-name="Trazado 901800" d="M117.078,105.26a18.3,18.3,0,0,1,1.324-1.724,1.171,1.171,0,0,1,1.82-.03,1.112,1.112,0,0,1-.032,1.8c-2.306,1.522-2.309,3.77-2.14,6.115.018.255.1.6-.032.754-.374.444-.841,1.125-1.267,1.121a1.71,1.71,0,0,1-1.209-1.137,14.659,14.659,0,0,1-.053-3.33,2.386,2.386,0,0,0-.914-2.242,9.911,9.911,0,0,1-1.268-1.273,1.2,1.2,0,0,1,.012-1.828,1.176,1.176,0,0,1,1.822.058,17.968,17.968,0,0,1,1.3,1.736l.634-.026" transform="translate(-83.846 -76.564)" fill="#fff"/>
      </g>
    </g>
  </g>
</svg>
