<svg xmlns="http://www.w3.org/2000/svg" xmlns:xlink="http://www.w3.org/1999/xlink" width="90" height="90" viewBox="0 0 90 90">
  <defs>
    <clipPath id="clip-path">
      <rect id="Rectángulo_402521" data-name="Rectángulo 402521" width="64.639" height="57.438" fill="#fff"/>
    </clipPath>
  </defs>
  <g id="Grupo_1102766" data-name="Grupo 1102766" transform="translate(-758.467 -4185)">
    <circle id="Elipse_11518" data-name="Elipse 11518" cx="45" cy="45" r="45" transform="translate(758.467 4185)" fill="#382a8e"/>
    <g id="Grupo_1102248" data-name="Grupo 1102248" transform="translate(771.147 4201.281)">
      <g id="Grupo_1102247" data-name="Grupo 1102247" clip-path="url(#clip-path)">
        <path id="Trazado_901988" data-name="Trazado 901988" d="M105.086,49.567c0,3.447-.009,6.891,0,10.336a3.268,3.268,0,0,1-1.51,3.126c-.454.265-1.2.623-1.517.435-1.95-1.157-4.067.732-5.96-.413a3.224,3.224,0,0,1-1.515-3q.006-4.544,0-9.089,0-.685,0-1.371c-3.238.048-4.265-.955-4.268-4.066,0-2.02-.02-4.04.005-6.06.045-3.51,2.2-5.628,5.715-5.641,2.609-.01,5.218-.02,7.827,0a5.2,5.2,0,0,1,5.463,5.241c.084,2.438.068,4.882.006,7.321-.057,2.29-1.413,3.29-4.252,3.182m-1.943.786q0-4.86,0-9.721c0-.734.134-1.509,1.005-1.378.372.056.869.86.9,1.347.107,1.846.052,3.7.041,5.553,0,.795.178,1.491,1.107,1.521.995.032,1.24-.66,1.235-1.525-.012-2.314.015-4.629-.01-6.943a3.219,3.219,0,0,0-3.379-3.438q-4.165-.068-8.332,0a3.241,3.241,0,0,0-3.448,3.5q-.031,3.093,0,6.186c.01.924-.294,2.2,1.158,2.2s1.149-1.272,1.165-2.191c.029-1.683-.056-3.371.056-5.047.029-.43.612-.823.941-1.233a10.177,10.177,0,0,1,.932,1.266c.123.229.023.578.023.872,0,6.186-.021,12.372.036,18.558a2.173,2.173,0,0,0,.815,1.606c.762.462,1.473-.31,1.476-1.534.01-4.082,0-8.164,0-12.246,0-.295-.1-.651.026-.871a9.354,9.354,0,0,1,.977-1.2,8.13,8.13,0,0,1,.917,1.136c.127.224.027.577.027.871,0,3.914-.009,7.827.007,11.741,0,.924-.286,2.184,1.189,2.167,1.367-.016,1.127-1.208,1.131-2.106.012-3.03,0-6.06,0-9.09" transform="translate(-67.503 -25.27)" fill="#fff"/>
        <path id="Trazado_901989" data-name="Trazado 901989" d="M17.24,101.366c0,1.052-.009,2.1,0,3.156.008.717-.048,1.477-.965,1.451s-.91-.805-.906-1.51c.01-1.809-.027-3.62.013-5.428A5.6,5.6,0,0,0,14.053,95.2c-2.266-2.766-4.578-5.5-6.686-8.387a22.913,22.913,0,0,1-2.9-5.259C2.92,77.52,1.622,73.388.214,69.3a3.054,3.054,0,0,1,.832-3.456,2.746,2.746,0,0,1,3.263-.6,4.322,4.322,0,0,1,1.861,1.9c1.4,3.238,2.63,6.548,3.927,9.83.251.636.4,1.278-.411,1.579s-1.123-.266-1.376-.907c-1.23-3.128-2.482-6.247-3.7-9.379-.333-.857-.758-1.638-1.8-1.279-1.136.389-.929,1.315-.618,2.215,1.385,4.01,2.671,8.058,4.178,12.021a19.714,19.714,0,0,0,2.605,4.566c1.818,2.472,3.723,4.895,5.765,7.183a8.961,8.961,0,0,1,2.509,7.253,10.639,10.639,0,0,0-.006,1.136" transform="translate(0 -48.536)" fill="#fff"/>
        <path id="Trazado_901990" data-name="Trazado 901990" d="M187.747,101.437c0-.8.034-1.6-.007-2.4a7.016,7.016,0,0,1,1.769-4.979c2.194-2.662,4.416-5.309,6.455-8.087a22.009,22.009,0,0,0,2.8-5.025c1.449-3.76,2.657-7.613,3.963-11.428.082-.238.276-.513.216-.71-.175-.581-.3-1.38-.722-1.64-.711-.437-1.373.042-1.681.81-.891,2.223-1.758,4.454-2.636,6.682-.416,1.055-.84,2.107-1.25,3.165-.254.656-.681,1.233-1.381.8a1.562,1.562,0,0,1-.37-1.438c1.244-3.346,2.555-6.668,3.9-9.975a3.178,3.178,0,1,1,5.94,2.257c-1.463,4.338-2.9,8.69-4.5,12.975a17.809,17.809,0,0,1-2.491,4.349c-2.2,2.923-4.535,5.745-6.852,8.579a5.479,5.479,0,0,0-1.3,3.715c.034,1.851,0,3.7.012,5.555,0,.719-.045,1.475-.959,1.456s-.918-.8-.912-1.5c.009-1.052,0-2.1,0-3.156" transform="translate(-140.315 -48.66)" fill="#fff"/>
        <path id="Trazado_901991" data-name="Trazado 901991" d="M158.182,140.522a41.993,41.993,0,0,1,.094-6.908,11.144,11.144,0,0,1,2.234-4.674c1.814-2.36,3.931-4.488,5.938-6.7,1.344-1.481,3.006-1.7,4.349-.6a2.966,2.966,0,0,1,.371,4.278c-1.2,1.724-2.445,3.418-3.655,5.137-.4.562-.862,1.053-1.546.6-.77-.512-.409-1.146.014-1.735,1.178-1.637,2.339-3.288,3.517-4.925.452-.628.789-1.3.041-1.877-.684-.531-1.238-.1-1.726.449-1.962,2.193-3.941,4.373-5.9,6.566a7.613,7.613,0,0,0-1.969,5.305c.017,3.364,0,6.728,0,10.092,0,.294,0,.589,0,.883,0,.726-.139,1.51-1.011,1.383-.365-.053-.854-.864-.879-1.351-.1-1.971-.041-3.951-.041-5.927h.171" transform="translate(-118.089 -90.403)" fill="#fff"/>
        <path id="Trazado_901992" data-name="Trazado 901992" d="M54.941,140.466c0-1.766,0-3.532,0-5.3a7.283,7.283,0,0,0-1.887-4.953c-1.98-2.234-3.993-4.439-5.984-6.663-.49-.548-1.052-.968-1.729-.429-.74.589-.39,1.253.062,1.879,1.18,1.636,2.391,3.253,3.481,4.948.265.413.357,1.346.1,1.607-.628.628-1.182.089-1.609-.518-1.234-1.753-2.507-3.478-3.725-5.241a2.978,2.978,0,0,1,4.637-3.738c2.159,2.355,4.3,4.725,6.4,7.138a8.915,8.915,0,0,1,2.189,5.907c.034,3.742.007,7.484.015,11.227,0,.714-.037,1.485-.931,1.5-.987.014-1.005-.818-1-1.562q0-2.9,0-5.8h-.008" transform="translate(-32.13 -90.396)" fill="#fff"/>
        <path id="Trazado_901993" data-name="Trazado 901993" d="M178.359,54.821a2.3,2.3,0,0,1-.115.84c-.255.446-.567,1.133-.933,1.186-.828.119-.947-.6-.936-1.291.014-.967,0-1.935,0-2.9,0-2.651.006-5.3,0-7.951,0-.684.069-1.343.923-1.361s.966.642.965,1.324q0,3.218,0,6.437c0,.84.057,1.727,1.154,1.745,1.165.019,1.249-.877,1.245-1.781-.01-2.524.014-5.048-.009-7.572a3.33,3.33,0,0,0-3.605-3.623c-1.556-.016-3.113,0-4.67,0-.695,0-1.4-.182-1.25-.995a1.6,1.6,0,0,1,1.2-.9,44.365,44.365,0,0,1,5.171-.012,5.122,5.122,0,0,1,5.013,5.274c.045,2.4.013,4.8.013,7.194,0,3.457-.758,4.267-4.171,4.4" transform="translate(-127.891 -28.318)" fill="#fff"/>
        <path id="Trazado_901994" data-name="Trazado 901994" d="M43.854,54.877a11.44,11.44,0,0,1-2.252-.338,2.732,2.732,0,0,1-1.9-2.711c-.025-2.986-.067-5.975.018-8.96A5.059,5.059,0,0,1,44.7,37.96a44.706,44.706,0,0,1,5.171.01,1.609,1.609,0,0,1,1.216.89c.162.809-.536,1.008-1.236,1.008-1.6,0-3.2-.016-4.8.007a3.294,3.294,0,0,0-3.489,3.481c-.035,2.608,0,5.217-.013,7.825,0,.881.159,1.687,1.232,1.67,1.1-.018,1.168-.889,1.168-1.733q0-3.155,0-6.311c0-.7,0-1.467.951-1.46s.936.768.935,1.47q-.008,5.238,0,10.475c0,.716.11,1.584-.93,1.594s-.926-.872-.965-1.58a2.6,2.6,0,0,0-.087-.43" transform="translate(-29.653 -28.32)" fill="#fff"/>
        <path id="Trazado_901995" data-name="Trazado 901995" d="M66.575,11.546a3.6,3.6,0,1,1,3.632-3.587,3.588,3.588,0,0,1-3.632,3.587M68.29,7.979a1.733,1.733,0,0,0-1.632-1.743A1.709,1.709,0,1,0,68.29,7.979" transform="translate(-47.074 -3.241)" fill="#fff"/>
        <path id="Trazado_901996" data-name="Trazado 901996" d="M171.682,7.989a3.613,3.613,0,1,1-3.563-3.65,3.584,3.584,0,0,1,3.563,3.65m-3.468-1.748A1.71,1.71,0,1,0,168,9.654a1.71,1.71,0,0,0,.216-3.413" transform="translate(-122.918 -3.243)" fill="#fff"/>
        <path id="Trazado_901997" data-name="Trazado 901997" d="M120.984,3.693A3.593,3.593,0,1,1,117.45,0a3.61,3.61,0,0,1,3.535,3.691m-1.872-.035a1.719,1.719,0,0,0-3.438.016,1.721,1.721,0,0,0,3.438-.016" transform="translate(-85.056 -0.001)" fill="#fff"/>
        <path id="Trazado_901998" data-name="Trazado 901998" d="M90.273,110.378a25.911,25.911,0,0,1,.044-3.272c.056-.444.606-.824.93-1.234.317.415.892.821.909,1.247.09,2.308.084,4.622,0,6.93-.014.4-.563.772-.865,1.157-.339-.391-.924-.755-.971-1.179a33.491,33.491,0,0,1-.047-3.651" transform="translate(-67.449 -79.132)" fill="#fff"/>
        <path id="Trazado_901999" data-name="Trazado 901999" d="M158.053,110.655c0-1.093.008-2.185,0-3.278-.007-.7.182-1.417.963-1.282a1.7,1.7,0,0,1,.925,1.309c.1,2.223.091,4.454,0,6.678a1.6,1.6,0,0,1-.888,1.217c-.8.156-1-.539-1-1.241,0-1.135,0-2.269,0-3.4" transform="translate(-118.131 -79.286)" fill="#fff"/>
        <path id="Trazado_902000" data-name="Trazado 902000" d="M75.334,93.442a25.209,25.209,0,0,1-.043,3.14c-.051.4-.588.749-.9,1.12-.317-.372-.893-.734-.909-1.118-.089-2.177-.089-4.362,0-6.539.016-.384.593-.744.911-1.116.315.372.858.719.9,1.121a30.668,30.668,0,0,1,.043,3.392" transform="translate(-54.869 -66.468)" fill="#fff"/>
        <path id="Trazado_902001" data-name="Trazado 902001" d="M176.841,93.319a23.812,23.812,0,0,1-.044,3.139c-.06.448-.6.832-.917,1.245-.315-.414-.884-.818-.9-1.246-.095-2.093-.095-4.194,0-6.287.019-.426.591-.827.908-1.24.319.414.853.8.913,1.249a23.9,23.9,0,0,1,.043,3.139" transform="translate(-130.729 -66.469)" fill="#fff"/>
      </g>
    </g>
  </g>
</svg>
