<svg xmlns="http://www.w3.org/2000/svg" width="521.058" height="388.806" viewBox="0 0 521.058 388.806">
  <g id="Grupo_1103121" data-name="Grupo 1103121" transform="translate(-234.463 -5141.149)">
    <rect id="Rectángulo_401425" data-name="Rectángulo 401425" width="521.058" height="388.804" rx="20" transform="translate(234.463 5141.149)" fill="#ffedcc"/>
    <path id="Trazado_903955" data-name="Trazado 903955" d="M745.242,389.6l-.643-.395c36.572-59.479,55.631-113.218,56.647-159.726,1.05-48.1-17.6-77.506-33.43-93.708a108.279,108.279,0,0,0-56.043-30.478c-19.628-3.837-38.839-1.4-52.7,6.689l-.38-.652c14.022-8.179,33.425-10.65,53.229-6.777a109.041,109.041,0,0,1,56.439,30.692c15.931,16.3,34.7,45.893,33.644,94.253-1.019,46.643-20.115,100.51-56.759,160.1" transform="translate(-60.486 5118.668)" fill="#edebf7"/>
    <path id="Trazado_903956" data-name="Trazado 903956" d="M494.267,164.4c-17.079-37-50.257-65.922-91.527-70.949-32.926-4.011-66.039-4.548-99.108-6.566-34.9-2.13-69.073-8.606-103.562-14.281-22.139-3.643-41.534,1.737-63,9.525-29.322,10.637-57.656,44.98-70.443,72.456C35.82,220.786,52.834,304.052,79.98,368.559c1.33,3.16,10.5,28.306,13.247,28.306H452.268c21.66-31.766,39.412-66.7,49.268-102.778,11.711-42.866,11.587-88.832-7.269-129.682" transform="translate(219.805 5133.09)" fill="#edebf7"/>
    <rect id="Rectángulo_404065" data-name="Rectángulo 404065" width="459.378" height="325.42" transform="translate(269.959 5204.535)" fill="none"/>
    <path id="Trazado_903957" data-name="Trazado 903957" d="M47.671,306.157c-14.1-43.96-20.3-82.186-18.449-113.616,1.543-26.141,8.66-47.853,21.153-64.532C79,89.792,126.807,90.548,127.289,90.561l-.019.755c-.464-.014-47.913-.751-76.3,37.153-12.4,16.559-19.465,38.133-21,64.124-1.849,31.335,4.347,69.467,18.415,113.334Z" transform="translate(229.594 5124.287)" fill="#edebf7"/>
    <path id="Trazado_903958" data-name="Trazado 903958" d="M468.109,269.906H225.1a16.616,16.616,0,0,1-16.616-16.616V17.315A16.616,16.616,0,0,1,225.1.7H468.109a16.616,16.616,0,0,1,16.616,16.616V253.29a16.616,16.616,0,0,1-16.616,16.616" transform="translate(146.877 5165.676)" fill="#edebf7"/>
    <path id="Trazado_903959" data-name="Trazado 903959" d="M475.1,269.961H217.464a9.689,9.689,0,0,1-9.677-9.678V9.677A9.688,9.688,0,0,1,217.464,0H475.1a9.688,9.688,0,0,1,9.677,9.677V260.283a9.689,9.689,0,0,1-9.677,9.678M217.464.755a8.932,8.932,0,0,0-8.922,8.923V260.283a8.933,8.933,0,0,0,8.922,8.923H475.1a8.934,8.934,0,0,0,8.923-8.923V9.677A8.933,8.933,0,0,0,475.1.755Z" transform="translate(147.199 5165.998)" fill="#d8d5ef"/>
    <rect id="Rectángulo_404066" data-name="Rectángulo 404066" width="58.871" height="4.296" transform="translate(541.032 5197.739)" fill="#aea6dd"/>
    <rect id="Rectángulo_404067" data-name="Rectángulo 404067" width="93.798" height="4.296" transform="translate(522.541 5216.23)" fill="#c9c4e8"/>
    <rect id="Rectángulo_404068" data-name="Rectángulo 404068" width="84.481" height="4.296" transform="translate(522.541 5228.935)" fill="#c9c4e8"/>
    <rect id="Rectángulo_404069" data-name="Rectángulo 404069" width="74.779" height="4.296" transform="translate(522.541 5241.64)" fill="#d8d5ef"/>
    <rect id="Rectángulo_404070" data-name="Rectángulo 404070" width="93.798" height="4.296" transform="translate(522.541 5254.345)" fill="#d8d5ef"/>
    <rect id="Rectángulo_404071" data-name="Rectángulo 404071" width="69.238" height="4.296" transform="translate(522.541 5267.05)" fill="#d8d5ef"/>
    <rect id="Rectángulo_404072" data-name="Rectángulo 404072" width="90.023" height="4.296" transform="translate(375.276 5336.738)" fill="#c9c4e8"/>
    <rect id="Rectángulo_404073" data-name="Rectángulo 404073" width="232.767" height="4.296" transform="translate(375.535 5348.438)" fill="#d8d5ef"/>
    <rect id="Rectángulo_404074" data-name="Rectángulo 404074" width="108.409" height="114.73" transform="translate(375.418 5197.739)" fill="#fff"/>
    <rect id="Rectángulo_404075" data-name="Rectángulo 404075" width="7.537" height="26.386" transform="translate(385.222 5273.527)" fill="#c9c4e8"/>
    <rect id="Rectángulo_404076" data-name="Rectángulo 404076" width="7.537" height="22.666" transform="translate(398.766 5277.247)" fill="#e9e7f6"/>
    <rect id="Rectángulo_404077" data-name="Rectángulo 404077" width="7.537" height="37.041" transform="translate(412.31 5262.872)" fill="#c9c4e8"/>
    <rect id="Rectángulo_404078" data-name="Rectángulo 404078" width="7.537" height="34.389" transform="translate(425.854 5265.524)" fill="#e9e7f6"/>
    <rect id="Rectángulo_404079" data-name="Rectángulo 404079" width="7.537" height="46.259" transform="translate(439.397 5253.654)" fill="#c9c4e8"/>
    <rect id="Rectángulo_404080" data-name="Rectángulo 404080" width="7.537" height="52.672" transform="translate(452.942 5247.241)" fill="#e9e7f6"/>
    <rect id="Rectángulo_404081" data-name="Rectángulo 404081" width="7.537" height="58.391" transform="translate(466.486 5241.522)" fill="#c9c4e8"/>
    <path id="Trazado_903960" data-name="Trazado 903960" d="M281.34,141.221l-14.234-5.693.272-.68,13.83,5.532L295.3,128.718l13.146.306,39.624-24.469.385.623-39.81,24.583-13.089-.3Z" transform="translate(119.877 5117.84)" fill="#c9c4e8"/>
    <rect id="Rectángulo_404082" data-name="Rectángulo 404082" width="15.464" height="6.429" transform="translate(383.849 5220.469)" fill="#c9c4e8"/>
    <rect id="Rectángulo_404083" data-name="Rectángulo 404083" width="14.466" height="0.755" transform="translate(404.423 5224.156)" fill="#c9c4e8"/>
    <path id="Trazado_903961" data-name="Trazado 903961" d="M645.614,240.373a16.883,16.883,0,1,1-16.883-16.883,16.883,16.883,0,0,1,16.883,16.883" transform="translate(-38.912 5063.058)" fill="#fff"/>
    <path id="Trazado_903962" data-name="Trazado 903962" d="M539.544,257.255a16.887,16.887,0,0,1-2.612-33.57,17.233,17.233,0,0,1,2.612-.2,16.884,16.884,0,0,1,0,33.768" transform="translate(2.167 5063.059)" fill="#fff"/>
    <path id="Trazado_903963" data-name="Trazado 903963" d="M551.728,240.374l-2.612-16.689a17.234,17.234,0,0,1,2.612-.2,16.812,16.812,0,0,1,12.566,5.621Z" transform="translate(-10.017 5063.059)" fill="#c9c4e8"/>
    <rect id="Rectángulo_404084" data-name="Rectángulo 404084" width="231.673" height="44.53" transform="translate(377.257 5368.811)" fill="#fff"/>
    <path id="Trazado_903964" data-name="Trazado 903964" d="M481.517,421.279H249.284v-45.1H481.517Zm-231.667-.566h231.1V376.748H249.85Z" transform="translate(128.086 4992.728)" fill="#c9c4e8"/>
    <rect id="Rectángulo_404085" data-name="Rectángulo 404085" width="231.666" height="0.566" transform="translate(377.653 5404.535)" fill="#c9c4e8"/>
    <rect id="Rectángulo_404086" data-name="Rectángulo 404086" width="231.666" height="0.566" transform="translate(377.653 5395.628)" fill="#c9c4e8"/>
    <rect id="Rectángulo_404087" data-name="Rectángulo 404087" width="231.666" height="0.566" transform="translate(377.653 5386.722)" fill="#c9c4e8"/>
    <rect id="Rectángulo_404088" data-name="Rectángulo 404088" width="231.666" height="0.566" transform="translate(377.653 5377.816)" fill="#c9c4e8"/>
    <rect id="Rectángulo_404089" data-name="Rectángulo 404089" width="0.566" height="44.53" transform="translate(570.425 5369.193)" fill="#c9c4e8"/>
    <rect id="Rectángulo_404090" data-name="Rectángulo 404090" width="0.566" height="44.53" transform="translate(531.814 5369.193)" fill="#c9c4e8"/>
    <rect id="Rectángulo_404091" data-name="Rectángulo 404091" width="0.566" height="44.53" transform="translate(493.203 5369.193)" fill="#c9c4e8"/>
    <rect id="Rectángulo_404092" data-name="Rectángulo 404092" width="0.566" height="44.53" transform="translate(454.592 5369.193)" fill="#c9c4e8"/>
    <rect id="Rectángulo_404093" data-name="Rectángulo 404093" width="0.566" height="44.53" transform="translate(415.981 5369.193)" fill="#c9c4e8"/>
    <path id="Trazado_903965" data-name="Trazado 903965" d="M260.988,420.1c3.368-4.692,4.1-10.734,7.1-15.674,1.468-2.411,3.411-4.8,6.1-5.879,4.635-1.858,5.817,4.123,5.916,7.445.145,4.886-.666,10.187,3.371,13.855a5.346,5.346,0,0,0,4.948,1.469c2.18-.579,3.537-2.576,4.616-4.41,3.089-5.253,5.051-11.273,7.2-16.954,1.084-2.87,2.462-6.546,5.3-8.154,4.047-2.292,4.49,2.779,4.48,5.452-.011,2.929.02,5.857.045,8.787.012,1.408-.278,4.344,1.377,5.129.974.462,1.745-.42,2.291-1.128.475-.615.8-1.336,1.279-1.948a2.1,2.1,0,0,1,1.648-.992c.74-.061,1.093-.07,1.6.611a4.094,4.094,0,0,1,.528,1.359c.581,2.2-.016,4.686,1.229,6.716a4,4,0,0,0,3.584,2.036c2.828-.447,3.547-5.055,3.886-7.271a72.7,72.7,0,0,1,1.695-8.8c.823-2.913,1.888-6.393,4.1-8.572a4.286,4.286,0,0,1,3.252-1.517c1.823.2,2.393,2.261,2.838,3.735a35.677,35.677,0,0,1,1.6,10.292c0,2.4-.7,5.413.9,7.494a3.667,3.667,0,0,0,3.715,1.409c2.04-.508,2.533-2.489,2.948-4.284a7.5,7.5,0,0,1,.279-1.069c.4-1.012.556-1.13,1.648-1.175,1.2-.049,1.249.232,1.442,1.229a28.494,28.494,0,0,0,.4,3.011c.382,1.256,1.265,2.412,2.718,1.979,1.341-.4,2.059-1.835,2.5-3.047,1.274-3.485,1.155-7.343,1.345-10.99a17.923,17.923,0,0,1,1.436-7.2c.726-1.427,2.87-3.737,4.527-2.232,2.156,1.959,1.946,6.733,2,9.368.106,5.654-.843,11.331-.052,16.966.3,2.107.894,5.254,3.233,6.052,3.239,1.1,5.624-2.422,6.485-5,.684-2.051.841-4.2,1.327-6.291.256-1.1.648-3.111,2.151-2.482,1.3.542,1.83,2.374,2.969,3.2,3.679,2.676,5.931-2.544,6.364-5.37.633-4.129-.019-8.678,1.527-12.63a5.585,5.585,0,0,1,1.922-2.663c2.247-1.48,4.461.567,5.138,2.66a17.445,17.445,0,0,1,.447,5.017c.033,1.789.08,3.577.113,5.365.055,2.955-.21,5.971-.02,8.915a6.222,6.222,0,0,0,2.674,5.066c4.439,2.9,9.629-1.624,12.461-4.8a38.154,38.154,0,0,0,7.048-12.393,33.939,33.939,0,0,1,3-6.65c.723-1.126,2.733-3.826,4.382-3.08,1.074.485,1.431,2.428,1.662,3.429a35.669,35.669,0,0,1,.717,5.148c.267,3.283.286,6.575.347,9.866.051,2.787.286,6.991,3.384,8.118,4.837,1.762,7.144-5.165,8.484-8.364,1.109-2.65,2.461-6.245,5.04-7.82,2.193-1.339,3.72.727,4.532,2.565a14.562,14.562,0,0,1,1.2,5.644c.018,1.343-.087,3.024,1.382,3.673,3.21,1.415,6.134-3.9,7.381-5.987,1.138-1.908,2-3.907,2.954-5.909,1.2-2.514,5.12-7.321,6.751-2.5a14.619,14.619,0,0,1,.279,5.66c-.138,2.131-.29,4.268-.223,6.4.078,2.468.525,7.853,4.249,7.281,2.257-.347,4.581-2.832,6.272-4.242a82.269,82.269,0,0,0,7.033-6.626c.334-.353-.2-.887-.533-.533a82.443,82.443,0,0,1-7.033,6.626,51.228,51.228,0,0,1-4.111,3.194c-1.864,1.256-3.689.687-4.433-1.236-1.461-3.775-.571-8.446-.375-12.375.117-2.337-.176-7.684-3.756-7.035-2.145.389-3.624,2.7-4.521,4.485-1.016,2.022-1.848,4.1-2.991,6.064-1.134,1.945-2.44,4.26-4.33,5.566-1.425.985-3.093.519-3.253-1.4-.073-.873.021-1.742-.082-2.62-.3-2.533-1.261-6.719-4-7.745-3.807-1.423-6.58,4.982-7.663,7.49-1.11,2.566-1.969,5.854-4.02,7.857-1.446,1.412-3.792,1.9-5.27.269-1.081-1.194-1.353-3.077-1.5-4.613-.588-5.966.3-12.129-1.4-17.978-.491-1.687-1.425-3.77-3.513-3.031-3.5,1.239-5.093,5.785-6.286,8.918-1.906,5.008-4.018,9.8-7.732,13.783-2.143,2.3-5.249,5.136-8.6,5.069-4.4-.089-4.95-4.481-4.824-7.848.124-3.291-.006-6.593-.077-9.884-.058-2.653.3-5.814-1.011-8.24a4.437,4.437,0,0,0-4.428-2.454,5.117,5.117,0,0,0-3.329,3.078c-1.685,3.612-1.239,7.97-1.619,11.835-.217,2.207-.61,6-3.194,6.764-3.25.967-3.354-3.919-6.088-4.013-2.9-.1-2.923,6.864-3.425,8.7-.619,2.261-1.795,4.957-4.369,5.447-1.592.3-2.653-.7-3.271-2.068-1.406-3.113-1.233-7.035-1.146-10.371.065-2.491.288-4.975.331-7.466.047-2.686.581-14.223-4.542-12.986-3.544.856-4.452,5.433-4.767,8.464-.42,4.041-.065,8.181-1.218,12.127a5.72,5.72,0,0,1-1.557,2.908c-.894.727-1.961.105-2.4-.83a6.286,6.286,0,0,1-.343-2.11c-.1-1.149-.244-2.859-1.524-3.341-1.48-.558-2.693.955-3.138,2.17-.552,1.5-.372,3.484-1.9,4.482a2.873,2.873,0,0,1-4.075-1.425c-.771-1.543-.492-3.423-.418-5.083a31.554,31.554,0,0,0-.19-5.047,30.152,30.152,0,0,0-2.029-8.589c-1.612-3.629-5.2-2.664-7.339-.057-3.627,4.426-4.541,11.155-5.327,16.615a17.406,17.406,0,0,1-1.369,5.171c-.4.821-.978,1.792-1.955,1.958-1.634.277-2.987-1.608-3.345-2.947-.584-2.178-.033-9.9-4.568-7.532-1.407.736-1.542,2.494-2.743,3.378-1.877,1.381-1.992-1.673-2.005-2.855-.02-1.773-.031-3.547-.046-5.32a64.385,64.385,0,0,0-.129-7.224c-.185-1.512-.646-3.275-2.208-3.9-4.226-1.688-7.379,5.133-8.514,7.993-2.4,6.064-4.331,12.546-7.714,18.157-1.858,3.08-5.025,5.389-8.208,2.5a10.886,10.886,0,0,1-3.17-8.053c-.078-3.854,1.076-11.645-3.543-13.648-4.026-1.746-8.292,3.807-10,6.663-2.909,4.88-3.661,10.839-6.966,15.444-.284.4.371.772.652.381" transform="translate(123.027 4986.569)" fill="#aea6dd"/>
    <path id="Trazado_903966" data-name="Trazado 903966" d="M623.648,635.915h-50.8a7.079,7.079,0,0,1-7.078-7.078V597.52a7.079,7.079,0,0,1,7.078-7.078h50.8a7.078,7.078,0,0,1,7.078,7.078v31.316a7.079,7.079,0,0,1-7.078,7.078" transform="translate(-17.689 4894.04)" fill="#e9e7f6"/>
    <rect id="Rectángulo_404094" data-name="Rectángulo 404094" width="62.089" height="0.72" transform="translate(549.516 5504.184)" fill="#c9c4e8"/>
    <path id="Trazado_903967" data-name="Trazado 903967" d="M621.529,633.561a5.22,5.22,0,0,1-5.214-5.214v-1.379h10.428v1.379a5.22,5.22,0,0,1-5.214,5.214m-4.495-5.874v.66a4.495,4.495,0,1,0,8.989,0v-.66Z" transform="translate(-40.969 4877.216)" fill="#c9c4e8"/>
    <path id="Trazado_903968" data-name="Trazado 903968" d="M627.777,584.225h-.72V574.9a2.281,2.281,0,0,0-2.278-2.278H606.2a2.28,2.28,0,0,0-2.278,2.278v9.327h-.719V574.9a3,3,0,0,1,3-3H624.78a3,3,0,0,1,3,3Z" transform="translate(-34.931 4902.58)" fill="#c9c4e8"/>
    <rect id="Rectángulo_404095" data-name="Rectángulo 404095" width="3.506" height="3.776" transform="translate(566.901 5484.481)" fill="#c9c4e8"/>
    <rect id="Rectángulo_404096" data-name="Rectángulo 404096" width="3.506" height="3.776" transform="translate(590.723 5484.481)" fill="#c9c4e8"/>
    <rect id="Rectángulo_404097" data-name="Rectángulo 404097" width="46.296" height="38.59" transform="translate(382.029 5491.364)" fill="#e9e7f6"/>
    <rect id="Rectángulo_404098" data-name="Rectángulo 404098" width="53.115" height="8.104" transform="translate(378.62 5488.632)" fill="#c9c4e8"/>
    <path id="Trazado_903969" data-name="Trazado 903969" d="M304.218,646.278h-46.3V612.941s18.748,28.182,46.3,33.337" transform="translate(124.107 4883.676)" fill="#c9c4e8"/>
    <rect id="Rectángulo_404099" data-name="Rectángulo 404099" width="46.296" height="33.337" transform="translate(382.029 5496.617)" fill="none"/>
    <path id="Trazado_903970" data-name="Trazado 903970" d="M795.812,63.331a28.706,28.706,0,0,0-16.1,52.469l-1.1,13.224,10.774-9.016a28.7,28.7,0,1,0,6.432-56.677" transform="translate(-110.424 5136.827)" fill="#fff"/>
    <path id="Trazado_903971" data-name="Trazado 903971" d="M777.833,129.571l1.158-13.906a29.149,29.149,0,1,1,10.166,4.431Zm17.657-66.185A28.328,28.328,0,0,0,779.6,115.165l.182.124-1.045,12.543,10.224-8.555.183.042a28.326,28.326,0,1,0,6.348-55.932" transform="translate(-110.102 5137.149)" fill="#7c70c8"/>
    <rect id="Rectángulo_404100" data-name="Rectángulo 404100" width="8.535" height="8.857" transform="translate(681.738 5234.902)" fill="#fff"/>
    <path id="Trazado_903972" data-name="Trazado 903972" d="M822.147,136.656h-9.29v-9.612h9.29Zm-8.535-.755h7.78v-8.1h-7.78Z" transform="translate(-131.496 5107.481)" fill="#7c70c8"/>
    <path id="Trazado_903973" data-name="Trazado 903973" d="M822.481,110.485a6.925,6.925,0,1,0-12.93,3.445,12.223,12.223,0,0,1,1.737,6.093V121.6h8.535V119.96a11.973,11.973,0,0,1,1.724-6.008,6.872,6.872,0,0,0,.933-3.467" transform="translate(-129.55 5118.298)" fill="#fff"/>
    <path id="Trazado_903974" data-name="Trazado 903974" d="M819.877,121.651h-9.29V119.7a11.757,11.757,0,0,0-1.687-5.9,7.284,7.284,0,0,1-.97-3.725,7.4,7.4,0,0,1,6.958-7.2,7.3,7.3,0,0,1,6.662,10.952,11.51,11.51,0,0,0-1.673,5.818Zm-8.535-.755h7.78v-1.259a12.249,12.249,0,0,1,1.775-6.2,6.546,6.546,0,0,0-5.975-9.818,6.63,6.63,0,0,0-6.238,6.459,6.532,6.532,0,0,0,.869,3.338,12.5,12.5,0,0,1,1.788,6.282Z" transform="translate(-129.227 5118.62)" fill="#7c70c8"/>
    <path id="Trazado_903975" data-name="Trazado 903975" d="M816.44,112.932a1.321,1.321,0,1,1-.067-2.113,1.526,1.526,0,0,1,.067,2.113" transform="translate(-132.014 5115.037)" fill="#fff"/>
    <path id="Trazado_903976" data-name="Trazado 903976" d="M814.7,113.826a1.391,1.391,0,0,1-.808-.25,1.494,1.494,0,0,1-.61-1.217,2.486,2.486,0,0,1,1.633-2.328,1.436,1.436,0,0,1,1.963,1.377,2.487,2.487,0,0,1-1.633,2.329,1.755,1.755,0,0,1-.545.09m.756-3.13a.978.978,0,0,0-.306.052,1.734,1.734,0,0,0-1.114,1.587.686.686,0,0,0,.974.683,1.622,1.622,0,0,0,.8-.624,1.644,1.644,0,0,0,.315-.963.761.761,0,0,0-.29-.624.648.648,0,0,0-.378-.112" transform="translate(-131.691 5115.358)" fill="#7c70c8"/>
    <rect id="Rectángulo_404101" data-name="Rectángulo 404101" width="0.754" height="5.489" transform="translate(672.243 5217.241) rotate(-51.552)" fill="#7c70c8"/>
    <rect id="Rectángulo_404102" data-name="Rectángulo 404102" width="0.755" height="7.37" transform="translate(684.984 5209.469) rotate(-1.833)" fill="#7c70c8"/>
    <rect id="Rectángulo_404103" data-name="Rectángulo 404103" width="6.213" height="0.755" transform="translate(693.974 5219.499) rotate(-44.219)" fill="#7c70c8"/>
    <path id="Trazado_903977" data-name="Trazado 903977" d="M109.476,109a25.234,25.234,0,1,0-18.621,24.355l8.76,7.33L98.7,129.679A25.2,25.2,0,0,0,109.476,109" transform="translate(215.73 5127.417)" fill="#fff"/>
    <path id="Trazado_903978" data-name="Trazado 903978" d="M99.745,141.233l-9.3-7.785a25.638,25.638,0,1,1,8.329-3.907Zm-9.12-8.616,8.218,6.876-.86-10.321.177-.125a24.8,24.8,0,1,0-7.726,3.622Z" transform="translate(216.053 5127.739)" fill="#7c70c8"/>
    <path id="Trazado_903979" data-name="Trazado 903979" d="M99.062,129.651,91.907,122.5l.533-.533,6.375,6.375,7.389-16.832.692.3Z" transform="translate(200.574 5114.638)" fill="#7c70c8"/>
    <path id="Trazado_903980" data-name="Trazado 903980" d="M287.7,184.166l-6.768,3.963L208.968,230.3c-2.215,1.3-4.807.992-5.834-.69l0-.005c-1.028-1.682-.115-4.127,2.051-5.5l70.243-44.664,6.759-4.3Z" transform="translate(149.538 5085.33)" fill="#7c70c8"/>
    <path id="Trazado_903981" data-name="Trazado 903981" d="M349.79,184.166l-6.768,3.963a21.354,21.354,0,0,1-3.461-4.307,21.663,21.663,0,0,1-2.044-4.39l6.759-4.3Z" transform="translate(87.446 5085.331)" fill="#4635b1"/>
    <rect id="Rectángulo_404104" data-name="Rectángulo 404104" width="12.273" height="12.994" transform="translate(424.963 5260.465)" fill="none"/>
    <path id="Trazado_903982" data-name="Trazado 903982" d="M339.7,192.483a2.264,2.264,0,1,1,.752-3.111,2.263,2.263,0,0,1-.752,3.111" transform="translate(88.026 5079.272)" fill="#fff"/>
    <path id="Trazado_903983" data-name="Trazado 903983" d="M393.945,152.521a35.824,35.824,0,1,1,11.906-49.243,35.823,35.823,0,0,1-11.906,49.243" transform="translate(86.557 5126.332)" fill="#7c70c8"/>
    <path id="Trazado_903984" data-name="Trazado 903984" d="M410.115,127.728A29.058,29.058,0,1,1,381.057,98.67a29.058,29.058,0,0,1,29.058,29.058" transform="translate(80.774 5120.55)" fill="#fff"/>
    <rect id="Rectángulo_404105" data-name="Rectángulo 404105" width="504.172" height="363.957" transform="translate(242.906 5165.998)" fill="none"/>
    <rect id="Rectángulo_404106" data-name="Rectángulo 404106" width="9.108" height="55.902" transform="translate(440.911 5258.1)" fill="#c9c4e8"/>
    <rect id="Rectángulo_404107" data-name="Rectángulo 404107" width="9.108" height="63.652" transform="translate(457.278 5250.728)" fill="#e9e7f6"/>
    <rect id="Rectángulo_404108" data-name="Rectángulo 404108" width="9.108" height="70.562" transform="translate(473.646 5242.811)" fill="#c9c4e8"/>
    <rect id="Rectángulo_404109" data-name="Rectángulo 404109" width="43.818" height="1.132" transform="matrix(0.953, -0.304, 0.304, 0.953, 430.842, 5245.482)" fill="#c9c4e8"/>
    <path id="Trazado_903985" data-name="Trazado 903985" d="M419.137,126.69l-.922-.656,2.748-3.859-3.98-1.362.367-1.071,4.4,1.5a.775.775,0,0,1,.516.524.792.792,0,0,1-.155.749Zm2.236-4.376a.292.292,0,0,0,.036.013Zm-.16-.491a.139.139,0,0,0-.017.024Z" transform="translate(50.844 5110.845)" fill="#c9c4e8"/>
    <path id="Trazado_903986" data-name="Trazado 903986" d="M352,127.729A29.058,29.058,0,1,0,381.057,98.67,29.058,29.058,0,0,0,352,127.729" transform="translate(80.775 5120.55)" fill="none"/>
    <path id="Trazado_903987" data-name="Trazado 903987" d="M259.895,634.92c-4.558.068-11.095.174-15.322.234.045-2.045.121-4.083.211-5.947.2-4.65.468-8.242.468-8.242l13.065-.091s-.06,1.3,0,3.246a41.6,41.6,0,0,0,1.577,10.8" transform="translate(130.256 4880.022)" fill="orange"/>
    <path id="Trazado_903988" data-name="Trazado 903988" d="M264.907,653.3c-2.507-.776-4.075-3.336-5.057-6.391l-15.327.236a78.582,78.582,0,0,0,.391,12.378,2.443,2.443,0,0,0,2.407,2.044h22.452a3.158,3.158,0,0,0,3.219-3.35c-.227-2.178-2.8-3.28-8.085-4.917" transform="translate(130.304 4868.03)" fill="#4635b1"/>
    <path id="Trazado_903989" data-name="Trazado 903989" d="M258.5,624.12l-13.532,5.087c.2-4.649.468-8.242.468-8.242l13.065-.091s-.06,1.3,0,3.246" transform="translate(130.075 4880.022)" fill="#b9eda2"/>
    <path id="Trazado_903990" data-name="Trazado 903990" d="M251.578,668.469c-.479-2.275-1.432-3.856-2.831-4.7a5.376,5.376,0,0,0-3.866-.548l-.208-.725a6.034,6.034,0,0,1,4.455.622c1.591.956,2.664,2.7,3.189,5.2Z" transform="translate(130.21 4860.935)" fill="#8378cb"/>
    <path id="Trazado_903991" data-name="Trazado 903991" d="M133.285,612.461a55.338,55.338,0,0,0-2.49,7.51,32.836,32.836,0,0,0-1,6.182c-4.295-1.547-10.438-3.766-14.424-5.208,1.849-4.543,3.826-9,4.891-11.336l.03-.06c.461-1.026.74-1.63.74-1.63Z" transform="translate(189.769 4885.99)" fill="orange"/>
    <path id="Trazado_903992" data-name="Trazado 903992" d="M128.792,645.046c-2.07-1.613-2.631-4.562-2.468-7.767-4.292-1.549-10.44-3.767-14.419-5.2a78.607,78.607,0,0,0-4.015,11.715,2.444,2.444,0,0,0,1.528,2.764l21,7.946a3.158,3.158,0,0,0,4.2-1.994c.559-2.118-1.454-4.057-5.821-7.46" transform="translate(193.233 4874.863)" fill="#4635b1"/>
    <path id="Trazado_903993" data-name="Trazado 903993" d="M137.107,612.461a55.334,55.334,0,0,0-2.49,7.51l-10.951-9.215.415-1.147.03-.06c.461-1.026.74-1.63.74-1.63Z" transform="translate(185.946 4885.99)" fill="#b9eda2"/>
    <path id="Trazado_903994" data-name="Trazado 903994" d="M114.407,653.23l-.669-.349a5.788,5.788,0,0,0-2.356-8.17l.35-.669c.059.031,5.832,3.138,2.675,9.189" transform="translate(191.604 4869.352)" fill="#8378cb"/>
    <path id="Trazado_903995" data-name="Trazado 903995" d="M239.733,485.918,215.709,487.8l-5.034-85.793-7.442-28.2L193.5,336.923,192.991,335l-2.347-8.891-.347-1.329,4.6-.415,24.839-2.227,1.5,6.793v.008l14.876,67.271a36.714,36.714,0,0,1,.845,6.665Z" transform="translate(155.255 5017.621)" fill="#7c70c8"/>
    <path id="Trazado_903996" data-name="Trazado 903996" d="M171.307,356.975,169.4,376.063l-3.095,30.9a43.309,43.309,0,0,1-2.363,10.423l-25.593,70.788-21.51-8.3,20-72.456c5.155-29.828,4.3-52.719,5.63-67.24.083-.906.174-1.774.272-2.611.536-4.446,1.366-7.97,2.777-10.529l11.291,1.329,7.955.936,1.728,7.314.347,1.479Z" transform="translate(189.091 5015.366)" fill="#7c70c8"/>
    <path id="Trazado_903997" data-name="Trazado 903997" d="M209.284,328.93l.259,2.893s-33.712,9.057-45.189,6.1c.083-.906.174-1.774.272-2.611.536-4.446,1.366-7.97,2.777-10.529l11.291,1.329-.347-1.329,4.6-.415,24.839-2.227Z" transform="translate(167.205 5017.621)" fill="#4635b1"/>
    <rect id="Rectángulo_404110" data-name="Rectángulo 404110" width="45.189" height="16.376" transform="translate(331.56 5339.758)" fill="none"/>
    <path id="Trazado_903998" data-name="Trazado 903998" d="M209.888,429.828l-11.27-44.516-9.235-2.955.23-.72,9.634,3.083.051.2,11.321,44.719Z" transform="translate(155.676 4990.215)" fill="#4635b1"/>
    <path id="Trazado_903999" data-name="Trazado 903999" d="M259.228,470.331l-.265-.706a52.8,52.8,0,0,0,9.174-4.3l.41.634a52.449,52.449,0,0,1-9.318,4.376" transform="translate(123.628 4951.67)" fill="#4635b1"/>
    <path id="Trazado_904000" data-name="Trazado 904000" d="M196.25,486.238a82.533,82.533,0,0,1-11.381-2.086l.194-.73a81.909,81.909,0,0,0,11.262,2.065Z" transform="translate(157.756 4943.333)" fill="#4635b1"/>
    <rect id="Rectángulo_404111" data-name="Rectángulo 404111" width="0.755" height="23.322" transform="matrix(0.345, -0.939, 0.939, 0.345, 307.685, 5489.427)" fill="#4635b1"/>
    <rect id="Rectángulo_404112" data-name="Rectángulo 404112" width="24.023" height="0.755" transform="translate(370.621 5498.813) rotate(-4.013)" fill="#4635b1"/>
    <path id="Trazado_904001" data-name="Trazado 904001" d="M164.821,225.822l-10.209,4.11a12.006,12.006,0,0,0-6.578,6.468l-8.569,20.508a10.218,10.218,0,0,0,12.954,13.529l7.245-2.664Z" transform="translate(179.032 5061.984)" fill="#b771e5"/>
    <path id="Trazado_904002" data-name="Trazado 904002" d="M315.1,191.108c-1.908.943-4.109,4.957-3.274,6.4.684,1.183,2.278-.418,2.8-.968.966-1.009,3.458-3.7,2.082-5.234a1.248,1.248,0,0,0-1.612-.2" transform="translate(99.364 5078.065)" fill="orange"/>
    <path id="Trazado_904003" data-name="Trazado 904003" d="M307.825,193.594c-1.584,1.422-2.623,5.88-1.43,7.046.977.955,2.081-1.016,2.44-1.687.658-1.231,2.333-4.5.6-5.6a1.249,1.249,0,0,0-1.606.242" transform="translate(102.019 5077.03)" fill="orange"/>
    <path id="Trazado_904004" data-name="Trazado 904004" d="M302.057,197.749c-1.6,1.373-2.726,5.591-1.57,6.662.948.878,2.084-1,2.453-1.64.679-1.173,2.409-4.284.712-5.285a1.3,1.3,0,0,0-1.6.263" transform="translate(104.721 5075.114)" fill="orange"/>
    <path id="Trazado_904005" data-name="Trazado 904005" d="M296.642,199.684c-1.6,1.373-2.726,5.591-1.57,6.662.948.878,2.084-1,2.453-1.64.679-1.173,2.41-4.284.713-5.285a1.3,1.3,0,0,0-1.6.263" transform="translate(107.215 5074.223)" fill="orange"/>
    <path id="Trazado_904006" data-name="Trazado 904006" d="M174.749,224.008,164.12,242.281s2.768,30.191.755,33.9-6.541,6.621-3.774,8.739,24.655,5.826,48.3.265c6.541-1.854,2.013-5.3.5-6.886s-3.522-41.578-3.522-41.578l-13.6-12.393-10.048-2.7Z" transform="translate(169.104 5063.917)" fill="#b771e5"/>
    <path id="Trazado_904007" data-name="Trazado 904007" d="M204.031,225.107c-1.887,3.3-24.1,6.7-17.831-.44l6.416-1.353Z" transform="translate(157.654 5063.139)" fill="#4635b1"/>
    <rect id="Rectángulo_404113" data-name="Rectángulo 404113" width="18.941" height="5.562" transform="translate(342.744 5286.454)" fill="none"/>
    <path id="Trazado_904008" data-name="Trazado 904008" d="M249.168,248.149l-8.763-13a13.969,13.969,0,0,0-9.149-6.376l-10.643-2.137,6.289,23.586s9.812,13.774,18.681,16.982c7.959,2.879,18.515-1.85,24.335-32.958l-13.2-1.8Z" transform="translate(141.292 5061.607)" fill="#b771e5"/>
    <path id="Trazado_904009" data-name="Trazado 904009" d="M307.991,206.463c-1.334-.17-5.912,6.73-5.912,6.73l-7.4,2.52a10.673,10.673,0,0,0-6.177,5.475l-.946,1.966,13.2,1.8c.217-1.161.43-2.349.634-3.584,4.528-4.088,9.56-14.529,6.6-14.906" transform="translate(110.457 5070.902)" fill="orange"/>
    <path id="Trazado_904010" data-name="Trazado 904010" d="M221.593,172.58l2.676,3.7a1.163,1.163,0,0,1-.588,1.777l-2.857,1.1-2.016-4.475Z" transform="translate(142.123 5086.507)" fill="#b9eda2"/>
    <path id="Trazado_904011" data-name="Trazado 904011" d="M191.892,198.642a113.074,113.074,0,0,0,.4-13.631l12.2.883a36.46,36.46,0,0,0-.068,4.174,55.97,55.97,0,0,0,.68,6.664c.189,1.2.407,2.378.641,3.509Z" transform="translate(154.521 5080.781)" fill="orange"/>
    <path id="Trazado_904012" data-name="Trazado 904012" d="M210.275,200.973a14.151,14.151,0,0,1-7.148-6.755l6.468.091a55.97,55.97,0,0,0,.679,6.664" transform="translate(149.346 5076.541)" fill="#b9eda2"/>
    <path id="Trazado_904013" data-name="Trazado 904013" d="M189.7,210.275l-2.557,8.386a44.672,44.672,0,0,0,18.052.441l-1.642-7.225Z" transform="translate(156.706 5069.145)" fill="#f6edfc"/>
    <path id="Trazado_904014" data-name="Trazado 904014" d="M207.622,159.38l1.263,16.876a2.324,2.324,0,0,1-.951,1.965,5.5,5.5,0,0,1-4,1.393l-8.642-.359-6.164-6.919,4.78-14.718,8.68-.126Z" transform="translate(155.792 5093.456)" fill="orange"/>
    <path id="Trazado_904015" data-name="Trazado 904015" d="M187.609,164.416s2.264,7.076-2.547,10.661c-5.189-1.7-14.812-17.453-2.831-22.454,0,0,3.3-8.4,12.265-5.283,7.911,2.748,10,7.548,10,7.548a11.2,11.2,0,0,1-12.076.283s.66,8.4-4.811,9.246" transform="translate(161.622 5098.452)" fill="#4635b1"/>
    <path id="Trazado_904016" data-name="Trazado 904016" d="M197.32,172.862a3.7,3.7,0,1,1-5.413-.848,3.884,3.884,0,0,1,5.413.848" transform="translate(155.104 5087.116)" fill="orange"/>
    <path id="Trazado_904017" data-name="Trazado 904017" d="M197.313,179.05c-.031-.123-.784-3-2.81-2.56l-.12-.553c2.049-.443,3.174,1.753,3.479,2.976Z" transform="translate(153.373 5084.988)" fill="#4635b1"/>
    <path id="Trazado_904018" data-name="Trazado 904018" d="M215.618,178.432a2.516,2.516,0,1,1-2.516-2.516,2.516,2.516,0,0,1,2.516,2.516" transform="translate(145.91 5084.971)" fill="#aeea94"/>
    <rect id="Rectángulo_404114" data-name="Rectángulo 404114" width="5.032" height="5.032" transform="translate(356.496 5260.887)" fill="none"/>
    <path id="Trazado_904019" data-name="Trazado 904019" d="M163.454,304.081c-2.29-.545-3.585-1.4-3.96-2.6-.61-1.96,1.414-4.2,3.2-6.185.279-.309.548-.608.795-.893a4.382,4.382,0,0,0,.984-1.956c1.655-7.846-1.089-32.276-1.116-32.522l.75-.085c.114,1.009,2.785,24.8,1.1,32.763a5.139,5.139,0,0,1-1.152,2.295c-.25.288-.523.591-.8.9-1.569,1.741-3.521,3.906-3.039,5.455.285.914,1.433,1.617,3.414,2.089Z" transform="translate(169.494 5046.314)" fill="#4635b1"/>
    <path id="Trazado_904020" data-name="Trazado 904020" d="M247.129,310.908l-.034-.753c2.579-.115,4.156-.73,4.561-1.78s-.336-2.636-2.042-4.328a3.267,3.267,0,0,1-.88-1.616c-1.357-6.1-2.8-26.263-2.816-26.466l.752-.053c.015.2,1.455,20.31,2.8,26.356a2.511,2.511,0,0,0,.674,1.244c1.957,1.941,2.744,3.764,2.215,5.134s-2.289,2.132-5.231,2.262" transform="translate(129.637 5038.912)" fill="#4635b1"/>
    <path id="Trazado_904021" data-name="Trazado 904021" d="M270.453,256.133l-.678-.332,9.372-19.153,13.467,1.837-.1.748-12.927-1.763Z" transform="translate(118.647 5056.997)" fill="#4635b1"/>
    <path id="Trazado_904022" data-name="Trazado 904022" d="M688.551,173.522c-4.466-2.7-5.472-10.441-1.321-12.768s6.793-.252,6.793-.252,13.924-5.078,19.183,7.862c3.963,9.749.818,14.843,4.277,19.749,3.941,5.59,10.252,10.629,2.013,20.441l-19.246-4.717-5.032-23.712Z" transform="translate(-72.421 5092.522)" fill="#4635b1"/>
    <path id="Trazado_904023" data-name="Trazado 904023" d="M803.323,588.4l-14.152,6.227s2.034,5.254,3.773,11.366l14.553-4.648Z" transform="translate(-120.586 4894.979)" fill="orange"/>
    <path id="Trazado_904024" data-name="Trazado 904024" d="M806.549,612.4,792,617.051c1.993,7,3.6,15.128,1.328,17.779-2.957,3.448-5.536,6.3-6.155,8.7a1.685,1.685,0,0,0,2.383,1.942l18.8-9.483a6.568,6.568,0,0,0,3.058-8.5Z" transform="translate(-119.639 4883.925)" fill="#4635b1"/>
    <rect id="Rectángulo_404115" data-name="Rectángulo 404115" width="15.556" height="0.755" transform="translate(673.628 5505.815) rotate(-17.375)" fill="#8378cb"/>
    <path id="Trazado_904025" data-name="Trazado 904025" d="M793.38,650.865l-.156-.738c3.6-.764,5.7-2.088,6.233-3.934.876-3.035-2.734-6.587-2.77-6.622l.526-.541c.162.157,3.97,3.907,2.97,7.372-.616,2.134-2.9,3.636-6.8,4.463" transform="translate(-122.453 4871.66)" fill="#8378cb"/>
    <path id="Trazado_904026" data-name="Trazado 904026" d="M700.049,613.878,683.7,615.387a83.718,83.718,0,0,1-.078,11.632l15.73-.231Z" transform="translate(-71.969 4883.245)" fill="orange"/>
    <path id="Trazado_904027" data-name="Trazado 904027" d="M670.978,638.042c-.444,5.158-1.616,10.333-4.451,11.515-6.038,2.516-10.818,4.277-10.315,7.8h23.214a6.568,6.568,0,0,0,6.558-6.212l.724-13.332Z" transform="translate(-59.329 4872.221)" fill="#4635b1"/>
    <path id="Trazado_904028" data-name="Trazado 904028" d="M698.845,645.9l-15.1-.251.014-.755,15.1.251Z" transform="translate(-72.029 4868.958)" fill="#8378cb"/>
    <path id="Trazado_904029" data-name="Trazado 904029" d="M671.661,659.3a16.413,16.413,0,0,1-3.5-.445l.165-.737c3.309.74,5.559.512,6.5-.656,1.252-1.556-.024-4.354-.037-4.382l.684-.318c.062.133,1.484,3.256-.059,5.173a4.563,4.563,0,0,1-3.749,1.366" transform="translate(-64.848 4865.335)" fill="#8378cb"/>
    <path id="Trazado_904030" data-name="Trazado 904030" d="M691.614,489.709a5.068,5.068,0,0,1-.543.151c-3.268.755-14.084,0-14.084,0a11.238,11.238,0,0,1-1.4-.4c-10.114-3.683-9.427-21.367-7.91-36.832,1.4-14.181-4.528-86.547-.437-111.137l25.6-5.6.151,4.31.309,8.8.544,15.57s.966,15.065,2.287,33.941c1.978,28.3,4.755,65.188,6.265,72.735,2.408,12.008-6.687,17.268-10.778,18.461" transform="translate(-63.748 5011.286)" fill="#7c70c8"/>
    <path id="Trazado_904031" data-name="Trazado 904031" d="M762.869,477.2a11.936,11.936,0,0,1-1.864,1.743c-3.442,2.649-8.083,3.623-12.159,4.725a15.263,15.263,0,0,1-2.227.43c-3.8.468-7.94-.4-9.714-3.623-9.087-16.56-19.329-49.429-27.443-78.8-5.932-21.442-10.725-41.028-13.11-51.014-1.049-4.415-1.63-6.951-1.63-6.951l11.6-.347,19.721-.6c.536,2.657,1.147,5.457,1.834,8.363,6.732,28.733,19.993,68.237,25.186,83.347,3.117,9.049,7.834,17.125,9.91,26.6,1.1,5.019,3.668,11.759-.106,16.114" transform="translate(-77.084 5008.115)" fill="#7c70c8"/>
    <path id="Trazado_904032" data-name="Trazado 904032" d="M715.795,347.967A89.407,89.407,0,0,1,694.548,349a71.815,71.815,0,0,1-10.279-1.5c-10.333-2.279-15.782-6.007-15.782-6.007l25.6-5.6.151,4.31,19.721-.6c.536,2.657,1.147,5.457,1.834,8.363" transform="translate(-64.999 5011.286)" fill="#4635b1"/>
    <rect id="Rectángulo_404116" data-name="Rectángulo 404116" width="47.307" height="13.34" transform="translate(603.488 5347.177)" fill="none"/>
    <path id="Trazado_904033" data-name="Trazado 904033" d="M707.7,425.168,699.806,397.2l-8.121-2.953.258-.709,8.483,3.085.053.187,7.947,28.152Z" transform="translate(-75.685 4984.733)" fill="#4635b1"/>
    <path id="Trazado_904034" data-name="Trazado 904034" d="M777.551,481.078l-.654-.376c3.809-6.615-3.827-27-13.494-52.8-9.387-25.057-21.07-56.242-25.3-84.065l.746-.114c4.214,27.745,15.881,58.89,25.256,83.914,9.737,25.992,17.428,46.521,13.442,53.444" transform="translate(-97.066 5007.68)" fill="#4635b1"/>
    <path id="Trazado_904035" data-name="Trazado 904035" d="M663.984,293.5c-.913,6.378-2.279,14.711-2.279,14.711H646.8l3.631-19.949.9-4.959s12.831,3.02,13.4,3.02c.219,0-.174,3.215-.74,7.177" transform="translate(-55.01 5035.506)" fill="orange"/>
    <path id="Trazado_904036" data-name="Trazado 904036" d="M667.084,293.5l-.679,1.5-12.876-6.74.9-4.959s12.831,3.02,13.4,3.02c.219,0-.174,3.215-.74,7.177" transform="translate(-58.109 5035.506)" fill="#b9eda2"/>
    <path id="Trazado_904037" data-name="Trazado 904037" d="M668.012,274.789s2.453,14.34-2.264,28.3c0,0,23.4,7.17,45.474-1.887l-5.095-32.265,1.7-16.416-33.775.378-11.51,3.774Z" transform="translate(-62.26 5049.685)" fill="#4635b1"/>
    <path id="Trazado_904038" data-name="Trazado 904038" d="M709.956,239.92a14.125,14.125,0,0,0-9.249-8.856l-6.343-1.916c-2.554,3.719-7.111,8.458-13.764,8.458a18.847,18.847,0,0,1-15.431-8.159l-4.383,1.068a12.806,12.806,0,0,0-9.445,9.566l-4.893,21.237,14.151,2.7.378-16.227,36.794-1.7.943,12.076s10.629-4.654,17.674.126Z" transform="translate(-54.849 5060.452)" fill="#4635b1"/>
    <path id="Trazado_904039" data-name="Trazado 904039" d="M769.969,236.208c-2.038,3.985-4.777,21.262-6.038,34.718a21.988,21.988,0,0,1-3.419,10.453c-2.566,3.759-6.2,5.465-9.736,5.087a9.614,9.614,0,0,1-3.955-1.328c-6.075-3.6-5.3-18.982-4.619-25.9.211-2.083.408-3.4.408-3.4,3.585-1.977,9.245-2.264,9.245-2.264.076-.777.166-1.562.257-2.37.77-6.951,1.94-14.838,2.951-20.084,1.132-5.849,3.4-3.675,3.4-3.675,1.132-2.083,2.83-.287,2.83-.287,1.509-3.306,3.4-.189,3.4-.189,2.355-3.4,3.646,1.7,3.646,1.7s7.313-6.023,8.559-4.28c.626.883-4.03,6.166-6.921,11.827" transform="translate(-98.743 5062.793)" fill="orange"/>
    <rect id="Rectángulo_404117" data-name="Rectángulo 404117" width="31.699" height="3.806" transform="translate(581.6 5339.915)" fill="#fff"/>
    <path id="Trazado_904040" data-name="Trazado 904040" d="M611.048,302.258h-32.7a4.029,4.029,0,0,1-3.659-2.343l-12.733-27.645a1.387,1.387,0,0,1,1.26-1.967h30.668a3.817,3.817,0,0,1,3.466,2.22Z" transform="translate(-15.873 5041.496)" fill="#7c70c8"/>
    <path id="Trazado_904041" data-name="Trazado 904041" d="M642.943,325.868a16.051,16.051,0,0,1-1.66,4.068,11.3,11.3,0,0,1-8.883,5.532,21.878,21.878,0,0,1-4.989.023C612.428,334,608.1,325.808,608.1,325.808s-1.668-3.479,1.872-2.679c0,0,.665-2.212,3.4.1,0,0-.325-2.74,2.362-.234,0,0-.377-2.785,2.544-.378A12.866,12.866,0,0,0,627,325.868c3.532.143,15.94,0,15.94,0" transform="translate(-37.002 5017.852)" fill="orange"/>
    <rect id="Rectángulo_404118" data-name="Rectángulo 404118" width="0.755" height="16.254" transform="matrix(0.998, -0.058, 0.058, 0.998, 604.432, 5308.269)" fill="#7c70c8"/>
    <path id="Trazado_904042" data-name="Trazado 904042" d="M696.6,251.529a21.261,21.261,0,0,1-4.68-.513,18.288,18.288,0,0,1-7.2-3.222l.482-.581c.1.084,10.3,8.27,24.975-.536l.388.647a26.963,26.963,0,0,1-13.962,4.205" transform="translate(-72.474 5052.378)" fill="#7c70c8"/>
    <rect id="Rectángulo_404119" data-name="Rectángulo 404119" width="0.755" height="7.443" transform="translate(642.924 5311.232) rotate(-4.36)" fill="#7c70c8"/>
    <path id="Trazado_904043" data-name="Trazado 904043" d="M716.995,281.061a4.734,4.734,0,0,1-4.72-4.219l-.606-5.379,10.379-.683-.308,5.783a4.765,4.765,0,0,1-4.67,4.5h-.076m-4.487-8.9.517,4.593a4,4,0,0,0,7.961-.235l.263-4.934Z" transform="translate(-84.889 5041.276)" fill="#7c70c8"/>
    <rect id="Rectángulo_404120" data-name="Rectángulo 404120" width="19.155" height="0.755" transform="translate(649.969 5335.301) rotate(-81.87)" fill="#b9eda2"/>
    <rect id="Rectángulo_404121" data-name="Rectángulo 404121" width="0.566" height="3.164" transform="matrix(0.984, -0.179, 0.179, 0.984, 665.665, 5289.806)" fill="#b9eda2"/>
    <rect id="Rectángulo_404122" data-name="Rectángulo 404122" width="0.566" height="3.164" transform="matrix(0.984, -0.179, 0.179, 0.984, 662.269, 5289.901)" fill="#b9eda2"/>
    <rect id="Rectángulo_404123" data-name="Rectángulo 404123" width="0.566" height="3.164" transform="matrix(0.984, -0.179, 0.179, 0.984, 659.438, 5290.089)" fill="#b9eda2"/>
    <rect id="Rectángulo_404124" data-name="Rectángulo 404124" width="0.566" height="5.035" transform="matrix(0.937, -0.35, 0.35, 0.937, 668.54, 5289.541)" fill="#b9eda2"/>
    <path id="Trazado_904044" data-name="Trazado 904044" d="M752.193,278.752,742.5,284.4c.211-2.083.407-3.4.407-3.4,3.586-1.977,9.284-2.242,9.284-2.242" transform="translate(-99.091 5037.604)" fill="#b9eda2"/>
    <path id="Trazado_904045" data-name="Trazado 904045" d="M768.177,329.02c-2.566,3.759-6.2,5.464-9.736,5.087a5.111,5.111,0,0,1-.053-.762,5.85,5.85,0,0,1,9.789-4.325" transform="translate(-106.407 5015.153)" fill="#aeea94"/>
    <rect id="Rectángulo_404125" data-name="Rectángulo 404125" width="9.789" height="6.663" transform="translate(651.98 5342.649)" fill="none"/>
    <path id="Trazado_904046" data-name="Trazado 904046" d="M662.351,336.29a11.3,11.3,0,0,1-8.883,5.532q-.023-.271-.023-.543a5.852,5.852,0,0,1,8.906-4.989" transform="translate(-58.071 5011.498)" fill="#aeea94"/>
    <rect id="Rectángulo_404126" data-name="Rectángulo 404126" width="8.906" height="6.393" transform="translate(595.374 5346.928)" fill="none"/>
    <path id="Trazado_904047" data-name="Trazado 904047" d="M626.1,327.98c-1.492-.292-3.358-2.6-3.984-3.81l.5-.26c.645,1.246,2.4,3.283,3.59,3.515Z" transform="translate(-43.639 5016.804)" fill="#b9eda2"/>
    <path id="Trazado_904048" data-name="Trazado 904048" d="M620.449,328.55a15.354,15.354,0,0,1-2.9-4.033l.522-.22a14.732,14.732,0,0,0,2.785,3.858Z" transform="translate(-41.536 5016.626)" fill="#b9eda2"/>
    <path id="Trazado_904049" data-name="Trazado 904049" d="M613.977,328.376a15.354,15.354,0,0,1-2.9-4.033l.522-.22a14.731,14.731,0,0,0,2.785,3.858Z" transform="translate(-38.556 5016.706)" fill="#b9eda2"/>
    <path id="Trazado_904050" data-name="Trazado 904050" d="M710.357,210.537C707.8,214.257,703.24,219,696.59,219a18.842,18.842,0,0,1-15.427-8.159l8.068-1.97c.2-1.449.362-2.86.5-4.2.106-1.049.2-2.053.279-3,.135-1.562.226-2.974.3-4.181.1-1.653.143-2.906.166-3.6.015-.4.015-.612.015-.612l11.321-4.528s-.378,14.718,3.019,20.122Z" transform="translate(-70.838 5079.061)" fill="orange"/>
    <path id="Trazado_904051" data-name="Trazado 904051" d="M706.8,206.208s-3.029,3.542-9.754,5.928c.106-1.049.2-2.053.279-3,.136-1.563.227-2.974.3-4.181Z" transform="translate(-78.153 5071.598)" fill="#b9eda2"/>
    <path id="Trazado_904052" data-name="Trazado 904052" d="M690.18,170.966s-5.787,15.724-1.635,18.617c3.692,2.573,8.554,2.893,13.334,1.635l3.145-10.692-1.887-10.441Z" transform="translate(-73.548 5087.656)" fill="orange"/>
    <path id="Trazado_904053" data-name="Trazado 904053" d="M706.065,179.2s-4.087,1.567-5.787-4.151c-1.384-4.654-7.421-5.535-7.421-5.535l2.453-2.264,11.635-.314,4.277,5.22-1.446,6.793Z" transform="translate(-76.224 5089.106)" fill="#4635b1"/>
    <path id="Trazado_904054" data-name="Trazado 904054" d="M720.886,190.242c-1.32,2.287-3.853,3.295-5.658,2.253s-2.2-3.74-.878-6.026,3.853-3.3,5.658-2.253,2.2,3.74.878,6.027" transform="translate(-85.764 5081.337)" fill="orange"/>
    <path id="Trazado_904055" data-name="Trazado 904055" d="M718.114,192.651l-.566-.006a4.045,4.045,0,0,1,3.568-3.958l.065.563a3.433,3.433,0,0,0-3.067,3.4" transform="translate(-87.597 5079.088)" fill="#4635b1"/>
    <path id="Trazado_904056" data-name="Trazado 904056" d="M691.523,185.307a.645.645,0,1,1-.645-.645.645.645,0,0,1,.645.645" transform="translate(-75.016 5080.942)" fill="#4635b1"/>
    <path id="Trazado_904057" data-name="Trazado 904057" d="M699.446,186.848a.78.78,0,1,1-.781-.781.781.781,0,0,1,.781.781" transform="translate(-78.54 5080.295)" fill="#4635b1"/>
    <path id="Trazado_904058" data-name="Trazado 904058" d="M691.98,182.294h-1.926a.491.491,0,0,1,0-.983h1.926a.491.491,0,1,1,0,.983" transform="translate(-74.707 5082.485)" fill="#4635b1"/>
    <path id="Trazado_904059" data-name="Trazado 904059" d="M700.937,184.063l-2.13-.9a.492.492,0,0,1,.382-.906l2.13.9a.492.492,0,0,1-.382.906" transform="translate(-78.826 5082.067)" fill="#4635b1"/>
    <path id="Trazado_904060" data-name="Trazado 904060" d="M690.4,191.191a.283.283,0,0,1-.262-.175,2.1,2.1,0,0,1-.03-2.1,1.718,1.718,0,0,1,1.373-.566l.719-1.4a.283.283,0,1,1,.5.259l-.89,1.729-.195-.021c-.008,0-.751-.076-1.06.337-.224.3-.188.83.1,1.538a.282.282,0,0,1-.154.369.268.268,0,0,1-.107.022" transform="translate(-74.839 5079.956)" fill="#4635b1"/>
    <path id="Trazado_904061" data-name="Trazado 904061" d="M691.122,199.5c1.1,1.545,2.483.885,3.429.094a20,20,0,0,1-3.429-.094" transform="translate(-75.425 5074.11)" fill="#4635b1"/>
    <path id="Trazado_904062" data-name="Trazado 904062" d="M694.066,198.641a7.476,7.476,0,0,0,1.055-1.1c.013-.018,0-.037-.025-.036a30.377,30.377,0,0,1-5-.068c-.019,0-.029.019-.022.037a5.109,5.109,0,0,0,.565,1.072,19.946,19.946,0,0,0,3.429.093" transform="translate(-74.94 5075.057)" fill="#fff"/>
    <path id="Trazado_904063" data-name="Trazado 904063" d="M706.438,192.261a1.973,1.973,0,1,1-1.973-1.973,1.973,1.973,0,0,1,1.973,1.973" transform="translate(-80.662 5078.351)" fill="#aeea94"/>
    <rect id="Rectángulo_404127" data-name="Rectángulo 404127" width="3.947" height="3.946" transform="translate(621.83 5268.639)" fill="none"/>
  </g>
</svg>
