<svg xmlns="http://www.w3.org/2000/svg" xmlns:xlink="http://www.w3.org/1999/xlink" width="521.058" height="428.805" viewBox="0 0 521.058 428.805">
  <defs>
    <clipPath id="clip-path">
      <rect id="Rectángulo_404296" data-name="Rectángulo 404296" width="388.697" height="398.067" fill="none"/>
    </clipPath>
    <clipPath id="clip-path-3">
      <rect id="Rectángulo_404227" data-name="Rectángulo 404227" width="243.94" height="237.675" fill="none"/>
    </clipPath>
    <clipPath id="clip-path-4">
      <path id="Trazado_904228" data-name="Trazado 904228" d="M329.6,476.123c-2.873-1.373-7.914-6.892-8.634-8.873-4.8-13.181-15.378-37.275-9.933-51.066.93-2.355,12.4-1.061,14.624-2.772,7.51-.949,10.175-.813,16.871-5.223,19.771-13.019-1.275-56.563,39.66-56,29.985.411,49.875,17.318,60.807-25.852s69.654-109.1,104.558-65.021c20.032,25.3-17.719,52.664-13.249,83.46,4.247,29.265-13.218,46.475-44.9,52.8s-21.216,22.619-21.3,49.077c-.1,31.782-45.947,22.368-66.744,16.215-16.747-4.954-62.733-6.271-71.76,13.256" transform="translate(-309.517 -246.743)" fill="none"/>
    </clipPath>
    <linearGradient id="linear-gradient" x1="-0.244" y1="1.019" x2="-0.243" y2="1.019" gradientUnits="objectBoundingBox">
      <stop offset="0" stop-color="#ffd07a"/>
      <stop offset="0.996" stop-color="orange"/>
      <stop offset="1" stop-color="orange"/>
    </linearGradient>
    <clipPath id="clip-path-5">
      <rect id="Rectángulo_404229" data-name="Rectángulo 404229" width="152.065" height="263.994" fill="none"/>
    </clipPath>
    <clipPath id="clip-path-6">
      <path id="Trazado_904234" data-name="Trazado 904234" d="M326.313,339.262c-2.753.173-8.9-1.877-10.276-3.072-9.189-7.951-27.36-21.719-29.057-34.452-.29-2.174,8.933-6.032,9.9-8.266,5.282-3.886,7.356-4.907,10.563-11.069,9.469-18.191-24.825-42.263,6.388-59.105,22.863-12.337,45.045-7.934,35.107-45.212s6.687-111.934,51.691-93.306c25.828,10.69,8.808,47.324,25.181,68.743,15.559,20.353,9.6,40.743-11.7,58.893s-6.513,26.065,4.586,46.121c13.333,24.091-25.333,36.307-43.665,40.424-14.762,3.315-50.115,21.717-48.709,40.3" transform="translate(-286.972 -81.844)" fill="none"/>
    </clipPath>
    <linearGradient id="linear-gradient-2" x1="-0.242" y1="1.26" x2="-0.24" y2="1.26" xlink:href="#linear-gradient"/>
    <clipPath id="clip-path-7">
      <rect id="Rectángulo_404231" data-name="Rectángulo 404231" width="171.227" height="320.703" fill="none"/>
    </clipPath>
    <clipPath id="clip-path-8">
      <path id="Trazado_904242" data-name="Trazado 904242" d="M432.018,399.349q-21.078-5.515-41.992-12.008c-.255.184-1.511-31.38,15.034-46.035,32.644-28.325,16.124-58.8,12.372-76.2-6.27-24.616,1.224-49.7,25.323-47.42,26.787,2,36.5-41.628,36.094-82.336-1.577-20.005,19.533-41.737,38.58-45.135,19.5-3.941,36.931,10.453,38.381,50.142,3.729,46.18-32.279,69.807-47,91.129-14.479,20.928,11.5,42.021-13.185,59.256-20.87,15.432-46.126,25.393-39.824,48.366,6.569,22.749,2.458,40.3-23.783,60.236" transform="translate(-389.901 -89.593)" fill="none"/>
    </clipPath>
    <linearGradient id="linear-gradient-3" x1="-0.238" y1="1.271" x2="-0.237" y2="1.271" gradientUnits="objectBoundingBox">
      <stop offset="0" stop-color="#ffbc42"/>
      <stop offset="1" stop-color="#afa8dd"/>
    </linearGradient>
    <clipPath id="clip-path-9">
      <path id="Trazado_904243" data-name="Trazado 904243" d="M112.342,75.06V387.332a8.183,8.183,0,0,0,8.476,8.214l2.27-.074,149.855-7.75c4.372-.143,8.228-1.114,8.228-5.628V80.3c0-3.182-1.241-2.628-3.5-2.074a12.168,12.168,0,0,1-3.364.421l-150.4-11.7-3.081-.1c-.093,0-.186,0-.278,0a8.182,8.182,0,0,0-8.2,8.218" transform="translate(-112.342 -66.842)" fill="none"/>
    </clipPath>
    <linearGradient id="linear-gradient-4" x1="0.125" y1="1.095" x2="0.126" y2="1.095" gradientUnits="objectBoundingBox">
      <stop offset="0" stop-color="#6b5dc1"/>
      <stop offset="0.996" stop-color="#4c3bb3"/>
      <stop offset="1" stop-color="#4c3bb3"/>
    </linearGradient>
    <clipPath id="clip-path-10">
      <path id="Trazado_904244" data-name="Trazado 904244" d="M122.7,75.06V387.332a8.183,8.183,0,0,0,8.476,8.214l152.41-4.986a8.428,8.428,0,0,0,7.943-8.466V80.3a8.428,8.428,0,0,0-7.943-8.466l-152.41-4.986c-.093,0-.186,0-.278,0a8.182,8.182,0,0,0-8.2,8.218" transform="translate(-122.702 -66.842)" fill="none"/>
    </clipPath>
    <linearGradient id="linear-gradient-5" x1="0.083" y1="1.625" x2="0.084" y2="1.625" xlink:href="#linear-gradient-4"/>
    <clipPath id="clip-path-12">
      <rect id="Rectángulo_404235" data-name="Rectángulo 404235" width="135.618" height="309.441" fill="none"/>
    </clipPath>
    <clipPath id="clip-path-13">
      <path id="Trazado_904254" data-name="Trazado 904254" d="M214.762,299.587l25.429,10.657c2.88-6.122,8.27-10.471,14.587-11.282l.441-30.254c-18,.529-33.51,13-40.457,30.879" transform="translate(-214.762 -268.708)" fill="none"/>
    </clipPath>
    <linearGradient id="linear-gradient-6" x1="-2.113" y1="6.102" x2="-2.103" y2="6.102" xlink:href="#linear-gradient"/>
    <clipPath id="clip-path-14">
      <path id="Trazado_904255" data-name="Trazado 904255" d="M281.85,409.273a16.878,16.878,0,0,1-7.727-1.788l-14.109,26.06A40.737,40.737,0,0,0,281.85,439.4c23.406-.482,42.365-21.062,44.5-46.888l-25.991-1.1c-1.537,10.051-9.215,17.765-18.51,17.862" transform="translate(-260.014 -391.411)" fill="none"/>
    </clipPath>
    <linearGradient id="linear-gradient-7" x1="-1.36" y1="3.222" x2="-1.355" y2="3.222" gradientUnits="objectBoundingBox">
      <stop offset="0" stop-color="#bcb6e3"/>
      <stop offset="0.004" stop-color="#bcb6e3"/>
      <stop offset="1" stop-color="#9d94d6"/>
    </linearGradient>
    <clipPath id="clip-path-15">
      <path id="Trazado_904256" data-name="Trazado 904256" d="M206.183,364.784c0,17.81,7.9,33.433,19.9,42.68l14.15-26.083a22.635,22.635,0,0,1-6.989-16.683,24.5,24.5,0,0,1,.462-4.745l-25.46-10.617a58.3,58.3,0,0,0-2.063,15.448" transform="translate(-206.183 -349.336)" fill="none"/>
    </clipPath>
    <linearGradient id="linear-gradient-8" x1="-1.257" y1="3.668" x2="-1.25" y2="3.668" gradientUnits="objectBoundingBox">
      <stop offset="0" stop-color="#4635b1"/>
      <stop offset="1" stop-color="#7163c3"/>
    </linearGradient>
    <clipPath id="clip-path-16">
      <path id="Trazado_904257" data-name="Trazado 904257" d="M314.749,274.8c8.493,1.487,15.094,9.409,15.882,19.228l43.015,1.91c0-.022,0-.044,0-.065,0-37.46-25.454-68.586-58.166-71.351Z" transform="translate(-314.749 -224.525)" fill="none"/>
    </clipPath>
    <linearGradient id="linear-gradient-9" x1="-1.355" y1="3.419" x2="-1.35" y2="3.419" xlink:href="#linear-gradient-3"/>
    <clipPath id="clip-path-18">
      <rect id="Rectángulo_404241" data-name="Rectángulo 404241" width="128.101" height="301.529" fill="none"/>
    </clipPath>
    <clipPath id="clip-path-19">
      <rect id="Rectángulo_404243" data-name="Rectángulo 404243" width="72.302" height="46.39" fill="none"/>
    </clipPath>
    <clipPath id="clip-path-20">
      <path id="Trazado_904259" data-name="Trazado 904259" d="M301.579,514.452l62.845-1.518a3.137,3.137,0,0,1,2.961,3.371v32.877a3.38,3.38,0,0,1-2.961,3.555l-66.238,2.509a3.19,3.19,0,0,1-3.1-3.411V508.859Z" transform="translate(-295.082 -508.859)" fill="none"/>
    </clipPath>
    <linearGradient id="linear-gradient-10" x1="-1.617" y1="2.196" x2="-1.611" y2="2.196" xlink:href="#linear-gradient-3"/>
    <clipPath id="clip-path-21">
      <rect id="Rectángulo_404244" data-name="Rectángulo 404244" width="50.388" height="5.736" fill="none"/>
    </clipPath>
    <clipPath id="clip-path-22">
      <rect id="Rectángulo_404245" data-name="Rectángulo 404245" width="50.388" height="5.598" fill="none"/>
    </clipPath>
    <clipPath id="clip-path-23">
      <rect id="Rectángulo_404246" data-name="Rectángulo 404246" width="50.388" height="5.46" fill="none"/>
    </clipPath>
    <clipPath id="clip-path-24">
      <path id="Trazado_904263" data-name="Trazado 904263" d="M475.129,574.381c-39.886-1.944-73.126-35.338-74.464-74.6s29.724-69.875,69.6-68.365c40.114,1.52,73.909,34.939,75.261,74.637,1.311,38.492-28.375,68.417-66.76,68.418q-1.8,0-3.633-.089M454.886,402.088l.307,9.006a88.849,88.849,0,0,0-18.264,4.165l-4.757-7.867c-2.167-3.584-13.408-5.894-16.88-3.987l-5.148,7.449a7.016,7.016,0,0,0-2.361,9.919l4.629,7.677a83.319,83.319,0,0,0-13.185,12.762l-7.515-4.507c-3.586-2.15-15.9-3.118-17.806.3l1.359,13.652a7.635,7.635,0,0,0,3.024,10.087l7.141,4.3a85.645,85.645,0,0,0-4.631,18.306l-7.8-.325a6.675,6.675,0,0,0-7.074,6.993l.468,13.739a8.043,8.043,0,0,0,7.571,7.624l7.369.328a96.139,96.139,0,0,0,5.459,19.247l-6,3.233a6.952,6.952,0,0,0-2.346,9.854l1.633,14.614c2.148,3.6,12.365,2.653,15.815.806l5.71-3.058a104.85,104.85,0,0,0,14.569,14.977L413.1,576.84c-1.919,3.4-.557,7.946,3.044,10.154l4.944,8.322c3.612,2.214,15.455.461,17.384-2.946l2.973-5.251a99.937,99.937,0,0,0,19.959,6.336l.211,6.2a8.246,8.246,0,0,0,7.71,7.764l14.072.753a6.7,6.7,0,0,0,7.239-6.985l-.212-6.217a89.079,89.079,0,0,0,19.786-4.3l-3.447,7.364c2.2,3.65,13.686,3.361,17.224,1.506l12.078-6.336c3.549-1.862,4.635-6.337,2.424-9.993l-3.537-5.849a83.321,83.321,0,0,0,13.962-13.75l1.167,4.752c3.7,2.232,13.258.178,15.236-3.277l6.751-11.788c1.983-3.461.58-8.074-3.133-10.3l-6.464-3.877a86.072,86.072,0,0,0,4.324-19.141l7.652.341a6.865,6.865,0,0,0,7.373-7.114l-.478-14.032a8.271,8.271,0,0,0-7.88-7.772l-8.1-.338A96.793,96.793,0,0,0,559.27,472l7.116-3.809a7.045,7.045,0,0,0,2.44-10.061l-7.576-12.406c-2.22-3.637-14.671-5.788-18.232-3.87l.317,4.773a105.073,105.073,0,0,0-14.446-13.951l4.217-7.449A7.669,7.669,0,0,0,530,414.992l-12.546-7.4c-3.674-2.167-15.326-3.03-17.283.441l2.794,9.529a99.581,99.581,0,0,0-18.764-5.469l-.308-9.032a8.065,8.065,0,0,0-7.737-7.631l-14.062-.461c-.084,0-.168,0-.252,0a6.83,6.83,0,0,0-6.952,7.124" transform="translate(-365.919 -394.964)" fill="none"/>
    </clipPath>
    <linearGradient id="linear-gradient-11" x1="-0.762" y1="1.031" x2="-0.76" y2="1.031" xlink:href="#linear-gradient-8"/>
    <clipPath id="clip-path-25">
      <path id="Trazado_904264" data-name="Trazado 904264" d="M454.3,574.1c-41.577-2.047-76.229-37.223-77.622-78.581s30.985-73.6,72.547-72.013c41.816,1.6,77.044,36.8,78.454,78.62,1.366,40.545-29.578,72.066-69.593,72.068q-1.882,0-3.787-.094M433.973,396.939l.307,9.1a88.116,88.116,0,0,0-18.264,4.209l-4.757-7.949a7.722,7.722,0,0,0-10.211-3.064L389.232,405.8a7.131,7.131,0,0,0-2.361,10.024l4.628,7.757a83.782,83.782,0,0,0-13.185,12.9l-7.515-4.555a7.029,7.029,0,0,0-9.947,2.328l-6.5,11.776a7.757,7.757,0,0,0,3.024,10.192l7.14,4.35a87.291,87.291,0,0,0-4.63,18.5l-7.8-.329a6.709,6.709,0,0,0-7.074,7.065l.468,13.883a8.086,8.086,0,0,0,7.572,7.7l7.369.332a97.93,97.93,0,0,0,5.459,19.449l-6,3.267c-3.44,1.872-4.489,6.328-2.345,9.957l7.314,12.378c2.148,3.635,6.684,5.07,10.134,3.2l5.71-3.089a105.476,105.476,0,0,0,14.569,15.134l-3.074,5.505c-1.919,3.437-.557,8.029,3.044,10.26l12.294,7.613c3.612,2.237,8.106,1.262,10.034-2.181l2.973-5.306a99.2,99.2,0,0,0,19.959,6.4l.211,6.264a8.291,8.291,0,0,0,7.71,7.845l14.072.761a6.732,6.732,0,0,0,7.239-7.057l-.211-6.282A88.283,88.283,0,0,0,489.3,587.5l3.388,5.679c2.2,3.688,6.85,5.16,10.388,3.284l12.078-6.4c3.548-1.882,4.635-6.4,2.424-10.1l-3.537-5.911A83.741,83.741,0,0,0,528,560.158l6.116,3.726c3.7,2.255,8.309,1.256,10.288-2.236l6.751-11.912c1.982-3.5.579-8.159-3.133-10.408l-6.464-3.918a87.71,87.71,0,0,0,4.324-19.341l7.653.344a6.9,6.9,0,0,0,7.373-7.188l-.478-14.179a8.313,8.313,0,0,0-7.88-7.853l-8.1-.342a98.619,98.619,0,0,0-6.091-19.271l7.116-3.849a7.16,7.16,0,0,0,2.44-10.166l-7.576-12.537a7.99,7.99,0,0,0-10.469-3.141l-7.445,4.053a105.551,105.551,0,0,0-14.446-14.1l4.218-7.527a7.791,7.791,0,0,0-3.112-10.339L496.536,402.5a7.266,7.266,0,0,0-10.2,2.387l-4.292,7.687a98.748,98.748,0,0,0-18.764-5.526l-.308-9.127a8.107,8.107,0,0,0-7.737-7.711l-14.063-.466c-.084,0-.169,0-.252,0a6.867,6.867,0,0,0-6.951,7.2" transform="translate(-345.007 -389.74)" fill="none"/>
    </clipPath>
    <linearGradient id="linear-gradient-12" x1="-0.371" y1="0.879" x2="-0.37" y2="0.879" xlink:href="#linear-gradient-8"/>
    <clipPath id="clip-path-26">
      <path id="Trazado_904265" data-name="Trazado 904265" d="M447.5,328.373c-.346.356,1.1,2.441,1.8,3.34,1.461,1.873,2.211,1.812,2.54,2.808.677,2.049-2.184,3.27-2.658,6.531a7.709,7.709,0,0,0,2.689,6.8c3.383,2.8,7.872,1.173,8.06,1.1a17.735,17.735,0,0,0-.662-9.507c-2.679-7.333-9.935-11.146-11.5-11.146a.364.364,0,0,0-.262.073" transform="translate(-447.446 -328.3)" fill="none"/>
    </clipPath>
    <linearGradient id="linear-gradient-13" x1="-8.031" y1="14.293" x2="-8.012" y2="14.293" xlink:href="#linear-gradient"/>
    <clipPath id="clip-path-27">
      <path id="Trazado_904266" data-name="Trazado 904266" d="M463.249,372.6c21.6,71.4,74.232,67.646,74.232,67.646l8.321-37.581c-51.541-.269-75.17-35.245-75.17-35.245Z" transform="translate(-463.249 -367.423)" fill="none"/>
    </clipPath>
    <linearGradient id="linear-gradient-14" x1="-2.08" y1="2.602" x2="-2.075" y2="2.602" xlink:href="#linear-gradient-7"/>
    <clipPath id="clip-path-28">
      <path id="Trazado_904268" data-name="Trazado 904268" d="M276.042,413.722c0,45.042,35.448,82.852,83.317,93.342a82.333,82.333,0,0,0,57.056,27.665c41.832,2.038,74.788-29.846,73.379-71.228a76,76,0,0,0-1.589-13.057,85.479,85.479,0,0,0,8.317-36.722c0-53.15-49.356-96.238-110.24-96.238s-110.24,43.088-110.24,96.238" transform="translate(-276.042 -317.484)" fill="none"/>
    </clipPath>
    <clipPath id="clip-path-29">
      <path id="Trazado_904269" data-name="Trazado 904269" d="M375.02,493.073l-44.607,10.833a5.015,5.015,0,0,0-3.428,6.842l24.352,57.043a5.015,5.015,0,0,0,6.079,2.827l42.654-13.051a5.015,5.015,0,0,0,3.175-6.691l-22.4-54.826a5.009,5.009,0,0,0-5.825-2.976" transform="translate(-326.579 -492.931)" fill="none"/>
    </clipPath>
    <linearGradient id="linear-gradient-15" x1="-1.287" y1="1.815" x2="-1.282" y2="1.815" xlink:href="#linear-gradient"/>
    <clipPath id="clip-path-31">
      <rect id="Rectángulo_404254" data-name="Rectángulo 404254" width="55.391" height="73.851" fill="none"/>
    </clipPath>
    <clipPath id="clip-path-32">
      <path id="Trazado_904270" data-name="Trazado 904270" d="M381.472,557.237c-5.765-13.93-25.46-13.93-32.665-25.94-6.245-9.607,7.686-18.254,10.087-29.3,0-.022.007-.043.011-.064l-28.493,6.92a5.014,5.014,0,0,0-3.428,6.842l24.352,57.043a5.014,5.014,0,0,0,6.079,2.826l24.4-7.466c-.2-3.451.663-7.506-.342-10.859" transform="translate(-326.579 -501.931)" fill="none"/>
    </clipPath>
    <linearGradient id="linear-gradient-16" x1="-1.442" y1="2.184" x2="-1.437" y2="2.184" gradientUnits="objectBoundingBox">
      <stop offset="0" stop-color="#aeea94"/>
      <stop offset="0.583" stop-color="#c0efac"/>
      <stop offset="1" stop-color="#bfeeaa"/>
    </linearGradient>
    <clipPath id="clip-path-33">
      <path id="Trazado_904272" data-name="Trazado 904272" d="M335.311,571.022a7.508,7.508,0,0,0,.859,3.489l4.147,7.9.782,7.2,3.755-1.564-.313-4.693c.939-.782-.469-8.448.47-9.386s1.1-3.441-.157-2.816a37.7,37.7,0,0,0-4.537,3.6l-5.006-11.576Z" transform="translate(-335.311 -563.173)" fill="none"/>
    </clipPath>
    <linearGradient id="linear-gradient-17" x1="-5.062" y1="8.59" x2="-5.046" y2="8.59" xlink:href="#linear-gradient"/>
    <clipPath id="clip-path-34">
      <path id="Trazado_904273" data-name="Trazado 904273" d="M491.081,451.919c-23.544,3.583-30.108,2.356-40.361,9.074-4.333,2.839-12.689,8.314-16.582,17.834-7.459,18.239,9.833,30.859,23.153,77.281,4.934,17.2,7.744,26.988,7.935,37.423a80.486,80.486,0,0,0,37.053,11.223c25.918,1.263,48.429-10.5,61.47-29.467q-.209-2.062-.393-4.162c-5.018-57.868,14.526-72.634-2.191-101.685-3.315-5.762-10.551-18.337-24.4-23.153a21.463,21.463,0,0,0-7.326-1.338c-6.941,0-14.993,3.416-38.354,6.97" transform="translate(-432.338 -444.949)" fill="none"/>
    </clipPath>
    <linearGradient id="linear-gradient-18" x1="-0.86" y1="1.083" x2="-0.858" y2="1.083" xlink:href="#linear-gradient-7"/>
    <clipPath id="clip-path-35">
      <path id="Trazado_904274" data-name="Trazado 904274" d="M546.929,383.357c-.093.033-.183.068-.183.068l-1.529.943c-1.1.736-1.689,1.317-3.994,5.569-.55,1.015-3.048,5.728-1.619,10.818,1.051,3.75,6.121,6.065,6.995,6.518-.237,1.962,0,4.7-2.886,7.36-3.149,2.9-14.347,5.826-14.908,6.837-1.263,2.276,10.493,3.814,24.945,3.707,10.769-1.509,19.49-8.217,18.9-10.27-.313-1.1-3.911-1.721-11.264-1.251-1.812.115-4.37.157-4.569-1.647q-.314-2.829-.821-5.783-.125-.725-.26-1.437c.657-12.462-1.647-21.276-3.811-21.738a7.073,7.073,0,0,0-1.157-.064,16.353,16.353,0,0,0-3.843.37" transform="translate(-528.711 -382.987)" fill="none"/>
    </clipPath>
    <linearGradient id="linear-gradient-19" x1="-3.921" y1="4.083" x2="-3.914" y2="4.083" xlink:href="#linear-gradient"/>
    <clipPath id="clip-path-36">
      <path id="Trazado_904275" data-name="Trazado 904275" d="M558.781,359.4c.013,3.861,1.832,7.984,2.759,8.646a6.454,6.454,0,0,1,1.4,1.528,1.931,1.931,0,0,1,.22.456c.845,2.433-3.023,5.3-2.276,6.386.279.407,1.111.324,1.9.241.739-.078,1.436-.156,1.587.175.295.642-1.891,1.972-1.556,2.741.253.581,1.6.05,2.445.939.423.443.3.794.747,2.149a12.225,12.225,0,0,0,.881,2.071c1.335,2.267,5.114,3.095,5.841,2.187.2-.253.028-.465.235-1.314a6.785,6.785,0,0,1,.739-1.7c.781-1.3,2.668-2.228,4.573-3.6,3.526-2.539,4.484-4.7,4.772-5.435.1-.26.166-.457.212-.6.917-2.845.921-7.025-.359-9.6-2.142-4.306-6.977-2.262-10.934-6.528-4.566-4.922-1.847-11.651-4.324-12.394a1.56,1.56,0,0,0-.45-.063c-2.9,0-8.429,6.934-8.407,13.7" transform="translate(-558.781 -345.694)" fill="none"/>
    </clipPath>
    <linearGradient id="linear-gradient-20" x1="-5.887" y1="5.013" x2="-5.876" y2="5.013" xlink:href="#linear-gradient-4"/>
    <clipPath id="clip-path-37">
      <path id="Trazado_904276" data-name="Trazado 904276" d="M564.781,411.185c-1.273,1.75-2.164,4.371-.583,4.7s3.211-1.417,3.2-3.1a2.03,2.03,0,0,0-1.662-2.149,1.175,1.175,0,0,0-.956.545" transform="translate(-563.352 -410.64)" fill="none"/>
    </clipPath>
    <linearGradient id="linear-gradient-21" x1="-38.079" y1="30.402" x2="-38.011" y2="30.402" xlink:href="#linear-gradient"/>
    <clipPath id="clip-path-38">
      <path id="Trazado_904277" data-name="Trazado 904277" d="M554.381,408.46s-2.366,3.5-3.748,1.582c-1.129-1.566-1.421-1.531-1.49-1.465-.014.013-.017.032-.02.03-.02-.005.166-.78.333-1.46a12.832,12.832,0,0,0-1.877,4.031c-.474,1.779-.982,3.683.021,5.512a5.481,5.481,0,0,0,3.227,2.524s.812.185,4.241-.418c0,0-3.748-2.72-3.806-3.366-.156-1.757,2.282-2.706,4.09-6.308a14.481,14.481,0,0,0,1.224-3.516Z" transform="translate(-547.02 -405.604)" fill="none"/>
    </clipPath>
    <linearGradient id="linear-gradient-22" x1="-16.187" y1="12.916" x2="-16.157" y2="12.916" xlink:href="#linear-gradient-4"/>
    <clipPath id="clip-path-40">
      <rect id="Rectángulo_404262" data-name="Rectángulo 404262" width="110.42" height="147.839" fill="none"/>
    </clipPath>
    <clipPath id="clip-path-41">
      <path id="Trazado_904278" data-name="Trazado 904278" d="M514.191,685.551c-4.159-8.281,6.032-19.289-.626-31.913-5.655-10.722-15.927-8.32-20.649-18.147-5.7-11.869,6.7-20.74,6.257-38.8-.531-21.586-19.1-43.194-30.036-41.3-7.072,1.226-7.981,11.777-12.957,23.328a262.276,262.276,0,0,1,14.209,38c5.729,19.968,8.594,29.952,7.822,42.551-1.075,17.55-7.239,27.69-1.251,35.668,3.748,4.995,10.894,5.8,25.03,7.2,12.847,1.272,33.989,3.1,57.569-7.509,2.985-1.343,5.219-2.349,7.042-3.341-36.84,5.532-49.11.836-52.409-5.732" transform="translate(-456.18 -555.278)" fill="none"/>
    </clipPath>
    <linearGradient id="linear-gradient-23" x1="-0.902" y1="0.9" x2="-0.9" y2="0.9" xlink:href="#linear-gradient-7"/>
    <clipPath id="clip-path-42">
      <path id="Trazado_904280" data-name="Trazado 904280" d="M400.089,482.779c-4.89,2.111-14.6,7.949-23.153,30.662-7.551,20.046-6,31.455-12.2,33.321-4.161,1.252-9.107-2.6-12.985-6.57l-6.883,2.972c-1.251,16.131,6.277,30.526,18.46,36.137,14.261,6.568,28.67-1.771,31.288-3.285,18.428-10.664,21.661-33.128,23.309-44.585,2.926-20.334-.521-47.511-10.95-50.06a6.2,6.2,0,0,0-1.487-.182c-1.671,0-3.28.676-5.4,1.589" transform="translate(-344.731 -481.19)" fill="none"/>
    </clipPath>
    <linearGradient id="linear-gradient-24" x1="-1.31" y1="1.541" x2="-1.306" y2="1.541" xlink:href="#linear-gradient-7"/>
    <clipPath id="clip-path-43">
      <path id="Trazado_904281" data-name="Trazado 904281" d="M140.427,542.951c0,12.686,10.324,23.288,22.6,23.664,11.795.362,21.023-8.922,21.023-20.724s-9.228-22.33-21.023-23.559a21.949,21.949,0,0,0-2.267-.119c-11.253,0-20.332,8.84-20.332,20.736" transform="translate(-140.427 -522.215)" fill="none"/>
    </clipPath>
    <linearGradient id="linear-gradient-25" x1="-1.041" y1="3.009" x2="-1.033" y2="3.009" gradientUnits="objectBoundingBox">
      <stop offset="0" stop-color="#ffc65e"/>
      <stop offset="0.016" stop-color="#ffc762"/>
      <stop offset="0.079" stop-color="#ffcc6f"/>
      <stop offset="0.16" stop-color="#ffcf77"/>
      <stop offset="0.318" stop-color="#ffd07a"/>
      <stop offset="0.444" stop-color="#ffcc6f"/>
      <stop offset="0.663" stop-color="#ffc253"/>
      <stop offset="0.866" stop-color="#ffb733"/>
      <stop offset="1" stop-color="#ffb733"/>
    </linearGradient>
    <clipPath id="clip-path-44">
      <path id="Trazado_904282" data-name="Trazado 904282" d="M147.5,540.693c0,12.687,10.324,23.288,22.6,23.665,11.795.362,21.023-8.922,21.023-20.724s-9.228-22.33-21.023-23.559a21.986,21.986,0,0,0-2.268-.118c-11.253,0-20.331,8.839-20.331,20.736" transform="translate(-147.5 -519.957)" fill="none"/>
    </clipPath>
    <linearGradient id="linear-gradient-26" x1="-1.002" y1="2.929" x2="-0.994" y2="2.929" gradientUnits="objectBoundingBox">
      <stop offset="0" stop-color="#ffdc9c"/>
      <stop offset="1" stop-color="#ffe0a6"/>
    </linearGradient>
    <clipPath id="clip-path-45">
      <path id="Trazado_904283" data-name="Trazado 904283" d="M149.866,542.006c0,12.088,9.827,22.2,21.533,22.584a19.393,19.393,0,0,0,20.1-19.777c0-11.282-8.83-21.333-20.1-22.487a20.9,20.9,0,0,0-2.129-.109c-10.744,0-19.4,8.443-19.4,19.79" transform="translate(-149.866 -522.216)" fill="none"/>
    </clipPath>
    <linearGradient id="linear-gradient-27" x1="-1.316" y1="3.354" x2="-1.307" y2="3.354" xlink:href="#linear-gradient-25"/>
    <clipPath id="clip-path-46">
      <path id="Trazado_904284" data-name="Trazado 904284" d="M151.551,542.943c0,11.662,9.475,21.434,20.773,21.813a18.729,18.729,0,0,0,19.434-19.1,22.07,22.07,0,0,0-19.434-21.722,20.146,20.146,0,0,0-2.032-.1,18.664,18.664,0,0,0-18.741,19.115" transform="translate(-151.551 -523.828)" fill="none"/>
    </clipPath>
    <linearGradient id="linear-gradient-28" x1="-1.138" y1="3.094" x2="-1.13" y2="3.094" xlink:href="#linear-gradient-25"/>
    <clipPath id="clip-path-47">
      <path id="Trazado_904285" data-name="Trazado 904285" d="M186.056,557.422v-5.869a5.323,5.323,0,0,1,2.3,1.264,2.7,2.7,0,0,1,.726,1.931,2.512,2.512,0,0,1-.781,1.975,3.242,3.242,0,0,1-2.234.7h-.01m-4.013-13.274a2.318,2.318,0,0,1-.7-1.716,2.158,2.158,0,0,1,.753-1.727,3.543,3.543,0,0,1,2.1-.739v5.281a4.929,4.929,0,0,1-2.153-1.1m2.153-10.892v2.054a10.353,10.353,0,0,0-6.582,1.838,6.347,6.347,0,0,0-2.335,5.273,7.306,7.306,0,0,0,2.154,5.429,13.865,13.865,0,0,0,6.5,3.19l-.018,6.4a20.6,20.6,0,0,1-3.767-.63,21.006,21.006,0,0,1-2.357-.773,1.024,1.024,0,0,0-1.431.845l-.29,3.237a1.155,1.155,0,0,0,.84,1.194,25.159,25.159,0,0,0,2.679.616,30.659,30.659,0,0,0,3.877.413l.467.021v2.187a1.115,1.115,0,0,0,1.054,1.112h.018a1.008,1.008,0,0,0,1.05-1.024v-2.217a10.792,10.792,0,0,0,6.693-2.356,7.017,7.017,0,0,0,2.366-5.542,7.22,7.22,0,0,0-2.14-5.331,15.112,15.112,0,0,0-6.678-3.415v-5.752l.3.024a15.514,15.514,0,0,1,3.231.6,14.47,14.47,0,0,1,1.713.638.945.945,0,0,0,1.348-.784l.247-2.519a1.174,1.174,0,0,0-.8-1.205q-1.269-.417-2.553-.719a29.542,29.542,0,0,0-3.482-.6v-2.008a1.188,1.188,0,0,0-1.048-1.166c-.034,0-.067-.005-.1-.005a.948.948,0,0,0-.954.974" transform="translate(-175.279 -532.282)" fill="none"/>
    </clipPath>
    <linearGradient id="linear-gradient-29" x1="-2.701" y1="4.285" x2="-2.684" y2="4.285" xlink:href="#linear-gradient-26"/>
    <clipPath id="clip-path-49">
      <rect id="Rectángulo_404270" data-name="Rectángulo 404270" width="23.983" height="40.832" fill="none"/>
    </clipPath>
    <clipPath id="clip-path-50">
      <path id="Trazado_904286" data-name="Trazado 904286" d="M168.807,548.455c.657-6.485,6.617-9.23,5.839-15.2-.479-3.677-3.266-6.775-6.375-9.195a18.684,18.684,0,0,0-16.72,19.008c0,11.662,9.475,21.434,20.773,21.813a19.558,19.558,0,0,0,3.21-.157c-4.487-4.465-7.291-10.7-6.727-16.273" transform="translate(-151.551 -524.064)" fill="none"/>
    </clipPath>
    <linearGradient id="linear-gradient-30" x1="-1.553" y1="3.498" x2="-1.541" y2="3.498" xlink:href="#linear-gradient-25"/>
    <clipPath id="clip-path-51">
      <path id="Trazado_904287" data-name="Trazado 904287" d="M13.9,391.511c0,20.4,16.6,37.455,36.347,38.062,18.971.583,33.814-14.35,33.814-33.331S69.222,360.325,50.251,358.35a35.181,35.181,0,0,0-3.646-.191c-18.1,0-32.7,14.218-32.7,33.352" transform="translate(-13.904 -358.159)" fill="none"/>
    </clipPath>
    <linearGradient id="linear-gradient-31" x1="0.034" y1="2.73" x2="0.039" y2="2.73" xlink:href="#linear-gradient-25"/>
    <clipPath id="clip-path-52">
      <path id="Trazado_904288" data-name="Trazado 904288" d="M25.279,387.879c0,20.4,16.6,37.456,36.347,38.062,18.971.582,33.813-14.35,33.813-33.332S80.6,356.694,61.626,354.719a35.173,35.173,0,0,0-3.646-.191c-18.1,0-32.7,14.217-32.7,33.351" transform="translate(-25.279 -354.528)" fill="none"/>
    </clipPath>
    <linearGradient id="linear-gradient-32" x1="0.008" y1="2.661" x2="0.013" y2="2.661" xlink:href="#linear-gradient-26"/>
    <clipPath id="clip-path-53">
      <path id="Trazado_904289" data-name="Trazado 904289" d="M29.084,389.99c0,19.441,15.807,35.714,34.633,36.324,18.123.587,32.325-13.663,32.325-31.809s-14.2-34.311-32.325-36.168a33.484,33.484,0,0,0-3.423-.176c-17.28,0-31.209,13.579-31.209,31.83" transform="translate(-29.084 -358.16)" fill="none"/>
    </clipPath>
    <linearGradient id="linear-gradient-33" x1="-0.095" y1="3.039" x2="-0.09" y2="3.039" xlink:href="#linear-gradient-25"/>
    <clipPath id="clip-path-54">
      <path id="Trazado_904290" data-name="Trazado 904290" d="M31.8,391.5c0,18.756,15.239,34.473,33.411,35.082,17.516.588,31.258-13.175,31.258-30.723s-13.742-33.164-31.258-34.938a32.364,32.364,0,0,0-3.268-.166c-16.694,0-30.143,13.125-30.143,30.744" transform="translate(-31.795 -360.753)" fill="none"/>
    </clipPath>
    <linearGradient id="linear-gradient-34" x1="-0.038" y1="2.808" x2="-0.032" y2="2.808" xlink:href="#linear-gradient-25"/>
    <clipPath id="clip-path-55">
      <path id="Trazado_904291" data-name="Trazado 904291" d="M87.291,414.785v-9.438a8.574,8.574,0,0,1,3.7,2.032,4.341,4.341,0,0,1,1.168,3.106,4.04,4.04,0,0,1-1.256,3.177,5.206,5.206,0,0,1-3.589,1.122h-.02m-6.454-21.348a3.727,3.727,0,0,1-1.119-2.76,3.466,3.466,0,0,1,1.21-2.777A5.7,5.7,0,0,1,84.3,386.71V395.2a7.931,7.931,0,0,1-3.463-1.767M84.3,375.919v3.3c-4.562,0-8.1.981-10.587,2.957a10.209,10.209,0,0,0-3.755,8.481,11.749,11.749,0,0,0,3.464,8.732q3.444,3.4,10.457,5.131l-.03,10.292a33.209,33.209,0,0,1-6.06-1.012A33.934,33.934,0,0,1,74,412.558a1.646,1.646,0,0,0-2.3,1.359l-.467,5.208a1.857,1.857,0,0,0,1.352,1.92,40.522,40.522,0,0,0,4.309.991,49.323,49.323,0,0,0,6.236.665l.751.034v3.517a1.793,1.793,0,0,0,1.694,1.788h.03a1.622,1.622,0,0,0,1.688-1.648v-3.565q6.945-.412,10.764-3.79a11.288,11.288,0,0,0,3.805-8.913,11.61,11.61,0,0,0-3.441-8.573c-2.308-2.3-5.879-4.132-10.741-5.493v-9.252l.476.039a25.011,25.011,0,0,1,5.2.971,23.443,23.443,0,0,1,2.755,1.026,1.519,1.519,0,0,0,2.168-1.26l.4-4.051a1.889,1.889,0,0,0-1.287-1.939q-2.039-.671-4.107-1.156a47.467,47.467,0,0,0-5.6-.972v-3.231a1.91,1.91,0,0,0-1.687-1.874c-.054,0-.107-.008-.16-.008a1.523,1.523,0,0,0-1.533,1.567" transform="translate(-69.958 -374.352)" fill="none"/>
    </clipPath>
    <linearGradient id="linear-gradient-35" x1="-0.563" y1="3.868" x2="-0.553" y2="3.868" xlink:href="#linear-gradient-26"/>
    <clipPath id="clip-path-57">
      <rect id="Rectángulo_404278" data-name="Rectángulo 404278" width="38.574" height="65.673" fill="none"/>
    </clipPath>
    <clipPath id="clip-path-58">
      <path id="Trazado_904292" data-name="Trazado 904292" d="M59.55,400.362c1.056-10.43,10.642-14.846,9.391-24.441-.771-5.914-5.253-10.9-10.253-14.789C43.522,362.723,31.8,375.281,31.8,391.705c0,18.756,15.239,34.473,33.411,35.083a31.537,31.537,0,0,0,5.163-.252c-7.217-7.181-11.727-17.213-10.82-26.174" transform="translate(-31.795 -361.133)" fill="none"/>
    </clipPath>
    <linearGradient id="linear-gradient-36" x1="-0.034" y1="3.168" x2="-0.027" y2="3.168" xlink:href="#linear-gradient-25"/>
    <clipPath id="clip-path-59">
      <path id="Trazado_904293" data-name="Trazado 904293" d="M14.774,146.628v38.341a4.123,4.123,0,0,0,4.13,4.056l100.8,1-9.142-8.28V148.794a4.017,4.017,0,0,0-3.906-3.993L18.9,142.711h-.1a3.956,3.956,0,0,0-4.028,3.918" transform="translate(-14.774 -142.71)" fill="none"/>
    </clipPath>
    <linearGradient id="linear-gradient-37" x1="-0.094" y1="3.248" x2="-0.089" y2="3.248" xlink:href="#linear-gradient-3"/>
    <clipPath id="clip-path-61">
      <rect id="Rectángulo_404281" data-name="Rectángulo 404281" width="66.757" height="5.898" fill="none"/>
    </clipPath>
    <clipPath id="clip-path-62">
      <rect id="Rectángulo_404282" data-name="Rectángulo 404282" width="66.757" height="5.714" fill="none"/>
    </clipPath>
    <clipPath id="clip-path-63">
      <rect id="Rectángulo_404283" data-name="Rectángulo 404283" width="66.757" height="5.529" fill="none"/>
    </clipPath>
    <clipPath id="clip-path-64">
      <path id="Trazado_904297" data-name="Trazado 904297" d="M61.925,663.154a3.32,3.32,0,0,0-3.324,3.265v30.862a3.187,3.187,0,0,0,3.324,3.152l70.637-1.682a3.233,3.233,0,0,0,3.144-3.214V669.012l7.359-6.665Z" transform="translate(-58.601 -662.347)" fill="none"/>
    </clipPath>
    <linearGradient id="linear-gradient-38" x1="-0.255" y1="1.504" x2="-0.25" y2="1.504" xlink:href="#linear-gradient-3"/>
    <clipPath id="clip-path-66">
      <rect id="Rectángulo_404286" data-name="Rectángulo 404286" width="53.734" height="4.747" fill="none"/>
    </clipPath>
    <clipPath id="clip-path-67">
      <rect id="Rectángulo_404287" data-name="Rectángulo 404287" width="53.734" height="4.599" fill="none"/>
    </clipPath>
    <clipPath id="clip-path-68">
      <rect id="Rectángulo_404288" data-name="Rectángulo 404288" width="53.734" height="4.45" fill="none"/>
    </clipPath>
    <clipPath id="clip-path-69">
      <path id="Trazado_904301" data-name="Trazado 904301" d="M624.636,192.595a4.445,4.445,0,0,1-4.3-4.376,4.06,4.06,0,0,1,4.3-4.053,4.446,4.446,0,0,1,4.265,4.374,4.057,4.057,0,0,1-4.114,4.057l-.15,0m-21-.713a4.566,4.566,0,0,1-4.449-4.456,4.171,4.171,0,0,1,4.449-4.122,4.567,4.567,0,0,1,4.417,4.455,4.163,4.163,0,0,1-4.259,4.126c-.053,0-.1,0-.158,0m-21.758-.739a4.693,4.693,0,0,1-4.61-4.539,4.287,4.287,0,0,1,4.61-4.193,4.693,4.693,0,0,1,4.577,4.537,4.275,4.275,0,0,1-4.409,4.2l-.167,0m-18.743-7.523V238.1a5.211,5.211,0,0,0,5.416,5l1.6-.018.075-.119,66.545-1.316c2.63-.022,4.814-1.266,4.814-3.878V186.711a5.005,5.005,0,0,0-4.765-4.936l-68.26-2.969c-.084,0-.169-.005-.252-.005a4.982,4.982,0,0,0-5.172,4.819" transform="translate(-563.134 -178.8)" fill="none"/>
    </clipPath>
    <linearGradient id="linear-gradient-39" x1="-2.388" y1="3.373" x2="-2.384" y2="3.373" xlink:href="#linear-gradient-4"/>
    <clipPath id="clip-path-70">
      <path id="Trazado_904302" data-name="Trazado 904302" d="M628.318,192.734a4.437,4.437,0,0,1-4.286-4.368,4.054,4.054,0,0,1,4.286-4.049,4.439,4.439,0,0,1,4.254,4.37,4.049,4.049,0,0,1-4.1,4.05l-.15,0m-20.948-.712a4.557,4.557,0,0,1-4.438-4.448,4.164,4.164,0,0,1,4.438-4.117,4.558,4.558,0,0,1,4.406,4.45,4.155,4.155,0,0,1-4.248,4.119c-.052,0-.105,0-.158,0m-21.7-.737a4.684,4.684,0,0,1-4.6-4.531,4.28,4.28,0,0,1,4.6-4.189,4.685,4.685,0,0,1,4.565,4.533,4.268,4.268,0,0,1-4.4,4.19c-.055,0-.11,0-.166,0M569.15,179.875a4.652,4.652,0,0,0-2.059,3.845v12.535h78.092V186.8a4.9,4.9,0,0,0-4.7-4.873l-68.02-2.959c-.089,0-.178-.006-.266-.006a5.314,5.314,0,0,0-3.05.915" transform="translate(-567.091 -178.96)" fill="none"/>
    </clipPath>
    <linearGradient id="linear-gradient-40" x1="-3.272" y1="18.353" x2="-3.267" y2="18.353" xlink:href="#linear-gradient-4"/>
    <clipPath id="clip-path-72">
      <path id="Trazado_904308" data-name="Trazado 904308" d="M686.576,255.088v6.248a1.109,1.109,0,0,0,1.1,1.129l6.328.062a1.107,1.107,0,0,0,1.127-1.1v-6.2a1.16,1.16,0,0,0-1.147-1.132l-6.3-.1h-.02a1.085,1.085,0,0,0-1.091,1.1" transform="translate(-686.576 -253.983)" fill="none"/>
    </clipPath>
    <linearGradient id="linear-gradient-41" x1="-36.153" y1="33.175" x2="-36.1" y2="33.175" xlink:href="#linear-gradient-3"/>
    <clipPath id="clip-path-74">
      <rect id="Rectángulo_404294" data-name="Rectángulo 404294" width="78.092" height="63.33" fill="none"/>
    </clipPath>
  </defs>
  <g id="Grupo_1103123" data-name="Grupo 1103123" transform="translate(-234.463 -6362.149)">
    <rect id="Rectángulo_404054" data-name="Rectángulo 404054" width="521.058" height="428.804" rx="20" transform="translate(234.463 6362.149)" fill="#ffedcc"/>
    <g id="Grupo_1103113" data-name="Grupo 1103113" transform="translate(296.304 6380.737)">
      <g id="Grupo_1103112" data-name="Grupo 1103112" clip-path="url(#clip-path)">
        <g id="Grupo_1102962" data-name="Grupo 1102962">
          <g id="Grupo_1102961" data-name="Grupo 1102961" clip-path="url(#clip-path)">
            <path id="Trazado_904222" data-name="Trazado 904222" d="M46.766,332.155a148.611,148.611,0,0,0,26.1,21.187c67.6,45.135,144.869,32.126,168.759,27.68,38.544-7.174,71.081-12.235,99.035-37.491,63.522-57.389,60.433-177.108,11.894-251.269C346.8,83.469,298.336,11.63,220.9,1.506c-1.894-.247-3.307-.388-4.545-.52C204.373-.281,130.138-6.975,69.606,43.738a180.576,180.576,0,0,0-35.54,40.324c-47.28,73.021-47.43,186.114,12.7,248.094" transform="translate(0 0)" fill="#b771e5"/>
            <g id="Grupo_1102950" data-name="Grupo 1102950" transform="translate(139.479 102.896)" style="mix-blend-mode: soft-light;isolation: isolate">
              <g id="Grupo_1102949" data-name="Grupo 1102949">
                <g id="Grupo_1102948" data-name="Grupo 1102948" clip-path="url(#clip-path-3)">
                  <g id="Grupo_1102947" data-name="Grupo 1102947" transform="translate(0 8.295)">
                    <g id="Grupo_1102946" data-name="Grupo 1102946" clip-path="url(#clip-path-4)">
                      <rect id="Rectángulo_404226" data-name="Rectángulo 404226" width="358.255" height="357.97" transform="translate(-118.073 37.642) rotate(-30.466)" fill="url(#linear-gradient)"/>
                      <path id="Trazado_904223" data-name="Trazado 904223" d="M323.75,440.346l-.055-.4a255.646,255.646,0,0,0,76.027-22.782,264.768,264.768,0,0,0,63.842-43.28c37.633-34.342,66.756-79.925,84.222-131.82l.381.129c-17.487,51.959-46.649,97.6-84.332,131.989A265.162,265.162,0,0,1,399.9,417.528a256.045,256.045,0,0,1-76.147,22.818" transform="translate(-317.306 -244.173)" fill="#ecdaf8"/>
                      <path id="Trazado_904224" data-name="Trazado 904224" d="M548.587,680.031c-22.9-16.845-65.7-31.166-95.406-31.922l.01-.4c29.778.758,72.679,15.114,95.635,32Z" transform="translate(-388.441 -467.017)" fill="#ecdaf8"/>
                      <path id="Trazado_904225" data-name="Trazado 904225" d="M373.208,561.858l-.163-.368c14.145-6.267,24.287-19.346,30.143-38.874,5.438-18.131,6.25-38.345,6.388-51.971l.4,0c-.138,13.651-.952,33.9-6.4,52.083-5.892,19.645-16.108,32.809-30.366,39.126" transform="translate(-344.417 -369.747)" fill="#ecdaf8"/>
                      <path id="Trazado_904226" data-name="Trazado 904226" d="M646.211,512.969l-.182-.359c14.469-7.322,39.663-13.839,77.52-3.31l-.108.388c-37.733-10.495-62.825-4.008-77.23,3.281" transform="translate(-494.385 -387.955)" fill="#ecdaf8"/>
                      <path id="Trazado_904227" data-name="Trazado 904227" d="M737.323,310l-.373-.153c5.409-13.175,12.242-41.265-2.766-81.367l.377-.141a141.668,141.668,0,0,1,8.91,40.765c.876,15.066-1.192,28.825-6.148,40.9" transform="translate(-542.814 -236.63)" fill="#ecdaf8"/>
                    </g>
                  </g>
                </g>
              </g>
            </g>
            <g id="Grupo_1102955" data-name="Grupo 1102955" transform="translate(129.32 30.316)" style="mix-blend-mode: soft-light;isolation: isolate">
              <g id="Grupo_1102954" data-name="Grupo 1102954">
                <g id="Grupo_1102953" data-name="Grupo 1102953" clip-path="url(#clip-path-5)">
                  <g id="Grupo_1102952" data-name="Grupo 1102952" transform="translate(0 6.566)">
                    <g id="Grupo_1102951" data-name="Grupo 1102951" clip-path="url(#clip-path-6)">
                      <rect id="Rectángulo_404228" data-name="Rectángulo 404228" width="275.392" height="316.041" transform="translate(-123.788 54.56) rotate(-30.466)" fill="url(#linear-gradient-2)"/>
                      <path id="Trazado_904229" data-name="Trazado 904229" d="M320.022,311.905l-.242-.322a221.448,221.448,0,0,0,47.913-49.3,229.353,229.353,0,0,0,30.048-59.672c13.988-41.857,16.8-88.63,8.125-135.261l.4-.074c8.686,46.7,5.872,93.541-8.138,135.462a229.746,229.746,0,0,1-30.1,59.777,221.85,221.85,0,0,1-48,49.393" transform="translate(-304.996 -73.839)" fill="#fff"/>
                      <path id="Trazado_904230" data-name="Trazado 904230" d="M402.835,509.387l-.187-.356c23-12.066,61.735-19.352,86.338-16.244l-.05.4c-24.533-3.1-63.159,4.167-86.1,16.2" transform="translate(-350.52 -307.207)" fill="#fff"/>
                      <path id="Trazado_904231" data-name="Trazado 904231" d="M339.474,481l-.322-.242c8.109-10.774,10.46-25.229,6.989-42.964-2.543-12.993-8.1-27.413-16.5-42.859l.353-.192c8.427,15.483,13.994,29.941,16.545,42.974,3.494,17.851,1.118,32.414-7.062,43.283" transform="translate(-310.411 -253.739)" fill="#fff"/>
                      <path id="Trazado_904232" data-name="Trazado 904232" d="M497.149,311.295l-.333-.225c14.2-21.028,39.053-30.733,57.407-35.171l.095.391c-18.285,4.422-43.045,14.084-57.168,35.005" transform="translate(-402.253 -188.45)" fill="#fff"/>
                      <path id="Trazado_904233" data-name="Trazado 904233" d="M475.992,153.92c-1.46-12.209-8.141-36.286-36.492-60.366l.261-.307a123.545,123.545,0,0,1,23.986,27.083c7.05,11.04,11.3,22.325,12.645,33.542Z" transform="translate(-370.765 -88.108)" fill="#fff"/>
                    </g>
                  </g>
                </g>
              </g>
            </g>
            <g id="Grupo_1102960" data-name="Grupo 1102960" transform="translate(175.703 29.427)" style="mix-blend-mode: soft-light;isolation: isolate">
              <g id="Grupo_1102959" data-name="Grupo 1102959">
                <g id="Grupo_1102958" data-name="Grupo 1102958" clip-path="url(#clip-path-7)">
                  <g id="Grupo_1102957" data-name="Grupo 1102957" transform="translate(0 10.946)">
                    <g id="Grupo_1102956" data-name="Grupo 1102956" clip-path="url(#clip-path-8)">
                      <rect id="Rectángulo_404230" data-name="Rectángulo 404230" width="352.087" height="265.239" transform="translate(-99.405 275.268) rotate(-70.615)" fill="url(#linear-gradient-3)"/>
                      <path id="Trazado_904235" data-name="Trazado 904235" d="M439.83,385.731l-.476-.058c.026-.276,20.878-64.069,51.429-125.042,4.387-9.937,9.064-19.928,13.586-29.591,12.112-25.876,24.636-52.634,32.181-79.822,8.435-30.393,9.721-58.463,3.933-85.816l.47-.1c5.806,27.429,4.517,55.575-3.939,86.044-7.557,27.227-20.089,54-32.21,79.9-4.522,9.66-9.2,19.65-13.587,29.592-30.469,60.81-51.315,124.529-51.387,124.9" transform="translate(-417.069 -76.249)" fill="#fff"/>
                      <path id="Trazado_904236" data-name="Trazado 904236" d="M633.338,246.947l-.32-.358c17.858-15.92,39.909-38.983,51.755-51.374,9.289-9.716,9.6-9.978,9.912-9.9l-.126.464.063-.232.066.225c-.436.22-4.465,4.435-9.568,9.772-11.851,12.4-33.91,35.468-51.783,51.4" transform="translate(-523.461 -142.176)" fill="#fff"/>
                      <path id="Trazado_904237" data-name="Trazado 904237" d="M618.466,199.642c-1.059-20.685-7.974-35.094-13.588-43.539-6.166-9.275-12.367-13.824-12.983-13.956a.175.175,0,0,0,.11-.022l-.222-.426c.131-.069.282-.03.6.151,1.342.768,7.606,5.616,13.748,15.3,5.281,8.325,11.79,22.45,12.815,42.467Z" transform="translate(-500.808 -118.201)" fill="#fff"/>
                      <path id="Trazado_904238" data-name="Trazado 904238" d="M481.7,468.868l-.468-.108c.017-.071.07-.258.124-.447s.106-.371.122-.439c4.212-18.573,2.015-39.279-6.534-61.542a176.665,176.665,0,0,0-17.923-34.343c-.515-.774-.726-1.093-.781-1.218l.439-.194c.041.092.35.557.741,1.146a177.154,177.154,0,0,1,17.971,34.436c8.583,22.353,10.788,43.153,6.554,61.821-.017.073-.073.27-.128.465-.051.179-.1.356-.118.423" transform="translate(-426.345 -243.956)" fill="#fff"/>
                      <path id="Trazado_904239" data-name="Trazado 904239" d="M531.763,516.019l-.378-.3c20.223-25.834,56.548-23.78,56.84-23.665l.154.243-.19.217-.05-.231-.048.23c-.339-.05-36.246-2.151-56.327,23.5m56.323-23.97.051.234Z" transform="translate(-467.627 -310.648)" fill="#fff"/>
                      <path id="Trazado_904240" data-name="Trazado 904240" d="M430.206,697.593l-.475-.07c1.21-8.188-.182-22.525-13.678-44.327-.721-1.165-.721-1.165-.685-1.3l.233.06.23-.06c.033.085.31.533.631,1.05,13.573,21.926,14.967,36.383,13.745,44.651" transform="translate(-403.885 -398.5)" fill="#fff"/>
                      <path id="Trazado_904241" data-name="Trazado 904241" d="M459.612,687.338l-.444-.183c2.5-6.039,10.964-17.478,39.625-26.239.4-.122.655-.2.747-.235l.172.449c-.1.037-.363.119-.778.245-28.472,8.7-36.857,20-39.321,25.963" transform="translate(-427.954 -403.328)" fill="#fff"/>
                    </g>
                  </g>
                </g>
              </g>
            </g>
          </g>
        </g>
        <g id="Grupo_1102964" data-name="Grupo 1102964" transform="translate(50.625 30.121)">
          <g id="Grupo_1102963" data-name="Grupo 1102963" clip-path="url(#clip-path-9)">
            <rect id="Rectángulo_404233" data-name="Rectángulo 404233" width="359.761" height="341.869" transform="matrix(0.649, -0.761, 0.761, 0.649, -162.373, 190.345)" fill="url(#linear-gradient-4)"/>
          </g>
        </g>
        <g id="Grupo_1102966" data-name="Grupo 1102966" transform="translate(55.294 30.121)">
          <g id="Grupo_1102965" data-name="Grupo 1102965" clip-path="url(#clip-path-10)">
            <rect id="Rectángulo_404234" data-name="Rectángulo 404234" width="334.905" height="180.937" transform="matrix(0.037, -0.999, 0.999, 0.037, -12.216, 328.402)" fill="url(#linear-gradient-5)"/>
          </g>
        </g>
        <g id="Grupo_1102971" data-name="Grupo 1102971">
          <g id="Grupo_1102970" data-name="Grupo 1102970" clip-path="url(#clip-path)">
            <path id="Trazado_904245" data-name="Trazado 904245" d="M293.023,118.818V398.4a7.86,7.86,0,0,1-7.423,7.894l-143.313,4.5a7.631,7.631,0,0,1-7.89-7.663V114.442a7.652,7.652,0,0,1,7.89-7.681L285.6,110.94a7.838,7.838,0,0,1,7.423,7.878" transform="translate(-73.833 -58.649)" fill="#fff"/>
            <path id="Trazado_904246" data-name="Trazado 904246" d="M312.6,89.609a2.753,2.753,0,0,1-2.83,2.794,2.966,2.966,0,0,1-2.833-2.969,2.753,2.753,0,0,1,2.833-2.793,2.966,2.966,0,0,1,2.83,2.968" transform="translate(-168.618 -47.596)" fill="#b9b2e1"/>
            <g id="Grupo_1102969" data-name="Grupo 1102969" transform="translate(61.12 47.875)" opacity="0.3" style="mix-blend-mode: multiply;isolation: isolate">
              <g id="Grupo_1102968" data-name="Grupo 1102968">
                <g id="Grupo_1102967" data-name="Grupo 1102967" clip-path="url(#clip-path-12)">
                  <path id="Trazado_904247" data-name="Trazado 904247" d="M227.361,330.829c-2.472-33.921,16.072-47.922,9-78.654-8.741-37.988-42.36-39.616-53.81-76.867-4.387-14.273-6.12-35.851,6.438-67.266l-47.337-1.8c-3.323-.126-6.022,2.766-6.022,6.462V409.361c0,3.7,2.7,6.518,6.022,6.306l129.6-8.28c-32.972-28.687-42.369-55.709-43.888-76.558" transform="translate(-135.631 -106.238)" fill="#e3e1f3"/>
                </g>
              </g>
            </g>
            <path id="Trazado_904248" data-name="Trazado 904248" d="M298.5,624.606l-88.191,3.57a4.225,4.225,0,0,0-3.772,4.385,3.82,3.82,0,0,0,3.772,4.069l88.191-3.819a4.057,4.057,0,0,0,3.545-4.251c0-2.263-1.586-4.033-3.545-3.954" transform="translate(-113.462 -343.135)" fill="#e3e1f3"/>
            <path id="Trazado_904249" data-name="Trazado 904249" d="M298.5,657.037l-88.191,4.012a4.25,4.25,0,0,0-3.772,4.4,3.8,3.8,0,0,0,3.772,4.05l88.191-4.26a4.082,4.082,0,0,0,3.545-4.269c0-2.263-1.586-4.025-3.545-3.936" transform="translate(-113.462 -360.951)" fill="#e3e1f3"/>
            <path id="Trazado_904250" data-name="Trazado 904250" d="M298.5,689.469l-88.191,4.454a4.277,4.277,0,0,0-3.772,4.422,3.775,3.775,0,0,0,3.772,4.031l88.191-4.7a4.108,4.108,0,0,0,3.545-4.287c0-2.263-1.586-4.018-3.545-3.919" transform="translate(-113.462 -378.767)" fill="#e3e1f3"/>
            <path id="Trazado_904251" data-name="Trazado 904251" d="M384.945,156.758l-44.362-1.412a1.917,1.917,0,0,0-1.868,2.035,2.066,2.066,0,0,0,1.868,2.151l44.362,1.35a1.878,1.878,0,0,0,1.811-2.006,2.025,2.025,0,0,0-1.811-2.119" transform="translate(-186.078 -85.341)" fill="#e3e1f3"/>
            <path id="Trazado_904252" data-name="Trazado 904252" d="M384.945,173.2l-44.362-1.3a1.922,1.922,0,0,0-1.868,2.04,2.06,2.06,0,0,0,1.868,2.147l44.362,1.24a1.884,1.884,0,0,0,1.811-2.01,2.019,2.019,0,0,0-1.811-2.114" transform="translate(-186.078 -94.432)" fill="#e3e1f3"/>
            <path id="Trazado_904253" data-name="Trazado 904253" d="M384.945,189.634l-44.362-1.192a1.929,1.929,0,0,0-1.868,2.045,2.053,2.053,0,0,0,1.868,2.142l44.362,1.13a1.889,1.889,0,0,0,1.811-2.015,2.013,2.013,0,0,0-1.811-2.11" transform="translate(-186.078 -103.523)" fill="#e3e1f3"/>
          </g>
        </g>
        <g id="Grupo_1102973" data-name="Grupo 1102973" transform="translate(96.779 121.089)">
          <g id="Grupo_1102972" data-name="Grupo 1102972" clip-path="url(#clip-path-13)">
            <rect id="Rectángulo_404237" data-name="Rectángulo 404237" width="44.779" height="45.732" transform="translate(-4.539 0.502) rotate(-6.312)" fill="url(#linear-gradient-6)"/>
          </g>
        </g>
        <g id="Grupo_1102975" data-name="Grupo 1102975" transform="translate(117.172 176.384)">
          <g id="Grupo_1102974" data-name="Grupo 1102974" clip-path="url(#clip-path-14)">
            <rect id="Rectángulo_404238" data-name="Rectángulo 404238" width="80.816" height="72.587" transform="matrix(0.896, -0.444, 0.444, 0.896, -19.147, 9.48)" fill="url(#linear-gradient-7)"/>
          </g>
        </g>
        <g id="Grupo_1102977" data-name="Grupo 1102977" transform="translate(92.913 157.423)">
          <g id="Grupo_1102976" data-name="Grupo 1102976" clip-path="url(#clip-path-15)">
            <rect id="Rectángulo_404239" data-name="Rectángulo 404239" width="62.564" height="66.788" transform="translate(-28.17 21.91) rotate(-37.875)" fill="url(#linear-gradient-8)"/>
          </g>
        </g>
        <g id="Grupo_1102979" data-name="Grupo 1102979" transform="translate(141.837 101.179)">
          <g id="Grupo_1102978" data-name="Grupo 1102978" clip-path="url(#clip-path-16)">
            <rect id="Rectángulo_404240" data-name="Rectángulo 404240" width="92.359" height="89.481" transform="matrix(0.583, -0.813, 0.813, 0.583, -33.821, 47.163)" fill="url(#linear-gradient-9)"/>
          </g>
        </g>
        <g id="Grupo_1102998" data-name="Grupo 1102998">
          <g id="Grupo_1102997" data-name="Grupo 1102997" clip-path="url(#clip-path)">
            <g id="Grupo_1102982" data-name="Grupo 1102982" transform="translate(65.025 51.824)" opacity="0.35" style="mix-blend-mode: soft-light;isolation: isolate">
              <g id="Grupo_1102981" data-name="Grupo 1102981">
                <g id="Grupo_1102980" data-name="Grupo 1102980" clip-path="url(#clip-path-18)">
                  <path id="Trazado_904258" data-name="Trazado 904258" d="M232.456,335.632c-2.471-33.917,16.069-47.916,9-78.645-8.739-37.983-42.351-39.611-53.8-76.859-4.2-13.683-5.971-34.08,4.962-63.44L146.768,115a2.509,2.509,0,0,0-2.471,2.654V413.936a2.434,2.434,0,0,0,2.471,2.59l125.63-7.864c-29.791-27.386-38.486-53.047-39.942-73.03" transform="translate(-144.297 -115.002)" fill="#fff"/>
                </g>
              </g>
            </g>
            <g id="Grupo_1102987" data-name="Grupo 1102987" transform="translate(132.975 229.31)" opacity="0.3" style="mix-blend-mode: multiply;isolation: isolate">
              <g id="Grupo_1102986" data-name="Grupo 1102986">
                <g id="Grupo_1102985" data-name="Grupo 1102985" clip-path="url(#clip-path-19)">
                  <g id="Grupo_1102984" data-name="Grupo 1102984">
                    <g id="Grupo_1102983" data-name="Grupo 1102983" clip-path="url(#clip-path-20)">
                      <rect id="Rectángulo_404242" data-name="Rectángulo 404242" width="79.884" height="85.827" transform="translate(-21.999 30.677) rotate(-54.355)" fill="url(#linear-gradient-10)"/>
                    </g>
                  </g>
                </g>
              </g>
            </g>
            <g id="Grupo_1102990" data-name="Grupo 1102990" transform="translate(144.161 261.044)" opacity="0.67">
              <g id="Grupo_1102989" data-name="Grupo 1102989">
                <g id="Grupo_1102988" data-name="Grupo 1102988" clip-path="url(#clip-path-21)">
                  <path id="Trazado_904260" data-name="Trazado 904260" d="M319.9,580.972l50.388-1.693v3.974L319.9,585.014Z" transform="translate(-319.905 -579.279)" fill="#fff"/>
                </g>
              </g>
            </g>
            <g id="Grupo_1102993" data-name="Grupo 1102993" transform="translate(144.161 253.096)" opacity="0.67">
              <g id="Grupo_1102992" data-name="Grupo 1102992">
                <g id="Grupo_1102991" data-name="Grupo 1102991" clip-path="url(#clip-path-22)">
                  <path id="Trazado_904261" data-name="Trazado 904261" d="M319.9,563.2l50.388-1.555v3.974L319.9,567.241Z" transform="translate(-319.905 -561.643)" fill="#fff"/>
                </g>
              </g>
            </g>
            <g id="Grupo_1102996" data-name="Grupo 1102996" transform="translate(144.161 245.149)" opacity="0.67">
              <g id="Grupo_1102995" data-name="Grupo 1102995">
                <g id="Grupo_1102994" data-name="Grupo 1102994" clip-path="url(#clip-path-23)">
                  <path id="Trazado_904262" data-name="Trazado 904262" d="M319.9,545.424l50.388-1.418v3.974L319.9,549.467Z" transform="translate(-319.905 -544.007)" fill="#fff"/>
                </g>
              </g>
            </g>
          </g>
        </g>
        <g id="Grupo_1103000" data-name="Grupo 1103000" transform="translate(164.896 177.985)">
          <g id="Grupo_1102999" data-name="Grupo 1102999" clip-path="url(#clip-path-24)">
            <rect id="Rectángulo_404248" data-name="Rectángulo 404248" width="216.172" height="213.428" transform="translate(-0.133 0)" fill="url(#linear-gradient-11)"/>
          </g>
        </g>
        <g id="Grupo_1103002" data-name="Grupo 1103002" transform="translate(155.472 175.631)">
          <g id="Grupo_1103001" data-name="Grupo 1103001" clip-path="url(#clip-path-25)">
            <rect id="Rectángulo_404249" data-name="Rectángulo 404249" width="302.287" height="302.185" transform="matrix(0.801, -0.599, 0.599, 0.801, -103.582, 77.398)" fill="url(#linear-gradient-12)"/>
          </g>
        </g>
        <g id="Grupo_1103004" data-name="Grupo 1103004" transform="translate(201.635 147.944)">
          <g id="Grupo_1103003" data-name="Grupo 1103003" clip-path="url(#clip-path-26)">
            <rect id="Rectángulo_404250" data-name="Rectángulo 404250" width="24.399" height="17.325" transform="matrix(0.176, -0.984, 0.984, 0.176, -4.168, 21.66)" fill="url(#linear-gradient-13)"/>
          </g>
        </g>
        <g id="Grupo_1103006" data-name="Grupo 1103006" transform="translate(208.757 165.574)">
          <g id="Grupo_1103005" data-name="Grupo 1103005" clip-path="url(#clip-path-27)">
            <rect id="Rectángulo_404251" data-name="Rectángulo 404251" width="96.924" height="92.358" transform="matrix(0.977, -0.212, 0.212, 0.977, -15.881, 3.448)" fill="url(#linear-gradient-14)"/>
          </g>
        </g>
        <g id="Grupo_1103008" data-name="Grupo 1103008" transform="translate(124.394 143.07)">
          <g id="Grupo_1103007" data-name="Grupo 1103007" clip-path="url(#clip-path-28)">
            <path id="Trazado_904267" data-name="Trazado 904267" d="M346.587,567.868,320.516,506.8a5.368,5.368,0,0,1,3.67-7.324l47.755-11.6a5.369,5.369,0,0,1,6.237,3.187l23.979,58.7a5.368,5.368,0,0,1-3.4,7.164L353.1,570.894a5.369,5.369,0,0,1-6.508-3.026" transform="translate(-300.236 -411.008)" fill="#4c3bb3"/>
          </g>
        </g>
        <g id="Grupo_1103010" data-name="Grupo 1103010" transform="translate(147.168 222.132)">
          <g id="Grupo_1103009" data-name="Grupo 1103009" clip-path="url(#clip-path-29)">
            <rect id="Rectángulo_404252" data-name="Rectángulo 404252" width="103.904" height="103.981" transform="translate(-30.329 65.041) rotate(-65.59)" fill="url(#linear-gradient-15)"/>
          </g>
        </g>
        <g id="Grupo_1103017" data-name="Grupo 1103017" transform="translate(124.394 143.07)">
          <g id="Grupo_1103016" data-name="Grupo 1103016" clip-path="url(#clip-path-28)">
            <g id="Grupo_1103015" data-name="Grupo 1103015" transform="translate(22.774 83.118)" opacity="0.4" style="mix-blend-mode: screen;isolation: isolate">
              <g id="Grupo_1103014" data-name="Grupo 1103014">
                <g id="Grupo_1103013" data-name="Grupo 1103013" clip-path="url(#clip-path-31)">
                  <g id="Grupo_1103012" data-name="Grupo 1103012" transform="translate(0)">
                    <g id="Grupo_1103011" data-name="Grupo 1103011" clip-path="url(#clip-path-32)">
                      <rect id="Rectángulo_404253" data-name="Rectángulo 404253" width="89.959" height="79.967" transform="translate(-26.11 64.451) rotate(-68.569)" fill="url(#linear-gradient-16)"/>
                    </g>
                  </g>
                </g>
              </g>
            </g>
          </g>
        </g>
        <g id="Grupo_1103019" data-name="Grupo 1103019" transform="translate(151.103 253.786)">
          <g id="Grupo_1103018" data-name="Grupo 1103018" clip-path="url(#clip-path-33)">
            <rect id="Rectángulo_404255" data-name="Rectángulo 404255" width="28.135" height="16.202" transform="translate(-5.526 25.227) rotate(-77.645)" fill="url(#linear-gradient-17)"/>
          </g>
        </g>
        <g id="Grupo_1103021" data-name="Grupo 1103021" transform="translate(194.827 200.51)">
          <g id="Grupo_1103020" data-name="Grupo 1103020" clip-path="url(#clip-path-34)">
            <rect id="Rectángulo_404256" data-name="Rectángulo 404256" width="194.633" height="200.842" transform="translate(-54.293 16.343) rotate(-18.575)" fill="url(#linear-gradient-18)"/>
          </g>
        </g>
        <g id="Grupo_1103023" data-name="Grupo 1103023" transform="translate(238.256 172.588)">
          <g id="Grupo_1103022" data-name="Grupo 1103022" clip-path="url(#clip-path-35)">
            <rect id="Rectángulo_404257" data-name="Rectángulo 404257" width="58.793" height="57.034" transform="translate(-16.663 6.753) rotate(-23.552)" fill="url(#linear-gradient-19)"/>
          </g>
        </g>
        <g id="Grupo_1103025" data-name="Grupo 1103025" transform="translate(251.807 155.782)">
          <g id="Grupo_1103024" data-name="Grupo 1103024" clip-path="url(#clip-path-36)">
            <rect id="Rectángulo_404258" data-name="Rectángulo 404258" width="41.41" height="49.024" transform="translate(-16.716 8.217) rotate(-26.209)" fill="url(#linear-gradient-20)"/>
          </g>
        </g>
        <g id="Grupo_1103027" data-name="Grupo 1103027" transform="translate(253.867 185.049)">
          <g id="Grupo_1103026" data-name="Grupo 1103026" clip-path="url(#clip-path-37)">
            <rect id="Rectángulo_404259" data-name="Rectángulo 404259" width="6.623" height="7.031" transform="translate(-2.779 0.891) rotate(-23.552)" fill="url(#linear-gradient-21)"/>
          </g>
        </g>
        <g id="Grupo_1103029" data-name="Grupo 1103029" transform="translate(246.507 182.78)">
          <g id="Grupo_1103028" data-name="Grupo 1103028" clip-path="url(#clip-path-38)">
            <rect id="Rectángulo_404260" data-name="Rectángulo 404260" width="15.046" height="16.783" transform="translate(-5.89 2.69) rotate(-26.209)" fill="url(#linear-gradient-22)"/>
          </g>
        </g>
        <g id="Grupo_1103036" data-name="Grupo 1103036" transform="translate(124.394 143.07)">
          <g id="Grupo_1103035" data-name="Grupo 1103035" clip-path="url(#clip-path-28)">
            <g id="Grupo_1103034" data-name="Grupo 1103034" transform="translate(81.177 107.159)" opacity="0.3" style="mix-blend-mode: multiply;isolation: isolate">
              <g id="Grupo_1103033" data-name="Grupo 1103033">
                <g id="Grupo_1103032" data-name="Grupo 1103032" clip-path="url(#clip-path-40)">
                  <g id="Grupo_1103031" data-name="Grupo 1103031" transform="translate(0 0)">
                    <g id="Grupo_1103030" data-name="Grupo 1103030" clip-path="url(#clip-path-41)">
                      <rect id="Rectángulo_404261" data-name="Rectángulo 404261" width="185.996" height="184.648" transform="matrix(0.691, -0.723, 0.723, 0.691, -75.787, 77.589)" fill="url(#linear-gradient-23)"/>
                    </g>
                  </g>
                </g>
              </g>
            </g>
          </g>
        </g>
        <g id="Grupo_1103038" data-name="Grupo 1103038" transform="translate(155.348 216.841)">
          <g id="Grupo_1103037" data-name="Grupo 1103037" clip-path="url(#clip-path-42)">
            <rect id="Rectángulo_404263" data-name="Rectángulo 404263" width="106.555" height="123.829" transform="translate(-32.723 10.622) rotate(-18.575)" fill="url(#linear-gradient-24)"/>
          </g>
        </g>
        <g id="Grupo_1103040" data-name="Grupo 1103040" transform="translate(63.281 235.329)">
          <g id="Grupo_1103039" data-name="Grupo 1103039" clip-path="url(#clip-path-43)">
            <rect id="Rectángulo_404264" data-name="Rectángulo 404264" width="55.214" height="55.952" transform="translate(-13.024 4.18) rotate(-17.793)" fill="url(#linear-gradient-25)"/>
          </g>
        </g>
        <g id="Grupo_1103042" data-name="Grupo 1103042" transform="translate(66.469 234.311)">
          <g id="Grupo_1103041" data-name="Grupo 1103041" clip-path="url(#clip-path-44)">
            <rect id="Rectángulo_404265" data-name="Rectángulo 404265" width="58.779" height="58.211" transform="translate(-16.832 37.134) rotate(-65.617)" fill="url(#linear-gradient-26)"/>
          </g>
        </g>
        <g id="Grupo_1103044" data-name="Grupo 1103044" transform="translate(67.535 235.329)">
          <g id="Grupo_1103043" data-name="Grupo 1103043" clip-path="url(#clip-path-45)">
            <rect id="Rectángulo_404266" data-name="Rectángulo 404266" width="48.645" height="49.537" transform="translate(-7.57 1.386) rotate(-10.373)" fill="url(#linear-gradient-27)"/>
          </g>
        </g>
        <g id="Grupo_1103046" data-name="Grupo 1103046" transform="translate(68.294 236.056)">
          <g id="Grupo_1103045" data-name="Grupo 1103045" clip-path="url(#clip-path-46)">
            <rect id="Rectángulo_404267" data-name="Rectángulo 404267" width="53.971" height="54.491" transform="matrix(0.905, -0.426, 0.426, 0.905, -15.919, 7.499)" fill="url(#linear-gradient-28)"/>
          </g>
        </g>
        <g id="Grupo_1103048" data-name="Grupo 1103048" transform="translate(78.987 239.865)">
          <g id="Grupo_1103047" data-name="Grupo 1103047" clip-path="url(#clip-path-47)">
            <rect id="Rectángulo_404268" data-name="Rectángulo 404268" width="27.777" height="37.389" transform="matrix(0.966, -0.258, 0.258, 0.966, -8.321, 2.22)" fill="url(#linear-gradient-29)"/>
          </g>
        </g>
        <g id="Grupo_1103055" data-name="Grupo 1103055">
          <g id="Grupo_1103054" data-name="Grupo 1103054" clip-path="url(#clip-path)">
            <g id="Grupo_1103053" data-name="Grupo 1103053" transform="translate(68.294 236.162)" opacity="0.3" style="mix-blend-mode: multiply;isolation: isolate">
              <g id="Grupo_1103052" data-name="Grupo 1103052">
                <g id="Grupo_1103051" data-name="Grupo 1103051" clip-path="url(#clip-path-49)">
                  <g id="Grupo_1103050" data-name="Grupo 1103050" transform="translate(0 0)">
                    <g id="Grupo_1103049" data-name="Grupo 1103049" clip-path="url(#clip-path-50)">
                      <rect id="Rectángulo_404269" data-name="Rectángulo 404269" width="39.108" height="47.183" transform="matrix(0.905, -0.426, 0.426, 0.905, -15.752, 7.42)" fill="url(#linear-gradient-30)"/>
                    </g>
                  </g>
                </g>
              </g>
            </g>
          </g>
        </g>
        <g id="Grupo_1103057" data-name="Grupo 1103057" transform="translate(6.266 161.399)">
          <g id="Grupo_1103056" data-name="Grupo 1103056" clip-path="url(#clip-path-51)">
            <rect id="Rectángulo_404272" data-name="Rectángulo 404272" width="88.805" height="89.992" transform="translate(-20.948 6.723) rotate(-17.793)" fill="url(#linear-gradient-31)"/>
          </g>
        </g>
        <g id="Grupo_1103059" data-name="Grupo 1103059" transform="translate(11.392 159.763)">
          <g id="Grupo_1103058" data-name="Grupo 1103058" clip-path="url(#clip-path-52)">
            <rect id="Rectángulo_404273" data-name="Rectángulo 404273" width="94.538" height="93.625" transform="translate(-27.071 59.724) rotate(-65.617)" fill="url(#linear-gradient-32)"/>
          </g>
        </g>
        <g id="Grupo_1103061" data-name="Grupo 1103061" transform="translate(13.106 161.4)">
          <g id="Grupo_1103060" data-name="Grupo 1103060" clip-path="url(#clip-path-53)">
            <rect id="Rectángulo_404274" data-name="Rectángulo 404274" width="78.24" height="79.673" transform="translate(-12.175 2.229) rotate(-10.373)" fill="url(#linear-gradient-33)"/>
          </g>
        </g>
        <g id="Grupo_1103063" data-name="Grupo 1103063" transform="translate(14.328 162.568)">
          <g id="Grupo_1103062" data-name="Grupo 1103062" clip-path="url(#clip-path-54)">
            <rect id="Rectángulo_404275" data-name="Rectángulo 404275" width="86.806" height="87.641" transform="translate(-25.604 12.061) rotate(-25.224)" fill="url(#linear-gradient-34)"/>
          </g>
        </g>
        <g id="Grupo_1103065" data-name="Grupo 1103065" transform="translate(31.526 168.696)">
          <g id="Grupo_1103064" data-name="Grupo 1103064" clip-path="url(#clip-path-55)">
            <rect id="Rectángulo_404276" data-name="Rectángulo 404276" width="44.675" height="60.135" transform="matrix(0.966, -0.258, 0.258, 0.966, -13.383, 3.571)" fill="url(#linear-gradient-35)"/>
          </g>
        </g>
        <g id="Grupo_1103072" data-name="Grupo 1103072">
          <g id="Grupo_1103071" data-name="Grupo 1103071" clip-path="url(#clip-path)">
            <g id="Grupo_1103070" data-name="Grupo 1103070" transform="translate(14.328 162.739)" opacity="0.3" style="mix-blend-mode: multiply;isolation: isolate">
              <g id="Grupo_1103069" data-name="Grupo 1103069">
                <g id="Grupo_1103068" data-name="Grupo 1103068" clip-path="url(#clip-path-57)">
                  <g id="Grupo_1103067" data-name="Grupo 1103067" transform="translate(0)">
                    <g id="Grupo_1103066" data-name="Grupo 1103066" clip-path="url(#clip-path-58)">
                      <rect id="Rectángulo_404277" data-name="Rectángulo 404277" width="62.901" height="75.887" transform="matrix(0.905, -0.426, 0.426, 0.905, -25.334, 11.934)" fill="url(#linear-gradient-36)"/>
                    </g>
                  </g>
                </g>
              </g>
            </g>
          </g>
        </g>
        <g id="Grupo_1103074" data-name="Grupo 1103074" transform="translate(6.658 64.31)">
          <g id="Grupo_1103073" data-name="Grupo 1103073" clip-path="url(#clip-path-59)">
            <rect id="Rectángulo_404280" data-name="Rectángulo 404280" width="99.603" height="112.849" transform="matrix(0.583, -0.813, 0.813, 0.583, -22.408, 31.249)" fill="url(#linear-gradient-37)"/>
          </g>
        </g>
        <g id="Grupo_1103085" data-name="Grupo 1103085">
          <g id="Grupo_1103084" data-name="Grupo 1103084" clip-path="url(#clip-path)">
            <g id="Grupo_1103077" data-name="Grupo 1103077" transform="translate(21.533 74.36)" opacity="0.67">
              <g id="Grupo_1103076" data-name="Grupo 1103076">
                <g id="Grupo_1103075" data-name="Grupo 1103075" clip-path="url(#clip-path-61)">
                  <path id="Trazado_904294" data-name="Trazado 904294" d="M114.541,170.909l-66.756-1.3v-4.6l66.756,1.394Z" transform="translate(-47.784 -165.011)" fill="#fff"/>
                </g>
              </g>
            </g>
            <g id="Grupo_1103080" data-name="Grupo 1103080" transform="translate(21.533 83.553)" opacity="0.67">
              <g id="Grupo_1103079" data-name="Grupo 1103079">
                <g id="Grupo_1103078" data-name="Grupo 1103078" clip-path="url(#clip-path-62)">
                  <path id="Trazado_904295" data-name="Trazado 904295" d="M114.541,191.125l-66.756-1.117v-4.6l66.756,1.209Z" transform="translate(-47.784 -185.411)" fill="#fff"/>
                </g>
              </g>
            </g>
            <g id="Grupo_1103083" data-name="Grupo 1103083" transform="translate(21.533 92.746)" opacity="0.67">
              <g id="Grupo_1103082" data-name="Grupo 1103082">
                <g id="Grupo_1103081" data-name="Grupo 1103081" clip-path="url(#clip-path-63)">
                  <path id="Trazado_904296" data-name="Trazado 904296" d="M114.541,211.34l-66.756-.933v-4.6l66.756,1.025Z" transform="translate(-47.784 -205.811)" fill="#fff"/>
                </g>
              </g>
            </g>
          </g>
        </g>
        <g id="Grupo_1103087" data-name="Grupo 1103087" transform="translate(26.408 298.477)">
          <g id="Grupo_1103086" data-name="Grupo 1103086" clip-path="url(#clip-path-64)">
            <rect id="Rectángulo_404285" data-name="Rectángulo 404285" width="90.859" height="80.208" transform="matrix(0.813, -0.583, 0.583, 0.813, -18.057, 12.949)" fill="url(#linear-gradient-38)"/>
          </g>
        </g>
        <g id="Grupo_1103098" data-name="Grupo 1103098">
          <g id="Grupo_1103097" data-name="Grupo 1103097" clip-path="url(#clip-path)">
            <g id="Grupo_1103090" data-name="Grupo 1103090" transform="translate(38.381 323.728)" opacity="0.67">
              <g id="Grupo_1103089" data-name="Grupo 1103089">
                <g id="Grupo_1103088" data-name="Grupo 1103088" clip-path="url(#clip-path-66)">
                  <path id="Trazado_904298" data-name="Trazado 904298" d="M138.9,718.38l-53.734,1.048v3.7l53.734-1.122Z" transform="translate(-85.171 -718.38)" fill="#fff"/>
                </g>
              </g>
            </g>
            <g id="Grupo_1103093" data-name="Grupo 1103093" transform="translate(38.381 316.477)" opacity="0.67">
              <g id="Grupo_1103092" data-name="Grupo 1103092">
                <g id="Grupo_1103091" data-name="Grupo 1103091" clip-path="url(#clip-path-67)">
                  <path id="Trazado_904299" data-name="Trazado 904299" d="M138.9,702.289l-53.734.9v3.7l53.734-.973Z" transform="translate(-85.171 -702.289)" fill="#fff"/>
                </g>
              </g>
            </g>
            <g id="Grupo_1103096" data-name="Grupo 1103096" transform="translate(38.381 309.225)" opacity="0.67">
              <g id="Grupo_1103095" data-name="Grupo 1103095">
                <g id="Grupo_1103094" data-name="Grupo 1103094" clip-path="url(#clip-path-68)">
                  <path id="Trazado_904300" data-name="Trazado 904300" d="M138.9,686.2l-53.734.751v3.7l53.734-.825Z" transform="translate(-85.171 -686.198)" fill="#fff"/>
                </g>
              </g>
            </g>
          </g>
        </g>
        <g id="Grupo_1103100" data-name="Grupo 1103100" transform="translate(253.768 80.574)">
          <g id="Grupo_1103099" data-name="Grupo 1103099" clip-path="url(#clip-path-69)">
            <rect id="Rectángulo_404290" data-name="Rectángulo 404290" width="101.449" height="99.315" transform="translate(-31.431 25.329) rotate(-38.864)" fill="url(#linear-gradient-39)"/>
          </g>
        </g>
        <g id="Grupo_1103102" data-name="Grupo 1103102" transform="translate(255.552 80.646)">
          <g id="Grupo_1103101" data-name="Grupo 1103101" clip-path="url(#clip-path-70)">
            <rect id="Rectángulo_404291" data-name="Rectángulo 404291" width="78.092" height="17.295" transform="translate(0 0)" fill="url(#linear-gradient-40)"/>
          </g>
        </g>
        <g id="Grupo_1103104" data-name="Grupo 1103104">
          <g id="Grupo_1103103" data-name="Grupo 1103103" clip-path="url(#clip-path)">
            <path id="Trazado_904303" data-name="Trazado 904303" d="M567.091,211.02v44.769a5.084,5.084,0,0,0,5.266,5l68.091-.552a4.769,4.769,0,0,0,4.735-4.761V213.495Z" transform="translate(-311.539 -115.927)" fill="#fff"/>
            <path id="Trazado_904304" data-name="Trazado 904304" d="M668.151,229.261a1.12,1.12,0,0,0-1.09-1.151l-6.737-.175c-.644-.017-1.445.472-1.445,1.1v6.31c0,.625.833,1.147,1.476,1.159l6.55.126a1.2,1.2,0,0,0,1.245-1.1Z" transform="translate(-361.965 -125.219)" fill="#cfcaeb"/>
            <path id="Trazado_904305" data-name="Trazado 904305" d="M695.134,229.953a1.172,1.172,0,0,0-1.146-1.141l-6.3-.164a1.073,1.073,0,0,0-1.111,1.094v6.248a1.123,1.123,0,0,0,1.1,1.14l6.329.121a1.1,1.1,0,0,0,1.127-1.093Z" transform="translate(-377.18 -125.611)" fill="#cfcaeb"/>
            <path id="Trazado_904306" data-name="Trazado 904306" d="M721.247,230.633a1.182,1.182,0,0,0-1.154-1.131l-6.245-.169a1.111,1.111,0,0,0-1.159,1.077V236.6a1.158,1.158,0,0,0,1.136,1.135l6.261.123a1.125,1.125,0,0,0,1.162-1.078Z" transform="translate(-391.526 -125.987)" fill="#cfcaeb"/>
            <path id="Trazado_904307" data-name="Trazado 904307" d="M668.151,254.775a1.107,1.107,0,0,0-1.09-1.141l-6.737-.114c-.644-.011-1.445.484-1.445,1.109v6.31c0,.625.833,1.141,1.476,1.148l6.55.064a1.209,1.209,0,0,0,1.245-1.112Z" transform="translate(-361.965 -139.275)" fill="#cfcaeb"/>
          </g>
        </g>
        <g id="Grupo_1103106" data-name="Grupo 1103106" transform="translate(309.396 114.454)">
          <g id="Grupo_1103105" data-name="Grupo 1103105" clip-path="url(#clip-path-72)">
            <rect id="Rectángulo_404293" data-name="Rectángulo 404293" width="8.558" height="8.549" transform="translate(0 0)" fill="url(#linear-gradient-41)"/>
          </g>
        </g>
        <g id="Grupo_1103111" data-name="Grupo 1103111">
          <g id="Grupo_1103110" data-name="Grupo 1103110" clip-path="url(#clip-path)">
            <path id="Trazado_904309" data-name="Trazado 904309" d="M721.247,255.649a1.169,1.169,0,0,0-1.154-1.121l-6.245-.109a1.123,1.123,0,0,0-1.159,1.087v6.185a1.145,1.145,0,0,0,1.136,1.124l6.261.064a1.137,1.137,0,0,0,1.162-1.088Z" transform="translate(-391.526 -139.768)" fill="#cfcaeb"/>
            <path id="Trazado_904310" data-name="Trazado 904310" d="M586.648,253.425a1.264,1.264,0,0,0-1.27-1.183l-6.812-.121a1.134,1.134,0,0,0-1.189,1.142v6.506a1.157,1.157,0,0,0,1.165,1.182l6.873.072a1.183,1.183,0,0,0,1.233-1.141Z" transform="translate(-317.19 -138.507)" fill="#cfcaeb"/>
            <path id="Trazado_904311" data-name="Trazado 904311" d="M614.344,253.878a1.149,1.149,0,0,0-1.145-1.164l-6.818-.116a1.248,1.248,0,0,0-1.309,1.132v6.439a1.318,1.318,0,0,0,1.336,1.17l6.729.066a1.166,1.166,0,0,0,1.206-1.135Z" transform="translate(-332.405 -138.768)" fill="#cfcaeb"/>
            <path id="Trazado_904312" data-name="Trazado 904312" d="M641.247,254.343a1.154,1.154,0,0,0-1.141-1.159l-6.765-.118a1.305,1.305,0,0,0-1.365,1.118v6.374a1.37,1.37,0,0,0,1.382,1.159l6.652.072a1.192,1.192,0,0,0,1.237-1.117Z" transform="translate(-347.185 -139.025)" fill="#cfcaeb"/>
            <path id="Trazado_904313" data-name="Trazado 904313" d="M668.151,280.289a1.094,1.094,0,0,0-1.09-1.13l-6.737-.052c-.644,0-1.445.494-1.445,1.119v6.309c0,.625.833,1.137,1.476,1.137l6.55,0a1.222,1.222,0,0,0,1.245-1.123Z" transform="translate(-361.965 -153.331)" fill="#cfcaeb"/>
            <path id="Trazado_904314" data-name="Trazado 904314" d="M695.134,280.485a1.146,1.146,0,0,0-1.146-1.121l-6.3-.045a1.1,1.1,0,0,0-1.111,1.114v6.248a1.1,1.1,0,0,0,1.1,1.119l6.329,0a1.119,1.119,0,0,0,1.127-1.113Z" transform="translate(-377.18 -153.448)" fill="#cfcaeb"/>
            <path id="Trazado_904315" data-name="Trazado 904315" d="M586.648,279.727a1.248,1.248,0,0,0-1.27-1.17l-6.812-.055a1.147,1.147,0,0,0-1.189,1.154v6.506a1.144,1.144,0,0,0,1.165,1.17l6.873.006a1.2,1.2,0,0,0,1.233-1.154Z" transform="translate(-317.19 -152.999)" fill="#cfcaeb"/>
            <path id="Trazado_904316" data-name="Trazado 904316" d="M614.344,279.911a1.136,1.136,0,0,0-1.145-1.154l-6.818-.052a1.262,1.262,0,0,0-1.309,1.144v6.439a1.3,1.3,0,0,0,1.336,1.158l6.729,0a1.18,1.18,0,0,0,1.206-1.146Z" transform="translate(-332.405 -153.111)" fill="#cfcaeb"/>
            <path id="Trazado_904317" data-name="Trazado 904317" d="M641.247,280.118a1.141,1.141,0,0,0-1.141-1.149l-6.765-.055a1.32,1.32,0,0,0-1.365,1.129v6.375a1.356,1.356,0,0,0,1.382,1.147l6.652.009a1.206,1.206,0,0,0,1.237-1.128Z" transform="translate(-347.185 -153.226)" fill="#cfcaeb"/>
            <path id="Trazado_904318" data-name="Trazado 904318" d="M597.455,160.957c-4.264-.216-7.793,3.256-8.134,8.317l3.6.157c.294-3.024,2.253-5.262,4.532-5.153,2.464.118,4.538,2.981,4.538,6.269s-2.074,5.98-4.538,5.886a4.352,4.352,0,0,1-3.305-2.071,4.18,4.18,0,0,0-.532,4.133,7.439,7.439,0,0,0,3.838,1.253c4.456.157,8.057-3.9,8.057-9.05s-3.6-9.516-8.057-9.741" transform="translate(-323.752 -88.419)" fill="#6d5fc1"/>
            <path id="Trazado_904319" data-name="Trazado 904319" d="M645.905,163.367c-4.117-.208-7.522,3.205-7.852,8.178l3.477.151c.284-2.971,2.175-5.171,4.376-5.066,2.379.114,4.381,2.926,4.381,6.157s-2,5.878-4.381,5.787a4.191,4.191,0,0,1-3.191-2.033,4.167,4.167,0,0,0-.514,4.061,7.093,7.093,0,0,0,3.7,1.229c4.3.152,7.779-3.833,7.779-8.9s-3.477-9.348-7.779-9.566" transform="translate(-350.523 -89.743)" fill="#6d5fc1"/>
            <path id="Trazado_904320" data-name="Trazado 904320" d="M692.839,165.75c-3.973-.2-7.26,3.155-7.578,8.04l3.355.146c.273-2.919,2.1-5.083,4.223-4.981,2.3.11,4.229,2.871,4.229,6.045s-1.933,5.776-4.229,5.688a4.036,4.036,0,0,1-3.08-1.995,4.153,4.153,0,0,0-.5,3.989,6.764,6.764,0,0,0,3.576,1.205c4.152.146,7.509-3.771,7.509-8.747s-3.357-9.182-7.509-9.392" transform="translate(-376.458 -91.052)" fill="#6d5fc1"/>
            <g id="Grupo_1103109" data-name="Grupo 1103109" transform="translate(255.552 81.533)" opacity="0.3" style="mix-blend-mode: multiply;isolation: isolate">
              <g id="Grupo_1103108" data-name="Grupo 1103108">
                <g id="Grupo_1103107" data-name="Grupo 1103107" clip-path="url(#clip-path-74)">
                  <path id="Trazado_904321" data-name="Trazado 904321" d="M645.183,237.23v1.718a4.738,4.738,0,0,1-4.7,4.762l-68.089.55a5.12,5.12,0,0,1-5.306-5V184.8a4.684,4.684,0,0,1,2.039-3.873c2.708.974,6.2,3.692,7.981,11.059,3.149,12.983,5.86,18.527,18,18.252,7.762-.177,13.715.181,17.424,3.6,1.992,1.834,3.347,4.558,3.99,8.566.376,2.345,2.06,3.84,4.464,4.937a48.619,48.619,0,0,0,8.6,2.519c5.843,1.37,12.385,2.923,15.594,7.367" transform="translate(-567.091 -180.93)" fill="#cfcaeb"/>
                </g>
              </g>
            </g>
            <path id="Trazado_904322" data-name="Trazado 904322" d="M691.037,262.891a.291.291,0,0,1-.184-.046l-1.518-1a.311.311,0,0,1-.07-.439.324.324,0,0,1,.44-.1l1.29.849,3.677-4.35a.309.309,0,0,1,.438-.05.317.317,0,0,1,.02.444l-3.861,4.572a.34.34,0,0,1-.231.121" transform="translate(-378.625 -141.563)" fill="#fff"/>
          </g>
        </g>
      </g>
    </g>
  </g>
</svg>
