<svg xmlns="http://www.w3.org/2000/svg" xmlns:xlink="http://www.w3.org/1999/xlink" width="90" height="90" viewBox="0 0 90 90">
  <defs>
    <clipPath id="clip-path">
      <rect id="Rectángulo_402430" data-name="Rectángulo 402430" width="54.551" height="60.653" fill="#fff"/>
    </clipPath>
  </defs>
  <g id="Grupo_1102765" data-name="Grupo 1102765" transform="translate(-770.9 -1050)">
    <circle id="Elipse_11495" data-name="Elipse 11495" cx="45" cy="45" r="45" transform="translate(770.9 1050)" fill="#382a8e"/>
    <g id="Grupo_1102150" data-name="Grupo 1102150" transform="translate(785.5 1064.673)">
      <g id="Grupo_1102149" data-name="Grupo 1102149" clip-path="url(#clip-path)">
        <path id="Trazado_901650" data-name="Trazado 901650" d="M14.241,137.178a8.488,8.488,0,0,1,6.008,8.3l2.922-1.443a6.137,6.137,0,0,1-1.757-5.355,5.761,5.761,0,0,1,2.1-3.6,5.911,5.911,0,0,1,7.885.327c2.392,2.32,2.392,5.526,0,8.624l2.879,1.451a8.535,8.535,0,0,1,6.08-8.312c-1.5-1.7-2.364-3.671-1.624-5.832A7.9,7.9,0,0,1,40.995,128a5.685,5.685,0,0,1,7.56.485c2.352,2.279,2.37,5.293.042,8.646a22.022,22.022,0,0,1,2.071,1.063,8,8,0,0,1,3.86,6.8c.028.907.032,1.817,0,2.724a2.714,2.714,0,0,1-2.68,2.758c-1.695.069-3.4.076-5.089-.024-.383-.022-.733-.6-1.1-.917.362-.286.71-.795,1.088-.819,1.534-.1,3.078-.073,4.616-.034,1.022.026,1.446-.439,1.424-1.42-.017-.75.026-1.5-.022-2.249a6.5,6.5,0,0,0-6.65-6.323c-1.145-.014-2.29-.017-3.434,0a6.424,6.424,0,0,0-6.56,6.277c-.171,4.367-.032,3.7,3.4,3.705a15.577,15.577,0,0,1,2.6.048c.407.071.733.6,1.1.929-.364.282-.714.784-1.093.807-1.569.092-3.146.039-4.714.039,0,1.333.021,2.576,0,3.818a2.835,2.835,0,0,1-3.111,3.078q-7.046.018-14.093,0a2.814,2.814,0,0,1-3.057-3.012c-.032-1.252-.006-2.5-.006-3.881H15.918q-6.218,0-12.435,0c-2.52,0-3.489-.974-3.476-3.526a18.091,18.091,0,0,1,.143-3.3,8.307,8.307,0,0,1,5.891-6.5A6.2,6.2,0,0,1,4.3,131.513a5.763,5.763,0,0,1,2.156-3.435,5.913,5.913,0,0,1,7.615.269c2.478,2.242,2.543,5.262.169,8.831m-4.14,11.5h4.726c3.758,0,4.087-.389,3.556-4.2-.011-.078-.03-.155-.042-.232a6.443,6.443,0,0,0-6.369-5.545c-1.181-.025-2.363-.017-3.544,0A6.5,6.5,0,0,0,1.766,145.1c-.036.707.007,1.418-.017,2.126-.035,1.05.439,1.48,1.5,1.46,2.283-.043,4.568-.013,6.852-.013m17.175,6.933h6.736c.039,0,.079,0,.118,0,1.047.058,1.529-.413,1.463-1.482-.046-.746,0-1.5-.02-2.245A6.2,6.2,0,0,0,30.32,145.8a25.357,25.357,0,0,0-6.109,0,6.142,6.142,0,0,0-5.175,5.273,21.733,21.733,0,0,0-.074,2.95c0,1.356.216,1.578,1.578,1.587,2.245.014,4.491,0,6.736,0M14.244,132.766a4.145,4.145,0,1,0-4.127,4.134,4.153,4.153,0,0,0,4.127-4.134m26.052-.024a4.145,4.145,0,1,0,4.125-4.145,4.133,4.133,0,0,0-4.125,4.145m-13.063,2.8a4.117,4.117,0,0,0-4.112,4.137,4.15,4.15,0,1,0,8.3-.075,4.121,4.121,0,0,0-4.187-4.062" transform="translate(0 -96.752)" fill="#fff"/>
        <path id="Trazado_901651" data-name="Trazado 901651" d="M54.8,0q6.808,0,13.617,0c3.17.005,5.1,1.924,5.116,5.066.008,1.973,0,3.947,0,5.92,0,.678-.057,1.349-.939,1.324-.818-.023-.84-.693-.842-1.3-.006-1.973.016-3.947-.011-5.92C71.72,2.881,70.664,1.8,68.464,1.8q-13.617-.023-27.233,0c-2.265,0-3.33,1.078-3.337,3.358q-.025,8.288,0,16.577c.006,2.338,1.081,3.389,3.411,3.4,2.21.008,4.421.029,6.631-.007a3.956,3.956,0,0,1,3.791,2.147c.484.858,1.01,1.693,1.526,2.533,1.005,1.636,2.121,1.651,3.113.042q.838-1.36,1.653-2.733a3.8,3.8,0,0,1,3.522-1.982q3.434.017,6.868,0c2.245-.01,3.317-1.078,3.342-3.349.022-1.894.007-3.789.006-5.684,0-.676.085-1.374.942-1.34.755.03.85.667.845,1.315-.016,1.934,0,3.868-.007,5.8a4.735,4.735,0,0,1-5.013,5.074q-3.433.053-6.867,0a2.232,2.232,0,0,0-2.214,1.249c-.549,1-1.151,1.977-1.774,2.936A3.244,3.244,0,0,1,52,31.166c-.649-.988-1.261-2-1.838-3.035a2.167,2.167,0,0,0-2.13-1.185c-2.21.034-4.42.02-6.631.008-3.4-.019-5.293-1.9-5.295-5.271q0-8.229,0-16.458C36.109,1.906,38,.008,41.306,0Q48.055,0,54.8,0" transform="translate(-27.552 0)" fill="#fff"/>
        <path id="Trazado_901652" data-name="Trazado 901652" d="M83.176,27.565a5.809,5.809,0,0,1,5.432-1.623,5.632,5.632,0,0,1,3.121,9.13c-2.131,2.476-4.471,4.776-6.769,7.1a2.429,2.429,0,0,1-3.6.008c-2.3-2.328-4.6-4.657-6.776-7.1a5.524,5.524,0,0,1,.188-7.445,5.639,5.639,0,0,1,7.418-.816c.32.22.622.465.988.74m-8.13,4.388a5.943,5.943,0,0,0,.874,1.921c2.106,2.351,4.326,4.6,6.507,6.882a.884.884,0,0,0,1.436.019c2.207-2.312,4.471-4.575,6.586-6.969a3.771,3.771,0,0,0-.408-5.153,3.892,3.892,0,0,0-5.186-.158c-1.619,1.33-1.786,1.319-3.385.02a3.7,3.7,0,0,0-4.2-.533c-1.443.7-2.164,1.9-2.221,3.971" transform="translate(-55.883 -19.683)" fill="#fff"/>
        <path id="Trazado_901653" data-name="Trazado 901653" d="M106.68,52.971c-.218.8.241,2.04-1.019,1.932-.457-.039-.824-1.121-1.111-1.817-.551-.42-1.9.2-1.785-1.154.038-.433,1.095-.776,1.772-1.039.482-.525-.164-1.932,1.174-1.791.469.05.831,1.12,1.132,1.8.548.4,1.816-.162,1.817,1.086s-1.236.72-1.981.978" transform="translate(-78.418 -37.464)" fill="#fff"/>
      </g>
    </g>
  </g>
</svg>
