<svg xmlns="http://www.w3.org/2000/svg" xmlns:xlink="http://www.w3.org/1999/xlink" width="90" height="90" viewBox="0 0 90 90">
  <defs>
    <clipPath id="clip-path">
      <rect id="Rectángulo_402432" data-name="Rectángulo 402432" width="56.665" height="58.434" fill="#fff"/>
    </clipPath>
  </defs>
  <g id="Grupo_1102763" data-name="Grupo 1102763" transform="translate(-1182.184 -1050)">
    <circle id="Elipse_11496" data-name="Elipse 11496" cx="45" cy="45" r="45" transform="translate(1182.184 1050)" fill="#382a8e"/>
    <g id="Grupo_1102154" data-name="Grupo 1102154" transform="translate(1198.782 1063)">
      <g id="Grupo_1102153" data-name="Grupo 1102153" clip-path="url(#clip-path)">
        <path id="Trazado_901660" data-name="Trazado 901660" d="M58.271,123.2a15.073,15.073,0,0,0,2.789.1c1.481-.224,2.924-.526,4.372.13a.855.855,0,0,0,.664-.014c1.923-1.035,3.784-.62,5.633.2.79.35,1.558.559,2.259-.175a3.478,3.478,0,0,1,3.882-3.8,2.579,2.579,0,0,1,1.7,1.34c1.393,3.308,2.656,6.673,3.923,10.033a1.88,1.88,0,0,1-1.2,2.638c-.5.219-1.017.4-1.521.613a1.961,1.961,0,0,1-2.525-.552c-.6-.747-.927-.344-1.278.248-.385.649-.826,1.265-1.235,1.9a1.131,1.131,0,0,0-.235.494,2.438,2.438,0,0,1-1.967,2.445.8.8,0,0,0-.449.446,2.7,2.7,0,0,1-2.017,1.776c-.24.061-.427.375-.611.595-.249.3-.453.631-.709.921-1.02,1.157-2.4-.016-3.474.5a2.7,2.7,0,0,1-3.324-.452c-.294-.264-.871-.183-1.268-.367-1.169-.542-2.607-.669-3.575-1.286a14,14,0,0,1-3.481-3.893c-.3-.42.093-1.325.17-2.008a6.349,6.349,0,0,0,.164-1.655c-.147-.9-.672-1.017-1.31-.347-1.181,1.24-2.393.562-4.469-.541-.918-.487-1.048-1.491-.517-2.7q2.07-4.72,4.17-9.425a1.96,1.96,0,0,1,2.933-1.163c.361.148.714.316,1.07.476,1.682.757,1.949,1.3,1.433,3.527m19.721-.909c-.453-.059-.981-.281-1.331-.12-.238.11-.229.758-.33,1.166l3.367,9.27,2.14-.818-3.846-9.5m-21.775.19-.379-.916-1.113-.807-4.5,10.175,2.04.892,3.953-9.344m.7,9.7a2.746,2.746,0,0,1,3.078.834,13.465,13.465,0,0,0,2.961,2.187c1.343.737,2.8,1.261,4.208,1.885a3.947,3.947,0,0,1,.377.276c.868.523,1.719,1.081,2.623,1.536.258.13.67-.046,1.012-.082-.161-.311-.241-.748-.5-.909-1.056-.666-2.161-1.254-3.254-1.86-.6-.333-1.086-.753-.665-1.482s1.032-.5,1.62-.16c1.255.717,2.5,1.458,3.786,2.108a3.907,3.907,0,0,0,1.337.147c-.245-.371-.41-.861-.751-1.089-.907-.605-1.887-1.1-2.844-1.632-.607-.337-.937-.892-.483-1.42a1.531,1.531,0,0,1,1.4-.191c1.034.447,1.972,1.11,2.986,1.612a3.153,3.153,0,0,0,1.13.092c-.186-.358-.279-.865-.574-1.049-1.39-.868-2.859-1.609-4.253-2.472a2.71,2.71,0,0,0-2.562-.225c-1.022.384-2.043.789-3.094,1.074a4.1,4.1,0,0,1-4.12-1.032c-1.175-1.116-1.093-1.751.236-2.659,1.134-.775,2.21-1.636,3.312-2.459l-.191-.392a18.514,18.514,0,0,1-3.05.508,21.59,21.59,0,0,1-3.279-.468l-2.508,5.694,2.058,1.631m5.16-3.063q.015.173.031.345a10.882,10.882,0,0,0,2.218-.031,19.256,19.256,0,0,0,2.527-.907,4.626,4.626,0,0,1,4.356.416c1.375.887,2.853,1.614,4.249,2.469.646.4,1.188.532,1.769-.124l-2.372-6.078c-1.515,1.043-2.921.589-4.312-.032a3.884,3.884,0,0,0-4.3.4c-1.421,1.141-2.782,2.356-4.169,3.539m-.993,7.234c-.126-.193-.215-.484-.37-.526a.772.772,0,0,0-.683.15,24.649,24.649,0,0,0-1.428,2.516.873.873,0,0,0,.262.757.712.712,0,0,0,.691-.109c.538-.89,1.009-1.82,1.529-2.788m.764,4.108c.307-.143.509-.169.569-.276.439-.774.876-1.552,1.244-2.36.061-.134-.177-.494-.363-.617a.623.623,0,0,0-.581.189,16.924,16.924,0,0,0-1.124,2.169c-.087.209.148.551.255.894m-3.713-6.637-.373-.045a15.659,15.659,0,0,0-.979,1.611,5.808,5.808,0,0,0-.281,1.285c.3,0,.753.109.859-.035a9.011,9.011,0,0,0,1.1-1.911c.09-.22-.2-.6-.324-.9m6.53,7.85c.336-.166.532-.2.593-.3a23.227,23.227,0,0,0,1.118-2.133c.054-.123-.217-.519-.406-.581a.742.742,0,0,0-.639.288,8.893,8.893,0,0,0-.9,1.739c-.088.246.132.6.234.992" transform="translate(-37.004 -91.017)" fill="#fff"/>
        <path id="Trazado_901661" data-name="Trazado 901661" d="M178.74,191.78c-1.712-2.724-1.59-4.994.3-6.633a4.525,4.525,0,0,1,5.91,0c1.883,1.636,2.008,3.942.328,6.579.6.411,1.229.784,1.791,1.243a7.845,7.845,0,0,1,2.793,4.874c.155.873-.154,1.421-1.058,1.425q-6.8.033-13.608,0c-.9,0-1.213-.538-1.06-1.418a8.113,8.113,0,0,1,4.609-6.069m8.888,5.53c-.446-2.592-3.193-4.457-6.187-4.257-2.461.164-4.908,2.223-5.012,4.257Zm-5.674-11.358a2.559,2.559,0,0,0-2.55,2.639,2.584,2.584,0,0,0,5.168-.073,2.548,2.548,0,0,0-2.618-2.566" transform="translate(-133.23 -140.848)" fill="#fff"/>
        <path id="Trazado_901662" data-name="Trazado 901662" d="M4.624,189.968c-1.7-2.911-1.539-5.132.463-6.738a4.491,4.491,0,0,1,5.9.236c1.769,1.672,1.85,3.968.164,6.456.312.2.625.393.934.593a7.923,7.923,0,0,1,3.667,5.481c.167.935-.152,1.484-1.113,1.488q-6.747.028-13.495,0c-.962,0-1.273-.575-1.1-1.5a7.962,7.962,0,0,1,3.683-5.473c.294-.187.6-.36.894-.539m-2.4,5.511H13.59a5.869,5.869,0,0,0-5.753-4.265,5.835,5.835,0,0,0-5.61,4.265m3.1-8.794a2.585,2.585,0,1,0,2.646-2.542,2.555,2.555,0,0,0-2.646,2.542" transform="translate(0 -139.463)" fill="#fff"/>
        <path id="Trazado_901663" data-name="Trazado 901663" d="M93.086,7.742c-1.7-2.843-1.559-5.1.405-6.726a4.494,4.494,0,0,1,5.806.094c1.862,1.658,1.98,3.958.287,6.607a8.206,8.206,0,0,1,4.52,5.593c.347,1.508.042,1.9-1.527,1.905q-6.267.008-12.534,0c-1.486,0-1.826-.41-1.495-1.848a8.086,8.086,0,0,1,4.538-5.625m8.952,5.538A5.861,5.861,0,0,0,95.647,9.02c-2.392.212-4.693,2.185-4.919,4.261ZM96.295,1.9a2.6,2.6,0,0,0-2.563,2.642,2.674,2.674,0,0,0,2.583,2.54,2.62,2.62,0,0,0,2.6-2.618A2.54,2.54,0,0,0,96.295,1.9" transform="translate(-67.675 0)" fill="#fff"/>
        <path id="Trazado_901664" data-name="Trazado 901664" d="M95.4,72.708a16.327,16.327,0,0,1,3.877-.97,4.558,4.558,0,0,1,4.154,6.245,6.774,6.774,0,0,1-1.536,2.716c-1.771,1.682-3.7,3.207-5.63,4.706a1.656,1.656,0,0,1-1.49.055,16.7,16.7,0,0,1-6.205-5.409,7.771,7.771,0,0,1-1.267-3.9,4.493,4.493,0,0,1,6.3-4.126,18.373,18.373,0,0,1,1.881.927l-.081-.244M89.12,76.853a7.359,7.359,0,0,0,.819,1.879,14.9,14.9,0,0,0,2.682,2.908c3.4,2.621,2.315,2.628,5.718-.025a13.965,13.965,0,0,0,2.907-3.316,3.1,3.1,0,0,0-.385-4.068c-1.067-.922-2.668-.833-4.1.227a1.052,1.052,0,0,0-.184.145c-.764.892-1.466.754-2.28,0a4.128,4.128,0,0,0-1.629-.862c-1.909-.553-3.568.747-3.553,3.115" transform="translate(-66.81 -54.868)" fill="#fff"/>
        <path id="Trazado_901665" data-name="Trazado 901665" d="M174.77,60.1c-.554,2.7-1.093,5.4-1.673,8.1-.148.686-.5,1.343-1.367,1.017-.764-.286-.637-.916-.434-1.58,3.774-12.32-1.474-24.083-13.149-29.491-.644-.3-1.286-.611-.895-1.457.355-.767,1.006-.566,1.61-.29q12.842,5.873,15.29,19.781c.22,1.264.243,2.562.357,3.844l.261.077" transform="translate(-120.25 -27.665)" fill="#fff"/>
        <path id="Trazado_901666" data-name="Trazado 901666" d="M28.239,36.366c.256.24.637.446.752.753a1.091,1.091,0,0,1-.226.926,3.143,3.143,0,0,1-1.007.564,23.794,23.794,0,0,0-12.681,28.55c.068.224.249.475.2.662a11.226,11.226,0,0,1-.566,1.357c-.411-.264-1.085-.451-1.188-.805a33.439,33.439,0,0,1-1.193-5.117A25.681,25.681,0,0,1,26.934,36.9c.387-.179.79-.325,1.3-.535" transform="translate(-9.28 -27.83)" fill="#fff"/>
        <path id="Trazado_901667" data-name="Trazado 901667" d="M87.481,234.814A26.412,26.412,0,0,1,78,233.006c-.644-.258-1.329-.539-.963-1.413.325-.775.98-.6,1.6-.366a23.712,23.712,0,0,0,17.514.005c.654-.25,1.355-.485,1.664.4s-.4,1.125-1.043,1.382a26.222,26.222,0,0,1-9.292,1.8" transform="translate(-58.875 -176.784)" fill="#fff"/>
        <path id="Trazado_901668" data-name="Trazado 901668" d="M169.21,132.675c-.018,1.454-.441,1.721-1.662,1.046.1-.408.092-1.056.33-1.166.35-.162.879.061,1.331.12" transform="translate(-128.221 -101.398)" fill="#fff"/>
        <path id="Trazado_901669" data-name="Trazado 901669" d="M76.266,131.075c-.142.13-.278.361-.428.37a2.066,2.066,0,0,1-1.13-.128,1.107,1.107,0,0,1-.1-.9,5.258,5.258,0,0,1,1.282-.261l.379.916" transform="translate(-57.052 -99.608)" fill="#fff"/>
      </g>
    </g>
  </g>
</svg>
