<svg xmlns="http://www.w3.org/2000/svg" xmlns:xlink="http://www.w3.org/1999/xlink" width="90" height="90" viewBox="0 0 90 90">
  <defs>
    <clipPath id="clip-path">
      <rect id="Rectángulo_402433" data-name="Rectángulo 402433" width="58.342" height="55.934" fill="#fff"/>
    </clipPath>
  </defs>
  <g id="Grupo_1103125" data-name="Grupo 1103125" transform="translate(-1113.926 -1440.652)">
    <path id="Trazado_903750" data-name="Trazado 903750" d="M45,0A45,45,0,1,1,0,45,45,45,0,0,1,45,0Z" transform="translate(1113.926 1440.652)" fill="#b771e5"/>
    <g id="Grupo_1102156" data-name="Grupo 1102156" transform="translate(1133.584 1457.686)">
      <g id="Grupo_1102155" data-name="Grupo 1102155" clip-path="url(#clip-path)">
        <path id="Trazado_901670" data-name="Trazado 901670" d="M47.837,32.492l2.892,5.446c.6-1.1.914-2.558,1.766-3.018.872-.471,2.271.032,3.525.114l-2.331-4.37c-.374-.7-.877-1.478.133-2.01.941-.5,1.3.319,1.657.972.93,1.722,1.923,3.417,2.725,5.2a2.844,2.844,0,0,1,.006,2.141c-.408.847-1.331.8-2.193.5-.777-.267-1.579-.46-2.5-.724-.244.8-.474,1.529-.694,2.265-.27.9-.574,1.77-1.723,1.85-1.061.074-1.516-.635-1.937-1.45-1.039-2.008-2.143-3.983-3.163-6-.461-.91-.939-.944-1.727-.384-2.436,1.732-3.514,1.735-6-.055-.817-.589-1.165-.372-1.572.421-1.071,2.089-2.211,4.143-3.3,6.221-.418.8-1.014,1.511-1.914,1.179a3.379,3.379,0,0,1-1.52-1.525,13.092,13.092,0,0,1-.792-2.493,14.115,14.115,0,0,1-2.642.684,2.833,2.833,0,0,1-2.051-.518c-.353-.384-.245-1.358-.08-2.005a12.385,12.385,0,0,1,1.108-2.257H24.1c-2.917,0-5.836.063-8.75-.035-.971-.033-2.694.732-2.686-1.037.007-1.649,1.674-.953,2.62-.976,3.394-.081,6.792-.071,10.187-.006a1.6,1.6,0,0,0,1.772-1.11,4.028,4.028,0,0,1,.55-1.034c1.544-1.965,1.279-4.434,1.838-6.668a4.561,4.561,0,0,0-.364-1.889c-.451-1.9-.03-2.874,1.443-4.1a5.983,5.983,0,0,0,1.636-2.2c.859-2.056,1.88-2.857,4.148-2.9,2-.038,2.113-.149,2.113-2.195,0-1.437.024-2.874-.01-4.31s-.665-2.1-2.074-2.1q-16.131-.021-32.262,0c-1.4,0-2.046.693-2.069,2.112-.025,1.523.074,3.054-.053,4.568-.042.5-.564,1.281-.968,1.352C.262,10.294.1,9.509.1,8.74.112,7.216.089,5.692.108,4.169a3.921,3.921,0,0,1,4.2-4.15C7.614-.005,10.923.012,14.232.012,21.5.012,28.774.029,36.045,0a4.481,4.481,0,0,1,4.068,1.87,1.45,1.45,0,0,0,.97.432,4.049,4.049,0,0,1,3.96,4.3c.019,1.338,0,2.676,0,4.068.34.03.548.061.755.065,2.87.066,3.5.567,4.515,3.176a5.3,5.3,0,0,0,1.476,1.89c1.892,1.667,2.019,2.255,1.367,4.65a5.961,5.961,0,0,0,.119,2.786c.48,2.061.149,2.943-1.507,4.3a5.764,5.764,0,0,0-1.636,2.24,3.775,3.775,0,0,1-2.3,2.711M41.21,32.3a3.329,3.329,0,0,0,.979-.364,6.285,6.285,0,0,1,4.577-1.525,1.206,1.206,0,0,0,1.327-1.139,4.769,4.769,0,0,1,2.3-3.342c1.047-.6,1.064-1.324.869-2.4a9.009,9.009,0,0,1-.022-3.8c.28-1.048.159-1.669-.644-2.226a5.464,5.464,0,0,1-2.454-3.39,1.428,1.428,0,0,0-1.661-1.3A4.819,4.819,0,0,1,42.407,11.5a1.461,1.461,0,0,0-2.108-.007,5.462,5.462,0,0,1-3.99,1.3,1.689,1.689,0,0,0-1.967,1.5,4.389,4.389,0,0,1-2.312,3.142,1.475,1.475,0,0,0-.744,1.986,6.239,6.239,0,0,1-.014,4.577c-.266.764.054,1.275.73,1.853a7.491,7.491,0,0,1,2.227,2.914,2.189,2.189,0,0,0,2.47,1.76,3.9,3.9,0,0,1,3.117,1.023,5.991,5.991,0,0,0,1.393.76M30.659,27.455l-4.04,7.6c1.256-.1,2.668-.63,3.533-.159s1.208,1.946,1.8,3.015l2.979-5.572c-2.833-.455-1.96-3.814-4.27-4.888M42.9,9.232c.25-3.274.2-5.065-2.16-4.625V8.815l2.16.417" transform="translate(-0.074 0)" fill="#fff"/>
        <path id="Trazado_901671" data-name="Trazado 901671" d="M8.941,59.706h9.43a24.246,24.246,0,0,1,3.13.048c.438.057.814.583,1.218.9A7.952,7.952,0,0,1,21.5,61.725c-.26.153-.681.037-1.029.037-5.27,0-10.54-.023-15.809.031a2.74,2.74,0,0,0-1.954.688,2.533,2.533,0,0,0-.252,2.132,2.311,2.311,0,0,0,1.667,1.124c1.641.155,3.3.057,4.96.057q15.548,0,31.1,0c2.17,0,2.708-.533,2.71-2.677q0-6.729,0-13.457a2.619,2.619,0,0,1,.083-1.154,1.384,1.384,0,0,1,.929-.709,1.375,1.375,0,0,1,.958.669,2.456,2.456,0,0,1,.1,1.149q.007,6.859,0,13.719c0,2.977-1.54,4.538-4.485,4.539q-17.9.01-35.8,0C1.7,67.869.035,66.227.033,63.293q-.009-18.488,0-36.975c0-.3-.1-.682.048-.9.237-.356.628-.834.961-.84s.813.433,1,.8a3.077,3.077,0,0,1,.072,1.287q0,15.875,0,31.749v1.5L6.868,59.6V58.059q0-19.925.008-39.85c0-.822-.285-2,.986-2.041,1.427-.045,1.068,1.215,1.069,2.055q.024,19.86.011,39.719Z" transform="translate(0 -11.942)" fill="#fff"/>
        <path id="Trazado_901672" data-name="Trazado 901672" d="M102.882,151.943c-1.783,0-3.567,0-5.35,0-.723,0-1.486-.044-1.5-1.021s.736-1.03,1.469-1.03q5.089,0,10.178,0c1.662,0,1.768-.112,1.771-1.792.005-2.74-.022-5.481.025-8.221a2.122,2.122,0,0,1,.506-1.377c.58-.562,1.5-.068,1.511.843.037,3.348.062,6.7-.028,10.046a2.761,2.761,0,0,1-2.969,2.538c-1.868.057-3.74.013-5.61.013v.006" transform="translate(-70.933 -102.125)" fill="#fff"/>
        <path id="Trazado_901673" data-name="Trazado 901673" d="M59.2,28.177c-3.265,0-6.529,0-9.794,0-.743,0-1.489-.047-1.51-1s.691-1.075,1.453-1.075q9.794,0,19.587,0c.77,0,1.483.164,1.454,1.082s-.776,1-1.528,1c-3.221-.011-6.442,0-9.663,0" transform="translate(-35.377 -19.279)" fill="#fff"/>
        <path id="Trazado_901674" data-name="Trazado 901674" d="M59.188,162.476q4.566,0,9.132,0a2.36,2.36,0,0,1,1.028.049,5.853,5.853,0,0,1,1.055.943c-.366.347-.7.937-1.106.992a24.456,24.456,0,0,1-3.255.06q-7.893,0-15.785,0c-.3,0-.609,0-.913,0-.743,0-1.486-.073-1.462-1.044s.8-.992,1.521-1c.913-.006,1.826,0,2.739,0h7.045" transform="translate(-35.369 -119.989)" fill="#fff"/>
        <path id="Trazado_901675" data-name="Trazado 901675" d="M55.119,71.72q2.932,0,5.865,0c.7,0,1.37.1,1.389.985s-.616,1.058-1.334,1.059q-5.93.005-11.859,0c-.721,0-1.35-.2-1.325-1.068s.7-.978,1.4-.977c1.955,0,3.91,0,5.865,0" transform="translate(-35.347 -52.974)" fill="#fff"/>
        <path id="Trazado_901676" data-name="Trazado 901676" d="M136.206,51.983a11.652,11.652,0,0,1,.551,1.33,5.057,5.057,0,0,0,5.537,4.11c.412-.012,1.137.422,1.187.734a1.722,1.722,0,0,1-.59,1.411,4.91,4.91,0,0,0-2.033,6.359,1.651,1.651,0,0,1-.412,1.454,1.48,1.48,0,0,1-1.388-.134,4.994,4.994,0,0,0-6.788.01,1.494,1.494,0,0,1-1.394.1c-.3-.215-.3-.883-.4-1.359a.938.938,0,0,1,.059-.514c1.014-2.481.134-4.285-1.927-5.767-.419-.3-.907-1.152-.759-1.449a1.951,1.951,0,0,1,1.5-.89c2.789.079,4.391-1.254,5.158-3.854.134-.454.649-.8.988-1.19l.707-.345M132.65,64.656c1.276-.564,2.145-1.257,3.007-1.246a8.569,8.569,0,0,1,2.8,1.12c-.1-1.058-.484-2.13-.2-2.982.289-.873,1.229-1.53,2.139-2.574-2.739.4-4.011-.916-4.764-3.117-.579,2.481-2.175,3.359-4.533,3.411,2.114,1.325,2.506,3.074,1.558,5.387" transform="translate(-94.415 -38.397)" fill="#fff"/>
      </g>
    </g>
  </g>
</svg>
