<svg xmlns="http://www.w3.org/2000/svg" xmlns:xlink="http://www.w3.org/1999/xlink" width="90" height="90" viewBox="0 0 90 90">
  <defs>
    <clipPath id="clip-path">
      <rect id="Rectángulo_402427" data-name="Rectángulo 402427" width="57.956" height="55.678" fill="#fff"/>
    </clipPath>
  </defs>
  <g id="Grupo_1102762" data-name="Grupo 1102762" transform="translate(-328.5 -577.966)">
    <circle id="Elipse_11523" data-name="Elipse 11523" cx="45" cy="45" r="45" transform="translate(328.5 577.966)" fill="#382a8e"/>
    <g id="Grupo_1102144" data-name="Grupo 1102144" transform="translate(344.021 595.127)">
      <g id="Grupo_1102143" data-name="Grupo 1102143" clip-path="url(#clip-path)">
        <path id="Trazado_901622" data-name="Trazado 901622" d="M8.2,79.8c2.614-1.862,3.947-1.666,6.084.493a57.107,57.107,0,0,0,5.151,4.693,7.624,7.624,0,0,1,2.994,6.365q.011,3.663.02,7.326a1.415,1.415,0,0,0,.094.3c.3.022.634.047.968.069a2.185,2.185,0,0,1,2.2,2.11,30.05,30.05,0,0,1,.015,3.023,2.089,2.089,0,0,1-2.075,2.094q-7.326.124-14.652.151a2.219,2.219,0,0,1-2.348-2.348c-.031-.7-.013-1.4-.013-2.093,0-1.99.725-2.758,2.678-2.855.229-.011.458-.029.719-.046a1.858,1.858,0,0,0-.565-2.171c-2.419-2.35-4.761-4.779-7.175-7.133A7.368,7.368,0,0,1,.007,83.921c.21-5.888.347-11.779.523-17.669a3.655,3.655,0,0,1,3.008-3.728,3.4,3.4,0,0,1,3.987,2.432,13.049,13.049,0,0,1,.682,3.856c.085,3.176.009,6.357,0,9.536,0,.445,0,.89,0,1.448M20.524,99.022c0-2.909.1-5.664-.052-8.4a5.117,5.117,0,0,0-1.135-3.062c-2.278-2.371-4.755-4.552-7.193-6.765a1.43,1.43,0,0,0-2.018-.02,1.4,1.4,0,0,0-.189,1.99,6.918,6.918,0,0,0,.912,1.052c1.037,1.047,2.086,2.083,3.134,3.118.479.473.7,1.078.11,1.478a1.462,1.462,0,0,1-1.385-.167c-1.548-1.464-3.028-3-4.487-4.556a7.044,7.044,0,0,1-1.913-5.2q.1-4.768.034-9.54A12.845,12.845,0,0,0,5.9,65.86c-.254-.956-.878-1.706-2.032-1.461a1.827,1.827,0,0,0-1.48,2.042q-.2,8.84-.5,17.677A5.45,5.45,0,0,0,3.58,88.405c2.074,2.039,4.124,4.1,6.174,6.167,1.229,1.237,2.88,2.248,2.281,4.45Zm-4.351,5.524v-.1c.928,0,1.857,0,2.785,0,.851,0,1.7-.009,2.553-.013,2.394-.013,2.341-.013,2.375-2.392.014-.98-.362-1.145-1.222-1.131-3.906.06-7.813.037-11.719.1-2.858.043-2.353-.407-2.439,2.478-.027.919.358,1.1,1.17,1.083,2.165-.042,4.331-.014,6.5-.014" transform="translate(-0.001 -50.752)" fill="#fff"/>
        <path id="Trazado_901623" data-name="Trazado 901623" d="M189.378,79.839c0-.835-.007-1.444,0-2.053.046-3.679.042-7.36.183-11.035a6.2,6.2,0,0,1,.877-2.605,3.269,3.269,0,0,1,3.871-1.62,3.584,3.584,0,0,1,2.721,3.366q.289,9.182.547,18.366a6.921,6.921,0,0,1-2.166,5.325c-2.423,2.4-4.808,4.841-7.257,7.216a1.98,1.98,0,0,0-.653,2.208c.189.02.373.05.558.058,2.2.1,2.889.81,2.88,3.01,0,.581,0,1.163-.014,1.744a2.311,2.311,0,0,1-2.622,2.556q-7.036-.044-14.071-.144a2.179,2.179,0,0,1-2.392-2.381c-.015-.736,0-1.473.01-2.209.023-1.848.749-2.588,2.6-2.657.187-.007.373-.025.7-.047,0-1,0-1.954,0-2.912,0-1.628-.013-3.256.007-4.884a7.548,7.548,0,0,1,2.832-6.088c2.085-1.724,4.006-3.651,5.965-5.523,1.5-1.429,3.341-1.414,5.425.311m-3.849,19.12c-.586-2.193,1.063-3.205,2.294-4.442Q190.9,91.424,194,88.353a5.361,5.361,0,0,0,1.7-4.167q-.283-9.009-.518-18.02a1.722,1.722,0,0,0-1.453-1.82,1.523,1.523,0,0,0-1.885,1.162,12.672,12.672,0,0,0-.586,3.286c-.064,3.255-.017,6.513.019,9.77a6.075,6.075,0,0,1-1.288,4.245c-1.66,1.89-3.42,3.695-5.206,5.467-.244.242-.879.091-1.333.122a4.255,4.255,0,0,1,.1-1.421c.171-.4.631-.665.957-1,1.006-1.022,2.046-2.013,3-3.082a1.4,1.4,0,0,0-.04-2.169,1.5,1.5,0,0,0-2.19.152c-2.248,2.076-4.529,4.117-6.71,6.262a3.927,3.927,0,0,0-1.271,2.255c-.143,3.155-.06,6.321-.06,9.563Zm-4.237,5.4v.1c1.823,0,3.646-.008,5.469,0,2.691.015,2.193.322,2.325-2.242.055-1.071-.349-1.3-1.331-1.3-3.84.02-7.68-.037-11.52-.062-2.617-.017-2.588-.014-2.536,2.592.015.735.28.924.961.915,2.211-.03,4.422-.011,6.633-.011" transform="translate(-139.626 -50.695)" fill="#fff"/>
        <path id="Trazado_901624" data-name="Trazado 901624" d="M103.667,17.1c-.3,3.228-.182,6.566-.99,9.661C100.843,33.8,96.04,38.037,88.947,39.575a6.739,6.739,0,0,1-2.966-.252A17.69,17.69,0,0,1,72.736,22.49c-.057-3.76,0-7.521-.027-11.281A1.57,1.57,0,0,1,73.8,9.531c4.459-1.877,8.89-3.821,13.355-5.681A2.5,2.5,0,0,1,88.9,3.831C93.4,5.7,97.872,7.66,102.365,9.556a1.492,1.492,0,0,1,1.041,1.592c-.033,1.977-.011,3.954-.011,5.931l.271.025m-1.975.494-.174-.012c0-1.823-.026-3.647.014-5.469a1.107,1.107,0,0,0-.783-1.22c-4-1.685-7.971-3.421-11.973-5.093a2.007,2.007,0,0,0-1.4-.008c-4,1.671-7.978,3.4-11.972,5.093a1.114,1.114,0,0,0-.819,1.2c.037,3.491-.041,6.983.036,10.472A15.78,15.78,0,0,0,86.226,37.441a5.6,5.6,0,0,0,2.614.236c6.522-1.532,10.755-5.555,12.218-12.107.575-2.576.443-5.309.634-7.971" transform="translate(-59.08 -2.993)" fill="#fff"/>
        <path id="Trazado_901625" data-name="Trazado 901625" d="M238.3,24.964a3.849,3.849,0,0,1-1.257-.031c-.332-.122-.81-.532-.788-.776.032-.357.416-.924.715-.969a8.86,8.86,0,0,1,2.634,0,1.21,1.21,0,0,1,.724.95c-.019.3-.523.655-.888.808a3.173,3.173,0,0,1-1.141.029v-.008" transform="translate(-191.969 -18.76)" fill="#fff"/>
        <path id="Trazado_901626" data-name="Trazado 901626" d="M41.094,2.327a3.112,3.112,0,0,1,.029-1.139c.155-.363.607-.924.8-.876a1.459,1.459,0,0,1,.974.862,6.955,6.955,0,0,1,0,2.4c-.057.333-.638.863-.873.811a1.68,1.68,0,0,1-.9-.921,2.921,2.921,0,0,1-.03-1.138h0" transform="translate(-33.352 -0.25)" fill="#fff"/>
        <path id="Trazado_901627" data-name="Trazado 901627" d="M260.719,2.112a3.159,3.159,0,0,1-.029,1.141c-.153.365-.6.931-.793.885a1.463,1.463,0,0,1-.986-.85A6,6,0,0,1,258.9,1c.071-.376.579-.67.89-1a5.986,5.986,0,0,1,.907,1.088c.14.275.027.678.027,1.024h-.007" transform="translate(-210.287 0.001)" fill="#fff"/>
        <path id="Trazado_901628" data-name="Trazado 901628" d="M272.415,24.867a3.129,3.129,0,0,1-1.141-.031c-.363-.156-.918-.6-.873-.809a1.425,1.425,0,0,1,.856-.966,7.035,7.035,0,0,1,2.405,0c.33.056.86.637.807.865a1.7,1.7,0,0,1-.916.909,2.871,2.871,0,0,1-1.139.029" transform="translate(-219.714 -18.655)" fill="#fff"/>
        <path id="Trazado_901629" data-name="Trazado 901629" d="M41.125,36.548a3.907,3.907,0,0,1,.031-1.256c.119-.333.52-.813.765-.795.353.026.923.406.968.7a8.938,8.938,0,0,1,.01,2.632,1.2,1.2,0,0,1-.936.735c-.3-.017-.665-.514-.819-.877a3.121,3.121,0,0,1-.029-1.14h.01" transform="translate(-33.375 -28.03)" fill="#fff"/>
        <path id="Trazado_901630" data-name="Trazado 901630" d="M20.217,25.068a3.722,3.722,0,0,1-1.255-.032c-.327-.125-.744-.515-.761-.809a1.126,1.126,0,0,1,.632-.9,11.208,11.208,0,0,1,2.748-.026,1.115,1.115,0,0,1,.7.853,1.45,1.45,0,0,1-.814.889,3.422,3.422,0,0,1-1.253.034v0" transform="translate(-14.788 -18.871)" fill="#fff"/>
        <path id="Trazado_901631" data-name="Trazado 901631" d="M54.017,24.772a2.614,2.614,0,0,1-1.025-.024,5.507,5.507,0,0,1-1.055-.833c.346-.336.647-.871,1.05-.963a5.2,5.2,0,0,1,2.169,0c.372.078.653.587.975.9a4.349,4.349,0,0,1-.977.887,2.939,2.939,0,0,1-1.138.031" transform="translate(-42.202 -18.557)" fill="#fff"/>
        <path id="Trazado_901632" data-name="Trazado 901632" d="M260.885,36.515a3.892,3.892,0,0,1-.031,1.257c-.121.334-.524.814-.769.8-.355-.027-.926-.408-.972-.7a8.921,8.921,0,0,1-.007-2.634,1.2,1.2,0,0,1,.939-.732c.3.018.665.514.819.877a3.128,3.128,0,0,1,.029,1.141h-.01" transform="translate(-210.462 -28.031)" fill="#fff"/>
        <path id="Trazado_901633" data-name="Trazado 901633" d="M114.637,272.97c-.66.464-1.068.975-1.438.949s-.711-.584-1.065-.909c.353-.372.662-.966,1.072-1.046.322-.063.767.511,1.431,1.006" transform="translate(-91.115 -220.981)" fill="#fff"/>
        <path id="Trazado_901634" data-name="Trazado 901634" d="M188.454,272.957c-.672.477-1.08.991-1.435.958-.388-.037-.728-.582-1.09-.905.362-.372.675-.945,1.1-1.048.3-.072.751.5,1.424,1" transform="translate(-151.077 -220.979)" fill="#fff"/>
        <path id="Trazado_901635" data-name="Trazado 901635" d="M110.649,62.758c-1.509,0-2.893-.029-4.275.01-1.031.029-1.5-.386-1.47-1.439q.058-2.149,0-4.3c-.028-1.032.392-1.5,1.441-1.472,1.386.035,2.774.009,4.305.009,0-1.49.036-2.875-.012-4.258-.036-1.056.407-1.466,1.45-1.432,1.432.048,2.868.049,4.3,0,1.077-.037,1.445.449,1.41,1.471-.045,1.348-.011,2.7-.011,4.219,1.475,0,2.853.033,4.228-.011,1.092-.035,1.554.413,1.519,1.515-.047,1.471-.021,2.944-.009,4.416a1.1,1.1,0,0,1-1.271,1.275c-1.431-.012-2.862,0-4.467,0,0,1.447-.044,2.829.014,4.208.046,1.116-.427,1.54-1.512,1.5-1.315-.045-2.634,0-3.951-.012-1.524-.008-1.679-.16-1.687-1.648-.007-1.308,0-2.616,0-4.05m5.256,3.747c0-1.232,0-2.314,0-3.4,0-2.225,0-2.225,2.169-2.226h3.508V57.442c-1.368,0-2.675,0-3.981,0-1.5,0-1.686-.178-1.695-1.651-.008-1.3,0-2.607,0-3.919h-3.374c0,1.339,0,2.577,0,3.815-.006,1.592-.161,1.751-1.708,1.755-1.306,0-2.611,0-3.968,0v3.442c1.409,0,2.755,0,4.1,0s1.56.22,1.572,1.54c.013,1.342,0,2.685,0,4.08Z" transform="translate(-85.239 -40.525)" fill="#fff"/>
      </g>
    </g>
  </g>
</svg>
