<svg xmlns="http://www.w3.org/2000/svg" xmlns:xlink="http://www.w3.org/1999/xlink" width="240.543" height="241.804" viewBox="0 0 240.543 241.804">
  <defs>
    <clipPath id="clip-path">
      <rect id="Rectángulo_402573" data-name="Rectángulo 402573" width="217.5" height="217.5" fill="none"/>
    </clipPath>
  </defs>
  <g id="Grupo_1102764" data-name="Grupo 1102764" transform="translate(-1154.787 -2661.998)">
    <g id="Grupo_1102762" data-name="Grupo 1102762">
      <rect id="Rectángulo_402010" data-name="Rectángulo 402010" width="240.543" height="241.804" rx="30" transform="translate(1154.787 2661.998)" fill="#ffedcc"/>
    </g>
    <g id="Grupo_1102279" data-name="Grupo 1102279" transform="translate(1166.309 2674.15)">
      <g id="Grupo_1102278" data-name="Grupo 1102278" clip-path="url(#clip-path)">
        <path id="Trazado_902822" data-name="Trazado 902822" d="M217.5,108.75A108.75,108.75,0,1,1,108.75,0,108.75,108.75,0,0,1,217.5,108.75" fill="#d0c2da"/>
        <path id="Trazado_902823" data-name="Trazado 902823" d="M87.086,144.162l1.728-.745a17.346,17.346,0,0,0,1.713,2.169L89.4,147.094l5.107,3.8,1.126-1.512a17.618,17.618,0,0,0,2.567,1.02l-.219,1.872,6.325.74.219-1.867a17.394,17.394,0,0,0,2.735-.4l.745,1.728,5.847-2.522-.745-1.728a17.369,17.369,0,0,0,2.169-1.713l1.508,1.123,3.8-5.107-1.512-1.126a17.569,17.569,0,0,0,1.02-2.567l1.872.219.74-6.325-1.868-.219a17.4,17.4,0,0,0-.4-2.735l1.728-.745-2.522-5.847-1.728.745a17.365,17.365,0,0,0-1.713-2.169l1.123-1.508-5.107-3.8-1.126,1.512a17.6,17.6,0,0,0-2.567-1.02l.219-1.872-6.325-.74-.219,1.868a17.392,17.392,0,0,0-2.735.4l-.745-1.728-5.847,2.522.745,1.728a17.347,17.347,0,0,0-2.169,1.713l-1.508-1.123-3.8,5.107,1.512,1.125a17.6,17.6,0,0,0-1.02,2.567l-1.872-.219-.74,6.325,1.867.219a17.392,17.392,0,0,0,.4,2.735l-1.728.745Zm12.592-19.877a10.088,10.088,0,1,1-5.438,13.684,10.124,10.124,0,0,1,5.438-13.684" transform="translate(-58.412 -79.481)" fill="#e4dbe9"/>
        <path id="Trazado_902824" data-name="Trazado 902824" d="M121.818,159.626a14.176,14.176,0,0,1-11.2-5.471.262.262,0,0,1,.414-.322,13.669,13.669,0,1,0,7.313-21.622.262.262,0,1,1-.134-.507,14.272,14.272,0,0,1,16.638,8.108,14.2,14.2,0,0,1-13.033,19.813" transform="translate(-76.864 -91.239)" fill="#fff"/>
        <path id="Trazado_902825" data-name="Trazado 902825" d="M548.569,242.306l-.03,0-6.324-.74a.262.262,0,0,1-.23-.291l.194-1.657a17.985,17.985,0,0,1-2.2-.875l-1,1.338a.262.262,0,0,1-.367.054l-5.107-3.8a.262.262,0,0,1-.054-.367l.994-1.334a17.73,17.73,0,0,1-1.469-1.86l-1.528.659a.262.262,0,0,1-.345-.137l-2.521-5.847a.262.262,0,0,1,.137-.344l1.529-.659a17.725,17.725,0,0,1-.344-2.345l-1.652-.194a.262.262,0,0,1-.23-.29l.74-6.325a.262.262,0,0,1,.1-.175.259.259,0,0,1,.193-.055l1.657.194a18.016,18.016,0,0,1,.874-2.2l-1.338-1a.263.263,0,0,1-.054-.367l3.8-5.107a.262.262,0,0,1,.367-.054l1.334.994a17.7,17.7,0,0,1,1.86-1.469l-.659-1.529a.262.262,0,0,1,.137-.344l5.847-2.521a.262.262,0,0,1,.344.137l.659,1.529a17.719,17.719,0,0,1,2.345-.344l.193-1.652a.263.263,0,0,1,.291-.23l6.324.74a.262.262,0,0,1,.23.291l-.194,1.657a17.928,17.928,0,0,1,2.2.875l1-1.338a.262.262,0,0,1,.367-.054l5.107,3.8a.262.262,0,0,1,.054.367l-.993,1.334a17.716,17.716,0,0,1,1.469,1.86l1.529-.659a.262.262,0,0,1,.344.137l2.521,5.847a.262.262,0,0,1-.137.344l-1.529.659a17.78,17.78,0,0,1,.344,2.345L567,221.5a.262.262,0,0,1,.23.291l-.74,6.325a.262.262,0,0,1-.291.23l-1.657-.194a18.009,18.009,0,0,1-.875,2.2l1.338,1a.262.262,0,0,1,.054.367l-3.8,5.107a.262.262,0,0,1-.367.054l-1.334-.994a17.73,17.73,0,0,1-1.86,1.469l.659,1.528a.262.262,0,0,1-.137.344l-5.847,2.522a.262.262,0,0,1-.344-.137l-.659-1.529a17.706,17.706,0,0,1-2.345.344l-.193,1.652a.262.262,0,0,1-.26.232m-6.034-1.232,5.8.679.188-1.607a.262.262,0,0,1,.243-.231,17.167,17.167,0,0,0,2.694-.4.262.262,0,0,1,.3.152l.641,1.487,5.366-2.314-.641-1.487a.262.262,0,0,1,.1-.322,17.206,17.206,0,0,0,2.137-1.687.262.262,0,0,1,.335-.018l1.3.966,3.49-4.687-1.3-.969a.262.262,0,0,1-.079-.326,17.4,17.4,0,0,0,1-2.529.262.262,0,0,1,.281-.183l1.612.189.679-5.8-1.607-.188a.262.262,0,0,1-.231-.243,17.166,17.166,0,0,0-.4-2.694.262.262,0,0,1,.152-.3l1.487-.641-2.314-5.366-1.487.641a.262.262,0,0,1-.322-.1,17.185,17.185,0,0,0-1.687-2.137.262.262,0,0,1-.018-.335l.966-1.3-4.687-3.49-.969,1.3a.262.262,0,0,1-.326.079,17.423,17.423,0,0,0-2.529-1,.262.262,0,0,1-.183-.281l.189-1.612-5.8-.679-.188,1.607a.262.262,0,0,1-.243.231,17.178,17.178,0,0,0-2.694.4.262.262,0,0,1-.3-.152l-.641-1.487-5.366,2.314.641,1.487a.262.262,0,0,1-.1.322,17.156,17.156,0,0,0-2.136,1.687.262.262,0,0,1-.335.018l-1.3-.966-3.49,4.687,1.3.969a.262.262,0,0,1,.079.326,17.425,17.425,0,0,0-1,2.529.263.263,0,0,1-.281.183l-1.612-.189-.679,5.8,1.607.188a.262.262,0,0,1,.231.243,17.179,17.179,0,0,0,.4,2.694.263.263,0,0,1-.152.3l-1.487.641,2.314,5.366,1.487-.641a.262.262,0,0,1,.322.1,17.182,17.182,0,0,0,1.687,2.137.262.262,0,0,1,.018.335l-.966,1.3,4.687,3.49.969-1.3a.262.262,0,0,1,.326-.079,17.43,17.43,0,0,0,2.529,1,.262.262,0,0,1,.183.281Zm5.106-8.024a10.367,10.367,0,0,1-9.379-5.943,10.35,10.35,0,0,1,5.58-14.04,10.362,10.362,0,0,1,13.15,5.226,10.35,10.35,0,0,1-9.35,14.757m-3.7-19.739.1.244a9.825,9.825,0,1,0,12.483,4.961,9.739,9.739,0,0,0-12.483-4.961Z" transform="translate(-367.076 -141.189)" fill="#a68ab9"/>
        <path id="Trazado_902826" data-name="Trazado 902826" d="M271.723,287.023l5.533-36.506L288.9,286.788h24.146L293.22,217.4l-34.531,6.018-8.512,59Z" transform="translate(-173.922 -151.138)" fill="#4635b1"/>
        <path id="Trazado_902827" data-name="Trazado 902827" d="M167.29,77.785s-3.637-21.342-4.348-24.728a6.377,6.377,0,0,0-.584-1.72c-1.414-2.737-4.035-2.627-6.835-4.826-3.177-2.5-3.553-5.7-4.563-5.49-.7.146-.9,1.394-.346,3.881h0c-.639-1.841-1.615-4.3-2.631-3.943-1.152.474-.344,3.5.233,5.3-.7-2.185-1.725-3.137-2.242-2.8-.814.535-.666,2.355.37,5.207-1.266-1.769-1.836-2.01-2.22-1.6-.7.752.2,3.08,1.3,5.017A12.883,12.883,0,0,0,149.5,56.3h0c1.013,11.066,1.619,18.186,2.287,27.138.344,4.606,14.324,3.482,15.5-5.649" transform="translate(-100.022 -28.449)" fill="#c2b59d"/>
        <path id="Trazado_902828" data-name="Trazado 902828" d="M188.536,55.137c-.521-3.963.131-5.5.762-5.566,1.061-.105,2.89,3.1,4.381,8.793-1.513-.771-3.63-2.457-5.143-3.227" transform="translate(-130.937 -34.46)" fill="#c2b59d"/>
        <path id="Trazado_902829" data-name="Trazado 902829" d="M172.481,78.49a.262.262,0,0,1-.259-.228,4.871,4.871,0,0,0-1.135-2.56,5.013,5.013,0,0,0-3.138-1.652.262.262,0,0,1,.063-.52,5.544,5.544,0,0,1,3.471,1.829,5.393,5.393,0,0,1,1.259,2.835.262.262,0,0,1-.226.294l-.034,0" transform="translate(-116.596 -51.117)" fill="#4635b1"/>
        <path id="Trazado_902830" data-name="Trazado 902830" d="M191.293,65.384a.262.262,0,0,1-.165-.058,11.065,11.065,0,0,0-2.274-1.295c-.4-.19-.818-.386-1.248-.613a.262.262,0,0,1,.244-.464c.42.221.831.415,1.228.6a11.44,11.44,0,0,1,2.38,1.361.262.262,0,0,1-.165.466" transform="translate(-130.325 -43.745)" fill="#4635b1"/>
        <path id="Trazado_902831" data-name="Trazado 902831" d="M167.865,56.589a.26.26,0,0,1-.17-.063,8.157,8.157,0,0,1-2.182-2.941.262.262,0,1,1,.48-.21,7.629,7.629,0,0,0,2.042,2.752.262.262,0,0,1-.17.461" transform="translate(-115.048 -36.997)" fill="#4635b1"/>
        <path id="Trazado_902832" data-name="Trazado 902832" d="M159.734,60.108a.261.261,0,0,1-.17-.063,8.156,8.156,0,0,1-2.182-2.941.262.262,0,1,1,.48-.21,7.628,7.628,0,0,0,2.042,2.752.262.262,0,0,1-.17.461" transform="translate(-109.395 -39.443)" fill="#4635b1"/>
        <path id="Trazado_902833" data-name="Trazado 902833" d="M153.627,68.99a.261.261,0,0,1-.17-.063,8.157,8.157,0,0,1-2.182-2.941.262.262,0,1,1,.48-.21,7.628,7.628,0,0,0,2.042,2.752.262.262,0,0,1-.17.461" transform="translate(-105.15 -45.618)" fill="#4635b1"/>
        <path id="Trazado_902834" data-name="Trazado 902834" d="M257.362,139.966c5.206-11.878-12.29-32.469-29.469-34.349-4.967-.544-9.966-1.082-9.966-1.082-2.519-.466-16.463-.219-21.8,1.8-16.306,6.171-30.805,14.191-30.855,21.17-.135,19.189,31.756.09,31.756.09l-.322,33.042,45.659,5.816L237.3,132.78s16.031,16.383,20.062,7.186" transform="translate(-114.895 -72.533)" fill="#4635b1"/>
        <rect id="Rectángulo_402555" data-name="Rectángulo 402555" width="13.181" height="41.86" transform="translate(98.157 33.96)" fill="#e4dbe9"/>
        <path id="Trazado_902835" data-name="Trazado 902835" d="M334.352,170.257l-3.657-3.657,1.946-30.691,2.984-.064,2.385,30.755Z" transform="translate(-229.896 -94.438)" fill="#4635b1"/>
        <path id="Trazado_902836" data-name="Trazado 902836" d="M330.942,127.79l4.922-7.106H326.02Z" transform="translate(-226.647 -83.898)" fill="#4635b1"/>
        <path id="Trazado_902837" data-name="Trazado 902837" d="M368.2,171.592a.262.262,0,0,1-.262-.244l-.842-12.616a.259.259,0,0,1,.008-.085l7.608-28.318-5.812-.664a.262.262,0,0,1-.173-.426l5.423-6.628-2.745-12.8a.262.262,0,1,1,.512-.11l2.771,12.92a.263.263,0,0,1-.053.221l-5.2,6.354,5.637.644a.262.262,0,0,1,.223.328l-7.676,28.57.821,12.3,14.2-1.263a.262.262,0,0,1,.046.522l-14.471,1.287H368.2" transform="translate(-255.203 -76.121)" fill="#fff"/>
        <path id="Trazado_902838" data-name="Trazado 902838" d="M316.669,97.527l7.619-2.885,8.856,4.237-4.888,7.232-3.892-2.819-3.468,3.242Z" transform="translate(-220.146 -65.795)" fill="#fff"/>
        <rect id="Rectángulo_402556" data-name="Rectángulo 402556" width="16.246" height="7.098" transform="translate(48.179 31.245) rotate(-11.454)" fill="#fff"/>
        <path id="Trazado_902839" data-name="Trazado 902839" d="M160.342,130.836l-2.162-18.107,17.972-4.189,3.157,22.751Z" transform="translate(-109.966 -75.456)" fill="#4635b1"/>
        <path id="Trazado_902840" data-name="Trazado 902840" d="M222.337,151.3a.262.262,0,0,1-.26-.229l-1.8-14.277a.262.262,0,0,1,.52-.066L222.6,151a.262.262,0,0,1-.227.293l-.033,0" transform="translate(-153.132 -94.891)" fill="#fff"/>
        <rect id="Rectángulo_402557" data-name="Rectángulo 402557" width="13.331" height="5.131" transform="translate(98.157 75.819)" fill="#806432"/>
        <path id="Trazado_902841" data-name="Trazado 902841" d="M281.668,167.058h-.015l-16.914-.99a.262.262,0,1,1,.031-.523l16.636.974v-7.1l-8.865-33.933a.263.263,0,0,1,.271-.328l5.954.39L273.822,120a.263.263,0,0,1-.06-.232l3.473-15.428a.262.262,0,1,1,.511.115l-3.444,15.3,5.28,5.921a.262.262,0,0,1-.213.436l-6.23-.408,8.782,33.614a.269.269,0,0,1,.009.066V166.8a.262.262,0,0,1-.262.262" transform="translate(-183.873 -72.392)" fill="#fff"/>
        <path id="Trazado_902842" data-name="Trazado 902842" d="M381.015,214.031l14.744,7.726s18.682-28.5,10.189-33.5c-9.244-5.434-24.933,25.769-24.933,25.769" transform="translate(-264.879 -130.436)" fill="#4635b1"/>
        <path id="Trazado_902843" data-name="Trazado 902843" d="M329.814,42.279c3.094-1.574,4.436-5.175,4.657-8.921.166-2.794-1.277-4.693-3.385-4.675-1.451-2.382-6.9-2.848-9.19-1.128-4.213,3.16-3.96,12.247.752,14.94,3.112,1.779,6.885-.072,7.165-.215" transform="translate(-221.707 -18.438)" fill="#fff"/>
        <path id="Trazado_902844" data-name="Trazado 902844" d="M318.833,65.217c.525,1.352.22,2.733-.682,3.083s-2.058-.462-2.584-1.815-.22-2.733.682-3.083,2.059.462,2.584,1.815" transform="translate(-219.201 -44.02)" fill="#c2b59d"/>
        <path id="Trazado_902845" data-name="Trazado 902845" d="M357.759,67.179c-.65,1.3-.476,2.7.389,3.133s2.093-.267,2.743-1.564.476-2.7-.389-3.133-2.093.267-2.743,1.564" transform="translate(-248.438 -45.526)" fill="#c2b59d"/>
        <path id="Trazado_902846" data-name="Trazado 902846" d="M363.681,71.47a.262.262,0,0,1-.13-.49,1.574,1.574,0,0,0,.59-.66c.28-.558.237-1.169-.092-1.334a.377.377,0,0,0-.086-.031.262.262,0,0,1,.116-.511.887.887,0,0,1,.2.073,1.483,1.483,0,0,1,.326,2.037,2.08,2.08,0,0,1-.8.88.26.26,0,0,1-.13.034" transform="translate(-252.645 -47.578)" fill="#4635b1"/>
        <path id="Trazado_902847" data-name="Trazado 902847" d="M318.513,69.376a.262.262,0,0,1-.15-.048,2.081,2.081,0,0,1-.713-.951c-.34-.876-.113-1.753.516-2a.9.9,0,0,1,.21-.054.262.262,0,1,1,.068.52.381.381,0,0,0-.088.023c-.344.134-.443.738-.217,1.32a1.575,1.575,0,0,0,.525.712.262.262,0,0,1-.151.476" transform="translate(-220.718 -46.108)" fill="#4635b1"/>
        <path id="Trazado_902848" data-name="Trazado 902848" d="M331.658,94.535h0l-4.149-4.584-.347-7.525,8.844-.38.342,7.533Z" transform="translate(-227.441 -57.038)" fill="#c2b59d"/>
        <path id="Trazado_902849" data-name="Trazado 902849" d="M334.984,50.192c-.161,3.421-2.181,8.75-6.566,8.544s-5.895-5.7-5.734-9.124c.087-1.847.514-4.936,1.848-5.77,1.137-.711,3.177,1.215,4.739,1.288,1.7.08,3.275-1.738,4.329-.789s1.464,4.141,1.383,5.851" transform="translate(-224.32 -30.37)" fill="#c2b59d"/>
        <path id="Trazado_902850" data-name="Trazado 902850" d="M328.02,72.6c7.109.052,6.76-11.8,6.76-11.8l-12.581.225S321.126,72.554,328.02,72.6" transform="translate(-223.948 -42.273)" fill="#fff"/>
        <path id="Trazado_902851" data-name="Trazado 902851" d="M322.608,54.976c0,3.949,2.546,1.993,5.907,1.99s6.5,2.046,6.5-1.9-2.6-3.911-5.961-3.908-6.446-.128-6.442,3.82" transform="translate(-224.275 -35.563)" fill="#c2b59d"/>
        <path id="Trazado_902852" data-name="Trazado 902852" d="M350.509,58.848a4.739,4.739,0,0,1-.843.909,3.283,3.283,0,0,1-1.489.284,2.439,2.439,0,0,1-2.635.21,4.332,4.332,0,0,1,.472-.566c.382-.391,1.975-.451,1.975-.451s1.042-.781,1.545-.683a4.624,4.624,0,0,1,.975.3" transform="translate(-240.218 -40.699)" fill="#fff"/>
        <path id="Trazado_902853" data-name="Trazado 902853" d="M348.845,58.422a4.04,4.04,0,0,0-1.735,1.089,1.868,1.868,0,0,0,.385.844,3.955,3.955,0,0,0,1.891-.018,3.762,3.762,0,0,0,1.376-.757,1.854,1.854,0,0,0-.137-1.2,3.882,3.882,0,0,0-1.78.039" transform="translate(-241.308 -40.528)" fill="#4635b1"/>
        <path id="Trazado_902854" data-name="Trazado 902854" d="M324.653,57.325a4.783,4.783,0,0,0,.864,1.092c.314.3,1.373.205,1.373.205s1.081.82,1.593.768a4.6,4.6,0,0,0,.983-.2,4.312,4.312,0,0,0-.409-.6c-.342-.427-1.831-.722-1.831-.722s-1.08-.8-1.592-.746a4.606,4.606,0,0,0-.981.2" transform="translate(-225.696 -39.71)" fill="#fff"/>
        <path id="Trazado_902855" data-name="Trazado 902855" d="M330.89,58.549a4.056,4.056,0,0,0-1.641-1.266,3.893,3.893,0,0,0-1.777-.205,1.853,1.853,0,0,0-.15,1.175c.008.041.02.081.031.122a3.675,3.675,0,0,0,1.177.764,3.886,3.886,0,0,0,1.777.205,1.87,1.87,0,0,0,.582-.8" transform="translate(-227.527 -39.663)" fill="#4635b1"/>
        <path id="Trazado_902856" data-name="Trazado 902856" d="M342.658,66.713a.262.262,0,0,1-.113-.5c.211-.1.339-.212.359-.312.013-.061-.016-.123-.094-.271a2.259,2.259,0,0,1-.205-.489,1.963,1.963,0,0,1-.006-.97.262.262,0,1,1,.51.119,1.447,1.447,0,0,0,0,.713,1.75,1.75,0,0,0,.162.38.878.878,0,0,1,.145.621,1.035,1.035,0,0,1-.647.681.262.262,0,0,1-.113.026" transform="translate(-238.031 -44.472)" fill="#4635b1"/>
        <path id="Trazado_902857" data-name="Trazado 902857" d="M338.917,73.956a1.358,1.358,0,0,1-1.047-.532,1.234,1.234,0,0,1-.259-.719.262.262,0,0,1,.524-.009.705.705,0,0,0,.151.41.823.823,0,0,0,.665.325.262.262,0,0,1,.03.523l-.065,0" transform="translate(-234.704 -50.359)" fill="#a79472"/>
        <path id="Trazado_902858" data-name="Trazado 902858" d="M338.449,36.113a.261.261,0,0,1-.217-.115,5.372,5.372,0,0,0-1.165-1.247c-2.468-1.9-5.841-.978-6.816-.65a.262.262,0,1,1-.167-.5c1.037-.35,4.63-1.33,7.3.732a5.9,5.9,0,0,1,1.279,1.368.262.262,0,0,1-.217.409" transform="translate(-229.347 -22.985)" fill="#794f96"/>
        <path id="Trazado_902859" data-name="Trazado 902859" d="M326,39.368a.262.262,0,0,1-.132-.489c1.044-.607,4.717-2.488,8.157-1.2a6.458,6.458,0,0,1,1.748.985.262.262,0,0,1-.325.411,5.944,5.944,0,0,0-1.606-.9c-3.224-1.2-6.717.588-7.711,1.166a.261.261,0,0,1-.131.036" transform="translate(-226.453 -25.887)" fill="#794f96"/>
        <path id="Trazado_902860" data-name="Trazado 902860" d="M318.262,161.276l-3.614,3.567a3.068,3.068,0,0,1-4.338-.029h0a3.068,3.068,0,0,1,.029-4.339l3.614-3.567a3.068,3.068,0,0,1,4.338.029h0a3.068,3.068,0,0,1-.029,4.338" transform="translate(-215.109 -108.467)" fill="#a5916d"/>
        <path id="Trazado_902861" data-name="Trazado 902861" d="M278.19,225.673a.262.262,0,0,1-.262-.247l-2.171-38.42a.263.263,0,0,1,.082-.205l15.047-14.175a.262.262,0,1,1,.359.381L276.287,187.1l2.164,38.3a.262.262,0,0,1-.247.276h-.015" transform="translate(-191.704 -119.959)" fill="#a5916d"/>
        <path id="Trazado_902862" data-name="Trazado 902862" d="M369.951,161.228l3.614,3.567a3.068,3.068,0,0,0,4.338-.029h0a3.068,3.068,0,0,0-.029-4.339l-3.614-3.567a3.068,3.068,0,0,0-4.338.029h0a3.068,3.068,0,0,0,.029,4.338" transform="translate(-256.552 -108.434)" fill="#a5916d"/>
        <path id="Trazado_902863" data-name="Trazado 902863" d="M396.747,225.625h-.015a.262.262,0,0,1-.247-.276l2.164-38.3-14.958-14.091a.262.262,0,1,1,.359-.381L399.1,186.753a.264.264,0,0,1,.082.205l-2.172,38.42a.262.262,0,0,1-.261.247" transform="translate(-266.682 -119.925)" fill="#a5916d"/>
        <rect id="Rectángulo_402558" data-name="Rectángulo 402558" width="68.646" height="119.184" transform="translate(74.891 78.663)" fill="#a68ab9"/>
        <rect id="Rectángulo_402559" data-name="Rectángulo 402559" width="74.862" height="8.945" transform="translate(71.378 75.934)" fill="#794f96"/>
        <path id="Trazado_902864" data-name="Trazado 902864" d="M301.99,260.308H227.128a.262.262,0,0,1-.262-.262V251.1a.262.262,0,0,1,.262-.262H301.99a.262.262,0,0,1,.262.262v8.945a.262.262,0,0,1-.262.262m-74.6-.524h74.338v-8.421H227.39Z" transform="translate(-157.715 -174.381)" fill="#4635b1"/>
        <path id="Trazado_902865" data-name="Trazado 902865" d="M244.421,314.858a.262.262,0,0,1-.262-.262V280.529a.262.262,0,1,1,.524,0V314.6a.262.262,0,0,1-.262.262" transform="translate(-169.737 -194.839)" fill="#4635b1"/>
        <path id="Trazado_902866" data-name="Trazado 902866" d="M470.228,318.919a.262.262,0,0,1-.262-.261l-.131-38.128a.262.262,0,1,1,.524,0l.131,38.128a.262.262,0,0,1-.261.263Z" transform="translate(-326.626 -194.839)" fill="#4635b1"/>
        <path id="Trazado_902867" data-name="Trazado 902867" d="M403.17,559.4l28.384-1.6L430.4,537.485l-29.249,4.683Z" transform="translate(-278.878 -373.655)" fill="#c2b59d"/>
        <path id="Trazado_902868" data-name="Trazado 902868" d="M516.659,541.2c-4.191-3.723-14.892-13.2-30.8-14.794-12.453-1.247-25.853,1.779-31.76,3.652.144,7.492.432,15.417.576,22.909,2.881.432,4.394.648,7.41,1.1V582.6l45.523.034.039-21.677,5.067,1.882Z" transform="translate(-315.683 -365.752)" fill="#538040"/>
        <path id="Trazado_902869" data-name="Trazado 902869" d="M479.389,601.108a.262.262,0,0,1-.262-.261c-.011-2.218-.029-3.336-.053-4.751-.011-.676-.023-1.412-.036-2.36a.262.262,0,0,1,.258-.265.268.268,0,0,1,.265.258c.013.947.025,1.683.036,2.359.024,1.417.042,2.536.053,4.757a.262.262,0,0,1-.261.263Z" transform="translate(-333.023 -412.576)" fill="#4635b1"/>
        <path id="Trazado_902870" data-name="Trazado 902870" d="M383.793,487.144c1.492-18.271,1.856-31.311,2.927-39.363.481-3.614,1.652-7.14.093-10.281-.691-1.392-1.725-2.761-2.695-2.15-1.514.953.546,5-.709,5.748s-2.99-2.205-3.762-4.252c-.52-1.379-1.35-2.937-2.711-2.693-1.935.348-1.309,3.2-1.289,3.389a2.3,2.3,0,0,0-2.664-.034,2.432,2.432,0,0,0,.539,3.539c-.188-.1-1.594-.832-2.227-.32s-.465,2.174.825,3.976c-1.143-.534-2.073-.5-2.379-.148-.857.993-.187,3.347,3.419,7.682-.444,2.58-2.6,12.825-4.292,20.772a12.025,12.025,0,0,0,14.4,14.26q.258-.06.522-.126" transform="translate(-256.245 -301.802)" fill="#c2b59d"/>
        <path id="Trazado_902871" data-name="Trazado 902871" d="M419.6,559.525h-.019a.262.262,0,0,1-.242-.28c.138-1.9.263-4.346.384-6.709.086-1.684.167-3.274.245-4.493a.262.262,0,0,1,.523.033c-.078,1.215-.159,2.8-.245,4.486-.121,2.365-.246,4.811-.384,6.72a.262.262,0,0,1-.261.243" transform="translate(-291.52 -380.824)" fill="#4635b1"/>
        <path id="Trazado_902872" data-name="Trazado 902872" d="M394.485,484.8l-.035,0a.262.262,0,0,1-.225-.294,4.986,4.986,0,0,0-.522-2.96,5.043,5.043,0,0,0-2.491-2.253.262.262,0,1,1,.2-.485,5.428,5.428,0,0,1,3.332,5.767.262.262,0,0,1-.259.227" transform="translate(-271.855 -332.847)" fill="#4635b1"/>
        <path id="Trazado_902873" data-name="Trazado 902873" d="M377.051,444.114h0a4.25,4.25,0,0,0,5.918-.947l12.32-15.638-6.06-4.891-12.5,15.491a4.25,4.25,0,0,0,.324,5.985" transform="translate(-261.154 -293.815)" fill="#806432"/>
        <path id="Trazado_902874" data-name="Trazado 902874" d="M322.5,332.428a.262.262,0,0,1-.2-.089,6.155,6.155,0,0,1,7.557-9.54.262.262,0,1,1-.248.461,5.631,5.631,0,0,0-6.916,8.732.262.262,0,0,1-.2.435" transform="translate(-222.931 -223.869)" fill="#4635b1"/>
        <path id="Trazado_902875" data-name="Trazado 902875" d="M349.061,331.818l-8.007,9.733-32.237-14.415L328.7,302.963Z" transform="translate(-214.687 -210.617)" fill="#a5916d"/>
        <rect id="Rectángulo_402560" data-name="Rectángulo 402560" width="12.57" height="8.403" transform="translate(126.377 130.92) rotate(-50.556)" fill="#815a9c"/>
        <rect id="Rectángulo_402561" data-name="Rectángulo 402561" width="2.214" height="5.977" transform="matrix(0.635, -0.772, 0.772, 0.635, 128.548, 130.431)" fill="#a5916d"/>
        <rect id="Rectángulo_402562" data-name="Rectángulo 402562" width="2.214" height="5.977" transform="matrix(0.635, -0.772, 0.772, 0.635, 130.722, 127.789)" fill="#a5916d"/>
        <rect id="Rectángulo_402563" data-name="Rectángulo 402563" width="2.214" height="5.977" transform="matrix(0.635, -0.772, 0.772, 0.635, 132.895, 125.148)" fill="#a5916d"/>
        <path id="Trazado_902876" data-name="Trazado 902876" d="M381.466,448.291c1.851,1.43,2.461,3.2,1.986,3.841-.436.584-2.029.541-3.716-.407a.02.02,0,0,0-.023.034c1.778,1.485,2.5,3.092,2.089,3.687-.38.542-1.857.453-3.546-.309a.021.021,0,0,0-.019.036c1.521.964,2.247,2.146,1.99,2.673-.273.559-2.164,1.1-4.973-.863Z" transform="translate(-260.873 -311.648)" fill="#c2b59d"/>
        <path id="Trazado_902877" data-name="Trazado 902877" d="M412.75,450.843c.734-4.086,1.541-7.3.093-10.281-.443-.911-1.188-2.057-2.094-2.03-1.8.056-1.012,2.813-1.257,4.77-.228,1.823-1.511,2.685-2.4,4.33a10.418,10.418,0,0,0-.892,6.685l6.547-3.474" transform="translate(-282.276 -304.864)" fill="#c2b59d"/>
        <rect id="Rectángulo_402564" data-name="Rectángulo 402564" width="5.078" height="82.842" transform="translate(187.397 117.491)" fill="#806432"/>
        <path id="Trazado_902878" data-name="Trazado 902878" d="M588.071,275.637A27.273,27.273,0,1,1,560.8,248.365a27.272,27.272,0,0,1,27.272,27.272" transform="translate(-370.903 -172.661)" fill="#a5916d"/>
        <path id="Trazado_902879" data-name="Trazado 902879" d="M594.28,286.09a22.6,22.6,0,1,1-22.6-22.6,22.6,22.6,0,0,1,22.6,22.6" transform="translate(-381.722 -183.179)" fill="#e4dbe9"/>
        <path id="Trazado_902880" data-name="Trazado 902880" d="M611.759,304.78a7.906,7.906,0,1,1-7.906-7.906,7.906,7.906,0,0,1,7.906,7.906" transform="translate(-414.298 -206.384)" fill="#4635b1"/>
        <path id="Trazado_902881" data-name="Trazado 902881" d="M565.756,365.842a22.586,22.586,0,0,0,35.173-.182c.055-.119.111-.237.162-.359-6.456-6.741-21.389-13.33-35.335.541" transform="translate(-393.309 -248.658)" fill="#4635b1"/>
        <rect id="Rectángulo_402565" data-name="Rectángulo 402565" width="49.322" height="4.568" transform="matrix(0.63, -0.776, 0.776, 0.63, 173.221, 121.511)" fill="#a5916d"/>
        <path id="Trazado_902882" data-name="Trazado 902882" d="M589.651,504.3a21.845,21.845,0,0,0,12.009,2.919,27.388,27.388,0,0,0,4.951-.7c.761-.386.7-1.524.655-2.184a43.421,43.421,0,0,0-2.182-5.515c-1.814-3.35-3.532-2.328-6.564-5.521-3.44-3.623-3.326-7.611-4.6-7.535-.886.052-1.352,1.544-1.118,4.687h0c-.453-2.367-.35-5.348-1.657-5.095-1.494.374-1.9,4.016-1.52,6.328-.464-2.8-.7-3.9-1.442-3.736-1.137.251-1.653,2.605-1.28,6.349h0c-.4-2.474-1.775.012-1.775,1.547a12.37,12.37,0,0,0,1.323,4.126c1.589,2.616,1.984,3.183,3.2,4.325" transform="translate(-406.776 -337.406)" fill="#c2b59d"/>
        <path id="Trazado_902883" data-name="Trazado 902883" d="M630.5,506.791c-.276-4.451-.4-6.745,0-6.784,1.312-.131,4.3,3.961,6.679,10.844-1.939-.807-4.74-3.253-6.679-4.06" transform="translate(-438.139 -347.599)" fill="#c2b59d"/>
        <path id="Trazado_902884" data-name="Trazado 902884" d="M612.216,505.824a.262.262,0,0,1-.2-.089,10.023,10.023,0,0,1-2.13-3.965.262.262,0,1,1,.505-.139,9.494,9.494,0,0,0,2.019,3.758.262.262,0,0,1-.2.435" transform="translate(-423.983 -348.596)" fill="#4635b1"/>
        <path id="Trazado_902885" data-name="Trazado 902885" d="M601.636,508.674a.261.261,0,0,1-.2-.089,10.02,10.02,0,0,1-2.13-3.965.262.262,0,1,1,.505-.138,9.505,9.505,0,0,0,2.019,3.758.262.262,0,0,1-.2.435" transform="translate(-416.628 -350.577)" fill="#4635b1"/>
        <path id="Trazado_902886" data-name="Trazado 902886" d="M592.573,518.448a.261.261,0,0,1-.2-.089,10.021,10.021,0,0,1-2.13-3.965.262.262,0,0,1,.505-.138,9.5,9.5,0,0,0,2.019,3.758.262.262,0,0,1-.2.435" transform="translate(-410.327 -357.372)" fill="#4635b1"/>
        <path id="Trazado_902887" data-name="Trazado 902887" d="M624.843,549.907l-12.751-26.313-15.074,5.1L607.6,557.909c5.105,10.076,14.2,6.69,14.2,6.69,4.76-2.27,5.342-9.946,3.042-14.692" transform="translate(-415.042 -363.998)" fill="#c2b59d"/>
        <path id="Trazado_902888" data-name="Trazado 902888" d="M535.9,496.038h0a5.67,5.67,0,0,1-6.033-5.255l-.892-12.515a5.67,5.67,0,0,1,11.311-.807l.9,12.515a5.67,5.67,0,0,1-5.279,6.062" transform="translate(-367.727 -328.266)" fill="#c2b59d"/>
        <path id="Trazado_902889" data-name="Trazado 902889" d="M529.377,440.693c-.394-.237-4.207-2.446-7.884-.87-2.737,1.173-4.181,3.662-5.973,8.2-2.11,5.347-2.624,8.839-1.619,10.57,1.588,2.735,10.365,2.477,15.169-.784a11.548,11.548,0,0,0,4.757-10.855,8.667,8.667,0,0,0-4.451-6.264" transform="translate(-356.915 -305.371)" fill="#c2b59d"/>
        <path id="Trazado_902890" data-name="Trazado 902890" d="M530.973,505.808q-.429,0-.848-.021a.262.262,0,0,1,.027-.523,19.142,19.142,0,0,0,7.351-1.147.262.262,0,0,1,.182.492,19.888,19.888,0,0,1-6.711,1.2" transform="translate(-368.366 -350.446)" fill="#4635b1"/>
        <path id="Trazado_902891" data-name="Trazado 902891" d="M541.107,470.863a7.051,7.051,0,0,1-2.727,1.471,4.97,4.97,0,0,1-1.059.16,1.487,1.487,0,1,1-.115-2.964,5.194,5.194,0,0,1,1.5.172q.138.036.272.077c.1.03.19.061.281.094a7.129,7.129,0,0,1,1.85.99" transform="translate(-372.393 -326.411)" fill="#fff"/>
        <path id="Trazado_902892" data-name="Trazado 902892" d="M528.286,471.161a6.636,6.636,0,0,1,3.787-1.631,5.184,5.184,0,0,1,1.5.173,2.772,2.772,0,0,1-.189,2.41c-.045.077-.093.149-.144.22a4.967,4.967,0,0,1-1.054.161,6.635,6.635,0,0,1-3.9-1.333" transform="translate(-367.26 -326.411)" fill="#4635b1"/>
        <path id="Trazado_902893" data-name="Trazado 902893" d="M517.88,475.152a.263.263,0,0,1-.254-.2,1.2,1.2,0,0,1,.144-1.152.91.91,0,0,1,.557-.259,1.729,1.729,0,0,0,.376-.105,1.522,1.522,0,0,0,.644-.551.262.262,0,1,1,.43.3,2.036,2.036,0,0,1-.868.734,2.242,2.242,0,0,1-.483.138c-.163.032-.225.048-.271.1-.1.1-.1.344-.022.672a.262.262,0,0,1-.191.317.252.252,0,0,1-.063.008" transform="translate(-359.799 -328.668)" fill="#4635b1"/>
        <path id="Trazado_902894" data-name="Trazado 902894" d="M520.984,490.211a.262.262,0,0,1-.073-.514,1.711,1.711,0,0,0,.918-.622,1.6,1.6,0,0,0,.324-1.125,2.089,2.089,0,0,0-.2.1,2.152,2.152,0,0,1-1.18.345,2.828,2.828,0,0,1-1.219-.329.262.262,0,1,1,.246-.463,2.3,2.3,0,0,0,.992.268,1.665,1.665,0,0,0,.9-.278c.231-.13.494-.278.746-.105a.6.6,0,0,1,.237.412,2.2,2.2,0,0,1-.424,1.478,2.231,2.231,0,0,1-1.2.818.269.269,0,0,1-.073.01" transform="translate(-361.093 -338.846)" fill="#4635b1"/>
        <path id="Trazado_902895" data-name="Trazado 902895" d="M559.414,477.754a3.079,3.079,0,1,0,4.571.829,3.3,3.3,0,0,0-4.571-.829" transform="translate(-387.624 -331.746)" fill="#c2b59d"/>
        <path id="Trazado_902896" data-name="Trazado 902896" d="M560.627,494.535h-.015A3.167,3.167,0,0,1,558,493.03a.262.262,0,1,1,.45-.268,2.653,2.653,0,0,0,2.191,1.25.262.262,0,0,1-.015.524" transform="translate(-387.891 -342.475)" fill="#4635b1"/>
        <path id="Trazado_902897" data-name="Trazado 902897" d="M567.421,478.006a.262.262,0,0,1-.211-.106,3.114,3.114,0,0,0-4.075-.531.262.262,0,0,1-.268-.451,3.6,3.6,0,0,1,4.763.669.262.262,0,0,1-.21.418" transform="translate(-391.212 -331.135)" fill="#4635b1"/>
        <path id="Trazado_902898" data-name="Trazado 902898" d="M570.049,484.855a.262.262,0,0,1-.134-.487,1.44,1.44,0,0,0,.643-.778,1.029,1.029,0,0,0-.075-.86,1.081,1.081,0,0,0-.952-.5h-.005a.262.262,0,0,1,0-.524,1.613,1.613,0,0,1,1.409.754,1.544,1.544,0,0,1,.123,1.292,1.967,1.967,0,0,1-.873,1.064.262.262,0,0,1-.134.037" transform="translate(-395.747 -334.88)" fill="#4635b1"/>
        <path id="Trazado_902899" data-name="Trazado 902899" d="M539.852,436.277a16.726,16.726,0,0,0-10.964-4.852,5.064,5.064,0,0,1-.271-3.8c1-2.694,5.2-4.665,10.078-3.568a5.429,5.429,0,0,0-2.455,1.316,6.613,6.613,0,0,1,3.988-.6c3.422.4,6.364,3.539,7.325,8.112a4.7,4.7,0,0,0-1.777-1.8,9.719,9.719,0,0,1,1.329,2.076,11.514,11.514,0,0,1,.23,8.464,10.872,10.872,0,0,0-7.484-5.349" transform="translate(-367.321 -294.588)" fill="#806432"/>
        <path id="Trazado_902900" data-name="Trazado 902900" d="M545.277,443.5a.262.262,0,0,1-.237-.372,5.151,5.151,0,0,1,4.546-2.987.257.257,0,0,1,.269.255.262.262,0,0,1-.255.269,4.614,4.614,0,0,0-3.8,2.159,16.932,16.932,0,0,1,5.537-.463.262.262,0,0,1-.042.522,16.407,16.407,0,0,0-5.947.607.253.253,0,0,1-.073.011" transform="translate(-378.89 -305.98)" fill="#4635b1"/>
        <path id="Trazado_902901" data-name="Trazado 902901" d="M531.838,69.332H478.383a.262.262,0,0,1-.262-.262V42.736a.262.262,0,0,1,.262-.262h53.455a.262.262,0,0,1,.262.262V69.071a.262.262,0,0,1-.262.262m-53.193-.524h52.931V43H478.645Z" transform="translate(-332.386 -29.528)" fill="#a68ab9"/>
        <path id="Trazado_902902" data-name="Trazado 902902" d="M610.495,59.741H599.743a.262.262,0,1,1,0-.524h10.752a.262.262,0,1,1,0,.524" transform="translate(-416.754 -41.167)" fill="#a68ab9"/>
        <path id="Trazado_902903" data-name="Trazado 902903" d="M524.468,59.741H500.514a.262.262,0,0,1,0-.524h23.954a.262.262,0,1,1,0,.524" transform="translate(-347.771 -41.167)" fill="#a68ab9"/>
        <path id="Trazado_902904" data-name="Trazado 902904" d="M570.831,70.138H542.689a.262.262,0,1,1,0-.524h28.142a.262.262,0,1,1,0,.524" transform="translate(-377.091 -48.395)" fill="#a68ab9"/>
        <path id="Trazado_902905" data-name="Trazado 902905" d="M510.023,70.138h-9.508a.262.262,0,1,1,0-.524h9.508a.262.262,0,1,1,0,.524" transform="translate(-347.771 -48.395)" fill="#a68ab9"/>
        <path id="Trazado_902906" data-name="Trazado 902906" d="M610.495,79.885H599.743a.262.262,0,1,1,0-.524h10.752a.262.262,0,1,1,0,.524" transform="translate(-416.754 -55.171)" fill="#a68ab9"/>
        <path id="Trazado_902907" data-name="Trazado 902907" d="M524.468,79.885H500.514a.262.262,0,0,1,0-.524h23.954a.262.262,0,1,1,0,.524" transform="translate(-347.771 -55.171)" fill="#a68ab9"/>
        <path id="Trazado_902908" data-name="Trazado 902908" d="M588.771,90.281H568.494a.262.262,0,1,1,0-.524h20.277a.262.262,0,1,1,0,.524" transform="translate(-395.03 -62.398)" fill="#a68ab9"/>
        <path id="Trazado_902909" data-name="Trazado 902909" d="M516.315,90.281h-15.8a.262.262,0,1,1,0-.524h15.8a.262.262,0,1,1,0,.524" transform="translate(-347.771 -62.398)" fill="#a68ab9"/>
        <path id="Trazado_902910" data-name="Trazado 902910" d="M524.468,105.226H500.514a.262.262,0,0,1,0-.524h23.954a.262.262,0,1,1,0,.524" transform="translate(-347.771 -72.788)" fill="#a68ab9"/>
        <path id="Trazado_902911" data-name="Trazado 902911" d="M514.741,115.623H500.513a.262.262,0,1,1,0-.524h14.228a.262.262,0,1,1,0,.524" transform="translate(-347.771 -80.016)" fill="#a68ab9"/>
        <rect id="Rectángulo_402566" data-name="Rectángulo 402566" width="50.692" height="22.492" transform="translate(130.808 5.69)" fill="#a68ab9"/>
        <path id="Trazado_902912" data-name="Trazado 902912" d="M552.744,37.675h-10.2a.262.262,0,1,1,0-.524h10.2a.262.262,0,1,1,0,.524" transform="translate(-376.987 -25.827)" fill="#fff"/>
        <path id="Trazado_902913" data-name="Trazado 902913" d="M471.094,37.675H448.359a.262.262,0,1,1,0-.524h22.734a.262.262,0,1,1,0,.524" transform="translate(-311.513 -25.827)" fill="#fff"/>
        <path id="Trazado_902914" data-name="Trazado 902914" d="M515.1,45.513h-26.71a.262.262,0,1,1,0-.524H515.1a.262.262,0,1,1,0,.524" transform="translate(-339.341 -31.276)" fill="#fff"/>
        <path id="Trazado_902915" data-name="Trazado 902915" d="M457.385,45.513H448.36a.262.262,0,0,1,0-.524h9.025a.262.262,0,1,1,0,.524" transform="translate(-311.514 -31.276)" fill="#fff"/>
        <path id="Trazado_902916" data-name="Trazado 902916" d="M552.744,52.86h-10.2a.262.262,0,1,1,0-.524h10.2a.262.262,0,1,1,0,.524" transform="translate(-376.987 -36.384)" fill="#fff"/>
        <path id="Trazado_902917" data-name="Trazado 902917" d="M471.094,52.86H448.359a.262.262,0,1,1,0-.524h22.734a.262.262,0,1,1,0,.524" transform="translate(-311.513 -36.384)" fill="#fff"/>
        <path id="Trazado_902918" data-name="Trazado 902918" d="M532.125,60.7H512.88a.262.262,0,1,1,0-.524h19.245a.262.262,0,1,1,0,.524" transform="translate(-356.368 -41.832)" fill="#fff"/>
        <path id="Trazado_902919" data-name="Trazado 902919" d="M463.356,60.7h-15a.262.262,0,1,1,0-.524h15a.262.262,0,1,1,0,.524" transform="translate(-311.513 -41.832)" fill="#fff"/>
        <path id="Trazado_902920" data-name="Trazado 902920" d="M471.094,71.964H448.359a.262.262,0,1,1,0-.524h22.734a.262.262,0,1,1,0,.524" transform="translate(-311.513 -49.665)" fill="#fff"/>
        <path id="Trazado_902921" data-name="Trazado 902921" d="M461.864,79.8h-13.5a.262.262,0,0,1,0-.524h13.5a.262.262,0,1,1,0,.524" transform="translate(-311.514 -55.113)" fill="#fff"/>
        <path id="Trazado_902922" data-name="Trazado 902922" d="M415.1,76.892l-6.16.555,6.508-7.381Z" transform="translate(-284.29 -48.71)" fill="#a68ab9"/>
        <path id="Trazado_902923" data-name="Trazado 902923" d="M468.417,45.527H417.725l-6.52-.044a.262.262,0,0,1-.2-.432l6.456-7.613V22.968a.262.262,0,0,1,.262-.262h50.692a.262.262,0,0,1,.262.262v22.3a.262.262,0,0,1-.262.262m-56.648-.564,5.958.04h50.428V23.23H417.987v14.3a.261.261,0,0,1-.062.169Z" transform="translate(-285.686 -15.785)" fill="#fff"/>
        <rect id="Rectángulo_402567" data-name="Rectángulo 402567" width="3.286" height="37.913" transform="matrix(0.99, -0.142, 0.142, 0.99, 21.41, 127.215)" fill="#a68ab9"/>
        <rect id="Rectángulo_402568" data-name="Rectángulo 402568" width="34.714" height="19.079" transform="matrix(0.99, -0.142, 0.142, 0.99, 3.2, 111.583)" fill="#a68ab9"/>
        <rect id="Rectángulo_402569" data-name="Rectángulo 402569" width="3.287" height="53.611" transform="translate(45.891 107.606) rotate(-24.656)" fill="#a68ab9"/>
        <path id="Trazado_902924" data-name="Trazado 902924" d="M78.489,301.789a.263.263,0,0,1-.238-.153l-9.682-21.1a.262.262,0,0,1,.129-.347l35.656-16.365a.262.262,0,0,1,.347.129l9.682,21.095a.262.262,0,0,1-.129.348L78.6,301.764a.258.258,0,0,1-.109.024M69.155,280.56l9.463,20.619,35.18-16.146-9.463-20.619Z" transform="translate(-47.652 -183.395)" fill="#794f96"/>
        <rect id="Rectángulo_402570" data-name="Rectángulo 402570" width="34.713" height="19.079" transform="translate(23.99 97.796) rotate(-24.653)" fill="#794f96"/>
        <path id="Trazado_902925" data-name="Trazado 902925" d="M173.314,325.193a.262.262,0,0,1-.11-.5l6.122-2.81a.262.262,0,0,1,.219.476l-6.122,2.81a.26.26,0,0,1-.109.024" transform="translate(-120.304 -223.754)" fill="#fff"/>
        <path id="Trazado_902926" data-name="Trazado 902926" d="M109.283,342.807a.262.262,0,0,1-.109-.5l17.369-7.972a.262.262,0,1,1,.219.476l-17.369,7.972a.258.258,0,0,1-.109.024" transform="translate(-75.79 -232.411)" fill="#fff"/>
        <path id="Trazado_902927" data-name="Trazado 902927" d="M93.657,321.115a.262.262,0,0,1-.109-.5l6.339-2.909a.262.262,0,1,1,.219.476l-6.339,2.91a.262.262,0,0,1-.109.024" transform="translate(-64.927 -220.85)" fill="#fff"/>
        <path id="Trazado_902928" data-name="Trazado 902928" d="M121.25,302.077a.262.262,0,0,1-.109-.5l12.428-5.7a.262.262,0,0,1,.219.476l-12.428,5.7a.258.258,0,0,1-.109.024" transform="translate(-84.11 -205.672)" fill="#fff"/>
        <path id="Trazado_902929" data-name="Trazado 902929" d="M98.245,321.168a.262.262,0,0,1-.111-.5l17.055-7.977a.262.262,0,0,1,.222.475l-17.055,7.977a.262.262,0,0,1-.111.025" transform="translate(-68.117 -217.363)" fill="#fff"/>
        <path id="Trazado_902930" data-name="Trazado 902930" d="M159.969,303.071a.262.262,0,0,1-.112-.5l6.956-3.253a.262.262,0,0,1,.222.475l-6.955,3.254a.264.264,0,0,1-.111.025" transform="translate(-111.027 -208.067)" fill="#fff"/>
        <path id="Trazado_902931" data-name="Trazado 902931" d="M103.892,339.451a.262.262,0,0,1-.111-.5l10.693-5a.262.262,0,1,1,.222.475l-10.693,5a.262.262,0,0,1-.111.025" transform="translate(-72.043 -232.142)" fill="#fff"/>
        <path id="Trazado_902932" data-name="Trazado 902932" d="M146,317.463a.262.262,0,0,1-.111-.5l12.843-6.007a.262.262,0,1,1,.222.475l-12.843,6.008a.262.262,0,0,1-.111.025" transform="translate(-101.312 -216.157)" fill="#fff"/>
        <path id="Trazado_902933" data-name="Trazado 902933" d="M258.782,571.935l-10.7-61.721-4.984.84,10.555,60.881Z" transform="translate(-168.997 -354.697)" fill="#794f96"/>
        <path id="Trazado_902934" data-name="Trazado 902934" d="M141.492,441.007a.262.262,0,0,1-.258-.217l-6.1-35.2a.262.262,0,0,1,.213-.3l59.5-10.311a.262.262,0,0,1,.3.213l6.1,35.2a.262.262,0,0,1-.214.3L141.537,441a.253.253,0,0,1-.045,0m-5.8-35.249,6.011,34.684,58.981-10.222-6.011-34.683Z" transform="translate(-93.941 -274.581)" fill="#794f96"/>
        <rect id="Rectángulo_402571" data-name="Rectángulo 402571" width="53.429" height="29.365" transform="translate(45.369 133.21) rotate(-9.832)" fill="#815a9c"/>
        <path id="Trazado_902935" data-name="Trazado 902935" d="M186.533,491.874a.262.262,0,0,1-.044-.52l40.393-7a.262.262,0,0,1,.09.516l-40.393,7a.253.253,0,0,1-.045,0" transform="translate(-129.494 -336.716)" fill="#fff"/>
        <path id="Trazado_902936" data-name="Trazado 902936" d="M168.534,448.6a.262.262,0,0,1-.044-.52l12.616-2.186a.262.262,0,0,1,.09.516L168.579,448.6a.253.253,0,0,1-.045,0" transform="translate(-116.982 -309.981)" fill="#fff"/>
        <path id="Trazado_902937" data-name="Trazado 902937" d="M217.759,435.579a.262.262,0,0,1-.044-.52L241.7,430.9a.262.262,0,0,1,.09.516L217.8,435.575a.253.253,0,0,1-.045,0" transform="translate(-151.202 -299.557)" fill="#fff"/>
        <path id="Trazado_902938" data-name="Trazado 902938" d="M170.789,463.8a.262.262,0,0,1-.046-.52l21.519-3.89a.262.262,0,0,1,.093.516l-21.519,3.89a.274.274,0,0,1-.047,0" transform="translate(-118.549 -319.363)" fill="#fff"/>
        <path id="Trazado_902939" data-name="Trazado 902939" d="M252.271,450.421a.262.262,0,0,1-.046-.52l18.253-3.3a.262.262,0,1,1,.093.516l-18.253,3.3a.277.277,0,0,1-.047,0" transform="translate(-175.195 -310.471)" fill="#fff"/>
        <path id="Trazado_902940" data-name="Trazado 902940" d="M174.665,486.487a.262.262,0,0,1-.046-.52L188,483.549a.262.262,0,0,1,.093.516l-13.377,2.418a.274.274,0,0,1-.047,0" transform="translate(-121.244 -336.156)" fill="#fff"/>
        <path id="Trazado_902941" data-name="Trazado 902941" d="M226.378,471.45a.262.262,0,0,1-.046-.52l27.171-4.912a.262.262,0,1,1,.093.516l-27.171,4.912a.274.274,0,0,1-.047,0" transform="translate(-157.194 -323.969)" fill="#fff"/>
        <path id="Trazado_902942" data-name="Trazado 902942" d="M242.592,631.612a21.756,21.756,0,0,0,12.283.822,27.264,27.264,0,0,0,4.741-1.525c.682-.508.424-1.614.272-2.255a43.274,43.274,0,0,0-3.079-5.041c-2.35-2.979-3.862-1.684-7.381-4.3-3.992-2.971-4.559-6.9-5.8-6.612-.86.2-1.064,1.746-.3,4.79h0c-.847-2.246-1.253-5.189-2.493-4.718-1.4.621-1.185,4.265-.415,6.469-.932-2.668-1.346-3.71-2.051-3.421-1.074.44-1.179,2.838-.176,6.448h0c-.813-2.36-1.74.314-1.479,1.82a12.324,12.324,0,0,0,2,3.825c2,2.3,2.488,2.787,3.877,3.7" transform="translate(-164.532 -425.933)" fill="#a79472"/>
        <path id="Trazado_902943" data-name="Trazado 902943" d="M279.411,629.466c-1.028-4.322-1.537-6.552-1.154-6.659,1.265-.352,4.9,3.156,8.4,9.507-2.04-.463-5.2-2.386-7.245-2.849" transform="translate(-193.354 -432.954)" fill="#a79472"/>
        <path id="Trazado_902944" data-name="Trazado 902944" d="M261.071,631.666a.262.262,0,0,1-.165-.058,9.985,9.985,0,0,1-2.766-3.529.262.262,0,0,1,.475-.223,9.46,9.46,0,0,0,2.62,3.345.262.262,0,0,1-.165.466" transform="translate(-179.44 -436.375)" fill="#4635b1"/>
        <path id="Trazado_902945" data-name="Trazado 902945" d="M251.173,636.262a.262.262,0,0,1-.165-.058,9.986,9.986,0,0,1-2.766-3.529.262.262,0,0,1,.475-.223,9.468,9.468,0,0,0,2.62,3.345.262.262,0,0,1-.165.466" transform="translate(-172.559 -439.571)" fill="#4635b1"/>
        <path id="Trazado_902946" data-name="Trazado 902946" d="M243.941,647.4a.262.262,0,0,1-.165-.058,9.986,9.986,0,0,1-2.766-3.529.262.262,0,0,1,.475-.223,9.467,9.467,0,0,0,2.62,3.345.262.262,0,0,1-.165.466" transform="translate(-167.532 -447.311)" fill="#4635b1"/>
        <path id="Trazado_902947" data-name="Trazado 902947" d="M281.149,664.406,265.9,643.229l-13.926,7.546,7.8,13.631Z" transform="translate(-175.174 -447.168)" fill="#a79472"/>
        <path id="Trazado_902948" data-name="Trazado 902948" d="M93.912,602.434,99.24,554.7l-5.273-.612-5.394,48.348Z" transform="translate(-61.575 -385.196)" fill="#794f96"/>
        <path id="Trazado_902949" data-name="Trazado 902949" d="M81.3,483.848h-.029L32.9,478.453a.262.262,0,0,1-.231-.29l4.153-37.239a.261.261,0,0,1,.29-.232l48.371,5.394a.262.262,0,0,1,.231.29l-4.153,37.239a.262.262,0,0,1-.26.233m-48.081-5.887,47.85,5.336,4.1-36.719-47.85-5.336Z" transform="translate(-22.709 -306.364)" fill="#5e2b80"/>
        <rect id="Rectángulo_402572" data-name="Rectángulo 402572" width="30.8" height="43.064" transform="matrix(0.111, -0.994, 0.994, 0.111, 13.409, 168.514)" fill="#a5916d"/>
        <path id="Trazado_902950" data-name="Trazado 902950" d="M107.241,493.182a2.172,2.172,0,0,1,.932-1.606,2.956,2.956,0,0,1,3.711.414,2.3,2.3,0,0,1-.377,3.378,2.954,2.954,0,0,1-3.711-.414,2.169,2.169,0,0,1-.555-1.772m5.011-3.8-3.794-.423.945-13.9,4.989.557Z" transform="translate(-74.541 -330.258)" fill="#fff"/>
        <path id="Trazado_902951" data-name="Trazado 902951" d="M83.888,662.324a19.763,19.763,0,0,1-10.575-2.649,23.508,23.508,0,0,1-3.472-2.529c.807-1.368,1.411-2.383,1.709-2.867a6.778,6.778,0,0,1,1.2-1.51c2.4-2.23,5.424-.268,8.566-2.373a4.207,4.207,0,0,0,1.534-1.725c.842-1.811-.3-2.761.422-3.156.508-.277,3.646.025,2.823,4.417l-.176.505c.785-2.607-.159-3.185,1.713-2.743,1.452.671,2.022,3.294,1.08,5.073,1.058-2-.222-3.02.414-2.855,1.731.447,2.652,3.457.593,5.936h0c.926-1.379,1.354-1.473,1.59-.923.431,1-.1,3.132-1.9,4.672a13.606,13.606,0,0,1-5.523,2.727" transform="translate(-48.553 -448.705)" fill="#c2b59d"/>
        <path id="Trazado_902952" data-name="Trazado 902952" d="M81.013,654.446c.678-4.192,1.092-5.542.425-5.628-1.123-.145-4.225,2.891-5.988,8.892,1.632-.77,3.932-2.494,5.564-3.264" transform="translate(-52.452 -451.049)" fill="#c2b59d"/>
        <path id="Trazado_902953" data-name="Trazado 902953" d="M117.115,657.623a.262.262,0,0,1-.132-.488l.125-.074a3.854,3.854,0,0,0,1.527-3.574.262.262,0,1,1,.515-.1,4.385,4.385,0,0,1-1.769,4.119l-.133.079a.261.261,0,0,1-.132.036" transform="translate(-81.235 -454.082)" fill="#4635b1"/>
        <path id="Trazado_902954" data-name="Trazado 902954" d="M123.394,665.01a.262.262,0,0,1-.147-.479.392.392,0,0,1,.107-.047,3.388,3.388,0,0,0,2.377-3.766.262.262,0,1,1,.522-.043,3.936,3.936,0,0,1-2.734,4.306l-.022.008a.265.265,0,0,1-.1.021" transform="translate(-85.6 -459.129)" fill="#4635b1"/>
        <path id="Trazado_902955" data-name="Trazado 902955" d="M126.845,679.92a.262.262,0,0,1-.12-.5c.172-.088.342-.184.507-.284a11.774,11.774,0,0,0,2.092-1.859.262.262,0,1,1,.381.36,12.232,12.232,0,0,1-2.2,1.946c-.175.107-.357.208-.54.3a.259.259,0,0,1-.119.029" transform="translate(-88 -470.784)" fill="#4635b1"/>
        <path id="Trazado_902956" data-name="Trazado 902956" d="M46.313,678.7l5.572-4.974-9.364-9.936-20.3,14.755c-.085.062-.166.155-.248.155Z" transform="translate(-15.274 -461.46)" fill="#c2b59d"/>
      </g>
    </g>
  </g>
</svg>
