<svg xmlns="http://www.w3.org/2000/svg" xmlns:xlink="http://www.w3.org/1999/xlink" width="90" height="90" viewBox="0 0 90 90">
  <defs>
    <clipPath id="clip-path">
      <rect id="Rectángulo_402448" data-name="Rectángulo 402448" width="56.397" height="56.377" fill="#698d59"/>
    </clipPath>
  </defs>
  <g id="Grupo_1102763" data-name="Grupo 1102763" transform="translate(-1079.755 -1805.014)">
    <path id="Trazado_876531" data-name="Trazado 876531" d="M45,0A45,45,0,1,1,0,45,45,45,0,0,1,45,0Z" transform="translate(1079.755 1805.014)" fill="#fff"/>
    <g id="Grupo_1102168" data-name="Grupo 1102168" transform="translate(1094.051 1821.825)">
      <g id="Grupo_1102167" data-name="Grupo 1102167" clip-path="url(#clip-path)">
        <path id="Trazado_901713" data-name="Trazado 901713" d="M19.381,30.063a20.38,20.38,0,0,1-2.748-11.438A19.878,19.878,0,0,1,56,16.123a19.191,19.191,0,0,1-4.181,16.372,1.487,1.487,0,0,0-.3,1.836,10.65,10.65,0,0,1-2.986,12.724,1.879,1.879,0,0,0-.783,1.68c.044,2.073.047,4.148-.011,6.22a1.732,1.732,0,0,1-.573,1.258c-.245.162-.881-.078-1.234-.306q-1.823-1.174-3.56-2.481a1.019,1.019,0,0,0-1.441-.02c-1.189.89-2.405,1.749-3.656,2.549a1.51,1.51,0,0,1-1.245.216A1.555,1.555,0,0,1,35.507,55c-.05-2.151.012-4.3-.053-6.455a2.056,2.056,0,0,0-.621-1.356,10.956,10.956,0,0,1-3.966-7.347A1.238,1.238,0,0,0,29.9,38.62c-1.173-.408-2.295-.962-3.6-1.525-.809.853-1.65,1.779-2.532,2.663Q16.261,47.28,8.738,54.78a4.987,4.987,0,0,1-5.824,1.1,5.044,5.044,0,0,1-2.9-4.948,5.362,5.362,0,0,1,1.732-3.486q8.315-8.286,16.61-16.591a9.8,9.8,0,0,1,1.026-.79M37.834,7.485c-7.374,0-12.513,4.213-13.591,10.071a12.468,12.468,0,0,0,7.919,14,1.37,1.37,0,0,0,1.715-.37A10.364,10.364,0,0,1,44.3,28.242a1.638,1.638,0,0,0,2.037-.753c2.946-4.114,3.486-8.531,1.287-13.066-2.208-4.556-6.059-6.781-9.789-6.938M19.987,32.028l.093-.62a6.335,6.335,0,0,1-.71,1.078Q11.634,40.256,3.873,48a15.371,15.371,0,0,0-1.292,1.357,2.965,2.965,0,0,0-.415,3.2,3.076,3.076,0,0,0,2.623,1.9,3.479,3.479,0,0,0,2.893-1.268q8.2-8.221,16.414-16.423c.219-.219.418-.456.627-.685l-.335.277-4.4-4.33m30.594,6.735a8.956,8.956,0,1,0-8.994,8.9,8.89,8.89,0,0,0,8.994-8.9M37.463,5.566A14.423,14.423,0,0,1,50.81,18.961h3.55c-.293-9.916-9.086-17.046-16.9-16.893Zm-2.015-3.6c-10.932.6-17.1,10.27-16.752,17,.845,0,1.7-.048,2.548.014.778.057.973-.286,1.067-1A13.891,13.891,0,0,1,28.533,7.956a14.885,14.885,0,0,1,6.915-2.4ZM18.612,20.9c-.239,6.648,6.317,15.1,12.263,15.936l1.094-3.3A14.519,14.519,0,0,1,22.133,20.9ZM50.035,31.689a17.657,17.657,0,0,0,4.38-10.77h-3.63a14.844,14.844,0,0,1-3.509,8.41l2.76,2.361M45.82,48.74a11.582,11.582,0,0,1-8.389.042v4.78c1.119-.779,2.138-1.415,3.069-2.16a1.609,1.609,0,0,1,2.3.012c.923.727,1.92,1.359,3.021,2.127Z" transform="translate(0 0)" fill="#698d59"/>
        <path id="Trazado_901714" data-name="Trazado 901714" d="M123.84,62.308c.931-1.733-.036-3.065-1.511-4.435a2.275,2.275,0,0,1,1.22-3.838.8.8,0,0,1,.23-.041,3.363,3.363,0,0,0,3.674-2.646,2.065,2.065,0,0,1,2.129-1.365,2.873,2.873,0,0,1,2.331,1.818,2.779,2.779,0,0,0,3,2.161,2.365,2.365,0,0,1,2.4,1.7,2.253,2.253,0,0,1-.953,2.674,2.961,2.961,0,0,0-1.157,3.739,2.247,2.247,0,0,1-.818,2.616,2.3,2.3,0,0,1-2.741.1,7.055,7.055,0,0,1-.822-.445,1.967,1.967,0,0,0-2.567.014,5.887,5.887,0,0,1-1.136.6c-1.734.717-3.373-.454-3.286-2.653m5.778-10.515c-.212.142-.336.184-.393.271a2.936,2.936,0,0,0-.4.71,3.973,3.973,0,0,1-4.074,3.027,3.631,3.631,0,0,0-1.119.425,3.969,3.969,0,0,0,.691,1.012,3.824,3.824,0,0,1,1.539,4.618,3.848,3.848,0,0,0,.053,1.321,4.8,4.8,0,0,0,1.273-.39c1.469-.954,2.9-1.248,4.458-.16a5.962,5.962,0,0,0,1.573.538,5.965,5.965,0,0,0-.02-1.661,3.426,3.426,0,0,1,1.35-4.02,12.012,12.012,0,0,0,1.221-1.33c-1.472-.379-2.936-.4-3.91-1.1s-1.484-2.1-2.243-3.257" transform="translate(-93.081 -38.246)" fill="#698d59"/>
        <path id="Trazado_901715" data-name="Trazado 901715" d="M147.762,142.12a6.957,6.957,0,1,1,6.911,6.962,6.97,6.97,0,0,1-6.911-6.962m1.89-.033a5.015,5.015,0,0,0,5.019,5.1,5.076,5.076,0,1,0-5.019-5.1" transform="translate(-113.067 -103.411)" fill="#698d59"/>
      </g>
    </g>
  </g>
</svg>
