<svg xmlns="http://www.w3.org/2000/svg" xmlns:xlink="http://www.w3.org/1999/xlink" width="90" height="90" viewBox="0 0 90 90">
  <defs>
    <clipPath id="clip-path">
      <rect id="Rectángulo_402519" data-name="Rectángulo 402519" width="69.491" height="69.545" fill="#fff"/>
    </clipPath>
  </defs>
  <g id="Grupo_1102764" data-name="Grupo 1102764" transform="translate(-1180.414 -3864)">
    <circle id="Elipse_11517" data-name="Elipse 11517" cx="45" cy="45" r="45" transform="translate(1180.414 3864)" fill="#382a8e"/>
    <g id="Grupo_1102244" data-name="Grupo 1102244" transform="translate(1190.6 3874.228)">
      <g id="Grupo_1102243" data-name="Grupo 1102243" clip-path="url(#clip-path)">
        <path id="Trazado_901947" data-name="Trazado 901947" d="M98.6,117.027v10.022c.5.034.986.047,1.469.1a1.484,1.484,0,0,1,1.508,1.626,7.606,7.606,0,0,1-.024,1.248,1.238,1.238,0,0,1-1.155,1.185,9.971,9.971,0,0,1-1.246.051q-10.9,0-21.792,0c-.37,0-.741,0-1.109-.033a1.307,1.307,0,0,1-1.3-1.357,9.31,9.31,0,0,1-.007-1.11,1.485,1.485,0,0,1,1.523-1.612c.451-.05.907-.051,1.447-.078V117.033c-.759,0-1.439-.015-2.117,0a1.462,1.462,0,0,1-1.628-1c-.234-.714.05-1.31.926-1.8,3.151-1.751,6.318-3.475,9.478-5.21.687-.377,1.372-.76,1.978-1.1a14.861,14.861,0,0,1-.9-1.852c-.395-1.2-1.219-1.588-2.281-.973-1.321.764-1.321.764-2.441-.347q-.345-.342-.687-.687c-1.28-1.282-1.28-1.282-.47-2.863a1.378,1.378,0,0,0-.9-2.031c-1.651-.515-1.651-.515-1.653-2.261q0-.277,0-.555c0-1.922,0-1.922,1.793-2.564a1.374,1.374,0,0,0,.755-2c-.151-.285-.447-.53-.5-.823a1.577,1.577,0,0,1,.127-1.129c.649-.779,1.408-1.467,2.133-2.181.562-.554,1.115-.311,1.608.093a1.351,1.351,0,0,0,1.88.152,2.252,2.252,0,0,0,.671-1.26,1.247,1.247,0,0,1,1.527-1.192,17.461,17.461,0,0,0,2.081,0c.883-.053,1.394.248,1.524,1.19a2.007,2.007,0,0,0,.551,1.2,1.439,1.439,0,0,0,1.9.007c1.113-.764,1.181-.711,2.114.2.5.484.961,1.005,1.478,1.466a1.234,1.234,0,0,1,.2,1.823c-.914,1.466-.6,2.23,1.112,2.617a1.214,1.214,0,0,1,1.124,1.435c-.024.415,0,.833,0,1.249,0,1.936,0,1.936-1.787,2.571a1.376,1.376,0,0,0-.765,2c.151.285.445.53.5.823a1.578,1.578,0,0,1-.121,1.13c-.648.779-1.407,1.467-2.131,2.182-.561.553-1.071.253-1.621-.067a2.346,2.346,0,0,0-1.243-.427,1.278,1.278,0,0,0-1.257,1.237,1.649,1.649,0,0,1-1.252,1.652c1.419.784,2.666,1.478,3.917,2.164q3.587,1.967,7.177,3.928c.324.177.65.354.963.55a1.38,1.38,0,0,1,.663,1.669,1.313,1.313,0,0,1-1.354.981c-.736.007-1.472,0-2.39,0M86.84,126.9c2.165.361,8.988.246,10.044-.172,0-.738,0-1.52,0-2.3,0-2.45-.015-4.9.009-7.35.014-1.364.252-1.566,1.638-1.636.344-.017.687-.066,1.223-.12a4.774,4.774,0,0,0-.554-.463c-3.359-1.85-6.729-3.681-10.079-5.549a1.8,1.8,0,0,0-1.939.091c-3.19,1.772-6.4,3.513-9.6,5.272-.264.145-.5.34-.991.679.7.044,1.1.073,1.492.092,1.286.061,1.486.262,1.516,1.59.015.677,0,1.354,0,1.876,2.411,0,4.621-.04,6.83.018.976.026,1.177.505.749,1.376a2.264,2.264,0,0,0-.33.871c-.03,1.889-.015,3.778-.015,5.726M87.2,87.155c.064,1.388-.715,1.93-1.773,2.432a2.762,2.762,0,0,1-3.189-.432l-1.4,1.385a2.523,2.523,0,0,1,.517,3.13,2.866,2.866,0,0,1-2.4,1.913v1.961a2.392,2.392,0,0,1,2.385,1.764,2.585,2.585,0,0,1-.214,2.935l1.179,1.641a2.636,2.636,0,0,1,3.1-.485,2.814,2.814,0,0,1,1.927,2.427h1.9a2.827,2.827,0,0,1,1.935-2.447,2.868,2.868,0,0,1,2.934.283l1.479-1.113a3.247,3.247,0,0,1,1.979-5.174V95.487a2.6,2.6,0,0,1-2.4-1.851,2.818,2.818,0,0,1,.366-3.088L94.3,89.114a2.843,2.843,0,0,1-3.23.472,3.009,3.009,0,0,1-1.907-2.431ZM82.13,127.046h3.026V120.54H82.13Zm17.043,2.232c-1.141-.54-14.8-.756-21.452-.447a9.148,9.148,0,0,0-1.19.242c1.177.548,15.515.775,21.465.455a8.871,8.871,0,0,0,1.177-.251m-19.268-9-.27.092a45.084,45.084,0,0,0,.188,6.935c.571-.909.844-5.026.55-6.327-.058-.255-.307-.467-.467-.7" transform="translate(-53.522 -61.72)" fill="#fff"/>
        <path id="Trazado_901948" data-name="Trazado 901948" d="M199.187,84.049a9.152,9.152,0,0,1-1.473,5.011,16.281,16.281,0,0,1-1.157,1.725,7.866,7.866,0,0,0-1.876,5.911c.046.458,0,.924.007,1.386a2.486,2.486,0,0,1-1.37,2.377,3.736,3.736,0,0,0-.856.963c-.084.1-.1.261-.172.374-.931,1.4-2.38.949-3.672.995A2,2,0,0,1,186.4,101.5a1.875,1.875,0,0,0-1.057-1.16,2.064,2.064,0,0,1-1.181-1.9,1.893,1.893,0,0,1-.01-.277,11.189,11.189,0,0,0-2.691-8.59,9.222,9.222,0,0,1-1.818-6.932,8.21,8.21,0,0,1,5.849-7.2,11.4,11.4,0,0,1,8,.052c3.715,1.368,5.733,4.352,5.694,8.551M187.161,94.474c0-1.514-.046-2.85.016-4.18a1.82,1.82,0,0,0-1.044-1.883,5.087,5.087,0,0,1-2.467-3.981,2.051,2.051,0,0,1,1.091-2.21,1.866,1.866,0,0,1,2.212.732,13.207,13.207,0,0,1,1.327,2.7,12.719,12.719,0,0,1,.449,1.964c1.345.158,1.316.152,1.551-.958a11.015,11.015,0,0,1,.681-2.386,4.982,4.982,0,0,1,1.317-1.741,1.641,1.641,0,0,1,2.756,1.018,2.979,2.979,0,0,1,.038,1.093,5.46,5.46,0,0,1-2.586,3.921c-.345.222-.781.633-.8.976-.085,1.6-.037,3.21-.037,4.788,1.352.217,1.292.19,1.638-.577.566-1.253,1.186-2.485,1.848-3.691.532-.971,1.259-1.842,1.725-2.839a7.441,7.441,0,0,0-2.136-9.341,9.8,9.8,0,0,0-10.954.2,6.5,6.5,0,0,0-2.478,3.889,8.749,8.749,0,0,0,1.617,7.081c1.152,1.668,2.458,3.255,2.7,5.418Zm2.8-.048V89.349l-1.258.167c0,1.468-.007,2.848,0,4.227.006.8.475.906,1.255.684m3.106,2.043c-1.906-.5-6.362-.388-7.082.108a22.179,22.179,0,0,0,7.082-.108m-6.934,2.106c1.227.65,5.58.58,6.611,0Zm.729-11.586c-.209-2.038-.512-2.613-1.563-3.086a3.463,3.463,0,0,0,1.563,3.086m6.665-3.131a2.64,2.64,0,0,0-1.427,2.867c1.081-.791,1.316-1.241,1.427-2.867" transform="translate(-129.7 -53.989)" fill="#fff"/>
        <path id="Trazado_901949" data-name="Trazado 901949" d="M10.351,88.315A10.258,10.258,0,1,1,0,98.531,10.266,10.266,0,0,1,10.351,88.315M17.578,103c2.3-2.791,1.735-7.769-1.248-10.671A8.723,8.723,0,0,0,4.479,92C.86,95.151.765,100.484,2.86,103.054l4.225-3.275c-1.656-2.417-1.629-4.654.114-6.333a4.368,4.368,0,0,1,5.714-.319c2,1.533,2.165,3.753.541,6.7L17.578,103M4.161,104.574c3.15,3.95,10.108,3.166,12.109-.039a7.015,7.015,0,0,0-12.109.039m3.314-7.962A2.746,2.746,0,0,0,10.3,99.4a2.785,2.785,0,0,0,0-5.569,2.724,2.724,0,0,0-2.823,2.778" transform="translate(0 -63.79)" fill="#fff"/>
        <path id="Trazado_901950" data-name="Trazado 901950" d="M108.389,15.493c.457.027.914.038,1.369.083a1.7,1.7,0,0,1,1.773,1.745,12.256,12.256,0,0,1,.035,1.8c-.066,1.64-.674,2.248-2.305,2.266-2.034.022-4.069.006-6.1.006s-4.069.013-6.1,0c-1.723-.015-2.313-.608-2.384-2.333-.006-.139,0-.277,0-.416-.023-2.595.237-2.877,2.852-3.111a3.343,3.343,0,0,0,.569-.2A8.683,8.683,0,0,1,94.847,6.8a8.065,8.065,0,0,1,2.932-4.893,8.426,8.426,0,0,1,11.249.509,8.209,8.209,0,0,1,2.491,6.66,8.585,8.585,0,0,1-3.317,6.16Zm-5.274-13.9a6.894,6.894,0,0,0-6.872,6.893A6.879,6.879,0,0,0,110,8.469a6.9,6.9,0,0,0-6.884-6.881M96.388,19.616h13.229c.5-2.075.3-2.39-1.6-2.4-3.417-.021-6.834-.013-10.251,0-.44,0-.879.087-1.382.141Z" transform="translate(-68.376 0)" fill="#fff"/>
        <path id="Trazado_901951" data-name="Trazado 901951" d="M34.384,44.847a4.384,4.384,0,0,1-.558-1.231,1.935,1.935,0,0,1,.386-.871,28.551,28.551,0,0,1,13.126-12.1,2.764,2.764,0,0,1,1.04-.336.927.927,0,0,1,.746.4,1.061,1.061,0,0,1-.231.841c-.151.2-.472.27-.723.385A27.259,27.259,0,0,0,35.5,43.525a10.793,10.793,0,0,1-1.121,1.321" transform="translate(-24.432 -21.89)" fill="#fff"/>
        <path id="Trazado_901952" data-name="Trazado 901952" d="M34.38,167.81a10.569,10.569,0,0,1,1.129,1.314,22.509,22.509,0,0,0,4.318,5.732c1.777,1.6,3.738,2.99,5.625,4.463a6.886,6.886,0,0,0,.721.411c.425.255.783.581.5,1.116-.326.626-.826.421-1.3.173-.163-.085-.323-.178-.483-.27a28.421,28.421,0,0,1-10.6-10.7,2.478,2.478,0,0,1-.45-1c-.011-.315.258-.639.535-1.248" transform="translate(-24.446 -121.209)" fill="#fff"/>
        <path id="Trazado_901953" data-name="Trazado 901953" d="M161.838,29.889c.428.159.736.255,1.028.386a28.439,28.439,0,0,1,10.989,8.684,1.765,1.765,0,0,1,.437.694,1.034,1.034,0,0,1-.21.828.917.917,0,0,1-.843.018,3.071,3.071,0,0,1-.74-.809A27.267,27.267,0,0,0,162.349,31.7a2.7,2.7,0,0,1-.855-.437,1.059,1.059,0,0,1-.274-.832c.058-.227.418-.378.618-.54" transform="translate(-116.439 -21.589)" fill="#fff"/>
        <path id="Trazado_901954" data-name="Trazado 901954" d="M180.852,182.619a6.814,6.814,0,0,1-.442.741,28.6,28.6,0,0,1-8.823,7.686c-.2.112-.43.277-.626.254-.282-.034-.675-.151-.78-.357a1.135,1.135,0,0,1,.142-.856c.091-.177.362-.27.562-.383a27.729,27.729,0,0,0,8.305-7.241,2.355,2.355,0,0,1,.584-.579.744.744,0,0,1,1.078.736" transform="translate(-122.891 -131.305)" fill="#fff"/>
        <path id="Trazado_901955" data-name="Trazado 901955" d="M129.915,202.252c-.924,0-1.848,0-2.771,0a.968.968,0,0,1-1.12-1.084c-.027-3.671-.243-3.147,2.906-3.18,1.155-.012,2.309.012,3.464,0,.79-.006,1.214.324,1.193,1.155-.018.693,0,1.386-.011,2.079a.914.914,0,0,1-1.029,1.022h-2.632v0m1.842-1.659.294-.268c-.21-.252-.405-.7-.633-.722a27.525,27.525,0,0,0-3.175-.035c-.655.025-.688.45-.463,1.024Z" transform="translate(-91.018 -143.002)" fill="#fff"/>
        <path id="Trazado_901956" data-name="Trazado 901956" d="M118.611,179.557a2.5,2.5,0,0,1-2.549-2.536,2.514,2.514,0,1,1,5.028-.071,2.5,2.5,0,0,1-2.478,2.606m-.228-3.484a2.879,2.879,0,0,0-.674.837.786.786,0,0,0,.807,1.008,1.525,1.525,0,0,0,.92-.794c.2-.477-.291-1-1.053-1.051" transform="translate(-83.832 -126.021)" fill="#fff"/>
        <path id="Trazado_901957" data-name="Trazado 901957" d="M115.331,109.331a6.112,6.112,0,1,1-6.1-6.094,6.154,6.154,0,0,1,6.1,6.094m-6.143-4.465a4.485,4.485,0,1,0,4.515,4.454,4.492,4.492,0,0,0-4.515-4.454" transform="translate(-74.474 -74.569)" fill="#fff"/>
        <path id="Trazado_901958" data-name="Trazado 901958" d="M117.064,12.721v1.626c.489.258.954.465,1.38.735a2.294,2.294,0,0,1-.267,4.188c-.59.251-1.1.448-1.362,1.184a.759.759,0,0,1-1.453-.125c-.194-.657-.669-.775-1.091-1.1a7.328,7.328,0,0,1-1.559-1.668,1.158,1.158,0,0,1,.267-1.064c.384-.357.856-.194,1.19.244a2.065,2.065,0,0,0,.975.775V15.922c-.408-.218-.831-.407-1.216-.656a2.377,2.377,0,0,1,.062-4.205c.582-.344,1.177-.528,1.433-1.333.231-.725,1.179-.668,1.447.107A1.7,1.7,0,0,0,118,10.9a2.338,2.338,0,0,1,1.54,1.662,1.264,1.264,0,0,1-.395,1.027c-.176.141-.7-.009-.976-.176a5.064,5.064,0,0,1-.878-.856l-.231.162" transform="translate(-81.374 -6.658)" fill="#fff"/>
      </g>
    </g>
  </g>
</svg>
