<svg xmlns="http://www.w3.org/2000/svg" xmlns:xlink="http://www.w3.org/1999/xlink" width="90" height="90" viewBox="0 0 90 90">
  <defs>
    <clipPath id="clip-path">
      <rect id="Rectángulo_402520" data-name="Rectángulo 402520" width="58.172" height="56.637" fill="#fff"/>
    </clipPath>
  </defs>
  <g id="Grupo_1102765" data-name="Grupo 1102765" transform="translate(-337.467 -4186.318)">
    <path id="Trazado_876532" data-name="Trazado 876532" d="M45,0A45,45,0,1,1,0,45,45,45,0,0,1,45,0Z" transform="translate(337.467 4186.318)" fill="#382a8e"/>
    <g id="Grupo_1102246" data-name="Grupo 1102246" transform="translate(353.381 4203)">
      <g id="Grupo_1102245" data-name="Grupo 1102245" clip-path="url(#clip-path)">
        <path id="Trazado_901959" data-name="Trazado 901959" d="M69.261,83.063a7.624,7.624,0,0,1-.506-1.136,1.984,1.984,0,0,0-2.541-1.8c-.772.118-1.154-.422-1.142-1.214.015-1.026.04-2.054-.008-3.078-.051-1.106.48-1.492,1.517-1.471.507.01,1.271.059,1.473-.226a7.679,7.679,0,0,0,1.015-2.388c.058-.209-.4-.589-.654-.852-1.262-1.284-1.266-1.441.027-2.737.591-.592,1.194-1.172,1.771-1.776a1.123,1.123,0,0,1,1.855,0c.392.4.884,1.081,1.262,1.037a6.245,6.245,0,0,0,2.41-.935c.245-.148.234-.813.244-1.244.038-1.614.183-1.78,1.758-1.79.836-.005,1.674.027,2.508-.007,1.049-.042,1.562.393,1.528,1.476-.016.519-.118,1.31.157,1.509a6.314,6.314,0,0,0,2.386,1.005c.306.063.775-.489,1.117-.816,1.048-1,1.29-1.013,2.331.018.621.615,1.211,1.264,1.861,1.848a1.222,1.222,0,0,1,.014,2.1c-.379.349-.99.847-.935,1.187a6.268,6.268,0,0,0,.972,2.4c.172.26.907.18,1.387.195,1.341.04,1.614.287,1.631,1.6.011.836.008,1.673,0,2.509-.012,1.414-.265,1.658-1.647,1.7-.477.015-1.208-.055-1.379.206a8.188,8.188,0,0,0-.988,2.4c-.058.218.384.6.641.865,1.281,1.314,1.285,1.416-.035,2.735-.591.591-1.2,1.169-1.772,1.775a1.111,1.111,0,0,1-1.848,0c-.391-.4-.883-1.1-1.256-1.051a6.621,6.621,0,0,0-2.405.952c-.223.13-.225.735-.232,1.125-.032,1.747-.16,1.889-1.889,1.894-.8,0-1.6-.031-2.394.008-1.057.051-1.555-.382-1.513-1.47.02-.514.095-1.3-.185-1.5A7.59,7.59,0,0,0,73.414,87.1c-.224-.062-.622.341-.881.592-1.369,1.324-1.448,1.33-2.818-.037-.538-.537-1.053-1.1-1.618-1.607-.805-.723-.809-1.4.02-2.09.381-.315.776-.612,1.144-.9m19.612,1.81c-1.591-.937-1.679-2.045-.949-3.863.737-1.836,1.663-2.46,3.419-2.1V75.558c-1.96.541-2.65-.376-3.432-2.05-.868-1.856-.474-2.9.775-3.725l-2.213-2.665c-1.519,3.326-3.455.906-5.182.508-1.586-.366-.329-1.958-.977-2.855h-3.2c.644,2-.355,2.665-2.037,3.477-1.875.906-2.88.4-3.74-.843L68.745,69.7c3.3,1.515.872,3.44.463,5.164-.378,1.589-1.955.333-2.861.965v3.2c1.991-.638,2.679.343,3.481,2.038.874,1.849.486,2.893-.875,3.787l2.326,2.582c1.46-3.226,3.345-.947,5.067-.546s.4,2,1.109,2.961c.7,0,1.49,0,2.281,0,.219,0,.439-.039.837-.077-.562-1.963.41-2.65,2.1-3.458,1.878-.9,2.893-.383,3.846.961l2.357-2.394" transform="translate(-50.21 -48.966)" fill="#fff"/>
        <path id="Trazado_901960" data-name="Trazado 901960" d="M174.491,197.869c-.422-.411-.655-.647-.9-.869-.049-.044-.156-.017-.217-.055-1.875-1.142-.773-2.948-.918-4.446-.095-.978.792-1.257,1.682-1.256,4.9,0,9.8-.008,14.7.008,1.283,0,1.7.454,1.724,1.716.011.646-.022,1.293.007,1.937.049,1.076-.072,1.988-1.43,2.162-.185.024-.312.5-.494.817,1.738.394,1.914.613,1.918,2.184,0,.76.01,1.52,0,2.279a1.281,1.281,0,0,1-1.4,1.431q-7.693.012-15.385,0a1.264,1.264,0,0,1-1.371-1.35c-.044-.8-.024-1.595-.018-2.392.01-1.5.237-1.777,2.107-2.168m-.783,4.636h15.646c0-.754-.055-1.436.013-2.105.093-.91-.252-1.162-1.15-1.154-4.482.042-8.966.018-13.449.022-.334,0-.667.038-1.061.062Zm15.593-9.9H173.725V195.7H189.3Zm-13.963,5.036.29.347h11.813l.22-.318c-.284-.214-.565-.611-.852-.615q-5.3-.064-10.6,0c-.293,0-.581.382-.871.587" transform="translate(-132.942 -147.589)" fill="#fff"/>
        <path id="Trazado_901961" data-name="Trazado 901961" d="M12,8.013c-1.72-.66-1.88-.861-1.888-2.388,0-.8-.011-1.6.008-2.394A1.231,1.231,0,0,1,11.465,1.87q7.7-.014,15.39,0A1.267,1.267,0,0,1,28.248,3.3c.006.722,0,1.444,0,2.166,0,1.7-.127,1.865-2.005,2.346.314.342.5.736.756.789a1.457,1.457,0,0,1,1.254,1.73c-.028.835-.019,1.672,0,2.508a1.321,1.321,0,0,1-1.425,1.539q-7.638.032-15.276,0a1.326,1.326,0,0,1-1.437-1.53c.01-.912.007-1.824,0-2.736A1.362,1.362,0,0,1,11.242,8.63c.288-.078.51-.4.762-.617M27.016,3.145H11.393V6.277H27.016ZM11.4,13.061H26.986V9.928H11.4ZM25.358,8.024l-.279-.368H13.246c-.235.652-.1.962.612.96,3.538-.013,7.076.008,10.614-.031.3,0,.591-.365.887-.561" transform="translate(-7.803 -1.438)" fill="#fff"/>
        <path id="Trazado_901962" data-name="Trazado 901962" d="M166.814,3.494c.81-2.017,2.126-3.384,4.377-3.488A4.62,4.62,0,0,1,175.9,3.694a1.276,1.276,0,0,0,1.066,1.081,4.223,4.223,0,0,1,3.1,4.7,4.05,4.05,0,0,1-3.938,3.858c-4.981.074-9.965.059-14.947.011a3.168,3.168,0,0,1-3.155-2.887,3.436,3.436,0,0,1,2.3-3.866,1.549,1.549,0,0,0,.838-.612c1.332-2.794,2.677-3.428,5.651-2.481m1.763,8.629v-.007c2.507,0,5.014.036,7.519-.013a2.911,2.911,0,0,0,2.766-2.925c.074-1.637-.95-3.2-2.4-3.218-1.326-.017-1.6-.563-1.727-1.727a3.447,3.447,0,0,0-3.219-3.023,3.51,3.51,0,0,0-3.445,2.622c-.087.288-.119.592-.178.889-.149.745-.473,1-1.164.472-2.113-1.621-3.856-.955-4.5,1.644a1.384,1.384,0,0,1-.9.848c-1.419.245-2.162.985-2.122,2.314a2.092,2.092,0,0,0,2.3,2.122c2.355.015,4.709,0,7.064,0" transform="translate(-121.921 0)" fill="#fff"/>
        <path id="Trazado_901963" data-name="Trazado 901963" d="M18.157,194.191c3.31.685,4.9,3.693,3.478,6.47A3.9,3.9,0,0,1,18,202.981q-7.352.023-14.7,0a3.229,3.229,0,0,1-3.236-2.8,3.338,3.338,0,0,1,2.2-3.9,1.52,1.52,0,0,0,1.093-1.09c.811-2.2,2.666-2.89,5.485-2.089.91-2.228,2.434-3.695,5.006-3.426,2.624.274,3.815,2.078,4.32,4.513m-7.537,7.59c2.435,0,4.87.036,7.3-.013a2.962,2.962,0,0,0,2.942-2.784c.154-1.673-.81-3.342-2.331-3.391-1.485-.047-1.656-.724-1.814-1.91a3.356,3.356,0,0,0-3.151-2.816,3.428,3.428,0,0,0-3.441,2.461,7.124,7.124,0,0,0-.214,1c-.137.767-.487,1-1.168.5-2.182-1.61-3.851-.979-4.492,1.639a1.289,1.289,0,0,1-.805.815c-1.551.279-2.327,1.084-2.217,2.474.1,1.312.978,2.022,2.539,2.028,2.283.01,4.565,0,6.848,0" transform="translate(0 -146.357)" fill="#fff"/>
        <path id="Trazado_901964" data-name="Trazado 901964" d="M196.64,77.281c0-3.4,0-6.512,0-9.626a2.658,2.658,0,0,1,.041-.9c.09-.237.36-.549.564-.559s.469.289.6.515a1.446,1.446,0,0,1,.049.672c0,3.267-.022,6.535.016,9.8.011.97-.286,1.4-1.311,1.323-.982-.074-1.978.027-2.96-.046-.283-.021-.542-.38-.811-.584.273-.2.534-.545.82-.566.968-.071,1.945-.027,2.99-.027" transform="translate(-148.813 -51.083)" fill="#fff"/>
        <path id="Trazado_901965" data-name="Trazado 901965" d="M196.648,127.2c-1.042,0-1.987.053-2.92-.03-.311-.028-.591-.4-.886-.619.283-.195.557-.539.852-.557a20.572,20.572,0,0,1,3.3.015,1.264,1.264,0,0,1,.869.861c.061,3.53.055,7.062.01,10.592,0,.285-.427.565-.655.847-.189-.322-.536-.642-.541-.966-.043-2.923-.026-5.847-.026-8.77V127.2" transform="translate(-148.822 -97.186)" fill="#fff"/>
        <path id="Trazado_901966" data-name="Trazado 901966" d="M38.58,77.13c1.036,0,1.981-.044,2.918.026.294.022.565.347.846.534-.291.215-.571.594-.876.616-1.058.077-2.127.006-3.19.038-.764.023-.977-.345-.973-1.047.018-3.421-.009-6.841.034-10.261,0-.349.371-.693.57-1.039.2.344.571.685.576,1.031.046,3.116.027,6.233.031,9.349,0,.187.03.373.063.753" transform="translate(-28.79 -50.932)" fill="#fff"/>
        <path id="Trazado_901967" data-name="Trazado 901967" d="M38.255,127.22c0,3.232.026,6.3-.022,9.367-.009.591.433,1.668-.545,1.676-1.115.01-.6-1.118-.607-1.725-.057-3.075,0-6.152-.043-9.228-.015-.967.255-1.407,1.284-1.335.983.069,1.977-.028,2.959.046.282.021.539.381.808.585-.267.2-.523.565-.8.586-.972.073-1.952.028-3.03.028" transform="translate(-28.531 -97.213)" fill="#fff"/>
        <path id="Trazado_901968" data-name="Trazado 901968" d="M105.948,96.279A8.216,8.216,0,1,1,97.8,88.032a8.207,8.207,0,0,1,8.144,8.247M90.778,96.11a6.986,6.986,0,1,0,7.077-6.856,7,7,0,0,0-7.077,6.856" transform="translate(-69.082 -67.937)" fill="#fff"/>
        <path id="Trazado_901969" data-name="Trazado 901969" d="M216.82,232.571c-.342-.49-.666-.757-.68-1.04-.01-.205.384-.593.609-.6s.658.341.665.545c.01.284-.292.578-.593,1.1" transform="translate(-166.802 -178.216)" fill="#fff"/>
        <path id="Trazado_901970" data-name="Trazado 901970" d="M227,229.685c.323.384.711.661.67.84-.067.289-.415.514-.645.765-.225-.246-.571-.465-.634-.747-.042-.19.316-.468.608-.858" transform="translate(-174.714 -177.255)" fill="#fff"/>
        <path id="Trazado_901971" data-name="Trazado 901971" d="M237.242,229.689c.291.4.655.694.6.874-.079.284-.437.491-.677.731-.215-.259-.551-.5-.6-.786-.032-.188.351-.448.673-.819" transform="translate(-182.566 -177.259)" fill="#fff"/>
        <path id="Trazado_901972" data-name="Trazado 901972" d="M237.11,199.684c.348.451.691.7.707.978.013.216-.376.455-.587.685-.244-.229-.609-.422-.691-.7-.057-.191.279-.5.571-.963" transform="translate(-182.541 -154.103)" fill="#fff"/>
        <path id="Trazado_901973" data-name="Trazado 901973" d="M216.818,199.861c.291.413.648.708.6.9-.072.281-.433.488-.671.727-.217-.259-.559-.5-.607-.784-.032-.194.351-.457.678-.842" transform="translate(-166.801 -154.239)" fill="#fff"/>
        <path id="Trazado_901974" data-name="Trazado 901974" d="M228.048,201.811c-.5.326-.78.64-1.066.646-.2,0-.561-.415-.563-.646s.368-.635.57-.632c.284,0,.563.315,1.059.632" transform="translate(-174.735 -155.256)" fill="#fff"/>
        <path id="Trazado_901975" data-name="Trazado 901975" d="M54.013,12.926c-.291-.393-.647-.673-.6-.865.063-.282.41-.5.637-.747.229.253.578.48.643.77.04.181-.35.457-.675.841" transform="translate(-41.214 -8.731)" fill="#fff"/>
        <path id="Trazado_901976" data-name="Trazado 901976" d="M74.339,10.132c.318.425.678.7.64.9a1.063,1.063,0,0,1-.65.686c-.155.045-.632-.377-.624-.575.012-.288.331-.563.634-1.015" transform="translate(-56.88 -7.819)" fill="#fff"/>
        <path id="Trazado_901977" data-name="Trazado 901977" d="M64.163,12.923c-.292-.393-.654-.679-.609-.867.068-.284.421-.5.653-.743.224.256.57.487.628.776.037.185-.35.455-.672.833" transform="translate(-49.044 -8.731)" fill="#fff"/>
        <path id="Trazado_901978" data-name="Trazado 901978" d="M65.23,41.871c-.5.341-.767.664-1.045.672a.856.856,0,0,1-.6-.61c-.005-.234.342-.662.549-.67.28-.011.573.3,1.1.608" transform="translate(-49.07 -31.844)" fill="#fff"/>
        <path id="Trazado_901979" data-name="Trazado 901979" d="M75.131,41.981c-.416.277-.717.623-.906.57-.281-.079-.481-.441-.716-.682.263-.214.507-.552.8-.6.189-.03.445.366.825.71" transform="translate(-56.729 -31.849)" fill="#fff"/>
        <path id="Trazado_901980" data-name="Trazado 901980" d="M55.063,41.981c-.523.286-.823.579-1.106.562-.2-.012-.539-.448-.525-.676s.41-.616.609-.6c.284.025.542.355,1.022.712" transform="translate(-41.235 -31.848)" fill="#fff"/>
        <path id="Trazado_901981" data-name="Trazado 901981" d="M185.058,34.958a1.581,1.581,0,0,1-1.512,1.538,1.526,1.526,0,0,1-1.512-1.514,1.5,1.5,0,0,1,1.49-1.529,1.55,1.55,0,0,1,1.534,1.505" transform="translate(-140.481 -25.817)" fill="#fff"/>
        <path id="Trazado_901982" data-name="Trazado 901982" d="M204.3,34.951a1.557,1.557,0,0,1-1.5,1.534,1.534,1.534,0,0,1-1.5-1.526,1.515,1.515,0,0,1,1.493-1.526,1.531,1.531,0,0,1,1.51,1.518" transform="translate(-155.345 -25.801)" fill="#fff"/>
        <path id="Trazado_901983" data-name="Trazado 901983" d="M223.46,34.932a1.514,1.514,0,0,1-1.473,1.549,1.564,1.564,0,0,1-1.536-1.5,1.545,1.545,0,0,1,1.491-1.544,1.509,1.509,0,0,1,1.518,1.5" transform="translate(-170.129 -25.801)" fill="#fff"/>
        <path id="Trazado_901984" data-name="Trazado 901984" d="M44.826,226.044a1.459,1.459,0,0,1-1.529-1.465,1.492,1.492,0,0,1,1.465-1.544,1.517,1.517,0,0,1,1.539,1.481,1.474,1.474,0,0,1-1.475,1.529" transform="translate(-33.413 -172.123)" fill="#fff"/>
        <path id="Trazado_901985" data-name="Trazado 901985" d="M65.46,224.541a1.461,1.461,0,0,1-1.494,1.5,1.491,1.491,0,0,1-1.52-1.492,1.542,1.542,0,0,1,1.512-1.518,1.487,1.487,0,0,1,1.5,1.508" transform="translate(-48.192 -172.122)" fill="#fff"/>
        <path id="Trazado_901986" data-name="Trazado 901986" d="M27.066,224.5a1.52,1.52,0,0,1-1.47,1.548,1.466,1.466,0,0,1-1.554-1.444,1.5,1.5,0,0,1,1.447-1.563,1.565,1.565,0,0,1,1.576,1.459" transform="translate(-18.554 -172.125)" fill="#fff"/>
        <path id="Trazado_901987" data-name="Trazado 901987" d="M111.867,104.589a5.742,5.742,0,1,1-5.754-5.691,5.695,5.695,0,0,1,5.754,5.691m-1.209.062a4.532,4.532,0,1,0-4.6,4.521,4.562,4.562,0,0,0,4.6-4.521" transform="translate(-77.469 -76.323)" fill="#fff"/>
      </g>
    </g>
  </g>
</svg>
