<svg xmlns="http://www.w3.org/2000/svg" xmlns:xlink="http://www.w3.org/1999/xlink" width="90" height="90" viewBox="0 0 90 90">
  <defs>
    <clipPath id="clip-path">
      <rect id="Rectángulo_402450" data-name="Rectángulo 402450" width="56.827" height="56.801" fill="#698d59"/>
    </clipPath>
  </defs>
  <g id="Grupo_1102764" data-name="Grupo 1102764" transform="translate(-589.274 -2278.014)">
    <path id="Trazado_876531" data-name="Trazado 876531" d="M45,0A45,45,0,1,1,0,45,45,45,0,0,1,45,0Z" transform="translate(589.274 2278.014)" fill="#fff"/>
    <g id="Grupo_1102172" data-name="Grupo 1102172" transform="translate(605.861 2294.613)">
      <g id="Grupo_1102171" data-name="Grupo 1102171" clip-path="url(#clip-path)">
        <path id="Trazado_901729" data-name="Trazado 901729" d="M47.684,43.176c2.664,2.658,5.3,5.3,7.951,7.926a3.287,3.287,0,0,1,1.088,3.3,3.23,3.23,0,0,1-5.543,1.333c-2.4-2.354-4.768-4.75-7.139-7.138a11.051,11.051,0,0,1-.765-.953l-.044.379a48.122,48.122,0,0,1-6.877,2.6c-7.336,1.6-13.575-.551-18.551-6.186a2.273,2.273,0,0,0-1.967-.888c-2.032.05-4.067.031-6.1.012A3.769,3.769,0,0,1,5.7,39.542c-.022-1.138,0-2.278,0-3.55-1.254,0-2.387.012-3.52,0A1.91,1.91,0,0,1,.008,33.8Q0,18.881.012,3.957A3.808,3.808,0,0,1,3.931.014q15.03-.028,30.06,0A3.776,3.776,0,0,1,37.9,4.062q.048,4.549,0,9.1a1.126,1.126,0,0,0,.838,1.293,18.876,18.876,0,0,1,9.379,28.012c-.135.215-.262.436-.428.711m1.568-10.942A17.052,17.052,0,1,0,32.237,49.268,17.109,17.109,0,0,0,49.252,32.234M7.359,1.916c.081,1.1.2,2.014.206,2.928q.02,16.924.009,33.849c0,.333-.016.667.006,1a1.975,1.975,0,0,0,1.965,1.99,1.914,1.914,0,0,0,1.8-2c.009-.221,0-.444,0-.666,0-2.252.152-2.47,2.065-3.166V28.425a8.3,8.3,0,0,1-1.889-.038c-.4-.094-.725-.554-1.083-.85a5.734,5.734,0,0,1,1.086-.983c.289-.154.724-.037,1.094-.038,1.726,0,1.748-.021,2.042-1.871-1.006,0-2,0-3,0-.671,0-1.217-.208-1.215-.966s.588-.95,1.236-.955c1.146-.009,2.294.024,3.438-.024a1.363,1.363,0,0,0,.923-.4c.846-1.068,1.625-2.188,2.474-3.352-2.776-2.549-3.646-5.836-3.429-9.516.043-.737,0-1.479.008-2.219.013-1.452.476-1.987,1.877-2.285,1.3-.277,2.584-.619,3.883-.892a3.587,3.587,0,0,1,1.4-.088c1.554.316,3.091.712,4.636,1.075a1.778,1.778,0,0,1,1.514,1.9c0,1.628.01,3.255-.017,4.883-.01.6-.113,1.2-.158,1.644h7.733V12.428q0-3.884,0-7.769c0-2.25-.487-2.742-2.725-2.742q-12.371,0-24.741,0Zm-5.444,32.2c.95,0,1.76-.062,2.557.016.968.095,1.253-.224,1.248-1.22C5.682,23.448,5.7,13.985,5.693,4.522a4.892,4.892,0,0,0-.108-1.207A1.685,1.685,0,0,0,3.809,1.947,1.756,1.756,0,0,0,1.992,3.423a5.422,5.422,0,0,0-.075,1.213q-.005,14.083,0,28.167v1.313M19.842,17.553c1.838-1.009,3.513-2,5.258-2.851.642-.312,1.068-.658,1.11-1.337.12-1.983.22-3.968.259-5.954,0-.222-.4-.58-.669-.658-1.2-.342-2.426-.617-3.648-.884a2.067,2.067,0,0,0-.86.028c-1.186.263-2.38.51-3.54.865a1.19,1.19,0,0,0-.694.848,39.217,39.217,0,0,0,.041,4.537,7.924,7.924,0,0,0,2.744,5.4m27.393,31.6c1.815,1.8,3.544,3.517,5.274,5.233a1.324,1.324,0,0,0,1.97.185,1.21,1.21,0,0,0,.034-1.873c-1.766-1.818-3.579-3.591-5.412-5.42l-1.866,1.875M13.423,37.767c-.151,1.442-.276,2.634-.405,3.861h2.867c-1.136-1.165-.889-2.969-2.462-3.861m33.161,7-1.8,1.709.989,1.182L47.719,45.9c-.247-.259-.421-.447-.6-.629s-.37-.355-.532-.509" transform="translate(0 0)" fill="#698d59"/>
        <path id="Trazado_901730" data-name="Trazado 901730" d="M107.227,90.931c0,9.9-7.1,16.594-16.044,16.248-8.276-.321-14.795-7.825-14.172-16.315a15.164,15.164,0,0,1,14.37-13.9c.111,0,.222,0,.333-.008.645-.028,1.235.079,1.279.872s-.506.929-1.165,1.009a22.124,22.124,0,0,0-3.488.575,13.218,13.218,0,1,0,8.237.21c-.243-.087-.492-.158-.737-.239-.641-.211-1.142-.653-.784-1.295a1.514,1.514,0,0,1,1.336-.486A13.21,13.21,0,0,1,102,80.616a14.482,14.482,0,0,1,5.227,10.315" transform="translate(-59.893 -59.878)" fill="#698d59"/>
        <path id="Trazado_901731" data-name="Trazado 901731" d="M131.436,116.742a7.248,7.248,0,0,1-.677.964q-6.81,6.836-13.637,13.655c-.485.486-1.017.854-1.614.244s-.192-1.135.285-1.613c4.524-4.522,9.037-9.054,13.585-13.551a2.107,2.107,0,0,1,1.325-.48c.222-.007.46.474.732.78" transform="translate(-89.647 -90.234)" fill="#698d59"/>
        <path id="Trazado_901732" data-name="Trazado 901732" d="M112.065,103.955a7.689,7.689,0,0,1-.684.959q-3.511,3.54-7.045,7.059c-.458.459-.97.789-1.534.253-.6-.575-.3-1.118.2-1.616,2.355-2.346,4.689-4.714,7.071-7.032a1.835,1.835,0,0,1,1.248-.4c.24.01.461.467.742.781" transform="translate(-79.735 -80.282)" fill="#698d59"/>
        <path id="Trazado_901733" data-name="Trazado 901733" d="M107.906,140.482c-.252-.2-.627-.357-.7-.6a1.2,1.2,0,0,1,.13-1.01c1.895-1.959,3.818-3.893,5.79-5.772a1.152,1.152,0,0,1,1.138.068,1.294,1.294,0,0,1,.087,1.229c-1.847,1.953-3.765,3.839-5.678,5.729a2.857,2.857,0,0,1-.763.36" transform="translate(-83.377 -103.473)" fill="#698d59"/>
        <path id="Trazado_901734" data-name="Trazado 901734" d="M146.06,111.866c-.761.016-1.315-.835-.84-1.378a37.79,37.79,0,0,1,3.194-3.18c.178-.16.81-.03,1.06.175a1.012,1.012,0,0,1,.185.965c-1.063,1.158-2.2,2.25-3.319,3.353-.066.065-.209.05-.28.064" transform="translate(-112.864 -83.444)" fill="#698d59"/>
        <path id="Trazado_901735" data-name="Trazado 901735" d="M109.667,107.645c.039.884-1.155,2.251-1.757,2.155a1.43,1.43,0,0,1-.955-.791c-.2-.588,1.134-2.008,1.788-1.913.378.055.712.416.924.55" transform="translate(-83.209 -83.331)" fill="#698d59"/>
        <path id="Trazado_901736" data-name="Trazado 901736" d="M87.421,46.577a27.8,27.8,0,0,1,2.008-2.6,1.551,1.551,0,0,1,1.382-.34c.609.266.525.893.136,1.412-.864,1.154-1.679,2.35-2.626,3.431-.272.31-1.119.546-1.367.363-.626-.462-1.621-.906-1.278-1.963.291-.9,1.017-.621,1.746-.3" transform="translate(-66.612 -33.914)" fill="#698d59"/>
      </g>
    </g>
  </g>
</svg>
