<svg xmlns="http://www.w3.org/2000/svg" xmlns:xlink="http://www.w3.org/1999/xlink" width="90" height="90" viewBox="0 0 90 90">
  <defs>
    <clipPath id="clip-path">
      <rect id="Rectángulo_402476" data-name="Rectángulo 402476" width="59.62" height="59.709" fill="#fff"/>
    </clipPath>
  </defs>
  <g id="Grupo_1102770" data-name="Grupo 1102770" transform="translate(-323.717 -1979.37)">
    <circle id="Elipse_11512" data-name="Elipse 11512" cx="45" cy="45" r="45" transform="translate(323.717 1979.37)" fill="#382a8e"/>
    <g id="Grupo_1102202" data-name="Grupo 1102202" transform="translate(338.407 1994.516)">
      <g id="Grupo_1102201" data-name="Grupo 1102201" clip-path="url(#clip-path)">
        <path id="Trazado_901812" data-name="Trazado 901812" d="M46.628,51.542v-1.4q0-19.228,0-38.456c0-1.776.241-2.018,2-2.019q3.845,0,7.689,0c1.711,0,1.968.252,1.968,1.937q0,19.228,0,38.456v1.425c.268.1.591.129.731.3.271.335.663.8.591,1.125a1.871,1.871,0,0,1-.946,1,2.669,2.669,0,0,1-1.148.051q-15.437,0-30.874-.013a2.012,2.012,0,0,0-1.753.807c-3.668,4.361-8.371,6.151-13.933,4.889A13.221,13.221,0,0,1,.388,49.056C-.861,43.491.942,38.792,5.3,35.125a1.9,1.9,0,0,0,.789-1.644q-.034-15.5-.015-31c0-.35-.121-.786.041-1.029C6.406,1.025,6.873.43,7.258.435s.838.609,1.118,1.042c.161.248.04.681.04,1.03q0,14.625,0,29.25v1.16l6.751-1.134c0-1.02,0-2.282,0-3.545.007-1.465.317-1.784,1.766-1.787q4.019-.009,8.039,0c1.55,0,1.85.295,1.853,1.818,0,3.108.018,6.215-.006,9.323a14.55,14.55,0,0,0,.621,4.68,13.49,13.49,0,0,1-.559,9.293h4.011v-1.54q0-15.033,0-30.066c0-1.94.2-2.133,2.128-2.134q3.786,0,7.573,0c1.712,0,1.967.243,1.967,1.944q.006,15.091,0,30.182v1.59Zm2.418-.012h6.845V12.06H49.046Zm-23.394-5.5A11.648,11.648,0,1,0,14.041,57.686,11.672,11.672,0,0,0,25.653,46.027M40.124,20.235H33.331V51.582h6.794Zm-15.7,16.251V28.865H17.542v3.467a37.475,37.475,0,0,1,3.6,1.708,40.436,40.436,0,0,1,3.288,2.447" transform="translate(0 -0.334)" fill="#fff"/>
        <path id="Trazado_901813" data-name="Trazado 901813" d="M73.133,4.064a13.747,13.747,0,0,1-1.054,1.374,1.073,1.073,0,0,1-1.653.057,1.071,1.071,0,0,1-.013-1.654q1.7-1.76,3.459-3.46a1.141,1.141,0,0,1,1.755.066q1.66,1.635,3.294,3.3A1.113,1.113,0,0,1,79,5.486a1.112,1.112,0,0,1-1.739-.117c-.374-.385-.7-.822-1.041-1.235l-.339.161V5.5q0,6.408,0,12.816c0,.851-.284,1.513-1.223,1.484-.867-.027-1.144-.673-1.118-1.471.007-.233,0-.466,0-.7V4.36l-.406-.3" transform="translate(-53.712 0)" fill="#fff"/>
        <path id="Trazado_901814" data-name="Trazado 901814" d="M30.575,171.132a10.368,10.368,0,0,1,8.141,4.752,1.708,1.708,0,0,1,.018,2.128,10.558,10.558,0,0,1-17.643-.025,1.74,1.74,0,0,1,.052-2.129,10.942,10.942,0,0,1,9.432-4.726m-.619,4.111a1.717,1.717,0,1,0,1.68,1.72,1.7,1.7,0,0,0-1.68-1.72m-3.221-.947-.241-.263c-.937.783-1.9,1.542-2.794,2.368a.938.938,0,0,0-.175.88,6.855,6.855,0,0,0,3.35,2.5c-1.317-2.167-1.321-3.363-.14-5.489m6.332,5.341.268.256c.972-.822,1.965-1.621,2.894-2.488a.89.89,0,0,0,.012-.874c-.93-.874-1.925-1.679-2.9-2.506l-.281.243a4.357,4.357,0,0,1,.006,5.37" transform="translate(-15.917 -131.258)" fill="#fff"/>
      </g>
    </g>
  </g>
</svg>
