<svg xmlns="http://www.w3.org/2000/svg" xmlns:xlink="http://www.w3.org/1999/xlink" width="240.543" height="320.804" viewBox="0 0 240.543 320.804">
  <defs>
    <clipPath id="clip-path">
      <rect id="Rectángulo_402583" data-name="Rectángulo 402583" width="230.623" height="206.252" fill="none"/>
    </clipPath>
    <clipPath id="clip-path-3">
      <rect id="Rectángulo_402574" data-name="Rectángulo 402574" width="230.623" height="202.124" fill="none"/>
    </clipPath>
    <clipPath id="clip-path-4">
      <rect id="Rectángulo_402575" data-name="Rectángulo 402575" width="43.395" height="85.441" fill="none"/>
    </clipPath>
  </defs>
  <g id="Grupo_1102765" data-name="Grupo 1102765" transform="translate(-1154.787 -2976.998)">
    <rect id="Rectángulo_402011" data-name="Rectángulo 402011" width="240.543" height="320.804" rx="30" transform="translate(1154.787 2976.998)" fill="#ffedcc"/>
    <g id="Grupo_1102292" data-name="Grupo 1102292" transform="translate(1159.181 3040.501)">
      <g id="Grupo_1102291" data-name="Grupo 1102291" clip-path="url(#clip-path)">
        <g id="Grupo_1102290" data-name="Grupo 1102290">
          <g id="Grupo_1102289" data-name="Grupo 1102289" clip-path="url(#clip-path)">
            <path id="Trazado_902957" data-name="Trazado 902957" d="M230.576,120.777s3.41-79.275-48.086-101.1-77.415-5.79-93.785,14.7S66.879,68.224,48.122,70.9s-36.15,7.126-45.017,36.965S5.493,161.3,22.544,176s36.832-.891,52.52,8.462S100.641,209.4,132.7,211.185s33.08-10.243,49.45-28.948,45.358.891,48.427-61.46" transform="translate(0 -5.108)" fill="#538040"/>
            <g id="Grupo_1102282" data-name="Grupo 1102282" transform="translate(0 4.128)" opacity="0.7">
              <g id="Grupo_1102281" data-name="Grupo 1102281">
                <g id="Grupo_1102280" data-name="Grupo 1102280" clip-path="url(#clip-path-3)">
                  <path id="Trazado_902958" data-name="Trazado 902958" d="M230.576,120.777s3.41-79.275-48.086-101.1-77.415-5.79-93.785,14.7S66.879,68.224,48.122,70.9s-36.15,7.126-45.017,36.965S5.493,161.3,22.544,176s36.832-.891,52.52,8.462S100.641,209.4,132.7,211.185s33.08-10.243,49.45-28.948,45.358.891,48.427-61.46" transform="translate(0 -9.236)" fill="#fff"/>
                </g>
              </g>
            </g>
            <path id="Trazado_902959" data-name="Trazado 902959" d="M228.629,21.658c-.073-.3-.15-.593-.231-.89-3.025-10.985-17.1-11.742-17.1,1.758,0,2.6-4.778,0-6.57,3.38s.2,5.46-2.19,6.5-2.589-1.56-5.575-1.3-2.589,3.9-3.584,4.94-1,.52-3.186.78a3.021,3.021,0,0,0-2.588,2.34h52.363s1.991-7.8-1.593-10.66-3.584,1.04-6.371-.52C229.7,26.7,229.273,24.251,228.629,21.658Z" transform="translate(-123.397 -6.892)" fill="none" stroke="#b097c1" stroke-linecap="round" stroke-linejoin="round" stroke-width="1"/>
            <path id="Trazado_902960" data-name="Trazado 902960" d="M271.819,54.217s1.085-4.378-1.578-7.6-5.424-1.416-6.212,0S263.24,50.74,261.958,51s-.986-2.833-3.747-2.06-1.676,4.378-2.959,5.151-1.282-2.061-3.057-1.159a2.862,2.862,0,0,0-1.676,2.575" transform="translate(-164.776 -24.787)" fill="none" stroke="#b097c1" stroke-linecap="round" stroke-linejoin="round" stroke-width="1"/>
            <path id="Trazado_902961" data-name="Trazado 902961" d="M246.261,44.77a4.1,4.1,0,0,0-5.05-.573c-2.854,1.72-1.537,5.305-2.854,6.165s-1.976-.143-3.623.861a2.811,2.811,0,0,0-1.537,2.437" transform="translate(-153.381 -24.088)" fill="none" stroke="#b097c1" stroke-linecap="round" stroke-linejoin="round" stroke-width="1"/>
            <path id="Trazado_902962" data-name="Trazado 902962" d="M498.888,83.269c-.045-.18-.091-.361-.141-.543-1.843-6.693-10.417-7.155-10.418,1.071,0,1.584-2.911,0-4,2.06s.121,3.327-1.334,3.961-1.577-.951-3.4-.792-1.577,2.377-2.184,3.01-.607.317-1.941.476a1.84,1.84,0,0,0-1.577,1.426H505.8s1.213-4.753-.97-6.5-2.184.634-3.882-.317C499.543,86.339,499.28,84.849,498.888,83.269Z" transform="translate(-311.698 -42.952)" fill="none" stroke="#b097c1" stroke-linecap="round" stroke-linejoin="round" stroke-width="1"/>
            <path id="Trazado_902963" data-name="Trazado 902963" d="M525.2,103.107a5.752,5.752,0,0,0-.961-4.63c-1.622-1.961-3.3-.863-3.785,0s-.481,2.511-1.262,2.668-.6-1.726-2.283-1.256-1.022,2.668-1.8,3.139-.781-1.255-1.863-.706a1.743,1.743,0,0,0-1.021,1.569" transform="translate(-336.91 -53.855)" fill="none" stroke="#b097c1" stroke-linecap="round" stroke-linejoin="round" stroke-width="1"/>
            <path id="Trazado_902964" data-name="Trazado 902964" d="M509.631,97.351a2.5,2.5,0,0,0-3.077-.35c-1.739,1.049-.936,3.232-1.739,3.757s-1.2-.088-2.208.524a1.712,1.712,0,0,0-.936,1.485" transform="translate(-329.967 -53.43)" fill="none" stroke="#b097c1" stroke-linecap="round" stroke-linejoin="round" stroke-width="1"/>
            <path id="Trazado_902965" data-name="Trazado 902965" d="M175.412,90.011c-.045-.18-.091-.361-.141-.543-1.843-6.693-10.418-7.155-10.418,1.071,0,1.584-2.912,0-4,2.06s.122,3.327-1.334,3.961-1.577-.951-3.4-.792-1.577,2.376-2.183,3.01-.607.317-1.941.476a1.84,1.84,0,0,0-1.577,1.426h31.906s1.213-4.753-.971-6.5-2.183.634-3.882-.317C176.067,93.081,175.8,91.591,175.412,90.011Z" transform="translate(-98.935 -46.68)" fill="none" stroke="#b097c1" stroke-linecap="round" stroke-linejoin="round" stroke-width="1"/>
            <path id="Trazado_902966" data-name="Trazado 902966" d="M201.728,109.85a5.752,5.752,0,0,0-.961-4.63c-1.622-1.961-3.3-.863-3.785,0s-.481,2.511-1.262,2.668-.6-1.726-2.283-1.256-1.021,2.668-1.8,3.139-.781-1.255-1.863-.706a1.743,1.743,0,0,0-1.021,1.569" transform="translate(-124.148 -57.584)" fill="none" stroke="#b097c1" stroke-linecap="round" stroke-linejoin="round" stroke-width="1"/>
            <path id="Trazado_902967" data-name="Trazado 902967" d="M186.156,104.093a2.5,2.5,0,0,0-3.077-.35c-1.739,1.049-.936,3.232-1.739,3.757s-1.2-.088-2.208.524a1.712,1.712,0,0,0-.936,1.485" transform="translate(-117.205 -57.159)" fill="none" stroke="#b097c1" stroke-linecap="round" stroke-linejoin="round" stroke-width="1"/>
            <path id="Trazado_902968" data-name="Trazado 902968" d="M416.781,59.867c0,18.458-9.714,25.574-21.7,25.574s-21.7-7.117-21.7-25.574S383.1,0,395.083,0s21.7,41.409,21.7,59.867" transform="translate(-245.591)" fill="#538040"/>
            <g id="Grupo_1102285" data-name="Grupo 1102285" transform="translate(127.795)" opacity="0.5">
              <g id="Grupo_1102284" data-name="Grupo 1102284">
                <g id="Grupo_1102283" data-name="Grupo 1102283" clip-path="url(#clip-path-4)">
                  <path id="Trazado_902969" data-name="Trazado 902969" d="M416.781,59.867c0,18.458-9.714,25.574-21.7,25.574s-21.7-7.117-21.7-25.574S383.1,0,395.083,0s21.7,41.409,21.7,59.867" transform="translate(-373.386)" fill="#fff"/>
                </g>
              </g>
            </g>
            <path id="Trazado_902970" data-name="Trazado 902970" d="M393.842,96.961l6.5,3.888-.463,33.276h3.314l-.277-25.931,8.524-6.048,4.336,2.808-3.021-3.456,4.414-4.1-11.163,6.7,1.6-4.32-3.248,4.752-1.321.216-.22-4.32,12.323-19.44-6.027,7.344.7-9.936,3.331-11.232-3.683,9.5-.14-11.016-1.36,23.112-2.589,4.536-.4-5.832-1.4,7.128-1.119,3.024.693-23.544L407,64.776l-4.066,5.4-.8-11.016-.74,19.872L393.1,64.992l7.812,15.984-.066,7.776-5.673-3.888.416-6.264-1.42,5.4L388.5,79.9l12.22,11.448-.243,6.912-14.971-6.7,7.173,4.752-7.89,3.888Z" transform="translate(-253.089 -32.718)" fill="#b097c1"/>
            <path id="Trazado_902971" data-name="Trazado 902971" d="M117.147,59.867c0,18.458-9.714,25.574-21.7,25.574s-21.7-7.117-21.7-25.574S83.466,0,95.449,0s21.7,41.409,21.7,59.867" transform="translate(-48.51)" fill="#538040"/>
            <g id="Grupo_1102288" data-name="Grupo 1102288" transform="translate(25.242)" opacity="0.5">
              <g id="Grupo_1102287" data-name="Grupo 1102287">
                <g id="Grupo_1102286" data-name="Grupo 1102286" clip-path="url(#clip-path-4)">
                  <path id="Trazado_902972" data-name="Trazado 902972" d="M117.147,59.867c0,18.458-9.714,25.574-21.7,25.574s-21.7-7.117-21.7-25.574S83.466,0,95.449,0s21.7,41.409,21.7,59.867" transform="translate(-73.752)" fill="#fff"/>
                </g>
              </g>
            </g>
            <path id="Trazado_902973" data-name="Trazado 902973" d="M94.208,96.961l6.5,3.888-.463,33.276h3.314l-.277-25.931,8.524-6.048,4.336,2.808-3.021-3.456,4.414-4.1-11.162,6.7,1.6-4.32-3.248,4.752-1.321.216-.22-4.32,12.323-19.44-6.027,7.344.7-9.936,3.331-11.232-3.683,9.5-.14-11.016-1.36,23.112-2.589,4.536-.4-5.832-1.4,7.128-1.12,3.024.693-23.544,3.852-9.288-4.066,5.4-.8-11.016-.74,19.872-8.283-14.04,7.812,15.984-.066,7.776-5.673-3.888.417-6.264L94.539,84l-5.676-4.1,12.22,11.448-.243,6.912-14.972-6.7,7.173,4.752-7.89,3.888Z" transform="translate(-56.008 -32.718)" fill="#b097c1"/>
            <line id="Línea_667" data-name="Línea 667" x2="6.417" transform="translate(217.206 137.746)" fill="none" stroke="#4635b1" stroke-linecap="round" stroke-linejoin="round" stroke-width="1"/>
            <line id="Línea_668" data-name="Línea 668" x2="121.336" transform="translate(92.953 137.746)" fill="none" stroke="#4635b1" stroke-linecap="round" stroke-linejoin="round" stroke-width="1"/>
            <line id="Línea_669" data-name="Línea 669" x2="86.901" transform="translate(3.135 137.746)" fill="none" stroke="#4635b1" stroke-linecap="round" stroke-linejoin="round" stroke-width="1"/>
            <line id="Línea_670" data-name="Línea 670" x2="200.088" transform="translate(23.534 172.685)" fill="none" stroke="#4635b1" stroke-linecap="round" stroke-linejoin="round" stroke-width="1"/>
            <line id="Línea_671" data-name="Línea 671" x2="17.775" transform="translate(3.135 172.685)" fill="none" stroke="#4635b1" stroke-linecap="round" stroke-linejoin="round" stroke-width="1"/>
            <line id="Línea_672" data-name="Línea 672" x2="192.213" transform="translate(31.41 101.274)" fill="none" stroke="#4635b1" stroke-linecap="round" stroke-linejoin="round" stroke-width="1"/>
            <line id="Línea_673" data-name="Línea 673" x2="25.358" transform="translate(3.135 101.274)" fill="none" stroke="#4635b1" stroke-linecap="round" stroke-linejoin="round" stroke-width="1"/>
            <path id="Trazado_902974" data-name="Trazado 902974" d="M475.563,283.826s.963,17.886,1.1,20.4-.826,11.774-.413,16.9,1.721,13.123,1.721,13.123,1.445,2.516,2.616,1.258.826-3.505.826-5.393,1.377-17.886,1.721-21.032a37.06,37.06,0,0,1,.551-3.955l2.684-18.785s3.414,23.509,4.447,26.744,5.877,18.016,5.877,18.016l1.445,3.865,2.2-.9s-.784-19.634-1.542-22.33-1.1-4.045-1.1-4.045l.234-19.644.206-3.775-22.162-1.707Z" transform="translate(-312.796 -156.271)" fill="#fff"/>
            <path id="Trazado_902975" data-name="Trazado 902975" d="M475.563,283.826s.963,17.886,1.1,20.4-.826,11.774-.413,16.9,1.721,13.123,1.721,13.123,1.445,2.516,2.616,1.258.826-3.505.826-5.393,1.377-17.886,1.721-21.032a37.06,37.06,0,0,1,.551-3.955l2.684-18.785s3.414,23.509,4.447,26.744,5.877,18.016,5.877,18.016l1.445,3.865,2.2-.9s-.784-19.634-1.542-22.33-1.1-4.045-1.1-4.045l.234-19.644.206-3.775-22.162-1.707Z" transform="translate(-312.796 -156.271)" fill="none" stroke="#4635b1" stroke-linecap="round" stroke-linejoin="round" stroke-width="1"/>
            <path id="Trazado_902976" data-name="Trazado 902976" d="M498.8,311.739c-.757-2.7-1.1-4.045-1.1-4.045l.234-19.644.206-3.775-22.162-1.707-.413,1.258s.964,17.886,1.1,20.4-.826,11.774-.413,16.9c.14,1.735.382,3.8.642,5.771a8.083,8.083,0,0,0,4.678.446c.371-5.22,1.291-15.769,1.563-18.26a37.022,37.022,0,0,1,.551-3.955l2.684-18.785s3.414,23.509,4.446,26.744c.739,2.315,3.1,10.2,4.989,14.789,1.355.169,2.93.337,4.168-.733-.708-6.018-.716-13.778-1.173-15.4" transform="translate(-312.797 -156.271)" fill="#4635b1"/>
            <path id="Trazado_902977" data-name="Trazado 902977" d="M498.8,311.739c-.757-2.7-1.1-4.045-1.1-4.045l.234-19.644.206-3.775-22.162-1.707-.413,1.258s.964,17.886,1.1,20.4-.826,11.774-.413,16.9c.14,1.735.382,3.8.642,5.771a8.083,8.083,0,0,0,4.678.446c.371-5.22,1.291-15.769,1.563-18.26a37.022,37.022,0,0,1,.551-3.955l2.684-18.785s3.414,23.509,4.446,26.744c.739,2.315,3.1,10.2,4.989,14.789,1.355.169,2.93.337,4.168-.733C499.264,321.125,499.256,313.366,498.8,311.739Z" transform="translate(-312.797 -156.271)" fill="none" stroke="#4635b1" stroke-linecap="round" stroke-linejoin="round" stroke-width="1"/>
            <path id="Trazado_902978" data-name="Trazado 902978" d="M541.094,390.583s-1.239-.449-1.927.27a2.988,2.988,0,0,0-.55,2.067l-.62-1.348s-.413-.359-.206,1.079.413,2.786.413,2.786a2.657,2.657,0,0,0,.138,1.977c.482,1.258,1.033,1.348,1.514,2.786s.551,3.685,2.409,4.584,4.251,1.247,4.113-2.977-3.012-6.1-3.494-7.449a38.267,38.267,0,0,0-1.789-3.775" transform="translate(-353.688 -215.93)" fill="#fff"/>
            <path id="Trazado_902979" data-name="Trazado 902979" d="M541.094,390.583s-1.239-.449-1.927.27a2.988,2.988,0,0,0-.55,2.067l-.62-1.348s-.413-.359-.206,1.079.413,2.786.413,2.786a2.657,2.657,0,0,0,.138,1.977c.482,1.258,1.033,1.348,1.514,2.786s.551,3.685,2.409,4.584,4.251,1.247,4.113-2.977-3.012-6.1-3.494-7.449A38.267,38.267,0,0,0,541.094,390.583Z" transform="translate(-353.688 -215.93)" fill="none" stroke="#4635b1" stroke-linecap="round" stroke-linejoin="round" stroke-width="1"/>
            <path id="Trazado_902980" data-name="Trazado 902980" d="M542.94,410.962c1.858.9,4.251,1.247,4.113-2.977a9.03,9.03,0,0,0-.1-1.06c-.216,2.449-.862,4.21-3.245,3.577-2.993-.795-2.486-4.637-3.5-6.691s-1.326-2.2-1.326-2.2a2.656,2.656,0,0,0,.138,1.977c.482,1.259,1.032,1.349,1.514,2.786s.55,3.685,2.409,4.584" transform="translate(-354.364 -222.108)" fill="#fff"/>
            <path id="Trazado_902981" data-name="Trazado 902981" d="M542.94,410.962c1.858.9,4.251,1.247,4.113-2.977a9.03,9.03,0,0,0-.1-1.06c-.216,2.449-.862,4.21-3.245,3.577-2.993-.795-2.486-4.637-3.5-6.691s-1.326-2.2-1.326-2.2a2.656,2.656,0,0,0,.138,1.977c.482,1.259,1.032,1.349,1.514,2.786S541.082,410.064,542.94,410.962Z" transform="translate(-354.364 -222.108)" fill="none" stroke="#4635b1" stroke-linecap="round" stroke-linejoin="round" stroke-width="1"/>
            <path id="Trazado_902982" data-name="Trazado 902982" d="M472.5,393.987s-1.377-2.427-2.065-2.427-1.032.629-1.1,1.707a19.165,19.165,0,0,1-.964,3.505s-4.267,4.584-4.542,5.3,1.032,1.168,2,1.348,8.6,0,8.6,0a3.691,3.691,0,0,0,.344-2.067c-.069-1.438,0-5.663-.206-6.831s-1.1-.809-2.065-.539" transform="translate(-305.053 -216.547)" fill="#fff"/>
            <path id="Trazado_902983" data-name="Trazado 902983" d="M472.5,393.987s-1.377-2.427-2.065-2.427-1.032.629-1.1,1.707a19.165,19.165,0,0,1-.964,3.505s-4.267,4.584-4.542,5.3,1.032,1.168,2,1.348,8.6,0,8.6,0a3.691,3.691,0,0,0,.344-2.067c-.069-1.438,0-5.663-.206-6.831S473.464,393.717,472.5,393.987Z" transform="translate(-305.053 -216.547)" fill="none" stroke="#4635b1" stroke-linecap="round" stroke-linejoin="round" stroke-width="1"/>
            <path id="Trazado_902984" data-name="Trazado 902984" d="M467.254,414.817a4.866,4.866,0,0,1-3.176-.816,2.2,2.2,0,0,0-.251.4c-.275.719,1.033,1.168,2,1.348s8.6,0,8.6,0a3.622,3.622,0,0,0,.346-1.9q-.319.111-.67.24c-1.979.729-3.8.729-6.849.729" transform="translate(-305.054 -228.873)" fill="#fff"/>
            <path id="Trazado_902985" data-name="Trazado 902985" d="M467.254,414.817a4.866,4.866,0,0,1-3.176-.816,2.2,2.2,0,0,0-.251.4c-.275.719,1.033,1.168,2,1.348s8.6,0,8.6,0a3.622,3.622,0,0,0,.346-1.9q-.319.111-.67.24C472.124,414.817,470.3,414.817,467.254,414.817Z" transform="translate(-305.054 -228.873)" fill="none" stroke="#4635b1" stroke-linecap="round" stroke-linejoin="round" stroke-width="1"/>
            <path id="Trazado_902986" data-name="Trazado 902986" d="M474.759,229.335l.138,5.213s3.51,3.326,10.875,4.494,12.044-.629,12.044-.629A91.712,91.712,0,0,0,499.33,222.5c.206-9.887-2.2-30.829-2.2-30.829l-15.21.359Z" transform="translate(-312.268 -106.003)" fill="#fff"/>
            <path id="Trazado_902987" data-name="Trazado 902987" d="M474.759,229.335l.138,5.213s3.51,3.326,10.875,4.494,12.044-.629,12.044-.629A91.712,91.712,0,0,0,499.33,222.5c.206-9.887-2.2-30.829-2.2-30.829l-15.21.359Z" transform="translate(-312.268 -106.003)" fill="none" stroke="#4635b1" stroke-linecap="round" stroke-linejoin="round" stroke-width="1"/>
            <path id="Trazado_902988" data-name="Trazado 902988" d="M471.944,269.064l-.32,4.04s-4.908-1.951-6.028-2.647-1.333-1.184-1.333-1.184l.587-3.692s2.934,3.413,7.1,3.483" transform="translate(-305.363 -146.876)" fill="#fff"/>
            <path id="Trazado_902989" data-name="Trazado 902989" d="M471.944,269.064l-.32,4.04s-4.908-1.951-6.028-2.647-1.333-1.184-1.333-1.184l.587-3.692S467.783,268.994,471.944,269.064Z" transform="translate(-305.363 -146.876)" fill="none" stroke="#4635b1" stroke-linecap="round" stroke-linejoin="round" stroke-width="1"/>
            <path id="Trazado_902990" data-name="Trazado 902990" d="M460.158,183.975s-1.134-1.678-5.595.2a104.6,104.6,0,0,0-11.945,6.219c-3.024,1.777-3.478,3.851-2.041,6.121s2.419,2.567,4.536,2.37,4.158-2.172,6.2-2.764l2.722-.79s-6.123,20.239-6.426,22.707,1.361,3.554,3.7,4.838a9.514,9.514,0,0,0,4.536,1.184l5.9-35.147s.68-1.875-1.588-4.936" transform="translate(-289.269 -101.363)" fill="#538040"/>
            <path id="Trazado_902991" data-name="Trazado 902991" d="M460.158,183.975s-1.134-1.678-5.595.2a104.6,104.6,0,0,0-11.945,6.219c-3.024,1.777-3.478,3.851-2.041,6.121s2.419,2.567,4.536,2.37,4.158-2.172,6.2-2.764l2.722-.79s-6.123,20.239-6.426,22.707,1.361,3.554,3.7,4.838a9.514,9.514,0,0,0,4.536,1.184l5.9-35.147S462.426,187.036,460.158,183.975Z" transform="translate(-289.269 -101.363)" fill="none" stroke="#4635b1" stroke-linecap="round" stroke-linejoin="round" stroke-width="1"/>
            <path id="Trazado_902992" data-name="Trazado 902992" d="M527.077,165.266a3.174,3.174,0,0,1,2.749.076c1.2.781,1.644,4.035,1.644,4.035a1.86,1.86,0,0,1,2.442-.26,5.29,5.29,0,0,1,1.644,2.017,1.567,1.567,0,0,1,1.894-.651,3.153,3.153,0,0,1,1.893,2.082c.2.586-.3.325-2.043.325s-1.894-.846-1.894-.846a5.028,5.028,0,0,1-2.641.325c-1.844-.13-1.943-.716-1.943-.716s.6.716-2.043.911-7.823-.911-7.325-5.141,2.492-5.076,3.638-4.75,1.985,2.592,1.985,2.592" transform="translate(-342.959 -89.93)" fill="#4635b1"/>
            <path id="Trazado_902993" data-name="Trazado 902993" d="M527.077,165.266a3.174,3.174,0,0,1,2.749.076c1.2.781,1.644,4.035,1.644,4.035a1.86,1.86,0,0,1,2.442-.26,5.29,5.29,0,0,1,1.644,2.017,1.567,1.567,0,0,1,1.894-.651,3.153,3.153,0,0,1,1.893,2.082c.2.586-.3.325-2.043.325s-1.894-.846-1.894-.846a5.028,5.028,0,0,1-2.641.325c-1.844-.13-1.943-.716-1.943-.716s.6.716-2.043.911-7.823-.911-7.325-5.141,2.492-5.076,3.638-4.75S527.077,165.266,527.077,165.266Z" transform="translate(-342.959 -89.93)" fill="none" stroke="#4635b1" stroke-linecap="round" stroke-linejoin="round" stroke-width="1"/>
            <path id="Trazado_902994" data-name="Trazado 902994" d="M515.179,273.293l.206,3.955a7.751,7.751,0,0,0,5.3.27c3.373-.809,6.745-2.786,7.57-4.4a8.46,8.46,0,0,0,.826-3.416s-6.539,3.236-9.7,3.685-4.2-.09-4.2-.09" transform="translate(-338.853 -149.153)" fill="#fff"/>
            <path id="Trazado_902995" data-name="Trazado 902995" d="M515.179,273.293l.206,3.955a7.751,7.751,0,0,0,5.3.27c3.373-.809,6.745-2.786,7.57-4.4a8.46,8.46,0,0,0,.826-3.416s-6.539,3.236-9.7,3.685S515.179,273.293,515.179,273.293Z" transform="translate(-338.853 -149.153)" fill="none" stroke="#4635b1" stroke-linecap="round" stroke-linejoin="round" stroke-width="1"/>
            <path id="Trazado_902996" data-name="Trazado 902996" d="M517.1,190.2s-2.454,28.354-2.507,31.21a19.673,19.673,0,0,0,.16,3.832,14.612,14.612,0,0,0,9.922-1.394c4.908-2.717,5.015-4.11,4.855-5.573s-2.667-19.576-2.721-20.69-.053-2.926-.053-2.926l.427-.557s5.121,4.389,8.642,4.458,4.588-2.717,4-6.827-5.548-5.782-10.189-8.081-6.241-2.856-9.656-2.856-2.881,9.4-2.881,9.4" transform="translate(-338.46 -99.985)" fill="#538040"/>
            <path id="Trazado_902997" data-name="Trazado 902997" d="M517.1,190.2s-2.454,28.354-2.507,31.21a19.673,19.673,0,0,0,.16,3.832,14.612,14.612,0,0,0,9.922-1.394c4.908-2.717,5.015-4.11,4.855-5.573s-2.667-19.576-2.721-20.69-.053-2.926-.053-2.926l.427-.557s5.121,4.389,8.642,4.458,4.588-2.717,4-6.827-5.548-5.782-10.189-8.081-6.241-2.856-9.656-2.856S517.1,190.2,517.1,190.2Z" transform="translate(-338.46 -99.985)" fill="none" stroke="#4635b1" stroke-linecap="round" stroke-linejoin="round" stroke-width="1"/>
            <path id="Trazado_902998" data-name="Trazado 902998" d="M494.965,175.575s-1.894.325-2.043.911-.449,2.863-.6,3.97-.2,6.9,5.98,7.158,9.268-2.8,9.667-6.833.349-3.254-.548-5.206a3.338,3.338,0,0,0-3.787-1.692c-.847.13-2.193,2.473-4.933,2.733s-3.737-1.041-3.737-1.041" transform="translate(-323.794 -96.128)" fill="#fff"/>
            <path id="Trazado_902999" data-name="Trazado 902999" d="M494.965,175.575s-1.894.325-2.043.911-.449,2.863-.6,3.97-.2,6.9,5.98,7.158,9.268-2.8,9.667-6.833.349-3.254-.548-5.206a3.338,3.338,0,0,0-3.787-1.692c-.847.13-2.193,2.473-4.933,2.733S494.965,175.575,494.965,175.575Z" transform="translate(-323.794 -96.128)" fill="none" stroke="#4635b1" stroke-linecap="round" stroke-linejoin="round" stroke-width="1"/>
            <path id="Trazado_903000" data-name="Trazado 903000" d="M505.8,180.844s1.245,2.121,2.1,1.981c0,0,1.287,1.077,3.679-2.372s.548-3.579.548-3.579-3.239,4.425-6.328,3.969" transform="translate(-332.682 -97.818)" fill="#4635b1"/>
            <path id="Trazado_903001" data-name="Trazado 903001" d="M505.8,180.844s1.245,2.121,2.1,1.981c0,0,1.287,1.077,3.679-2.372s.548-3.579.548-3.579S508.886,181.3,505.8,180.844Z" transform="translate(-332.682 -97.818)" fill="none" stroke="#4635b1" stroke-linecap="round" stroke-linejoin="round" stroke-width="1"/>
            <path id="Trazado_903002" data-name="Trazado 903002" d="M519.884,182.408s.548,3.839-3.687,6.833-6.179,2.148-6.179,2.148" transform="translate(-335.459 -100.878)" fill="none" stroke="#4635b1" stroke-linecap="round" stroke-linejoin="round" stroke-width="1"/>
            <path id="Trazado_903003" data-name="Trazado 903003" d="M503.294,186.543a6.494,6.494,0,0,1-4.883,1.236c-2.242-.2-3.388-3.189-3.388-3.189" transform="translate(-325.595 -102.086)" fill="none" stroke="#4635b1" stroke-linecap="round" stroke-linejoin="round" stroke-width="1"/>
            <path id="Trazado_903004" data-name="Trazado 903004" d="M525.982,179.932s-1,3.059-5.481,5.987" transform="translate(-342.354 -99.509)" fill="none" stroke="#4635b1" stroke-linecap="round" stroke-linejoin="round" stroke-width="1"/>
            <path id="Trazado_903005" data-name="Trazado 903005" d="M450.775,212.213s-1.156-.906.066-3.236,2.94-1.855,3.238-.518.033,2.977-.991,3.451-1.916.6-2.313.3" transform="translate(-296.167 -114.669)" fill="#fff"/>
            <path id="Trazado_903006" data-name="Trazado 903006" d="M450.775,212.213s-1.156-.906.066-3.236,2.94-1.855,3.238-.518.033,2.977-.991,3.451S451.171,212.515,450.775,212.213Z" transform="translate(-296.167 -114.669)" fill="none" stroke="#4635b1" stroke-linecap="round" stroke-linejoin="round" stroke-width="1"/>
            <path id="Trazado_903007" data-name="Trazado 903007" d="M468.515,203.255s1.863-.243,2.049-.292.745.243.261.924-.6.779-2.2,1.071-.782,1.022-2.086,2.043-1.528,1.022-1.528,1.022.522-3.941,1.565-5.06,1.937.292,1.937.292" transform="translate(-305.857 -112.007)" fill="#fff"/>
            <path id="Trazado_903008" data-name="Trazado 903008" d="M468.515,203.255s1.863-.243,2.049-.292.745.243.261.924-.6.779-2.2,1.071-.782,1.022-2.086,2.043-1.528,1.022-1.528,1.022.522-3.941,1.565-5.06S468.515,203.255,468.515,203.255Z" transform="translate(-305.857 -112.007)" fill="none" stroke="#4635b1" stroke-linecap="round" stroke-linejoin="round" stroke-width="1"/>
            <path id="Trazado_903009" data-name="Trazado 903009" d="M457.156,201.751a17.745,17.745,0,0,1,2.472-3.674c1.023-.89,3.751-1.781,4.433-1.225a.7.7,0,0,1,.085,1.113s.6.78.085,1.225a33.905,33.905,0,0,1-2.9,1.781s2.131-.112,2.387.445.13.888-.317.888-1.453-.1-1.974-.1a4.256,4.256,0,0,0-1.3.341l2.049.535s.484.341-.075.876-1.975-.389-2.123-.389-.335,1.459-1.714,2.189-2.459.292-2.31-1.411a4.025,4.025,0,0,1,1.2-2.6" transform="translate(-299.888 -108.772)" fill="#fff"/>
            <path id="Trazado_903010" data-name="Trazado 903010" d="M457.156,201.751a17.745,17.745,0,0,1,2.472-3.674c1.023-.89,3.751-1.781,4.433-1.225a.7.7,0,0,1,.085,1.113s.6.78.085,1.225a33.905,33.905,0,0,1-2.9,1.781s2.131-.112,2.387.445.13.888-.317.888-1.453-.1-1.974-.1a4.256,4.256,0,0,0-1.3.341l2.049.535s.484.341-.075.876-1.975-.389-2.123-.389-.335,1.459-1.714,2.189-2.459.292-2.31-1.411A4.025,4.025,0,0,1,457.156,201.751Z" transform="translate(-299.888 -108.772)" fill="none" stroke="#4635b1" stroke-linecap="round" stroke-linejoin="round" stroke-width="1"/>
            <path id="Trazado_903011" data-name="Trazado 903011" d="M472.048,199.558s-1.116.253-2.122.593a6.875,6.875,0,0,0-1.974,1.314" transform="translate(-307.79 -110.363)" fill="#fff"/>
            <path id="Trazado_903012" data-name="Trazado 903012" d="M472.048,199.558s-1.116.253-2.122.593a6.875,6.875,0,0,0-1.974,1.314" transform="translate(-307.79 -110.363)" fill="none" stroke="#4635b1" stroke-linecap="round" stroke-linejoin="round" stroke-width="1"/>
            <path id="Trazado_903013" data-name="Trazado 903013" d="M468.089,206.264a2.4,2.4,0,0,0-1.06.117c-.485.195-.82.341-.82.341" transform="translate(-306.645 -114.063)" fill="#fff"/>
            <path id="Trazado_903014" data-name="Trazado 903014" d="M468.089,206.264a2.4,2.4,0,0,0-1.06.117c-.485.195-.82.341-.82.341" transform="translate(-306.645 -114.063)" fill="none" stroke="#4635b1" stroke-linecap="round" stroke-linejoin="round" stroke-width="1"/>
            <path id="Trazado_903015" data-name="Trazado 903015" d="M452.209,199.866s1.949-.431,3.469,2.2" transform="translate(-297.436 -110.519)" fill="none" stroke="#4635b1" stroke-linecap="round" stroke-linejoin="round" stroke-width="1"/>
            <path id="Trazado_903016" data-name="Trazado 903016" d="M563.421,202.7a7.409,7.409,0,0,1,5.475-3.285" transform="translate(-370.584 -110.282)" fill="none" stroke="#4635b1" stroke-linecap="round" stroke-linejoin="round" stroke-width="1"/>
            <path id="Trazado_903017" data-name="Trazado 903017" d="M563.92,208.859c0,1.636-.983,2.963-2.195,2.963s-2.195-1.327-2.195-2.963.983-2.963,2.195-2.963,2.195,1.327,2.195,2.963" transform="translate(-368.025 -113.868)" fill="#fff"/>
            <path id="Trazado_903018" data-name="Trazado 903018" d="M563.92,208.859c0,1.636-.983,2.963-2.195,2.963s-2.195-1.327-2.195-2.963.983-2.963,2.195-2.963S563.92,207.223,563.92,208.859Z" transform="translate(-368.025 -113.868)" fill="none" stroke="#4635b1" stroke-linecap="round" stroke-linejoin="round" stroke-width="1"/>
            <path id="Trazado_903019" data-name="Trazado 903019" d="M542.846,200.516s-1.013-1.654-1.9-1.323-2.407,2.4-2.154,2.813.38.579,1.14,0,1.2-1.075,1.457-.91a2.486,2.486,0,0,1,.57,1.572c0,.578-.127,1.323-.7,1.572a7.547,7.547,0,0,1-2.977.248c-1.267-.082-.887,1.572.76,1.737a12.738,12.738,0,0,0,3.483-.248,4.525,4.525,0,0,0,1.583.5h.633a3.052,3.052,0,0,0,2.027,1.075c1.14,0,1.647-1.737,1.14-3.391s-3.357-2.978-3.737-3.143-1.33-.5-1.33-.5" transform="translate(-353.556 -110.137)" fill="#fff"/>
            <path id="Trazado_903020" data-name="Trazado 903020" d="M542.846,200.516s-1.013-1.654-1.9-1.323-2.407,2.4-2.154,2.813.38.579,1.14,0,1.2-1.075,1.457-.91a2.486,2.486,0,0,1,.57,1.572c0,.578-.127,1.323-.7,1.572a7.547,7.547,0,0,1-2.977.248c-1.267-.082-.887,1.572.76,1.737a12.738,12.738,0,0,0,3.483-.248,4.525,4.525,0,0,0,1.583.5h.633a3.052,3.052,0,0,0,2.027,1.075c1.14,0,1.647-1.737,1.14-3.391s-3.357-2.978-3.737-3.143S542.846,200.516,542.846,200.516Z" transform="translate(-353.556 -110.137)" fill="none" stroke="#4635b1" stroke-linecap="round" stroke-linejoin="round" stroke-width="1"/>
            <path id="Trazado_903021" data-name="Trazado 903021" d="M550.011,203.449l-1.647-1.241s-2.787,2.068-2.407,2.978.76.331,1.583-.248a12.367,12.367,0,0,1,1.14-.745s1.393.579,1.33-.744" transform="translate(-359.074 -111.828)" fill="#fff"/>
            <path id="Trazado_903022" data-name="Trazado 903022" d="M550.011,203.449l-1.647-1.241s-2.787,2.068-2.407,2.978.76.331,1.583-.248a12.367,12.367,0,0,1,1.14-.745S550.074,204.772,550.011,203.449Z" transform="translate(-359.074 -111.828)" fill="none" stroke="#4635b1" stroke-linecap="round" stroke-linejoin="round" stroke-width="1"/>
            <path id="Trazado_903023" data-name="Trazado 903023" d="M554.694,204.713l-1.647-1.241s-2.787,2.068-2.407,2.978.76.331,1.583-.248a12.512,12.512,0,0,1,1.14-.745s1.393.579,1.33-.744" transform="translate(-362.154 -112.528)" fill="#fff"/>
            <path id="Trazado_903024" data-name="Trazado 903024" d="M554.694,204.713l-1.647-1.241s-2.787,2.068-2.407,2.978.76.331,1.583-.248a12.512,12.512,0,0,1,1.14-.745S554.757,206.036,554.694,204.713Z" transform="translate(-362.154 -112.528)" fill="none" stroke="#4635b1" stroke-linecap="round" stroke-linejoin="round" stroke-width="1"/>
            <path id="Trazado_903025" data-name="Trazado 903025" d="M557.505,207.145l-1.432-1.079s-2.787,2.068-2.407,2.978.76.331,1.583-.249a12.4,12.4,0,0,1,1.14-.744,1.789,1.789,0,0,0,.689.124" transform="translate(-364.145 -113.962)" fill="#fff"/>
            <path id="Trazado_903026" data-name="Trazado 903026" d="M557.505,207.145l-1.432-1.079s-2.787,2.068-2.407,2.978.76.331,1.583-.249a12.4,12.4,0,0,1,1.14-.744,1.789,1.789,0,0,0,.689.124" transform="translate(-364.145 -113.962)" fill="none" stroke="#4635b1" stroke-linecap="round" stroke-linejoin="round" stroke-width="1"/>
            <path id="Trazado_903027" data-name="Trazado 903027" d="M524.856,121.888c0,2.42-1.666,4.382-3.72,4.382s-3.719-1.962-3.719-4.382,1.665-4.382,3.719-4.382,3.72,1.962,3.72,4.382" transform="translate(-340.325 -64.985)" fill="#538040"/>
            <path id="Trazado_903028" data-name="Trazado 903028" d="M524.856,121.888c0,2.42-1.666,4.382-3.72,4.382s-3.719-1.962-3.719-4.382,1.665-4.382,3.719-4.382S524.856,119.468,524.856,121.888Z" transform="translate(-340.325 -64.985)" fill="none" stroke="#4635b1" stroke-linecap="round" stroke-linejoin="round" stroke-width="1"/>
            <path id="Trazado_903029" data-name="Trazado 903029" d="M494.22,154.53s0,4.14.3,6.258,2.949,6.354,4.644,6.74,3.686-.867,5.234-2.792,2.654-6.739,2.728-7.028a6.443,6.443,0,0,0-3.1-4.332c-4.894-2.905-6.93-2.022-8.331-1.155a3.11,3.11,0,0,0-1.474,2.311" transform="translate(-325.068 -83.719)" fill="#fff"/>
            <path id="Trazado_903030" data-name="Trazado 903030" d="M494.22,154.53s0,4.14.3,6.258,2.949,6.354,4.644,6.74,3.686-.867,5.234-2.792,2.654-6.739,2.728-7.028a6.443,6.443,0,0,0-3.1-4.332c-4.894-2.905-6.93-2.022-8.331-1.155A3.11,3.11,0,0,0,494.22,154.53Z" transform="translate(-325.068 -83.719)" fill="none" stroke="#4635b1" stroke-linecap="round" stroke-linejoin="round" stroke-width="1"/>
            <path id="Trazado_903031" data-name="Trazado 903031" d="M506.757,164.459s.221.674-.3.963a1.076,1.076,0,0,0-.221,1.733.673.673,0,0,0,1.032-.1" transform="translate(-332.739 -90.952)" fill="none" stroke="#4635b1" stroke-linecap="round" stroke-linejoin="round" stroke-width="1"/>
            <path id="Trazado_903032" data-name="Trazado 903032" d="M506.5,173.533a2.488,2.488,0,0,0,3.317-.674" transform="translate(-333.144 -95.597)" fill="none" stroke="#4635b1" stroke-linecap="round" stroke-linejoin="round" stroke-width="1"/>
            <path id="Trazado_903033" data-name="Trazado 903033" d="M517.433,161.711c0,.505-.182.914-.405.914s-.406-.409-.406-.914.182-.914.406-.914.405.409.405.914" transform="translate(-339.802 -88.927)" fill="#4635b1"/>
            <path id="Trazado_903034" data-name="Trazado 903034" d="M503,160.957c0,.505-.181.914-.406.914s-.405-.409-.405-.914.181-.914.405-.914.406.409.406.914" transform="translate(-330.31 -88.51)" fill="#4635b1"/>
            <path id="Trazado_903035" data-name="Trazado 903035" d="M493.124,135.249a13.538,13.538,0,0,1,3.922-5.385c2.628-1.953,6.671-1.267,8.045.475a12.667,12.667,0,0,1,2.668,6.494c.162,2.27.809-.528-5.9-1.056s-8.773.105-8.773.105Z" transform="translate(-324.321 -71.166)" fill="#538040"/>
            <path id="Trazado_903036" data-name="Trazado 903036" d="M493.124,135.249a13.538,13.538,0,0,1,3.922-5.385c2.628-1.953,6.671-1.267,8.045.475a12.667,12.667,0,0,1,2.668,6.494c.162,2.27.809-.528-5.9-1.056s-8.773.105-8.773.105Z" transform="translate(-324.321 -71.166)" fill="none" stroke="#4635b1" stroke-linecap="round" stroke-linejoin="round" stroke-width="1"/>
            <path id="Trazado_903037" data-name="Trazado 903037" d="M490.016,148.49s.311-1.955,5.324-1.859,7.612,4.8,7.686,5.276,1.677,1.656,2.194.115a21.755,21.755,0,0,0,1.032-7.125c-.221-2.022-1.77-5.006-9.142-6.066s-8.921,3.177-8.921,4.525a22.385,22.385,0,0,0,.443,4.622c.294,1.059,1.384.511,1.384.511" transform="translate(-321.101 -76.686)" fill="#538040"/>
            <path id="Trazado_903038" data-name="Trazado 903038" d="M490.016,148.49s.311-1.955,5.324-1.859,7.612,4.8,7.686,5.276,1.677,1.656,2.194.115a21.755,21.755,0,0,0,1.032-7.125c-.221-2.022-1.77-5.006-9.142-6.066s-8.921,3.177-8.921,4.525a22.385,22.385,0,0,0,.443,4.622C488.926,149.037,490.016,148.49,490.016,148.49Z" transform="translate(-321.101 -76.686)" fill="none" stroke="#4635b1" stroke-linecap="round" stroke-linejoin="round" stroke-width="1"/>
            <path id="Trazado_903039" data-name="Trazado 903039" d="M493.2,143.375s.374,4.236.523,4.887" transform="translate(-324.398 -79.292)" fill="none" stroke="#4635b1" stroke-linecap="round" stroke-linejoin="round" stroke-width="1"/>
            <path id="Trazado_903040" data-name="Trazado 903040" d="M500.263,141.35c0,.455.448,4.555.448,4.555" transform="translate(-329.043 -78.172)" fill="none" stroke="#4635b1" stroke-linecap="round" stroke-linejoin="round" stroke-width="1"/>
            <line id="Línea_674" data-name="Línea 674" y2="2.082" transform="translate(173.961 62.723)" fill="none" stroke="#4635b1" stroke-linecap="round" stroke-linejoin="round" stroke-width="1"/>
            <line id="Línea_675" data-name="Línea 675" x1="0.947" y2="4.1" transform="translate(179.144 63.894)" fill="none" stroke="#4635b1" stroke-linecap="round" stroke-linejoin="round" stroke-width="1"/>
            <line id="Línea_676" data-name="Línea 676" x1="0.897" y2="2.929" transform="translate(183.529 68.645)" fill="none" stroke="#4635b1" stroke-linecap="round" stroke-linejoin="round" stroke-width="1"/>
            <path id="Trazado_903041" data-name="Trazado 903041" d="M499.394,157.863c0-1.728-1.073-3.129-2.4-3.129s-2.4,1.4-2.4,3.129,1.073,3.129,2.4,3.129S499.394,159.591,499.394,157.863Z" transform="translate(-325.319 -85.574)" fill="none" stroke="#4635b1" stroke-linecap="round" stroke-linejoin="round" stroke-width="1"/>
            <path id="Trazado_903042" data-name="Trazado 903042" d="M514.869,157.863c0-1.728-1.073-3.129-2.4-3.129s-2.4,1.4-2.4,3.129,1.073,3.129,2.4,3.129S514.869,159.591,514.869,157.863Z" transform="translate(-335.498 -85.574)" fill="none" stroke="#4635b1" stroke-linecap="round" stroke-linejoin="round" stroke-width="1"/>
            <line id="Línea_677" data-name="Línea 677" x2="0.485" transform="translate(174.1 71.739)" fill="none" stroke="#4635b1" stroke-linecap="round" stroke-linejoin="round" stroke-width="1"/>
            <path id="Trazado_903043" data-name="Trazado 903043" d="M478.071,235.192l.33,2.2c12.321,1.778,21.5,7.58,21.5,14.192,0,7.976-13.551,14.715-29.591,14.715s-29.591-6.738-29.591-14.715c0-3.691,2.9-7.117,7.612-9.733l.693-2.85c-6.214,3.087-10.057,7.547-10.057,12.582,0,9.535,13.767,17,31.343,17s31.343-7.468,31.343-17c0-8.1-9.813-14.585-23.587-16.387" transform="translate(-288.729 -130.07)" fill="#fff"/>
            <path id="Trazado_903044" data-name="Trazado 903044" d="M478.071,235.192l.33,2.2c12.321,1.778,21.5,7.58,21.5,14.192,0,7.976-13.551,14.715-29.591,14.715s-29.591-6.738-29.591-14.715c0-3.691,2.9-7.117,7.612-9.733l.693-2.85c-6.214,3.087-10.057,7.547-10.057,12.582,0,9.535,13.767,17,31.343,17s31.343-7.468,31.343-17C501.658,243.476,491.845,236.995,478.071,235.192Z" transform="translate(-288.729 -130.07)" fill="none" stroke="#4635b1" stroke-linecap="round" stroke-linejoin="round" stroke-width="1"/>
            <path id="Trazado_903045" data-name="Trazado 903045" d="M388.91,221.043l1.182-2.059,2.444,1.441-.71,2.677Z" transform="translate(-255.801 -121.106)" fill="#538040"/>
            <path id="Trazado_903046" data-name="Trazado 903046" d="M388.91,221.043l1.182-2.059,2.444,1.441-.71,2.677Z" transform="translate(-255.801 -121.106)" fill="none" stroke="#4635b1" stroke-linecap="round" stroke-linejoin="round" stroke-width="1"/>
            <path id="Trazado_903047" data-name="Trazado 903047" d="M298.945,278.186s-1.182.824-1.262,5.972,1.5,6.589,2.208,6.8c.524.152,10.4.08,15.548.031,2.72-.026,4.958-3.017,4.731-6.557a7.331,7.331,0,0,0-.174-1.2,27.484,27.484,0,0,0-1.309-4.6Z" transform="translate(-195.796 -153.847)" fill="#538040"/>
            <path id="Trazado_903048" data-name="Trazado 903048" d="M298.945,278.186s-1.182.824-1.262,5.972,1.5,6.589,2.208,6.8c.524.152,10.4.08,15.548.031,2.72-.026,4.958-3.017,4.731-6.557a7.331,7.331,0,0,0-.174-1.2,27.484,27.484,0,0,0-1.309-4.6Z" transform="translate(-195.796 -153.847)" fill="none" stroke="#4635b1" stroke-linecap="round" stroke-linejoin="round" stroke-width="1"/>
            <path id="Trazado_903049" data-name="Trazado 903049" d="M300.461,205.553a29.507,29.507,0,0,0-5.755,2.574c-3,1.75-5.992,14.826-5.282,18.533s1.735,4.016,2.6,3.6a6.315,6.315,0,0,0,1.813-1.955s-2.05,9.987-1.577,11.634,2.365,1.956,5.283,1.853,13.718,0,13.718,0,3,0,3.39-2.78-1.262-10.914-1.262-10.914,3,3.5,5.519,2.883,5.8-8.234,6.623-10.3c1.1-2.78.946-3.912.789-5.044s-2.208-2.883-3.469-2.163-4.888,6.9-4.888,6.9-4.021-10.193-5.755-11.634-2.286-1.853-6.071-2.677a17,17,0,0,0-5.677-.515" transform="translate(-190.296 -113.647)" fill="#5e2b80"/>
            <path id="Trazado_903050" data-name="Trazado 903050" d="M300.461,205.553a29.507,29.507,0,0,0-5.755,2.574c-3,1.75-5.992,14.826-5.282,18.533s1.735,4.016,2.6,3.6a6.315,6.315,0,0,0,1.813-1.955s-2.05,9.987-1.577,11.634,2.365,1.956,5.283,1.853,13.718,0,13.718,0,3,0,3.39-2.78-1.262-10.914-1.262-10.914,3,3.5,5.519,2.883,5.8-8.234,6.623-10.3c1.1-2.78.946-3.912.789-5.044s-2.208-2.883-3.469-2.163-4.888,6.9-4.888,6.9-4.021-10.193-5.755-11.634-2.286-1.853-6.071-2.677A17,17,0,0,0,300.461,205.553Z" transform="translate(-190.296 -113.647)" fill="none" stroke="#4635b1" stroke-linecap="round" stroke-linejoin="round" stroke-width="1"/>
            <line id="Línea_678" data-name="Línea 678" x2="0.079" y2="19.048" transform="translate(112.452 105.291)" fill="none" stroke="#4635b1" stroke-linecap="round" stroke-linejoin="round" stroke-width="1"/>
            <line id="Línea_679" data-name="Línea 679" x1="5.755" transform="translate(116.473 112.91)" fill="none" stroke="#4635b1" stroke-linecap="round" stroke-linejoin="round" stroke-width="1"/>
            <line id="Línea_680" data-name="Línea 680" x2="4.967" transform="translate(104.962 112.704)" fill="none" stroke="#4635b1" stroke-linecap="round" stroke-linejoin="round" stroke-width="1"/>
            <line id="Línea_681" data-name="Línea 681" x2="3.469" transform="translate(106.224 119.191)" fill="none" stroke="#4635b1" stroke-linecap="round" stroke-linejoin="round" stroke-width="1"/>
            <line id="Línea_682" data-name="Línea 682" x2="5.125" transform="translate(115.212 119.294)" fill="none" stroke="#4635b1" stroke-linecap="round" stroke-linejoin="round" stroke-width="1"/>
            <path id="Trazado_903051" data-name="Trazado 903051" d="M379,235.8s1.735,2.574,3.311,2.986" transform="translate(-249.286 -130.406)" fill="none" stroke="#4635b1" stroke-linecap="round" stroke-linejoin="round" stroke-width="1"/>
            <path id="Trazado_903052" data-name="Trazado 903052" d="M361.887,232.8s-2.523,1.133-3.154,2.677" transform="translate(-235.953 -128.75)" fill="none" stroke="#4635b1" stroke-linecap="round" stroke-linejoin="round" stroke-width="1"/>
            <line id="Línea_683" data-name="Línea 683" x2="6.859" transform="translate(114.029 106.424)" fill="none" stroke="#4635b1" stroke-linecap="round" stroke-linejoin="round" stroke-width="1"/>
            <line id="Línea_684" data-name="Línea 684" x1="3.154" transform="translate(105.987 106.012)" fill="none" stroke="#4635b1" stroke-linecap="round" stroke-linejoin="round" stroke-width="1"/>
            <line id="Línea_685" data-name="Línea 685" x1="0.552" y1="10.914" transform="translate(122.544 103.54)" fill="none" stroke="#4635b1" stroke-linecap="round" stroke-linejoin="round" stroke-width="1"/>
            <path id="Trazado_903053" data-name="Trazado 903053" d="M302.526,244.429s1.182-9.369,1.262-9.781" transform="translate(-198.983 -129.769)" fill="none" stroke="#4635b1" stroke-linecap="round" stroke-linejoin="round" stroke-width="1"/>
            <path id="Trazado_903054" data-name="Trazado 903054" d="M371.8,238.795a15.184,15.184,0,0,0-.631,3.6" transform="translate(-244.134 -132.062)" fill="none" stroke="#4635b1" stroke-linecap="round" stroke-linejoin="round" stroke-width="1"/>
            <path id="Trazado_903055" data-name="Trazado 903055" d="M316.534,199.43a7.866,7.866,0,0,0-2.76,2.162,3.591,3.591,0,0,0-.237,4.016c.552,1.133,4.809,8.031,4.809,8.031s5.361-6.178,6.228-8.031,1.419-3.089.079-5.251-8.121-.927-8.121-.927" transform="translate(-205.895 -110.098)" fill="#538040"/>
            <path id="Trazado_903056" data-name="Trazado 903056" d="M316.534,199.43a7.866,7.866,0,0,0-2.76,2.162,3.591,3.591,0,0,0-.237,4.016c.552,1.133,4.809,8.031,4.809,8.031s5.361-6.178,6.228-8.031,1.419-3.089.079-5.251S316.534,199.43,316.534,199.43Z" transform="translate(-205.895 -110.098)" fill="none" stroke="#4635b1" stroke-linecap="round" stroke-linejoin="round" stroke-width="1"/>
            <path id="Trazado_903057" data-name="Trazado 903057" d="M322.567,200.208l.315,3.809s1.34,4.118,1.814,3.707a23.3,23.3,0,0,0,2.759-4.53,49.487,49.487,0,0,0,.789-4.942l-5.44.721Z" transform="translate(-212.165 -109.641)" fill="#fff"/>
            <path id="Trazado_903058" data-name="Trazado 903058" d="M322.567,200.208l.315,3.809s1.34,4.118,1.814,3.707a23.3,23.3,0,0,0,2.759-4.53,49.487,49.487,0,0,0,.789-4.942l-5.44.721Z" transform="translate(-212.165 -109.641)" fill="none" stroke="#4635b1" stroke-linecap="round" stroke-linejoin="round" stroke-width="1"/>
            <path id="Trazado_903059" data-name="Trazado 903059" d="M352.363,149.786s1.19-4.08,6.993-2.817,4.166,13.5,2.752,15.544,1.265,2.915,1.934,1.651a4.268,4.268,0,0,1-2.752,3.789c-2.827,1.263-5.728.777-7.142-4.469s-1.786-13.7-1.786-13.7" transform="translate(-231.763 -81.145)" fill="#4635b1"/>
            <path id="Trazado_903060" data-name="Trazado 903060" d="M352.363,149.786s1.19-4.08,6.993-2.817,4.166,13.5,2.752,15.544,1.265,2.915,1.934,1.651a4.268,4.268,0,0,1-2.752,3.789c-2.827,1.263-5.728.777-7.142-4.469S352.363,149.786,352.363,149.786Z" transform="translate(-231.763 -81.145)" fill="none" stroke="#4635b1" stroke-linecap="round" stroke-linejoin="round" stroke-width="1"/>
            <path id="Trazado_903061" data-name="Trazado 903061" d="M312.121,160.865s-.3,5.829-.6,7.869-.669,4.858,1.86,7.869,7.886,3.5,10.341-2.817c0,0,1.637.777,2.976-1.36s1.265-4.469.372-6.995-4.612-4.955-10.415-6.8-4.538,2.234-4.538,2.234" transform="translate(-204.763 -87.464)" fill="#fff"/>
            <path id="Trazado_903062" data-name="Trazado 903062" d="M312.121,160.865s-.3,5.829-.6,7.869-.669,4.858,1.86,7.869,7.886,3.5,10.341-2.817c0,0,1.637.777,2.976-1.36s1.265-4.469.372-6.995-4.612-4.955-10.415-6.8S312.121,160.865,312.121,160.865Z" transform="translate(-204.763 -87.464)" fill="none" stroke="#4635b1" stroke-linecap="round" stroke-linejoin="round" stroke-width="1"/>
            <path id="Trazado_903063" data-name="Trazado 903063" d="M319.015,148.351s-4.017-2.332-7.067-.583-3.273,7.481-3.273,7.481l4.464,1.263,1.116-2.429-.223,2.526,4.538,1.749.669-2.137.074,2.429,1.934,1.263a3.468,3.468,0,0,0-.223,1.943,2.313,2.313,0,0,0,1.042,1.749s.521-2.04,2.083-1.457.521,4.469-.075,5.149-2.083.388-2.083.388,1.488.875,2.306.389,3.273-3.4,3.348-9.035-2.232-8.355-4.687-9.813-3.943-.874-3.943-.874" transform="translate(-203.027 -81.362)" fill="#4635b1"/>
            <path id="Trazado_903064" data-name="Trazado 903064" d="M319.015,148.351s-4.017-2.332-7.067-.583-3.273,7.481-3.273,7.481l4.464,1.263,1.116-2.429-.223,2.526,4.538,1.749.669-2.137.074,2.429,1.934,1.263a3.468,3.468,0,0,0-.223,1.943,2.313,2.313,0,0,0,1.042,1.749s.521-2.04,2.083-1.457.521,4.469-.075,5.149-2.083.388-2.083.388,1.488.875,2.306.389,3.273-3.4,3.348-9.035-2.232-8.355-4.687-9.813S319.015,148.351,319.015,148.351Z" transform="translate(-203.027 -81.362)" fill="none" stroke="#4635b1" stroke-linecap="round" stroke-linejoin="round" stroke-width="1"/>
            <path id="Trazado_903065" data-name="Trazado 903065" d="M321.5,184.437s.223,1.166,1.116,1.069,1.116-.583,1.116-.583" transform="translate(-211.462 -102)" fill="none" stroke="#4635b1" stroke-linecap="round" stroke-linejoin="round" stroke-width="1"/>
            <path id="Trazado_903066" data-name="Trazado 903066" d="M321.716,190.477s1.414,1.166,3.72-.388" transform="translate(-211.605 -105.126)" fill="none" stroke="#4635b1" stroke-linecap="round" stroke-linejoin="round" stroke-width="1"/>
            <path id="Trazado_903067" data-name="Trazado 903067" d="M331.931,188.132s.3,1.457.967,1.749" transform="translate(-218.324 -104.044)" fill="none" stroke="#4635b1" stroke-linecap="round" stroke-linejoin="round" stroke-width="1"/>
            <path id="Trazado_903068" data-name="Trazado 903068" d="M317.151,177.9a1.152,1.152,0,0,1,1.562.291" transform="translate(-208.603 -98.279)" fill="none" stroke="#4635b1" stroke-linecap="round" stroke-linejoin="round" stroke-width="1"/>
            <path id="Trazado_903069" data-name="Trazado 903069" d="M331.279,180.606s1.339-.486,1.86.583" transform="translate(-217.895 -99.821)" fill="none" stroke="#4635b1" stroke-linecap="round" stroke-linejoin="round" stroke-width="1"/>
            <path id="Trazado_903070" data-name="Trazado 903070" d="M318.519,173.149s-.893-1.555-2.455,0" transform="translate(-207.888 -95.376)" fill="none" stroke="#4635b1" stroke-linecap="round" stroke-linejoin="round" stroke-width="1"/>
            <path id="Trazado_903071" data-name="Trazado 903071" d="M331.279,175.279s2.157-1.069,2.827,1.749" transform="translate(-217.895 -96.826)" fill="none" stroke="#4635b1" stroke-linecap="round" stroke-linejoin="round" stroke-width="1"/>
            <path id="Trazado_903072" data-name="Trazado 903072" d="M392.365,207.791s.394-1.75.71-3.089,1.262-1.75,2.05-2.883.946-3.809,1.656-2.883-.158,2.883-.158,2.883l3.154-.309s2.76-3.089,3-1.75-2.129,5.148-2.917,5.972-4.494,2.368-4.494,2.368l-.552,1.133Z" transform="translate(-258.074 -109.913)" fill="#fff"/>
            <path id="Trazado_903073" data-name="Trazado 903073" d="M392.365,207.791s.394-1.75.71-3.089,1.262-1.75,2.05-2.883.946-3.809,1.656-2.883-.158,2.883-.158,2.883l3.154-.309s2.76-3.089,3-1.75-2.129,5.148-2.917,5.972-4.494,2.368-4.494,2.368l-.552,1.133Z" transform="translate(-258.074 -109.913)" fill="none" stroke="#4635b1" stroke-linecap="round" stroke-linejoin="round" stroke-width="1"/>
            <path id="Trazado_903074" data-name="Trazado 903074" d="M398.585,207.215s1.025-1.956,1.971-2.059,3.469-.206,3.469-.206.237-4.839.946-4.633.237,4.118-.158,5.251-5.361,3.4-5.361,3.4" transform="translate(-262.165 -110.779)" fill="#fff"/>
            <path id="Trazado_903075" data-name="Trazado 903075" d="M398.585,207.215s1.025-1.956,1.971-2.059,3.469-.206,3.469-.206.237-4.839.946-4.633.237,4.118-.158,5.251-5.361,3.4-5.361,3.4" transform="translate(-262.165 -110.779)" fill="none" stroke="#4635b1" stroke-linecap="round" stroke-linejoin="round" stroke-width="1"/>
            <path id="Trazado_903076" data-name="Trazado 903076" d="M285.445,239.91s-2.681-3.5-3.469-4.839-4.1-1.75-4.652.1.316,6.177,1.656,8.752,3.311,3.809,4.809,3.089,2.207-3.4,2.365-4.428" transform="translate(-182.296 -129.368)" fill="#5e2b80"/>
            <path id="Trazado_903077" data-name="Trazado 903077" d="M285.445,239.91s-2.681-3.5-3.469-4.839-4.1-1.75-4.652.1.316,6.177,1.656,8.752,3.311,3.809,4.809,3.089,2.207-3.4,2.365-4.428" transform="translate(-182.296 -129.368)" fill="none" stroke="#4635b1" stroke-linecap="round" stroke-linejoin="round" stroke-width="1"/>
            <path id="Trazado_903078" data-name="Trazado 903078" d="M278.254,233.5s-.867-.206-1.183,1.853.631,3.707,2.05,4.016,3.154-1.544,3.311-2.677a3.228,3.228,0,0,0-1.1-2.986,2.143,2.143,0,0,0-3.075-.206" transform="translate(-182.201 -128.829)" fill="#538040"/>
            <path id="Trazado_903079" data-name="Trazado 903079" d="M278.254,233.5s-.867-.206-1.183,1.853.631,3.707,2.05,4.016,3.154-1.544,3.311-2.677a3.228,3.228,0,0,0-1.1-2.986A2.143,2.143,0,0,0,278.254,233.5Z" transform="translate(-182.201 -128.829)" fill="none" stroke="#4635b1" stroke-linecap="round" stroke-linejoin="round" stroke-width="1"/>
            <path id="Trazado_903080" data-name="Trazado 903080" d="M284.021,207.053s-.473-4.118,1.1-4.633a2.654,2.654,0,0,1,2.523.309s-1.025,1.648-.63,2.471,1.182-.206,1.182-.206.236,1.133.71,1.441,1.1-1.03,1.1-1.03.473.618.71-.206l.237-.824s1.1,1.235.552,3.912a7.126,7.126,0,0,1-2.05,3.913s.552,3.6,0,4.53-6.386-.927-6.859-2.368,2.05-5.869,2.05-5.869Z" transform="translate(-185.84 -111.852)" fill="#fff"/>
            <path id="Trazado_903081" data-name="Trazado 903081" d="M284.021,207.053s-.473-4.118,1.1-4.633a2.654,2.654,0,0,1,2.523.309s-1.025,1.648-.63,2.471,1.182-.206,1.182-.206.236,1.133.71,1.441,1.1-1.03,1.1-1.03.473.618.71-.206l.237-.824s1.1,1.235.552,3.912a7.126,7.126,0,0,1-2.05,3.913s.552,3.6,0,4.53-6.386-.927-6.859-2.368,2.05-5.869,2.05-5.869Z" transform="translate(-185.84 -111.852)" fill="none" stroke="#4635b1" stroke-linecap="round" stroke-linejoin="round" stroke-width="1"/>
            <path id="Trazado_903082" data-name="Trazado 903082" d="M282.409,206.823s-.473-4.118,1.1-4.633a2.654,2.654,0,0,1,2.523.309s-1.025,1.647-.63,2.471,1.183-.206,1.183-.206.237,1.133.71,1.441,1.1-1.03,1.1-1.03.473.618.71-.206l.237-.824s1.1,1.235.552,3.912a7.126,7.126,0,0,1-2.05,3.913s.552,3.6,0,4.53-6.386-.927-6.859-2.368,2.05-5.869,2.05-5.869Z" transform="translate(-184.779 -111.725)" fill="#fff"/>
            <path id="Trazado_903083" data-name="Trazado 903083" d="M282.409,206.823s-.473-4.118,1.1-4.633a2.654,2.654,0,0,1,2.523.309s-1.025,1.647-.63,2.471,1.183-.206,1.183-.206.237,1.133.71,1.441,1.1-1.03,1.1-1.03.473.618.71-.206l.237-.824s1.1,1.235.552,3.912a7.126,7.126,0,0,1-2.05,3.913s.552,3.6,0,4.53-6.386-.927-6.859-2.368,2.05-5.869,2.05-5.869Z" transform="translate(-184.779 -111.725)" fill="none" stroke="#4635b1" stroke-linecap="round" stroke-linejoin="round" stroke-width="1"/>
            <path id="Trazado_903084" data-name="Trazado 903084" d="M277.525,224.018s-1.1-5.045-1.5-6.8a4.11,4.11,0,0,1,1.5-4.428c1.34-.824,2.444-1.338,2.286-.412s-1.5,1.338-1.892,1.75a6.287,6.287,0,0,0-.71.927,9.834,9.834,0,0,1,2.523-1.339c.946-.206,1.34.927.552,1.545s-1.5.824-1.971,1.441a3.816,3.816,0,0,0-.631,1.235,7.772,7.772,0,0,1,2.444-1.339c1.025-.206,1.34,0,.867.721a7.367,7.367,0,0,1-1.892,1.544,2.72,2.72,0,0,0-.631,1.133s3-2.059,2.76-1.029-1.656,1.956-1.656,1.956a2.859,2.859,0,0,1,.316,2.78c-.631,1.648-1.892,1.338-2.365.309" transform="translate(-181.472 -117.183)" fill="#fff"/>
            <path id="Trazado_903085" data-name="Trazado 903085" d="M277.525,224.018s-1.1-5.045-1.5-6.8a4.11,4.11,0,0,1,1.5-4.428c1.34-.824,2.444-1.338,2.286-.412s-1.5,1.338-1.892,1.75a6.287,6.287,0,0,0-.71.927,9.834,9.834,0,0,1,2.523-1.339c.946-.206,1.34.927.552,1.545s-1.5.824-1.971,1.441a3.816,3.816,0,0,0-.631,1.235,7.772,7.772,0,0,1,2.444-1.339c1.025-.206,1.34,0,.867.721a7.367,7.367,0,0,1-1.892,1.544,2.72,2.72,0,0,0-.631,1.133s3-2.059,2.76-1.029-1.656,1.956-1.656,1.956a2.859,2.859,0,0,1,.316,2.78C279.259,225.357,278,225.047,277.525,224.018Z" transform="translate(-181.472 -117.183)" fill="none" stroke="#4635b1" stroke-linecap="round" stroke-linejoin="round" stroke-width="1"/>
            <path id="Trazado_903086" data-name="Trazado 903086" d="M300.468,291.462s.751-7.84-1.823-10.361c-1.692-1.656-6.432-2.52-7.4,4.48s2.359,29.4,2.251,31.5.107,4.34-.321,5.88a9.312,9.312,0,0,1-2.68,4.48c-1.5,1.4-1.287,2.52,1.072,3.22s9.327,0,9.327,0,.965-1.12.536-3.92-.429-7.14-.536-8.82-.429-26.461-.429-26.461" transform="translate(-190.446 -154.82)" fill="#fff"/>
            <path id="Trazado_903087" data-name="Trazado 903087" d="M300.468,291.462s.751-7.84-1.823-10.361c-1.692-1.656-6.432-2.52-7.4,4.48s2.359,29.4,2.251,31.5.107,4.34-.321,5.88a9.312,9.312,0,0,1-2.68,4.48c-1.5,1.4-1.287,2.52,1.072,3.22s9.327,0,9.327,0,.965-1.12.536-3.92-.429-7.14-.536-8.82S300.468,291.462,300.468,291.462Z" transform="translate(-190.446 -154.82)" fill="none" stroke="#4635b1" stroke-linecap="round" stroke-linejoin="round" stroke-width="1"/>
            <path id="Trazado_903088" data-name="Trazado 903088" d="M291.57,376.018c2.358.7,9.327,0,9.327,0s.965-1.12.536-3.92a51.636,51.636,0,0,1-.413-5.46H299.4s-.643-5.32-3-4.62c-2,.595-2.768,3.405-2.952,4.239a9.189,9.189,0,0,1-.264,2.061,9.314,9.314,0,0,1-2.68,4.48c-1.5,1.4-1.287,2.52,1.072,3.22" transform="translate(-190.446 -200.174)" fill="#fff"/>
            <path id="Trazado_903089" data-name="Trazado 903089" d="M291.57,376.018c2.358.7,9.327,0,9.327,0s.965-1.12.536-3.92a51.636,51.636,0,0,1-.413-5.46H299.4s-.643-5.32-3-4.62c-2,.595-2.768,3.405-2.952,4.239a9.189,9.189,0,0,1-.264,2.061,9.314,9.314,0,0,1-2.68,4.48C289,374.2,289.211,375.318,291.57,376.018Z" transform="translate(-190.446 -200.174)" fill="none" stroke="#4635b1" stroke-linecap="round" stroke-linejoin="round" stroke-width="1"/>
            <path id="Trazado_903090" data-name="Trazado 903090" d="M295.009,389.124a11.734,11.734,0,0,1-5.235-.94c-.566.991-.036,1.794,1.8,2.339,2.359.7,9.327,0,9.327,0a3.674,3.674,0,0,0,.621-1.983,33.559,33.559,0,0,1-6.517.583" transform="translate(-190.454 -214.681)" fill="#fff"/>
            <path id="Trazado_903091" data-name="Trazado 903091" d="M295.009,389.124a11.734,11.734,0,0,1-5.235-.94c-.566.991-.036,1.794,1.8,2.339,2.359.7,9.327,0,9.327,0a3.674,3.674,0,0,0,.621-1.983A33.559,33.559,0,0,1,295.009,389.124Z" transform="translate(-190.454 -214.681)" fill="none" stroke="#4635b1" stroke-linecap="round" stroke-linejoin="round" stroke-width="1"/>
            <path id="Trazado_903092" data-name="Trazado 903092" d="M301.579,281.1c-1.691-1.657-6.432-2.52-7.4,4.48-.749,5.434,1.086,20.146,1.894,27.441h7.641c-.136-7.69-.316-21.561-.316-21.561s.751-7.841-1.823-10.361" transform="translate(-193.379 -154.819)" fill="#538040"/>
            <path id="Trazado_903093" data-name="Trazado 903093" d="M301.579,281.1c-1.691-1.657-6.432-2.52-7.4,4.48-.749,5.434,1.086,20.146,1.894,27.441h7.641c-.136-7.69-.316-21.561-.316-21.561S304.152,283.621,301.579,281.1Z" transform="translate(-193.379 -154.819)" fill="none" stroke="#4635b1" stroke-linecap="round" stroke-linejoin="round" stroke-width="1"/>
            <path id="Trazado_903094" data-name="Trazado 903094" d="M332.82,290.893s-.066-7.9-2.876-9.945c-1.847-1.344-6.634-1.364-6.867,5.743s5.375,28.717,5.485,30.817.555,4.281.289,5.883a10.151,10.151,0,0,1-2.193,4.912c-1.342,1.652-1.014,2.723,1.4,3s9.242-1.644,9.242-1.644.84-1.28.126-3.978-1.163-7-1.442-8.646-3.159-26.143-3.159-26.143" transform="translate(-212.495 -154.99)" fill="#fff"/>
            <path id="Trazado_903095" data-name="Trazado 903095" d="M332.82,290.893s-.066-7.9-2.876-9.945c-1.847-1.344-6.634-1.364-6.867,5.743s5.375,28.717,5.485,30.817.555,4.281.289,5.883a10.151,10.151,0,0,1-2.193,4.912c-1.342,1.652-1.014,2.723,1.4,3s9.242-1.644,9.242-1.644.84-1.28.126-3.978-1.163-7-1.442-8.646S332.82,290.893,332.82,290.893Z" transform="translate(-212.495 -154.99)" fill="none" stroke="#4635b1" stroke-linecap="round" stroke-linejoin="round" stroke-width="1"/>
            <path id="Trazado_903096" data-name="Trazado 903096" d="M333.442,376.061c2.41.278,9.242-1.643,9.242-1.643s.84-1.28.126-3.979a50.219,50.219,0,0,1-.973-5.338l-1.609.286s-1.187-5.158-3.452-4.049c-1.924.942-2.39,3.862-2.487,4.721a9.347,9.347,0,0,1-.049,2.089,10.152,10.152,0,0,1-2.193,4.911c-1.342,1.652-1.014,2.724,1.4,3" transform="translate(-217.885 -199.747)" fill="#fff"/>
            <path id="Trazado_903097" data-name="Trazado 903097" d="M333.442,376.061c2.41.278,9.242-1.643,9.242-1.643s.84-1.28.126-3.979a50.219,50.219,0,0,1-.973-5.338l-1.609.286s-1.187-5.158-3.452-4.049c-1.924.942-2.39,3.862-2.487,4.721a9.347,9.347,0,0,1-.049,2.089,10.152,10.152,0,0,1-2.193,4.911C330.7,374.711,331.033,375.783,333.442,376.061Z" transform="translate(-217.885 -199.747)" fill="none" stroke="#4635b1" stroke-linecap="round" stroke-linejoin="round" stroke-width="1"/>
            <path id="Trazado_903098" data-name="Trazado 903098" d="M336.706,387.88a11.461,11.461,0,0,1-5.283-.009c-.459,1.082.149,1.783,2.029,2,2.409.278,9.242-1.643,9.242-1.643a3.9,3.9,0,0,0,.41-2.074,34.917,34.917,0,0,1-6.4,1.726" transform="translate(-217.894 -213.557)" fill="#fff"/>
            <path id="Trazado_903099" data-name="Trazado 903099" d="M336.706,387.88a11.461,11.461,0,0,1-5.283-.009c-.459,1.082.149,1.783,2.029,2,2.409.278,9.242-1.643,9.242-1.643a3.9,3.9,0,0,0,.41-2.074A34.917,34.917,0,0,1,336.706,387.88Z" transform="translate(-217.894 -213.557)" fill="none" stroke="#4635b1" stroke-linecap="round" stroke-linejoin="round" stroke-width="1"/>
            <path id="Trazado_903100" data-name="Trazado 903100" d="M329.943,280.949c-1.847-1.344-6.634-1.364-6.867,5.743-.181,5.516,3.157,19.771,4.712,26.857l7.571-1.347c-.929-7.6-2.541-21.308-2.541-21.308s-.066-7.9-2.876-9.945" transform="translate(-212.495 -154.99)" fill="#538040"/>
            <path id="Trazado_903101" data-name="Trazado 903101" d="M329.943,280.949c-1.847-1.344-6.634-1.364-6.867,5.743-.181,5.516,3.157,19.771,4.712,26.857l7.571-1.347c-.929-7.6-2.541-21.308-2.541-21.308S332.753,282.992,329.943,280.949Z" transform="translate(-212.495 -154.99)" fill="none" stroke="#4635b1" stroke-linecap="round" stroke-linejoin="round" stroke-width="1"/>
            <path id="Trazado_903102" data-name="Trazado 903102" d="M394.839,288.416h-14.9a.825.825,0,0,1-.7-.91V273.351a.825.825,0,0,1,.7-.91h14.9a.825.825,0,0,1,.7.91v14.156a.825.825,0,0,1-.7.91" transform="translate(-249.442 -150.67)" fill="#fff"/>
            <rect id="Rectángulo_402577" data-name="Rectángulo 402577" width="16.293" height="15.975" rx="2.035" transform="translate(129.8 121.771)" fill="none" stroke="#4635b1" stroke-linecap="round" stroke-linejoin="round" stroke-width="1"/>
            <path id="Trazado_903103" data-name="Trazado 903103" d="M392.3,288.416H377.4a.825.825,0,0,1-.7-.91V273.351a.825.825,0,0,1,.7-.91h14.9a.825.825,0,0,1,.7.91v14.156a.825.825,0,0,1-.7.91" transform="translate(-247.774 -150.67)" fill="#fff"/>
            <rect id="Rectángulo_402578" data-name="Rectángulo 402578" width="16.293" height="15.975" rx="2.035" transform="translate(128.931 121.771)" fill="none" stroke="#4635b1" stroke-linecap="round" stroke-linejoin="round" stroke-width="1"/>
            <path id="Trazado_903104" data-name="Trazado 903104" d="M383.188,277.152a.812.812,0,0,0-.686.9v12.974h13.624a.812.812,0,0,0,.685-.9V277.152Z" transform="translate(-251.587 -153.275)" fill="#fff"/>
            <path id="Trazado_903105" data-name="Trazado 903105" d="M383.188,277.152a.812.812,0,0,0-.686.9v12.974h13.624a.812.812,0,0,0,.685-.9V277.152Z" transform="translate(-251.587 -153.275)" fill="none" stroke="#4635b1" stroke-linecap="round" stroke-linejoin="round" stroke-width="1"/>
            <path id="Trazado_903106" data-name="Trazado 903106" d="M386.724,301.9H367.6a.825.825,0,0,1-.7-.91v-3.262a.825.825,0,0,1,.7-.909h19.123a.824.824,0,0,1,.7.909v3.262a.825.825,0,0,1-.7.91" transform="translate(-241.327 -164.15)" fill="#fff"/>
            <path id="Rectángulo_402579" data-name="Rectángulo 402579" d="M2.035,0H18.481a2.035,2.035,0,0,1,2.035,2.035V3.047a2.034,2.034,0,0,1-2.034,2.034H2.035A2.035,2.035,0,0,1,0,3.046V2.035A2.035,2.035,0,0,1,2.035,0Z" transform="translate(125.577 132.666)" fill="none" stroke="#4635b1" stroke-linecap="round" stroke-linejoin="round" stroke-width="1"/>
            <path id="Trazado_903107" data-name="Trazado 903107" d="M384.351,301.9H367.6a.825.825,0,0,1-.7-.91v-3.262a.825.825,0,0,1,.7-.909h16.751a.824.824,0,0,1,.7.909v3.262a.825.825,0,0,1-.7.91" transform="translate(-241.327 -164.15)" fill="#fff"/>
            <path id="Rectángulo_402580" data-name="Rectángulo 402580" d="M2.035,0H16.109a2.035,2.035,0,0,1,2.035,2.035V3.047A2.034,2.034,0,0,1,16.11,5.081H2.035A2.035,2.035,0,0,1,0,3.046V2.035A2.035,2.035,0,0,1,2.035,0Z" transform="translate(125.577 132.666)" fill="none" stroke="#4635b1" stroke-linecap="round" stroke-linejoin="round" stroke-width="1"/>
            <path id="Trazado_903108" data-name="Trazado 903108" d="M223.882,164.831a2.005,2.005,0,0,1,2.656-.738" transform="translate(-147.256 -90.603)" fill="none" stroke="#4635b1" stroke-linecap="round" stroke-linejoin="round" stroke-width="1"/>
            <path id="Trazado_903109" data-name="Trazado 903109" d="M181.109,278.186s-1.183.824-1.262,5.972,1.5,6.589,2.208,6.8,18.607,0,18.607,0,2.365-4.016,1.5-7.722a27.482,27.482,0,0,0-1.309-4.6Z" transform="translate(-118.291 -153.847)" fill="#4635b1"/>
            <path id="Trazado_903110" data-name="Trazado 903110" d="M181.109,278.186s-1.183.824-1.262,5.972,1.5,6.589,2.208,6.8,18.607,0,18.607,0,2.365-4.016,1.5-7.722a27.482,27.482,0,0,0-1.309-4.6Z" transform="translate(-118.291 -153.847)" fill="none" stroke="#4635b1" stroke-linecap="round" stroke-linejoin="round" stroke-width="1"/>
            <path id="Trazado_903111" data-name="Trazado 903111" d="M170.341,203.688a10.767,10.767,0,0,0-2.882,4.059c-.848,2.362-6.476,14.747-6.419,16.445s8.115-1.61,8.115-1.61-1.017,10.849-.9,11.808a1.37,1.37,0,0,0,1.808,1.328c1.13-.221,18.424,0,18.424,0a4.321,4.321,0,0,0,.9-2.952c-.056-1.919-2.2-14.908-2.2-14.908l3.786,7.011s1.526.96,2.543.074,1.808-4.723,1.243-7.38-2.26-3.321-5.255-9.447-6.838-6.642-6.838-6.642-2.6-1.4-7.46-.664-4.86,2.878-4.86,2.878" transform="translate(-105.922 -110.936)" fill="#538040"/>
            <path id="Trazado_903112" data-name="Trazado 903112" d="M170.341,203.688a10.767,10.767,0,0,0-2.882,4.059c-.848,2.362-6.476,14.747-6.419,16.445s8.115-1.61,8.115-1.61-1.017,10.849-.9,11.808a1.37,1.37,0,0,0,1.808,1.328c1.13-.221,18.424,0,18.424,0a4.321,4.321,0,0,0,.9-2.952c-.056-1.919-2.2-14.908-2.2-14.908l3.786,7.011s1.526.96,2.543.074,1.808-4.723,1.243-7.38-2.26-3.321-5.255-9.447-6.838-6.642-6.838-6.642-2.6-1.4-7.46-.664S170.341,203.688,170.341,203.688Z" transform="translate(-105.922 -110.936)" fill="none" stroke="#4635b1" stroke-linecap="round" stroke-linejoin="round" stroke-width="1"/>
            <line id="Línea_686" data-name="Línea 686" y1="8.635" x2="0.961" transform="translate(63.346 100.353)" fill="#fff"/>
            <line id="Línea_687" data-name="Línea 687" y1="8.635" x2="0.961" transform="translate(63.346 100.353)" fill="none" stroke="#4635b1" stroke-linecap="round" stroke-linejoin="round" stroke-width="1"/>
            <path id="Trazado_903113" data-name="Trazado 903113" d="M236.227,229.447l-.452-2.066-.169-5.83" transform="translate(-154.967 -122.526)" fill="none" stroke="#4635b1" stroke-linecap="round" stroke-linejoin="round" stroke-width="1"/>
            <path id="Trazado_903114" data-name="Trazado 903114" d="M190.856,193.356a9.577,9.577,0,0,0-2.317,1.919c-.509.812-2.147,1.107-2.769,2.583a3.813,3.813,0,0,0-.17,2.657s3.334,1.624,7.46,3.69,5.425.812,6.386-.885,2.034-3.616,2.147-5.019-.565-2.509-2.43-3.838-6.1-2.214-8.307-1.107" transform="translate(-121.972 -106.655)" fill="#538040"/>
            <path id="Trazado_903115" data-name="Trazado 903115" d="M190.856,193.356a9.577,9.577,0,0,0-2.317,1.919c-.509.812-2.147,1.107-2.769,2.583a3.813,3.813,0,0,0-.17,2.657s3.334,1.624,7.46,3.69,5.425.812,6.386-.885,2.034-3.616,2.147-5.019-.565-2.509-2.43-3.838S193.06,192.248,190.856,193.356Z" transform="translate(-121.972 -106.655)" fill="none" stroke="#4635b1" stroke-linecap="round" stroke-linejoin="round" stroke-width="1"/>
            <path id="Trazado_903116" data-name="Trazado 903116" d="M207.93,152.554a4.359,4.359,0,0,1,.734,3.468c-.509,1.845-.113,3.838.4,4.059s1.865-.074,1.469,1.7a3.7,3.7,0,0,1-1.356,2.361,33.113,33.113,0,0,1-1.187,5.314c-.622,1.476-2.2,1.033-2.769,1.033a4.69,4.69,0,0,0-.9.074l-1.469,10.184s-.226,1.329-3.334-3.763-2.6-5.978-2.6-5.978l-1.7-10.7s-2.487-6.051,2.939-9.594,9.777,1.845,9.777,1.845" transform="translate(-128.026 -82.68)" fill="#fff"/>
            <path id="Trazado_903117" data-name="Trazado 903117" d="M207.93,152.554a4.359,4.359,0,0,1,.734,3.468c-.509,1.845-.113,3.838.4,4.059s1.865-.074,1.469,1.7a3.7,3.7,0,0,1-1.356,2.361,33.113,33.113,0,0,1-1.187,5.314c-.622,1.476-2.2,1.033-2.769,1.033a4.69,4.69,0,0,0-.9.074l-1.469,10.184s-.226,1.329-3.334-3.763-2.6-5.978-2.6-5.978l-1.7-10.7s-2.487-6.051,2.939-9.594S207.93,152.554,207.93,152.554Z" transform="translate(-128.026 -82.68)" fill="none" stroke="#4635b1" stroke-linecap="round" stroke-linejoin="round" stroke-width="1"/>
            <path id="Trazado_903118" data-name="Trazado 903118" d="M196.686,148.037s1.317,2.159-.209,3.119a24.617,24.617,0,0,0-2.64,1.915l.293,2.375-1.467-1a13.764,13.764,0,0,0,.528,2.069c.169.221-.528,1.455-.528,1.455l-3.042-.712.4,5.308-2.663-6.341s-1.921-1.255-2.6-5.388,3.108-9.594,7.234-10.775,6.1-.516,8.759,1.107a9.8,9.8,0,0,1,3.674,4.945l-1.243-.96a20.614,20.614,0,0,1,.791,3.1c-.056.443-3.334-.59-3.334-.59l.791,1.845a12.207,12.207,0,0,0-4.747-1.476" transform="translate(-121.473 -77.13)" fill="#4635b1"/>
            <path id="Trazado_903119" data-name="Trazado 903119" d="M196.686,148.037s1.317,2.159-.209,3.119a24.617,24.617,0,0,0-2.64,1.915l.293,2.375-1.467-1a13.764,13.764,0,0,0,.528,2.069c.169.221-.528,1.455-.528,1.455l-3.042-.712.4,5.308-2.663-6.341s-1.921-1.255-2.6-5.388,3.108-9.594,7.234-10.775,6.1-.516,8.759,1.107a9.8,9.8,0,0,1,3.674,4.945l-1.243-.96a20.614,20.614,0,0,1,.791,3.1c-.056.443-3.334-.59-3.334-.59l.791,1.845A12.207,12.207,0,0,0,196.686,148.037Z" transform="translate(-121.473 -77.13)" fill="none" stroke="#4635b1" stroke-linecap="round" stroke-linejoin="round" stroke-width="1"/>
            <path id="Trazado_903120" data-name="Trazado 903120" d="M200.831,177.545s-1.467-3.086-2.71-3.6-1.7,2.657-.509,4.5a2.446,2.446,0,0,0,2.984,1.092" transform="translate(-129.522 -96.166)" fill="#fff"/>
            <path id="Trazado_903121" data-name="Trazado 903121" d="M200.831,177.545s-1.467-3.086-2.71-3.6-1.7,2.657-.509,4.5a2.446,2.446,0,0,0,2.984,1.092" transform="translate(-129.522 -96.166)" fill="none" stroke="#4635b1" stroke-linecap="round" stroke-linejoin="round" stroke-width="1"/>
            <path id="Trazado_903122" data-name="Trazado 903122" d="M227.041,169.874c0,.55-.19,1-.424,1s-.424-.446-.424-1,.19-1,.424-1,.424.446.424,1" transform="translate(-148.776 -93.396)" fill="#4635b1"/>
            <path id="Trazado_903123" data-name="Trazado 903123" d="M225.533,182.087a2.152,2.152,0,0,0,2.769,1.181" transform="translate(-148.342 -100.701)" fill="none" stroke="#4635b1" stroke-linecap="round" stroke-linejoin="round" stroke-width="1"/>
            <path id="Trazado_903124" data-name="Trazado 903124" d="M214.42,193.239s-3.391-1.181-4.408-2.73a15.216,15.216,0,0,0,1.413,3.838,20.682,20.682,0,0,0,2.261,3.985Z" transform="translate(-138.133 -105.359)" fill="#4635b1"/>
            <path id="Trazado_903125" data-name="Trazado 903125" d="M214.42,193.239s-3.391-1.181-4.408-2.73a15.216,15.216,0,0,0,1.413,3.838,20.682,20.682,0,0,0,2.261,3.985Z" transform="translate(-138.133 -105.359)" fill="none" stroke="#4635b1" stroke-linecap="round" stroke-linejoin="round" stroke-width="1"/>
            <path id="Trazado_903126" data-name="Trazado 903126" d="M169.03,240.532a1.994,1.994,0,0,0-2.213-.3c-1.8.883-5.13,2.51-5.863,2.829-1.017.443-1.7,2.214-1.639,4.354s.847,3.764,2.939,3.469,5.606-2.567,6.623-3.5a4.685,4.685,0,0,0,1.289-2.257l-.056-3.69Z" transform="translate(-104.786 -132.74)" fill="#538040"/>
            <path id="Trazado_903127" data-name="Trazado 903127" d="M169.03,240.532a1.994,1.994,0,0,0-2.213-.3c-1.8.883-5.13,2.51-5.863,2.829-1.017.443-1.7,2.214-1.639,4.354s.847,3.764,2.939,3.469,5.606-2.567,6.623-3.5a4.685,4.685,0,0,0,1.289-2.257l-.056-3.69Z" transform="translate(-104.786 -132.74)" fill="none" stroke="#4635b1" stroke-linecap="round" stroke-linejoin="round" stroke-width="1"/>
            <path id="Trazado_903128" data-name="Trazado 903128" d="M190.859,243.18s2.6.074,3.673.074,3.165,3.026,3.165,3.247-.509.369-.509.369h-6.273Z" transform="translate(-125.535 -134.488)" fill="#fff"/>
            <path id="Trazado_903129" data-name="Trazado 903129" d="M190.859,243.18s2.6.074,3.673.074,3.165,3.026,3.165,3.247-.509.369-.509.369h-6.273Z" transform="translate(-125.535 -134.488)" fill="none" stroke="#4635b1" stroke-linecap="round" stroke-linejoin="round" stroke-width="1"/>
            <path id="Trazado_903130" data-name="Trazado 903130" d="M192.57,243.223c-.9-.021-1.712-.043-1.712-.043l.056,3.69h1.719Z" transform="translate(-125.535 -134.488)" fill="#538040"/>
            <path id="Trazado_903131" data-name="Trazado 903131" d="M192.57,243.223c-.9-.021-1.712-.043-1.712-.043l.056,3.69h1.719Z" transform="translate(-125.535 -134.488)" fill="none" stroke="#4635b1" stroke-linecap="round" stroke-linejoin="round" stroke-width="1"/>
            <path id="Trazado_903132" data-name="Trazado 903132" d="M204.7,265.01H189.8a.825.825,0,0,1-.7-.91V252.074a.824.824,0,0,1,.7-.909h14.9a.824.824,0,0,1,.7.909V264.1a.825.825,0,0,1-.7.91" transform="translate(-124.378 -138.904)" fill="#fff"/>
            <path id="Rectángulo_402581" data-name="Rectángulo 402581" d="M2.035,0H14.258a2.035,2.035,0,0,1,2.035,2.035v9.776a2.034,2.034,0,0,1-2.034,2.034H2.035A2.035,2.035,0,0,1,0,11.81V2.035A2.035,2.035,0,0,1,2.035,0Z" transform="translate(64.721 112.261)" fill="none" stroke="#4635b1" stroke-linecap="round" stroke-linejoin="round" stroke-width="1"/>
            <path id="Trazado_903133" data-name="Trazado 903133" d="M245.561,199.231s.147-.976-1.119-2.05a2.539,2.539,0,0,0-3.228.083l-.506.413a3.1,3.1,0,0,1,1.076,1.984c0,1.075-.443,2.067-1.329,2.232l-.886.165a3.162,3.162,0,0,0,6.14.91,4.606,4.606,0,0,0-.147-3.736" transform="translate(-157.573 -108.741)" fill="#fff"/>
            <path id="Trazado_903134" data-name="Trazado 903134" d="M245.561,199.231s.147-.976-1.119-2.05a2.539,2.539,0,0,0-3.228.083l-.506.413a3.1,3.1,0,0,1,1.076,1.984c0,1.075-.443,2.067-1.329,2.232l-.886.165a3.162,3.162,0,0,0,6.14.91A4.606,4.606,0,0,0,245.561,199.231Z" transform="translate(-157.573 -108.741)" fill="none" stroke="#4635b1" stroke-linecap="round" stroke-linejoin="round" stroke-width="1"/>
            <path id="Trazado_903135" data-name="Trazado 903135" d="M245.318,214.419s-1.1-4.1-.8-4.913,1.97-1.177,1.97-1.177-1.468-2.075-.771-2.451,1.942,2.2,1.942,2.2-1.115-2.9-.948-3.835.864-.412,1.041.073.975,3.155.975,3.155-.344-2.245-.437-2.973-.576-2.269-.093-2.524.641.534.641.534.409-.838.91-.049a14.083,14.083,0,0,1,.79,5.29c-.167.934-4.079,3.955-4.079,3.955l1.013,2.1Z" transform="translate(-160.796 -111.67)" fill="#fff"/>
            <path id="Trazado_903136" data-name="Trazado 903136" d="M245.318,214.419s-1.1-4.1-.8-4.913,1.97-1.177,1.97-1.177-1.468-2.075-.771-2.451,1.942,2.2,1.942,2.2-1.115-2.9-.948-3.835.864-.412,1.041.073.975,3.155.975,3.155-.344-2.245-.437-2.973-.576-2.269-.093-2.524.641.534.641.534.409-.838.91-.049a14.083,14.083,0,0,1,.79,5.29c-.167.934-4.079,3.955-4.079,3.955l1.013,2.1Z" transform="translate(-160.796 -111.67)" fill="none" stroke="#4635b1" stroke-linecap="round" stroke-linejoin="round" stroke-width="1"/>
            <path id="Trazado_903137" data-name="Trazado 903137" d="M257.24,203.228a22.609,22.609,0,0,1,1.115,4.7" transform="translate(-169.197 -112.393)" fill="#fff"/>
            <path id="Trazado_903138" data-name="Trazado 903138" d="M257.24,203.228a22.609,22.609,0,0,1,1.115,4.7" transform="translate(-169.197 -112.393)" fill="none" stroke="#4635b1" stroke-linecap="round" stroke-linejoin="round" stroke-width="1"/>
            <path id="Trazado_903139" data-name="Trazado 903139" d="M247.209,223.862l-3.843,1.328.283,1.845,3.73-1.181Z" transform="translate(-160.071 -123.804)" fill="#538040"/>
            <path id="Trazado_903140" data-name="Trazado 903140" d="M247.209,223.862l-3.843,1.328.283,1.845,3.73-1.181Z" transform="translate(-160.071 -123.804)" fill="none" stroke="#4635b1" stroke-linecap="round" stroke-linejoin="round" stroke-width="1"/>
            <path id="Trazado_903141" data-name="Trazado 903141" d="M243.105,229.329s-.565.221-.565,1.476.791,7.306,1.074,8.635.678,2.657,2.939,2.509,3.165-1.255,3.165-2.878-1.7-9.52-1.865-10.479-1.017-.443-1.017-.443Z" transform="translate(-159.528 -126.098)" fill="#538040"/>
            <path id="Trazado_903142" data-name="Trazado 903142" d="M243.105,229.329s-.565.221-.565,1.476.791,7.306,1.074,8.635.678,2.657,2.939,2.509,3.165-1.255,3.165-2.878-1.7-9.52-1.865-10.479-1.017-.443-1.017-.443Z" transform="translate(-159.528 -126.098)" fill="none" stroke="#4635b1" stroke-linecap="round" stroke-linejoin="round" stroke-width="1"/>
            <path id="Trazado_903143" data-name="Trazado 903143" d="M191.149,314.7s.71-20.8.079-26.461a7.467,7.467,0,0,0-1.393-3.753c-2.87-3.811-7.783-1.531-8.365,3.759-.052.475-.086.987-.1,1.537-.158,7.516,1.892,25.843,1.892,25.843a2.367,2.367,0,0,0-.631,2.265,5.127,5.127,0,0,1,.473,1.75s-.71,1.133-.552,1.75.316,1.647.316,1.647l.236.721a7.547,7.547,0,0,1-.867,4.016c-1.1,2.162-1.892,2.78-1.735,4.324s5.361,1.853,7.411,1.339,3.233-.721,3.706-1.75,0-9.266,0-9.266a11.75,11.75,0,0,0,.394-2.162c0-.72-.315-1.133-.237-1.441s.631-.1.788-1.441-1.419-2.677-1.419-2.677" transform="translate(-118.712 -156.285)" fill="#fff"/>
            <path id="Trazado_903144" data-name="Trazado 903144" d="M191.149,314.7s.71-20.8.079-26.461a7.467,7.467,0,0,0-1.393-3.753c-2.87-3.811-7.783-1.531-8.365,3.759-.052.475-.086.987-.1,1.537-.158,7.516,1.892,25.843,1.892,25.843a2.367,2.367,0,0,0-.631,2.265,5.127,5.127,0,0,1,.473,1.75s-.71,1.133-.552,1.75.316,1.647.316,1.647l.236.721a7.547,7.547,0,0,1-.867,4.016c-1.1,2.162-1.892,2.78-1.735,4.324s5.361,1.853,7.411,1.339,3.233-.721,3.706-1.75,0-9.266,0-9.266a11.75,11.75,0,0,0,.394-2.162c0-.72-.315-1.133-.237-1.441s.631-.1.788-1.441S191.149,314.7,191.149,314.7Z" transform="translate(-118.712 -156.285)" fill="none" stroke="#4635b1" stroke-linecap="round" stroke-linejoin="round" stroke-width="1"/>
            <path id="Trazado_903145" data-name="Trazado 903145" d="M193.7,320.263c0-.721-.315-1.133-.237-1.441s.631-.1.789-1.441-1.419-2.677-1.419-2.677.71-20.8.079-26.461a7.47,7.47,0,0,0-1.393-3.753c-2.87-3.811-7.783-1.531-8.365,3.76-.052.475-.086.987-.1,1.538-.158,7.516,1.892,25.843,1.892,25.843a2.367,2.367,0,0,0-.631,2.265,5.127,5.127,0,0,1,.473,1.75s-.71,1.133-.552,1.75.316,1.647.316,1.647l.237.721s-.473-2.78,1.813-3.6a3.1,3.1,0,0,1,4.1,2.471c.237,1.441,1.1.412,2.6-.206a11.751,11.751,0,0,0,.394-2.162" transform="translate(-120.401 -156.284)" fill="#4635b1"/>
            <path id="Trazado_903146" data-name="Trazado 903146" d="M193.7,320.263c0-.721-.315-1.133-.237-1.441s.631-.1.789-1.441-1.419-2.677-1.419-2.677.71-20.8.079-26.461a7.47,7.47,0,0,0-1.393-3.753c-2.87-3.811-7.783-1.531-8.365,3.76-.052.475-.086.987-.1,1.538-.158,7.516,1.892,25.843,1.892,25.843a2.367,2.367,0,0,0-.631,2.265,5.127,5.127,0,0,1,.473,1.75s-.71,1.133-.552,1.75.316,1.647.316,1.647l.237.721s-.473-2.78,1.813-3.6a3.1,3.1,0,0,1,4.1,2.471c.237,1.441,1.1.412,2.6-.206A11.751,11.751,0,0,0,193.7,320.263Z" transform="translate(-120.401 -156.284)" fill="none" stroke="#4635b1" stroke-linecap="round" stroke-linejoin="round" stroke-width="1"/>
            <path id="Trazado_903147" data-name="Trazado 903147" d="M191.626,391.045a3.989,3.989,0,0,0,.169-1.129,15.742,15.742,0,0,1-4.821,1.849,16.814,16.814,0,0,1-6.483-.644c0,.107.006.218.018.334.158,1.545,5.361,1.854,7.411,1.339s3.233-.72,3.706-1.75" transform="translate(-118.716 -215.639)" fill="#fff"/>
            <path id="Trazado_903148" data-name="Trazado 903148" d="M191.626,391.045a3.989,3.989,0,0,0,.169-1.129,15.742,15.742,0,0,1-4.821,1.849,16.814,16.814,0,0,1-6.483-.644c0,.107.006.218.018.334.158,1.545,5.361,1.854,7.411,1.339S191.153,392.075,191.626,391.045Z" transform="translate(-118.716 -215.639)" fill="none" stroke="#4635b1" stroke-linecap="round" stroke-linejoin="round" stroke-width="1"/>
            <path id="Trazado_903149" data-name="Trazado 903149" d="M198.488,360.751s-8.278-1.441-6.938-.927,4.415,1.338,4.415,1.338" transform="translate(-125.893 -198.935)" fill="none" stroke="#4635b1" stroke-linecap="round" stroke-linejoin="round" stroke-width="1"/>
            <path id="Trazado_903150" data-name="Trazado 903150" d="M217.16,314.7s-.71-20.8-.079-26.461a7.471,7.471,0,0,1,1.393-3.753c2.87-3.811,7.783-1.531,8.365,3.759.052.475.086.987.1,1.537.158,7.516-1.892,25.843-1.892,25.843a2.367,2.367,0,0,1,.63,2.265,5.127,5.127,0,0,0-.473,1.75s.71,1.133.552,1.75-.316,1.647-.316,1.647l-.236.721a7.547,7.547,0,0,0,.867,4.016c1.1,2.162,1.892,2.78,1.735,4.324s-5.361,1.853-7.411,1.339-3.233-.721-3.706-1.75,0-9.266,0-9.266a11.75,11.75,0,0,1-.394-2.162c0-.72.315-1.133.237-1.441s-.631-.1-.788-1.441,1.419-2.677,1.419-2.677" transform="translate(-141.894 -156.285)" fill="#fff"/>
            <path id="Trazado_903151" data-name="Trazado 903151" d="M217.16,314.7s-.71-20.8-.079-26.461a7.471,7.471,0,0,1,1.393-3.753c2.87-3.811,7.783-1.531,8.365,3.759.052.475.086.987.1,1.537.158,7.516-1.892,25.843-1.892,25.843a2.367,2.367,0,0,1,.63,2.265,5.127,5.127,0,0,0-.473,1.75s.71,1.133.552,1.75-.316,1.647-.316,1.647l-.236.721a7.547,7.547,0,0,0,.867,4.016c1.1,2.162,1.892,2.78,1.735,4.324s-5.361,1.853-7.411,1.339-3.233-.721-3.706-1.75,0-9.266,0-9.266a11.75,11.75,0,0,1-.394-2.162c0-.72.315-1.133.237-1.441s-.631-.1-.788-1.441S217.16,314.7,217.16,314.7Z" transform="translate(-141.894 -156.285)" fill="none" stroke="#4635b1" stroke-linecap="round" stroke-linejoin="round" stroke-width="1"/>
            <path id="Trazado_903152" data-name="Trazado 903152" d="M216.293,320.263c0-.721.315-1.133.237-1.441s-.631-.1-.789-1.441,1.419-2.677,1.419-2.677-.709-20.8-.079-26.461a7.47,7.47,0,0,1,1.393-3.753c2.87-3.811,7.783-1.531,8.365,3.76.052.475.086.987.1,1.538.158,7.516-1.892,25.843-1.892,25.843a2.367,2.367,0,0,1,.631,2.265,5.127,5.127,0,0,0-.473,1.75s.71,1.133.552,1.75-.316,1.647-.316,1.647l-.237.721s.473-2.78-1.813-3.6a3.1,3.1,0,0,0-4.1,2.471c-.236,1.441-1.1.412-2.6-.206a11.753,11.753,0,0,1-.394-2.162" transform="translate(-141.894 -156.284)" fill="#4635b1"/>
            <path id="Trazado_903153" data-name="Trazado 903153" d="M216.293,320.263c0-.721.315-1.133.237-1.441s-.631-.1-.789-1.441,1.419-2.677,1.419-2.677-.709-20.8-.079-26.461a7.47,7.47,0,0,1,1.393-3.753c2.87-3.811,7.783-1.531,8.365,3.76.052.475.086.987.1,1.538.158,7.516-1.892,25.843-1.892,25.843a2.367,2.367,0,0,1,.631,2.265,5.127,5.127,0,0,0-.473,1.75s.71,1.133.552,1.75-.316,1.647-.316,1.647l-.237.721s.473-2.78-1.813-3.6a3.1,3.1,0,0,0-4.1,2.471c-.236,1.441-1.1.412-2.6-.206A11.753,11.753,0,0,1,216.293,320.263Z" transform="translate(-141.894 -156.284)" fill="none" stroke="#4635b1" stroke-linecap="round" stroke-linejoin="round" stroke-width="1"/>
            <path id="Trazado_903154" data-name="Trazado 903154" d="M218.2,391.045a3.979,3.979,0,0,1-.169-1.129,15.736,15.736,0,0,0,4.82,1.849,16.815,16.815,0,0,0,6.483-.644c0,.107-.006.218-.018.334-.158,1.545-5.361,1.854-7.411,1.339s-3.233-.72-3.706-1.75" transform="translate(-143.409 -215.639)" fill="#fff"/>
            <path id="Trazado_903155" data-name="Trazado 903155" d="M218.2,391.045a3.979,3.979,0,0,1-.169-1.129,15.736,15.736,0,0,0,4.82,1.849,16.815,16.815,0,0,0,6.483-.644c0,.107-.006.218-.018.334-.158,1.545-5.361,1.854-7.411,1.339S218.675,392.075,218.2,391.045Z" transform="translate(-143.409 -215.639)" fill="none" stroke="#4635b1" stroke-linecap="round" stroke-linejoin="round" stroke-width="1"/>
            <path id="Trazado_903156" data-name="Trazado 903156" d="M219.448,360.751s8.278-1.441,6.938-.927-4.415,1.338-4.415,1.338" transform="translate(-144.34 -198.935)" fill="none" stroke="#4635b1" stroke-linecap="round" stroke-linejoin="round" stroke-width="1"/>
            <path id="Trazado_903157" data-name="Trazado 903157" d="M435.84,343.762s.858.28.751,5.04-4.4,12.46-5.361,13.581-6.861,1.54-6.861,1.54l.75-3.08s3.967.42,5.146-.7,3.967-10.08,4.074-12.6a17.186,17.186,0,0,0-.751-5.18Z" transform="translate(-279.124 -189.339)" fill="#5e2b80"/>
            <path id="Trazado_903158" data-name="Trazado 903158" d="M435.84,343.762s.858.28.751,5.04-4.4,12.46-5.361,13.581-6.861,1.54-6.861,1.54l.75-3.08s3.967.42,5.146-.7,3.967-10.08,4.074-12.6a17.186,17.186,0,0,0-.751-5.18Z" transform="translate(-279.124 -189.339)" fill="none" stroke="#4635b1" stroke-linecap="round" stroke-linejoin="round" stroke-width="1"/>
            <path id="Trazado_903159" data-name="Trazado 903159" d="M423.742,336.546s7.934-.98,9.22.14a13.676,13.676,0,0,1,2.466,3.64,72.378,72.378,0,0,0-7.4.14c-2.037.28-3.109.42-3.109.42Z" transform="translate(-278.712 -185.903)" fill="#4635b1"/>
            <path id="Trazado_903160" data-name="Trazado 903160" d="M423.742,336.546s7.934-.98,9.22.14a13.676,13.676,0,0,1,2.466,3.64,72.378,72.378,0,0,0-7.4.14c-2.037.28-3.109.42-3.109.42Z" transform="translate(-278.712 -185.903)" fill="none" stroke="#4635b1" stroke-linecap="round" stroke-linejoin="round" stroke-width="1"/>
            <path id="Trazado_903161" data-name="Trazado 903161" d="M432.221,391.289s-.751.84-2.895.28-5.9-2.66-7.29-2.24-2.68.7-2.68.7l4.181-3.5a9.4,9.4,0,0,1,4.61,1.68,5.319,5.319,0,0,0,4.4.84Z" transform="translate(-275.827 -213.765)" fill="#5e2b80"/>
            <path id="Trazado_903162" data-name="Trazado 903162" d="M432.221,391.289s-.751.84-2.895.28-5.9-2.66-7.29-2.24-2.68.7-2.68.7l4.181-3.5a9.4,9.4,0,0,1,4.61,1.68,5.319,5.319,0,0,0,4.4.84Z" transform="translate(-275.827 -213.765)" fill="none" stroke="#4635b1" stroke-linecap="round" stroke-linejoin="round" stroke-width="1"/>
            <path id="Trazado_903163" data-name="Trazado 903163" d="M433.065,348.627s6.861,13.02,8.9,15.681,1.5,2.94.428,4.34-2.573,3.22-3.217,1.54.537-3.5-1.286-6.581a58.872,58.872,0,0,0-6-7.56Z" transform="translate(-284.068 -192.804)" fill="#4635b1"/>
            <path id="Trazado_903164" data-name="Trazado 903164" d="M433.065,348.627s6.861,13.02,8.9,15.681,1.5,2.94.428,4.34-2.573,3.22-3.217,1.54.537-3.5-1.286-6.581a58.872,58.872,0,0,0-6-7.56Z" transform="translate(-284.068 -192.804)" fill="none" stroke="#4635b1" stroke-linecap="round" stroke-linejoin="round" stroke-width="1"/>
            <path id="Trazado_903165" data-name="Trazado 903165" d="M381.924,330.977s-5.253-3.36-7.29-4.76-4.61-1.26-6.647,1.12-3.323,11.34-3.323,11.34l-5.146,6.721c-1.394,1.82-2.037,4.9-.858,6.58s7.934,7.98,12.115,8.68,10.614-1.96,12.115-3.64,1.608-2.38,1.5-9.24,1.287-10.081.429-13.3-2.894-3.5-2.894-3.5" transform="translate(-235.5 -179.914)" fill="#538040"/>
            <path id="Trazado_903166" data-name="Trazado 903166" d="M381.924,330.977s-5.253-3.36-7.29-4.76-4.61-1.26-6.647,1.12-3.323,11.34-3.323,11.34l-5.146,6.721c-1.394,1.82-2.037,4.9-.858,6.58s7.934,7.98,12.115,8.68,10.614-1.96,12.115-3.64,1.608-2.38,1.5-9.24,1.287-10.081.429-13.3S381.924,330.977,381.924,330.977Z" transform="translate(-235.5 -179.914)" fill="none" stroke="#4635b1" stroke-linecap="round" stroke-linejoin="round" stroke-width="1"/>
            <path id="Trazado_903167" data-name="Trazado 903167" d="M404.312,342.129c-1.93,1.54-2.466,5.18-2.787,12.741,0,0-.643,7.7-2.144,9.24s-6.325,2.94-5.789,4.2a3,3,0,0,0,1.85,1.372c4.1.065,9.45-2.24,10.8-3.753,1.5-1.68,1.608-2.38,1.5-9.24s1.287-10.08.429-13.3a6.488,6.488,0,0,0-.846-1.951,4.791,4.791,0,0,0-3.013.691" transform="translate(-258.853 -188.826)" fill="#fff"/>
            <path id="Trazado_903168" data-name="Trazado 903168" d="M404.312,342.129c-1.93,1.54-2.466,5.18-2.787,12.741,0,0-.643,7.7-2.144,9.24s-6.325,2.94-5.789,4.2a3,3,0,0,0,1.85,1.372c4.1.065,9.45-2.24,10.8-3.753,1.5-1.68,1.608-2.38,1.5-9.24s1.287-10.08.429-13.3a6.488,6.488,0,0,0-.846-1.951A4.791,4.791,0,0,0,404.312,342.129Z" transform="translate(-258.853 -188.826)" fill="none" stroke="#4635b1" stroke-linecap="round" stroke-linejoin="round" stroke-width="1"/>
            <path id="Trazado_903169" data-name="Trazado 903169" d="M394.587,330.977s-5.253-3.36-7.29-4.76-4.61-1.26-6.647,1.12-3.323,11.34-3.323,11.34c-.107.84-.215,2.94,5.36,7.28s6,4.48,7.29,2.94,1.394-4.48,1.608-10.78,4.932-5.32,4.932-5.32l.207-.131a3.373,3.373,0,0,0-2.136-1.689" transform="translate(-248.163 -179.914)" fill="#fff"/>
            <path id="Trazado_903170" data-name="Trazado 903170" d="M394.587,330.977s-5.253-3.36-7.29-4.76-4.61-1.26-6.647,1.12-3.323,11.34-3.323,11.34c-.107.84-.215,2.94,5.36,7.28s6,4.48,7.29,2.94,1.394-4.48,1.608-10.78,4.932-5.32,4.932-5.32l.207-.131A3.373,3.373,0,0,0,394.587,330.977Z" transform="translate(-248.163 -179.914)" fill="none" stroke="#4635b1" stroke-linecap="round" stroke-linejoin="round" stroke-width="1"/>
            <path id="Trazado_903171" data-name="Trazado 903171" d="M384.572,329.108c-1.608,2.24-3.431,10.781-3.431,10.781s.965,3.22,5.468,5.6,5.039,2.94,5.468.28-.429-9.24,1.715-11.76a7.08,7.08,0,0,1,3.07-2.122c-1.07-.686-5.267-3.381-7.037-4.6,0,0-3.645-.42-5.253,1.82" transform="translate(-250.691 -180.985)" fill="#538040"/>
            <path id="Trazado_903172" data-name="Trazado 903172" d="M384.572,329.108c-1.608,2.24-3.431,10.781-3.431,10.781s.965,3.22,5.468,5.6,5.039,2.94,5.468.28-.429-9.24,1.715-11.76a7.08,7.08,0,0,1,3.07-2.122c-1.07-.686-5.267-3.381-7.037-4.6C389.825,327.288,386.18,326.868,384.572,329.108Z" transform="translate(-250.691 -180.985)" fill="none" stroke="#4635b1" stroke-linecap="round" stroke-linejoin="round" stroke-width="1"/>
            <path id="Trazado_903173" data-name="Trazado 903173" d="M405.221,360.714c0,.967-.552,1.75-1.233,1.75s-1.233-.783-1.233-1.75.552-1.75,1.233-1.75,1.233.784,1.233,1.75" transform="translate(-264.908 -198.52)" fill="#fff"/>
            <ellipse id="Elipse_11524" data-name="Elipse 11524" cx="1.233" cy="1.75" rx="1.233" ry="1.75" transform="translate(137.847 160.444)" fill="none" stroke="#4635b1" stroke-linecap="round" stroke-linejoin="round" stroke-width="1"/>
            <path id="Trazado_903174" data-name="Trazado 903174" d="M388.15,351c0,.967-.552,1.75-1.233,1.75s-1.233-.784-1.233-1.75.552-1.75,1.233-1.75,1.233.784,1.233,1.75" transform="translate(-253.679 -193.15)" fill="#fff"/>
            <path id="Trazado_903175" data-name="Trazado 903175" d="M388.15,351c0,.967-.552,1.75-1.233,1.75s-1.233-.784-1.233-1.75.552-1.75,1.233-1.75S388.15,350.038,388.15,351Z" transform="translate(-253.679 -193.15)" fill="none" stroke="#4635b1" stroke-linecap="round" stroke-linejoin="round" stroke-width="1"/>
            <path id="Trazado_903176" data-name="Trazado 903176" d="M366.488,362.409s0,.14,5.039,4.76,7.183,5.04,7.183,5.04a9.6,9.6,0,0,0-3.323,1.96,4.5,4.5,0,0,0-1.608,2.38l-10.185-9.1s-.215-1.96,2.895-5.04" transform="translate(-239.148 -200.426)" fill="#fff"/>
            <path id="Trazado_903177" data-name="Trazado 903177" d="M366.488,362.409s0,.14,5.039,4.76,7.183,5.04,7.183,5.04a9.6,9.6,0,0,0-3.323,1.96,4.5,4.5,0,0,0-1.608,2.38l-10.185-9.1S363.379,365.489,366.488,362.409Z" transform="translate(-239.148 -200.426)" fill="none" stroke="#4635b1" stroke-linecap="round" stroke-linejoin="round" stroke-width="1"/>
            <path id="Trazado_903178" data-name="Trazado 903178" d="M74.226,271.257s-1.394,6.72-2.359,9.52-3.645,5.46-3.109,6.3,3.752.7,4.181.56,3.431-6.16,3.431-6.16Z" transform="translate(-45.179 -150.015)" fill="#4635b1"/>
            <path id="Trazado_903179" data-name="Trazado 903179" d="M74.226,271.257s-1.394,6.72-2.359,9.52-3.645,5.46-3.109,6.3,3.752.7,4.181.56,3.431-6.16,3.431-6.16Z" transform="translate(-45.179 -150.015)" fill="none" stroke="#4635b1" stroke-linecap="round" stroke-linejoin="round" stroke-width="1"/>
            <path id="Trazado_903180" data-name="Trazado 903180" d="M104.347,251.429s-3.109-5.32-5.468-8.54-11.793,1.12-14.9,2.94-1.608,11.06-1.287,14.42-.322,9.94.643,10.64,21.978.7,23.586.14,3.109-1.4,1.93-5.74-3.538-9.661-3.752-10.5-.751-3.36-.751-3.36" transform="translate(-53.965 -133.687)" fill="#538040"/>
            <path id="Trazado_903181" data-name="Trazado 903181" d="M104.347,251.429s-3.109-5.32-5.468-8.54-11.793,1.12-14.9,2.94-1.608,11.06-1.287,14.42-.322,9.94.643,10.64,21.978.7,23.586.14,3.109-1.4,1.93-5.74-3.538-9.661-3.752-10.5S104.347,251.429,104.347,251.429Z" transform="translate(-53.965 -133.687)" fill="none" stroke="#4635b1" stroke-linecap="round" stroke-linejoin="round" stroke-width="1"/>
            <path id="Trazado_903182" data-name="Trazado 903182" d="M102.068,254.225s-7.5,1.96-9.327,2.94-2.144,1.82-1.394,5.32.965,14.7,1.93,14.98a9.674,9.674,0,0,0,2.251.28l17.261-.14s2.68,1.54,2.466-3.36-2.573-9.66-5.146-14.281-3.538-7.7-8.041-5.74" transform="translate(-59.834 -140.264)" fill="#4635b1"/>
            <path id="Trazado_903183" data-name="Trazado 903183" d="M102.068,254.225s-7.5,1.96-9.327,2.94-2.144,1.82-1.394,5.32.965,14.7,1.93,14.98a9.674,9.674,0,0,0,2.251.28l17.261-.14s2.68,1.54,2.466-3.36-2.573-9.66-5.146-14.281S106.571,252.265,102.068,254.225Z" transform="translate(-59.834 -140.264)" fill="none" stroke="#4635b1" stroke-linecap="round" stroke-linejoin="round" stroke-width="1"/>
            <path id="Trazado_903184" data-name="Trazado 903184" d="M113.1,264.992s-12.222,4.34-12.865,4.48l-.643.14.536,3.64,13.937-5.04Z" transform="translate(-65.504 -146.55)" fill="#538040"/>
            <path id="Trazado_903185" data-name="Trazado 903185" d="M113.1,264.992s-12.222,4.34-12.865,4.48l-.643.14.536,3.64,13.937-5.04Z" transform="translate(-65.504 -146.55)" fill="none" stroke="#4635b1" stroke-linecap="round" stroke-linejoin="round" stroke-width="1"/>
            <path id="Trazado_903186" data-name="Trazado 903186" d="M85.6,263.7l1.608.42a75.787,75.787,0,0,1-1.179-9.8c0-3.36,1.072-4.2,2.787-4.9s8.255-3.08,10.614-3.08a5.7,5.7,0,0,1,3.967,1.96s-1.823-3.64-2.68-4.06-8.255,1.4-11.364,3.08-4.4,2.24-4.5,4.06.751,12.32.751,12.32" transform="translate(-55.803 -135.041)" fill="#fff"/>
            <path id="Trazado_903187" data-name="Trazado 903187" d="M85.6,263.7l1.608.42a75.787,75.787,0,0,1-1.179-9.8c0-3.36,1.072-4.2,2.787-4.9s8.255-3.08,10.614-3.08a5.7,5.7,0,0,1,3.967,1.96s-1.823-3.64-2.68-4.06-8.255,1.4-11.364,3.08-4.4,2.24-4.5,4.06S85.6,263.7,85.6,263.7Z" transform="translate(-55.803 -135.041)" fill="none" stroke="#4635b1" stroke-linecap="round" stroke-linejoin="round" stroke-width="1"/>
            <path id="Trazado_903188" data-name="Trazado 903188" d="M126.974,350.984c0-7.424-4.609-13.443-10.294-13.443s-10.294,6.019-10.294,13.443S111,364.427,116.68,364.427s10.294-6.019,10.294-13.443" transform="translate(-69.975 -186.673)" fill="#538040"/>
            <path id="Trazado_903189" data-name="Trazado 903189" d="M126.974,350.984c0-7.424-4.609-13.443-10.294-13.443s-10.294,6.019-10.294,13.443S111,364.427,116.68,364.427,126.974,358.408,126.974,350.984Z" transform="translate(-69.975 -186.673)" fill="none" stroke="#4635b1" stroke-linecap="round" stroke-linejoin="round" stroke-width="1"/>
            <path id="Trazado_903190" data-name="Trazado 903190" d="M126.317,381.177a8.891,8.891,0,0,0-3.843-.877,9.537,9.537,0,0,0-7.279,3.568" transform="translate(-75.769 -210.32)" fill="none" stroke="#4635b1" stroke-linecap="round" stroke-linejoin="round" stroke-width="1"/>
            <path id="Trazado_903191" data-name="Trazado 903191" d="M153.4,385.847a10.724,10.724,0,0,0-2.375-2.144" transform="translate(-99.336 -212.202)" fill="none" stroke="#4635b1" stroke-linecap="round" stroke-linejoin="round" stroke-width="1"/>
            <path id="Trazado_903192" data-name="Trazado 903192" d="M123.872,361.595a8.944,8.944,0,0,0,4.309,1.116c4.125,0,7.682-2.871,9.325-7.016" transform="translate(-81.475 -196.713)" fill="none" stroke="#4635b1" stroke-linecap="round" stroke-linejoin="round" stroke-width="1"/>
            <path id="Trazado_903193" data-name="Trazado 903193" d="M110.618,358.085a11.619,11.619,0,0,0,3.178,3.936" transform="translate(-72.758 -198.034)" fill="none" stroke="#4635b1" stroke-linecap="round" stroke-linejoin="round" stroke-width="1"/>
            <path id="Trazado_903194" data-name="Trazado 903194" d="M107.289,371.513a21.975,21.975,0,0,0,9.985,2.285,22.222,22.222,0,0,0,9.413-2" transform="translate(-70.568 -205.46)" fill="none" stroke="#4635b1" stroke-linecap="round" stroke-linejoin="round" stroke-width="1"/>
          </g>
        </g>
      </g>
    </g>
  </g>
</svg>
