<svg xmlns="http://www.w3.org/2000/svg" xmlns:xlink="http://www.w3.org/1999/xlink" width="90" height="90" viewBox="0 0 90 90">
  <defs>
    <clipPath id="clip-path">
      <rect id="Rectángulo_402477" data-name="Rectángulo 402477" width="65.103" height="65.2" fill="#698d59"/>
    </clipPath>
  </defs>
  <g id="Grupo_1102771" data-name="Grupo 1102771" transform="translate(-407.755 -2491.563)">
    <path id="Trazado_876531" data-name="Trazado 876531" d="M45,0A45,45,0,1,1,0,45,45,45,0,0,1,45,0Z" transform="translate(407.755 2491.563)" fill="#fff"/>
    <g id="Grupo_1102204" data-name="Grupo 1102204" transform="translate(419.454 2503.451)">
      <g id="Grupo_1102203" data-name="Grupo 1102203" clip-path="url(#clip-path)">
        <path id="Trazado_901815" data-name="Trazado 901815" d="M50.917,56.243V54.714q0-21,0-41.993c0-1.939.263-2.2,2.186-2.205q4.2,0,8.4,0c1.868,0,2.149.275,2.149,2.115q0,21,0,41.993V56.18c.292.113.645.141.8.331.3.366.724.878.645,1.229a2.043,2.043,0,0,1-1.033,1.09,2.914,2.914,0,0,1-1.253.056q-16.857,0-33.713-.014a2.2,2.2,0,0,0-1.914.881c-4.006,4.762-9.141,6.716-15.214,5.338A14.437,14.437,0,0,1,.423,53.527c-1.363-6.076.606-11.208,5.368-15.212a2.074,2.074,0,0,0,.862-1.795Q6.616,19.6,6.637,2.671c0-.382-.133-.858.045-1.124C7,1.079,7.5.43,7.925.435S8.84,1.1,9.146,1.573c.175.271.043.743.043,1.125q0,15.97,0,31.94v1.267l7.372-1.238c0-1.113-.005-2.492,0-3.871.007-1.6.346-1.948,1.928-1.951q4.389-.01,8.778,0c1.693,0,2.02.322,2.023,1.985.005,3.393.02,6.787-.006,10.18a15.888,15.888,0,0,0,.678,5.11,14.73,14.73,0,0,1-.61,10.148h4.38V54.586q0-16.415,0-32.831c0-2.118.216-2.33,2.324-2.33q4.134,0,8.269,0c1.87,0,2.147.266,2.148,2.123q.006,16.479,0,32.958v1.736Zm2.64-.013h7.474v-43.1H53.557ZM28.012,50.22A12.719,12.719,0,1,0,15.333,62.951,12.745,12.745,0,0,0,28.012,50.22m15.8-28.163H36.4V56.286h7.418ZM26.673,39.8V31.48H19.155v3.785a40.921,40.921,0,0,1,3.927,1.865,44.154,44.154,0,0,1,3.59,2.672" transform="translate(0 -0.324)" fill="#698d59"/>
        <path id="Trazado_901816" data-name="Trazado 901816" d="M73.419,4.438a15.01,15.01,0,0,1-1.151,1.5,1.172,1.172,0,0,1-1.8.062,1.169,1.169,0,0,1-.014-1.806Q72.3,2.272,74.226.416a1.246,1.246,0,0,1,1.917.073q1.812,1.785,3.6,3.6a1.215,1.215,0,0,1,.083,1.9,1.214,1.214,0,0,1-1.9-.128c-.408-.421-.759-.9-1.136-1.349l-.37.176V6q0,7,0,13.994c0,.93-.31,1.652-1.336,1.62-.947-.03-1.249-.735-1.221-1.606.008-.254,0-.509,0-.763V4.761l-.444-.323" transform="translate(-52.212 0)" fill="#698d59"/>
        <path id="Trazado_901817" data-name="Trazado 901817" d="M31.478,171.132a11.321,11.321,0,0,1,8.89,5.189,1.865,1.865,0,0,1,.02,2.324,11.529,11.529,0,0,1-19.265-.027,1.9,1.9,0,0,1,.056-2.325,11.948,11.948,0,0,1,10.3-5.16m-.676,4.489a1.875,1.875,0,1,0,1.835,1.879,1.851,1.851,0,0,0-1.835-1.879m-3.518-1.034-.263-.287c-1.024.855-2.071,1.683-3.051,2.586a1.024,1.024,0,0,0-.191.961,7.485,7.485,0,0,0,3.658,2.735c-1.438-2.367-1.442-3.672-.153-5.994m6.914,5.832.293.279c1.061-.9,2.146-1.77,3.16-2.717a.972.972,0,0,0,.013-.954c-1.016-.954-2.1-1.833-3.165-2.737l-.307.265a4.757,4.757,0,0,1,.006,5.864" transform="translate(-15.472 -127.591)" fill="#698d59"/>
      </g>
    </g>
  </g>
</svg>
