<svg xmlns="http://www.w3.org/2000/svg" xmlns:xlink="http://www.w3.org/1999/xlink" width="90" height="90" viewBox="0 0 90 90">
  <defs>
    <clipPath id="clip-path">
      <rect id="Rectángulo_402451" data-name="Rectángulo 402451" width="63.42" height="59.369" fill="#698d59"/>
    </clipPath>
  </defs>
  <g id="Grupo_1102765" data-name="Grupo 1102765" transform="translate(-904.274 -2278.014)">
    <path id="Trazado_876531" data-name="Trazado 876531" d="M45,0A45,45,0,1,1,0,45,45,45,0,0,1,45,0Z" transform="translate(904.274 2278.014)" fill="#fff"/>
    <g id="Grupo_1102174" data-name="Grupo 1102174" transform="translate(918.283 2295)">
      <g id="Grupo_1102173" data-name="Grupo 1102173" clip-path="url(#clip-path)">
        <path id="Trazado_901737" data-name="Trazado 901737" d="M97.85,66.876v11.7c0,3.957-.043,7.916.017,11.872.032,2.157-.64,3.865-2.656,4.807-1.987.928-3.723.34-5.277-1.174a2.758,2.758,0,0,0-.4.254,4.27,4.27,0,0,1-5.05.895,4.48,4.48,0,0,1-2.589-4.456c.023-6.043.008-12.085.007-18.128V66.828C79,66.591,78.2,65.721,78.2,63c0-2.979-.007-5.958,0-8.937.01-3.342,1.8-5.161,5.1-5.153,1.805,0,3.592-.145,5.355.7a4,4,0,0,0,2.806-.2,11.771,11.771,0,0,1,6.628-.252,4.052,4.052,0,0,1,3.21,4.11c.092,3.572.082,7.149.013,10.722-.037,1.908-1.085,2.725-3.46,2.885M83.859,71.17V72.7q0,8.748,0,17.495c0,.34-.017.683.014,1.021a2.482,2.482,0,1,0,4.963-.066c.025-.339.009-.681.009-1.021q0-6.257,0-12.515c0-.72.029-1.5.934-1.525.995-.026,1.043.8,1.043,1.561,0,4-.007,8,.007,12a9.53,9.53,0,0,0,.161,2.029,2.445,2.445,0,0,0,4.7.373,3.4,3.4,0,0,0,.152-1.253q.013-9.322,0-18.644a9.437,9.437,0,0,0-.1-.988Zm3.932-19.532c-1.515-1.162-3.19-.664-4.764-.7-1.87-.045-2.8.949-2.809,2.843-.016,3.192-.035,6.385.03,9.575.009.464.431,1.269.741,1.309.854.111.771-.689.774-1.272.011-2.426.006-4.852.009-7.278,0-.705.181-1.326,1.026-1.315s.993.64.99,1.344c-.007,1.532,0,3.064,0,4.6v8.3H95.84V67.6q0-5.616,0-11.232c0-.75.009-1.577,1.033-1.561s.976.861.976,1.6c0,2.426-.029,4.853.031,7.277.009.377.43.744.66,1.116.268-.359.762-.714.768-1.078.059-3.4.049-6.809.025-10.213a2.187,2.187,0,0,0-1.592-2.366c-2.09-.366-4.256-.665-6.282.55.321,1.024.611,1.954.905,2.882,1.324,4.187,1.324,4.186-1.714,7.348-.029.031-.06.061-.088.093a1.112,1.112,0,0,1-1.925-.032,26.274,26.274,0,0,1-2.233-2.618,2.711,2.711,0,0,1-.371-1.924c.491-1.964,1.161-3.883,1.756-5.8m1.881,1.049c-.182.361-.23.433-.256.511-.327,1.008-.655,2.015-.975,3.024-.672,2.123-.67,2.124,1.4,3.841.474-.828,1.38-1.677,1.292-2.406a29.748,29.748,0,0,0-1.463-4.971" transform="translate(-58.214 -36.336)" fill="#698d59"/>
        <path id="Trazado_901738" data-name="Trazado 901738" d="M178,127.72c0-.957-.059-1.811.028-2.65a1.336,1.336,0,0,1,.6-.973,1.283,1.283,0,0,1,1.122.25c2.307,2.206,4.575,4.454,6.844,6.7a1.037,1.037,0,0,1-.03,1.671c-2.253,2.078-4.5,4.161-6.8,6.191a1.46,1.46,0,0,1-1.244.221c-.267-.1-.481-.658-.508-1.027-.07-.964-.023-1.936-.023-2.88-3.753-.565-7.886,2.114-9.409,5.957-.288.727-.232,1.943-1.447,1.739-1.164-.2-.987-1.384-1.071-2.208a11.565,11.565,0,0,1,10.633-12.85c.378-.035.755-.082,1.306-.141m2.224,8.1,3.929-3.6-4.1-4.261c-.182,1.865-.182,1.865-2.3,1.825a9.672,9.672,0,0,0-9.293,6.647,9.782,9.782,0,0,0-.184,1.193,12.049,12.049,0,0,1,8.62-4.546c2.733-.188,2.837-.077,3.158,2.529,0,.032.045.06.169.214" transform="translate(-123.579 -92.352)" fill="#698d59"/>
        <path id="Trazado_901739" data-name="Trazado 901739" d="M9,135.141c0,1.065.059,2-.027,2.926a1.573,1.573,0,0,1-.6,1.1,1.26,1.26,0,0,1-1.126-.239c-2.29-2.037-4.54-4.119-6.794-6.2a1.073,1.073,0,0,1,.017-1.761c2.216-2.179,4.415-4.375,6.662-6.522.283-.27.941-.507,1.2-.36a1.774,1.774,0,0,1,.64,1.2,18.111,18.111,0,0,1,.028,2.352c1.178.191,2.317.286,3.409.566a11.533,11.533,0,0,1,8.341,13.47c-.11.479-.645.86-.982,1.286-.379-.389-.935-.713-1.109-1.179-1.493-4.009-4.91-6.667-8.758-6.714-.249,0-.5.035-.895.066m-2.109.782c.281-2.868.39-2.99,3.068-2.859a11.252,11.252,0,0,1,7.637,3.373,6.2,6.2,0,0,1,.73,1.139l.3-.308c-.4-4.155-5.233-7.837-9.819-7.476-1.593.125-1.731,0-1.815-1.6a3.743,3.743,0,0,0-.124-.572l-4.227,4.418,4.246,3.884" transform="translate(0 -92.347)" fill="#698d59"/>
        <path id="Trazado_901740" data-name="Trazado 901740" d="M187.386,16.369a8.029,8.029,0,0,1-16.057.1,8.029,8.029,0,1,1,16.057-.1m-7.977,6.06a6.02,6.02,0,0,0-.01-12.039,6.02,6.02,0,1,0,.01,12.039" transform="translate(-127.548 -6.233)" fill="#698d59"/>
        <path id="Trazado_901741" data-name="Trazado 901741" d="M27.666,16.16a8.008,8.008,0,1,1-8.018-8.022,8.014,8.014,0,0,1,8.018,8.022m-7.971-6.03a6.033,6.033,0,0,0-6.082,5.952,6.045,6.045,0,1,0,12.09.064,6.009,6.009,0,0,0-6.007-6.017" transform="translate(-8.673 -6.058)" fill="#698d59"/>
        <path id="Trazado_901742" data-name="Trazado 901742" d="M107.512,0a5.462,5.462,0,0,1,5.569,5.42,5.531,5.531,0,1,1-11.061.215A5.488,5.488,0,0,1,107.512,0m-.025,9.056a3.53,3.53,0,0,0,3.629-3.493,3.588,3.588,0,0,0-3.551-3.6,3.541,3.541,0,0,0-3.536,3.461,3.469,3.469,0,0,0,3.459,3.633" transform="translate(-75.95 0)" fill="#698d59"/>
        <path id="Trazado_901743" data-name="Trazado 901743" d="M188.224,30.318c1.549-1.5,2.922-2.827,4.285-4.162.5-.494,1.035-1.053,1.73-.415.756.694.223,1.282-.315,1.826-1.463,1.48-2.943,2.946-4.368,4.462a1.3,1.3,0,0,1-2.233-.03,27.073,27.073,0,0,1-1.936-2.018c-.238-.329-.069-.952-.085-1.442.49.028,1.111-.121,1.441.123a9.957,9.957,0,0,1,1.481,1.656" transform="translate(-137.919 -18.95)" fill="#698d59"/>
        <path id="Trazado_901744" data-name="Trazado 901744" d="M30.145,28.1c-.794-.7-1.43-1.259-2.056-1.826-.551-.5-.934-1.089-.286-1.737.61-.609,1.178-.224,1.636.284.568.631,1.1,1.294,1.648,1.943l.635.208c.553-.744,1.075-1.514,1.668-2.224.462-.554,1.153-.816,1.591-.117a1.691,1.691,0,0,1-.24,1.5A17.581,17.581,0,0,1,32.7,28.093a17.792,17.792,0,0,1,2.118,2.063c.261.352.106,1.013.139,1.535-.494-.044-1.129.09-1.452-.168a20.9,20.9,0,0,1-2.111-2.254,18.519,18.519,0,0,1-2.043,2.174,1.665,1.665,0,0,1-1.516.2c-.669-.457-.364-1.112.167-1.6.649-.6,1.307-1.187,2.144-1.947" transform="translate(-20.436 -18.021)" fill="#698d59"/>
      </g>
    </g>
  </g>
</svg>
