<svg xmlns="http://www.w3.org/2000/svg" xmlns:xlink="http://www.w3.org/1999/xlink" width="90" height="90" viewBox="0 0 90 90">
  <defs>
    <clipPath id="clip-path">
      <rect id="Rectángulo_402522" data-name="Rectángulo 402522" width="52.865" height="53.068" fill="#fff"/>
    </clipPath>
  </defs>
  <g id="Grupo_1102767" data-name="Grupo 1102767" transform="translate(-1180.414 -4185)">
    <circle id="Elipse_11519" data-name="Elipse 11519" cx="45" cy="45" r="45" transform="translate(1180.414 4185)" fill="#382a8e"/>
    <g id="Grupo_1102250" data-name="Grupo 1102250" transform="translate(1198.913 4203.466)">
      <g id="Grupo_1102249" data-name="Grupo 1102249" clip-path="url(#clip-path)">
        <path id="Trazado_902002" data-name="Trazado 902002" d="M8.147,36.76,11,34.713c-.482-2.668-1.019-5.148-1.353-7.655-.212-1.594-.077-1.611,1.554-1.993v-1.19c0-5.065.021-10.131-.019-15.2a1.471,1.471,0,0,1,1.165-1.65c2.268-.767,4.505-1.627,6.757-2.444,1.641-.595,1.913-.4,1.935,1.384,0,.227,0,.455,0,.775h4.536c0-1.766.044-3.509-.016-5.249C25.525.418,25.906-.018,27.008,0q4,.07,8,0c1.1-.019,1.5.418,1.445,1.495-.062,1.171-.014,2.349-.014,3.611h4.715c0-1.119-.011-2.212,0-3.3.014-1.187.406-1.49,1.464-1.065,2.5,1.007,4.984,2.078,7.5,3.062.833.326.882.907.88,1.633q-.017,9.2-.007,18.4v1.228c1.941.464,1.97.466,1.822,2.493a21.045,21.045,0,0,1-2.763,9.093,1.316,1.316,0,0,0-.075,1.624,2.511,2.511,0,0,1-.371,3.17,9.224,9.224,0,0,1-2.55,2.047c-5.731,2.908-11.484,5.777-17.289,8.535a5.709,5.709,0,0,1-3.3.363c-3.81-.716-7.558-1.786-11.381-2.408A35.709,35.709,0,0,0,8.6,49.948c-.174,0-.433.444-.491.716a2.637,2.637,0,0,1-2.846,2.388c-.876.02-1.753.029-2.628-.009a2.537,2.537,0,0,1-2.614-2.6q-.046-6.512,0-13.025a2.559,2.559,0,0,1,2.5-2.611,21.871,21.871,0,0,1,3.081,0c1.148.075,1.686.533,2.541,1.955M8.119,48.246c.708,0,1.272-.01,1.835,0a36.9,36.9,0,0,1,5.565.178c3.7.651,7.353,1.614,11.045,2.348a4.288,4.288,0,0,0,2.525-.2c5.793-2.785,11.543-5.66,17.3-8.53a4.436,4.436,0,0,0,1.558-1.119c.375-.49.79-1.323.607-1.765a2.171,2.171,0,0,0-1.661-.873,6.508,6.508,0,0,0-2.438.461c-4.408,1.562-8.793,3.188-13.2,4.745a2.882,2.882,0,0,1-1.73.087c-3.142-1.034-6.256-2.152-9.378-3.245-.548-.192-1.187-.383-.939-1.152.279-.866.935-.549,1.512-.349,2.874,1,5.761,1.959,8.61,3.02a1.477,1.477,0,0,0,1.95-.615,1.333,1.333,0,0,0-.259-1.943,13.207,13.207,0,0,0-2.752-1.779c-2.247-1.027-4.6-1.82-6.819-2.906a7.409,7.409,0,0,0-6.8.072c-1.267.6-2.458,1.362-3.693,2.031C8.822,37.861,7.7,39.452,8.075,42.038a35.432,35.432,0,0,1,.044,5.021v1.187M49.235,25.163c.063-.133.121-.2.121-.264q.017-9.538.009-19.075a.92.92,0,0,0-.375-.715c-2.017-.865-4.055-1.682-6.225-2.568,0,2.943-.019,5.715.028,8.486,0,.291.363.619.624.855a3.946,3.946,0,0,1,1.375,3.793,12.639,12.639,0,0,1-.856,2.243c3.243,1.356,3.69,4.125,3.424,7.247ZM41.943,34.73l1.12-7.821H32.119v6.443l9.824,1.378M1.611,43.969c0,1.407,0,2.813,0,4.22-.008,3.55-.28,3.255,3.257,3.248,1.426,0,1.639-.22,1.642-1.676.008-3.384,0-6.767,0-10.151,0-3.366.3-3.261-3.322-3.223-1.284.013-1.573.324-1.578,1.652-.008,1.977,0,3.954,0,5.931m13.514-18.8c-.348-3.239.224-5.943,3.449-7.282-1.487-2.723-1.38-3.646.61-6.134a1.067,1.067,0,0,0,.236-.6c.019-1.593.011-3.186.011-4.951-1.976.71-3.814,1.41-5.681,2.022a1.206,1.206,0,0,0-.957,1.391c.039,4.833.019,9.666.022,14.5,0,.333.034.666.055,1.055Zm15.252,1.768H19.454c.209,1.712.4,3.321.611,4.927.027.2.142.5.295.559,1.363.562,2.718,1.43,4.124,1.531a34.856,34.856,0,0,0,5.894-.522Zm6-1.772c-.191-2.375.834-5.12-1.819-6.556a6.553,6.553,0,0,0-6.542.07c-2.524,1.5-1.5,4.164-1.691,6.485Zm7.082,10.2,3.416,1.222c.817.292,1.461.2,1.8-.732.707-1.951,1.51-3.871,2.137-5.846a18.651,18.651,0,0,0,.456-3.069H44.71l-1.252,8.425M27.287,1.707V12.832c.734-1.757,1.734-2.77,3.341-3.049a4.445,4.445,0,0,1,4.139,1.6V1.707ZM24.6,25.176c.121-1.771.258-3.4.314-5.023a.917.917,0,0,0-.59-.665c-1.005-.158-2.027-.215-3.044-.3-3.373-.281-5.317,2.068-4.4,5.988Zm13.2-5.645c.092,2.013.173,3.811.256,5.609h7.707c0-.852.021-1.611,0-2.368a3.287,3.287,0,0,0-1.78-2.995c-2.045-1.035-4.162-.7-6.178-.247M11.218,26.894a17.892,17.892,0,0,0,1.487,6.646l5.655-1.629-.508-5.017ZM33.243,41.068c1.749-.627,3.434-1.34,5.183-1.825,1.5-.416,2.1-1.46,2.655-3.024l-8.752-1.2c-1.169,2.436,1,3.986.914,6.049M41.091,6.882H36.6V18.367l1.137-.547a4.064,4.064,0,0,1-.639-4.63,4.31,4.31,0,0,1,3.995-2.33Zm-21.88,8.077a2.491,2.491,0,0,0,2.381,2.554,2.542,2.542,0,0,0,2.579-2.5A2.493,2.493,0,0,0,21.7,12.539a2.432,2.432,0,0,0-2.492,2.42m21.544-2.421A2.5,2.5,0,0,0,38.268,15a2.549,2.549,0,0,0,2.568,2.515,2.5,2.5,0,0,0,2.405-2.538,2.465,2.465,0,0,0-2.486-2.437m-9.343-1.2a2.466,2.466,0,1,0,2.429,2.5,2.474,2.474,0,0,0-2.429-2.5m-10.336-.4a4.541,4.541,0,0,1,4.44,2.332V8.534h-4.44Zm9.314,24.2-2.566.123-.021.266,2.586,1.137Z" transform="translate(0 0)" fill="#fff"/>
        <path id="Trazado_902003" data-name="Trazado 902003" d="M197.123,44.513c-1.111-.3-2.076-.515-2.994-.853-.257-.095-.59-.658-.51-.839.131-.3.608-.677.876-.634a14.424,14.424,0,0,1,2.833.773,1.159,1.159,0,0,1,.484.958c-.014.227-.481.428-.689.595" transform="translate(-149.359 -32.543)" fill="#fff"/>
        <path id="Trazado_902004" data-name="Trazado 902004" d="M200.095,60.7l-2.048-1.575c.309-.25.615-.708.928-.713,1.286-.021,2.244.583,2.068,1.222-.091.333-.5.579-.949,1.067" transform="translate(-152.784 -45.058)" fill="#fff"/>
        <path id="Trazado_902005" data-name="Trazado 902005" d="M61.425,44.5c-.219-.186-.643-.375-.7-.639a1.01,1.01,0,0,1,.42-.885,18.273,18.273,0,0,1,2.942-.815.768.768,0,0,1,.425,1.449c-.953.353-1.954.576-3.091.889" transform="translate(-46.844 -32.522)" fill="#fff"/>
        <path id="Trazado_902006" data-name="Trazado 902006" d="M65.08,59c-.449.411-.633.723-.871.772a14.3,14.3,0,0,1-2.284.264c-.082,0-.3-.719-.261-.74a10.137,10.137,0,0,1,2.175-.992c.283-.074.7.378,1.241.7" transform="translate(-47.567 -44.972)" fill="#fff"/>
        <path id="Trazado_902007" data-name="Trazado 902007" d="M127.082,14.388a6.224,6.224,0,0,1,1.576.034c.349.094.614.5.916.77-.277.26-.538.722-.832.744a23.351,23.351,0,0,1-3.5-.006c-.284-.022-.533-.5-.8-.772.276-.255.521-.665.836-.729a9.119,9.119,0,0,1,1.8-.034v-.006" transform="translate(-96.001 -11.073)" fill="#fff"/>
        <path id="Trazado_902008" data-name="Trazado 902008" d="M127.119,31.783a7.731,7.731,0,0,1-1.691-.032,1.239,1.239,0,0,1-.78-.747c-.051-.185.394-.724.639-.739a29.938,29.938,0,0,1,3.729-.008c.252.015.707.533.663.725a1.2,1.2,0,0,1-.755.766,8.966,8.966,0,0,1-1.8.036" transform="translate(-96.157 -23.299)" fill="#fff"/>
      </g>
    </g>
  </g>
</svg>
