<svg xmlns="http://www.w3.org/2000/svg" xmlns:xlink="http://www.w3.org/1999/xlink" width="90" height="90" viewBox="0 0 90 90">
  <defs>
    <clipPath id="clip-path">
      <rect id="Rectángulo_402478" data-name="Rectángulo 402478" width="60.402" height="60.452" fill="#698d59" stroke="#698d59" stroke-width="1"/>
    </clipPath>
  </defs>
  <g id="Grupo_1102772" data-name="Grupo 1102772" transform="translate(-721.028 -2491.563)">
    <path id="Trazado_876531" data-name="Trazado 876531" d="M45,0A45,45,0,1,1,0,45,45,45,0,0,1,45,0Z" transform="translate(721.028 2491.563)" fill="#fff"/>
    <g id="Grupo_1102206" data-name="Grupo 1102206" transform="translate(734.815 2505.824)">
      <g id="Grupo_1102205" data-name="Grupo 1102205" clip-path="url(#clip-path)">
        <path id="Trazado_901818" data-name="Trazado 901818" d="M9,146.674c-3.406-3.894-3.615-7.559-.617-10.317a6.584,6.584,0,0,1,9.187.278c2.713,2.823,2.377,6.723-.929,10.009.343.15.65.293.963.421a12.7,12.7,0,0,1,8.054,11.943c0,.839-.03,1.679.007,2.516.042.942-.4,1.259-1.3,1.257q-11.563-.026-23.126-.006c-.676,0-1.265-.155-1.236-.944a32.1,32.1,0,0,1,.39-5.944,12.238,12.238,0,0,1,7.5-8.739c.363-.158.727-.312,1.1-.474m14.791,14.333c1.23-5.8-3.324-12.537-8.751-12.765a45.883,45.883,0,0,0,.464,4.616c.536,2.693.286,5.1-1.748,7.154-.753.759-1.161.836-1.812-.016-.484-.634-.889-1.33-1.386-1.953a2.979,2.979,0,0,1-.622-2.438c.316-2.437.487-4.894.716-7.352-5.272,0-9.939,6.806-8.816,12.753ZM12.821,146.089a4.877,4.877,0,0,0,4.928-4.934,4.941,4.941,0,0,0-4.846-4.924,5,5,0,0,0-5.014,4.9,4.932,4.932,0,0,0,4.933,4.956m.193,12.263c.387-.864,1.048-1.645,1.02-2.4-.092-2.47-.419-4.933-.7-7.393-.03-.264-.367-.494-.561-.739a2.435,2.435,0,0,0-.391.751c-.244,2.1-.386,4.22-.693,6.312a3.607,3.607,0,0,0,1.328,3.47" transform="translate(0 -102.329)" fill="#698d59" stroke="#698d59" stroke-width="1"/>
        <path id="Trazado_901819" data-name="Trazado 901819" d="M92.7,134.511c1.278,0,2.559.05,3.835-.014,1.14-.057,1.515.421,1.585,1.533a8.848,8.848,0,0,0,17.6.486c.274-2,.274-2,2.333-2,2.317,0,4.634-.005,6.952,0,1.535,0,1.659.132,1.668,1.608.018,2.906.012,2.884-2.809,3.586a2.387,2.387,0,0,0-1.019.833c-.2.23-.218.6-.391.866a2.938,2.938,0,0,0,.381,4.054c.685.713.581,1.359-.155,2.045-1.285,1.2-2.508,2.464-3.737,3.72-.5.509-1.073.69-1.573.173-1.612-1.669-3.253-1.254-5.027-.3a1.811,1.811,0,0,0-1.089,1.378c-.615,2.9-.021,2.527-3.167,2.55-1.278.01-2.558-.029-3.835.011-.833.026-1.335-.284-1.336-1.136,0-1.989-1.139-2.9-2.909-3.465a2.406,2.406,0,0,0-2.492.271c-1.785,1.311-1.823,1.259-3.408-.325-1.017-1.017-2.017-2.051-3.058-3.044-.561-.535-.721-1.1-.155-1.652,1.518-1.485,1.27-3.011.376-4.721a2.119,2.119,0,0,0-1.7-1.379c-2.384-.381-2.375-.431-2.375-2.861,0-.2,0-.4,0-.6.015-1.469.155-1.609,1.676-1.618,1.278-.007,2.557,0,3.835,0m32.1,1.709c-2.049,0-4.081.026-6.112-.013-.846-.016-1.223.189-1.4,1.139a10.549,10.549,0,0,1-20.737-.1c-.169-.773-.427-1.067-1.228-1.045-1.837.052-3.677-.013-5.513.047a1.2,1.2,0,0,0-.892.628c-.216.6.165,1.031.792,1.029,1.871-.006,2.8,1.034,3.216,2.727a3.269,3.269,0,0,0,.375.879,3.059,3.059,0,0,1-.316,4.113,1.079,1.079,0,0,0-.16,1.012c.958,1.1,2,2.132,3.158,3.334,1.781-2.388,3.636-1.494,5.653-.695,1.613.639,2.676,1.428,2.755,3.259.012.272.41.742.647.754,1.425.071,2.855.035,4.508.035-.362-2.572,1.213-3.384,3.158-4.267,2.05-.931,3.678-.88,5.017.546l3.584-3.554c-2.028-1.513-1.444-3.387-.411-5.3a2.73,2.73,0,0,0,.268-.665,2.527,2.527,0,0,1,2.627-2.118c1.056-.037,1.425-.54,1.014-1.754" transform="translate(-66.274 -102.227)" fill="#698d59" stroke="#698d59" stroke-width="1"/>
        <path id="Trazado_901820" data-name="Trazado 901820" d="M143.4,37.846a13.3,13.3,0,0,1-1.478-.008,1.461,1.461,0,0,1-1.027-2.474c1.691-1.969,3.447-3.884,5.213-5.787a1.374,1.374,0,0,1,2.207.015c1.763,1.906,3.517,3.823,5.2,5.8a1.453,1.453,0,0,1-1.052,2.452c-.425.054-.858.047-1.359.071-.023.453-.058.843-.059,1.233-.005,2.357.052,4.716-.021,7.071a5.635,5.635,0,0,0,1.544,4.559,6.738,6.738,0,0,1-.827,9.726,7.006,7.006,0,0,1-9.8-.706,6.88,6.88,0,0,1,.465-9.7,2.882,2.882,0,0,0,1.014-2.48c-.046-3.189-.017-6.379-.017-9.771m1.7,10.309h4.263v-1.14c0-2.838.02-5.676-.006-8.514-.025-2.705.208-2.287,2.151-2.369.053,0,.1-.1.238-.232L147.2,30.855l-4.673,5.2c2.8.251,2.529.021,2.571,2.757,0,.32,0,.639,0,.959Zm7.485,6.987a5.373,5.373,0,0,0-5.427-5.372,5.38,5.38,0,1,0,.03,10.759,5.343,5.343,0,0,0,5.4-5.387" transform="translate(-106.536 -22.065)" fill="#698d59" stroke="#698d59" stroke-width="1"/>
        <path id="Trazado_901821" data-name="Trazado 901821" d="M197.514,8.888c-.6-.028-1.041-.015-1.472-.073A1.466,1.466,0,0,1,195,6.341c1.69-1.971,3.448-3.885,5.214-5.789a1.376,1.376,0,0,1,2.209.006c1.764,1.906,3.517,3.824,5.2,5.8a1.451,1.451,0,0,1-1.04,2.458c-.426.058-.862.045-1.427.071V10.35q0,8.931,0,17.863c0,1.988-.491,2.474-2.472,2.478-.959,0-1.918,0-2.877,0-1.778-.009-2.291-.506-2.292-2.261q-.008-8.991,0-17.983V8.888m-1.032-1.777c.413.052.562.082.711.088,1.947.066,1.948.065,1.948,2.049q0,9.168,0,18.336v1.37h4.384v-18.9c0-2.592,0-2.592,2.566-3.014L201.318,1.74l-4.835,5.371" transform="translate(-147.913 0)" fill="#698d59" stroke="#698d59" stroke-width="1"/>
        <path id="Trazado_901822" data-name="Trazado 901822" d="M74.369,2.976,73.455,1.66A4.994,4.994,0,0,1,74.792,1,12.019,12.019,0,0,1,76.944.983c1.215.03,1.457.392,1.063,1.583a13.041,13.041,0,0,1-.691,1.909,6.847,6.847,0,0,1-.985,1.184L75.248,4.371c-.916.651-1.985,1.405-3.05,2.166q-9.794,7-19.6,13.988a2.058,2.058,0,0,0-1.02,1.95c.071,2.594.026,5.192.024,7.788,0,.6.082,1.34-.767,1.356-.919.018-.864-.755-.865-1.4,0-2.876.027-5.752-.019-8.627a2.03,2.03,0,0,1,.981-1.877Q62.068,11.8,73.162,3.843c.452-.323.9-.648,1.206-.867" transform="translate(-37.971 -0.718)" fill="#698d59" stroke="#698d59" stroke-width="1"/>
        <path id="Trazado_901823" data-name="Trazado 901823" d="M91.292,72.56c0-.4-.032-.8,0-1.2.113-1.222.062-2.139-1.651-2.04A1.33,1.33,0,0,1,88.7,67.1c1.748-2.076,3.575-4.09,5.444-6.059a1.328,1.328,0,0,1,2.036.107c1.764,1.906,3.521,3.82,5.189,5.807a1.879,1.879,0,0,1,.2,1.623,1.636,1.636,0,0,1-1.3.776c-1.172-.063-1.421.429-1.36,1.472.076,1.314.044,2.637.008,3.954-.038,1.391-.619,1.955-1.995,1.978-1.238.021-2.477.024-3.716,0-1.313-.027-1.867-.59-1.912-1.918-.026-.758,0-1.518-.006-2.277m1.6,2.492h4.421c0-1.81,0-3.554,0-5.3,0-1.849,0-1.846,1.9-1.968a3.127,3.127,0,0,0,.608-.192l-4.734-5.247L90.32,67.679c.377.064.527.105.678.113,1.893.1,1.894.1,1.9,1.985,0,1.745,0,3.489,0,5.275" transform="translate(-67.173 -46.072)" fill="#698d59" stroke="#698d59" stroke-width="1"/>
        <path id="Trazado_901824" data-name="Trazado 901824" d="M157.846,129.748c1.02-1.1,1.933-2.087,2.856-3.067.409-.435.949-.836,1.387-.207a1.422,1.422,0,0,1-.232,1.31c-1.094,1.215-2.3,2.33-3.444,3.5-.736.75-1.3.612-1.786-.264a15.693,15.693,0,0,1-1.088-1.99c-.111-.3.176-.742.282-1.12.35.1.794.1,1.027.321a8.732,8.732,0,0,1,1,1.517" transform="translate(-118.205 -95.886)" fill="#698d59" stroke="#698d59" stroke-width="1"/>
      </g>
    </g>
  </g>
</svg>
