<svg xmlns="http://www.w3.org/2000/svg" xmlns:xlink="http://www.w3.org/1999/xlink" width="661.127" height="284.976" viewBox="0 0 661.127 284.976">
  <defs>
    <clipPath id="clip-path">
      <rect id="Rectángulo_402554" data-name="Rectángulo 402554" width="356.155" height="284.976" fill="none"/>
    </clipPath>
    <clipPath id="clip-path-3">
      <rect id="Rectángulo_402550" data-name="Rectángulo 402550" width="52.654" height="51.581" fill="none"/>
    </clipPath>
    <clipPath id="clip-path-4">
      <rect id="Rectángulo_402551" data-name="Rectángulo 402551" width="6.919" height="11.992" fill="none"/>
    </clipPath>
    <clipPath id="clip-path-5">
      <rect id="Rectángulo_402552" data-name="Rectángulo 402552" width="75.219" height="73.32" fill="none"/>
    </clipPath>
  </defs>
  <g id="Grupo_1102762" data-name="Grupo 1102762" transform="translate(-217.787 -2795.209)">
    <rect id="Rectángulo_401667" data-name="Rectángulo 401667" width="661.127" height="260.804" rx="30" transform="translate(217.787 2818.063)" fill="#ffedcc"/>
    <g id="Grupo_1102277" data-name="Grupo 1102277" transform="translate(346.13 2795.209)">
      <g id="Grupo_1102276" data-name="Grupo 1102276" clip-path="url(#clip-path)">
        <g id="Grupo_1102275" data-name="Grupo 1102275">
          <g id="Grupo_1102274" data-name="Grupo 1102274" clip-path="url(#clip-path)">
            <path id="Trazado_902735" data-name="Trazado 902735" d="M151.491,148.412a34.457,34.457,0,1,1-34.457-34.457,34.457,34.457,0,0,1,34.457,34.457" transform="translate(-48.756 -67.282)" fill="#5949b9"/>
            <path id="Trazado_902736" data-name="Trazado 902736" d="M153.519,155.034a29.863,29.863,0,1,1-29.863-29.862,29.863,29.863,0,0,1,29.863,29.862" transform="translate(-55.378 -73.905)" fill="#f3f6f2"/>
            <g id="Grupo_1102267" data-name="Grupo 1102267" transform="translate(45.487 59.603)" opacity="0.07" style="mix-blend-mode: multiply;isolation: isolate">
              <g id="Grupo_1102266" data-name="Grupo 1102266">
                <g id="Grupo_1102265" data-name="Grupo 1102265" clip-path="url(#clip-path-3)">
                  <path id="Trazado_902737" data-name="Trazado 902737" d="M154.344,145.524a29.861,29.861,0,0,1-43.286,41.012,29.862,29.862,0,1,0,43.286-41.012" transform="translate(-111.058 -145.524)" fill="#5c4dba"/>
                </g>
              </g>
            </g>
            <path id="Trazado_902738" data-name="Trazado 902738" d="M161.472,197.361l-.039.927a.694.694,0,0,0,.664.722l28.343,1.186a.693.693,0,0,0,.722-.664l.039-.927a.694.694,0,0,0-.664-.722L162.194,196.7a.693.693,0,0,0-.722.664" transform="translate(-95.314 -116.135)" fill="#806432"/>
            <path id="Trazado_902739" data-name="Trazado 902739" d="M164.543,170.432V155.765a1.149,1.149,0,1,0-2.3,0v14.667a2.3,2.3,0,1,0,2.3,0" transform="translate(-95.116 -91.289)" fill="#4635b1"/>
            <path id="Trazado_902740" data-name="Trazado 902740" d="M234.2,265.181a8.934,8.934,0,0,1,6.364,7.48,7.863,7.863,0,0,0-1.731-12.729,9.1,9.1,0,0,0-4.383,5.308Z" transform="translate(-138.28 -153.471)" fill="#5e2b80"/>
            <path id="Trazado_902741" data-name="Trazado 902741" d="M734.775,182.577l-11.224,2.566a1.909,1.909,0,0,0-1.867-.639l-29.623,6.774a1.909,1.909,0,0,0-1.4,1.386l-11.224,2.566,2.741,11.99,11.1-2.539a1.931,1.931,0,0,0,2.052.89l29.624-6.774a1.932,1.932,0,0,0,1.462-1.694l11.1-2.539Z" transform="translate(-401.156 -107.798)" fill="#5949b9"/>
            <g id="Grupo_1102270" data-name="Grupo 1102270" transform="translate(282.042 86.588)" opacity="0.12">
              <g id="Grupo_1102269" data-name="Grupo 1102269">
                <g id="Grupo_1102268" data-name="Grupo 1102268" clip-path="url(#clip-path-4)">
                  <path id="Trazado_902742" data-name="Trazado 902742" d="M688.623,211.727l2.668,11.674,4.251-.972-5.709-11.02Z" transform="translate(-688.623 -211.409)"/>
                </g>
              </g>
            </g>
            <path id="Trazado_902743" data-name="Trazado 902743" d="M670.83,218.974,666.365,220a3.424,3.424,0,0,1-4.1-2.575l-8.071-35.3a3.424,3.424,0,0,1,2.575-4.1L661.233,177a3.424,3.424,0,0,1,4.1,2.575l8.071,35.3a3.424,3.424,0,0,1-2.575,4.1" transform="translate(-386.201 -104.454)" fill="#5949b9"/>
            <path id="Trazado_902744" data-name="Trazado 902744" d="M643.814,225.151l-4.465,1.021a3.424,3.424,0,0,1-4.1-2.575l-8.071-35.3a3.424,3.424,0,0,1,2.575-4.1l4.465-1.021a3.424,3.424,0,0,1,4.1,2.575l8.071,35.3a3.424,3.424,0,0,1-2.575,4.1" transform="translate(-370.25 -108.101)" fill="#5949b9"/>
            <path id="Trazado_902745" data-name="Trazado 902745" d="M632.37,236.218l-1.23-.1a2.6,2.6,0,0,1-2-2.176l-1.479-6.47a2.6,2.6,0,0,1,.854-2.828l1.063-.628c1.064-.628,2.436.342,2.813,1.99l1.646,7.2c.377,1.647-.437,3.118-1.668,3.014" transform="translate(-370.534 -132.149)" fill="#5949b9"/>
            <path id="Trazado_902746" data-name="Trazado 902746" d="M809.089,187.684l2.673-.611a4.343,4.343,0,0,0,3.266-5.2l-7.661-33.506a4.344,4.344,0,0,0-5.2-3.266l-2.672.611a4.343,4.343,0,0,0-3.266,5.2l7.661,33.506a4.344,4.344,0,0,0,5.2,3.266" transform="translate(-470.048 -85.605)" fill="#5949b9"/>
            <path id="Trazado_902747" data-name="Trazado 902747" d="M836.105,181.507l2.673-.611a4.343,4.343,0,0,0,3.266-5.2l-7.661-33.506a4.344,4.344,0,0,0-5.2-3.266l-2.672.611a4.343,4.343,0,0,0-3.266,5.2l7.661,33.506a4.343,4.343,0,0,0,5.2,3.266" transform="translate(-485.999 -81.958)" fill="#5949b9"/>
            <path id="Trazado_902748" data-name="Trazado 902748" d="M858.071,184.965l1.063-.628a2.6,2.6,0,0,0,.854-2.828l-1.479-6.47a2.6,2.6,0,0,0-2-2.176l-1.23-.1c-1.231-.1-2.045,1.367-1.668,3.014l1.646,7.2c.377,1.647,1.749,2.618,2.813,1.99" transform="translate(-503.94 -101.998)" fill="#5949b9"/>
            <path id="Trazado_902749" data-name="Trazado 902749" d="M132.157,274.263l1.549-5.518-2.33-.765-1.9,3.544-.934-.873-.75,4.883,2.314,1.122Z" transform="translate(-75.453 -158.223)" fill="#80589b"/>
            <path id="Trazado_902750" data-name="Trazado 902750" d="M41.154,307.268l22.227-2.858L76.339,282.18l4.479,2.461-9.482,29.638-26.408,9.61Z" transform="translate(-24.299 -166.606)" fill="#b3acdf"/>
            <path id="Trazado_902751" data-name="Trazado 902751" d="M55.02,475.758v7.617l10.156,33.007L63.4,552.189l4.437.819,11.3-42.973-.389-12.326-4.69-25.138Z" transform="translate(-32.485 -279.018)" fill="#9ab48e"/>
            <path id="Trazado_902752" data-name="Trazado 902752" d="M39.918,493.223,29.454,564.817l-4.212.417-3.1-40.273L15.8,486.875Z" transform="translate(-9.327 -287.464)" fill="#9ab48e"/>
            <path id="Trazado_902753" data-name="Trazado 902753" d="M77.1,667.2l4.846,5.128-1.4,2.6-10-4.8,1.841-3.8Z" transform="translate(-41.655 -393.418)" fill="#4635b1"/>
            <path id="Trazado_902754" data-name="Trazado 902754" d="M41.473,676.826l5.973,3.755-.706,2.867L35.86,681.3l.834-4.139Z" transform="translate(-21.173 -399.616)" fill="#4635b1"/>
            <path id="Trazado_902755" data-name="Trazado 902755" d="M63.413,290.554c-4.114.3-7.961-3.076-12.01-2.237a7.836,7.836,0,0,0-5.515,5.512,6.593,6.593,0,0,0-.14,3.783,6.3,6.3,0,0,0,1.193,2.139,8.961,8.961,0,0,0,2.472,2.092,16.157,16.157,0,0,1-1.761,2.337l5.692,2.18,1.258-3.27a8.686,8.686,0,0,0,1.7-.258,9.823,9.823,0,0,0,6.912-7.3,19.083,19.083,0,0,0,.2-4.976" transform="translate(-26.883 -170.15)" fill="#80589b"/>
            <path id="Trazado_902756" data-name="Trazado 902756" d="M59.58,281.244l-12.721-1.512L44.39,289.45,40.8,286.6l1.851-15.9,17.952-.386,7.773,4.56-.329,4.57-6.951,4.679Z" transform="translate(-24.088 -159.6)" fill="#4635b1"/>
            <path id="Trazado_902757" data-name="Trazado 902757" d="M30.555,327.6,15.445,321.6a261.6,261.6,0,0,0-13.162,36.28c-6.1,21.365,1.971,51.036,1.971,51.036s42.132-8.6,49.044-9.958L39.663,356.232Z" transform="translate(0 -189.883)" fill="#b3acdf"/>
            <path id="Trazado_902758" data-name="Trazado 902758" d="M780.815,299.192l5.553-.241a27.755,27.755,0,0,0-.055-4.427,12.7,12.7,0,0,0,3.241-1.737c.754-1.02.842-2.733,1.156-3.946.669-2.585,1.3-5.495-.069-7.789-1.415-2.376-4.475-3.189-7.239-3.261-3.47-.091-7.344.921-9.129,3.9-1.612,2.69.421,6.656,1,9.5.286,1.4.723,3,2.026,3.594.692.314,1.531.28,2.148.723,1.09.781.844,2.451,1.365,3.685" transform="translate(-456.792 -164.012)" fill="#c3b1d0"/>
            <path id="Trazado_902759" data-name="Trazado 902759" d="M760.8,258.355q-.31-2.877-.619-5.754a4.97,4.97,0,0,1,.08-2.13,3.72,3.72,0,0,1,2.679-2.144c1.15-.312,2.361-.323,3.525-.58a14.715,14.715,0,0,1,3.72-.77c2.416.107,4.265,2.347,6.654,2.729,3.307.528,6.343-.986,8.34,2.905.367.715.468,1.538.792,2.274a15.978,15.978,0,0,0,1.773,2.55c2.615,3.741,1.769,9.42-1.4,12.591-1.536,1.538-2.165,2.928-4.282,3.421.97-1.97-.31-9.821-2.964-10.7-.7-.233-2.815.627-3.593.741a20.669,20.669,0,0,0-5.024,1.2,25.074,25.074,0,0,1-7.629,1.9.964.964,0,0,1-1.277-1.046l-.773-7.185" transform="translate(-448.787 -145.819)" fill="#4635b1"/>
            <path id="Trazado_902760" data-name="Trazado 902760" d="M850.487,671.038l.745,3.127-5.51,4.615L841.85,676.4l2.383-3.871,5.51-4.616Z" transform="translate(-497.05 -394.352)" fill="#4635b1"/>
            <path id="Trazado_902761" data-name="Trazado 902761" d="M796.474,439.371l2.26,9.5-2.866,44.167,13.339,41.982-5.907,2.717-26.726-48.469L773.4,473.783l-1.614-32.734Z" transform="translate(-455.683 -259.416)" fill="#9ab48e"/>
            <path id="Trazado_902762" data-name="Trazado 902762" d="M740.991,443.24l-.475,41.027,7.732,52.9h5.945l3.755-48.81,8.135-48.811Z" transform="translate(-437.22 -259.519)" fill="#9ab48e"/>
            <path id="Trazado_902763" data-name="Trazado 902763" d="M759.924,676.165v3.214l-6.429,3.214-3.214-3.214,3.214-3.214Z" transform="translate(-442.985 -399.226)" fill="#4635b1"/>
            <path id="Trazado_902764" data-name="Trazado 902764" d="M765.787,383.313c.082,3.743-.036,8.788-1.474,8.973a1.306,1.306,0,0,1-.763-.227c-2.487-1.358-4.246-3.268-6.7-4.58a28.248,28.248,0,0,0-8.391-2.617,81,81,0,0,0-13.106-1.352,103.583,103.583,0,0,0-10.358.52c-2.86.238-5.521,1.086-8.434.884a18.728,18.728,0,0,1-8.48-2.69.508.508,0,0,1-.231-.225.516.516,0,0,1,.04-.35,15.739,15.739,0,0,1,2.156-4.711,30.507,30.507,0,0,0,3.01-5.269,84.588,84.588,0,0,0,4.92-11.416c1.968-5.31,4.216-10.482,6.118-15.81a90.956,90.956,0,0,1,4.31-10.952c1.4-2.741,3.9-6.746,6.9-7.953a9.362,9.362,0,0,1,3.237-.477l9.978-.287a8.081,8.081,0,0,1,3.579.439c1.656.749,2.593,2.489,3.411,4.111a79.635,79.635,0,0,1,7.321,23.215c.684,4.224,1.318,8.458,1.81,12.707.55,4.742.928,9.5,1.007,14.275.009.53.093,2.015.132,3.793" transform="translate(-417.924 -191.745)" fill="#6d5fc1"/>
            <path id="Trazado_902765" data-name="Trazado 902765" d="M764.18,343.1a27.2,27.2,0,0,0,.411,5.641q2.449,17.087,4.9,34.174l-26.791-.233q.485-6.4.97-12.8a45.52,45.52,0,0,1,5.65-20.613l10.288-22.384a2.305,2.305,0,0,1,2.2-1.649,26.273,26.273,0,0,1,8-.442c.641,2.335-1.725,6.4-2.6,8.568-1.276,3.161-2.8,6.3-3.028,9.742" transform="translate(-438.509 -191.674)" fill="#fff"/>
            <path id="Trazado_902766" data-name="Trazado 902766" d="M731.707,287.5l-12.572-18.711-3.216-29.529,5.263-1.169,7.017,26.9L740.478,275.8Z" transform="translate(-422.697 -140.573)" fill="#6d5fc1"/>
            <path id="Trazado_902767" data-name="Trazado 902767" d="M720.354,230.5v-1.917l.877-1.884-.292-1.462h-1.462l-.585,3.216-4.375,1.042.574,2.174Z" transform="translate(-421.869 -132.986)" fill="#c3b1d0"/>
            <path id="Trazado_902768" data-name="Trazado 902768" d="M757.4,413.616l-2.713,1.079-2.348-1.055-.476.384.449.605-2.2-.318-1.54.94-.174,2.394,1.379,2.061,2.4-.079,2.419-1.508,3.777-1.317Z" transform="translate(-441.875 -244.21)" fill="#c3b1d0"/>
            <path id="Trazado_902769" data-name="Trazado 902769" d="M762.734,375.43l15.617-6.561,1.754-18.711,10.818,4.678-2.495,20.828L764.79,380.74Z" transform="translate(-450.338 -206.743)" fill="#6d5fc1"/>
            <path id="Trazado_902770" data-name="Trazado 902770" d="M389.111,486.981l2.068,28.3,6.847,46.846h5.265l3.325-43.226,1.473-34.972Z" transform="translate(-229.742 -285.722)" fill="#9ab48e"/>
            <path id="Trazado_902771" data-name="Trazado 902771" d="M411.347,673.32v2.847l-5.693,2.847-2.846-2.847,2.846-2.847Z" transform="translate(-237.828 -397.546)" fill="#4635b1"/>
            <path id="Trazado_902772" data-name="Trazado 902772" d="M447.353,470.273l-2,39.663L440.77,555.47h-5.392L431,512.329l-6.4-45.407Z" transform="translate(-250.691 -275.683)" fill="#9ab48e"/>
            <path id="Trazado_902773" data-name="Trazado 902773" d="M451,681.549v2.916l5.831,2.915,2.916-2.915-2.916-2.916Z" transform="translate(-266.282 -402.404)" fill="#4635b1"/>
            <path id="Trazado_902774" data-name="Trazado 902774" d="M424.721,291.4l5.519-.54a27.71,27.71,0,0,0-.293-4.407c1.534-.537,3.306-1.343,3.576-2.945a4.583,4.583,0,0,0-.088-1.525l-1.073-6.257a5.6,5.6,0,0,0-.646-2.082,4.7,4.7,0,0,0-3.287-1.782,11.425,11.425,0,0,0-9.254,2.241,5.009,5.009,0,0,0-1.565,2.059,6.784,6.784,0,0,0,.222,3.963l.941,3.6c.361,1.381.882,2.952,2.212,3.471.706.276,1.54.2,2.179.6,1.127.719.973,2.4,1.558,3.6" transform="translate(-246.437 -160.401)" fill="#c3b1d0"/>
            <path id="Trazado_902775" data-name="Trazado 902775" d="M391.406,255.844a17.74,17.74,0,0,1,.451-4.18c.491-2.24,3.134-3.247,5.421-3.406,4.942-.343,9.71-2.583,14.536-.854,2.758.989,6.463,1.226,8.959,2.619a7.371,7.371,0,0,1,2.521,2.493,11.1,11.1,0,0,1,.015,11.742,15.848,15.848,0,0,1-1.731,2.176c-1.3,1.41-2.864,3.152-4.655,3.673-.041-1.6,1.426-6.652.2-7.967-1.95-2.086-6.366-1.366-8.789-.856-2.643.556-5,2.424-7.621,2.82-1.885.286-4.29-.642-5.891-1.619-2.51-1.53-3.348-4.058-3.413-6.642" transform="translate(-231.094 -145.691)" fill="#4635b1"/>
            <path id="Trazado_902776" data-name="Trazado 902776" d="M512.667,239.181l1.068-3.324-1.449-2.715.419-.6.759.487-.558-2.6,1-1.913,2.842-.4,2.571,1.478.1,2.865-1.6,3.008-1.265,4.613Z" transform="translate(-302.467 -134.686)" fill="#c3b1d0"/>
            <path id="Trazado_902777" data-name="Trazado 902777" d="M478.659,249.146l5.263.292-5.263,26.021-15.012,15.484-8.707-13.006,15.826-10.371Z" transform="translate(-268.608 -147.102)" fill="#6d5fc1"/>
            <path id="Trazado_902778" data-name="Trazado 902778" d="M369.265,214.564l-.179-3.486,2.1-2.253-.251-.687-.859.276,1.206-2.368-.472-2.1-2.644-1.118-2.864.769-.831,2.743.777,3.319.038,4.783Z" transform="translate(-215.192 -119.752)" fill="#c3b1d0"/>
            <path id="Trazado_902779" data-name="Trazado 902779" d="M370.039,224.258l-5.161-1.069-.409,19.857,2.028,15.347,13.2,19.37L390.5,262.129l-12.546-9.22Z" transform="translate(-215.192 -131.777)" fill="#6d5fc1"/>
            <path id="Trazado_902780" data-name="Trazado 902780" d="M392.03,316.371l17.435.738,8.8,33.5,7.268,46.439-56.112,1.364,13.2-65.632Z" transform="translate(-218.116 -186.793)" fill="#6d5fc1"/>
            <path id="Trazado_902781" data-name="Trazado 902781" d="M316.238,328.694l2.124-2,.036-2.574.549-.269.359.663.641-2.128,1.5-1,2.243.854,1.286,2.121-1.085,2.138-2.388,1.556-2.79,2.867Z" transform="translate(-186.715 -189.754)" fill="#c3b1d0"/>
            <path id="Trazado_902782" data-name="Trazado 902782" d="M274.859,330.2l-11.9,14.1-15.531-15.045-2.416,17.986,18.907,9.373L278.8,334.305Z" transform="translate(-144.664 -194.399)" fill="#806432"/>
            <path id="Trazado_902783" data-name="Trazado 902783" d="M202.8,672.6l-.258,2.543,4.619,3.17,2.7-2.229-2.181-2.856-4.619-3.171Z" transform="translate(-119.585 -395.619)" fill="#5747b8"/>
            <path id="Trazado_902784" data-name="Trazado 902784" d="M202.322,485.241l-.782,7.722,6.927,26.531-6.432,42.633,4.735,1.631,12.485-41.623,1.981-12.109-.072-25.634Z" transform="translate(-118.994 -285.998)" fill="#c3b1d0"/>
            <path id="Trazado_902785" data-name="Trazado 902785" d="M258.428,498.114l-9.959,71.438h-4.527l-.815-45.792-8.239-32.141Z" transform="translate(-138.684 -290.265)" fill="#c3b1d0"/>
            <path id="Trazado_902786" data-name="Trazado 902786" d="M257.057,680.517v2.566l4.9,2.566,2.448-2.566-2.448-2.566Z" transform="translate(-151.773 -401.795)" fill="#5747b8"/>
            <path id="Trazado_902787" data-name="Trazado 902787" d="M213.932,324.578a4.072,4.072,0,0,0-1.495-1.456c-4.5-2.538-11.952-.3-16.832-.3-1.442,15.185-5.429,29.656-8,44.565q-4.1,23.751-9.235,47.309c-.194.889,13.582.441,14.881.462,13.253.224,30.6.178,43.389-3.829-8.161-21.909-11.141-45.483-17.567-67.963-1.128-3.947-2.468-7.834-3.484-11.812-.589-2.306-.5-5.09-1.651-6.974" transform="translate(-105.31 -190.064)" fill="#806432"/>
            <path id="Trazado_902788" data-name="Trazado 902788" d="M242.445,275.609c-1.733-9.151-13.167-7.57-16.447-.159-1.865,4.215.089,10.18,3.82,13.113.08.81.186,3.045.8,3.587.67.586,2.784.027,3.612-.164a1.279,1.279,0,0,0,.636-.286,2.389,2.389,0,0,0,.247-1.388,7.614,7.614,0,0,0,1.864-.368,8.857,8.857,0,0,0,5.382-6.019,17.736,17.736,0,0,0,.081-8.316" transform="translate(-133.012 -159.006)" fill="#c3b1d0"/>
            <path id="Trazado_902789" data-name="Trazado 902789" d="M214.137,304.375a2.462,2.462,0,0,0,.261-.026c2.017-.346,5.253-1,6.19-3.123.96-2.177-.745-6.127-1.027-8.39-.428-3.439-.57-6.908-.735-10.368a15.791,15.791,0,0,1,2.6-8.855,49.7,49.7,0,0,1,5.868-7.283,7.393,7.393,0,0,0,2.046-3.259,4.819,4.819,0,0,0-1.194-3.986,6.754,6.754,0,0,0-5.274-2.58c-7.562-.181-13.247,4.293-15.393,11.678-3.074,10.583.766,20.681.194,31.212a10.065,10.065,0,0,1-1.7,5.059c.267-.4,6.536.012,8.167-.081" transform="translate(-121.61 -151.445)" fill="#4635b1"/>
            <path id="Trazado_902790" data-name="Trazado 902790" d="M175.676,461.031a2.719,2.719,0,0,1-2.649.806,6.3,6.3,0,0,1-2.555-1.343,19.562,19.562,0,0,1-2.561-2.4,4.914,4.914,0,0,1-1.087-1.685,2,2,0,0,1,.285-1.91,3.029,3.029,0,0,1,1.171-.715,1.27,1.27,0,0,1,1.656.208c1.469,1.182,7.661,4.633,5.741,7.038" transform="translate(-98.428 -267.803)" fill="#806432"/>
            <path id="Trazado_902791" data-name="Trazado 902791" d="M175.949,461.336a2.479,2.479,0,0,0,.371.075,2.706,2.706,0,0,0,1.359-.143s1.073-.752.6-.741l-.974.022,1.978-2.085.157-2.327-2.4-1.97-3.206-.083c-.96,1.458-2.332,2.808-1.2,4.591a6.59,6.59,0,0,0,1.286,1.363,5.539,5.539,0,0,0,2.023,1.3" transform="translate(-101.679 -268.103)" fill="#c3b1d0"/>
            <path id="Trazado_902792" data-name="Trazado 902792" d="M545.345,325.55l-.269.1c-4.262,1.658-7.608,9.1-9.526,13.468-4.951,11.285-7.113,23.043-7.506,35.513-.211,6.715-.132,13.441.081,20.16.059,1.856,1.669,18.475.845,18.872,8.442-4.071,17.025-7.917,26.011-10.241s18.44-3.087,27.516-.971a444.8,444.8,0,0,0-12.532-62.945,55.126,55.126,0,0,0-2.174-7.347c-1.178-2.661-2.946-3.447-5.18-5.02a14.551,14.551,0,0,0-2.378-1.457c-4.435-1.981-10.4-1.8-14.888-.136" transform="translate(-311.698 -191.446)" fill="#5747b8"/>
            <path id="Trazado_902793" data-name="Trazado 902793" d="M538.76,479.467l9.675,39.266.226,30.194,4.613.859,1.91-28.012,4.611-49.3Z" transform="translate(-318.098 -278.964)" fill="#80589b"/>
            <path id="Trazado_902794" data-name="Trazado 902794" d="M567.114,659.075l.759,2.936-.666,5.759-3.807.007-1.426-8.326.442-1.392Z" transform="translate(-331.805 -388.535)" fill="#5747b8"/>
            <path id="Trazado_902795" data-name="Trazado 902795" d="M600.947,476.691l.854,33.93-4.529,47.921-4.637.339-1.666-43.932-9.444-39.827Z" transform="translate(-343.348 -280.525)" fill="#80589b"/>
            <path id="Trazado_902796" data-name="Trazado 902796" d="M612,676.84l6.246,3.317-.5,2.917-11.034-1.352.53-4.2Z" transform="translate(-358.222 -399.624)" fill="#5747b8"/>
            <path id="Trazado_902797" data-name="Trazado 902797" d="M603.02,484.3l3.143,39.2-3.2,26.884-12.561-.712-2.239-30.565-5.432-33.322.844-5.188,18.1.265Z" transform="translate(-344.061 -283.76)" fill="#6d5fc1"/>
            <path id="Trazado_902798" data-name="Trazado 902798" d="M558.3,517.9l-1.476,28.118-10.919-.56.223-26.666-6.885-33.488,1.571-9.361,18.363,1.143Z" transform="translate(-318.382 -281.011)" fill="#6d5fc1"/>
            <path id="Trazado_902799" data-name="Trazado 902799" d="M588.506,391.692c-11.238,1.716-29.939,3.026-41.178,4.742-.605-20.32,1.4-43.786,6.3-63.45.889-3.567,2.2-7.417,5.319-9.233,3.339-1.947,10.42-1.682,12.458,2.1,2.981,5.532,3.57,14.337,4.9,20.493,3.009,13.928,10.339,31.217,12.2,45.348" transform="translate(-323.095 -190.448)" fill="#fff"/>
            <path id="Trazado_902800" data-name="Trazado 902800" d="M570.351,282.165c1.673-8.289,12.036-6.729,14.933.034,1.908,4.455-.861,10.988-5.346,12.882q.412,1.7.677,3.43l-3.81.213a1.226,1.226,0,0,1-1.089-.3,1.209,1.209,0,0,1-.168-.684q-.052-1.2-.1-2.409c-.1-.029-.193-.059-.29-.092a8.043,8.043,0,0,1-4.821-5.523,16.1,16.1,0,0,1,.017-7.55" transform="translate(-336.478 -163.265)" fill="#80589b"/>
            <path id="Trazado_902801" data-name="Trazado 902801" d="M563.336,280.3c-1.312,2.5-.5,5.521.223,8.11.641,2.3.756,3.757-1.854,3.921-1.47.093-4.084.286-5.15-1-.807-.976.138-3.428.761-4.362.476-.713,1.465-.953,1.922-1.678a2.75,2.75,0,0,0,.328-1,14.349,14.349,0,0,0,.108-4.311,14.6,14.6,0,0,1-.271-2.92c.109-1.416,1.363-2.882,2.092-4.081,1.357-2.23,5.242-4.882,7.75-2.547a4.169,4.169,0,0,1,1.023,2.069,3.459,3.459,0,0,1,.153,1.379c-.279,1.837-2,1.872-3.3,2.555a9.3,9.3,0,0,0-3.783,3.866" transform="translate(-328.422 -159.134)" fill="#4635b1"/>
            <path id="Trazado_902802" data-name="Trazado 902802" d="M590.181,275.8c-.108,1.315-1.025,2.647-.49,3.853a5.738,5.738,0,0,0,1.115,1.355,4.668,4.668,0,0,1,.916,4.5l7.847.976a2.372,2.372,0,0,0,1.178-.052c.788-.317.991-1.318,1.081-2.163.178-1.663.333-3.45-.482-4.911-.378-.677-.943-1.236-1.318-1.915-1.807-3.263,1.255-7.973-1.124-10.846-1.062-1.282-2.844-1.656-4.26-2.533-2.467-1.529-3.757-4.556-6.318-5.922-4.837-2.579-10.821,2.854-8.532,7.915,1.866,4.127,10.822,4.443,10.388,9.739" transform="translate(-342.028 -152.027)" fill="#4635b1"/>
            <path id="Trazado_902803" data-name="Trazado 902803" d="M547.22,328.905s-3.575,50.455,4.259,60.4,11.185,13.7,11.185,13.7l-32.106,13.405s.7-73.573,16.663-87.506" transform="translate(-313.255 -194.194)" fill="#5747b8"/>
            <path id="Trazado_902804" data-name="Trazado 902804" d="M641.921,403.8a2.718,2.718,0,0,1,.8,2.651A6.3,6.3,0,0,1,641.374,409a19.6,19.6,0,0,1-2.406,2.556,4.921,4.921,0,0,1-1.687,1.083,2,2,0,0,1-1.909-.289,3.033,3.033,0,0,1-.712-1.172,1.271,1.271,0,0,1,.211-1.656c1.185-1.466,4.649-7.65,7.05-5.725" transform="translate(-374.597 -238.197)" fill="#538040"/>
            <path id="Trazado_902805" data-name="Trazado 902805" d="M642.225,406.551a2.53,2.53,0,0,0,.076-.371,2.7,2.7,0,0,0-.14-1.359s-.75-1.074-.74-.6l.02.974-2.081-1.982-2.327-.162-1.976,2.394-.09,3.206c1.456.963,2.8,2.337,4.589,1.208a6.6,6.6,0,0,0,1.365-1.283,5.542,5.542,0,0,0,1.3-2.02" transform="translate(-374.902 -237.969)" fill="#c5b3d1"/>
            <path id="Trazado_902806" data-name="Trazado 902806" d="M648.914,366.508a5.763,5.763,0,0,1-8.233,1.565,3.779,3.779,0,0,1-6.3-.11,4.956,4.956,0,0,1-6.339-7.1,4.055,4.055,0,0,1-3.814-4.047c0-.078,0-.155.007-.232a25.1,25.1,0,0,0-6.356,3.505,15.761,15.761,0,0,1-10.922,3.011c-5.38-.524-12.7.255-18.166,6.52-7.324,8.4-6.107,19.3-1.579,28.247,3.35,6.622,8.044,13.121,14.155,17.805,5.913,4.533,15.8,8.307,23.133,3.524a12.459,12.459,0,0,1,7.552-2.059c12.737.807,17.789-13.751,19.507-23.046,1.666-9.011,1.79-19.39-2.65-27.589" transform="translate(-344.549 -210.54)" fill="#806432"/>
            <path id="Trazado_902807" data-name="Trazado 902807" d="M649.751,336.606a16.414,16.414,0,0,0,4.482-6.868,42.9,42.9,0,0,0,2.009-8.357,32.325,32.325,0,0,0,.529-5.8,50.443,50.443,0,0,0-5.894,2.806,22.719,22.719,0,0,0-6.271,4.8,15.018,15.018,0,0,0-3.7,8.054c-.63,6.27,4.827,8.671,8.843,5.373" transform="translate(-378.379 -186.324)" fill="#4635b1"/>
            <path id="Trazado_902808" data-name="Trazado 902808" d="M390.943.012c-11.022.261-24.159,7.543-26.458,17.22C360.221,8.246,342.85,4.27,332.015,6.312,303.422,11.7,297.048,44.89,311.555,65.23c7.808,10.947,18.337,20.129,29.618,28.18,9.447,6.743,33.444,20.626,33.506,20.563.074.048,20.65-18.532,28.484-27.095,9.355-10.226,17.74-21.4,23.1-33.735C436.207,30.228,420.031-.678,390.943.012" transform="translate(-179.52 0)" fill="#806432"/>
            <g id="Grupo_1102273" data-name="Grupo 1102273" transform="translate(174.917 41.003)" opacity="0.12" style="mix-blend-mode: multiply;isolation: isolate">
              <g id="Grupo_1102272" data-name="Grupo 1102272">
                <g id="Grupo_1102271" data-name="Grupo 1102271" clip-path="url(#clip-path-5)">
                  <path id="Trazado_902809" data-name="Trazado 902809" d="M493.573,115.576A157.682,157.682,0,0,1,471.537,142c-8.025,7.689-17.642,14.664-28.7,17.822a39.751,39.751,0,0,1-15.764,1.319c9.947,6.13,20.709,12.335,20.751,12.293.074.048,20.65-18.532,28.484-27.095,9.355-10.226,17.741-21.4,23.1-33.735a35.906,35.906,0,0,0,2.889-12.49,114.354,114.354,0,0,1-8.716,15.465" transform="translate(-427.07 -100.111)"/>
                </g>
              </g>
            </g>
            <path id="Trazado_902810" data-name="Trazado 902810" d="M435.743,77.026l-22.6,2.962L401.815,51.109a1.594,1.594,0,0,0-2.974.313q-6.042,26.811-12.085,53.621l-.7,3.106L370.538,75.324l-2.489-5.265c-.5-1.058-2.358-1.3-2.855-.05l-6.925,17.472-25.354,2.671a1.46,1.46,0,1,0,.306,2.9l26.309-2.772a1.554,1.554,0,0,0,1.256-.859l5.934-14.973,15.921,33.676,2.489,5.265a1.6,1.6,0,0,0,2.974-.313q6.042-26.811,12.085-53.621l.578-2.565,9.906,25.244a1.562,1.562,0,0,0,1.6.909l23.777-3.117a1.46,1.46,0,1,0-.306-2.9" transform="translate(-195.767 -29.648)" fill="#fff"/>
            <path id="Trazado_902811" data-name="Trazado 902811" d="M119.412,398.269l-32.22,3.662c-11.915,1.354-22.74-7.762-24.176-20.362S70.074,357.658,81.99,356.3l32.138-3.652Z" transform="translate(-37.113 -208.214)" fill="#f3f6f2"/>
            <path id="Trazado_902812" data-name="Trazado 902812" d="M196.215,387.516l62.612-7.116a17.453,17.453,0,0,0,15.37-19.319l-1.248-10.945a17.453,17.453,0,0,0-19.312-15.364l-62.625,7.117Z" transform="translate(-112.778 -197.591)" fill="#5747b8"/>
            <path id="Trazado_902813" data-name="Trazado 902813" d="M215.146,385.063l1.7-.194,1.705,14.953-1.7.193-.771-6.759-6.547.744.771,6.759-1.7.194L206.894,386l1.7-.194.771,6.759,6.547-.744Z" transform="translate(-122.156 -227.237)" fill="#fff"/>
            <path id="Trazado_902814" data-name="Trazado 902814" d="M241.229,382.5l7.516-.854.164,1.434-5.811.661.593,5.2,5.4-.614.163,1.434-5.4.614.621,5.449,6.2-.7.164,1.434-7.9.9Z" transform="translate(-142.428 -225.333)" fill="#fff"/>
            <path id="Trazado_902815" data-name="Trazado 902815" d="M270.573,379.549l2.267-.258,6.335,14.426-1.685.192-1.889-4.35-5.385.612-.861,4.662-1.685.192Zm1.325,1.468-1.421,7.673,4.513-.513Z" transform="translate(-158.038 -223.943)" fill="#fff"/>
            <path id="Trazado_902816" data-name="Trazado 902816" d="M299.119,392.019l-1.705-14.952,1.7-.194,1.542,13.518,5.269-.6.163,1.434Z" transform="translate(-175.601 -222.516)" fill="#fff"/>
            <path id="Trazado_902817" data-name="Trazado 902817" d="M313.09,375.493l-.163-1.434,9.3-1.057.163,1.434-3.8.431,1.542,13.519-1.705.194-1.542-13.519Z" transform="translate(-184.76 -220.23)" fill="#fff"/>
            <path id="Trazado_902818" data-name="Trazado 902818" d="M349.223,369.827l1.7-.194,1.705,14.952-1.7.194-.771-6.759-6.547.744.771,6.759-1.7.194-1.705-14.952,1.7-.194.771,6.759,6.547-.744Z" transform="translate(-201.319 -218.241)" fill="#fff"/>
            <path id="Trazado_902819" data-name="Trazado 902819" d="M128.922,389.5l-8.187.931-.767.087-.719-6.3q-.181-1.581-.361-3.163a.647.647,0,0,0-.688-.58l-5.088.578a.646.646,0,0,0-.54.72q.493,4.328.987,8.657.046.405.093.811l-5.962.678-2.991.34a.646.646,0,0,0-.541.72q.307,2.69.614,5.38a.621.621,0,0,0,.229.435.557.557,0,0,0,.46.145l8.186-.931.767-.087.719,6.3q.18,1.581.361,3.163a.647.647,0,0,0,.688.58l5.088-.578a.556.556,0,0,0,.409-.236.62.62,0,0,0,.131-.484q-.493-4.328-.987-8.657-.046-.405-.093-.811l5.962-.678,2.992-.34a.646.646,0,0,0,.541-.72q-.307-2.69-.614-5.38a.647.647,0,0,0-.689-.58" transform="translate(-61.495 -224.636)" fill="#5747b8"/>
            <path id="Trazado_902820" data-name="Trazado 902820" d="M580.044,416.342a2.434,2.434,0,0,0,.109.362,2.7,2.7,0,0,0,.766,1.131s1.169.591.938.182l-.479-.849,2.771.761,2.127-.959.607-3.044-1.438-2.866c-1.739-.159-3.576-.732-4.614,1.109a6.615,6.615,0,0,0-.595,1.776,5.542,5.542,0,0,0-.191,2.4" transform="translate(-342.432 -242.577)" fill="#80589b"/>
            <path id="Trazado_902821" data-name="Trazado 902821" d="M558.666,401.529l-9.963-6.466L541.03,402.3l16.129,5.078Z" transform="translate(-319.438 -233.255)" fill="#5747b8"/>
          </g>
        </g>
      </g>
    </g>
  </g>
</svg>
