<svg xmlns="http://www.w3.org/2000/svg" xmlns:xlink="http://www.w3.org/1999/xlink" width="90" height="90" viewBox="0 0 90 90">
  <defs>
    <clipPath id="clip-path">
      <rect id="Rectángulo_402479" data-name="Rectángulo 402479" width="62.812" height="62.903" fill="#698d59"/>
    </clipPath>
  </defs>
  <g id="Grupo_1102773" data-name="Grupo 1102773" transform="translate(-721.028 -2979.563)">
    <path id="Trazado_901621" data-name="Trazado 901621" d="M45,0A45,45,0,1,1,0,45,45,45,0,0,1,45,0Z" transform="translate(721.028 2979.563)" fill="#fff"/>
    <g id="Grupo_1102208" data-name="Grupo 1102208" transform="translate(734.623 2993.111)">
      <g id="Grupo_1102207" data-name="Grupo 1102207" clip-path="url(#clip-path)">
        <path id="Trazado_901825" data-name="Trazado 901825" d="M2.014,96.752a6.273,6.273,0,0,1,1.624.168,1.312,1.312,0,0,1,.78.877,1.19,1.19,0,0,1-.705.929A11.878,11.878,0,0,1,.8,98.714a1.254,1.254,0,0,1-.739-.945,28.042,28.042,0,0,1,.061-4.524A5.26,5.26,0,0,1,3.48,88.9c1.16-.5,2.346-.942,3.526-1.393.692-.265.811-.534.21-1.1S6.142,85.1,5.578,84.47a2.692,2.692,0,0,0-.9-.712,2.81,2.81,0,0,1-1.429-4.305,3.791,3.791,0,0,0,.472-1.8c.086-4.771,3.713-7.8,8.4-6.972a6.6,6.6,0,0,1,5.355,5.9,6.382,6.382,0,0,0,.8,3.478,2.468,2.468,0,0,1-1.264,3.486,3.055,3.055,0,0,0-1.618,1.5,4.243,4.243,0,0,1-1.137,1.262c-.887.669-.557.99.253,1.3,1.1.423,2.215.837,3.288,1.329a5.355,5.355,0,0,1,3.344,4.87c.062,1.222.012,2.45.039,3.674a1.169,1.169,0,0,1-1.33,1.36c-4.288,0-8.577.03-12.864-.045-.436-.007-.861-.637-1.291-.978.438-.326.871-.924,1.316-.934,3.51-.079,7.024-.046,10.536-.047h1.432c.692-4.177-.276-5.683-3.173-6.568a2.369,2.369,0,0,1-.565-.231,2.279,2.279,0,0,0-3.5.665c-.8,1.079-1.356,1.064-2.266-.033-1.03-1.242-2.054-1.524-3.429-.659a7.857,7.857,0,0,1-1.476.583,3.692,3.692,0,0,0-2.557,3.532c-.047.847-.008,1.7-.008,2.626M12.422,77.9a18.486,18.486,0,0,1-3.686,1.41c-1.514.239-1.855.966-1.652,2.282.049.321.008.654.033.979a2.965,2.965,0,0,0,1.705,2.517,4.191,4.191,0,0,0,4.573-.649c.716-.76,1.25-4.058.78-4.915-.072-.13-.24-.206-.356-.314-.476-.443-.949-.89-1.4-1.31m-6.657-.148a7.894,7.894,0,0,0,5.875-2.179c1.013-1.033,1.5-.92,2.142.351a14.394,14.394,0,0,0,1.362,1.894,4.232,4.232,0,0,0-4.116-5.264c-2.986-.237-5.066,1.713-5.263,5.2m4.873,11.4,1.266-1.68H9.325l1.313,1.68" transform="translate(0 -53.242)" fill="#698d59"/>
        <path id="Trazado_901826" data-name="Trazado 901826" d="M188.886,96.838c0-1.045.035-1.861-.007-2.674a3.713,3.713,0,0,0-2.525-3.559,6.9,6.9,0,0,1-.91-.358c-1.588-.881-3.016-1.221-4.217.682-.537.851-1.393.621-1.946-.11-1-1.319-2-1.459-3.612-.839-3.6,1.389-4.235,2.395-3.875,6.781a4.607,4.607,0,0,1,1.371.13,4.153,4.153,0,0,1,1.015.866c-.326.353-.6.932-.987,1.011a5.949,5.949,0,0,1-2.427,0,1.573,1.573,0,0,1-1-1.089,24.464,24.464,0,0,1,.055-4.524,5.128,5.128,0,0,1,3.194-4.186c1.078-.484,2.194-.882,3.288-1.33.355-.146.7-.327,1.38-.651-1.909-.856-2.122-2.912-3.955-3.607-1.413-.535-1.639-2.45-.86-3.827a4.143,4.143,0,0,0,.558-1.889c.07-4.787,3.657-7.814,8.36-6.995A6.647,6.647,0,0,1,187.2,76.93a4.968,4.968,0,0,0,.693,2.993,2.5,2.5,0,0,1-1.172,3.612,3.419,3.419,0,0,0-1.638,1.481,17.861,17.861,0,0,1-1.876,2.142c1.205.5,2.271.959,3.347,1.392,3.208,1.292,4.318,2.909,4.326,6.329,0,.858-.018,1.716,0,2.573a1.179,1.179,0,0,1-1.314,1.386c-4.289.008-8.578.033-12.865-.039a1.633,1.633,0,0,1-1.235-.959c-.158-.875.624-1,1.316-1q5.269-.01,10.538-.005h1.561m-6.718-18.853c-1.663.556-3.224,1.073-4.779,1.606a1.1,1.1,0,0,0-.589.354c-.641,1.125.175,4.136,1.3,4.917a4.331,4.331,0,0,0,4.805-.258c.9-.82,1.519-4.076.956-5.066a1.181,1.181,0,0,0-.252-.256c-.537-.485-1.076-.968-1.443-1.3m2.688-.108.368-.259a4.539,4.539,0,0,0-2.25-4.369,4.958,4.958,0,0,0-5.54.168,4.528,4.528,0,0,0-1.96,4.385c2.262-.163,4.285-.585,5.852-2.245.974-1.031,1.5-.891,2.149.386a15.35,15.35,0,0,0,1.382,1.935m-4.544,11.3,1.2-1.667h-2.454l1.258,1.667" transform="translate(-128.075 -53.242)" fill="#698d59"/>
        <path id="Trazado_901827" data-name="Trazado 901827" d="M98.2,157.579c1.184.487,2.218.92,3.257,1.337,3.327,1.334,4.419,2.936,4.423,6.512,0,.817-.012,1.634,0,2.45.015.909-.4,1.36-1.324,1.358-4.288-.007-8.577.025-12.864-.046a1.612,1.612,0,0,1-1.222-.949c-.137-.856.61-.99,1.323-.989q5.33.008,10.66,0h1.342a29.468,29.468,0,0,0-.026-3.388,3.31,3.31,0,0,0-2.178-2.74,8.924,8.924,0,0,1-1.128-.471c-1.649-.969-3.086-1.105-4.3.738-.538.817-1.337.553-1.839-.131-1.021-1.391-2.091-1.515-3.718-.852-3.4,1.387-4.219,2.144-3.8,6.856a4.114,4.114,0,0,1,1.382.035c.385.144.661.581.985.889-.331.345-.617.912-1,.988a6.008,6.008,0,0,1-2.429,0,1.57,1.57,0,0,1-.982-1.1,24.3,24.3,0,0,1,.042-4.4,5.319,5.319,0,0,1,3.555-4.455c1.31-.542,2.635-1.045,4.067-1.774-1.615-.779-1.716-2.842-3.5-3.5a2.533,2.533,0,0,1-1.123-3.727,4.27,4.27,0,0,0,.654-2.633,6.674,6.674,0,0,1,5.779-6.562c3.911-.406,6.973,1.6,7.795,5.126a6.74,6.74,0,0,1,.167,1.453,4.318,4.318,0,0,0,.658,2.635,2.573,2.573,0,0,1-1.149,3.727,3.392,3.392,0,0,0-1.628,1.473,17.275,17.275,0,0,1-1.88,2.145m-6.4-7.219c-.314,3.152.3,4.746,2.1,5.323s3.963.072,4.523-1.4a7.871,7.871,0,0,0,.44-3.916c-.135-.824-1.189-1.5-1.667-2.049l-5.395,2.037m8-2.1.411-.238a4.5,4.5,0,0,0-2.394-4.45,4.907,4.907,0,0,0-5.339.22,4.434,4.434,0,0,0-1.986,4.359,7.824,7.824,0,0,0,5.84-2.188c.983-1.015,1.5-.882,2.148.409a15.409,15.409,0,0,0,1.32,1.888m-4.512,11.31,1.281-1.625H94.057l1.228,1.625" transform="translate(-63.915 -106.397)" fill="#698d59"/>
        <path id="Trazado_901828" data-name="Trazado 901828" d="M92.7,16.5c-1.89-.842-2.076-2.909-3.917-3.589-1.375-.507-1.644-2.385-.968-3.72a5.518,5.518,0,0,0,.639-2.235,6.907,6.907,0,0,1,12.535-4.072,7.549,7.549,0,0,1,1.079,2.432c.4,1.53.04,3.152,1.041,4.665.691,1.044-.252,2.47-1.415,3.147a8.113,8.113,0,0,0-1.521,1.381,11.727,11.727,0,0,1-1.149,1.255c-.941.7-.617,1.045.258,1.369.955.355,1.9.735,2.844,1.122a5.667,5.667,0,0,1,3.783,5.6c.012,1.021-.017,2.042.007,3.063.024.986-.432,1.4-1.409,1.394-4.248-.017-8.5-.008-12.743-.007-.664,0-1.289-.121-1.312-.934-.025-.876.621-1.054,1.337-1.055q5.391-.006,10.782,0h1.261a28.647,28.647,0,0,0-.026-3.353,3.368,3.368,0,0,0-2.175-2.751,10.146,10.146,0,0,1-1.356-.556c-1.573-.976-2.877-.916-3.985.747a1.046,1.046,0,0,1-1.852.024c-1.14-1.57-2.345-1.5-4.066-.818-3.144,1.25-4.019,2.331-3.493,6.658a4.227,4.227,0,0,1,1.412.118c.376.167.853.63.854.962,0,.313-.529.841-.886.9a7.577,7.577,0,0,1-2.556-.007,1.438,1.438,0,0,1-.905-1.028,25.924,25.924,0,0,1,.072-4.645,5.114,5.114,0,0,1,3.16-4.079c1.074-.49,2.2-.873,3.292-1.318.358-.146.7-.335,1.379-.666M91.84,9.452c-.377,3.04.249,4.69,2.07,5.305,1.782.6,3.949.106,4.523-1.361a7.817,7.817,0,0,0,.456-3.914c-.133-.828-1.181-1.509-1.661-2.072L91.84,9.452m7.987-2.114.418-.267a4.526,4.526,0,0,0-2.427-4.423,4.906,4.906,0,0,0-5.333.249A4.545,4.545,0,0,0,90.494,7.26c2.285-.083,4.289-.556,5.866-2.2.975-1.019,1.5-.873,2.151.417a14.792,14.792,0,0,0,1.316,1.865m-3.175,9.681H94.067l1.254,1.6,1.331-1.6" transform="translate(-63.947 0)" fill="#698d59"/>
        <path id="Trazado_901829" data-name="Trazado 901829" d="M37.81,7.641a5.891,5.891,0,0,1-1.328.876,26.637,26.637,0,0,0-9.647,5.655,75.67,75.67,0,0,0-5.186,5.842c-.475.555-.906,1.209-1.685.692s-.41-1.186.011-1.8A31.311,31.311,0,0,1,36,6.6c1.062-.367,1.746-.1,1.813,1.043" transform="translate(-14.724 -4.864)" fill="#698d59"/>
        <path id="Trazado_901830" data-name="Trazado 901830" d="M163.808,6c1.083.41,2.053.73,2.984,1.139A31.552,31.552,0,0,1,180.455,18.5c.406.6.861,1.242.1,1.82s-1.264.019-1.685-.6A29.365,29.365,0,0,0,164.035,8.214c-.266-.095-.615-.184-.743-.389a1.536,1.536,0,0,1-.278-1.073c.092-.309.527-.515.794-.75" transform="translate(-123.017 -4.53)" fill="#698d59"/>
        <path id="Trazado_901831" data-name="Trazado 901831" d="M20.863,191.11a3.5,3.5,0,0,1,.825.707,29.619,29.619,0,0,0,11.961,10.407c.63.3,1.188.734.8,1.519s-1.05.577-1.685.271a31.347,31.347,0,0,1-12.681-11.052c-.622-.935-.347-1.8.781-1.851" transform="translate(-14.911 -144.241)" fill="#698d59"/>
        <path id="Trazado_901832" data-name="Trazado 901832" d="M177.717,204.812c-.266-.232-.674-.419-.738-.688a1.424,1.424,0,0,1,.233-1.083,3.069,3.069,0,0,1,1.036-.623,29.323,29.323,0,0,0,10.928-9.606c.139-.2.237-.5.427-.584a11.662,11.662,0,0,1,1.467-.413c.052.506.34,1.185.117,1.49a52.06,52.06,0,0,1-3.972,4.963,28.777,28.777,0,0,1-8.387,6.082c-.324.159-.667.278-1.111.461" transform="translate(-133.555 -144.774)" fill="#698d59"/>
      </g>
    </g>
  </g>
</svg>
