<svg xmlns="http://www.w3.org/2000/svg" xmlns:xlink="http://www.w3.org/1999/xlink" width="60" height="60" viewBox="0 0 60 60">
  <defs>
    <clipPath id="clip-path">
      <rect id="Rectángulo_402480" data-name="Rectángulo 402480" width="42.979" height="34.399" fill="#fff"/>
    </clipPath>
  </defs>
  <g id="Grupo_1102774" data-name="Grupo 1102774" transform="translate(-186.467 -3481.87)">
    <circle id="Elipse_11490" data-name="Elipse 11490" cx="30" cy="30" r="30" transform="translate(186.467 3481.87)" fill="#4635b1"/>
    <g id="Grupo_1102210" data-name="Grupo 1102210" transform="translate(194.977 3494.671)">
      <g id="Grupo_1102209" data-name="Grupo 1102209" clip-path="url(#clip-path)">
        <path id="Trazado_901833" data-name="Trazado 901833" d="M18.711,90.1a2.9,2.9,0,0,1,5.566,0H37.324a2.944,2.944,0,0,1,1.955-1.971A2.889,2.889,0,0,1,42.8,89.821a2.816,2.816,0,0,1-1.465,3.606,2.752,2.752,0,0,1-3.725-1.275.924.924,0,0,0-1.023-.587q-5.729.02-11.458,0a1.036,1.036,0,0,0-1.154.667A2.54,2.54,0,0,1,21.5,93.695a2.541,2.541,0,0,1-2.476-1.465,1.036,1.036,0,0,0-1.153-.669c-3.819.02-7.639.012-11.458.008-.421,0-.744-.007-.982.5A2.688,2.688,0,0,1,2.168,93.6,2.83,2.83,0,0,1,2.3,88.07a2.794,2.794,0,0,1,3.17,1.594c.066.132.122.269.2.435Zm-14.429.723A1.409,1.409,0,1,0,2.9,92.277a1.4,1.4,0,0,0,1.377-1.456m15.8.012a1.409,1.409,0,1,0,1.428-1.4,1.4,1.4,0,0,0-1.428,1.4m20.023,1.444a1.424,1.424,0,1,0-1.4-1.432,1.4,1.4,0,0,0,1.4,1.432" transform="translate(-0.007 -72.247)" fill="#fff"/>
        <path id="Trazado_901834" data-name="Trazado 901834" d="M83.486,5.8a5.732,5.732,0,0,1-11.462-.046A5.731,5.731,0,1,1,83.486,5.8m-1.468-.113a4.264,4.264,0,1,0-8.528.044,4.264,4.264,0,1,0,8.528-.044" transform="translate(-59.132 0)" fill="#fff"/>
        <path id="Trazado_901835" data-name="Trazado 901835" d="M5.77,123.946a5.748,5.748,0,0,1,5.691,5.705,5.652,5.652,0,0,1-5.725,5.736A5.658,5.658,0,0,1,0,129.573a5.751,5.751,0,0,1,5.77-5.627M5.759,133.97a4.291,4.291,0,0,0-.057-8.581,4.291,4.291,0,0,0,.057,8.581" transform="translate(0.001 -101.76)" fill="#fff"/>
        <path id="Trazado_901836" data-name="Trazado 901836" d="M181.817,123.946a5.749,5.749,0,0,1,5.7,5.7,5.731,5.731,0,1,1-11.462-.059,5.751,5.751,0,0,1,5.761-5.637m-.045,10.025a4.291,4.291,0,1,0-4.249-4.352,4.219,4.219,0,0,0,4.249,4.352" transform="translate(-144.543 -101.76)" fill="#fff"/>
        <path id="Trazado_901837" data-name="Trazado 901837" d="M147.821,17.271a26.524,26.524,0,0,1-2.674-.032,1.144,1.144,0,0,1-.833-.665c-.1-.538.338-.744.859-.742,1.785.006,3.571-.029,5.354.033a1.116,1.116,0,0,1,.831.665c.1.537-.338.748-.859.743-.892-.008-1.785,0-2.678,0" transform="translate(-118.469 -12.994)" fill="#fff"/>
        <path id="Trazado_901838" data-name="Trazado 901838" d="M75.281,137.308a17.758,17.758,0,0,1-2.316-.033c-.3-.04-.559-.451-.836-.694.283-.236.558-.664.851-.676,1.573-.067,3.153-.068,4.726,0,.287.013.556.451.833.694-.283.236-.546.639-.854.677a19.793,19.793,0,0,1-2.405.032" transform="translate(-59.219 -111.536)" fill="#fff"/>
        <path id="Trazado_901839" data-name="Trazado 901839" d="M138.936,169.359a10.524,10.524,0,0,1-1.868-.031c-.349-.064-.643-.436-.961-.669.305-.246.6-.684.918-.7,1.274-.082,2.555-.027,3.834-.038.507,0,.928.135.936.7.009.629-.451.754-.986.742-.624-.013-1.249,0-1.873,0" transform="translate(-111.744 -137.854)" fill="#fff"/>
        <path id="Trazado_901840" data-name="Trazado 901840" d="M138.985,185.324a11.133,11.133,0,0,1-1.957-.033c-.339-.061-.616-.46-.922-.706.289-.233.568-.649.869-.666a36.04,36.04,0,0,1,4.011,0c.286.016.549.458.822.7-.287.233-.549.615-.866.667a12.106,12.106,0,0,1-1.958.032" transform="translate(-111.744 -150.954)" fill="#fff"/>
        <path id="Trazado_901841" data-name="Trazado 901841" d="M146.881,33.235a12.367,12.367,0,0,1-1.963-.032c-.284-.046-.512-.441-.766-.678.25-.24.489-.675.751-.688a37.886,37.886,0,0,1,4.023,0c.252.014.609.441.669.729.035.169-.4.6-.66.635a15.36,15.36,0,0,1-2.054.032" transform="translate(-118.349 -26.095)" fill="#fff"/>
        <path id="Trazado_901842" data-name="Trazado 901842" d="M73.928,153.215a3.045,3.045,0,0,1-1.058-.028c-.294-.117-.5-.461-.743-.705.255-.233.487-.625.771-.667a6.89,6.89,0,0,1,2.038,0c.275.042.493.454.737.7a3.176,3.176,0,0,1-.776.675,2.7,2.7,0,0,1-.969.024" transform="translate(-59.216 -124.58)" fill="#fff"/>
        <path id="Trazado_901843" data-name="Trazado 901843" d="M90.727,29.964a4.4,4.4,0,0,1-1.077.616,1.026,1.026,0,0,1-.888-.222.917.917,0,0,1,.123-.9,16.526,16.526,0,0,1,2.209-1.5.645.645,0,0,1,1.035.547,18.911,18.911,0,0,1-.008,2.938c-.019.243-.483.672-.651.632a1.164,1.164,0,0,1-.712-.695,5.4,5.4,0,0,1-.03-1.424" transform="translate(-72.819 -22.859)" fill="#fff"/>
        <path id="Trazado_901844" data-name="Trazado 901844" d="M27.593,142.185a4.01,4.01,0,0,1,.028-1.232c.1-.27.45-.619.686-.616s.5.372.69.628a.8.8,0,0,1,.019.523,2.246,2.246,0,0,0,.946,2.308c.425.328.754.773.246,1.27s-.907.082-1.274-.284c-.771-.768-1.766-1.426-1.341-2.6" transform="translate(-22.57 -115.217)" fill="#fff"/>
        <path id="Trazado_901845" data-name="Trazado 901845" d="M205.3,153.051a5.217,5.217,0,0,1-.032,1.42,1.144,1.144,0,0,1-.735.669c-.17.034-.6-.4-.63-.66a6.809,6.809,0,0,1,.013-2.128,1.146,1.146,0,0,1,.891-.687c.871.112,1.957-.594,2.565.523.074.137-.333.717-.618.825a4.647,4.647,0,0,1-1.454.037" transform="translate(-167.345 -124.421)" fill="#fff"/>
      </g>
    </g>
  </g>
</svg>
