<svg xmlns="http://www.w3.org/2000/svg" xmlns:xlink="http://www.w3.org/1999/xlink" width="492.94" height="450.498" viewBox="0 0 492.94 450.498">
  <defs>
    <clipPath id="clip-path">
      <rect id="Rectángulo_402530" data-name="Rectángulo 402530" width="492.94" height="450.498" rx="30" transform="translate(923.038 5447.611)" fill="#ffedcc"/>
    </clipPath>
    <clipPath id="clip-path-2">
      <rect id="Rectángulo_402529" data-name="Rectángulo 402529" width="755.875" height="381.053" fill="none"/>
    </clipPath>
  </defs>
  <g id="Enmascarar_grupo_1098737" data-name="Enmascarar grupo 1098737" transform="translate(-923.038 -5447.611)" clip-path="url(#clip-path)">
    <g id="Grupo_1102260" data-name="Grupo 1102260" transform="translate(754.125 5515.566)">
      <rect id="Rectángulo_402527" data-name="Rectángulo 402527" width="98.191" height="134.084" transform="translate(138.432 244.812)" fill="#ddd5c8"/>
      <rect id="Rectángulo_402528" data-name="Rectángulo 402528" width="76.278" height="134.09" transform="translate(236.623 244.812)" fill="#f4f1ed"/>
      <path id="Trazado_902175" data-name="Trazado 902175" d="M446.8,451.533l-32.172,66.236H316.888l50.958-65.994Z" transform="translate(-185.219 -263.919)" fill="#9c865f"/>
      <path id="Trazado_902176" data-name="Trazado 902176" d="M456.085,451.533l-32.172,66.236H326.172l50.958-65.994Z" transform="translate(-190.646 -263.919)" fill="#ddd5c8"/>
      <g id="Grupo_1102259" data-name="Grupo 1102259">
        <g id="Grupo_1102258" data-name="Grupo 1102258" clip-path="url(#clip-path-2)">
          <path id="Trazado_902177" data-name="Trazado 902177" d="M430.274,531.239h-2.053a12.626,12.626,0,0,0-12.627,12.627v32.087h26.9v-32.5a12.217,12.217,0,0,0-12.217-12.216" transform="translate(-242.912 -310.506)" fill="#cbbfab"/>
          <path id="Trazado_902178" data-name="Trazado 902178" d="M580.063,521.443H491.342L438.9,451.53l29.52.006,57.671.01Z" transform="translate(-256.536 -263.917)" fill="#9c865f"/>
          <path id="Trazado_902179" data-name="Trazado 902179" d="M621.589,521.451H605.332l-95.383-69.906,57.671.01Z" transform="translate(-298.062 -263.925)" fill="#856a3a"/>
          <path id="Trazado_902180" data-name="Trazado 902180" d="M293.061,655.469l-22.905,47.157H200.569l36.28-46.985Z" transform="translate(-117.231 -383.118)" fill="#9c865f"/>
          <path id="Trazado_902181" data-name="Trazado 902181" d="M298.079,655.469l-22.9,47.157H205.588l36.279-46.985Z" transform="translate(-120.165 -383.118)" fill="#ddd5c8"/>
          <path id="Trazado_902182" data-name="Trazado 902182" d="M275.024,768.961v50.5H251.987c-.771-.114-1.163-.191-1.163-.191a87.834,87.834,0,0,1-25.665-4.771,73.433,73.433,0,0,1-19.567-10.037v-35.5Z" transform="translate(-120.167 -449.453)" fill="#ddd5c8"/>
          <path id="Trazado_902183" data-name="Trazado 902183" d="M431.493,768.961v41.053q-6.3,1.835-12.176,3.278a251.5,251.5,0,0,1-35.1,6.172H372.7v-50.5Z" transform="translate(-217.839 -449.453)" fill="#f4f1ed"/>
          <path id="Trazado_902184" data-name="Trazado 902184" d="M388.38,705.655H325.217l-37.336-49.774,18.815,0,43.264.009Z" transform="translate(-168.265 -383.358)" fill="#9c865f"/>
          <path id="Trazado_902185" data-name="Trazado 902185" d="M281.937,773.922v40.034h-2.424c-.771-.114-1.163-.191-1.163-.191a87.83,87.83,0,0,1-25.665-4.771V774.4a14.869,14.869,0,0,1,14.868-14.868,14.389,14.389,0,0,1,14.384,14.385" transform="translate(-147.693 -443.945)" fill="#cbbfab"/>
          <path id="Trazado_902186" data-name="Trazado 902186" d="M279.982,714.271a3.283,3.283,0,1,1,3.283,3.283,3.283,3.283,0,0,1-3.283-3.283" transform="translate(-163.648 -415.569)" fill="#cbbfab"/>
          <path id="Trazado_902187" data-name="Trazado 902187" d="M414.847,705.659H402.859l-69.7-49.771,43.264.009Z" transform="translate(-194.731 -383.363)" fill="#856a3a"/>
          <path id="Trazado_902188" data-name="Trazado 902188" d="M575.832,815.622c-50.4-14.941-111.49-28.675-161.676-16.656s-69.468,28.236-124.581-9.074a79.2,79.2,0,0,0-13.937-7.689c9.73-1.764,22.734-4.845,16.97-7.962-6.009-3.25-16.065,2.306-21.878,6.189q-2.182-.668-4.27-1.092c13.278-9.507,36.827-27.491,25.872-28.095-10.807-.6-23.87,17.448-30.247,27.433q-1.64-.159-3.234-.186c-.565-5.187-2.641-14.376-10.267-14.949-7.8-.585,1.41,9.546,6.922,15.036-29.673,1.974-49.758,35.66-112.063,14.4-9.57-3.266-19.452-3.068-28.764-1.053-5.859-12.943-23.256-48.145-37.643-44.483-14.372,3.659,21.226,34.141,34.736,45.175q-2.413.624-4.759,1.391c-8.18-6.031-23.52-15.781-32.284-11.5-8.566,4.184,12.909,10.171,26.887,13.449a124.537,124.537,0,0,0-32.535,19.627Z" transform="translate(-40.378 -436.721)" fill="#538040"/>
          <path id="Trazado_902189" data-name="Trazado 902189" d="M1649.606,820.4h-58.619c-3.168-2.658,2.148-8.721,7.713-9.134a34.136,34.136,0,0,1,8.947,1.057c.808-10.719,5.418-58.868,22.772-56.937,19.518,2.173,0,21.209-5.517,32.482-4.087,8.346-8.4,20.326-10.367,25.981,1.584.344,3.222.687,4.9.992,2.58-7.946,12.208-34.67,24.454-33.114,14.377,1.821,8.595,12.535-1.589,18.9-7.481,4.675-16.664,11.327-21.024,14.536a62.378,62.378,0,0,0,11.474.914c10.065-.237,14.969,2.736,16.855,4.324" transform="translate(-929.368 -441.488)" fill="#538040"/>
          <path id="Trazado_902190" data-name="Trazado 902190" d="M981.685,119.457s13.95,6.6,17.12,5.768,15.212-2.958,16.9-2.209c0,0,1.917,3.059.471,5.071s-13.164,7.455-17.4,7.652-20.3-2.713-23.705-5.376Z" transform="translate(-569.928 -69.822)" fill="#947d53"/>
          <path id="Trazado_902191" data-name="Trazado 902191" d="M1070.9,126.875s5.379-2.232,7.141.262,2.759,5.021,2.541,6.3-3.851,1.841-5.3.847a35.269,35.269,0,0,0-5.049-2.382Z" transform="translate(-625.543 -73.621)" fill="#947d53"/>
          <path id="Trazado_902192" data-name="Trazado 902192" d="M1129.457,875.948a22.716,22.716,0,0,0-3.034,10.379,2.235,2.235,0,0,0,2.239,2.251h18.512a2.752,2.752,0,0,0,2.673-3.424c-.862-3.39-2.707-8.512-6.4-11.621-5.9-4.96-13.986,2.415-13.986,2.415" transform="translate(-658.388 -509.573)" fill="#663686"/>
          <path id="Trazado_902193" data-name="Trazado 902193" d="M1003.608,862.156s-1.064,17.164-4.385,17.41c-.441.033-16.843.033-16.843.033H961.224s.356-5.166,6.476-6.232,16.363-5.368,20.071-13.456c3.9-8.51,15.837,2.245,15.837,2.245" transform="translate(-561.83 -500.698)" fill="#663686"/>
          <path id="Trazado_902194" data-name="Trazado 902194" d="M1026.633,487.458c-.74,9.536-.836,17.063.142,20.631,4.367,15.964-7.868,88.047-7.868,88.047-9.02,4.314-21.829-.046-21.829-.046.778-9.985-3.969-99.372-8.386-153.9-1.85-22.894-3.237-38.913-3.237-38.913l54.033-6.29s-10.3,57.356-12.854,90.473" transform="translate(-575.992 -232.036)" fill="#764b93"/>
          <path id="Trazado_902195" data-name="Trazado 902195" d="M1039.487,396.985s-10.295,57.356-12.854,90.473l-37.942-45.27c-1.849-22.894-3.237-38.912-3.237-38.912Z" transform="translate(-575.992 -232.036)" fill="#6b3c8a"/>
          <path id="Trazado_902196" data-name="Trazado 902196" d="M1051.7,416.153s27.352,159.262,32.057,190.1a34.554,34.554,0,0,0,20.7-1.571s1.352-74.006-2.228-96.3,1.908-91.212-3.864-97.622-46.669,5.393-46.669,5.393" transform="translate(-614.715 -238.972)" fill="#764b93"/>
          <path id="Trazado_902197" data-name="Trazado 902197" d="M1056.5,98.011s-2.1,14.153-1.179,18.381,14.981,6.525,20.862,3.032,4.114-4.79,4.114-4.79-.9-16.2-1.724-17.359-22.073.735-22.073.735" transform="translate(-616.691 -56.639)" fill="#b7a78a"/>
          <path id="Trazado_902198" data-name="Trazado 902198" d="M1005.271,206.753c1.861-17.782,1.384-31.162-.37-41.229-5.136-29.543-21.23-30.527-21.23-30.336,0,3.976-8.553,7.645-15.451,7.193-5.815-.381-9.587-4.8-9.587-7.193,0-.02-.109-.018-.3,0a101.96,101.96,0,0,0-14.923,1.269c-4.729.816-9.256,2.159-11.382,4.374-1.1,1.141-5.01,4.34-10.036,8.687-12.8,11.07-32.819,29.6-31.933,40.644,0,0,24.742,18.17,40.423,6.781-.854,29.568-6.22,60.887-4.9,60.864,0,0,8.74,7.569,35.295,7.569,14.519,0,25.019-1.243,32.3-2.682,9.925-1.958,13.877-4.271,13.877-4.271,2.212-.033-2.418-45.532-1.776-51.67" transform="translate(-520.215 -79.007)" fill="#9b855d"/>
          <path id="Trazado_902199" data-name="Trazado 902199" d="M1092.987,291.332s-3.952,2.313-13.877,4.271c-13.72-6.077-40.952-21.783-42.017-48.156-1.411-35.082,41.418-55.972,41.418-55.972s5.746,3.193,12.33,6.959c1.754,10.066,2.231,23.447.37,41.228-.642,6.138,3.987,51.637,1.776,51.67" transform="translate(-606.155 -111.916)" fill="#806432"/>
          <path id="Trazado_902200" data-name="Trazado 902200" d="M1057.949,103.41s5.454,7.687,11.221,7.757,11.655-7.636,11.655-7.636Z" transform="translate(-618.365 -60.443)" fill="#947d53"/>
          <path id="Trazado_902201" data-name="Trazado 902201" d="M1052.221,59.373a36.969,36.969,0,0,0,7.644,3.914,9.447,9.447,0,0,0,6.537.138,86.64,86.64,0,0,0,9.222-3.549c2.888-1.751,2.7-5.294,2.85-10.221.177-5.831.765-10.411.114-13.773-.773-4.022-3.324-6.31-10.462-6.932-13.1-1.137-18.564,2.144-18.793,6.538-.059,1.18-.114,2.305-.152,3.371-.525,13.7.558,18.561,3.04,20.514" transform="translate(-613.164 -16.789)" fill="#b7a78a"/>
          <path id="Trazado_902202" data-name="Trazado 902202" d="M1044.218,20.319A5.506,5.506,0,0,1,1050.4,18.4c4.034,1.241,4.447,4.687,11.34,4.136s8.547-3.814,9.789-2.183,1.958,11.268,1.958,11.268,13.859-31.6-14.231-31.6c0,0-28.947-1.748-15.034,30.372Z" transform="translate(-608.128 0)" fill="#6e408d"/>
          <path id="Trazado_902203" data-name="Trazado 902203" d="M926.7,120.931l.037.022c-.032.016-.037-.022-.037-.022" transform="translate(-541.653 -70.683)" fill="#b7a78a"/>
          <path id="Trazado_902204" data-name="Trazado 902204" d="M1003.422,298.254a15.8,15.8,0,0,1-9.051,2.9s-5.484-6.044-10.1-11.889c-2.992-3.786-5.62-7.489-6.163-9.412-1.379-4.892-27.178-6.27-30.338-9.717s12.818-12.092,12.818-12.092,26.191,4.006,30.128,9.151c1.566,2.048,3.9,7.387,6.14,13.072,3.389,8.6,6.57,17.993,6.57,17.993" transform="translate(-553.721 -150.822)" fill="#947d53"/>
          <path id="Trazado_902205" data-name="Trazado 902205" d="M994.072,168.851s4.964-9.637,7.416-9.357-5.636,19.948-6.371,29.506-1.045-20.15-1.045-20.15" transform="translate(-581.03 -93.22)" fill="#806432"/>
          <path id="Trazado_902206" data-name="Trazado 902206" d="M954.766,289.658a145.6,145.6,0,0,1-8.476,16.9c-.039.066-.061.1-.061.1h-.08c-.835-.008-8.025-.165-8.729-3.052,0,0-.232-9.992.165-17.93a42.065,42.065,0,0,1,.987-8.338s-39-.262-38.314-11.293,21.074-16.869,32.794-11.148c0,0,15.542,5.647,23.723,13.108,4.017,3.664,1.547,13.049-2.01,21.652" transform="translate(-526.191 -147.682)" fill="#b7a78a"/>
          <path id="Trazado_902207" data-name="Trazado 902207" d="M897.213,247.636s-5.192,7.632-3.975,14.753,16.033,10.926,26.4,11.379c0,0,29.652-6.8,25.054-18.617-1.043-2.68-47.48-7.515-47.48-7.515" transform="translate(-521.984 -144.742)" fill="#764b93"/>
          <path id="Trazado_902208" data-name="Trazado 902208" d="M894.42,13.961s-4.71-9.64-16.085-3.745-.3,28.1-6.271,33.653,2.164,9.185.952,13.165,2.25,8.507,10.211,7.974,16.343-.1,19.939-7.067,2.779-22.289,1.389-24.442S894.42,13.961,894.42,13.961" transform="translate(-508.423 -4.856)" fill="#4635b1"/>
          <path id="Trazado_902209" data-name="Trazado 902209" d="M946.137,115.014l-19.343-11.672c.108-.042.5-.627,1.945-4.81a23.414,23.414,0,0,0,1.1-4.559c.015-.123.031-.241.043-.359a12.511,12.511,0,0,0,.053-2.812l4.237,1.532,7.837,2.839a9.7,9.7,0,0,0,.611,4.344,3.487,3.487,0,0,0,2.984,2.346Z" transform="translate(-541.706 -53.073)" fill="#b7a78a"/>
          <path id="Trazado_902210" data-name="Trazado 902210" d="M946.617,101.673a14.528,14.528,0,0,1-12.781-5.545c-.14-.182-.209-.283-.209-.283l.252-.076c.616-.182,2.287-.686,4.29-1.28l7.837,2.839a9.711,9.711,0,0,0,.61,4.344" transform="translate(-545.7 -55.229)" fill="#9b855d"/>
          <path id="Trazado_902211" data-name="Trazado 902211" d="M941.006,66.852s-16.828,1.849-17.172-9.53-2.833-16.586,8.81-17.6,14.393,3.18,15.079,7.03c2.144,12.026-1.977,19.589-6.717,20.1" transform="translate(-539.709 -23.128)" fill="#b7a78a"/>
          <path id="Trazado_902212" data-name="Trazado 902212" d="M923.065,31.355c-5.954-1.507-3.678,9.042-5.183,8.32-1.683-.808-4.576-.8-4.119,1.237s1.115,2.76,1.459,4.029,0,3.782-1.387,3.275-14.262-15.21-5.169-26.664,36.2-4.4,27.666,7.583c-1.5,2.107-9.028,3.294-13.267,2.221" transform="translate(-529.225 -9.202)" fill="#4635b1"/>
          <path id="Trazado_902213" data-name="Trazado 902213" d="M940.606,174.287a28.964,28.964,0,0,1-13.017,2.557c-5.071-.076-15.842-2.281-22.765-4.78-3.946-1.42-6.644-2.939-6.319-4.214.467-1.837,3.847-15.941,6.97-28.993,2.856-11.934,5.5-22.988,5.5-22.988s7.88,5.6,12.474,3.625,4-4.21,4-4.21a55.941,55.941,0,0,1,6.879-.492c2.344.275,10.62,3.294,10.62,3.294s1.088,3.057-1.8,7.828c-2.389,3.951-4.714,4.718-4.714,4.718s6.764,21.323,2.17,43.655" transform="translate(-525.155 -67.079)" fill="#b39bc3"/>
          <path id="Trazado_902214" data-name="Trazado 902214" d="M937.823,211.752s4.86-.907,6.761.337,2.463,3.192,1.094,3.987c-4.289,2.493-8.638-.263-8.638-.263Z" transform="translate(-547.695 -123.581)" fill="#b7a78a"/>
          <path id="Trazado_902215" data-name="Trazado 902215" d="M904.824,202.154c-3.946-1.42-6.644-2.939-6.319-4.214.467-1.837,3.847-15.941,6.97-28.992.923-1.692,1.508-2.7,1.508-2.7s5.925,27.09-2.159,35.909" transform="translate(-525.155 -97.169)" fill="#9d7eb2"/>
          <path id="Trazado_902216" data-name="Trazado 902216" d="M899.35,121.087s-14.969,3.169-20.872,26.44a7.054,7.054,0,0,0,1.593,6.452c2.714,3.008,8.7,7.408,22.614,9.028,1.52.177,1.724-3.678,1.724-3.678-.151.307-9.453-6.01-13.412-9.405a2.185,2.185,0,0,1-.169-2.692,63.276,63.276,0,0,0,4.337-7.383c1.1-2.642,8.369-17.562,4.185-18.762" transform="translate(-513.339 -70.775)" fill="#b7a78a"/>
          <path id="Trazado_902217" data-name="Trazado 902217" d="M906.073,117.424s-8.8.626-15.977,10.194c0,0,2.429,8.8,13.828,11.151,0,0,7.026-15.848,2.148-21.346" transform="translate(-520.256 -68.634)" fill="#b39bc3"/>
          <path id="Trazado_902218" data-name="Trazado 902218" d="M1006.96,336.094a145.6,145.6,0,0,1-8.476,16.9c-.047.032-.094.066-.141.1-.835-.008-8.026-.165-8.729-3.052,0,0-.232-9.992.165-17.93,1.144,1.1,5.561,4.373,17.18,3.982" transform="translate(-578.385 -194.118)" fill="#f4f0f6"/>
          <path id="Trazado_902219" data-name="Trazado 902219" d="M1055.35,329.515a15.8,15.8,0,0,1-9.051,2.9s-5.484-6.044-10.1-11.889c5.2-2.247,10.691-7.2,12.586-9,3.389,8.6,6.57,17.993,6.57,17.993" transform="translate(-605.649 -182.082)" fill="#f4f0f6"/>
          <path id="Trazado_902220" data-name="Trazado 902220" d="M1004.744,387.994a1.654,1.654,0,0,1-1.964,1.311,76.227,76.227,0,0,1-7.668-1.859c-2.291-.834-6.687-3.431-8.979-4.265-.787-.286-2.681-1.051-3.905-1.549a1.366,1.366,0,0,1-.8-1.648,28.943,28.943,0,0,1,2.312-5.768,2.1,2.1,0,0,1,.956-.848,8.9,8.9,0,0,0,5.571,2.013,12.2,12.2,0,0,0,5.026-1.058c.156.319,3.282,6.623,5.5,7.428,1.992.724,4.6,2.626,3.955,6.243" transform="translate(-573.608 -218.232)" fill="#4635b1"/>
          <path id="Trazado_902221" data-name="Trazado 902221" d="M1081.128,348.141a1.654,1.654,0,0,1-.73,2.246,76.138,76.138,0,0,1-7.171,3.288c-2.316.765-7.375,1.449-9.691,2.213-.8.263-2.756.836-4.026,1.2a1.366,1.366,0,0,1-1.648-.8,28.98,28.98,0,0,1-1.757-5.961,2.1,2.1,0,0,1,.226-1.258,8.9,8.9,0,0,0,5.621-1.869,12.2,12.2,0,0,0,3.29-3.943c.32.154,6.678,3.167,8.914,2.428,2.013-.664,5.238-.786,6.972,2.452" transform="translate(-617.275 -200.634)" fill="#4635b1"/>
          <path id="Trazado_902222" data-name="Trazado 902222" d="M946,279.773s-1.122,6.5-5.352,9.5c0,0-17.175-2.363-33.163-6.407-11.754-2.973-22.871-6.852-26.05-11.372-7.511-10.659,3.929-23.634,3.929-23.634s22.05,10.64,45.921,23.676c4.889,2.669,9.849,5.44,14.716,8.239" transform="translate(-513.702 -144.872)" fill="#9b855d"/>
          <path id="Trazado_902223" data-name="Trazado 902223" d="M963.431,347.524s-5.1.414-7.031,2.345-4.854,7.543-2.772,9.769,12.008-2.652,12.284-3.453-2.481-8.66-2.481-8.66" transform="translate(-556.971 -203.126)" fill="#b7a78a"/>
          <path id="Trazado_902224" data-name="Trazado 902224" d="M986.24,313.079s-1.122,6.5-5.352,9.5c0,0-17.175-2.363-33.163-6.407,7.516-6.535,17.337-9.789,23.8-11.33,4.889,2.669,9.849,5.44,14.716,8.239" transform="translate(-553.94 -178.177)" fill="#806432"/>
          <path id="Trazado_902225" data-name="Trazado 902225" d="M1060.39,143.924c-3.433-8.154-26.014-8.466-26.014-8.466-11.489,30.147-14.25,49.918-17.287,62.625a6.443,6.443,0,0,0-1.374,0s-16.138,6.3-40.125,23.717c0,0-2.509,6.878,2,12.51,0,0,41.332-9.123,52.877-15.889l.019,0,.344-.221q.263-.162.5-.323c37.543-24.394,33.972-62.288,29.062-73.956" transform="translate(-569.819 -79.174)" fill="#9b855d"/>
          <path id="Trazado_902226" data-name="Trazado 902226" d="M937.678,503.954a15.892,15.892,0,0,1,9.959,17.352s-1.07,5.417-4.407,3.015-1.772-1.959-6.537-5.245-7.874-8.465-7.332-12.58Z" transform="translate(-543.171 -294.558)" fill="#b7a78a"/>
          <path id="Trazado_902227" data-name="Trazado 902227" d="M850.179,378.453l-6.864,8.328a1.378,1.378,0,0,1-1.319.475c-6.435-1.182-28.58-15.456-35.834-21.28a21.562,21.562,0,0,1-1.794-1.569c-2.7-2.755-12.031-16.352-18.651-28.461-3.811-6.974-6.724-13.454-6.956-17.086-.825-12.963,5.994-31.09,5.994-31.09,20.171,7.019,22.293,23.125,22.293,23.125l11.183,41.618L849.9,376.187a1.577,1.577,0,0,1,.274,2.267" transform="translate(-455.141 -168.201)" fill="#b39bc3"/>
          <path id="Trazado_902228" data-name="Trazado 902228" d="M815.54,407.044a21.535,21.535,0,0,1-1.794-1.569c-2.7-2.755-12.031-16.353-18.651-28.461-.857-7.318-.269-14.183,2.747-18.982,0,0,17.147,30.172,17.7,49.011" transform="translate(-464.519 -209.268)" fill="#9d7eb2"/>
          <path id="Trazado_902229" data-name="Trazado 902229" d="M778.372,754.737l-3.429,14.3-2.122,8.851-7.064,29.461a23.7,23.7,0,0,1-12.332,0,107.487,107.487,0,0,1-2.395-21.909,73.552,73.552,0,0,1,2.406-20.011,46.023,46.023,0,0,1,2.944-7.825c9.967-20.357,21.992-2.867,21.992-2.867" transform="translate(-438.972 -437.054)" fill="#b7a78a"/>
          <path id="Trazado_902230" data-name="Trazado 902230" d="M784.1,895.108H750.9a28.223,28.223,0,0,1,.937-9.829,16.97,16.97,0,0,1,.789-2.11s7.412,1.68,13.8,0c0,0,6.01,5.118,9.643,6.686s7.644.717,8.028,5.253" transform="translate(-438.841 -516.207)" fill="#764b93"/>
          <path id="Trazado_902231" data-name="Trazado 902231" d="M774.942,791.056l-2.122,8.851a51.156,51.156,0,0,1-21.791,7.553,73.534,73.534,0,0,1,2.406-20.011c3.053-1.549,6.161-2.359,8.808-1.9,6.589,1.15,10.506,3.558,12.7,5.505" transform="translate(-438.972 -459.075)" fill="#947d53"/>
          <path id="Trazado_902232" data-name="Trazado 902232" d="M766.852,898.076H750.9a28.224,28.224,0,0,1,.937-9.829c4.006,1.248,12.157,4.375,15.018,9.829" transform="translate(-438.841 -519.175)" fill="#6b3c8a"/>
          <path id="Trazado_902233" data-name="Trazado 902233" d="M714.679,754.737l-3.43,14.3-2.122,8.851-7.064,29.461a23.7,23.7,0,0,1-12.332,0,107.481,107.481,0,0,1-2.395-21.909,73.543,73.543,0,0,1,2.406-20.011,46.014,46.014,0,0,1,2.945-7.825c9.967-20.357,21.992-2.867,21.992-2.867" transform="translate(-401.743 -437.054)" fill="#b7a78a"/>
          <path id="Trazado_902234" data-name="Trazado 902234" d="M688.927,883.166s7.411,1.682,13.8,0c0,0,6.01,5.12,9.642,6.689s7.646.716,8.028,5.252H687.2s-.693-6.627,1.726-11.941" transform="translate(-401.612 -516.206)" fill="#764b93"/>
          <path id="Trazado_902235" data-name="Trazado 902235" d="M711.25,791.056l-2.122,8.851a51.16,51.16,0,0,1-21.791,7.553,73.512,73.512,0,0,1,2.406-20.011c3.053-1.549,6.162-2.359,8.808-1.9,6.589,1.15,10.506,3.558,12.7,5.505" transform="translate(-401.743 -459.075)" fill="#947d53"/>
          <path id="Trazado_902236" data-name="Trazado 902236" d="M731.86,621.153a6.764,6.764,0,0,1-6.532,5H672.1a6.875,6.875,0,0,1-6.858-7.4c.558-7.251,2.554-19.093,3.426-27.09a35.908,35.908,0,0,0,.318-7.369c-5.373-35.554-9.884-77.432-9.336-85.438.078-1.127.132-1.709.132-1.709s3.877-.327,9.775-.556c17.143-.677,51.364-.559,57.049,10.652,5.792,11.42,9.29,87.247,9.29,87.247.846,7.085-2.144,19.686-4.031,26.669" transform="translate(-385.533 -290.118)" fill="#5c4dba"/>
          <path id="Trazado_902237" data-name="Trazado 902237" d="M668.663,591.98a35.932,35.932,0,0,0,.318-7.368c-5.373-35.554-9.884-77.433-9.336-85.438.077-1.127.131-1.709.131-1.709s3.877-.327,9.775-.556c8.868,5.224,14.64,14.124,14.64,14.124s-1.786,66.534-15.529,80.948" transform="translate(-385.533 -290.441)" fill="#4837b2"/>
          <path id="Trazado_902238" data-name="Trazado 902238" d="M751.508,145.506c-4.252-1.064-6.723,2.287-6.723,6.232a7.144,7.144,0,0,0,7.144,7.144c3.946,0,7.144-4.571,7.144-8.517s-3.738-3.9-7.565-4.859" transform="translate(-435.323 -84.931)" fill="#4837b2"/>
          <path id="Trazado_902239" data-name="Trazado 902239" d="M740.914,193.908s-22.153-19.952-2.1-34.076c0,0,5.985-1.6,9.027-1.025,0,0,10.9-3.189,17.28,4.215s9.151,12.758,3.683,19.364-27.892,11.522-27.892,11.522" transform="translate(-426.924 -92.422)" fill="#5c4dba"/>
          <path id="Trazado_902240" data-name="Trazado 902240" d="M678.1,528.609a15.892,15.892,0,0,1-5.044,19.36s-4.558,3.118-5.257-.934.107-2.64-.993-8.322.308-11.557,3.576-14.114Z" transform="translate(-389.528 -306.625)" fill="#b7a78a"/>
          <path id="Trazado_902241" data-name="Trazado 902241" d="M763.5,236.754s-.272,2.987-.779,7.025c-.247,1.973-.549,4.2-.9,6.446-.252,1.614-.533,3.243-.839,4.8l-6.859,23.164-16.105-26.063s3.785-3.131,8.914-20.1c.049-.18.084-.278.084-.278Z" transform="translate(-431.366 -135.454)" fill="#b7a78a"/>
          <path id="Trazado_902242" data-name="Trazado 902242" d="M722.075,379.7c.21,2.6-.45,3.076-.45,3.076s-9.9,3.59-34.809,2.348q-4.042-.2-7.6-.413c-16.051-.947-24.635-1.936-24.635-1.936s-13.146-30.344,11.552-67.73a119.839,119.839,0,0,1,9.9-12.916c4-4.562,4.883-10.666,6.4-16.466.433-1.663-.82-2.03-.195-3.6,0,0,4.5-1.273,4.968-1.273,2.558,2.253,5.933,6.634,14.308,7.5,5.663.591,7.879-2.6,8.685-4.513a68.812,68.812,0,0,1,6.227,3.007c15.176,7.286,16.57,21.416,16.57,21.416s-13.946,45.859-14.812,51.584c-.387,2.546,2.812,6.506,3.893,19.913" transform="translate(-380.554 -164.124)" fill="#b39bc3"/>
          <path id="Trazado_902243" data-name="Trazado 902243" d="M774.77,243.779c-.247,1.973-1.081,7.371-1.437,9.62-17.054-6.649-14.821-19.607-14.356-21.375.049-.181.083-.278.083-.278s9.023,6.406,15.71,12.034" transform="translate(-443.412 -135.454)" fill="#947d53"/>
          <path id="Trazado_902244" data-name="Trazado 902244" d="M777.751,219.608s-19.7.632-19.9-11.641-2.885-20.456,9.682-21.379,15.09,3.72,16.154,7.8-.816,24.739-5.935,25.22" transform="translate(-442.738 -108.991)" fill="#b7a78a"/>
          <path id="Trazado_902245" data-name="Trazado 902245" d="M774.9,179.281s-1.236,20.49-25.249,18.292c0,0,.511-28.377,25.249-18.292" transform="translate(-438.166 -103.522)" fill="#5c4dba"/>
          <path id="Trazado_902246" data-name="Trazado 902246" d="M799.356,187.232s6.729,8.329,9.781,10.985c0,0,7.486-10.74-9.781-10.985" transform="translate(-467.219 -109.436)" fill="#5c4dba"/>
          <path id="Trazado_902247" data-name="Trazado 902247" d="M799.356,187.232s6.046,10.209,9.1,12.866c0,0,8.169-12.621-9.1-12.866" transform="translate(-467.219 -109.436)" fill="#5c4dba"/>
          <path id="Trazado_902248" data-name="Trazado 902248" d="M679.213,432.9c-16.051-.946-24.635-1.935-24.635-1.935s-13.147-30.344,11.552-67.73c5,11.655,16.794,42.8,13.084,69.665" transform="translate(-380.554 -212.309)" fill="#9d7eb2"/>
          <path id="Trazado_902249" data-name="Trazado 902249" d="M680.109,280.8s-19.055,3.91-27.545,13.74c-6.505,7.533-13.621,44.362-13.621,50.447,0,5.815,6.685,36.733,10.857,42.66a1.379,1.379,0,0,0,1.274.586l10.732-1.138a1.577,1.577,0,0,0,1.393-1.809l-6.03-39.082,21.164-37.538s12.48-14.792,1.776-27.866" transform="translate(-373.458 -164.124)" fill="#b39bc3"/>
          <path id="Trazado_902250" data-name="Trazado 902250" d="M918.052,884.84a8.226,8.226,0,0,0,5.19,3.929,8.951,8.951,0,0,1,5.383,3.307,2.1,2.1,0,0,1-1.687,3.344H908.784a2.611,2.611,0,0,1-2.6-2.872c.136-1.346.277-2.911.339-4.113.134-2.621,2.76-4.732,2.76-4.732Z" transform="translate(-529.652 -516.52)" fill="#6e408d"/>
          <path id="Trazado_902251" data-name="Trazado 902251" d="M893.012,692.146c.758,13.805-1.125,45.182-1.125,45.182s-1.266,3.5-9.259,4.335a23.953,23.953,0,0,1-8.136-.665q-2.419-11.142-4.478-21.266c-9.868-48.413-13.717-78.318-13.717-78.318l38.954-9.055s-1.707,27.332-2.209,45.97c-.157,5.818-.2,10.79-.03,13.817" transform="translate(-500.501 -369.61)" fill="#794f96"/>
          <path id="Trazado_902252" data-name="Trazado 902252" d="M895.251,632.359s-1.706,27.332-2.208,45.97l-23.028,41.4c-9.868-48.413-13.717-78.317-13.717-78.317Z" transform="translate(-500.501 -369.61)" fill="#6e408d"/>
          <path id="Trazado_902253" data-name="Trazado 902253" d="M810.648,477.032s-15.073-6.861-26.477-.858-4.431,55.541,11.875,60.343c0,0,30.551,9.769,14.6-59.485" transform="translate(-455.062 -276.882)" fill="#794f96"/>
          <path id="Trazado_902254" data-name="Trazado 902254" d="M944.922,545.021a1.9,1.9,0,0,0-.147-.192,25.376,25.376,0,0,1-1.411-2.968c3.032-14.844.991-23.427.991-23.427.36-4.321,2.941-34.511-3-48.5-2.866-6.748-7.668-6.76-7.668-6.76s1.125,10.781.383,16.577c-.682,5.32,4.39,55.174,5.228,63.323-.014,0-.025,0-.029,0l.24,8.285,2.432-.575a1.707,1.707,0,0,0,.3-.108,1.733,1.733,0,0,0,.742-.648l1.963-3.111a1.753,1.753,0,0,0-.025-1.9m-4.625-1.344.1-.061-.051.067c-.007.007-.026,0-.052-.006" transform="translate(-545.734 -270.724)" fill="#947d53"/>
          <path id="Trazado_902255" data-name="Trazado 902255" d="M841.989,884.84a8.228,8.228,0,0,0,5.191,3.929,8.95,8.95,0,0,1,5.382,3.307,2.1,2.1,0,0,1-1.686,3.344H832.72a2.611,2.611,0,0,1-2.6-2.872c.136-1.346.277-2.911.338-4.113.135-2.621,2.76-4.732,2.76-4.732Z" transform="translate(-485.194 -516.52)" fill="#6e408d"/>
          <path id="Trazado_902256" data-name="Trazado 902256" d="M858.305,330.008c-3.883,0-8.76,1.672-11.378,4.215-2.779,2.7-5.672,2.839-7.731,6.028-2.147,3.324-3.477,6.779-2.4,11.457,1.178,5.109.939,10.052,4.148,13.8,1.589,1.857,4.177,2.067,5.982,3.773,3.314,3.132,7.08,4.124,11.378,4.124,8.1,0,13.141-4.8,17.287-10.777,3.322-4.791,2.664-8.02,3.443-12.118,2.452-12.9-8.307-20.5-20.73-20.5" transform="translate(-488.88 -192.888)" fill="#794f96"/>
          <path id="Trazado_902257" data-name="Trazado 902257" d="M890.4,424.928l-15.484,7.913-3.1-10.742a32.928,32.928,0,0,0,2.864-9.807,40.86,40.86,0,0,0,.321-8.842l12.616,6.46a23.857,23.857,0,0,0-.5,2.888,21,21,0,0,0,.218,6.75,9.339,9.339,0,0,0,3.07,5.379" transform="translate(-509.569 -235.815)" fill="#b7a78a"/>
          <path id="Trazado_902258" data-name="Trazado 902258" d="M826.857,641.063s-2.943,39.019-2.288,101.206a23.965,23.965,0,0,0,7.835,2.294c8,.8,9.945-2.375,9.945-2.375s8.178-30.351,10.223-44.026c1.885-12.607,14.263-58.1,14.263-58.1Z" transform="translate(-481.901 -374.112)" fill="#794f96"/>
          <path id="Trazado_902259" data-name="Trazado 902259" d="M857.3,452.245a49.6,49.6,0,0,0-12.2-3.462c.068,2.226-.516,4.321-4.423,4.833-5.2.677-9.844-2.869-12.2-5.281h0s-3.665.393-7.937,1.328a49.847,49.847,0,0,0-6.486,1.837c-2.5.918-4.653,2.064-5.8,3.473h0v0c-4,4.907-10.577,19.686-10.577,19.686s10.95,4.059,13.713,6.428l.063.528,1.715,14.233-5.1,28.35a4.294,4.294,0,0,0-.069.74,4.179,4.179,0,0,0,3.2,4.058s.439.073,1.247.185c5.412.76,27.38,3.381,44.6-1.3a8.363,8.363,0,0,0,6.1-8.753L860.336,483.9c1.5-.257,3.228-.53,4.635-.687a8.738,8.738,0,0,1,2.5-.054s-1.946-27.517-10.172-30.913" transform="translate(-466.234 -262.049)" fill="#9b855d"/>
          <path id="Trazado_902260" data-name="Trazado 902260" d="M839.31,550.825c-.218,9.892-6.7,21.513-12.36,24.646-.808-.112-1.247-.185-1.247-.185a4.179,4.179,0,0,1-3.2-4.058,4.259,4.259,0,0,1,.068-.74l5.1-28.349-1.715-14.233.127-.38s13.606,5.825,13.222,23.3" transform="translate(-480.748 -308.335)" fill="#806432"/>
          <path id="Trazado_902261" data-name="Trazado 902261" d="M950.829,512.477c-1.442.161-4.643.688-4.643.688l-1.621-14.76s5.416,10.4,6.264,14.072" transform="translate(-552.093 -291.315)" fill="#806432"/>
          <path id="Trazado_902262" data-name="Trazado 902262" d="M824.861,521.006l1.326-7.364c22.452-32.484,24.151-38.311,14.055-52.9a21.518,21.518,0,0,0-10.3-7.379,49.811,49.811,0,0,1,6.486-1.837,24.391,24.391,0,0,1,5.611,3.3c30.815,26.679-17.182,66.175-17.182,66.175" transform="translate(-482.127 -263.917)" fill="#794f96"/>
          <path id="Trazado_902263" data-name="Trazado 902263" d="M832.4,515.3c-8.79.608-10.008,9.615-10.008,9.615s-14.753,1.339-16.933,2.308c0,0,1.2-3.239,3.325-8.133-1.924-1.892-8.246-4.705-12.432-6-3.193,8.144-4.42,16.206-2.628,23.979a1.883,1.883,0,0,0,1.752,1.448c4.695.219,20.21.141,31.57-9.266l.2-.054c2.719-.161,5.273-2.863,6.253-6.413s1.059-2.466,1.81-4.965S832.4,515.3,832.4,515.3" transform="translate(-463.442 -299.9)" fill="#b7a78a"/>
          <path id="Trazado_902264" data-name="Trazado 902264" d="M891.357,431.987c-7.174-.192-12.652-7.256-12.652-7.256l12.434.506a21,21,0,0,0,.218,6.75" transform="translate(-513.598 -248.253)" fill="#947d53"/>
          <path id="Trazado_902265" data-name="Trazado 902265" d="M888.009,393.007s-15.851,1.931-16.189-9.235,6.268-18.4,10.678-18.317c8.793.165,10.244,3.719,11.263,7.418s1.544,19.347-5.753,20.134" transform="translate(-509.567 -213.605)" fill="#b7a78a"/>
          <path id="Trazado_902266" data-name="Trazado 902266" d="M900.6,414.949s.345,1.393,3.816,1.136c0,0,2.914-.214,2.807-1.749a9.384,9.384,0,0,0-6.624.613" transform="translate(-526.393 -241.984)" fill="#fff"/>
          <path id="Trazado_902267" data-name="Trazado 902267" d="M881.471,364.791s-13.546-.008-10.433,9.291c1.961,5.861-4.561,6.772-4.561,6.772l-3.14-9.394,1.967-7.319Z" transform="translate(-504.616 -212.839)" fill="#794f96"/>
          <path id="Trazado_902268" data-name="Trazado 902268" d="M1202.209,258.722c-3.374-5.605-5.47-30.627-7.905-37.329-1.539-4.236-5.661-9.3-5.226-9.614-4.386-2.586-16.254-3.83-16.254-3.83s0,.017,0,.025c-.463-.1-.923-.194-1.367-.282-1.422-.286-2.765-1.116-2.926-2.558,0-.072-.013-.146-.021-.218a45.066,45.066,0,0,1-.2-5.156.24.24,0,0,1,0-.066c.039-2.567.235-4.472.235-4.472l-.048-.006-15.385-2.473c-.209,4.8-.488,8.379-.783,11.045a4.217,4.217,0,0,1-3.932,3.752c-.306.017-.617.036-.926.058v0s-9.918-.386-13.712.772a6.155,6.155,0,0,0-.964.4c.229.241-36.524,37.079-35.577,41.345s17.076,28.492,22.923,32.957h5.853s-12.972-29.585-13.14-31.984c-.246-3.511,32.618-23.161,32.618-26.744,0-1.3,9.163-1.7,15.156-1.651,6.344.049,18.3-3.265,18.3-3.265s5.166,39.146,11.694,50.758c5.149,9.156,27.891,32.616,27.891,32.616l4.8-4.254s-12.92-26.249-21.095-39.825" transform="translate(-641.306 -112.658)" fill="#b7a78a"/>
          <path id="Trazado_902269" data-name="Trazado 902269" d="M1171.029,547.756c2.776,27.344-.588,63.148-.588,63.148h-9.421c-14.227-37.417-14.654-60.892-15.465-69.707-.441-4.8-6.926-24-12.746-42.466-4.864-15.418-9.259-30.326-9.289-35.912-.063-12.8,12.691-33.334,12.691-33.334s18.327,7.069,29.637,14.054c3.775,2.332,6.664,4.613,7.652,6.546,2.622,5.142,4.565,41.846-2.413,64.267-4.2,13.5-2.049,20.422-2.049,20.422a114.489,114.489,0,0,1,1.991,12.984" transform="translate(-656.691 -251.031)" fill="#5c4dba"/>
          <path id="Trazado_902270" data-name="Trazado 902270" d="M1171.088,514.349c-4.2,13.5-2.049,20.422-2.049,20.422a114.247,114.247,0,0,1,1.99,12.984L1132.81,498.73c-4.864-15.418-9.259-30.326-9.289-35.912-.064-12.8,12.692-33.334,12.692-33.334s18.327,7.07,29.636,14.054c3.775,2.332,6.664,4.613,7.651,6.545,2.622,5.142,4.565,41.846-2.412,64.267" transform="translate(-656.692 -251.03)" fill="#4837b2"/>
          <path id="Trazado_902271" data-name="Trazado 902271" d="M1179.007,866.109s-.533,6.145-1.323,7.409-4.109,5.532-7.9,6.953-14.645.686-15.488,4.629h38.245s.526-5.91-.949-9.8-3.161-9.192-3.161-9.192Z" transform="translate(-674.678 -506.236)" fill="#764b93"/>
          <path id="Trazado_902272" data-name="Trazado 902272" d="M1352.67,860.633s4.276,5.845,5.33,8.163,8.005,12.132,7.164,12.214-19.386,0-19.386,0-1.9-4.629-1.686-7.79-2.529-9.16-2-12.587,10.579,0,10.579,0" transform="translate(-784.405 -502.145)" fill="#764b93"/>
          <path id="Trazado_902273" data-name="Trazado 902273" d="M1271.608,607.073h-10.579s-41.251-59.633-42.67-74.8c-1.773-18.961-15.023-93.8-15.023-93.8l42.316-13.174s3.7,9.51,6.8,19.1c1.35,4.182,2.585,8.379,3.353,11.808,1.694,7.571-3.076,36.175-6.331,56.511-1.609,10.016-2.848,18.028-2.766,20.532.247,7.586,14.154,8.569,24.9,73.822" transform="translate(-703.343 -248.585)" fill="#5c4dba"/>
          <path id="Trazado_902274" data-name="Trazado 902274" d="M1231.151,202.733c-.023.383-.045.755-.072,1.114.024-.36.049-.732.072-1.114" transform="translate(-719.559 -118.496)" fill="#764b93"/>
          <path id="Trazado_902275" data-name="Trazado 902275" d="M1231.375,198.933c-.02.408-.043.807-.066,1.2.023-.39.043-.788.066-1.2" transform="translate(-719.693 -116.275)" fill="#764b93"/>
          <path id="Trazado_902276" data-name="Trazado 902276" d="M1231.714,192.744q-.019.451-.041.885.019-.435.038-.885Z" transform="translate(-719.906 -112.658)" fill="#764b93"/>
          <path id="Trazado_902277" data-name="Trazado 902277" d="M1220.588,321.88c1.378,4.145-18.532,6.569-40.629,6.276a72.176,72.176,0,0,1-16.83-2.082c-10.114-2.616-15.679-7.375-11.239-12.422,1.263-1.435,15.269-21.478,15.269-21.478.827-1.794-.069-7.675-4.346-21.65-1.75-5.714.531-9.269,1.348-11.536a.009.009,0,0,1,0-.005,2.285,2.285,0,0,0,.088-1.935,47.559,47.559,0,0,0-7.175-9.036,70.825,70.825,0,0,0-6-5.468s8.2-8.938,12.786-11.236c4.724,4.952,14.969,13.823,27.835,13.924,11.1.084,21.884-6.169,28.45-10.912a4.575,4.575,0,0,1,1.168.921c4.1,4.813,5.272,13.5,5.272,13.5s-13.2,7.285-12.966,9.657c.656,6.535,1.273,8.448.986,10.781l0,.023a15.927,15.927,0,0,1-.683,2.842c-2.251,7.072-7.126,17.995-5.909,21.673.316.955,10.6,22.212,12.576,28.166" transform="translate(-672.371 -135.198)" fill="#764b93"/>
          <path id="Trazado_902278" data-name="Trazado 902278" d="M1185.192,230.091c.213-.064.444-.126.693-.18-.249.057-.482.118-.7.182Z" transform="translate(-692.736 -134.382)" fill="#b7a78a"/>
          <path id="Trazado_902279" data-name="Trazado 902279" d="M1270.576,226.067a3.647,3.647,0,0,0,1.184.783,3.617,3.617,0,0,1-1.184-.783" transform="translate(-742.645 -132.135)" fill="#b7a78a"/>
          <path id="Trazado_902280" data-name="Trazado 902280" d="M1273.425,227.952q.246.1.508.185a4.34,4.34,0,0,1-.508-.185" transform="translate(-744.31 -133.237)" fill="#b7a78a"/>
          <path id="Trazado_902281" data-name="Trazado 902281" d="M1393.685,447.38s8.086,2.093,9.193,3.222,4.275,9.9,3.161,9.98c-5.795.421-8.85-2.687-8.85-2.687-3.5-3.856-8.738-4.47-8.477-7.293s4.974-3.222,4.974-3.222" transform="translate(-811.688 -261.491)" fill="#b7a78a"/>
          <path id="Trazado_902282" data-name="Trazado 902282" d="M1144.175,410.133s-5.855,7.4-5.855,8.739,1.185,6.953,2.608,7.032,1.9-4.583,3-5.452,5.057-2.5,5.611-4.017.487-6.3.487-6.3Z" transform="translate(-665.342 -239.72)" fill="#b7a78a"/>
          <path id="Trazado_902283" data-name="Trazado 902283" d="M1230.012,203.116c7.268-.934,16.116-8.1,16.116-8.1-5.165-2.8-9.645-3.072-13.125-2.11a13.068,13.068,0,0,0-2.319.88Z" transform="translate(-718.935 -112.46)" fill="#947d53"/>
          <path id="Trazado_902284" data-name="Trazado 902284" d="M1220.683,159.6s17.976,6,21.54-5.254,8.284-18.056-3.043-22.361-14.927-.723-17.03,2.744-6.051,23.02-1.467,24.871" transform="translate(-712.24 -75.994)" fill="#b7a78a"/>
          <path id="Trazado_902285" data-name="Trazado 902285" d="M1230.055,186.28s-.663,1.306-4.057.253c0,0-2.849-.883-2.391-2.384a9.582,9.582,0,0,1,6.448,2.131" transform="translate(-715.162 -107.62)" fill="#fff"/>
          <path id="Trazado_902286" data-name="Trazado 902286" d="M1271.467,113.649c-2.014-2.587,4.6-7.922-8.832-14.334-10.185-4.864-13.342,2.5-14.273,6.347-6.057-3.457-15.942-13.413-22.246-6.927-7.548,7.766.638,14.6.638,14.6,2.863,2.085,4.254,1.509,8.439,2.428s1.513,5.762,1.839,7.4a5.239,5.239,0,0,0,7.054,3.268c3.871-1.668,3.426,4.708-.254,6.019-1.048.374-2.138,6.237-.618,6.484,1.278.208,5.891.251,6.36-3.513.278-2.234,3.117-3.4,6.127-5.709,2.083,1.982,5.011,2.992,6.626,2.761,2.378-.342,2.4-2.249,7.5-5.649s3.655-10.586,1.641-13.173" transform="translate(-714.79 -56.455)" fill="#5c4dba"/>
          <path id="Trazado_902287" data-name="Trazado 902287" d="M1163.129,411.695c-10.114-2.616-15.68-7.375-11.239-12.423,1.263-1.434,15.269-21.479,15.269-21.479s3.753,22.634-4.031,33.9" transform="translate(-672.371 -220.818)" fill="#6b3c8a"/>
          <path id="Trazado_902288" data-name="Trazado 902288" d="M1304.44,667.3l-1.514-162.176s-1.308-11.68-11.5-11.68c-10.873,0-11.5,11.68-11.5,11.68a1.235,1.235,0,0,0,1.272,1.01,1.316,1.316,0,0,0,1.361-1.01s.482-9,8.864-9c7.856,0,8.864,9,8.864,9V667.3Z" transform="translate(-748.114 -288.418)" fill="#6b3c8a"/>
          <path id="Trazado_902289" data-name="Trazado 902289" d="M1325.572,900.381h6.762l-.6-7.071s.058-.982-1.308-1.038c-1.27-.052-3.777-.233-4.015.535-.21.675-.836,7.575-.836,7.575" transform="translate(-774.789 -521.495)" fill="#6b3c8a"/>
          <path id="Trazado_902290" data-name="Trazado 902290" d="M1286.77,472.766l-.461,2.319a14.861,14.861,0,0,0-14.147,12.244s-.728,5.113,2.959,4.022,3.112-3.7,8.332-5.13,8.621-2.525,9.413-6.324l.853-4.229Z" transform="translate(-743.537 -276.329)" fill="#b7a78a"/>
          <path id="Trazado_902291" data-name="Trazado 902291" d="M1346.759,230.765s-3.033,11.933-5.649,22.843c-1.053,4.4-2.037,8.622-2.733,11.837-.708,3.3-1.111,5.54-.957,5.788,2.275,3.692-1.88,26.2-5.167,34.379-.289.725-.689,1.574-1.169,2.517-4.6,9.011-16.833,26.695-16.833,26.695a15.3,15.3,0,0,1-5.71-.49,7.529,7.529,0,0,1-3.171-3.017c1.094-1.761,5.522-22.567,11.218-34.233,2.438-4.99,6.027-51.292,10.748-57.526,3.937-5.2,19.421-8.792,19.421-8.792" transform="translate(-762.982 -134.881)" fill="#9b855d"/>
          <path id="Trazado_902292" data-name="Trazado 902292" d="M1371.61,314.008c2.275,3.692-1.88,26.2-5.168,34.379-.289.725-.689,1.574-1.168,2.517-4.392-19.43,2.886-46.955,2.886-46.955,1.817.719,3.3,9.81,3.449,10.058" transform="translate(-797.172 -177.657)" fill="#806432"/>
          <path id="Trazado_902293" data-name="Trazado 902293" d="M1402.617,861.58s1.169,17.585-2.152,17.831c-.441.033-16.843.033-16.843.033h-21.156s.356-5.165,6.477-6.232,16.363-5.368,20.07-13.456c3.9-8.51,13.6,1.825,13.6,1.825" transform="translate(-796.354 -500.557)" fill="#5e2b80"/>
          <path id="Trazado_902294" data-name="Trazado 902294" d="M1479.2,861.58s1.167,17.585-2.153,17.831c-.442.033-16.843.033-16.843.033h-21.156s.356-5.165,6.476-6.232,16.363-5.368,20.071-13.456c3.9-8.51,13.6,1.825,13.6,1.825" transform="translate(-841.115 -500.557)" fill="#663686"/>
          <path id="Trazado_902295" data-name="Trazado 902295" d="M1410.479,581.385c.521,7.436,1.582,17,1.2,25.617-.529,12.052-.911,22.215-.911,22.215-7.946,2.7-22.525-.576-22.525-.576s-5.171-30.456-9.431-54.769c-1.911-10.894-3.5-20.318-4.089-24.768-1.916-14.384,2.04-90.863,2.04-90.863s21.5-13.781,30.384-6.675,14.349,14.045.036,91.866c-1.086,5.9,2.126,21.3,3.292,37.953" transform="translate(-803.214 -262.748)" fill="#764b93"/>
          <path id="Trazado_902296" data-name="Trazado 902296" d="M1410.479,581.385c.521,7.436,1.48,19.337,1.1,27.956-7.474-7.91-22.206-24.6-32.765-35.469-1.911-10.894-3.5-20.318-4.089-24.768-1.916-14.384,2.04-90.863,2.04-90.863s21.5-13.781,30.384-6.675,14.349,14.045.036,91.866c-1.086,5.9,2.126,21.3,3.292,37.953" transform="translate(-803.214 -262.748)" fill="#6b3c8a"/>
          <path id="Trazado_902297" data-name="Trazado 902297" d="M1427.137,459.4s1.931,76.558,4.948,90.752,18.763,79.173,18.763,79.173,14.761,1.344,22.475-1.96c0,0-.491-30.094-3.108-47.775-2.446-16.517-6.831-31.619-6.2-37.588,8.291-78.69,2.306-85.192-7.1-91.593s-29.78,8.991-29.78,8.991" transform="translate(-834.154 -262.35)" fill="#764b93"/>
          <path id="Trazado_902298" data-name="Trazado 902298" d="M1495.492,485.093a14.86,14.86,0,0,0,4.717,18.1s4.262,2.916,4.915-.873-.1-2.469.928-7.782-.287-10.808-3.344-13.2Z" transform="translate(-873.329 -281.342)" fill="#b7a78a"/>
          <path id="Trazado_902299" data-name="Trazado 902299" d="M1393.609,179s5.9,8.972,4.726,17.346l8.736,21.045,15.759-24.093a55.32,55.32,0,0,1-11.433-21.415Z" transform="translate(-814.556 -100.468)" fill="#b7a78a"/>
          <path id="Trazado_902300" data-name="Trazado 902300" d="M1377.039,158.625s21.5.93,21.887-11.974,6.2-21.489-9.879-22.623c-13.222-.933-17.617,4.581-18.8,8.856s-1.18,25.049,6.787,25.741" transform="translate(-800.575 -72.433)" fill="#b7a78a"/>
          <path id="Trazado_902301" data-name="Trazado 902301" d="M1418.08,331.312c-4.618.43-10.976.962-18.69,1.447q-2.312.145-4.781.284c-23.293,1.3-32.552-2.468-32.552-2.468s-.618-.5-.422-3.234c1.012-14.086,4-18.247,3.642-20.924-.81-6.016-15.407-55.114-15.407-55.114s-.282-15.509,16.968-22.788a40.754,40.754,0,0,1,5.905-1.963c.755,2.007,2.826,5.36,8.123,4.742a27.69,27.69,0,0,0,15.8-7.9c.432,0,.6.013.6.013a47.189,47.189,0,0,1,1.444,5.118c1.415,6.1,2.242,12.509,5.983,17.3a131.263,131.263,0,0,1,9.549,13.967,116.431,116.431,0,0,1,5.815,11.165c15.269,33.748,3.458,59.836-1.977,60.346" transform="translate(-788.992 -130.575)" fill="#9b855d"/>
          <path id="Trazado_902302" data-name="Trazado 902302" d="M1487.424,380.593c-4.619.43-10.977.962-18.691,1.447-2.25-37.914,13.2-74.328,13.2-74.328a13.765,13.765,0,0,1,1.655,1.37c2.691,2.615,4.566,6.494,5.814,11.165,4.6,17.191.75,45.121-1.977,60.346" transform="translate(-858.335 -179.856)" fill="#806432"/>
          <path id="Trazado_902303" data-name="Trazado 902303" d="M1368.979,176.481s-4.184,16.6,2.917,18.94,25.954.465,25.947-19.889c0,0-9.894,5.9-14.62,5.752s-7.776-2.877-12.144-.746c0,0-1.6-.106-2.1-4.056" transform="translate(-799.445 -102.597)" fill="#e0d7e7"/>
          <path id="Trazado_902304" data-name="Trazado 902304" d="M1457.139,223.428s15.026.337,22.965,10.668c6.083,7.915,12.514,50.385,12.514,56.781s-6.849,41.686-10.683,45.522a14.453,14.453,0,0,1-5.794,0,11.714,11.714,0,0,1-5.586-2.713s1.908-39.292,1.908-42.977c0-5.336-16.681-38-16.681-38s-8.653-15.544,1.357-29.283" transform="translate(-848.867 -130.592)" fill="#9b855d"/>
          <path id="Trazado_902305" data-name="Trazado 902305" d="M1405.356,122.425a3.731,3.731,0,0,0-1.984-2.009c-12.107-5.273-20.952.5-20.952.5,7.421-9.961,25.329-7.87,29.1,1.115,6.159,14.669-5.106,17.724-5.106,17.724s-11.25-4.727-4.735-10.653c2.159-1.964,3.2-3.71,3.548-5.228a5.178,5.178,0,0,0,.129-1.444" transform="translate(-808.017 -66.816)" fill="#e0d7e7"/>
          <path id="Trazado_902306" data-name="Trazado 902306" d="M1381.967,195.274s-.4,1.411-3.929,1.041c0,0-2.968-.309-2.81-1.871a9.581,9.581,0,0,1,6.74.83" transform="translate(-803.809 -113.494)" fill="#fff"/>
          <path id="Trazado_902307" data-name="Trazado 902307" d="M755.056,914.056H.817A.82.82,0,0,1,0,913.239v-.516a.82.82,0,0,1,.817-.818H755.056a.82.82,0,0,1,.818.818v.515a.821.821,0,0,1-.818.818" transform="translate(0 -533.003)" fill="#6b3c8a"/>
        </g>
      </g>
    </g>
  </g>
</svg>
