<svg xmlns="http://www.w3.org/2000/svg" xmlns:xlink="http://www.w3.org/1999/xlink" width="60" height="60" viewBox="0 0 60 60">
  <defs>
    <clipPath id="clip-path">
      <rect id="Rectángulo_402481" data-name="Rectángulo 402481" width="35.517" height="35.539" fill="#fff"/>
    </clipPath>
  </defs>
  <g id="Grupo_1102775" data-name="Grupo 1102775" transform="translate(-766.467 -3480.87)">
    <circle id="Elipse_11490" data-name="Elipse 11490" cx="30" cy="30" r="30" transform="translate(766.467 3480.87)" fill="#4635b1"/>
    <g id="Grupo_1102212" data-name="Grupo 1102212" transform="translate(777.458 3493.101)">
      <g id="Grupo_1102211" data-name="Grupo 1102211" clip-path="url(#clip-path)">
        <path id="Trazado_901846" data-name="Trazado 901846" d="M12.5,24.919c0,1.593,0,3.115,0,4.636a4.317,4.317,0,0,1-.032.69.614.614,0,0,1-1.224-.07c-.013-.184-.008-.369-.008-.554q0-3.428,0-6.856v-.784H4.251v9.874H7.088v-.773q0-2.8,0-5.609c0-.162-.007-.324,0-.485.034-.5.248-.739.643-.732s.614.244.617.758c.013,1.985.007,3.97.007,5.955v.885c.272.018.493.043.714.044,1.038,0,2.077-.008,3.115.005a1.864,1.864,0,0,1,2.081,2.045c.068,1.841-.27,1.577-1.487,1.577q-5.261,0-10.522,0c-.938,0-1.082-.142-1.09-1.074a7.2,7.2,0,0,1,.027-.829,1.734,1.734,0,0,1,1.355-1.638c.11-.029.216-.076.352-.125V24.925L2.2,24.863A2.306,2.306,0,0,1,.031,22.649C0,19.717-.019,16.785.037,13.855a4.034,4.034,0,0,1,3.415-3.735c.361-.055.724-.094,1.144-.148-.108-.175-.184-.311-.271-.439a4.117,4.117,0,0,1-.739-1.986.823.823,0,0,0-.439-.784A3.616,3.616,0,0,1,1.176,3.493c-.026-.691-.024-1.385,0-2.077C1.205.429,1.654.007,2.656.006c2.654,0,5.307-.011,7.961,0a3.521,3.521,0,0,1,3.626,3.126A3.56,3.56,0,0,1,12.4,6.718a.914.914,0,0,0-.551.855,4.423,4.423,0,0,1-1.019,2.385l1.062.148a4.066,4.066,0,0,1,3.536,3.92c.036,2.816.025,5.632.005,8.448a2.347,2.347,0,0,1-2.283,2.4l-.644.049M5.777,11.285c-.361,0-.84.007-1.32,0a2.978,2.978,0,0,0-3.194,3.192c.052,1.845.01,3.692.013,5.538,0,.2.033.4.052.612H2.943c0-.291,0-.538,0-.786,0-1.615-.007-3.231.007-4.846,0-.532.269-.818.66-.8.373.017.575.277.6.784.007.138,0,.277,0,.415v5.218h7.022c0-1.833,0-3.608,0-5.382,0-.739.183-1.036.623-1.037s.639.321.641,1.036c0,1.546,0,3.092,0,4.638,0,.246.021.491.033.762h1.526c.043-.08.083-.119.083-.158,0-2.215.061-4.431-.022-6.643a2.559,2.559,0,0,0-1.934-2.367,6.944,6.944,0,0,0-2.648-.14,2.157,2.157,0,0,1-.3,1.578,1.209,1.209,0,0,0-.118.643c.129,1.1.3,2.191.426,3.29a1.377,1.377,0,0,1-.147.786,16.8,16.8,0,0,1-1.066,1.616c-.376.51-.8.5-1.177-.018A14.178,14.178,0,0,1,6.2,17.773a1.683,1.683,0,0,1-.229-.9c.085-.986.248-1.966.359-2.95a2.844,2.844,0,0,0-.018-.948c-.123-.522-.322-1.027-.538-1.692M3.348,5.436l.193-.046c0-.551-.02-1.1.006-1.652s.2-.774.68-.786c1.152-.028,2.306-.025,3.458,0a.617.617,0,0,1,.654.657c-.02.353-.264.576-.72.588-.737.019-1.476,0-2.214.01-.2,0-.392.033-.658.056.047,1.193.017,2.328.154,3.443A2.688,2.688,0,0,0,7.4,10a2.773,2.773,0,0,0,3.04-1.873,13.1,13.1,0,0,0,.194-3.893c-.227-.015-.365-.015-.5-.034-.439-.062-.68-.3-.667-.646s.265-.572.712-.611c.229-.02.461-.01.691-.007.855.01,1,.152,1.026,1.01.012.473,0,.946,0,1.481a2.1,2.1,0,0,0,1.085-2.089,2.257,2.257,0,0,0-2.3-2.059C8.057,1.254,5.428,1.269,2.8,1.271a2.4,2.4,0,0,0-.387.074c.142,1.434-.425,2.987.935,4.091m3.7,27.771c-.18-.015-.336-.038-.492-.038-1.082,0-2.163-.007-3.244,0-.783.005-.932.2-.81,1.05H7.05ZM8.4,34.22h4.537c.124-.85-.028-1.042-.81-1.051-.505-.006-1.011,0-1.516,0H8.4ZM7.808,17.874c.157-.392.417-.731.4-1.051-.065-1.026-.234-2.045-.368-3.066,0-.014-.075-.019-.2-.047-.126.882-.228,1.764-.386,2.636a1.508,1.508,0,0,0,.553,1.529M2.9,23.536V21.992H1.339A1.191,1.191,0,0,0,2.9,23.536m9.639.014c1.259.187,1.808-.4,1.52-1.57h-1.52Zm-4.8-12.222c-.31.035-.518.176-.517.514a.522.522,0,0,0,.463.576.564.564,0,0,0,.565-.558.522.522,0,0,0-.511-.531" transform="translate(-0.001 0)" fill="#fff"/>
        <path id="Trazado_901847" data-name="Trazado 901847" d="M121.941,47.718c-.637,0-1.163-.014-1.689,0a.594.594,0,0,1-.507-.968,1.056,1.056,0,0,1,.676-.242c.476-.036.956-.011,1.52-.011v-.9q0-4.259,0-8.517a6.358,6.358,0,0,1,.067-.964,2.345,2.345,0,0,1,2.2-2.032c.6-.038,1.2-.012,1.8-.013a.636.636,0,0,1,.727.582c.047.373-.231.646-.708.675-.46.027-.923.007-1.384.011-1.056.009-1.446.4-1.45,1.476-.006,1.777,0,3.555,0,5.332v4.288c.227.023.423.058.62.06.669.007,1.338,0,2.007,0,.632.007.909.191.923.592.015.426-.277.624-.952.631-.623.006-1.246,0-1.869,0-.224,0-.448.024-.728.041v.668q0,4.466,0,8.933c0,.115,0,.231,0,.346a1.151,1.151,0,0,0,1.2,1.165c.415.016.831,0,1.246.006a4.018,4.018,0,0,1,.484.016.609.609,0,0,1,.609.63.58.58,0,0,1-.618.611,16.789,16.789,0,0,1-2.074-.024,2.312,2.312,0,0,1-2.042-2.041,6.605,6.605,0,0,1-.063-.965q-.007-4.224,0-8.448Z" transform="translate(-103.044 -29.348)" fill="#fff"/>
        <path id="Trazado_901848" data-name="Trazado 901848" d="M184.678.038A5.337,5.337,0,0,1,190,4.718a4.061,4.061,0,0,1,.017.691.566.566,0,0,1-.567.583.558.558,0,0,1-.618-.443,3.1,3.1,0,0,1-.085-.544,4.087,4.087,0,0,0-8.112-.2,4.1,4.1,0,0,0,6.537,3.843c.037-.027.072-.057.11-.084.5-.36.835-.369,1.083-.031.227.31.128.633-.3,1a5.347,5.347,0,1,1-3.376-9.49" transform="translate(-154.503 -0.033)" fill="#fff"/>
        <path id="Trazado_901849" data-name="Trazado 901849" d="M180.6,95.37a3.847,3.847,0,0,0,2.468,3.413,3.937,3.937,0,0,0,4.381-.726c.123-.1.227-.231.353-.331a.582.582,0,0,1,.816.018.557.557,0,0,1,.063.807,1.832,1.832,0,0,1-.278.307,5.343,5.343,0,0,1-8.9-2.776,5.344,5.344,0,1,1,10.52-1.853,3.6,3.6,0,0,1,.024.828.532.532,0,0,1-.544.521.543.543,0,0,1-.631-.414,3.189,3.189,0,0,1-.083-.545A4.151,4.151,0,0,0,184.6,90.9a4.2,4.2,0,0,0-4,4.474" transform="translate(-154.544 -77.223)" fill="#fff"/>
        <path id="Trazado_901850" data-name="Trazado 901850" d="M184.213,190.053a5.319,5.319,0,0,1-4.992-4.92,5.375,5.375,0,0,1,4.348-5.671,5.259,5.259,0,0,1,6.29,4.845,1.829,1.829,0,0,1-.019.481.581.581,0,0,1-.623.529.591.591,0,0,1-.6-.561,9.174,9.174,0,0,0-.255-1.283,4.065,4.065,0,0,0-7.92,1.042,3.8,3.8,0,0,0,1.982,3.764,3.989,3.989,0,0,0,4.387-.125c.175-.111.332-.25.508-.36a.548.548,0,0,1,.79.163.538.538,0,0,1-.032.755,3,3,0,0,1-.534.436,5.524,5.524,0,0,1-3.334.9" transform="translate(-154.387 -154.53)" fill="#fff"/>
        <path id="Trazado_901851" data-name="Trazado 901851" d="M201.3,109.51a1.94,1.94,0,0,1,.579-2.357,1.9,1.9,0,0,1,2.141.02c.661.49.834,1.194.538,2.306a2.191,2.191,0,0,1,.785,1.928c-.033.514-.224.756-.609.772-.414.018-.685-.239-.643-.783.064-.826-.308-1.012-1.036-.98-.161.007-.323-.006-.484,0-.614.036-.762.187-.8.8-.005.092,0,.185,0,.277-.037.461-.233.682-.606.686s-.595-.205-.633-.671a2.124,2.124,0,0,1,.77-2m1.6-.371a.508.508,0,0,0,.572-.47.523.523,0,0,0-.53-.583.484.484,0,0,0-.523.511.468.468,0,0,0,.481.541" transform="translate(-172.752 -92.039)" fill="#fff"/>
        <path id="Trazado_901852" data-name="Trazado 901852" d="M201.288,19.774c-.275-1.182-.081-1.9.624-2.381a1.84,1.84,0,0,1,2.08.025c.69.489.872,1.212.572,2.338a2.17,2.17,0,0,1,.78,1.944c-.035.5-.256.749-.64.747s-.59-.245-.625-.753c-.014-.206.041-.453-.052-.612-.4-.679-1.077-.287-1.631-.358-.4-.051-.581.217-.613.588-.016.183-.006.369-.017.553a.607.607,0,0,1-1.2.073,2.169,2.169,0,0,1,.726-2.164m1.666-1.412a.465.465,0,0,0-.535.494.49.49,0,0,0,.47.57.525.525,0,0,0,.585-.538.491.491,0,0,0-.519-.526" transform="translate(-172.756 -14.718)" fill="#fff"/>
        <path id="Trazado_901853" data-name="Trazado 901853" d="M201.306,199.034c-.3-1.136-.1-1.889.584-2.369a1.8,1.8,0,0,1,2.074,0,1.927,1.927,0,0,1,.6,2.371,2.088,2.088,0,0,1,.782,1.888c-.029.525-.274.816-.664.8-.372-.016-.571-.273-.6-.78-.06-.953-.089-.981-1.065-.983-.115,0-.23,0-.345,0-.746.011-.859.125-.894.89,0,.069,0,.138,0,.207a.6.6,0,0,1-.564.661c-.347.044-.623-.206-.667-.637a2.11,2.11,0,0,1,.765-2.043m1.607-1.429a.481.481,0,0,0-.493.533.469.469,0,0,0,.5.536.515.515,0,0,0,.558-.559.521.521,0,0,0-.561-.51" transform="translate(-172.757 -169.149)" fill="#fff"/>
      </g>
    </g>
  </g>
</svg>
