<svg xmlns="http://www.w3.org/2000/svg" xmlns:xlink="http://www.w3.org/1999/xlink" width="499.429" height="525.924" viewBox="0 0 499.429 525.924">
  <defs>
    <clipPath id="clip-path">
      <rect id="Rectángulo_402368" data-name="Rectángulo 402368" width="499.429" height="525.924" rx="30" transform="translate(923.038 6692.157)" fill="#ffedcc"/>
    </clipPath>
    <clipPath id="clip-path-2">
      <rect id="Rectángulo_402523" data-name="Rectángulo 402523" width="554.869" height="563.987" fill="none"/>
    </clipPath>
    <clipPath id="clip-path-3">
      <path id="Trazado_902013" data-name="Trazado 902013" d="M320.941,328.354a36.755,36.755,0,0,0-36.756,36.755V537.523H446.164V365.109a36.756,36.756,0,0,0-36.756-36.755Z" transform="translate(-284.185 -328.354)" fill="none"/>
    </clipPath>
  </defs>
  <g id="Enmascarar_grupo_1098736" data-name="Enmascarar grupo 1098736" transform="translate(-923.038 -6692.157)" clip-path="url(#clip-path)">
    <g id="Grupo_1102257" data-name="Grupo 1102257" transform="translate(897.373 6683.313)">
      <g id="Grupo_1102252" data-name="Grupo 1102252">
        <g id="Grupo_1102251" data-name="Grupo 1102251" clip-path="url(#clip-path-2)">
          <path id="Trazado_902009" data-name="Trazado 902009" d="M446.163,537.524H284.185V365.11a36.756,36.756,0,0,1,36.756-36.756h88.466a36.756,36.756,0,0,1,36.756,36.756Z" transform="translate(-87.439 -101.029)" fill="#a7be9d"/>
        </g>
      </g>
      <g id="Grupo_1102254" data-name="Grupo 1102254" transform="translate(196.746 227.325)">
        <g id="Grupo_1102253" data-name="Grupo 1102253" clip-path="url(#clip-path-3)">
          <path id="Trazado_902010" data-name="Trazado 902010" d="M517.186,422.669h-3.548v-3.362a14.156,14.156,0,0,0-25.752-8.12,11.35,11.35,0,0,0-19.764,7.618v.173h-9.185a8.752,8.752,0,1,0,0,17.5h58.249a6.907,6.907,0,0,0,0-13.814" transform="translate(-335.26 -351.983)" fill="#fff"/>
          <path id="Trazado_902011" data-name="Trazado 902011" d="M264.006,432.037h3.548v-3.362a14.156,14.156,0,0,1,25.752-8.12,11.35,11.35,0,0,1,19.764,7.618v.173h9.185a8.752,8.752,0,0,1,0,17.5H264.006a6.907,6.907,0,0,1,0-13.815" transform="translate(-275.851 -354.865)" fill="#fff"/>
          <path id="Trazado_902012" data-name="Trazado 902012" d="M503.25,610.272c0,34.506-82.264,62.48-183.742,62.48s-183.742-27.973-183.742-62.48,82.264-62.48,183.742-62.48,183.742,27.973,183.742,62.48" transform="translate(-238.519 -395.871)" fill="#85a477"/>
        </g>
      </g>
      <g id="Grupo_1102256" data-name="Grupo 1102256">
        <g id="Grupo_1102255" data-name="Grupo 1102255" clip-path="url(#clip-path-2)">
          <path id="Trazado_902014" data-name="Trazado 902014" d="M158.6,630.484H413.259L544.247,739.55H27.617Z" transform="translate(-8.497 -193.989)" fill="#a39ad8"/>
          <line id="Línea_634" data-name="Línea 634" x1="107.481" y2="127.325" transform="translate(64.419 436.495)" fill="none" stroke="#c0bae4" stroke-miterlimit="10" stroke-width="0.75"/>
          <line id="Línea_635" data-name="Línea 635" x1="83.597" y2="127.325" transform="translate(111.755 436.495)" fill="none" stroke="#c0bae4" stroke-miterlimit="10" stroke-width="0.75"/>
          <line id="Línea_636" data-name="Línea 636" x1="59.712" y2="127.325" transform="translate(159.092 436.495)" fill="none" stroke="#c0bae4" stroke-miterlimit="10" stroke-width="0.75"/>
          <line id="Línea_637" data-name="Línea 637" x1="35.827" y2="127.325" transform="translate(206.43 436.495)" fill="none" stroke="#c0bae4" stroke-miterlimit="10" stroke-width="0.75"/>
          <line id="Línea_638" data-name="Línea 638" x1="11.942" y2="127.325" transform="translate(253.766 436.495)" fill="none" stroke="#c0bae4" stroke-miterlimit="10" stroke-width="0.75"/>
          <line id="Línea_639" data-name="Línea 639" x2="11.942" y2="127.325" transform="translate(289.161 436.495)" fill="none" stroke="#c0bae4" stroke-miterlimit="10" stroke-width="0.75"/>
          <line id="Línea_640" data-name="Línea 640" x2="35.827" y2="127.325" transform="translate(312.613 436.495)" fill="none" stroke="#c0bae4" stroke-miterlimit="10" stroke-width="0.75"/>
          <line id="Línea_641" data-name="Línea 641" x2="59.712" y2="127.325" transform="translate(336.065 436.495)" fill="none" stroke="#c0bae4" stroke-miterlimit="10" stroke-width="0.75"/>
          <line id="Línea_642" data-name="Línea 642" x2="83.597" y2="127.325" transform="translate(359.517 436.495)" fill="none" stroke="#c0bae4" stroke-miterlimit="10" stroke-width="0.75"/>
          <line id="Línea_643" data-name="Línea 643" x2="107.481" y2="127.325" transform="translate(382.969 436.495)" fill="none" stroke="#c0bae4" stroke-miterlimit="10" stroke-width="0.75"/>
          <line id="Línea_644" data-name="Línea 644" x2="504.336" transform="translate(25.267 446.906)" fill="none" stroke="#c0bae4" stroke-miterlimit="10" stroke-width="0.75"/>
          <line id="Línea_645" data-name="Línea 645" x2="504.336" transform="translate(25.267 466.194)" fill="none" stroke="#c0bae4" stroke-miterlimit="10" stroke-width="0.75"/>
          <line id="Línea_646" data-name="Línea 646" x2="504.336" transform="translate(25.267 489.304)" fill="none" stroke="#c0bae4" stroke-miterlimit="10" stroke-width="0.75"/>
          <line id="Línea_647" data-name="Línea 647" x2="504.336" transform="translate(25.267 517.344)" fill="none" stroke="#c0bae4" stroke-miterlimit="10" stroke-width="0.75"/>
          <path id="Trazado_902015" data-name="Trazado 902015" d="M734.628,4.777,584.236,105.805V437.964L734.628,565.29Z" transform="translate(-179.759 -1.47)" fill="#d6d3ee"/>
          <path id="Trazado_902016" data-name="Trazado 902016" d="M734.628,4.777,584.236,105.805v64.46l150.392-56.713Z" transform="translate(-179.759 -1.47)" fill="#a39ad8"/>
          <path id="Trazado_902017" data-name="Trazado 902017" d="M0,4.777,150.392,105.805V437.964L0,565.29Z" transform="translate(0 -1.47)" fill="#d6d3ee"/>
          <path id="Trazado_902018" data-name="Trazado 902018" d="M0,4.777,150.392,105.805v64.46L0,113.551Z" transform="translate(0 -1.47)" fill="#a39ad8"/>
          <path id="Trazado_902019" data-name="Trazado 902019" d="M609.986,556.4l-14.541-12.311V329.8l14.541-1.446Z" transform="translate(-183.208 -101.029)" fill="#c0bae4"/>
          <path id="Trazado_902020" data-name="Trazado 902020" d="M773.7,651.523l-31.425-26.605V314.457l31.425-3.124Z" transform="translate(-228.385 -95.792)" fill="#c0bae4"/>
          <path id="Trazado_902021" data-name="Trazado 902021" d="M652.839,419.555l-27.512-6.882V326.256l27.512-2.735Z" transform="translate(-192.402 -99.542)" fill="#c0bae4"/>
          <path id="Trazado_902022" data-name="Trazado 902022" d="M706.917,427.777l-35.571-8.9V321.325l35.571-3.536Z" transform="translate(-206.561 -97.778)" fill="#c0bae4"/>
          <path id="Trazado_902023" data-name="Trazado 902023" d="M185.018,556.4l14.541-12.311V329.8l-14.541-1.446Z" transform="translate(-56.927 -101.029)" fill="#c0bae4"/>
          <path id="Trazado_902024" data-name="Trazado 902024" d="M13.8,651.523l31.426-26.605V314.457L13.8,311.333Z" transform="translate(-4.246 -95.792)" fill="#c0bae4"/>
          <path id="Trazado_902025" data-name="Trazado 902025" d="M136.4,419.555l27.512-6.882V326.256L136.4,323.521Z" transform="translate(-41.968 -99.542)" fill="#c0bae4"/>
          <path id="Trazado_902026" data-name="Trazado 902026" d="M78.741,427.777l35.571-8.9V321.325l-35.571-3.536Z" transform="translate(-24.227 -97.778)" fill="#c0bae4"/>
          <path id="Trazado_902027" data-name="Trazado 902027" d="M552.187,11.991H6.972l145.565,96.6H406.622Z" transform="translate(-2.145 -3.689)" fill="#d6d3ee"/>
          <path id="Trazado_902028" data-name="Trazado 902028" d="M235.582,140.956h-3.4L218.1,129.9h3.826Z" transform="translate(-67.105 -39.968)" fill="#fff"/>
          <path id="Trazado_902029" data-name="Trazado 902029" d="M207.147,118.2h-3.958l-19.475-15.29h4.547Z" transform="translate(-56.526 -31.662)" fill="#fff"/>
          <path id="Trazado_902030" data-name="Trazado 902030" d="M166.806,85.915h-4.733L133.379,63.387h5.6Z" transform="translate(-41.038 -19.503)" fill="#fff"/>
          <path id="Trazado_902031" data-name="Trazado 902031" d="M105,36.481H99.108L52.642,0h7.294Z" transform="translate(-16.197 0)" fill="#fff"/>
          <path id="Trazado_902032" data-name="Trazado 902032" d="M561.515,140.956h-3.4L571.771,129.9H575.6Z" transform="translate(-171.722 -39.968)" fill="#fff"/>
          <path id="Trazado_902033" data-name="Trazado 902033" d="M587.862,118.2H583.9l18.886-15.29h4.547Z" transform="translate(-179.657 -31.662)" fill="#fff"/>
          <path id="Trazado_902034" data-name="Trazado 902034" d="M624.537,85.915H619.8L647.63,63.387h5.6Z" transform="translate(-190.703 -19.503)" fill="#fff"/>
          <path id="Trazado_902035" data-name="Trazado 902035" d="M679.09,36.481H673.2L718.264,0h7.293Z" transform="translate(-207.133 0)" fill="#fff"/>
          <line id="Línea_648" data-name="Línea 648" x2="96.784" y2="99.971" transform="translate(96.182 8.301)" fill="none" stroke="#a39ad8" stroke-miterlimit="10" stroke-width="2.035"/>
          <line id="Línea_649" data-name="Línea 649" x2="48.392" y2="99.971" transform="translate(186.808 8.301)" fill="none" stroke="#a39ad8" stroke-miterlimit="10" stroke-width="2.035"/>
          <line id="Línea_650" data-name="Línea 650" y2="99.971" transform="translate(277.434 8.301)" fill="none" stroke="#a39ad8" stroke-miterlimit="10" stroke-width="2.035"/>
          <line id="Línea_651" data-name="Línea 651" x1="48.392" y2="99.971" transform="translate(319.669 8.301)" fill="none" stroke="#a39ad8" stroke-miterlimit="10" stroke-width="2.035"/>
          <line id="Línea_652" data-name="Línea 652" x1="96.784" y2="99.971" transform="translate(361.903 8.301)" fill="none" stroke="#a39ad8" stroke-miterlimit="10" stroke-width="2.035"/>
          <rect id="Rectángulo_402524" data-name="Rectángulo 402524" width="254.085" height="63.878" transform="translate(150.392 104.917)" fill="#c0bae4"/>
          <path id="Trazado_902036" data-name="Trazado 902036" d="M416.458,216.628a28.3,28.3,0,1,1-28.3-28.3,28.3,28.3,0,0,1,28.3,28.3" transform="translate(-110.72 -57.944)" fill="#fff"/>
          <path id="Trazado_902037" data-name="Trazado 902037" d="M413.529,218.971A23.033,23.033,0,1,1,390.5,195.938a23.033,23.033,0,0,1,23.033,23.033" transform="translate(-113.062 -60.287)" fill="#a39ad8"/>
          <path id="Trazado_902038" data-name="Trazado 902038" d="M402.11,228.106a2.478,2.478,0,1,1-2.478-2.478,2.477,2.477,0,0,1,2.478,2.478" transform="translate(-122.197 -69.422)" fill="#fff"/>
          <path id="Trazado_902039" data-name="Trazado 902039" d="M392.335,203.473h-1.781v-3.822h1.781Zm0,33.28h-1.781v3.823h1.781Zm-10.314-34.727-1.542.89,1.911,3.31,1.542-.89Zm18.551,32.131-1.542.89,1.911,3.311,1.542-.89Zm-26.3-24.917-.89,1.542,3.31,1.912.89-1.542Zm32.132,18.551-.89,1.542,3.311,1.911.89-1.542Zm-35.232-6.65H375V219.36h-3.823Zm37.1,0H412.1V219.36h-3.822Zm-34.727,8.534.89,1.542,3.311-1.911-.89-1.542Zm32.132-18.551.89,1.542,3.311-1.911-.89-1.542Zm-24.918,26.3,1.543.89L384.219,235l-1.542-.89Zm18.551-32.131,1.542.89,1.912-3.311-1.542-.89Z" transform="translate(-114.204 -61.429)" fill="#fff"/>
          <path id="Trazado_902040" data-name="Trazado 902040" d="M404.31,210.171l-6.612,11.4-6.83-17.187" transform="translate(-120.263 -62.885)" fill="none" stroke="#fff" stroke-miterlimit="10" stroke-width="1"/>
          <path id="Trazado_902041" data-name="Trazado 902041" d="M422.364,585.517l-.872-26.889H355.908l-.872,26.889c-6.435,26.378-10.934,53.229-15.547,80.053h34.918l12.063-72.064h4.461l12.064,72.064h34.918c-4.614-26.823-9.112-53.675-15.547-80.053" transform="translate(-104.455 -171.88)" fill="#794f95"/>
          <path id="Trazado_902042" data-name="Trazado 902042" d="M417.189,462.558H393.364l1.118-14.5h21.589Z" transform="translate(-121.031 -137.861)" fill="#9990d4"/>
          <path id="Trazado_902043" data-name="Trazado 902043" d="M459.958,424.951l34.679-46.4s-2.615-10.946,4.747-10.655c1.41-3.492,3.682-4.483,6.974-2.519,2-.748,4.074.788,4.65,2.616a5.73,5.73,0,0,1,4.553,4.359c1.492,5.933-1.765,11.1-6.587,15.209L475.36,445.2Z" transform="translate(-141.521 -112.114)" fill="#9990d4"/>
          <path id="Trazado_902044" data-name="Trazado 902044" d="M538.8,375.65a3.42,3.42,0,0,1-1.814,3.39" transform="translate(-165.222 -115.581)" fill="none" stroke="#5e2b80" stroke-linecap="round" stroke-linejoin="round" stroke-width="1"/>
          <path id="Trazado_902045" data-name="Trazado 902045" d="M526.667,366.679a4.545,4.545,0,0,1,.5,4.351" transform="translate(-162.046 -112.821)" fill="none" stroke="#5e2b80" stroke-linecap="round" stroke-linejoin="round" stroke-width="1"/>
          <path id="Trazado_902046" data-name="Trazado 902046" d="M533.222,370.545a3.805,3.805,0,0,1-.382,3.981" transform="translate(-163.946 -114.01)" fill="none" stroke="#5e2b80" stroke-linecap="round" stroke-linejoin="round" stroke-width="1"/>
          <path id="Trazado_902047" data-name="Trazado 902047" d="M478.266,463.189l-11.672-24.141-6.634,8.878,15.4,20.245Z" transform="translate(-141.521 -135.087)" fill="#5e2b80"/>
          <path id="Trazado_902048" data-name="Trazado 902048" d="M325.64,498.579l-10.322,11.206A13.88,13.88,0,0,0,319,531.437l28.344,15.117v-16.42l-12.459-8.714,5.306-4.543Z" transform="translate(-95.888 -153.404)" fill="#9990d4"/>
          <path id="Trazado_902049" data-name="Trazado 902049" d="M328.77,498.578l-6.953,7.548,17.716,13.99,3.785-3.241Z" transform="translate(-99.017 -153.404)" fill="#5e2b80"/>
          <path id="Trazado_902050" data-name="Trazado 902050" d="M438.886,472.294l-19.565-24.232-9.922,8.422-13.454,1.932c-9.57-.075-17.286,1.131-23.506,3.374,0,0-13.567,2.482-21.316,5.237s-17.919,9.063-25.767,16.317l18.115,24.023,7.652-6.092v28.37H417.58V499.98a14.5,14.5,0,0,1,4.918-10.9,184.56,184.56,0,0,0,16.388-16.782" transform="translate(-100.107 -137.861)" fill="#dedbf1"/>
          <path id="Trazado_902051" data-name="Trazado 902051" d="M372.911,525.009l-11.047,2.51a9.375,9.375,0,0,0-7.138,7.163,98.632,98.632,0,0,0-1.852,16.773,3.125,3.125,0,0,0,3.12,3.23h21.42Z" transform="translate(-108.573 -161.536)" fill="#b1aade"/>
          <path id="Trazado_902052" data-name="Trazado 902052" d="M437.323,525.009l11.047,2.51a9.375,9.375,0,0,1,7.138,7.163,98.629,98.629,0,0,1,1.852,16.773,3.125,3.125,0,0,1-3.12,3.23h-21.42Z" transform="translate(-133.171 -161.536)" fill="#b1aade"/>
          <line id="Línea_653" data-name="Línea 653" x2="2.319" y2="28.535" transform="translate(313.206 324.697)" fill="none" stroke="#5e2b80" stroke-linecap="round" stroke-linejoin="round" stroke-width="1"/>
          <line id="Línea_654" data-name="Línea 654" x1="3.681" y2="15.111" transform="translate(318.437 333.567)" fill="none" stroke="#5e2b80" stroke-linecap="round" stroke-linejoin="round" stroke-width="1"/>
          <line id="Línea_655" data-name="Línea 655" x1="0.872" y1="25.434" transform="translate(250.581 334.433)" fill="none" stroke="#5e2b80" stroke-linecap="round" stroke-linejoin="round" stroke-width="1"/>
          <path id="Trazado_902053" data-name="Trazado 902053" d="M373.427,585.26h16.2l-.688,7.989a4.735,4.735,0,0,1-4.717,4.328h-5.388a4.735,4.735,0,0,1-4.717-4.328Z" transform="translate(-114.897 -180.074)" fill="#5e2b80"/>
          <path id="Trazado_902054" data-name="Trazado 902054" d="M424.318,585.26h16.2l-.688,7.989a4.735,4.735,0,0,1-4.717,4.328h-5.388a4.735,4.735,0,0,1-4.717-4.328Z" transform="translate(-130.555 -180.074)" fill="#5e2b80"/>
          <path id="Trazado_902055" data-name="Trazado 902055" d="M399.62,479.754a7.146,7.146,0,0,1,13.148,0h3.275a10.236,10.236,0,0,0-19.7,0Z" transform="translate(-121.949 -145.321)" fill="#8378cb"/>
          <path id="Trazado_902056" data-name="Trazado 902056" d="M415.14,486.7H378.2l-12.644,57.534a6.96,6.96,0,0,0,6.8,8.455h48.632a6.961,6.961,0,0,0,6.8-8.455Z" transform="translate(-112.424 -149.751)" fill="#8378cb"/>
          <path id="Trazado_902057" data-name="Trazado 902057" d="M420.367,486.7H383.426l-1.048,4.771c1.512,5.983,6.084,13.471,19.519,13.471s18.006-7.488,19.519-13.471Z" transform="translate(-117.651 -149.751)" fill="#5e2b80"/>
          <path id="Trazado_902058" data-name="Trazado 902058" d="M365.555,569.214a6.961,6.961,0,0,0,6.8,8.455h48.633a6.961,6.961,0,0,0,6.8-8.455l-.294-1.34H365.849Z" transform="translate(-112.424 -174.725)" fill="#b1aade"/>
          <path id="Trazado_902059" data-name="Trazado 902059" d="M392.036,485.86h-7.062l-3.655-16.218a1.832,1.832,0,0,1,1.482-2.21l3.184-.537a1.832,1.832,0,0,1,2.092,1.4Z" transform="translate(-117.311 -143.648)" fill="#8378cb"/>
          <path id="Trazado_902060" data-name="Trazado 902060" d="M424.323,483.43h7.061l4.983-22.106a1.928,1.928,0,0,0-2.107-2.339l-3.194.377a1.928,1.928,0,0,0-1.655,1.491Z" transform="translate(-130.557 -141.217)" fill="#8378cb"/>
          <path id="Trazado_902061" data-name="Trazado 902061" d="M413.778,551.927H391.793a6.525,6.525,0,0,1-6.512-6.942l.8-12.533a3.451,3.451,0,0,1,3.444-3.23h26.513a3.451,3.451,0,0,1,3.444,3.23l.8,12.533A6.525,6.525,0,0,1,413.778,551.927Z" transform="translate(-118.54 -162.832)" fill="none" stroke="#e0ddf2" stroke-miterlimit="10" stroke-width="1"/>
          <path id="Trazado_902062" data-name="Trazado 902062" d="M381.4,483.063h40.359s2.188,17.343-20.18,17.343-20.18-17.343-20.18-17.343" transform="translate(-117.331 -148.63)" fill="#b1aade"/>
          <path id="Trazado_902063" data-name="Trazado 902063" d="M344.375,531.571l-1.611,1.621a.909.909,0,0,0,.645,1.549h5.5Z" transform="translate(-105.381 -163.555)" fill="#5e2b80"/>
          <path id="Trazado_902064" data-name="Trazado 902064" d="M438.748,709.47c-1.477,8.187-1.935,15.813-.772,22.548h43.4s0-6.95-7.721-11.274a63.243,63.243,0,0,1-13.977-11.274Z" transform="translate(-134.555 -218.292)" fill="#8378cb"/>
          <path id="Trazado_902065" data-name="Trazado 902065" d="M437.457,723.669a57.8,57.8,0,0,0,.049,8.054h18.531c-4.811-9.621-13.667-13.009-18.58-8.054" transform="translate(-134.562 -221.963)" fill="#5e2b80"/>
          <path id="Trazado_902066" data-name="Trazado 902066" d="M488.337,724.847c-1.132-.633-2.226-1.327-3.279-2.043h-.008a24.8,24.8,0,0,1,3.271,11.1l7.475.366a14.528,14.528,0,0,0-7.459-9.421" transform="translate(-149.241 -222.394)" fill="#5e2b80"/>
          <path id="Trazado_902067" data-name="Trazado 902067" d="M438.008,739.67h43.4a11.258,11.258,0,0,0-.777-3.527l-43.2-1.806a45.389,45.389,0,0,0,.581,5.333" transform="translate(-134.589 -225.943)" fill="#fff"/>
          <path id="Trazado_902068" data-name="Trazado 902068" d="M362.815,709.47c1.477,8.187,1.935,15.813.772,22.548h-43.4s0-6.95,7.721-11.274a63.24,63.24,0,0,0,13.977-11.274Z" transform="translate(-98.517 -218.292)" fill="#8378cb"/>
          <path id="Trazado_902069" data-name="Trazado 902069" d="M375.375,723.669a57.8,57.8,0,0,1-.05,8.054H356.794c4.811-9.621,13.667-13.009,18.581-8.054" transform="translate(-109.779 -221.963)" fill="#5e2b80"/>
          <path id="Trazado_902070" data-name="Trazado 902070" d="M328.029,724.847c1.132-.633,2.226-1.327,3.28-2.043h.008a24.794,24.794,0,0,0-3.272,11.1l-7.475.366a14.527,14.527,0,0,1,7.459-9.421" transform="translate(-98.634 -222.394)" fill="#5e2b80"/>
          <path id="Trazado_902071" data-name="Trazado 902071" d="M363.588,739.67h-43.4a11.257,11.257,0,0,1,.777-3.527l43.2-1.806a45.507,45.507,0,0,1-.582,5.333" transform="translate(-98.517 -225.943)" fill="#fff"/>
          <path id="Trazado_902072" data-name="Trazado 902072" d="M430.478,708.682H465.4q-.855-4.967-1.707-9.935H428.815Z" transform="translate(-131.939 -214.992)" fill="#5e2b80"/>
          <path id="Trazado_902073" data-name="Trazado 902073" d="M376.07,698.747H341.2q-.855,4.967-1.707,9.935h34.918Z" transform="translate(-104.455 -214.992)" fill="#5e2b80"/>
          <path id="Trazado_902074" data-name="Trazado 902074" d="M381.245,425.433h0a3.9,3.9,0,0,0-4.543,4.1,14.143,14.143,0,0,0,1.457,5.124,6.374,6.374,0,0,0,5,3.479l2.7.3Z" transform="translate(-115.9 -130.883)" fill="#9990d4"/>
          <path id="Trazado_902075" data-name="Trazado 902075" d="M435.824,425.433h0a3.9,3.9,0,0,1,4.543,4.1,14.145,14.145,0,0,1-1.457,5.124,6.374,6.374,0,0,1-5,3.479l-2.7.3Z" transform="translate(-132.678 -130.883)" fill="#9990d4"/>
          <path id="Trazado_902076" data-name="Trazado 902076" d="M421.488,401.934a8.576,8.576,0,0,0,.2-1.835c0-4.232-3.049-7.662-6.81-7.662-.136,0-.27.014-.4.023a11,11,0,0,0-8.648-4.184,11.118,11.118,0,0,0-2.085.2,7.979,7.979,0,0,0-11.879.039,9.022,9.022,0,0,0-2.049-.241,9.553,9.553,0,0,0-9.36,9.668c-4.171.831-7.287,4.1-7.287,8.019,0,4.545,4.192,8.229,9.364,8.229,4.551,0,8.339-2.853,9.185-6.634a9.242,9.242,0,0,0,4.76-2.7,11,11,0,0,0,9.351,5.188,11.181,11.181,0,0,0,2.13-.208,8.091,8.091,0,0,0,7.739,6.385,8.24,8.24,0,0,0,7.993-8.466,8.7,8.7,0,0,0-2.2-5.827" transform="translate(-114.818 -118.718)" fill="#5e2b80"/>
          <path id="Trazado_902077" data-name="Trazado 902077" d="M401.127,409.456c-12.138-2.085-21.249,6.63-21.249,6.63-.066,9.734,5.835,18.526,8.248,21.71a6.468,6.468,0,0,0,2.408,1.957c2.316,1.093,7.042,3.093,10.594,3.093s8.277-2,10.594-3.093a6.468,6.468,0,0,0,2.408-1.957c2.413-3.184,8.313-11.976,8.248-21.71,0,0-9.112-8.714-21.249-6.63" transform="translate(-116.882 -125.883)" fill="#5e2b80"/>
          <path id="Trazado_902078" data-name="Trazado 902078" d="M387.929,418.65a16.914,16.914,0,0,0,1.543,9.376" transform="translate(-119.322 -128.811)" fill="none" stroke="#794f95" stroke-linecap="round" stroke-linejoin="round" stroke-width="1"/>
          <path id="Trazado_902079" data-name="Trazado 902079" d="M396.963,418.38a29.1,29.1,0,0,0,.959,9.714" transform="translate(-122.119 -128.728)" fill="none" stroke="#794f95" stroke-linecap="round" stroke-linejoin="round" stroke-width="1"/>
          <path id="Trazado_902080" data-name="Trazado 902080" d="M406.031,418.245a88.338,88.338,0,0,0,.325,9.883" transform="translate(-124.922 -128.687)" fill="none" stroke="#794f95" stroke-linecap="round" stroke-linejoin="round" stroke-width="1"/>
          <path id="Trazado_902081" data-name="Trazado 902081" d="M414.957,418.245a88.513,88.513,0,0,1-.325,9.883" transform="translate(-127.575 -128.687)" fill="none" stroke="#794f95" stroke-linecap="round" stroke-linejoin="round" stroke-width="1"/>
          <path id="Trazado_902082" data-name="Trazado 902082" d="M423.724,418.38a29.1,29.1,0,0,1-.959,9.714" transform="translate(-130.077 -128.728)" fill="none" stroke="#794f95" stroke-linecap="round" stroke-linejoin="round" stroke-width="1"/>
          <path id="Trazado_902083" data-name="Trazado 902083" d="M432.473,418.65a16.914,16.914,0,0,1-1.543,9.376" transform="translate(-132.59 -128.811)" fill="none" stroke="#794f95" stroke-linecap="round" stroke-linejoin="round" stroke-width="1"/>
          <path id="Trazado_902084" data-name="Trazado 902084" d="M149,449.268l-43.167-52.2-3.306-11.139a2.042,2.042,0,0,0-3.988.807l.532,4.785L87.48,388.495a3.964,3.964,0,0,0-4.843,2.861l-1.851,7.289a3.964,3.964,0,0,0,2.4,4.669l13.415,5.222,41.463,61.573s26.378-15.391,10.93-20.841" transform="translate(-24.819 -118.293)" fill="#6f61c2"/>
          <line id="Línea_656" data-name="Línea 656" x1="10.141" y1="2.857" transform="translate(58.665 273.296)" fill="none" stroke="#5e2b80" stroke-linecap="round" stroke-linejoin="round" stroke-width="1"/>
          <line id="Línea_657" data-name="Línea 657" x1="10.141" y1="2.857" transform="translate(57.818 277.03)" fill="none" stroke="#5e2b80" stroke-linecap="round" stroke-linejoin="round" stroke-width="1"/>
          <line id="Línea_658" data-name="Línea 658" x1="10.141" y1="2.857" transform="translate(56.97 280.764)" fill="none" stroke="#5e2b80" stroke-linecap="round" stroke-linejoin="round" stroke-width="1"/>
          <path id="Trazado_902085" data-name="Trazado 902085" d="M183.691,461.219l.465-12.268,4.825-24.513,17.468,1.255.441,18.756a6.639,6.639,0,0,1-5.652,6.722l-.1,8.589Z" transform="translate(-56.519 -130.592)" fill="#6f61c2"/>
          <path id="Trazado_902086" data-name="Trazado 902086" d="M109.923,555.847c-7.381,7.5-16.875,18.393-23.682,30.4a3.447,3.447,0,0,0,.727,4.31l5.877,5.093a7.6,7.6,0,0,0,5.59,1.836c15.833-1.3,29.207-6.979,45.768-11.84l6.738-36.466Z" transform="translate(-26.395 -168.973)" fill="#8378cb"/>
          <path id="Trazado_902087" data-name="Trazado 902087" d="M118.928,572.333s25.377-3.293,38.777-7.467l2.9-15.686-41.018,6.667c-.775.787-1.577,1.62-2.393,2.48Z" transform="translate(-36.059 -168.973)" fill="#806432"/>
          <path id="Trazado_902088" data-name="Trazado 902088" d="M112.966,558.81A68.912,68.912,0,0,0,96.1,572.024a1.641,1.641,0,0,0,.633,2.625l7.042,2.7Z" transform="translate(-29.438 -171.936)" fill="#806432"/>
          <path id="Trazado_902089" data-name="Trazado 902089" d="M109.923,558.81c-7.381,7.5-16.875,18.393-23.682,30.4a3.447,3.447,0,0,0,.727,4.31l5.664,4.909a2.927,2.927,0,0,0,4.408-.663,266.887,266.887,0,0,0,17.269-33.458Z" transform="translate(-26.395 -171.936)" fill="#b1aade"/>
          <path id="Trazado_902090" data-name="Trazado 902090" d="M243.031,632.924,256.4,702.281H236.251L222.3,632.924Z" transform="translate(-68.398 -194.74)" fill="#6f61c2"/>
          <path id="Trazado_902091" data-name="Trazado 902091" d="M111.945,666.2l37.746-13.912a30.506,30.506,0,0,0,15.864-13.362l2.838-4.91H145.514l-32.063,11.818Z" transform="translate(-34.444 -195.075)" fill="#6f61c2"/>
          <path id="Trazado_902092" data-name="Trazado 902092" d="M211.087,554.207a277.286,277.286,0,0,1,11.242,57.651H142.77c2.846-20.874,9.1-40.2,19.457-57.651Z" transform="translate(-43.928 -170.52)" fill="#85a477"/>
          <path id="Trazado_902093" data-name="Trazado 902093" d="M214.569,554.207q3.061,28.826,3.911,57.651" transform="translate(-66.019 -170.52)" fill="none" stroke="#fff" stroke-linecap="round" stroke-linejoin="round" stroke-width="0.973"/>
          <path id="Trazado_902094" data-name="Trazado 902094" d="M180.238,611.858a374.988,374.988,0,0,1,6.769-57.651" transform="translate(-55.456 -170.52)" fill="none" stroke="#fff" stroke-linecap="round" stroke-linejoin="round" stroke-width="0.973"/>
          <line id="Línea_659" data-name="Línea 659" x1="1.589" y2="57.651" transform="translate(138.621 383.687)" fill="none" stroke="#fff" stroke-linecap="round" stroke-linejoin="round" stroke-width="0.973"/>
          <path id="Trazado_902095" data-name="Trazado 902095" d="M161.5,611.858c1.918-20.874,6.135-40.2,13.114-57.651" transform="translate(-49.691 -170.52)" fill="none" stroke="#fff" stroke-linecap="round" stroke-linejoin="round" stroke-width="0.973"/>
          <path id="Trazado_902096" data-name="Trazado 902096" d="M228.01,554.207a398.653,398.653,0,0,1,7.577,57.651" transform="translate(-70.155 -170.52)" fill="none" stroke="#fff" stroke-linecap="round" stroke-linejoin="round" stroke-width="0.973"/>
          <path id="Trazado_902097" data-name="Trazado 902097" d="M218.739,555.98c-.287-.974-.555-1.948-.852-2.922H167.679q-2.647,4.462-4.945,9.084a3.914,3.914,0,0,0,4.88,5.407c12.595-4.835,30.023-8.606,51.124-11.569" transform="translate(-49.941 -170.166)" fill="#5e2b80"/>
          <path id="Trazado_902098" data-name="Trazado 902098" d="M205.517,469.158c-11.821,2.557-23.038,4.042-33.275,3.786a9.735,9.735,0,0,0-9.393,6.317,39.392,39.392,0,0,0-2.13,14.994l4.166,27.075c-1.765,2.4-2.2,4.522-1.142,6.334a4.9,4.9,0,0,0,4.267,2.275h46.747a6.223,6.223,0,0,0,5.595-8.972q-.088-.175-.181-.354l.189-13.507Z" transform="translate(-49.442 -144.352)" fill="#aaa2db"/>
          <path id="Trazado_902099" data-name="Trazado 902099" d="M237.716,682.14c-1.839,0-3.645-.095-5.417-.264l7.028,34.943h20.149l-7.064-36.647a54.925,54.925,0,0,1-14.7,1.968" transform="translate(-71.474 -209.277)" fill="#fff"/>
          <path id="Trazado_902100" data-name="Trazado 902100" d="M239.538,719.62h4.7a5.652,5.652,0,0,1,3.283,1c3.793,2.7,6.682,2.017,9.26.183a2.882,2.882,0,0,0,1.143-2.895l-.361-1.873a9.065,9.065,0,0,1,5.862,4.844c7.393,1.829,10.424,5.409,11.236,9.881H233.495a24.15,24.15,0,0,1,1.19-7.712,5.12,5.12,0,0,1,4.853-3.428" transform="translate(-71.842 -220.312)" fill="#85a477"/>
          <rect id="Rectángulo_402525" data-name="Rectángulo 402525" width="41.169" height="5.521" transform="translate(161.653 510.448)" fill="#5e2b80"/>
          <path id="Trazado_902101" data-name="Trazado 902101" d="M133.711,640.3l-20.26,7.467-1.506,20.367,29.947-11.038c.336-7.419-2.955-13.744-8.181-16.8" transform="translate(-34.444 -197.009)" fill="#fff"/>
          <path id="Trazado_902102" data-name="Trazado 902102" d="M84.6,684.116l2.718,1.482a9.6,9.6,0,0,0,4.979,1.264c3.81-.169,6.934-2.551,9.181-6.27l4.072-6.744,4.218-5.528-2.185.7c-1.968-1.421-.047-6.377,1.667-9.888a8.156,8.156,0,0,0-.179-7.555,6.841,6.841,0,0,0-6.248-3.5l-5.543,1.372Z" transform="translate(-26.029 -199.399)" fill="#85a477"/>
          <path id="Trazado_902103" data-name="Trazado 902103" d="M107.353,652.216a9.182,9.182,0,0,0-2.843-3.99,6.811,6.811,0,0,0-1.691-.154l-5.543,1.372L84.6,684.117l2.717,1.482a9.6,9.6,0,0,0,4.98,1.264c.09,0,.174-.025.263-.031a9.1,9.1,0,0,0,3.862-4.745,153.509,153.509,0,0,1,10.374-22.372,9.181,9.181,0,0,0,.559-7.5" transform="translate(-26.029 -199.399)" fill="#5e2b80"/>
          <path id="Trazado_902104" data-name="Trazado 902104" d="M99.763,650.226h0a6.078,6.078,0,0,1,3.1,8.542,159.408,159.408,0,0,0-10.574,22.825A5.972,5.972,0,0,1,80.926,677.9a102.224,102.224,0,0,1,11.416-25.231,6.107,6.107,0,0,1,7.42-2.448" transform="translate(-24.821 -199.931)" fill="#794f95"/>
          <path id="Trazado_902105" data-name="Trazado 902105" d="M222.151,440.358l43.167-52.2,3.306-11.139a2.042,2.042,0,0,1,3.988.807l-.532,4.785,11.589-3.023a3.964,3.964,0,0,1,4.843,2.861l1.851,7.289a3.964,3.964,0,0,1-2.4,4.669l-13.415,5.222-36.914,56.227-.636,22.45c-19.7-3.235-30.29-32.5-14.842-37.946" transform="translate(-66.076 -115.552)" fill="#6f61c2"/>
          <line id="Línea_660" data-name="Línea 660" y1="2.857" x2="10.141" transform="translate(211.448 267.128)" fill="none" stroke="#5e2b80" stroke-linecap="round" stroke-linejoin="round" stroke-width="1"/>
          <line id="Línea_661" data-name="Línea 661" y1="2.857" x2="10.141" transform="translate(212.295 270.862)" fill="none" stroke="#5e2b80" stroke-linecap="round" stroke-linejoin="round" stroke-width="1"/>
          <line id="Línea_662" data-name="Línea 662" y1="2.857" x2="10.141" transform="translate(213.143 274.596)" fill="none" stroke="#5e2b80" stroke-linecap="round" stroke-linejoin="round" stroke-width="1"/>
          <path id="Trazado_902106" data-name="Trazado 902106" d="M146.171,506.013c-10.165,8.213-20.637,16.675-28.536,25.975a4.131,4.131,0,0,0,6.34,5.3c7.321-8.626,17.1-16.528,27.391-24.844,17.1-13.819,34.785-28.109,42.791-47.446l-4.6.766a11.556,11.556,0,0,0-7.846,5.14c-8.479,13.223-22.183,24.322-35.535,35.111" transform="translate(-35.898 -143.071)" fill="#5e2b80"/>
          <path id="Trazado_902107" data-name="Trazado 902107" d="M125.235,550.16c-2.706,2.615-5.267,5.286-7.6,8.031a4.131,4.131,0,0,0,6.34,5.3c2.127-2.506,4.481-4.948,6.974-7.359Z" transform="translate(-35.899 -169.275)" fill="#794f95"/>
          <path id="Trazado_902108" data-name="Trazado 902108" d="M165.222,418.351a4.8,4.8,0,0,0-.991-2.9,4.761,4.761,0,0,0-2.29-5.444,4.729,4.729,0,0,0-4.12-4.207,4.728,4.728,0,0,0-5.449-2.233,4.761,4.761,0,0,0-5.905-.072,4.76,4.76,0,0,0-5.443,2.29,4.729,4.729,0,0,0-4.208,4.12,4.727,4.727,0,0,0-2.232,5.449A8.821,8.821,0,0,0,136.8,426.7a4.729,4.729,0,0,0,4.12,4.207,4.729,4.729,0,0,0,5.449,2.233,4.761,4.761,0,0,0,5.905.072,4.762,4.762,0,0,0,5.444-2.29,4.729,4.729,0,0,0,4.207-4.12,4.729,4.729,0,0,0,2.233-5.449,4.8,4.8,0,0,0,1.063-3" transform="translate(-41.082 -123.842)" fill="#4635b1"/>
          <path id="Trazado_902109" data-name="Trazado 902109" d="M159.663,431.467a21.363,21.363,0,0,0,1.109,4.247,4.74,4.74,0,0,0,2.546-.273,4.808,4.808,0,0,0,2.38-2.114,4.729,4.729,0,0,0,4.207-4.12,4.73,4.73,0,0,0,2.233-5.449,8.821,8.821,0,0,0-2.218-11.349,4.833,4.833,0,0,0-.753-2.091c-7.49,4.024-10.588,13.731-9.5,21.15" transform="translate(-49.061 -126.247)" fill="#5e2b80"/>
          <path id="Trazado_902110" data-name="Trazado 902110" d="M196.984,414.107s-3.071-9.882-16.119-9.882-18.634,13.432-17.233,23.026,9.942,17.078,9.942,17.078.288,4.7,5.661,2.591c3.454,2.206,6.139,1.439,7.483-.288,2.4.96,7.042-.863,7.072-4.126,1.659-1.151,2.907-2.612,1.372-5,1.889-2.7,1.824-8.336,1.824-8.336Z" transform="translate(-50.282 -124.373)" fill="#4635b1"/>
          <path id="Trazado_902111" data-name="Trazado 902111" d="M207.171,415.789a14.416,14.416,0,0,0-4.445-6.1,5.07,5.07,0,0,0-1.077.8,5.245,5.245,0,0,0-1.486,3.041,5.211,5.211,0,0,0-2.462,6.008,5.253,5.253,0,0,0-.08,6.512,5.249,5.249,0,0,0,2.526,6,5.217,5.217,0,0,0,4.543,4.64,5.393,5.393,0,0,0,1.23,1.455,21.029,21.029,0,0,0,1.252-7.3Z" transform="translate(-60.469 -126.055)" fill="#5e2b80"/>
          <path id="Trazado_902112" data-name="Trazado 902112" d="M234.194,417.627a5.291,5.291,0,0,0-1.092-3.2,5.25,5.25,0,0,0-2.525-6,5.213,5.213,0,0,0-4.543-4.639,5.216,5.216,0,0,0-6.009-2.463,5.252,5.252,0,0,0-6.512-.08,5.25,5.25,0,0,0-6,2.526,5.215,5.215,0,0,0-4.639,4.543,5.214,5.214,0,0,0-2.462,6.009,5.249,5.249,0,0,0-.08,6.512,5.25,5.25,0,0,0,2.526,6,5.213,5.213,0,0,0,4.543,4.639,5.216,5.216,0,0,0,6.009,2.463,5.252,5.252,0,0,0,6.512.08,5.25,5.25,0,0,0,6-2.526,5.213,5.213,0,0,0,4.639-4.543,5.214,5.214,0,0,0,2.462-6.009,5.3,5.3,0,0,0,1.172-3.309" transform="translate(-61.302 -123.119)" fill="#4635b1"/>
          <path id="Trazado_902113" data-name="Trazado 902113" d="M84.6,679.513c-.125.324-.255.643-.377.969l10.925,5.6c.131-.321.253-.641.388-.963Z" transform="translate(-25.915 -209.074)" fill="#5e2b80"/>
          <path id="Trazado_902114" data-name="Trazado 902114" d="M80.77,691.356a6,6,0,0,0-.1,1.111l9.418,4.829a5.984,5.984,0,0,0,.846-.728Z" transform="translate(-24.821 -212.718)" fill="#5e2b80"/>
          <path id="Trazado_902115" data-name="Trazado 902115" d="M86.931,673.778c-.138.317-.278.632-.411.951l11.014,5.648c.141-.312.288-.627.431-.941Z" transform="translate(-26.621 -207.31)" fill="#5e2b80"/>
          <path id="Trazado_902116" data-name="Trazado 902116" d="M82.505,685.361c-.111.33-.213.665-.321,1l10.8,5.539c.117-.325.239-.651.359-.977Z" transform="translate(-25.287 -210.874)" fill="#5e2b80"/>
          <path id="Trazado_902117" data-name="Trazado 902117" d="M89.482,668.157c-.15.31-.3.622-.442.935l11.075,5.679c.149-.31.3-.62.449-.931Z" transform="translate(-27.396 -205.58)" fill="#5e2b80"/>
          <path id="Trazado_902118" data-name="Trazado 902118" d="M95.279,657.277c-.176.3-.355.592-.528.891l10.979,5.63c.161-.3.326-.608.488-.911Z" transform="translate(-29.153 -202.233)" fill="#5e2b80"/>
          <path id="Trazado_902119" data-name="Trazado 902119" d="M98.744,652.162a6.152,6.152,0,0,0-.721.792l10.632,5.452a5.988,5.988,0,0,0,.225-1.047Z" transform="translate(-30.16 -200.659)" fill="#5e2b80"/>
          <path id="Trazado_902120" data-name="Trazado 902120" d="M92.257,662.65c-.163.3-.314.613-.474.919l11.068,5.676c.156-.307.31-.613.468-.922Z" transform="translate(-28.24 -203.886)" fill="#5e2b80"/>
          <path id="Trazado_902121" data-name="Trazado 902121" d="M649.813,356.754l21.96-59.153s-2.048-6.547.656-11.308a4.06,4.06,0,0,1,4.738-1.826c3.262-4.961,7.4-5.074,8.489-1.585,2.813-1.785,4.408.553,4.677,2.274,1.87-.946,3.746.221,3.962,2.582,2.565-.474,5.43,8.628-5.17,17.336L669.433,364.51Z" transform="translate(-199.936 -86.297)" fill="#bdae94"/>
          <path id="Trazado_902122" data-name="Trazado 902122" d="M713.75,290.965a14.086,14.086,0,0,1-.707,4.67" transform="translate(-219.391 -89.525)" fill="none" stroke="#5e2b80" stroke-linecap="round" stroke-linejoin="round" stroke-width="1"/>
          <path id="Trazado_902123" data-name="Trazado 902123" d="M707.851,287.237a17.929,17.929,0,0,1-1.1,4.917" transform="translate(-217.454 -88.378)" fill="none" stroke="#5e2b80" stroke-linecap="round" stroke-linejoin="round" stroke-width="1"/>
          <path id="Trazado_902124" data-name="Trazado 902124" d="M701.167,283.952a23.172,23.172,0,0,1-.942,5.329" transform="translate(-215.447 -87.367)" fill="none" stroke="#5e2b80" stroke-linecap="round" stroke-linejoin="round" stroke-width="1"/>
          <path id="Trazado_902125" data-name="Trazado 902125" d="M692.461,284.818a11.752,11.752,0,0,1-3.135,6.592" transform="translate(-212.094 -87.634)" fill="none" stroke="#5e2b80" stroke-linecap="round" stroke-linejoin="round" stroke-width="1"/>
          <path id="Trazado_902126" data-name="Trazado 902126" d="M689.165,286.242a3.3,3.3,0,0,0,1.093,4.188" transform="translate(-211.935 -88.072)" fill="none" stroke="#5e2b80" stroke-linecap="round" stroke-linejoin="round" stroke-width="1"/>
          <path id="Trazado_902127" data-name="Trazado 902127" d="M643.943,379.689c6.949,4.344,15.568,7.978,27.846,10.052l-15.857,50.305-27.252-25.715Z" transform="translate(-193.434 -116.824)" fill="#794f95"/>
          <path id="Trazado_902128" data-name="Trazado 902128" d="M595.554,371.871s-1.876,1.05-.676,9.526c-.825,7.051-1.914,20.809,8.248,20.013l.721,7.057h26.069L627.9,392.481Z" transform="translate(-182.879 -114.418)" fill="#bdae94"/>
          <line id="Línea_663" data-name="Línea 663" x2="10.215" y2="8.525" transform="translate(456.8 281.314)" fill="none" stroke="#683887" stroke-miterlimit="10" stroke-width="1"/>
          <line id="Línea_664" data-name="Línea 664" x2="7.535" y2="2.474" transform="translate(460.399 279.844)" fill="none" stroke="#683887" stroke-miterlimit="10" stroke-width="1"/>
          <path id="Trazado_902129" data-name="Trazado 902129" d="M594.8,368.2l.966-5.489-7.732-6.109,8.162-5.37-5.692-5.048a18.121,18.121,0,0,1,11.491,0L599.2,338.45a22.078,22.078,0,0,1,9.557,6.014c1.859-3.12,3.042-7.183,3.973-11.6A20.209,20.209,0,0,1,618,342.639l9.236-4.081c.946,3.4,1.16,6.573,0,9.343a25.243,25.243,0,0,1,10.954-.644,24.154,24.154,0,0,1-5.155,8.7l9.235,3.866-6.443,4.618,5.047,3.759c-3.392,4.057-6.854,7.43-10.524,8.806l3.866,5.907-8.591-.859.537,6.658-7.733-3.759-4.188,6.013a18.35,18.35,0,0,1-7.3-9.343l-6.658,5.8-1.4-7.733Z" transform="translate(-180.928 -102.417)" fill="#806432"/>
          <path id="Trazado_902130" data-name="Trazado 902130" d="M598.167,387.085l2.929-2.724a3.744,3.744,0,0,1,5.215,5.372l-5.948,6.029Z" transform="translate(-184.046 -117.953)" fill="#bdae94"/>
          <path id="Trazado_902131" data-name="Trazado 902131" d="M553.17,392.127s1.042-3.413,6.964-7.314l3.553,7.314s-7.24,1.741-10.517,0" transform="translate(-170.201 -118.4)" fill="#5e2b80"/>
          <path id="Trazado_902132" data-name="Trazado 902132" d="M570.641,346.865,552.352,297.6s2.049-6.548-.656-11.308a4.06,4.06,0,0,0-4.738-1.826c-3.262-4.961-7.4-5.074-8.49-1.585-2.812-1.785-4.407.553-4.677,2.274-1.87-.946-3.746.221-3.962,2.582-2.565-.474-5.431,8.628,5.17,17.336l19.692,59.436Z" transform="translate(-162.284 -86.297)" fill="#bdae94"/>
          <path id="Trazado_902133" data-name="Trazado 902133" d="M530.889,290.965a14.086,14.086,0,0,0,.708,4.67" transform="translate(-163.342 -89.525)" fill="none" stroke="#5e2b80" stroke-linecap="round" stroke-linejoin="round" stroke-width="1"/>
          <path id="Trazado_902134" data-name="Trazado 902134" d="M536.616,287.237a17.932,17.932,0,0,0,1.1,4.917" transform="translate(-165.107 -88.378)" fill="none" stroke="#5e2b80" stroke-linecap="round" stroke-linejoin="round" stroke-width="1"/>
          <path id="Trazado_902135" data-name="Trazado 902135" d="M543.372,283.952a23.191,23.191,0,0,0,.941,5.329" transform="translate(-167.186 -87.367)" fill="none" stroke="#5e2b80" stroke-linecap="round" stroke-linejoin="round" stroke-width="1"/>
          <path id="Trazado_902136" data-name="Trazado 902136" d="M551.1,284.818a11.753,11.753,0,0,0,3.135,6.592" transform="translate(-169.565 -87.634)" fill="none" stroke="#5e2b80" stroke-linecap="round" stroke-linejoin="round" stroke-width="1"/>
          <path id="Trazado_902137" data-name="Trazado 902137" d="M555.148,286.242a3.3,3.3,0,0,1-1.093,4.188" transform="translate(-170.473 -88.072)" fill="none" stroke="#5e2b80" stroke-linecap="round" stroke-linejoin="round" stroke-width="1"/>
          <path id="Trazado_902138" data-name="Trazado 902138" d="M567.689,480.024c1.376-12.678,6.188-25.889,11.131-39.121l-.81,44.438Z" transform="translate(-174.668 -135.658)" fill="#5e2b80"/>
          <path id="Trazado_902139" data-name="Trazado 902139" d="M578.679,374.825,593.545,408h26.532l14.188,21.649V466.32H572a4.559,4.559,0,0,1-4.3-6.121c.2-.548.449-1.137.742-1.767-.793-4.475-.555-10.724,3.141-18.407a60.575,60.575,0,0,1-1.038-14.5L553.17,389.054c13.749-1.3,25.509-14.229,25.509-14.229" transform="translate(-170.201 -115.327)" fill="#794f95"/>
          <line id="Línea_665" data-name="Línea 665" x2="14.688" y2="3.174" transform="translate(396.808 281.081)" fill="none" stroke="#683887" stroke-miterlimit="10" stroke-width="1"/>
          <line id="Línea_666" data-name="Línea 666" y1="1.106" x2="13.638" transform="translate(400.484 288.546)" fill="none" stroke="#683887" stroke-miterlimit="10" stroke-width="1"/>
          <path id="Trazado_902140" data-name="Trazado 902140" d="M589.016,565.9v83.362l19.781-10.9-1-3.221a20.84,20.84,0,0,1-.488-10.416c2.5-11.988,7.868-41.977,3.1-58.825Z" transform="translate(-181.23 -174.118)" fill="#bdae94"/>
          <path id="Trazado_902141" data-name="Trazado 902141" d="M589.016,583.014c9.384,1.427,21.926-4.171,23.191-4.751a56.142,56.142,0,0,0-1.8-12.361h-12.33l-9.066,3.317Z" transform="translate(-181.23 -174.118)" fill="#5e2b80"/>
          <path id="Trazado_902142" data-name="Trazado 902142" d="M589.016,626.107v41.681l19.781-10.9-1-3.222a20.778,20.778,0,0,1-.492-10.394c.845-4.056,2.021-10.182,3.022-17.165Z" transform="translate(-181.23 -192.642)" fill="#85a477"/>
          <path id="Trazado_902143" data-name="Trazado 902143" d="M589.76,707.2l-.815-.6a13.128,13.128,0,0,1-5.215-12.363c.786-5.614,2.139-11.336,2.139-11.336s.01-3.723.15-6.723a2.73,2.73,0,0,1,2.6-2.529c2.085-.179,3.342-1.955,4.594-5.687,1.473-4.393,5.392-9.627,11.486-6.354a8.9,8.9,0,0,1,3.516,3.568l3.477,6.282Z" transform="translate(-179.565 -203.249)" fill="#5e2b80"/>
          <path id="Trazado_902144" data-name="Trazado 902144" d="M610.866,671.375A5.39,5.39,0,0,0,603,669.767c-4.587,3.363-7.716,9.837-10.574,15.77-.512,1.061-1.014,2.105-1.512,3.1l-.253.508c-1.627,3.252-3.039,6.151-4.136,8.755a9.264,9.264,0,0,0,2.347,10.608q.357.306.739.589l.815.6,21.932-35.744s-.7-1.209-1.494-2.581" transform="translate(-180.233 -205.75)" fill="#fff"/>
          <path id="Trazado_902145" data-name="Trazado 902145" d="M630.193,565.9v83.362l19.781-10.9-1-3.221a20.84,20.84,0,0,1-.488-10.416c2.5-11.988,7.868-41.977,3.1-58.825Z" transform="translate(-193.899 -174.118)" fill="#bdae94"/>
          <path id="Trazado_902146" data-name="Trazado 902146" d="M630.193,583.014c9.384,1.427,21.926-4.171,23.191-4.751a56.142,56.142,0,0,0-1.8-12.361h-12.33l-9.066,3.317Z" transform="translate(-193.899 -174.118)" fill="#5e2b80"/>
          <path id="Trazado_902147" data-name="Trazado 902147" d="M630.193,626.107v41.681l19.781-10.9-1-3.222a20.785,20.785,0,0,1-.492-10.394c.845-4.056,2.022-10.182,3.022-17.165Z" transform="translate(-193.899 -192.642)" fill="#85a477"/>
          <path id="Trazado_902148" data-name="Trazado 902148" d="M630.936,707.2l-.815-.6a13.129,13.129,0,0,1-5.215-12.363c.786-5.614,2.139-11.336,2.139-11.336s.01-3.723.15-6.723a2.73,2.73,0,0,1,2.6-2.529c2.085-.179,3.343-1.955,4.594-5.687,1.473-4.393,5.392-9.627,11.486-6.354a8.9,8.9,0,0,1,3.516,3.568l3.477,6.282Z" transform="translate(-192.234 -203.249)" fill="#5e2b80"/>
          <path id="Trazado_902149" data-name="Trazado 902149" d="M652.042,671.375a5.389,5.389,0,0,0-7.862-1.608c-4.587,3.363-7.716,9.837-10.574,15.77-.512,1.061-1.014,2.105-1.512,3.1l-.253.508c-1.627,3.252-3.039,6.151-4.137,8.755a9.264,9.264,0,0,0,2.347,10.608q.357.306.739.589l.815.6,21.932-35.744s-.7-1.209-1.495-2.581" transform="translate(-192.903 -205.75)" fill="#fff"/>
          <path id="Trazado_902150" data-name="Trazado 902150" d="M654.157,674.93c4.083,1.126-1.284,15.448-5.532,24.122s-9.078,13.039-13.576,13.009c-6.094-.04-.583-10.8,3.582-19.134s8.647-19.894,15.526-18" transform="translate(-194.56 -207.601)" fill="#794f95"/>
          <path id="Trazado_902151" data-name="Trazado 902151" d="M576.834,501.432l-3.676,55.794s19.53,6.11,38.438,0c0,0,12.324,4.4,32.688,0l-5-55.794Z" transform="translate(-176.351 -154.282)" fill="#538040"/>
          <path id="Trazado_902152" data-name="Trazado 902152" d="M628.679,567.594V540.021l4.2-4.89" transform="translate(-193.434 -164.65)" fill="none" stroke="#85a477" stroke-linecap="round" stroke-linejoin="round" stroke-width="1"/>
          <path id="Trazado_902153" data-name="Trazado 902153" d="M603.018,530.6h0a8.556,8.556,0,0,1-8.51-7.677l-.6-5.827h18.222l-.6,5.827A8.555,8.555,0,0,1,603.018,530.6Z" transform="translate(-182.735 -159.101)" fill="none" stroke="#85a477" stroke-linecap="round" stroke-linejoin="round" stroke-width="1"/>
          <path id="Trazado_902154" data-name="Trazado 902154" d="M649.268,530.6h0a8.556,8.556,0,0,1-8.51-7.677l-.6-5.827h18.222l-.6,5.827A8.555,8.555,0,0,1,649.268,530.6Z" transform="translate(-196.965 -159.101)" fill="none" stroke="#85a477" stroke-linecap="round" stroke-linejoin="round" stroke-width="1"/>
          <path id="Trazado_902155" data-name="Trazado 902155" d="M583.025,487.7c-4.83,4.954-9.949,7.141-15.34,6.723,0,.054,0,.107,0,.161a10.245,10.245,0,0,0,12.8,10.111,65.909,65.909,0,0,0,7.842-2.6Z" transform="translate(-174.664 -150.056)" fill="#5e2b80"/>
          <path id="Trazado_902156" data-name="Trazado 902156" d="M600.673,485.24l-9.989-1.858a8.105,8.105,0,0,1-6.2-10.553l16.188-48.1,9.637,3.546Z" transform="translate(-179.705 -130.683)" fill="#8378cb"/>
          <path id="Trazado_902157" data-name="Trazado 902157" d="M645.943,442.109l7.357,43.155a4.321,4.321,0,0,1-3.482,5.039,154.877,154.877,0,0,1-46.458-.008,4.334,4.334,0,0,1-3.472-5.434l11.246-42.752Z" transform="translate(-184.529 -136.029)" fill="#aaa2db"/>
          <path id="Trazado_902158" data-name="Trazado 902158" d="M608.057,424.732l2.278,15.1a7.62,7.62,0,0,0,7.3,6.488c9.155.278,25.571.005,31.361-5.06Z" transform="translate(-187.089 -130.683)" fill="#5e2b80"/>
          <path id="Trazado_902159" data-name="Trazado 902159" d="M608.057,422.861l1.1-4.211,9.411,2.836v1.374Z" transform="translate(-187.089 -128.811)" fill="#5e2b80"/>
          <path id="Trazado_902160" data-name="Trazado 902160" d="M651.72,422.532l-9.184-4.95-5.115,4.95Z" transform="translate(-196.123 -128.483)" fill="#5e2b80"/>
          <path id="Trazado_902161" data-name="Trazado 902161" d="M645.808,490.466a39.726,39.726,0,0,1-16.269,0,8.908,8.908,0,0,1-7.015-7.692l-.546-5.563h28.789l.546,5.563a6.976,6.976,0,0,1-5.505,7.692" transform="translate(-191.372 -146.83)" fill="#e0ddf2"/>
          <path id="Trazado_902162" data-name="Trazado 902162" d="M608.057,424.732h39.43l2.84,12.3a4.346,4.346,0,0,1-3.223,5.213c-8.21,1.932-17.778,1.784-28.474-.093A9.093,9.093,0,0,1,611.5,435.9Z" transform="translate(-187.089 -130.683)" fill="#8378cb"/>
          <path id="Trazado_902163" data-name="Trazado 902163" d="M612.981,674.93c4.083,1.126-1.284,15.448-5.532,24.122s-9.078,13.039-13.576,13.009c-6.094-.04-.583-10.8,3.582-19.134s8.647-19.894,15.526-18" transform="translate(-181.891 -207.601)" fill="#794f95"/>
          <path id="Trazado_902164" data-name="Trazado 902164" d="M212.278,335.573c0,13.387-12.693,24.24-28.35,24.24s-28.35-10.853-28.35-24.24,12.692-24.24,28.35-24.24,28.35,10.853,28.35,24.24" transform="translate(-47.869 -95.792)" fill="#fff"/>
          <path id="Trazado_902165" data-name="Trazado 902165" d="M189.868,376.122h9.222l-4.611,13.821Z" transform="translate(-58.419 -115.726)" fill="#fff"/>
          <path id="Trazado_902166" data-name="Trazado 902166" d="M204.072,337.089a8.043,8.043,0,0,0-11.309-3.256l-2.967,1.779-2.967-1.779a8.044,8.044,0,0,0-8.772,13.473L189.8,355.58l11.739-8.275a8.044,8.044,0,0,0,2.537-10.217" transform="translate(-53.736 -102.362)" fill="#99835b"/>
          <path id="Trazado_902167" data-name="Trazado 902167" d="M299.738,622.932c8.978,1.541,10.013,2.79,11.29,13.621,1.277-10.831,2.312-12.08,11.29-13.621-8.978-1.541-10.013-2.79-11.29-13.621-1.277,10.831-2.312,12.08-11.29,13.621" transform="translate(-92.224 -187.474)" fill="#fff"/>
          <path id="Trazado_902168" data-name="Trazado 902168" d="M97.477,506.655c8.978,1.541,10.013,2.79,11.29,13.621,1.277-10.831,2.312-12.08,11.29-13.621-8.978-1.541-10.013-2.79-11.29-13.621-1.277,10.831-2.312,12.08-11.29,13.621" transform="translate(-29.992 -151.698)" fill="#fff"/>
          <path id="Trazado_902169" data-name="Trazado 902169" d="M486.987,317.467c8.978,1.541,10.013,2.79,11.29,13.621,1.277-10.831,2.312-12.08,11.29-13.621-8.978-1.541-10.013-2.79-11.29-13.621-1.277,10.831-2.312,12.08-11.29,13.621" transform="translate(-149.837 -93.488)" fill="#fff"/>
          <path id="Trazado_902170" data-name="Trazado 902170" d="M527.064,525.517c8.978,1.541,10.013,2.79,11.29,13.621,1.277-10.831,2.312-12.08,11.29-13.621-8.978-1.541-10.013-2.79-11.29-13.621-1.277,10.831-2.312,12.08-11.29,13.621" transform="translate(-162.168 -157.502)" fill="#fff"/>
          <path id="Trazado_902171" data-name="Trazado 902171" d="M675.282,607.983c8.978,1.541,10.013,2.79,11.29,13.621,1.277-10.831,2.312-12.08,11.29-13.621-8.978-1.541-10.013-2.79-11.29-13.621-1.277,10.831-2.312,12.08-11.29,13.621" transform="translate(-207.773 -182.875)" fill="#fff"/>
          <path id="Trazado_902172" data-name="Trazado 902172" d="M525.882,651.658l11.076-20.869a37.4,37.4,0,0,1-14.064-18.379l-21.552,3.329a70.36,70.36,0,0,0,24.541,35.918" transform="translate(-154.254 -188.428)" fill="#fff"/>
          <path id="Trazado_902173" data-name="Trazado 902173" d="M269.035,343.259l-15.737-17.3A70.159,70.159,0,0,1,305.413,305.9l-4.33,31.348a40.8,40.8,0,0,0-32.047,6.012" transform="translate(-77.935 -94.104)" fill="#fff"/>
          <path id="Trazado_902174" data-name="Trazado 902174" d="M607.813,289.2q-7.866-11.076-15.73-22.153A43.009,43.009,0,0,0,605.392,244l25.072.6a80.919,80.919,0,0,1-22.651,44.6" transform="translate(-182.174 -75.074)" fill="#fff"/>
        </g>
      </g>
    </g>
  </g>
</svg>
