<svg xmlns="http://www.w3.org/2000/svg" xmlns:xlink="http://www.w3.org/1999/xlink" width="447.002" height="418" viewBox="0 0 447.002 418">
  <defs>
    <clipPath id="clip-path">
      <rect id="Rectángulo_402549" data-name="Rectángulo 402549" width="447.002" height="418" rx="30" transform="translate(958.957 4810.596)" fill="#ffedcc"/>
    </clipPath>
    <clipPath id="clip-path-2">
      <rect id="Rectángulo_402548" data-name="Rectángulo 402548" width="634.574" height="388.837" fill="none"/>
    </clipPath>
  </defs>
  <g id="Grupo_1102764" data-name="Grupo 1102764" transform="translate(-958.957 -4810.596)">
    <g id="Enmascarar_grupo_1098738" data-name="Enmascarar grupo 1098738" clip-path="url(#clip-path)">
      <g id="Grupo_1102264" data-name="Grupo 1102264" transform="translate(904.226 4839.759)">
        <g id="Grupo_1102263" data-name="Grupo 1102263" clip-path="url(#clip-path-2)">
          <path id="Trazado_902512" data-name="Trazado 902512" d="M132.457,603.2c9.054-17.268,8.021-23.543-2.342-45.187-6.036-12.605-10.514-16.831-11.361-31.749-.98-17.278,18.066-24.2,29.627-31.389,5.565-3.46,11.768-11.849,18.791-17.3,14.729-11.439,32.747-.282,21.8,13.351-6.052,7.536-18.131,14.49-22.643,16.763C144.67,518.6,126.087,523.521,138.4,553.3c8.92,21.573,23.9,30.068,1.7,52.749-4.86,4.965-12.425,6.264-7.647-2.846" transform="translate(-58.188 -231.754)" fill="#857acc" fill-rule="evenodd"/>
          <path id="Trazado_902513" data-name="Trazado 902513" d="M81.577,602.2c3.3-13.909-5.945-23.161-15.716-31.434-14.386-12.181-21.565-20-16.318-43.564,2.595-11.655,6.828-33.756,3.721-45.254-3.53-13.07,11.737-20.461,15.727-5.262,4.17,15.9.79,29.471-3.812,44.8-8.482,28.252-1.032,31.509,18.817,47.673,9.99,8.136,9.639,21.75,6.235,33.22-2.15,7.243-10.073,5.813-8.653-.178" transform="translate(-23.442 -229.486)" fill="#d3cfec" fill-rule="evenodd"/>
          <path id="Trazado_902514" data-name="Trazado 902514" d="M168.548,681.1c-5.632-35.257,31.583-24.055,42.563-32.456,5.84-4.469,9.034-23.592,25.618-15.479,13.333,6.523,11.976,33.053-18.212,33.163-10.926.041-22.161-2.637-30.443.54-4.833,1.855-10.675,9.084-11.492,14.95-1.363,9.782-7.153,4.8-8.033-.719" transform="translate(-82.329 -309.367)" fill="#d3cfec" fill-rule="evenodd"/>
          <path id="Trazado_902515" data-name="Trazado 902515" d="M116.32,646.652a22.467,22.467,0,0,0-3.38-7.065C102.7,626.378,93.7,627.618,94.517,608.719c.351-8.073,2.438-15.751,3.167-21.635.412-3.322-1.557-10.518-2.732-16.741-2.3-12.172,7.165-11.438,9.622.552a51.861,51.861,0,0,1,.765,15.022c-1.716,13.486-2.364,23.455,9.4,32.263,10.514,7.874,15.968,13.152,13.835,27.275-2.022,13.385-8.294,15.248-12.251,1.2" transform="translate(-46.301 -275.239)" fill="#a39ad8" fill-rule="evenodd"/>
          <path id="Trazado_902516" data-name="Trazado 902516" d="M59.587,697.429c.063-11.992-8.356-16.021-19.072-16.593-4.6-.245-9.693-1.508-18.421-12.3-13.015-16.089-30.163,4.4-17.862,15.734,5.049,4.651,13.806,7.559,23.634,6.154,3.972-.568,18.7-2.693,21.6-.7,2.311,1.595,4.342,5.619,5.165,9.089,1.21,5.087,4.938,2.989,4.959-1.389" transform="translate(0 -324.768)" fill="#a39ad8" fill-rule="evenodd"/>
          <path id="Trazado_902517" data-name="Trazado 902517" d="M1042.4,577.584c-10.132-19.324-8.975-26.344,2.621-50.563,6.754-14.1,11.765-18.834,12.712-35.526,1.1-19.333-20.216-27.081-33.153-35.123-6.227-3.871-13.168-13.259-21.026-19.361-16.481-12.8-36.643-.316-24.392,14.939,6.772,8.432,20.287,16.213,25.337,18.758,24.235,12.212,45.028,17.717,31.252,51.037-9.98,24.139-26.749,33.646-1.908,59.024,5.439,5.556,13.9,7.01,8.557-3.183" transform="translate(-478.079 -211.595)" fill="#9086d0" fill-rule="evenodd"/>
          <path id="Trazado_902518" data-name="Trazado 902518" d="M1119.749,573.559c-4.516-15.563,5.281-25.917,15.726-35.175,15.377-13.63,22.946-22.374,15.68-48.747-3.593-13.043-9.636-37.773-6.842-50.639,3.176-14.624-14.346-22.9-17.909-5.888-3.726,17.788.859,32.978,6.916,50.13,11.164,31.614,3.02,35.257-18.233,53.346-10.7,9.1-9.5,24.338-5.011,37.172,2.835,8.1,11.617,6.505,9.672-.2" transform="translate(-542.485 -207.634)" fill="#8176ca" fill-rule="evenodd"/>
          <path id="Trazado_902519" data-name="Trazado 902519" d="M1146.738,667.216c-16.967-33.061,15.583-39.36,20.985-53.082,2.875-7.3-1.539-28.194,14.087-27.837,12.561.287,21.038,27.818-2.065,42.25-8.362,5.222-17.936,7.836-23.144,14.984-3.039,4.174-4.925,14.27-3.447,20.6,2.465,10.561-3.762,8.258-6.417,3.083" transform="translate(-559.684 -287.365)" fill="#9288d1" fill-rule="evenodd"/>
          <path id="Trazado_902520" data-name="Trazado 902520" d="M1102.466,626.2a25.142,25.142,0,0,1,3.783-7.906c11.458-14.78,21.532-13.393,20.614-34.54-.392-9.033-2.728-17.625-3.545-24.21-.46-3.717,1.742-11.769,3.057-18.732,2.573-13.62-8.018-12.8-10.766.618a58.042,58.042,0,0,0-.856,16.81c1.92,15.09,2.645,26.245-10.515,36.1-11.765,8.811-17.868,14.718-15.481,30.521,2.262,14.978,9.281,17.062,13.708,1.338" transform="translate(-533.393 -260.254)" fill="#a39ad8" fill-rule="evenodd"/>
          <path id="Trazado_902521" data-name="Trazado 902521" d="M1047.347,634.41c-12.962-4.677-14.825-18.515-12.278-34.319,1.094-6.789,1.234-14.688-7.834-31.663-13.523-25.316,13.658-42.091,22.257-19.707,3.527,9.187,4.081,23.072-.336,36.8-1.786,5.548-8.431,26.117-7.131,31.113,1.039,3.994,4.782,8.546,8.285,11.123,5.134,3.782,1.768,8.366-2.964,6.656" transform="translate(-501.672 -263.82)" fill="#786cc6" fill-rule="evenodd"/>
          <path id="Trazado_902522" data-name="Trazado 902522" d="M271.982,504.469c13.684-5.075,25.32-17.228,20.619-32.616a11.742,11.742,0,0,0-2.2-3.944c-5.243-6.511-7.105-11.081,3.275-12.8,11.88-1.97,14.926-9.69,2.043-13.726-10.525-3.3-2.762-8.874,3.476-11.135,11.162-4.047,9.964-14.284-2.321-12.436-16.131,2.427-13.047-11.516,1.019-11.523,17.918-.008,19.548-17.188.906-17.348-6.087-.052-8.29-2.005-8.027-4.777,1.1-11.5,25.623-18.884,33.615-24.914,19.833-14.972,4.959-36.732-23.635-26.786-18.84,6.554-34.287,27.983-41.059,42.2-17.182,36.081-19.3,84.355-4.764,115.052,6.337,13.382,3.218,19.886,17.055,14.754" transform="translate(-120.22 -161.719)" fill="#9288d1" fill-rule="evenodd"/>
          <path id="Trazado_902523" data-name="Trazado 902523" d="M281.357,533.665a1.429,1.429,0,1,1-2.377-1.588c17.608-26.459,11.591-45.427,5.734-63.892-2.721-8.578-5.408-17.051-5.808-26.148-.825-18.7.97-35.18,8.351-49.071,7.4-13.929,20.369-25.167,41.858-33.294a1.433,1.433,0,0,1,1.007,2.683c-20.771,7.856-33.26,18.635-40.338,31.953-7.1,13.358-8.817,29.367-8.014,47.6.386,8.765,3.012,17.039,5.667,25.415,6.063,19.111,12.289,38.744-6.08,66.345" transform="translate(-136.612 -176.245)" fill="#6557be" fill-rule="evenodd"/>
          <path id="Trazado_902524" data-name="Trazado 902524" d="M179.74,434.3c-1.907-4.927-6.768-8.972-16.611-7.685-13.048,1.706-13.777-8.9-1.089-13.535,14.359-5.248,9.563-19.089-6.143-9.1-11.252,7.154-22.93-7.969-.633-15,10.5-3.313,8.955-15.487-10.02-13.591-14.122,1.41-16.63-16.112,9.634-20.951,14.266-2.628,15.656-19.7.525-20.708-31.516-2.1-25.263-29.354,3.672-33.77,16.158-2.466,18.851-16.935,4.621-26.932-7.846-5.511-14.849-13.107-18.595-21.325-18.468-40.525,34.657-61.4,49.413-22.283,4.063,10.772,4.569,24.855.077,38.467-3.676,11.143-3.355,33.956,12.822,34.008,7.558.023,12.2,5.193,13.248,11.513,2.214,13.415-12.62,20.828-19.643,32.62-3.557,5.972-6.055,12.573-5.464,18.264.55,5.281,3.755,9.784,11.237,12.28,19.782,6.6,16.285,23.77,10.646,40.128-13.833,40.139-15.562,74.768-37.7,17.6" transform="translate(-65.884 -102.238)" fill="#a39ad8" fill-rule="evenodd"/>
          <path id="Trazado_902525" data-name="Trazado 902525" d="M179.74,451.253c-1.907-4.927-6.768-8.972-16.611-7.685-13.048,1.706-13.777-8.9-1.089-13.535,14.359-5.248,9.563-19.089-6.143-9.1-11.252,7.154-22.93-7.969-.633-15,10.5-3.313,8.955-15.487-10.02-13.591-14.122,1.41-16.63-16.112,9.634-20.951,14.266-2.628,15.656-19.7.525-20.708-31.516-2.1-25.263-29.354,3.672-33.77,16.158-2.466,18.851-16.935,4.621-26.932-7.846-5.511-14.849-13.108-18.595-21.325-4.487-9.846-4.74-18.528-2.351-25.476,18.554,11.945,32.793,34.932,36.426,62.709s-4.864,42.8-7.218,71.6c-3.262,39.915,13.27,64.534,24.057,87.773a103.291,103.291,0,0,1,5.513,13.892c-4.895,6.172-10.849.349-21.788-27.9" transform="translate(-65.884 -119.19)" fill="#c0bae4" fill-rule="evenodd"/>
          <path id="Trazado_902526" data-name="Trazado 902526" d="M203.956,263.469a1.433,1.433,0,0,1,2.683-1.006c4.537,12.032,8.211,21.867,10.821,31.438a117.551,117.551,0,0,1,4.348,29.665c.279,14.466-1.612,26.092-3.466,37.509-2.133,13.13-4.223,25.984-2.849,42.476,1.005,12.058,4.385,20.1,8.273,29.345,5.775,13.736,12.65,30.088,14.758,65.7a1.433,1.433,0,0,1-2.86.17c-2.081-35.143-8.849-51.241-14.535-64.764-3.983-9.474-7.447-17.712-8.488-30.209-1.4-16.861.711-29.876,2.871-43.169,1.834-11.3,3.706-22.806,3.432-37a114.864,114.864,0,0,0-4.248-28.978c-2.563-9.395-6.222-19.19-10.742-31.178" transform="translate(-99.922 -128.187)" fill="#6557be" fill-rule="evenodd"/>
          <path id="Trazado_902527" data-name="Trazado 902527" d="M896.623,521c-13.325-5.953-24.148-18.836-18.457-33.887a11.732,11.732,0,0,1,2.453-3.792c5.656-6.158,7.81-10.6-2.437-12.988-11.727-2.737-14.264-10.639-1.147-13.83,10.717-2.607,3.332-8.676-2.746-11.337-10.876-4.764-9.015-14.9,3.124-12.259,15.939,3.469,13.768-10.645-.268-11.565-17.88-1.172-18.39-18.421.222-17.37,6.078.344,8.4-1.463,8.32-4.246-.347-11.545-24.343-20.508-31.926-27.045-18.818-16.228-2.563-36.977,25.325-25.195,18.375,7.764,32.4,30.15,38.232,44.781,14.8,37.121,13.78,85.43-2.718,115.118-7.192,12.942-4.5,19.635-17.977,13.616" transform="translate(-414.493 -168.617)" fill="#9288d1" fill-rule="evenodd"/>
          <path id="Trazado_902528" data-name="Trazado 902528" d="M920.584,550.723a1.43,1.43,0,1,0,2.476-1.43c-15.853-27.546-8.617-46.084-1.573-64.13,3.272-8.383,6.5-16.663,7.495-25.716,2.037-18.608,1.317-35.168-5.147-49.51C917.35,395.557,905.142,383.5,884.227,374a1.433,1.433,0,0,0-1.179,2.612c20.216,9.189,31.98,20.756,38.178,34.506,6.216,13.791,6.891,29.878,4.906,48.017-.954,8.721-4.112,16.808-7.306,24.994-7.291,18.677-14.779,37.863,1.758,66.6" transform="translate(-432.403 -183.248)" fill="#6557be" fill-rule="evenodd"/>
          <path id="Trazado_902529" data-name="Trazado 902529" d="M983.084,459.214c2.223-4.793,7.336-8.514,17.075-6.59,12.91,2.551,14.326-7.982,1.965-13.435-13.988-6.17-8.3-19.67,6.721-8.684,10.763,7.87,23.4-6.462,1.606-14.931-10.265-3.988-7.93-16.035,10.882-12.912,14,2.325,17.641-15-8.253-21.532-14.065-3.549-14.343-20.675.821-20.7,31.586-.048,27.115-27.651-1.47-33.936-15.964-3.511-17.711-18.123-2.862-27.176,8.187-4.99,15.669-12.115,19.94-20.072,21.06-39.24-30.6-63.525-47.862-25.445-4.753,10.485-6.173,24.505-2.575,38.381,2.945,11.359,1.144,34.1-15,33.1-7.543-.467-12.515,4.39-13.968,10.629-3.081,13.242,11.241,21.6,17.484,33.827,3.162,6.191,5.226,12.94,4.267,18.581-.892,5.234-4.382,9.519-12.011,11.524-20.169,5.306-17.795,22.662-13.229,39.353,11.2,40.952,10.674,75.621,36.475,20.014" transform="translate(-462.432 -115.038)" fill="#a39ad8" fill-rule="evenodd"/>
          <path id="Trazado_902530" data-name="Trazado 902530" d="M998.521,477.743c2.223-4.793,7.336-8.514,17.075-6.59,12.91,2.551,14.326-7.982,1.965-13.435-13.988-6.17-8.3-19.67,6.721-8.684,10.763,7.87,23.4-6.463,1.606-14.931-10.264-3.988-7.93-16.035,10.882-12.912,14,2.325,17.641-15-8.253-21.532-14.065-3.549-14.343-20.675.821-20.7,31.586-.048,27.115-27.651-1.471-33.936-15.964-3.511-17.712-18.123-2.862-27.176,8.187-4.99,15.669-12.115,19.94-20.072,5.117-9.534,5.934-18.181,4-25.269-19.291,10.715-34.992,32.728-40.422,60.211s2.074,43.027,2.552,71.922c.663,40.042-17.433,63.536-29.706,86.025a103.321,103.321,0,0,0-6.4,13.5c4.484,6.477,10.8,1.053,23.554-26.428" transform="translate(-477.87 -133.567)" fill="#c0bae4" fill-rule="evenodd"/>
          <path id="Trazado_902531" data-name="Trazado 902531" d="M1017.6,289.211a1.433,1.433,0,1,0-2.613-1.178c-5.308,11.711-9.613,21.288-12.84,30.669a117.567,117.567,0,0,0-6.265,29.32c-1.218,14.417-.086,26.142,1.023,37.655,1.276,13.241,2.526,26.2.084,42.571-1.786,11.967-5.681,19.77-10.162,28.746-6.655,13.332-14.577,29.2-18.994,64.6a1.433,1.433,0,0,0,2.843.355c4.359-34.934,12.159-50.558,18.71-63.684,4.59-9.2,8.581-17.191,10.432-29.595,2.5-16.734,1.231-29.858-.062-43.264-1.1-11.394-2.217-23-1.022-37.14a114.87,114.87,0,0,1,6.12-28.641c3.167-9.208,7.456-18.746,12.744-30.414" transform="translate(-474.369 -140.762)" fill="#6557be" fill-rule="evenodd"/>
          <path id="Trazado_902532" data-name="Trazado 902532" d="M259.413,456.81A207.668,207.668,0,0,1,243.4,375.323c.622-111.225,87.758-200.906,194.623-200.308s192.993,91.248,192.371,202.473a207.669,207.669,0,0,1-16.924,81.3Z" transform="translate(-119.298 -85.781)" fill="#f0eff9" fill-rule="evenodd"/>
          <path id="Trazado_902533" data-name="Trazado 902533" d="M441.1,463.136c-.173-.266-.277-.578-.5-.579-.952,2.358,1.879,1.152,1.959,2.391.509,7.807,12.532,2.648,15.832,5.5,5.746,4.967,11.758,4.172,11.339,4.65-2.186,2.494,7.818-1.374,8-1.51,13.827-10.386,17.583-2.739,19.375-3.723,5.037-2.766,5.186.069,7.8-1.039,15.207-6.429,4.679-2.7,14.437,1.137,5.667,2.226,7.8,2.458,8.9,8.992.478,1.69,1.268,4.983,2.493,5.83,6.757,4.673,1.276-.007,5.706,5.34,3.169,3.825,9.251,14.855,3.118,17.979-1.625.828-2.759,10.976-2.612,16.68l-200.829-1.124c-2.951-1.678,3.136-4.031-8.545-9.853-5.591-2.787-.807-14.323-21.291-15.349-1.729-.087-7.309,4.975-10.02-2.762-.394-1.125,2.368-4.624,1.688-9.585-1.383-10.092,7.944-21.39,7.95-22.53,2.747-7.559,4.337-3.326,8.505-14.057,2.61-6.72,5.98-3.46,8.984-14.106.886-3.138,3.52.187.088-6.914-.787-1.628,6.33-12.625.868-13.5-.612-.1-.825-3.04-.821-3.638,1.1-4.223,1.078-14.456-.98-18.122-.719-1.282,11.768-11.388,14.641-14.676,3.2-3.662,11.771-6.456,6.136-12.387-.254-.268.7-11.9,3.638-12.934,2.183-.769,8.416-3.435,8.4-3.337,6.291-10.3-3.66-10.707,18.9-21.645,7.526-3.649,2.387-4.084,15.9-7.324,3.97-.951,5.013-2.932,12.2-4.115,5.388-.886-1.567,8.363,1.367,9.379,3.643,1.262,2.756,7.858,5.72,10.177,14.256,15.485,5.77,3.2,7.075,21.833.571,8.146,7.512,8.884,7.482,9.517-.43,9.215,4.533-2.04,5.119,14.46.063,1.764-8.16,1.253-3.729,8.621,1.071,1.781-4.177,6.74-3.865,6.369-4.523,19.855,7.982,9.189,4.148,19.866-1.279,3.561,3.8,5.114,3.743,15.354.406.149,2.476,1.071,2.882,1.219.944.531,11.2,8.555,10.707,9.981-2.7,7.744,6.756,4.2-1.842,10.59-4.209,3.128-.064,7.094-.073,8.641Zm-189.065,22.7c.238-.412.508-.839.818-1.286.133-.192-.636-6.406,3.305-.806,4.655,6.613-2.327,17.889,8.182,30.412,4.489,5.349,1.119,6.015,2.293,9.114l-2.987-.017a205.843,205.843,0,0,1-11.611-37.417m38.305,37.566,36.135.2c-1.921-8.3-3.162-6.687-6.4-14.927-3.572-9.083-14.286,5.768-21.187,8.9-5.02,2.279-7.473,4.2-8.546,5.823M587.088,310.578A205.368,205.368,0,0,1,634.63,443.934a211.008,211.008,0,0,1-2,27.9c-1.055-3.895,2.5-7.942-3.458-6.714-6.829,1.408-.512-5.7-5.939-13.889-4.34-6.546,9.177-9.334.265-9.018-5.357.19,1.544-13.255-2.661-6.655-2.144,3.365-.546,6.453-6.156-.112-1.547-1.81-2.511,1.324-6.049-3.041-1.91-2.356-3.473,4.227-6.6-3.215-2.548-6.059-5.59.037-8.827-6.612-.358-.735-.215.13-.217.523-1.052-9.438-.613-12.652,2.646-21.632,1.332-3.669-2.23.149,1.477-5.781,2.555-4.089-6.7,1.206-2.249-11.06.827-2.278-4.653-15.045,1.067-22.543,2.082-2.729-1.675-3.184,2-8.484,2.5-3.615-5.959-7.392-3.389-13.772,1.675-4.159-5.323-12.041-2.486-16.026,2.57-3.608-5.163,2.288-5.091-10.474q.008-1.448.135-2.747M287.114,399.02c1.24,3.181,4.084,18.714,7.495,19.809,3.978,1.278,8.534-12.269,9.225-14.013.886-2.232.323-9.014,3.12-11.177,5.248-4.059,4.007,2.218,8.869-11.178a4.631,4.631,0,0,0,.083-1.5l-.186-.671c.554-.2.516.529.482-.53-.3-9.436,4.971-6.456,5.535-12.674,3.049-33.651-26.6-.38-26.64,7.108-.064,11.518-10.871,17.417-7.982,24.828" transform="translate(-123.534 -152.227)" fill="#9b92d5" fill-rule="evenodd"/>
          <path id="Trazado_902534" data-name="Trazado 902534" d="M647.39,489.5,347.612,487.82a179.016,179.016,0,0,1-16.793-77.061c.537-96.059,75.792-173.512,168.085-172.995s166.677,78.805,166.14,174.864A179.029,179.029,0,0,1,647.39,489.5" transform="translate(-162.146 -116.536)" fill="#c8c2e8" fill-rule="evenodd"/>
          <path id="Trazado_902535" data-name="Trazado 902535" d="M481.9,469.086c-.173-.266-.277-.577-.5-.578-.953,2.358,1.878,1.152,1.959,2.39.509,7.806,12.533,2.648,15.833,5.5,5.746,4.967,11.758,4.172,11.339,4.65-2.186,2.494,7.817-1.375,8-1.51,13.827-10.385,17.583-2.738,19.375-3.722,5.037-2.766,5.186.068,7.805-1.039,15.207-6.428,4.678-2.7,14.437,1.138,5.667,2.226,7.8,2.458,8.9,8.992.478,1.69,1.268,4.983,2.493,5.83,6.757,4.673,1.276-.006,5.706,5.34,3.169,3.825,9.25,14.855,3.118,17.98-1.624.828-2.758,10.976-2.612,16.68l-200.829-1.123c-2.951-1.678,3.136-4.031-8.545-9.853-5.591-2.787-.807-14.323-21.29-15.349-1.115-.056-3.831,2.028-6.346,1.442q-1.3-4.274-2.389-8.641a12.641,12.641,0,0,0,.4-5.148c-1.383-10.091,7.944-21.389,7.95-22.53,2.747-7.559,4.336-3.326,8.505-14.057,2.61-6.721,5.979-3.46,8.984-14.106.886-3.138,3.521.187.088-6.914-.786-1.628,6.33-12.625.868-13.5-.612-.1-.825-3.04-.822-3.638,1.1-4.223,1.078-14.456-.979-18.122-.719-1.282,11.767-11.389,14.641-14.676,3.2-3.662,11.771-6.456,6.136-12.387-.254-.268.7-11.9,3.638-12.934,2.183-.769,8.417-3.435,8.4-3.338,6.291-10.3-3.661-10.707,18.9-21.644,7.526-3.649,2.387-4.085,15.9-7.324,3.97-.952,5.013-2.932,12.2-4.116,5.388-.886-1.567,8.363,1.367,9.38,3.643,1.262,2.756,7.858,5.721,10.177,14.256,15.485,5.77,3.2,7.075,21.833.57,8.146,7.511,8.884,7.482,9.517-.43,9.215,4.533-2.04,5.119,14.46.063,1.764-8.16,1.252-3.73,8.621,1.071,1.781-4.176,6.74-3.865,6.369-4.524,19.855,7.982,9.188,4.148,19.866-1.279,3.561,3.8,5.114,3.743,15.354.405.149,2.476,1.07,2.882,1.219.945.531,11.2,8.555,10.707,9.982-2.7,7.745,6.756,4.2-1.842,10.59-4.209,3.128-.065,7.095-.073,8.641ZM349.8,529.46l17.479.1c-1.921-8.3-3.162-6.686-6.4-14.926-2.667-6.782-9.316-.221-15.386,4.843q2,5.076,4.309,9.985M335.274,424.728c.044.019.088.037.132.051,3.978,1.277,8.533-12.269,9.225-14.013.886-2.233.323-9.015,3.12-11.178,5.248-4.058,4.007,2.218,8.869-11.178a4.642,4.642,0,0,0,.083-1.5l-.186-.672c.554-.2.516.53.482-.53-.3-9.436,4.971-6.455,5.535-12.674.752-8.3-.487-12.522-2.777-14.071a177.186,177.186,0,0,0-24.482,65.765m300.518-73.006a177.667,177.667,0,0,1,31.361,96.57,9.537,9.537,0,0,0-2.86-.134c-5.357.19,1.544-13.256-2.662-6.655-2.143,3.365-.546,6.453-6.156-.112-1.547-1.809-2.51,1.324-6.049-3.04-1.91-2.356-3.473,4.227-6.6-3.215-2.548-6.06-5.59.037-8.827-6.612-.358-.735-.216.13-.218.523-1.051-9.438-.613-12.652,2.646-21.632,1.332-3.669-2.23.149,1.477-5.781,2.555-4.089-6.7,1.206-2.249-11.059.826-2.278-4.654-15.045,1.067-22.543,2.083-2.73-1.675-3.184,2-8.485,1.61-2.324-1.315-4.716-2.925-7.824m31.382,97.231c.041,1.766.065,3.536.055,5.315-.029,5.09-.279,10.125-.719,15.1-.261-2.479.875-7.13-2.482-12.193-2.853-4.3,2.01-6.982,3.146-8.223" transform="translate(-164.331 -158.177)" fill="#9b92d5" fill-rule="evenodd"/>
          <path id="Trazado_902536" data-name="Trazado 902536" d="M704.761,585.853,535.7,584.907a103.728,103.728,0,0,1-12.226-49.683c.312-55.776,44.009-100.749,97.6-100.449s96.781,45.758,96.469,101.534a103.727,103.727,0,0,1-12.781,49.544" transform="translate(-256.576 -213.1)" fill="#e3e1f3" fill-rule="evenodd"/>
          <path id="Trazado_902537" data-name="Trazado 902537" d="M574.144,550.643c-.173-.266-.277-.577-.5-.579-.953,2.359,1.878,1.153,1.959,2.391.509,7.806,12.533,2.648,15.833,5.5,5.746,4.967,11.758,4.172,11.339,4.65-2.186,2.494,7.817-1.375,8-1.51,13.827-10.386,17.583-2.739,19.375-3.723,5.037-2.766,5.186.068,7.805-1.039,15.206-6.428,4.678-2.7,14.437,1.138,5.668,2.225,7.8,2.458,8.905,8.992.478,1.69,1.269,4.983,2.493,5.83,6.757,4.673,1.276-.006,5.706,5.34,3.169,3.824,9.25,14.855,3.118,17.979-1.624.828-2.758,10.976-2.612,16.68l-134.3-.751a104.175,104.175,0,0,1,18.078-122.429c-1.715,13.771,8.459,5.672,4.95,15.444-1.279,3.561,3.8,5.114,3.743,15.354.405.149,2.476,1.07,2.882,1.219.944.531,11.2,8.555,10.707,9.981-2.7,7.745,6.756,4.2-1.842,10.59-4.209,3.127-.065,7.095-.073,8.641Z" transform="translate(-256.575 -239.734)" fill="#9086d0" fill-rule="evenodd"/>
          <path id="Trazado_902538" data-name="Trazado 902538" d="M854.676,487.627a9.648,9.648,0,0,0-7.831,9.473c0,2.72,1.126,3.9,2.938,4.4H863.2c1.811-.5,2.937-1.683,2.937-4.4a9.647,9.647,0,0,0-7.831-9.473V477.3h-3.628Z" transform="translate(-415.073 -233.944)" fill="#fff" fill-rule="evenodd"/>
          <path id="Trazado_902539" data-name="Trazado 902539" d="M858.268,490.315v4.459l.755.144a8.718,8.718,0,0,1,7.075,8.561c0,1.762-.439,2.955-2.141,3.474h-13.15c-1.7-.519-2.141-1.712-2.141-3.474a8.719,8.719,0,0,1,7.076-8.561l.755-.144v-4.459Z" transform="translate(-415.966 -240.323)" fill="#6d5fc1" fill-rule="evenodd"/>
          <path id="Trazado_902540" data-name="Trazado 902540" d="M865.642,471.757H860.3a.232.232,0,0,0-.232.232v.579a.233.233,0,0,0,.232.232h5.341a.233.233,0,0,0,.233-.232v-.579a.233.233,0,0,0-.233-.232" transform="translate(-421.554 -231.227)" fill="#fff" fill-rule="evenodd"/>
          <path id="Trazado_902541" data-name="Trazado 902541" d="M865.027,475.571H861.3l-.839-1.8h5.4Z" transform="translate(-421.748 -232.215)" fill="#d4c6dd" fill-rule="evenodd"/>
          <path id="Trazado_902542" data-name="Trazado 902542" d="M859.614,514.307a.907.907,0,1,1,.907-.907.909.909,0,0,1-.907.907" transform="translate(-420.887 -251.193)" fill="#fff" fill-rule="evenodd"/>
          <path id="Trazado_902543" data-name="Trazado 902543" d="M866.077,511.283a.907.907,0,1,1,.907-.907.909.909,0,0,1-.907.907" transform="translate(-424.054 -249.711)" fill="#fff" fill-rule="evenodd"/>
          <path id="Trazado_902544" data-name="Trazado 902544" d="M862.1,504.76a.907.907,0,1,1,.907-.907.909.909,0,0,1-.907.907" transform="translate(-422.107 -246.514)" fill="#fff" fill-rule="evenodd"/>
          <path id="Trazado_902545" data-name="Trazado 902545" d="M1016.016,663.826c5.75-1.317,11.051-5.577,9.974-11.991a4.755,4.755,0,0,0-.676-1.7c-1.761-2.885-2.267-4.814,1.983-4.959,4.865-.167,6.49-3.1,1.538-5.394-4.045-1.874-.641-3.7,1.977-4.281,4.686-1.037,4.742-5.2-.278-5.106-6.593.128-4.625-5.3,1.012-4.565,7.182.936,8.736-5.864,1.272-6.905-2.436-.34-3.217-1.238-2.966-2.336,1.042-4.551,11.26-6.225,14.779-8.224,8.733-4.961,3.913-14.462-8.069-11.975-7.895,1.639-15.209,9.418-18.669,14.763-8.778,13.56-12.157,32.8-7.941,45.862,1.838,5.7.248,8.139,6.062,6.808" transform="translate(-494.134 -292.117)" fill="#9288d1" fill-rule="evenodd"/>
          <path id="Trazado_902546" data-name="Trazado 902546" d="M1015.58,675.207a.578.578,0,0,1-.87-.761c8.444-9.681,7.027-17.6,5.648-25.307a40.843,40.843,0,0,1-.957-10.785c.65-7.538,2.233-14.049,5.92-19.23s9.483-9.018,18.522-11.15a.579.579,0,0,1,.263,1.128c-8.737,2.06-14.307,5.725-17.843,10.692s-5.073,11.308-5.707,18.656a39.891,39.891,0,0,0,.939,10.483c1.428,7.977,2.894,16.173-5.914,26.272" transform="translate(-497.28 -297.985)" fill="#6557be" fill-rule="evenodd"/>
          <path id="Trazado_902547" data-name="Trazado 902547" d="M980.857,629.086c-.507-2.075-2.242-3.951-6.255-3.951-5.319,0-5.056-4.287.273-5.481,6.03-1.351,4.834-7.15-1.984-3.97-4.885,2.277-8.772-4.4.533-6.047,4.383-.778,4.4-5.737-3.3-5.973-5.734-.175-5.82-7.329,4.96-7.892,5.855-.305,7.307-7.075,1.3-8.272-12.521-2.494-8.586-13.089,3.242-13.343,6.606-.141,8.443-5.8,3.264-10.552a22.516,22.516,0,0,1-6.335-9.522c-5.277-17.21,17.109-22.793,20.973-6.34a23.876,23.876,0,0,1-1.986,15.422c-2.057,4.273-3.125,13.433,3.356,14.3a5.281,5.281,0,0,1,4.707,5.309c.184,5.493-6.15,7.686-9.583,12.044-1.739,2.207-3.086,4.722-3.148,7.034-.057,2.145.993,4.118,3.861,5.511,7.582,3.684,5.281,10.381,2.163,16.641-7.649,15.363-10.157,29.151-16.031,5.079" transform="translate(-473.608 -263.647)" fill="#d3cfec" fill-rule="evenodd"/>
          <path id="Trazado_902548" data-name="Trazado 902548" d="M980.857,634.709c-.507-2.075-2.242-3.951-6.255-3.951-5.319,0-5.056-4.287.273-5.481,6.03-1.351,4.834-7.15-1.984-3.97-4.885,2.278-8.772-4.4.533-6.046,4.383-.778,4.4-5.738-3.3-5.973-5.734-.175-5.82-7.329,4.96-7.892,5.855-.306,7.307-7.075,1.3-8.272-12.521-2.494-8.586-13.089,3.242-13.343,6.606-.141,8.443-5.8,3.264-10.552a22.517,22.517,0,0,1-6.335-9.522c-1.282-4.181-.928-7.674.393-10.334,6.81,5.76,11.312,15.72,11.312,27.043s-4.193,16.9-6.647,28.32c-3.4,15.827,1.935,26.561,5.04,36.44a41.693,41.693,0,0,1,1.482,5.857c-2.286,2.217-4.366-.428-7.27-12.325" transform="translate(-473.608 -269.27)" fill="#7c70c8" fill-rule="evenodd"/>
          <path id="Trazado_902549" data-name="Trazado 902549" d="M1003.632,560.363a.579.579,0,1,1,1.128-.263c1.187,5.06,2.144,9.195,2.689,13.168a47.532,47.532,0,0,1,.188,12.118,79.44,79.44,0,0,1-3.356,14.852c-1.543,5.15-3.055,10.193-3.369,16.875-.229,4.885.7,8.285,1.777,12.195,1.595,5.808,3.493,12.722,2.471,27.1a.579.579,0,1,1-1.155-.082c1.009-14.194-.861-21-2.43-26.719-1.1-4.006-2.056-7.489-1.819-12.553.321-6.831,1.851-11.937,3.414-17.151a78.566,78.566,0,0,0,3.315-14.648,46.451,46.451,0,0,0-.183-11.837c-.535-3.9-1.488-8.018-2.671-13.059" transform="translate(-490.003 -274.308)" fill="#6557be" fill-rule="evenodd"/>
          <path id="Trazado_902550" data-name="Trazado 902550" d="M938.033,699.144c3.044-5.805,2.7-7.915-.787-15.191-2.029-4.237-3.535-5.658-3.819-10.673-.329-5.808,6.073-8.136,9.96-10.552,1.871-1.163,3.956-3.984,6.317-5.816,4.952-3.846,11.009-.1,7.328,4.488-2.034,2.533-6.095,4.871-7.612,5.635-7.281,3.669-13.528,5.322-9.389,15.333,3,7.252,8.036,10.108.573,17.732-1.634,1.669-4.177,2.106-2.571-.956" transform="translate(-457.504 -321.197)" fill="#d3cfec" fill-rule="evenodd"/>
          <path id="Trazado_902551" data-name="Trazado 902551" d="M920.927,698.806c1.109-4.676-2-7.786-5.284-10.567-4.836-4.1-7.249-6.722-5.486-14.645.872-3.918,2.3-11.348,1.251-15.213-1.187-4.393,3.946-6.878,5.287-1.769,1.4,5.344.266,9.908-1.281,15.06-2.851,9.5-.347,10.592,6.325,16.026,3.359,2.735,3.241,7.312,2.1,11.168-.722,2.435-3.387,1.954-2.909-.06" transform="translate(-445.823 -320.434)" fill="#9288d1" fill-rule="evenodd"/>
          <path id="Trazado_902552" data-name="Trazado 902552" d="M950.166,725.33c-1.894-11.852,10.617-8.086,14.308-10.911,1.964-1.5,3.037-7.931,8.612-5.2,4.483,2.193,4.026,11.112-6.122,11.149-3.673.014-7.45-.887-10.234.182a7.427,7.427,0,0,0-3.863,5.026c-.458,3.289-2.405,1.614-2.7-.242" transform="translate(-465.619 -347.288)" fill="#786cc6" fill-rule="evenodd"/>
          <path id="Trazado_902553" data-name="Trazado 902553" d="M932.607,713.75a7.55,7.55,0,0,0-1.137-2.375c-3.442-4.44-6.469-4.024-6.193-10.377.118-2.714.819-5.295,1.065-7.273.138-1.117-.523-3.536-.918-5.628-.773-4.092,2.409-3.845,3.234.186a17.43,17.43,0,0,1,.257,5.05c-.577,4.534-.794,7.885,3.159,10.846,3.534,2.647,5.368,4.422,4.651,9.169-.68,4.5-2.788,5.126-4.119.4" transform="translate(-453.507 -335.815)" fill="#a39ad8" fill-rule="evenodd"/>
          <path id="Trazado_902554" data-name="Trazado 902554" d="M913.535,730.82c.021-4.031-2.809-5.386-6.411-5.578-1.547-.083-3.259-.507-6.192-4.134-4.376-5.409-10.14,1.48-6.005,5.289a9.83,9.83,0,0,0,7.945,2.069c1.335-.191,6.288-.906,7.26-.235a5.634,5.634,0,0,1,1.737,3.056c.407,1.71,1.66,1,1.667-.467" transform="translate(-437.942 -352.466)" fill="#d3cfec" fill-rule="evenodd"/>
          <path id="Trazado_902555" data-name="Trazado 902555" d="M802.356,497.765c2.013-3.839,1.783-5.234-.521-10.046-1.342-2.8-2.338-3.742-2.526-7.059-.218-3.841,4.017-5.381,6.587-6.979,1.238-.769,2.617-2.634,4.178-3.847,3.274-2.543,7.28-.063,4.846,2.968a17.666,17.666,0,0,1-5.034,3.727c-4.815,2.426-8.947,3.52-6.209,10.14,1.983,4.8,5.315,6.685.379,11.728-1.081,1.1-2.763,1.392-1.7-.633" transform="translate(-391.77 -229.768)" fill="#857acc" fill-rule="evenodd"/>
          <path id="Trazado_902556" data-name="Trazado 902556" d="M793.717,496.966c.9-3.092-1.05-5.15-3.125-6.989-3.056-2.708-4.559-4.445-3.115-9.686.714-2.591,1.915-7.5,1.359-10.061-.631-2.906,2.85-4.549,3.559-1.17.739,3.534-.171,6.553-1.375,9.961-2.218,6.281-.6,7,3.623,10.6,2.126,1.809,1.887,4.836,1,7.386-.564,1.61-2.309,1.293-1.922-.04" transform="translate(-385.703 -228.981)" fill="#8176ca" fill-rule="evenodd"/>
          <path id="Trazado_902557" data-name="Trazado 902557" d="M787.355,515.575c3.371-6.569-3.1-7.82-4.17-10.547-.571-1.45.306-5.6-2.8-5.531-2.5.057-4.18,5.527.411,8.394,1.662,1.038,3.564,1.557,4.6,2.977a6.167,6.167,0,0,1,.685,4.094c-.49,2.1.748,1.641,1.275.612" transform="translate(-381.286 -244.823)" fill="#9288d1" fill-rule="evenodd"/>
          <path id="Trazado_902558" data-name="Trazado 902558" d="M798.767,507.426a4.985,4.985,0,0,0-.752-1.571c-2.276-2.936-4.278-2.661-4.1-6.863.078-1.795.542-3.5.7-4.81a19.1,19.1,0,0,0-.607-3.722c-.511-2.706,1.593-2.543,2.139.123a11.537,11.537,0,0,1,.17,3.34c-.381,3-.526,5.215,2.089,7.173,2.338,1.751,3.55,2.924,3.076,6.064-.449,2.976-1.844,3.39-2.724.266" transform="translate(-389.126 -239.436)" fill="#a39ad8" fill-rule="evenodd"/>
          <path id="Trazado_902559" data-name="Trazado 902559" d="M811.5,509.056c2.575-.929,2.945-3.679,2.439-6.819-.218-1.349-.245-2.918,1.557-6.291,2.686-5.03-2.714-8.363-4.422-3.915a11.547,11.547,0,0,0,.067,7.311c.355,1.1,1.675,5.189,1.417,6.182a4.619,4.619,0,0,1-1.646,2.21c-1.02.752-.351,1.662.589,1.323" transform="translate(-397.209 -240.144)" fill="#786cc6" fill-rule="evenodd"/>
          <path id="Trazado_902560" data-name="Trazado 902560" d="M805.23,524.766a4.305,4.305,0,0,1,.443,2.132c0,2.97-1.572,7.614-3.845,9.952h-5.715c-2.272-2.339-3.846-6.982-3.846-9.952a4.3,4.3,0,0,1,.443-2.132Z" transform="translate(-388.321 -257.209)" fill="#c5b3d1" fill-rule="evenodd"/>
          <path id="Trazado_902561" data-name="Trazado 902561" d="M798.505,536.85h-2.393c-2.273-2.339-3.846-6.983-3.846-9.952a4.3,4.3,0,0,1,.443-2.132h7.082a14.765,14.765,0,0,1,.743,4.672,13.966,13.966,0,0,1-2.03,7.413" transform="translate(-388.321 -257.208)" fill="#d4c6dd" fill-rule="evenodd"/>
          <path id="Trazado_902562" data-name="Trazado 902562" d="M805.672,530.669c-.038.417-.1.855-.184,1.306-.036,0-.072.005-.109.005H792.643c-.037,0-.073,0-.109-.005-.085-.451-.147-.889-.184-1.306a1.174,1.174,0,0,1,.293-.037h12.735a1.179,1.179,0,0,1,.294.037" transform="translate(-388.363 -260.084)" fill="#aa8fbc" fill-rule="evenodd"/>
          <path id="Trazado_902563" data-name="Trazado 902563" d="M805.656,535.371c-.111.434-.24.873-.385,1.312H793.564c-.146-.438-.275-.878-.385-1.312h12.477" transform="translate(-388.769 -262.406)" fill="#aa8fbc" fill-rule="evenodd"/>
          <path id="Trazado_902564" data-name="Trazado 902564" d="M791.885,529.449h13.3a.506.506,0,0,1,.5.5v.338a.507.507,0,0,1-.5.505h-13.3a.506.506,0,0,1-.5-.505v-.338a.506.506,0,0,1,.5-.5" transform="translate(-387.887 -259.504)" fill="#d4c6dd" fill-rule="evenodd"/>
          <path id="Trazado_902565" data-name="Trazado 902565" d="M792.241,534.186h12.95a.492.492,0,0,1,.491.492v.329a.493.493,0,0,1-.491.491h-12.95a.493.493,0,0,1-.492-.491v-.329a.492.492,0,0,1,.492-.492" transform="translate(-388.068 -261.826)" fill="#d4c6dd" fill-rule="evenodd"/>
          <path id="Trazado_902566" data-name="Trazado 902566" d="M792.168,529.449h8.68q.107.662.151,1.348h-8.832c-.433,0-.788-.227-.788-.505v-.338c0-.278.354-.5.788-.5" transform="translate(-387.887 -259.504)" fill="#e7e2d8" fill-rule="evenodd"/>
          <path id="Trazado_902567" data-name="Trazado 902567" d="M792.517,534.186h8.694q-.006.666-.071,1.312h-8.623c-.422,0-.767-.221-.767-.491v-.329c0-.27.345-.492.767-.492" transform="translate(-388.068 -261.826)" fill="#e7e2d8" fill-rule="evenodd"/>
          <path id="Trazado_902568" data-name="Trazado 902568" d="M792.446,544.863h12.467a.773.773,0,0,1,.771.771v.516a.773.773,0,0,1-.771.771H792.446a.774.774,0,0,1-.771-.771v-.516a.774.774,0,0,1,.771-.771" transform="translate(-388.032 -267.059)" fill="#d4c6dd" fill-rule="evenodd"/>
          <path id="Trazado_902569" data-name="Trazado 902569" d="M792.446,544.863h12.467a.773.773,0,0,1,.771.771v.252H791.675v-.252a.774.774,0,0,1,.771-.771" transform="translate(-388.032 -267.059)" fill="#e7e2d8" fill-rule="evenodd"/>
          <path id="Trazado_902570" data-name="Trazado 902570" d="M295.763,683.16c3.043-5.805,2.7-7.915-.787-15.191-2.03-4.238-3.535-5.658-3.819-10.673-.329-5.808,6.073-8.136,9.96-10.552,1.87-1.163,3.955-3.984,6.316-5.817,4.952-3.846,11.009-.1,7.329,4.488-2.035,2.534-6.1,4.871-7.612,5.635-7.281,3.669-13.528,5.323-9.389,15.333,3,7.252,8.036,10.108.573,17.732-1.635,1.669-4.177,2.106-2.571-.956" transform="translate(-142.701 -313.363)" fill="#d3cfec" fill-rule="evenodd"/>
          <path id="Trazado_902571" data-name="Trazado 902571" d="M278.657,682.822c1.109-4.676-2-7.786-5.284-10.567-4.836-4.1-7.249-6.722-5.486-14.645.872-3.918,2.3-11.348,1.251-15.213-1.187-4.393,3.946-6.878,5.287-1.769,1.4,5.344.266,9.907-1.281,15.06-2.851,9.5-.347,10.592,6.325,16.026,3.358,2.735,3.241,7.312,2.1,11.168-.722,2.435-3.386,1.954-2.909-.06" transform="translate(-131.02 -312.6)" fill="#9288d1" fill-rule="evenodd"/>
          <path id="Trazado_902572" data-name="Trazado 902572" d="M307.9,709.346C306,697.494,318.512,701.26,322.2,698.435c1.963-1.5,3.036-7.931,8.612-5.2,4.483,2.193,4.026,11.112-6.122,11.149-3.673.014-7.449-.887-10.233.182a7.425,7.425,0,0,0-3.863,5.026c-.459,3.289-2.406,1.614-2.7-.242" transform="translate(-150.817 -339.454)" fill="#786cc6" fill-rule="evenodd"/>
          <path id="Trazado_902573" data-name="Trazado 902573" d="M290.337,697.766a7.55,7.55,0,0,0-1.136-2.375c-3.442-4.44-6.469-4.024-6.193-10.377.118-2.714.819-5.295,1.065-7.273.138-1.117-.524-3.536-.918-5.628-.773-4.092,2.409-3.845,3.235.185a17.425,17.425,0,0,1,.257,5.05c-.577,4.534-.794,7.885,3.159,10.846,3.534,2.647,5.368,4.422,4.651,9.169-.68,4.5-2.788,5.125-4.119.4" transform="translate(-138.705 -327.981)" fill="#a39ad8" fill-rule="evenodd"/>
          <path id="Trazado_902574" data-name="Trazado 902574" d="M271.265,714.837c.021-4.032-2.809-5.386-6.411-5.578-1.547-.083-3.259-.507-6.192-4.134-4.376-5.409-10.14,1.48-6.005,5.289a9.83,9.83,0,0,0,7.945,2.069c1.335-.191,6.288-.905,7.26-.234A5.633,5.633,0,0,1,269.6,715.3c.407,1.71,1.66,1.005,1.667-.467" transform="translate(-123.14 -344.632)" fill="#d3cfec" fill-rule="evenodd"/>
          <path id="Trazado_902575" data-name="Trazado 902575" d="M262.556,667.675c5.75-1.316,11.051-5.577,9.974-11.991a4.752,4.752,0,0,0-.676-1.7c-1.76-2.885-2.267-4.814,1.983-4.959,4.865-.167,6.491-3.1,1.539-5.394-4.046-1.874-.642-3.7,1.977-4.281,4.686-1.037,4.742-5.2-.278-5.106-6.593.127-4.625-5.3,1.013-4.565,7.182.936,8.735-5.864,1.273-6.906-2.437-.34-3.218-1.239-2.967-2.336,1.042-4.551,11.26-6.225,14.779-8.224,8.733-4.961,3.913-14.462-8.069-11.974-7.895,1.639-15.209,9.418-18.669,14.762-8.778,13.56-12.157,32.8-7.941,45.862,1.838,5.7.247,8.139,6.062,6.808" transform="translate(-124.833 -294.003)" fill="#9288d1" fill-rule="evenodd"/>
          <path id="Trazado_902576" data-name="Trazado 902576" d="M262.121,679.055a.578.578,0,1,1-.87-.761c8.444-9.681,7.027-17.6,5.648-25.307a40.823,40.823,0,0,1-.957-10.785c.65-7.538,2.233-14.049,5.919-19.23s9.483-9.018,18.522-11.15a.579.579,0,0,1,.263,1.128c-8.736,2.06-14.307,5.725-17.842,10.692S267.73,634.951,267.1,642.3a39.918,39.918,0,0,0,.939,10.483c1.428,7.977,2.894,16.173-5.915,26.272" transform="translate(-127.979 -299.871)" fill="#6557be" fill-rule="evenodd"/>
          <path id="Trazado_902577" data-name="Trazado 902577" d="M227.4,632.933c-.506-2.075-2.242-3.951-6.255-3.951-5.319,0-5.055-4.287.273-5.481,6.03-1.351,4.834-7.15-1.984-3.97-4.884,2.278-8.773-4.4.533-6.046,4.383-.778,4.4-5.737-3.3-5.973-5.734-.175-5.82-7.329,4.96-7.892,5.855-.305,7.307-7.075,1.3-8.272-12.522-2.494-8.586-13.089,3.242-13.343,6.605-.141,8.443-5.8,3.264-10.552a22.513,22.513,0,0,1-6.335-9.522c-5.277-17.21,17.109-22.793,20.973-6.34a23.88,23.88,0,0,1-1.986,15.422c-2.058,4.273-3.125,13.433,3.356,14.3a5.28,5.28,0,0,1,4.706,5.309c.185,5.493-6.15,7.686-9.583,12.044-1.739,2.207-3.086,4.722-3.148,7.034-.057,2.145.992,4.118,3.86,5.511,7.582,3.684,5.281,10.381,2.163,16.641-7.649,15.362-10.157,29.151-16.032,5.079" transform="translate(-104.307 -265.533)" fill="#d3cfec" fill-rule="evenodd"/>
          <path id="Trazado_902578" data-name="Trazado 902578" d="M227.4,638.556c-.506-2.075-2.242-3.951-6.255-3.951-5.319,0-5.055-4.287.273-5.481,6.03-1.351,4.834-7.15-1.984-3.97-4.884,2.278-8.773-4.4.533-6.046,4.383-.777,4.4-5.737-3.3-5.973-5.734-.175-5.82-7.329,4.96-7.892,5.855-.305,7.307-7.075,1.3-8.272-12.522-2.494-8.586-13.089,3.242-13.343,6.605-.141,8.443-5.8,3.264-10.552a22.513,22.513,0,0,1-6.335-9.522c-1.282-4.181-.928-7.674.393-10.334,6.81,5.76,11.312,15.72,11.312,27.044s-4.194,16.9-6.647,28.32c-3.4,15.827,1.935,26.561,5.04,36.44a41.768,41.768,0,0,1,1.482,5.857c-2.285,2.217-4.366-.428-7.27-12.325" transform="translate(-104.307 -271.155)" fill="#7c70c8" fill-rule="evenodd"/>
          <path id="Trazado_902579" data-name="Trazado 902579" d="M250.172,564.21a.579.579,0,0,1,1.128-.263c1.187,5.06,2.144,9.195,2.689,13.168a47.529,47.529,0,0,1,.188,12.118,79.451,79.451,0,0,1-3.356,14.852c-1.543,5.151-3.055,10.193-3.369,16.875-.229,4.885.7,8.285,1.777,12.195,1.595,5.808,3.493,12.723,2.471,27.1a.579.579,0,1,1-1.155-.082c1.009-14.194-.861-21-2.43-26.719-1.1-4.006-2.056-7.489-1.819-12.553.321-6.831,1.851-11.937,3.414-17.151a78.549,78.549,0,0,0,3.315-14.648,46.456,46.456,0,0,0-.183-11.837c-.535-3.9-1.488-8.018-2.671-13.059" transform="translate(-120.702 -276.194)" fill="#6557be" fill-rule="evenodd"/>
          <path id="Trazado_902580" data-name="Trazado 902580" d="M635.908,733.7H46.98a2.564,2.564,0,0,1-2.556-2.557V713.934a2.564,2.564,0,0,1,2.556-2.556H635.908a2.564,2.564,0,0,1,2.556,2.556v17.212a2.564,2.564,0,0,1-2.556,2.557" transform="translate(-21.774 -348.675)" fill="#9c865f" fill-rule="evenodd"/>
          <path id="Trazado_902581" data-name="Trazado 902581" d="M637.475,753.434H45.626a1.1,1.1,0,0,1-1.1-1.1v-7.38a1.1,1.1,0,0,1,1.1-1.1H637.475a1.1,1.1,0,0,1,1.1,1.1v7.38a1.1,1.1,0,0,1-1.1,1.1" transform="translate(-21.826 -364.597)" fill="#806432" fill-rule="evenodd"/>
          <path id="Trazado_902582" data-name="Trazado 902582" d="M653.965,49.591l4.909.876c.68.121.595,1.254-.195,1.113L653.77,50.7Z" transform="translate(-320.439 -24.307)" fill="#f5f3ef" fill-rule="evenodd"/>
          <path id="Trazado_902583" data-name="Trazado 902583" d="M651.8,47.4l.573.1a.385.385,0,0,1,.312.445L652.29,50.2a.385.385,0,0,1-.445.313l-.573-.1a.385.385,0,0,1-.312-.445l.395-2.253a.385.385,0,0,1,.445-.312" transform="translate(-319.059 -23.229)" fill="#c5b3d1" fill-rule="evenodd"/>
          <path id="Trazado_902584" data-name="Trazado 902584" d="M642.89,46.946l-7.87-1.379a1.067,1.067,0,0,0-1.273.795h0a1.068,1.068,0,0,0,.927,1.18l7.87,1.378Z" transform="translate(-310.618 -22.325)" fill="#a284b5" fill-rule="evenodd"/>
          <path id="Trazado_902585" data-name="Trazado 902585" d="M659.753,51.186l2.675.477c.371.066.324.683-.106.606l-2.675-.477Z" transform="translate(-323.319 -25.088)" fill="#f5f3ef" fill-rule="evenodd"/>
          <path id="Trazado_902586" data-name="Trazado 902586" d="M654.569,50.307l-.086.494,4.6.82c.373.067.365-.444.085-.494Z" transform="translate(-320.788 -24.657)" fill="#538040" fill-rule="evenodd"/>
          <path id="Trazado_902587" data-name="Trazado 902587" d="M635.458,54.5l2.97,1.915c1.847-2.632,4.479-3.785,7.27-5.2,1.457-.74,2.456-2.377,1.989-2.719-.285-.209-1.365.494-2.5.925-1.538.584-3.735.656-2.85-1.7.961-2.555,3.322-1.9,4.708-.487l1.4.246c-1.64-4.272-5.893-4.261-8.946-1.555-2.458,2.177-3.017,5.128-4.038,8.575" transform="translate(-311.463 -21.594)" fill="#a69eda" fill-rule="evenodd"/>
          <path id="Trazado_902588" data-name="Trazado 902588" d="M595.463,77.614c11.573-1.275,15.622-12.341,16.857-13.847a3.809,3.809,0,0,1,4.276,1.9c1.58,8.295-1.707,30.756-22.6,30.288-5.668-.126-7.652-17.334,1.466-18.337" transform="translate(-288.782 -31.177)" fill="#d4c6dd" fill-rule="evenodd"/>
          <path id="Trazado_902589" data-name="Trazado 902589" d="M595.463,89.7a17.745,17.745,0,0,0,5.349-1.438A64.716,64.716,0,0,1,604.9,100.57q.515,2.284.865,4.6A21.415,21.415,0,0,1,594,108.033c-5.668-.126-7.652-17.334,1.466-18.337" transform="translate(-288.782 -43.259)" fill="#c5b3d1" fill-rule="evenodd"/>
          <path id="Trazado_902590" data-name="Trazado 902590" d="M629.794,284.387l6.333,1.033c-.927,1.452-1.725,3.868-.9,5.666-2.111-.344-4.818-1.669-6.93-2.013a6.2,6.2,0,0,0,1.492-4.686" transform="translate(-307.956 -139.389)" fill="#cfbfd9" fill-rule="evenodd"/>
          <path id="Trazado_902591" data-name="Trazado 902591" d="M637.309,240.174c-1.542.992-6.5.538-7.423-.422-2.313-16.414,4.041-31.244,9.985-46.148,2.675-6.711,23.839,2.544,18.557,7.425-8.912,8.235-14.13,27.775-21.119,39.145" transform="translate(-308.494 -93.738)" fill="#7e72c8" fill-rule="evenodd"/>
          <path id="Trazado_902592" data-name="Trazado 902592" d="M635.595,213.384c2-6.673,4.7-13.219,7.313-19.78,2.176-5.459,16.584-.353,19.042,4.368q.187.881.293,1.821a2.516,2.516,0,0,1-.779,1.235A30.884,30.884,0,0,0,656.628,207a65.257,65.257,0,0,1-21.033,6.384" transform="translate(-311.531 -93.738)" fill="#6d5fc1" fill-rule="evenodd"/>
          <path id="Trazado_902593" data-name="Trazado 902593" d="M637.246,294.779c-.552,0-1.093-.011-1.619-.03-5.515-.786-9.321-3.273-10.178-3.435a3.386,3.386,0,0,0-4.018,2.6,3.25,3.25,0,0,0,.97,2.946l8.029,2.43h10.613a2.767,2.767,0,0,0,.274-1.2c0-1.83-1.822-3.314-4.07-3.314" transform="translate(-304.561 -142.753)" fill="#9288d1" fill-rule="evenodd"/>
          <path id="Trazado_902594" data-name="Trazado 902594" d="M639.56,294.779c-.552,0-1.093-.011-1.619-.03-5.515-.786-9.321-3.273-10.178-3.435a3.609,3.609,0,0,0-1.652.072c-.256,3.947,3.031,6.43,7.565,7.9h9.681a2.766,2.766,0,0,0,.274-1.2c0-1.83-1.822-3.314-4.07-3.314" transform="translate(-306.875 -142.754)" fill="#7a6ec7" fill-rule="evenodd"/>
          <path id="Trazado_902595" data-name="Trazado 902595" d="M631.143,305.625l-7.8-2.37a.657.657,0,0,1-.5-.734l.065-.348,8.236,2.452v.017H641.75V305a.63.63,0,0,1-.628.628Z" transform="translate(-305.275 -148.108)" fill="#5e2b80" fill-rule="evenodd"/>
          <path id="Trazado_902596" data-name="Trazado 902596" d="M634.115,264.815c12.495-19.7,5.756-25-2.4-24.377a58.354,58.354,0,0,0-1.833,23.4c.535.557,2.431.944,4.229.976" transform="translate(-308.494 -117.825)" fill="#9288d1" fill-rule="evenodd"/>
          <path id="Trazado_902597" data-name="Trazado 902597" d="M697.35,287.662h-7.671a10.98,10.98,0,0,1,.859,5.814h7.67a7.408,7.408,0,0,1-.858-5.814" transform="translate(-338.039 -140.995)" fill="#cfbfd9" fill-rule="evenodd"/>
          <path id="Trazado_902598" data-name="Trazado 902598" d="M671.616,236.3c-.562,1.439-7.074,1.593-8.613.736-14.2-17.029-20.284-34.215-26.461-51.4-3.021-8.405,23.551-7.218,25.163,1.8,2.96,16.548,8.181,29.791,9.911,48.866" transform="translate(-311.878 -88.204)" fill="#9288d1" fill-rule="evenodd"/>
          <path id="Trazado_902599" data-name="Trazado 902599" d="M703.312,296.726c-6.561,0-11.365-1.5-12.376-1.5a3.386,3.386,0,0,0-3.468,3.3,3.252,3.252,0,0,0,1.5,2.716h18.141a2.768,2.768,0,0,0,.274-1.2c0-1.83-1.822-3.314-4.07-3.314" transform="translate(-336.956 -144.7)" fill="#9288d1" fill-rule="evenodd"/>
          <path id="Trazado_902600" data-name="Trazado 902600" d="M705.24,296.726c-6.561,0-11.365-1.5-12.376-1.5a3.607,3.607,0,0,0-1.462.307c3.369,3.568,11.106,4.927,17.835,5.14a2.747,2.747,0,0,0,.073-.63c0-1.83-1.822-3.314-4.07-3.314" transform="translate(-338.884 -144.7)" fill="#7a6ec7" fill-rule="evenodd"/>
          <path id="Trazado_902601" data-name="Trazado 902601" d="M707.714,308H690.625a.63.63,0,0,1-.628-.628v-.353h18.345v.353a.63.63,0,0,1-.629.628" transform="translate(-338.195 -150.482)" fill="#5e2b80" fill-rule="evenodd"/>
          <path id="Trazado_902602" data-name="Trazado 902602" d="M644.449,206.278c-2.972-6.873-5.432-13.757-7.907-20.64-3.021-8.406,23.551-7.219,25.164,1.8.7,3.908,1.524,7.632,2.4,11.291-4.207,2.973-12.633,6.132-19.656,7.552" transform="translate(-311.878 -88.203)" fill="#7a6ec7" fill-rule="evenodd"/>
          <path id="Trazado_902603" data-name="Trazado 902603" d="M659.33,73.593h5.664a.377.377,0,0,1,.376.376v.938a.377.377,0,0,1-.376.376H659.33a.378.378,0,0,1-.376-.376v-.938a.377.377,0,0,1,.376-.376" transform="translate(-322.98 -36.071)" fill="#fff" fill-rule="evenodd"/>
          <path id="Trazado_902604" data-name="Trazado 902604" d="M661.937,76.913h3.375V97.34a1.418,1.418,0,0,1-1.414,1.413h-.548a1.418,1.418,0,0,1-1.413-1.413Z" transform="translate(-324.442 -37.698)" fill="#fff" fill-rule="evenodd"/>
          <rect id="Rectángulo_402546" data-name="Rectángulo 402546" width="3.375" height="1.071" transform="translate(337.495 39.215)" fill="#d4c6dd"/>
          <path id="Trazado_902605" data-name="Trazado 902605" d="M663.477,87.39v15.035a.632.632,0,0,0,.628.629h.548a.632.632,0,0,0,.628-.629V87.39Z" transform="translate(-325.197 -42.833)" fill="#538040" fill-rule="evenodd"/>
          <path id="Trazado_902606" data-name="Trazado 902606" d="M576.637,59.157c4.774-.8,9.786,1.317,13.218,8.038a50.851,50.851,0,0,1,4.269,14.82c-.616-3.389-1.768-6.938-3.488-8.815-5.535-6.041-12.01-8.346-13.968-13.95a.265.265,0,0,0-.031-.093" transform="translate(-282.633 -28.916)" fill="#7c70c8" fill-rule="evenodd"/>
          <path id="Trazado_902607" data-name="Trazado 902607" d="M570.337,114.937c14.279.066,43.984.326,44.288,21.445.063,4.342-19.043,11.51-28.539,11.654,2.447-6.781-1.895-10.117-8.134-11.375-6.876-1.386-12.2-.692-18.938-.616-1.434.016-9.232,0-10.823-.062-13.223-1.011-13.921-22.763-11.51-41.086,1.4-10.607,5.56-23.357,12.77-29.478q.42-.356.857-.683c2.438,3.438,5.19,6.714,10.587,8.618l6.981,2.344-2.12,1.838c4.569,5.285,6.779,6.595,7.877,12.734a11.136,11.136,0,0,0,.532,2.322c.137.013.275.024.414.032a54.751,54.751,0,0,1-4.242,22.314" transform="translate(-262.516 -31.73)" fill="#ede9e2" fill-rule="evenodd"/>
          <path id="Trazado_902608" data-name="Trazado 902608" d="M582.084,63.992a37.1,37.1,0,0,1,2.388-4c3.014.973,5.856,3.39,8.052,7.69a50.836,50.836,0,0,1,4.269,14.82c-.616-3.39-1.768-6.938-3.488-8.815-3.914-4.271-8.3-6.675-11.221-9.7" transform="translate(-285.303 -29.406)" fill="#6557be" fill-rule="evenodd"/>
          <path id="Trazado_902609" data-name="Trazado 902609" d="M586.147,121.434c14.279.066,43.984.326,44.288,21.445.032,2.161-4.684,5.021-10.6,7.367.449-8.555-4.557-13.921-9.628-14.943-6.875-1.386-12.2-.692-18.938-.617-1.433.017-9.232,0-10.823-.061-13.223-1.011-13.921-22.763-11.51-41.086A70.263,70.263,0,0,1,572.8,77.992a19.733,19.733,0,0,0,3.9,1.859l6.981,2.344-2.12,1.838c4.569,5.285,6.779,6.595,7.877,12.734a11.14,11.14,0,0,0,.532,2.322c.137.013.275.024.414.032a54.748,54.748,0,0,1-4.242,22.314" transform="translate(-278.325 -38.227)" fill="#d4c6dd" fill-rule="evenodd"/>
          <path id="Trazado_902610" data-name="Trazado 902610" d="M568.718,102.458c.261-1.982.618-4.04,1.075-6.115,3.561-.756,7.909,1.2,11.521,7.438,2.433,4.206,5.564,5.887,8.85,6.045-.11,5.982-1.17,15.047-3.115,20.534-1.861,0-4.524.27-6.173-.256-7.773-2.481-12.114-10.558-13.191-15.5-.816-3.742.319-6.719,1.033-12.148" transform="translate(-278.106 -47.146)" fill="#c5b3d1" fill-rule="evenodd"/>
          <path id="Trazado_902611" data-name="Trazado 902611" d="M599.814,15.83c-3.332,0-12.2,7.5-12.5,11.233-.121,1.5,1.294,2.891,2.486,4.323,1.781,2.139,3.863,4.057,5.978,4.057,4.4,0,4.4-4.1,5.888-7.988,2.5-6.532.03-11.624-1.85-11.624" transform="translate(-287.862 -7.759)" fill="#cfbfd9" fill-rule="evenodd"/>
          <path id="Trazado_902612" data-name="Trazado 902612" d="M590.062,46.069c-2.984,1.688-5.013,3.373-3.839,7.334-2.483.085-7.042-1.819-9.727-4.045,3.022-3.346,3.341-8.388,6.466-10.378,1.752,1.375,5.462,5.579,7.1,7.089" transform="translate(-282.564 -19.106)" fill="#ab91bd" fill-rule="evenodd"/>
          <path id="Trazado_902613" data-name="Trazado 902613" d="M590.3,55.607c-1.435,1.3-2.1,2.937-1.31,5.612a15.706,15.706,0,0,1-6.847-2.139c2.4-2.41,4.953-4.155,6.836-4.155a1.855,1.855,0,0,1,1.321.683" transform="translate(-285.333 -26.92)" fill="#c0accd" fill-rule="evenodd"/>
          <path id="Trazado_902614" data-name="Trazado 902614" d="M577.965,23.713c3.29-.566,3.278-2.841,3.068-4.775-.181-1.656-.276-3.426,1.2-3.3,1.35.119,2.983.813,3.81-.642.543-.956-.156-2.161,1.373-3.264,2.97-2.14,4.88-.235,7.086-.149,2.089.082,3.9-2.3,3.877-4.878-.046-4.978-7.641-9.115-11.563-5.08a4.492,4.492,0,0,1-2.2,1.447C582.481,3.5,582.086.7,579.2,1.961c-1.748.762-1.292,2.649-1.649,3.571a3.234,3.234,0,0,1-2.7,2.418,3.453,3.453,0,0,0-2.665,1.3c-1.716,2.217-.2,3.823.715,5.861.634,1.412,1.02,2.934-.012,3.994-4.372,4.494,2.716,8.855,5.079,4.611" transform="translate(-280.067 0)" fill="#5343b6" fill-rule="evenodd"/>
          <path id="Trazado_902615" data-name="Trazado 902615" d="M594.5,37.714c1.1-5,6.384-10.323,11.709-11.665a14.781,14.781,0,0,1-1.019,6.414c-1.487,3.888-1.49,7.988-5.888,7.988-1.665,0-3.308-1.188-4.8-2.737" transform="translate(-291.389 -12.768)" fill="#dfd5e6" fill-rule="evenodd"/>
          <path id="Trazado_902616" data-name="Trazado 902616" d="M589.835,39.069c2.182-1.416,3.841-3.082,3.568-5.807a25.123,25.123,0,0,0,9.6,4.3c-.614,4.032-1.414,7.849-5.989,7.315-3.391-.714-5.218-3.286-7.181-5.811" transform="translate(-289.102 -16.303)" fill="#e7e2d8" fill-rule="evenodd"/>
          <path id="Trazado_902617" data-name="Trazado 902617" d="M588.889,37.208a5.8,5.8,0,0,1-1.431-2.547,6.687,6.687,0,0,1-.354-3.076,4.725,4.725,0,0,1,1.059-2.419,1.727,1.727,0,0,1,2.441-.235,7.8,7.8,0,0,1,2.27,3.371l-.341.144a7.462,7.462,0,0,0-2.143-3.212,1.361,1.361,0,0,0-1.958.185,4.347,4.347,0,0,0-.964,2.225,6.3,6.3,0,0,0,.338,2.9,5.436,5.436,0,0,0,1.324,2.387Z" transform="translate(-287.736 -13.986)" fill="#e7e2d8" fill-rule="evenodd"/>
          <path id="Trazado_902618" data-name="Trazado 902618" d="M589.891,28.492c-1.372-.458-2.3.8-2.848,2.076a2.318,2.318,0,0,0,1.1,3.043,1.151,1.151,0,0,0,.917-.09,10.9,10.9,0,0,1,1.836-3.333,1.45,1.45,0,0,0-1.007-1.7" transform="translate(-287.638 -13.918)" fill="#cfbfd9" fill-rule="evenodd"/>
          <path id="Trazado_902619" data-name="Trazado 902619" d="M590.846,30.622c-.843-.281-1.411.489-1.749,1.275a1.45,1.45,0,0,0,.6,1.839,2.382,2.382,0,0,1,.193-.867,4.172,4.172,0,0,1,1.428-1.922.9.9,0,0,0-.468-.325" transform="translate(-288.682 -14.98)" fill="#ab91bd" fill-rule="evenodd"/>
          <path id="Trazado_902620" data-name="Trazado 902620" d="M660.838,91.268c.86,1.206-1.3,6.092-2.343,5.545a28.994,28.994,0,0,0-4.773-.657c-1.27-.064-.833,1.784-1.538,2.3-.332.244-3.074-.913-3.492-1.3-.767-.708.816-2.662,2.392-4.313a41.83,41.83,0,0,1,3.2-3.176,1.488,1.488,0,0,1,.924-.424c.513.025-.416,1.447.088,1.342a13.206,13.206,0,0,1,2.294-.269c1.416-.042,2.622.066,3.253.95" transform="translate(-317.852 -43.742)" fill="#a69eda" fill-rule="evenodd"/>
          <path id="Trazado_902621" data-name="Trazado 902621" d="M665.019,59.381a2.062,2.062,0,1,1-3.51,0l1.755-3.75Z" transform="translate(-324.082 -27.267)" fill="#538040" fill-rule="evenodd"/>
          <path id="Trazado_902622" data-name="Trazado 902622" d="M664.429,60.507a1.307,1.307,0,1,1-2.226,0l1.113-2.377Z" transform="translate(-324.477 -28.492)" fill="#9bb590" fill-rule="evenodd"/>
          <path id="Trazado_902623" data-name="Trazado 902623" d="M557.27,106.587c4.853,9.9,17.365,16.21,25.288,15.281,21.228-2.49,25.554-23.7,24.752-24.347-1.171-.941-3.908-2.28-4.827-2.04-4.291,5.126-19.944,16.715-28.074,2.471-9.567-16.76-24.149-5.669-17.138,8.635" transform="translate(-272.237 -43.882)" fill="#ede9e2" fill-rule="evenodd"/>
          <path id="Trazado_902624" data-name="Trazado 902624" d="M605.649,98.552l-.074-.037a36.807,36.807,0,0,1-10.247,7.084c-9.077,4.1-17.7,2.36-22.891-6.734-7.536-13.2-16.54-5.048-11.345,5.553a22.611,22.611,0,0,0,4.775,6.355c4.152,3.946,11.693,8.087,17.62,7.391A24.656,24.656,0,0,0,601.3,107.775a28.779,28.779,0,0,0,3.612-6.858c.206-.567.521-1.5.737-2.366" transform="translate(-274.259 -45.104)" fill="#fff" fill-rule="evenodd"/>
          <path id="Trazado_902625" data-name="Trazado 902625" d="M557.066,163.792c-2.86,0-7.665-.018-8.875-.068-13.223-1.011-13.921-22.763-11.51-41.086q.085-.646.184-1.3c1.269,20.353,1.308,36.709,20.2,42.457" transform="translate(-262.515 -59.471)" fill="#fff" fill-rule="evenodd"/>
          <path id="Trazado_902626" data-name="Trazado 902626" d="M562.984,157.007q5.157.56,9.886.693c1.949-.413,4.918,11.691,2.33,10.954a33.645,33.645,0,0,1-8.383-.106.528.528,0,0,1-.47-.234c-3.392-3.27-4.034-7.085-3.685-11.1-.04-.122.1-.216.323-.21" transform="translate(-275.741 -76.955)" fill="#fff" fill-rule="evenodd"/>
          <path id="Trazado_902627" data-name="Trazado 902627" d="M564.455,61.717c.852-3.371,6.138-3.6,6.242-2.673,1.958,5.6,8.433,7.909,13.968,13.95,2.362,2.579,3.655,8.31,3.956,12.452.1,1.354.1,2.771.13,4.159-.146-.008-.293-.02-.439-.033a11.177,11.177,0,0,1-.531-2.322c-1.1-6.139-3.308-7.449-7.877-12.734l2.121-1.837-6.982-2.344c-5.4-1.9-8.149-5.179-10.587-8.617" transform="translate(-276.662 -28.71)" fill="#fff" fill-rule="evenodd"/>
          <path id="Trazado_902628" data-name="Trazado 902628" d="M654.234,106.333a.959.959,0,1,1-1.017.666.869.869,0,0,1,1.017-.666" transform="translate(-320.142 -52.104)" fill="#bfaacc" fill-rule="evenodd"/>
          <path id="Trazado_902629" data-name="Trazado 902629" d="M635.3,65.209a.958.958,0,1,1-1.017.666.869.869,0,0,1,1.017-.666" transform="translate(-310.861 -31.947)" fill="#a588b8" fill-rule="evenodd"/>
          <rect id="Rectángulo_402547" data-name="Rectángulo 402547" width="70.385" height="91.268" transform="translate(393.786 284.759)" fill="#9d7eb2"/>
          <path id="Trazado_902630" data-name="Trazado 902630" d="M768.731,548.689h73.127a.963.963,0,0,1,.961.96v3.084a.963.963,0,0,1-.961.96H768.731a.963.963,0,0,1-.96-.96v-3.084a.963.963,0,0,1,.96-.96" transform="translate(-376.315 -268.934)" fill="#633184" fill-rule="evenodd"/>
          <path id="Trazado_902631" data-name="Trazado 902631" d="M975.494,715.828h7.816a11.678,11.678,0,0,0-1.348,5.925h-7.816a7.859,7.859,0,0,0,1.348-5.925" transform="translate(-477.468 -350.856)" fill="#cfbfd9" fill-rule="evenodd"/>
          <path id="Trazado_902632" data-name="Trazado 902632" d="M965.414,663.494c1.146,1.466,7.843,1.623,9.069.75,7.682-17.35,7.038-34.862,6.485-52.372-.27-8.564-26.872-7.355-24.924,1.831,3.577,16.861,8.625,33.356,9.37,49.791" transform="translate(-468.545 -297.065)" fill="#7e72c8" fill-rule="evenodd"/>
          <path id="Trazado_902633" data-name="Trazado 902633" d="M980.916,636.794a241.018,241.018,0,0,0,.052-24.923c-.271-8.565-26.873-7.355-24.924,1.831,1.776,8.371,3.915,16.653,5.709,24.882,7.659.161,15.169-.376,19.163-1.79" transform="translate(-468.546 -297.065)" fill="#6d5fc1" fill-rule="evenodd"/>
          <path id="Trazado_902634" data-name="Trazado 902634" d="M957.6,725.061c6.685,0,11.7-1.532,12.733-1.532a3.138,3.138,0,0,1,3.264,3.362,3.651,3.651,0,0,1-1.748,2.766H953.364a2.7,2.7,0,0,1-.182-1.22c.149-1.865,2.126-3.376,4.417-3.376" transform="translate(-467.189 -354.631)" fill="#9288d1" fill-rule="evenodd"/>
          <path id="Trazado_902635" data-name="Trazado 902635" d="M957.6,725.061c6.685,0,11.7-1.532,12.733-1.532a3.492,3.492,0,0,1,1.464.313c-3.723,3.636-11.717,5.02-18.591,5.238a2.714,2.714,0,0,1-.023-.642c.149-1.865,2.126-3.376,4.417-3.376" transform="translate(-467.188 -354.631)" fill="#7a6ec7" fill-rule="evenodd"/>
          <path id="Trazado_902636" data-name="Trazado 902636" d="M954.09,736.549H971.5a.709.709,0,0,0,.691-.64l.028-.36H953.53l-.029.36a.584.584,0,0,0,.589.64" transform="translate(-467.348 -360.522)" fill="#5e2b80" fill-rule="evenodd"/>
          <path id="Trazado_902637" data-name="Trazado 902637" d="M939.273,715.828h7.816a13.074,13.074,0,0,0-2.2,5.925h-7.817a8.77,8.77,0,0,0,2.2-5.925" transform="translate(-459.299 -350.856)" fill="#cfbfd9" fill-rule="evenodd"/>
          <path id="Trazado_902638" data-name="Trazado 902638" d="M936.538,663.494c.936,1.466,7.61,1.623,8.961.75,10.166-17.35,12.027-34.862,13.98-52.372.955-8.564-25.82-7.355-25.186,1.831,1.163,16.861,3.851,33.356,2.244,49.791" transform="translate(-457.93 -297.065)" fill="#9288d1" fill-rule="evenodd"/>
          <path id="Trazado_902639" data-name="Trazado 902639" d="M955.567,638.6c2.055-8.9,3.027-17.812,4.022-26.728.8-7.171-17.84-7.488-23.554-2.009-.5,1.808-1.012,3.574-1.529,5.277.552,7.46,1.37,14.851,1.949,22.2a115.362,115.362,0,0,0,19.112,1.262" transform="translate(-458.039 -297.066)" fill="#7a6ec7" fill-rule="evenodd"/>
          <path id="Trazado_902640" data-name="Trazado 902640" d="M920.139,725.061c6.685,0,11.922-1.532,12.952-1.532a2.676,2.676,0,0,1,2.783,3.362,4.412,4.412,0,0,1-2.144,2.766H915.246a2.617,2.617,0,0,1-.007-1.22c.416-1.865,2.609-3.376,4.9-3.376" transform="translate(-448.562 -354.631)" fill="#9288d1" fill-rule="evenodd"/>
          <path id="Trazado_902641" data-name="Trazado 902641" d="M920.14,725.061c6.685,0,11.922-1.532,12.952-1.532a3.2,3.2,0,0,1,1.42.313c-4.243,3.636-12.436,5.02-19.34,5.238a2.791,2.791,0,0,1,.068-.642c.416-1.865,2.609-3.376,4.9-3.376" transform="translate(-448.562 -354.631)" fill="#7a6ec7" fill-rule="evenodd"/>
          <path id="Trazado_902642" data-name="Trazado 902642" d="M915.657,736.549h17.412a.848.848,0,0,0,.783-.64l.08-.36H915.24l-.08.36a.5.5,0,0,0,.5.64" transform="translate(-448.548 -360.522)" fill="#5e2b80" fill-rule="evenodd"/>
          <path id="Trazado_902643" data-name="Trazado 902643" d="M946.763,698.351c-.5-19.408,7.487-24.534,14.177-23.568a88.191,88.191,0,0,1-9.335,23.079c-.7.452-2.825.628-4.842.489" transform="translate(-464.035 -330.683)" fill="#a69eda" fill-rule="evenodd"/>
          <path id="Trazado_902644" data-name="Trazado 902644" d="M981.187,697.828c-4.444-21.02,3.853-25.62,11.12-23.826a77.853,77.853,0,0,1-6.062,23.359c-.664.473-2.935.644-5.058.468" transform="translate(-480.307 -330.182)" fill="#9288d1" fill-rule="evenodd"/>
          <path id="Trazado_902645" data-name="Trazado 902645" d="M903.719,500.867c-11.116,13.8-22.952,11.035-38.505-1.294-.41-.46-3.75-1.555-4.567-3.031-1.078-1.947.632-4.177,3.4-2.725.75.394,1.467.551,1.353.316-.686-1.408-.566-2.249-.166-2.4.253-.094,1.24,1.547,2.135,3.087,1.357,2.334,1.1,2.485,3.414,3.6a23.373,23.373,0,0,0,16.266,1.063c4.645-1.32,8.484-4.8,11.587-7.376,4.466-3.484,8.9,3.533,5.086,8.76" transform="translate(-421.678 -240.744)" fill="#b59dc5" fill-rule="evenodd"/>
          <path id="Trazado_902646" data-name="Trazado 902646" d="M932.909,500.867a30.2,30.2,0,0,1-6.216,5.967c-2.843-2.682-5.967-6.631-6.819-8.862a50.087,50.087,0,0,0,7.949-5.866c4.466-3.484,8.9,3.533,5.086,8.761" transform="translate(-450.867 -240.743)" fill="#ab91bd" fill-rule="evenodd"/>
          <path id="Trazado_902647" data-name="Trazado 902647" d="M887.268,510.612c-6.6-.115-13.806-3.962-22.053-10.5-.411-.46-3.75-1.555-4.567-3.031-1.078-1.947.632-4.177,3.4-2.725.75.394,1.468.551,1.353.316-.686-1.407-.566-2.249-.166-2.4.254-.094,1.24,1.547,2.135,3.087,1.357,2.334,1.1,2.485,3.413,3.6A23.34,23.34,0,0,0,886.8,500.09a16.751,16.751,0,0,1,.775,9.291c-.086.417-.19.827-.307,1.231" transform="translate(-421.678 -241.283)" fill="#a69eda" fill-rule="evenodd"/>
          <path id="Trazado_902648" data-name="Trazado 902648" d="M860.464,495.319c.328-1.208,1.737-1.967,3.651-.963.75.394,1.467.551,1.353.316-.686-1.407-.566-2.249-.166-2.4.253-.093,1.24,1.548,2.135,3.087,1.357,2.334,1.1,2.486,3.413,3.6a23.373,23.373,0,0,0,16.266,1.063c3.134-.89,10.2,4.719,2.17,6.685-7.749,1.9-16.241-2.073-26.283-10.033a26.18,26.18,0,0,0-2.539-1.354" transform="translate(-421.748 -241.283)" fill="#c0accd" fill-rule="evenodd"/>
          <path id="Trazado_902649" data-name="Trazado 902649" d="M860.464,495.319a2,2,0,0,1,.143-.374l0-.007.026-.048.028-.05.024-.039.008-.013c.029-.046.06-.09.092-.133l0-.006.029-.037.013-.016c.019-.023.04-.046.061-.069l.009-.01.031-.032.014-.015.034-.034.042-.039.033-.029.018-.016.036-.029.011-.008.068-.051.029-.02.029-.019.033-.022.052-.031.034-.019.03-.017.039-.019.03-.015.055-.025,0,0,.036-.016.032-.013.038-.015h0l.059-.021h0l.031-.01.049-.015.029-.008.052-.014.058-.014.037-.008.042-.008.067-.011h.01l.076-.01.038,0,.058,0,.028,0,.08,0h.125l.091,0,.022,0,.072,0,.033,0,.095.011h0l.1.014.026,0,.1.018h0l.1.022.025.006.1.026h0l.106.031.034.011.072.024.042.015.1.037.02.008.1.04.019.008.109.047.01,0,.022.01.086.041.035.017.113.058c.75.394,1.467.551,1.353.316-.686-1.407-.566-2.249-.166-2.4.254-.094,1.24,1.547,2.135,3.087,1.357,2.334,1.1,2.486,3.413,3.6l.189.09h0l.19.087.005,0,.189.084.008,0,.189.081.01,0,.057.024.146.06.189.076.015.007.189.073.019.008.188.071h0l.118.043.089.033.025.009.187.065.028.01.08.027.126.043.074.024.141.046.082.026.15.047.026.008.2.059.027.008.193.056.066.018.15.042.107.028.122.033.112.029.113.029.12.03.12.029.095.022.136.031.143.032.08.018.158.033.086.018.122.024.134.026.112.021.115.021.135.024.122.021.117.019.119.019.142.022.107.016.123.018.137.019.131.017.1.012.191.023.049.006.174.019.109.011.134.013.116.011.155.014.106.009.143.011.115.008.152.01.111.007.152.008.1.006.166.007.1,0,.151.005.11,0,.172,0,.092,0,.163,0h.374l.179,0,.083,0,.2,0,.069,0,.2-.007.1,0,.158-.007.125-.007.155-.008.125-.008.153-.01.1-.007.208-.017.05,0,.21-.019.085-.008.216-.022.037,0,.24-.026.048-.006.229-.029.07-.01.206-.027.073-.01.226-.033.033-.006c.174-.027.35-.055.525-.086l.07-.013c.167-.03.335-.062.5-.1l.084-.017.212-.043.05-.011c.177-.038.355-.077.533-.12l.034-.008q.421-.1.846-.216a17.127,17.127,0,0,1,1.087,6.882c-7.391,1.167-15.484-2.792-24.955-10.3a26.264,26.264,0,0,0-2.539-1.354" transform="translate(-421.748 -241.283)" fill="#beb8e4" fill-rule="evenodd"/>
          <path id="Trazado_902650" data-name="Trazado 902650" d="M942.742,489.827a43.48,43.48,0,0,1-10.2,9.391c-3.225-.671-12.268-11.336-10.943-13.1,1.494-1.648,5.022-7.268,7.429-11.184,3.435-5.59,9.005-3.221,12.644.447,3.7,3.726,5.4,8.841,1.065,14.445" transform="translate(-451.651 -231.155)" fill="#c5b3d1" fill-rule="evenodd"/>
          <path id="Trazado_902651" data-name="Trazado 902651" d="M933.949,491.632c-3.2-2.852-8.6-3.564-9.541-9.327-1.192-7.33.868-19.265,8.141-22.018,8.818-3.339,18.4,5.652,23.734,16.227,2.617,5.185,8.16,23.315,10.293,40.248,2.273,18.035,1.923,35.491.66,41.128A5.684,5.684,0,0,1,964,562.057c-9.8,4.184-47.825,1.644-43.645-3.921,6.547-8.715,19.664-61.1,13.59-66.5" transform="translate(-450.948 -225.258)" fill="#ede9e2" fill-rule="evenodd"/>
          <path id="Trazado_902652" data-name="Trazado 902652" d="M933.949,493.7c-3.2-2.852-8.6-3.564-9.541-9.328-1.042-6.409.4-16.339,5.644-20.574,5.026,2.95,9.6,8.595,12.725,14.783,2.618,5.185,8.159,23.315,10.293,40.248,2.273,18.035,1.924,35.491.66,41.128a5.684,5.684,0,0,1-3.233,4.167c-2.31.986-6.189,1.6-10.714,1.886-11.413-.633-21.706-2.77-19.424-5.807,6.547-8.715,19.664-61.1,13.59-66.5" transform="translate(-450.948 -227.326)" fill="#d4c6dd" fill-rule="evenodd"/>
          <path id="Trazado_902653" data-name="Trazado 902653" d="M958.989,552.98c2.5-.815,5.422-.906,7.985-1.293,1.982-.3,2.843.826,3.289,2.64.641,2.612,2.362,8.631-.111,9.7-2.88,1.245-9.332.509-14-.029-1.376-.158-.993-1.908-.107-3.97,1.426-3.317,2.3-6.466,2.948-7.049" transform="translate(-468.203 -270.38)" fill="#fff" fill-rule="evenodd"/>
          <path id="Trazado_902654" data-name="Trazado 902654" d="M914.368,455.738c5.557.337,7.788,5.332,8.3,8.335,1.3-4.053,3.6-7.517,7.106-8.845a10.342,10.342,0,0,1,2.438-.606,54.81,54.81,0,0,0-15.55-5.362,10.086,10.086,0,0,1-2.289,6.478" transform="translate(-448.168 -220.2)" fill="#ab91bd" fill-rule="evenodd"/>
          <path id="Trazado_902655" data-name="Trazado 902655" d="M917.391,460.828c4.436,1.071,6.3,5.4,6.754,8.107,1.18-3.67,3.173-6.858,6.145-8.413a28.159,28.159,0,0,0-5.78-1.228c-3.885-.4-6.085.3-7.119,1.535" transform="translate(-449.65 -225.062)" fill="#c0accd" fill-rule="evenodd"/>
          <path id="Trazado_902656" data-name="Trazado 902656" d="M928.663,485.022c-4.05-3.805-2.867-10.372-1.335-15.932,1.285-4.666,3.75-8.814,7.611-10.276a10.771,10.771,0,0,1,5.775-.455c1.025,1.566,1.412,3.678.758,4.855a23.3,23.3,0,0,0-8.342,9.739l-2.37.593c.826,1.9,1.309,3.493.933,4.306l-3.015.424a36.448,36.448,0,0,0-.015,6.745" transform="translate(-453.822 -224.562)" fill="#fff" fill-rule="evenodd"/>
          <path id="Trazado_902657" data-name="Trazado 902657" d="M884.456,435.9c.924,3.54,5.987,8.564,7.9,9.987,2.758,2.054,3.638,2.746,5.98,1.151,3.224-2.195,5.106-8.212,2.143-12.563-3.43-5.038-7.522-7.445-13.141-3.392-1.865,1.346-3.322,3.125-2.88,4.817" transform="translate(-433.468 -210.287)" fill="#cfbfd9" fill-rule="evenodd"/>
          <path id="Trazado_902658" data-name="Trazado 902658" d="M891.559,449.683a31.772,31.772,0,0,0,4.316,4.2c2.758,2.054,3.638,2.746,5.98,1.152a7.648,7.648,0,0,0,2.211-2.442,6.18,6.18,0,0,0-1.052-3.375c-2.441-3.585-5.353-5.3-9.351-2.414a4.424,4.424,0,0,0-2.1,2.884" transform="translate(-436.989 -218.281)" fill="#dfd5e6" fill-rule="evenodd"/>
          <path id="Trazado_902659" data-name="Trazado 902659" d="M880.885,430.827c3.285,1.994,3.861-1.079,5.771-.7.955.189,3.708-.257,4.173-1.608,1.58.12,4.154,1.225,4.658,3.05,2.487,2.565,4.135,1.52,4.15,1.519,4.937-.6,9.4-14.044-2.931-13.972-2.711.016-1.306-4.038-6.664-2.489-2.172.628-12.266-6.047-14.819,6.861-1.288,6.512,3.828,10.025,5.364,7.431Z" transform="translate(-428.881 -203.629)" fill="#4635b1" fill-rule="evenodd"/>
          <path id="Trazado_902660" data-name="Trazado 902660" d="M875.666,429.68c2.368,2.293,3.924,1.309,3.938,1.307,4.552-.552,8.7-12.025-.346-13.754-1.757,1.049-3.252,3.164-4.036,7.127a8.924,8.924,0,0,0,.443,5.32" transform="translate(-428.881 -204.503)" fill="#5343b6" fill-rule="evenodd"/>
          <path id="Trazado_902661" data-name="Trazado 902661" d="M923.471,515.124c-5.784,16.75-17.856,18.158-36.666,11.828-.542-.294-4.054-.193-5.323-1.3-1.674-1.466-.82-4.144,2.274-3.715.839.117,1.567.022,1.379-.161-1.122-1.092-1.294-1.924-.968-2.2.207-.174,1.691,1.036,3.055,2.181,2.067,1.736,1.873,1.968,4.43,2.227a23.376,23.376,0,0,0,15.664-4.511c3.922-2.815,6.355-7.394,8.4-10.865,3.021-4.791,9.575.307,7.754,6.519" transform="translate(-431.636 -248.36)" fill="#b59dc5" fill-rule="evenodd"/>
          <path id="Trazado_902662" data-name="Trazado 902662" d="M951.883,515.124a32.173,32.173,0,0,1-3.012,6.5,34.455,34.455,0,0,1-10.266-4.766,49.751,49.751,0,0,0,5.524-8.249c3.021-4.791,9.575.307,7.754,6.52" transform="translate(-460.048 -248.36)" fill="#ab91bd" fill-rule="evenodd"/>
          <path id="Trazado_902663" data-name="Trazado 902663" d="M880.647,535.769c-.1-1.248.967-2.44,3.109-2.142.839.116,1.567.021,1.38-.161-1.123-1.092-1.295-1.924-.968-2.2.208-.174,1.691,1.036,3.055,2.181,2.068,1.736,1.872,1.967,4.43,2.227a23.38,23.38,0,0,0,15.663-4.511c2.646-1.9,11.2.984,4.306,5.554-6.648,4.411-15.984,3.552-28.128-.535a26.03,26.03,0,0,0-2.846-.414" transform="translate(-431.637 -260.054)" fill="#c0accd" fill-rule="evenodd"/>
          <path id="Trazado_902664" data-name="Trazado 902664" d="M956.84,494.564a45.5,45.5,0,0,1-5.144,13.1c-3.165.844-15.747-4.754-15.307-6.948.639-2.167,1.418-8.849,1.915-13.483.709-6.614,6.686-6.973,11.486-5.286,4.876,1.714,8.558,5.583,7.05,12.615" transform="translate(-458.956 -235.804)" fill="#fff" fill-rule="evenodd"/>
          <path id="Trazado_902665" data-name="Trazado 902665" d="M973.557,540.84c1.135,5.081,2.131,10.474,2.8,15.751,2.273,18.035,1.923,35.49.66,41.128a5.684,5.684,0,0,1-3.233,4.167c-6.041,2.579-22.8,2.6-33.795.939,24.155,1.219,23.689-.563,29.214-2.922a8.142,8.142,0,0,0,4.631-5.968c1.673-7.467,2.228-29.407-.273-53.094" transform="translate(-460.724 -265.087)" fill="#fff" fill-rule="evenodd"/>
          <path id="Trazado_902666" data-name="Trazado 902666" d="M911.851,541.434c-6.35,2.491-14.674,1.355-25.046-2.135-.542-.294-4.055-.193-5.323-1.3-1.674-1.466-.82-4.144,2.274-3.715.839.116,1.567.021,1.38-.161-1.123-1.092-1.295-1.924-.968-2.2.208-.174,1.691,1.036,3.055,2.181,2.067,1.736,1.872,1.967,4.43,2.227a23.174,23.174,0,0,0,14.606-3.791,19.115,19.115,0,0,1,5.594,8.9" transform="translate(-431.636 -260.707)" fill="#a69eda" fill-rule="evenodd"/>
          <path id="Trazado_902667" data-name="Trazado 902667" d="M880.646,536.422c-.1-1.248.968-2.44,3.109-2.142.84.116,1.567.021,1.38-.161-1.122-1.092-1.295-1.924-.968-2.2.207-.174,1.691,1.036,3.055,2.181,2.068,1.736,1.873,1.967,4.43,2.227a23.171,23.171,0,0,0,14.606-3.791,20.381,20.381,0,0,1,4.259,5.5c-6.563,3.637-15.536,2.659-27.023-1.205a26.07,26.07,0,0,0-2.847-.414" transform="translate(-431.637 -260.707)" fill="#beb8e4" fill-rule="evenodd"/>
          <path id="Trazado_902668" data-name="Trazado 902668" d="M184.339,337.184l18.846,16.6a.627.627,0,0,1,.056.883l-.935,1.061a.628.628,0,0,1-.884.056l-18.846-16.6a.628.628,0,0,1-.056-.884l.935-1.061a.628.628,0,0,1,.884-.056" transform="translate(-89.384 -165.191)" fill="#9288d1" fill-rule="evenodd"/>
          <path id="Trazado_902669" data-name="Trazado 902669" d="M134.439,725.779H127.05a10.25,10.25,0,0,1,.025,5.6h7.389a6.918,6.918,0,0,1-.025-5.6" transform="translate(-62.272 -355.733)" fill="#cfbfd9" fill-rule="evenodd"/>
          <path id="Trazado_902670" data-name="Trazado 902670" d="M133.4,676.3c-1.392,1.386-7.757,1.534-8.732.709-3.6-16.4.7-32.959,4.91-49.512,2.061-8.1,26.955-6.954,23.176,1.731-6.935,15.94-15.186,31.535-19.355,47.072" transform="translate(-60.442 -304.88)" fill="#7e72c8" fill-rule="evenodd"/>
          <path id="Trazado_902671" data-name="Trazado 902671" d="M126.589,647.376c1.2-6.619,2.9-13.248,4.59-19.876,2.061-8.1,26.956-6.954,23.177,1.731-3.1,7.13-6.468,14.192-9.613,21.21a71.173,71.173,0,0,1-18.153-3.065" transform="translate(-62.046 -304.88)" fill="#6d5fc1" fill-rule="evenodd"/>
          <path id="Trazado_902672" data-name="Trazado 902672" d="M138.467,734.509c-6.32,0-10.741-1.448-11.715-1.448a3.89,3.89,0,0,0-3.794,3.178,2.688,2.688,0,0,0,1.069,2.616H141.5a2.99,2.99,0,0,0,.429-1.153c.252-1.763-1.3-3.192-3.463-3.192" transform="translate(-60.251 -359.303)" fill="#9288d1" fill-rule="evenodd"/>
          <path id="Trazado_902673" data-name="Trazado 902673" d="M140.75,734.509c-6.32,0-10.741-1.448-11.715-1.448a3.77,3.77,0,0,0-1.45.3c2.752,3.437,10.018,4.746,16.471,4.952a2.852,2.852,0,0,0,.158-.607c.252-1.763-1.3-3.192-3.463-3.192" transform="translate(-62.535 -359.303)" fill="#7a6ec7" fill-rule="evenodd"/>
          <path id="Trazado_902674" data-name="Trazado 902674" d="M141.566,745.369H125.105a.514.514,0,0,1-.519-.605l.049-.34h17.671l-.048.34a.725.725,0,0,1-.692.605" transform="translate(-61.062 -364.872)" fill="#5e2b80" fill-rule="evenodd"/>
          <path id="Trazado_902675" data-name="Trazado 902675" d="M157.378,406.607c-1.772,2.786-2.733,5.138.059,7.974-2.073,1.2-6.811,1.643-10.1.967,1.053-4.214-.959-8.644.8-11.752,2.113.375,7.17,2.268,9.246,2.811" transform="translate(-72.215 -197.917)" fill="#ab91bd" fill-rule="evenodd"/>
          <path id="Trazado_902676" data-name="Trazado 902676" d="M152.067,373.721c-2.833,1.509-6.976,11.9-5.54,15.212.576,1.328,2.409,1.872,4.071,2.549,2.484,1.012,5.122,1.7,6.92.741,3.738-1.992,1.884-5.479,1.387-9.458-.835-6.684-5.239-9.9-6.838-9.044" transform="translate(-71.674 -183.11)" fill="#cfbfd9" fill-rule="evenodd"/>
          <path id="Trazado_902677" data-name="Trazado 902677" d="M159.192,414.294c-.631,1.756-.457,3.449,1.428,5.364a15.12,15.12,0,0,1-6.79,1.283c.95-3.137,2.329-5.776,3.929-6.629a1.787,1.787,0,0,1,1.432-.018" transform="translate(-75.398 -202.994)" fill="#c0accd" fill-rule="evenodd"/>
          <path id="Trazado_902678" data-name="Trazado 902678" d="M137.048,386.671c2.54-1.972,1.5-3.9.446-5.449-.9-1.326-1.787-2.788-.474-3.345,1.2-.511,2.9-.66,2.948-2.272.029-1.059-1.111-1.766-.311-3.4,1.556-3.164,4.042-2.41,5.957-3.336,1.813-.876,2.273-3.725,1.086-5.9-2.294-4.211-10.624-4.287-12.131.919a4.329,4.329,0,0,1-1.217,2.228c-1.621,1.325-3.225-.874-5.11,1.505-1.141,1.439.1,2.837.215,3.783a3.116,3.116,0,0,1-1.2,3.279,3.326,3.326,0,0,0-1.678,2.31c-.454,2.662,1.563,3.341,3.263,4.659,1.179.914,2.2,2.032,1.8,3.4-1.681,5.8,6.319,6.3,6.406,1.619" transform="translate(-61.52 -176.396)" fill="#5343b6" fill-rule="evenodd"/>
          <path id="Trazado_902679" data-name="Trazado 902679" d="M157.54,395.209c-1.334-4.751.752-11.668,4.67-15.22a14.233,14.233,0,0,1,2.039,5.913c.5,3.979,2.351,7.467-1.387,9.458-1.415.755-3.351.489-5.322-.151" transform="translate(-77.019 -186.248)" fill="#dfd5e6" fill-rule="evenodd"/>
          <path id="Trazado_902680" data-name="Trazado 902680" d="M145.83,393.286c-1.374.232-1.592,1.718-1.481,3.055a2.234,2.234,0,0,0,2.315,2.088,1.111,1.111,0,0,0,.739-.491,10.512,10.512,0,0,1,.051-3.666,1.4,1.4,0,0,0-1.624-.986" transform="translate(-70.739 -192.752)" fill="#cfbfd9" fill-rule="evenodd"/>
          <path id="Trazado_902681" data-name="Trazado 902681" d="M147.191,395.154c-.844.142-.978,1.055-.91,1.876a1.4,1.4,0,0,0,1.339,1.292,2.288,2.288,0,0,1-.228-.823,4.016,4.016,0,0,1,.344-2.281.869.869,0,0,0-.545-.065" transform="translate(-71.691 -193.673)" fill="#ab91bd" fill-rule="evenodd"/>
          <path id="Trazado_902682" data-name="Trazado 902682" d="M266.974,492.382c-3.392-.5-12.145-.492-12.416,2.569-.208,2.353,1.686,3.537,3.852,3.728.934.083,8.657-.306,9.247-1.2.708-1.341-5.492-1.047-5.058-1.585a4.371,4.371,0,0,1,1.312-1,7.7,7.7,0,0,1,3.253-.946c.45,0,1.407.18,1.582-.356.268-.826-1.2-1.124-1.772-1.209" transform="translate(-124.761 -241.215)" fill="#c0accd" fill-rule="evenodd"/>
          <path id="Trazado_902683" data-name="Trazado 902683" d="M138.272,445.609c9.206,29.443,37.064,37.319,59.825,24.737,1.259-.83.748-4.14-.392-4.9-8.312,1.157-19.708-2.368-30.058-10.056a51.254,51.254,0,0,1-14.074-16.561c-4.718-7.849-17.727-3.143-15.3,6.785" transform="translate(-67.626 -213.153)" fill="#c5b3d1" fill-rule="evenodd"/>
          <path id="Trazado_902684" data-name="Trazado 902684" d="M139.864,447.6c6.507,18.428,20.607,27.823,35.851,28.484q-1.158-8.962-2.962-17.847-2.108-1.312-4.18-2.848A51.246,51.246,0,0,1,154.5,438.824c-2.931-4.876-9.06-4.905-12.7-1.85a19.069,19.069,0,0,0-1.039,3.116,36.366,36.366,0,0,0-.9,7.505" transform="translate(-68.553 -213.153)" fill="#af95c0" fill-rule="evenodd"/>
          <path id="Trazado_902685" data-name="Trazado 902685" d="M213.634,489.263c5.683,2.413,11.958,3.921,17.95,3.51a41.952,41.952,0,0,1-16.069,5.108c-5.94.574-7.876-11.164-1.881-8.619" transform="translate(-102.923 -239.63)" fill="#d4c6dd" fill-rule="evenodd"/>
          <path id="Trazado_902686" data-name="Trazado 902686" d="M167.912,725.779h-7.389a10.579,10.579,0,0,1,.826,5.6h7.389a7.138,7.138,0,0,1-.827-5.6" transform="translate(-78.679 -355.733)" fill="#cfbfd9" fill-rule="evenodd"/>
          <path id="Trazado_902687" data-name="Trazado 902687" d="M164.791,676.3c-1.194,1.386-7.537,1.534-8.63.709-5.952-16.4-4.02-32.959-2.176-49.512.9-8.1,25.96-6.954,23.424,1.731-4.654,15.94-10.673,31.535-12.618,47.072" transform="translate(-74.574 -304.88)" fill="#9288d1" fill-rule="evenodd"/>
          <path id="Trazado_902688" data-name="Trazado 902688" d="M152.217,649.142c.176-7.206,1-14.424,1.8-21.643.9-8.1,25.96-6.953,23.424,1.732-1.9,6.52-4.036,12.982-6.024,19.407a74.1,74.1,0,0,1-19.2.5" transform="translate(-74.608 -304.88)" fill="#7a6ec7" fill-rule="evenodd"/>
          <path id="Trazado_902689" data-name="Trazado 902689" d="M173.655,734.509c-6.32,0-10.948-1.448-11.922-1.448a3.262,3.262,0,0,0-3.34,3.178,3.133,3.133,0,0,0,1.444,2.616h17.475a2.668,2.668,0,0,0,.264-1.153c0-1.763-1.755-3.192-3.921-3.192" transform="translate(-77.635 -359.303)" fill="#9288d1" fill-rule="evenodd"/>
          <path id="Trazado_902690" data-name="Trazado 902690" d="M175.511,734.509c-6.32,0-10.948-1.448-11.922-1.448a3.472,3.472,0,0,0-1.409.3c3.245,3.437,10.7,4.746,17.18,4.952a2.614,2.614,0,0,0,.071-.607c0-1.763-1.755-3.192-3.921-3.192" transform="translate(-79.491 -359.303)" fill="#7a6ec7" fill-rule="evenodd"/>
          <path id="Trazado_902691" data-name="Trazado 902691" d="M177.894,745.369H161.433a.607.607,0,0,1-.605-.605v-.34H178.5v.34a.607.607,0,0,1-.605.605" transform="translate(-78.828 -364.872)" fill="#5e2b80" fill-rule="evenodd"/>
          <path id="Trazado_902692" data-name="Trazado 902692" d="M160.729,546.786c-14.746,3.491-30.145,3.486-46.832-3.428-.728-2.66,6.673-9.1,8.493-23.646s-.728-34.759-.97-46.582c-.206-10.033,1.206-49.82,17.154-49.8,6.825.009,13.853,7.35,15.361,16.932,9.146,34.68,9.466,70.422,6.795,106.523" transform="translate(-55.801 -207.491)" fill="#ede9e2" fill-rule="evenodd"/>
          <path id="Trazado_902693" data-name="Trazado 902693" d="M170.394,546.458a76.773,76.773,0,0,1-27.964,1.7c.762-3.54,5.488-10.834,5.453-23.78-.04-15.224-7.395-35.7-9.142-47.906-.935-6.531-7.561-28.653-4.261-42.368,1.774-7.376,7.764-13.414,16.026-10.83,6.046,1.4,11.752,8.145,13.093,16.665,9.146,34.68,9.466,70.422,6.795,106.522" transform="translate(-65.466 -207.164)" fill="#d4c6dd" fill-rule="evenodd"/>
          <path id="Trazado_902694" data-name="Trazado 902694" d="M159.746,430.036a22.969,22.969,0,0,1,6.449,12.836q1.071,4.058,1.982,8.136a44.664,44.664,0,0,1-14.616-1.827c-19.03-5.221-20.921-24.766,2.244-19.7a24.538,24.538,0,0,0,3.94.552" transform="translate(-68.061 -210.099)" fill="#c5b3d1" fill-rule="evenodd"/>
          <path id="Trazado_902695" data-name="Trazado 902695" d="M185.392,522.771a35.216,35.216,0,0,1-13.244.954.335.335,0,0,0-.262.379,111.382,111.382,0,0,0,1.072,17.891.323.323,0,0,0,.3.337c4.352.56,8.73.752,13.244-.954a.333.333,0,0,0,.261-.378c1.354-5.274.533-11.424-1.072-17.891a.324.324,0,0,0-.3-.338" transform="translate(-84.248 -256.231)" fill="#e7e2d8" fill-rule="evenodd"/>
          <path id="Trazado_902696" data-name="Trazado 902696" d="M160.576,705.889c6.612-22.225-1.2-27.236-8.426-25.62a72.476,72.476,0,0,0,4.012,25.154c.56.422,2.5.589,4.414.466" transform="translate(-74.575 -333.29)" fill="#a69eda" fill-rule="evenodd"/>
          <path id="Trazado_902697" data-name="Trazado 902697" d="M128.308,705.636c10.956-22.826,3.644-27.713-4.024-25.875-1.237,8.485-1.471,16.951.38,25.376.439.371,1.968.546,3.644.5" transform="translate(-60.442 -333.006)" fill="#9288d1" fill-rule="evenodd"/>
          <path id="Trazado_902698" data-name="Trazado 902698" d="M196.658,345.929c1.557-.086,4.623,3.667,4.127,4.685A40.359,40.359,0,0,0,197,355.007c-.771,1.094,1.118,1.744,1.181,2.661.03.433-2.543,2.22-3.12,2.375-1.061.284-1.908-2.224-2.489-4.553a44,44,0,0,1-1.026-4.63,1.569,1.569,0,0,1,.142-1.06c.312-.441,1.054,1.185,1.244.677a13.83,13.83,0,0,1,1.052-2.191c.759-1.282,1.534-2.3,2.675-2.358" transform="translate(-93.872 -169.553)" fill="#c0accd" fill-rule="evenodd"/>
          <path id="Trazado_902699" data-name="Trazado 902699" d="M151.734,415.932c42.218,4.6,30.182-53.049,20.1-49.6-1.5.512-4.226,2.192-4.531,3.144,2.144,6.7,3.641,27.14-13.6,26.355-20.286-.923-18.63,18.284-1.966,20.1" transform="translate(-68.061 -179.482)" fill="#ede9e2" fill-rule="evenodd"/>
          <path id="Trazado_902700" data-name="Trazado 902700" d="M170.519,372.69l-.074.045a38.722,38.722,0,0,1,.533,13.1c-1.465,10.376-7.861,17.067-18.868,16.566-15.981-.728-13.8,11.867-1.446,13.212a23.793,23.793,0,0,0,8.338-.67c5.846-1.472,13.77-5.847,16.487-11.509a25.947,25.947,0,0,0,.785-21.684,30.321,30.321,0,0,0-4.066-7.071c-.389-.5-1.042-1.308-1.69-1.987" transform="translate(-68.993 -182.67)" fill="#fff" fill-rule="evenodd"/>
          <path id="Trazado_902701" data-name="Trazado 902701" d="M202.854,370.1a1.009,1.009,0,1,1,.02,1.279.914.914,0,0,1-.02-1.279" transform="translate(-99.304 -181.321)" fill="#bfaacc" fill-rule="evenodd"/>
          <path id="Trazado_902702" data-name="Trazado 902702" d="M250.054,502.193a1.008,1.008,0,1,1,1.256.243.914.914,0,0,1-1.256-.243" transform="translate(-122.521 -245.495)" fill="#a588b8" fill-rule="evenodd"/>
          <path id="Trazado_902703" data-name="Trazado 902703" d="M128.407,603.762a75.682,75.682,0,0,1-14.51-4.415c-.728-2.66,6.673-9.1,8.493-23.645,1.437-11.484.151-26.506-.574-38.139,3.922,22.273,3.234,38.8,1.7,47.966-2.221,13.294-5.7,13.985,4.889,18.234" transform="translate(-55.801 -263.481)" fill="#fff" fill-rule="evenodd"/>
          <path id="Trazado_902704" data-name="Trazado 902704" d="M451.209,719.814h7.508a10.75,10.75,0,0,0-.84,5.692h-7.508a7.251,7.251,0,0,0,.84-5.692" transform="translate(-220.744 -352.81)" fill="#cfbfd9" fill-rule="evenodd"/>
          <path id="Trazado_902705" data-name="Trazado 902705" d="M513.675,716.607l-6.2,1.012c.907,1.42,1.689,3.786.877,5.545,2.067-.337,4.716-1.634,6.783-1.97a6.066,6.066,0,0,1-1.46-4.587" transform="translate(-248.734 -351.238)" fill="#cfbfd9" fill-rule="evenodd"/>
          <path id="Trazado_902706" data-name="Trazado 902706" d="M470.72,394.281a23.346,23.346,0,0,0-.214,6.06c.274,2.688.991,5.077,2.861,6.362a79.166,79.166,0,0,1-7.91.385q-.492,0-.977-.006a12.149,12.149,0,0,1-1.13-4.351,22.147,22.147,0,0,1,.832-8.608q.633-.009,1.276-.01c1.81,0,3.572.058,5.263.167" transform="translate(-227.054 -193.171)" fill="#ab91bd" fill-rule="evenodd"/>
          <path id="Trazado_902707" data-name="Trazado 902707" d="M471.631,409.432a5.823,5.823,0,0,0,1,1.4q.216.325.414.648c-2.379.229-4.933.354-7.591.354q-.492,0-.978-.006a12.154,12.154,0,0,1-1.129-4.351,22.156,22.156,0,0,1-.088-3.116,1.435,1.435,0,0,1,1.038-.561c2.016,0,5.05,2.652,7.331,5.628" transform="translate(-227.054 -197.921)" fill="#c0accd" fill-rule="evenodd"/>
          <path id="Trazado_902708" data-name="Trazado 902708" d="M473.137,466.528c14.692-16.8,16.7-16.247,8.985-36.553-3.743-9.847-10.221-25.761-23.519-18.824q-.5,14.956-1.009,29.911l15.542,25.466" transform="translate(-224.286 -200.689)" fill="#ede9e2" fill-rule="evenodd"/>
          <path id="Trazado_902709" data-name="Trazado 902709" d="M458.547,415.892l-.951,28.217,15.352,25.155c5.741-6.465,7.67-8.777,8.275-15.348,1.777-19.286-13.574-40.669-22.675-38.024" transform="translate(-224.286 -203.736)" fill="#c5b3d1" fill-rule="evenodd"/>
          <path id="Trazado_902710" data-name="Trazado 902710" d="M437.553,669.54c1.213,1.409,7.659,1.559,8.77.721,6.048-16.668,4.085-33.49,2.211-50.311-.917-8.227-26.379-7.065-23.8,1.759,4.729,16.2,10.845,32.043,12.822,47.831" transform="translate(-208.088 -301.136)" fill="#9288d1" fill-rule="evenodd"/>
          <path id="Trazado_902711" data-name="Trazado 902711" d="M450.364,641.941c-.18-7.322-1.014-14.657-1.831-21.991-.917-8.227-26.379-7.065-23.8,1.759,1.935,6.626,4.1,13.192,6.121,19.72a75.3,75.3,0,0,0,19.512.512" transform="translate(-208.088 -301.136)" fill="#7a6ec7" fill-rule="evenodd"/>
          <path id="Trazado_902712" data-name="Trazado 902712" d="M485.574,673.332c1.51.971,6.363.526,7.265-.413,2.264-16.066-3.955-30.582-9.773-45.17-2.619-6.569-23.334,2.49-18.164,7.267,8.724,8.06,13.83,27.187,20.672,38.316" transform="translate(-227.463 -306.554)" fill="#7e72c8" fill-rule="evenodd"/>
          <path id="Trazado_902713" data-name="Trazado 902713" d="M488.791,642.67c-1.722-5.008-3.746-9.961-5.725-14.922-2.619-6.568-23.334,2.491-18.164,7.268,3.095,2.86,5.734,7.113,8.158,11.907a75.294,75.294,0,0,0,15.731-4.253" transform="translate(-227.463 -306.554)" fill="#6d5fc1" fill-rule="evenodd"/>
          <path id="Trazado_902714" data-name="Trazado 902714" d="M434.661,728.685c6.422,0,11.125-1.472,12.114-1.472a3.314,3.314,0,0,1,3.394,3.229A3.183,3.183,0,0,1,448.7,733.1H430.945a2.706,2.706,0,0,1-.268-1.171c0-1.792,1.783-3.244,3.984-3.244" transform="translate(-211.092 -356.436)" fill="#7a6ec7" fill-rule="evenodd"/>
          <path id="Trazado_902715" data-name="Trazado 902715" d="M434.661,728.685c6.422,0,11.125-1.472,12.114-1.472a3.527,3.527,0,0,1,1.431.3c-3.3,3.493-10.87,4.822-17.457,5.032a2.672,2.672,0,0,1-.072-.617c0-1.792,1.783-3.244,3.984-3.244" transform="translate(-211.092 -356.436)" fill="#9288d1" fill-rule="evenodd"/>
          <path id="Trazado_902716" data-name="Trazado 902716" d="M431.829,739.72h16.726a.616.616,0,0,0,.615-.615v-.346H431.214v.346a.617.617,0,0,0,.615.615" transform="translate(-211.355 -362.095)" fill="#5e2b80" fill-rule="evenodd"/>
          <path id="Trazado_902717" data-name="Trazado 902717" d="M494.98,726.779c.54,0,1.07-.01,1.584-.03,5.4-.769,9.123-3.2,9.963-3.362a3.315,3.315,0,0,1,3.933,2.544,3.184,3.184,0,0,1-.949,2.884l-7.859,2.379H491.263a2.707,2.707,0,0,1-.268-1.171c0-1.792,1.783-3.244,3.984-3.244" transform="translate(-240.656 -354.531)" fill="#7a6ec7" fill-rule="evenodd"/>
          <path id="Trazado_902718" data-name="Trazado 902718" d="M494.98,726.779c.54,0,1.07-.01,1.584-.03,5.4-.769,9.123-3.2,9.963-3.362a3.508,3.508,0,0,1,1.617.071c.251,3.863-2.965,6.293-7.4,7.736h-9.476a2.707,2.707,0,0,1-.268-1.171c0-1.792,1.783-3.244,3.984-3.244" transform="translate(-240.656 -354.531)" fill="#9288d1" fill-rule="evenodd"/>
          <path id="Trazado_902719" data-name="Trazado 902719" d="M501.916,737.4l7.635-2.319a.643.643,0,0,0,.49-.718l-.064-.34-8.061,2.4v.017H491.533v.346a.617.617,0,0,0,.615.615Z" transform="translate(-240.92 -359.772)" fill="#5e2b80" fill-rule="evenodd"/>
          <path id="Trazado_902720" data-name="Trazado 902720" d="M337.141,386.226c3.073,1.643,10.2,6.958,8.571,9.619-1.256,2.045-3.519,1.863-5.4.707-.813-.5-1.96-1.563-1.9-2.651a21.112,21.112,0,0,0-.337-3.752,5.766,5.766,0,0,0-2.038-2.761c-.369-.27-1.257-.706-1.075-1.249.281-.836,1.661-.189,2.178.088" transform="translate(-164.167 -189.059)" fill="#c0accd" fill-rule="evenodd"/>
          <path id="Trazado_902721" data-name="Trazado 902721" d="M419.313,537.934c14.984,3.547,30.63,3.543,47.587-3.484.74-2.7-6.78-9.25-8.629-24.027s.74-35.319.986-47.333c.21-10.194-1.226-50.624-17.431-50.6-6.935.01-14.077,7.469-15.609,17.205-9.293,35.24-9.619,71.557-6.9,108.24" transform="translate(-204.796 -202.177)" fill="#d4c6dd" fill-rule="evenodd"/>
          <path id="Trazado_902722" data-name="Trazado 902722" d="M419.313,537.6a78,78,0,0,0,28.414,1.724c-.774-3.6-5.576-11.008-5.541-24.163.041-15.469,7.514-36.277,9.289-48.678.95-6.636,7.683-29.114,4.33-43.052-1.8-7.495-7.89-13.631-16.285-11-6.144,1.42-11.942,8.277-13.3,16.934-9.293,35.24-9.619,71.557-6.9,108.24" transform="translate(-204.796 -201.844)" fill="#ede9e2" fill-rule="evenodd"/>
          <path id="Trazado_902723" data-name="Trazado 902723" d="M429.07,608.027c-7.08-4.938-7.7-6.932-10.822-56.123a443.035,443.035,0,0,0,1.065,54.363,88.877,88.877,0,0,0,9.757,1.76" transform="translate(-204.796 -270.51)" fill="#fff" fill-rule="evenodd"/>
          <path id="Trazado_902724" data-name="Trazado 902724" d="M432.894,425.514a24.528,24.528,0,0,0-2,6.561q-2.04,7.734-3.521,15.535c8.06-2.874,16.538-8.406,24.788-16.931,7.154-7.557-.847-16.467-8.37-12.245a84.832,84.832,0,0,1-10.9,7.08" transform="translate(-209.473 -204.558)" fill="#d4c6dd" fill-rule="evenodd"/>
          <path id="Trazado_902725" data-name="Trazado 902725" d="M426.269,513.532a35.788,35.788,0,0,0,13.457.97.339.339,0,0,1,.265.384,113.033,113.033,0,0,1-1.089,18.18.329.329,0,0,1-.309.343c-4.422.568-8.871.764-13.457-.97a.339.339,0,0,1-.266-.385c-1.375-5.359-.542-11.608,1.09-18.179a.329.329,0,0,1,.309-.343" transform="translate(-207.907 -251.703)" fill="#fff" fill-rule="evenodd"/>
          <path id="Trazado_902726" data-name="Trazado 902726" d="M414.6,422.754c-25.349,18.439-52.845,7.984-63.788-16.071-.524-1.44,1.9-3.831,3.292-3.763,6.079,5.98,17.51,10.01,30.612,10.01a52.082,52.082,0,0,0,21.514-4.981c8.6-3.544,16.365,8.178,8.37,14.806" transform="translate(-171.911 -197.486)" fill="#ede9e2" fill-rule="evenodd"/>
          <path id="Trazado_902727" data-name="Trazado 902727" d="M410.173,410.917a54.85,54.85,0,0,1-22.492,5.126c-9.858,0-21.943-2.378-30.156-8.635,4.408,8.6,11.461,15.715,20.555,19.31,13.047,5.157,26.651,1.663,37.669-6.407,4.3-3.15-1.257-10.216-5.575-9.393" transform="translate(-175.237 -199.687)" fill="#fff" fill-rule="evenodd"/>
          <path id="Trazado_902728" data-name="Trazado 902728" d="M453.657,365.634c3.6,0,10.452,8.461,10.452,12.118a6.769,6.769,0,0,1-6.908,6.622c-4.752,0-6.149-3.348-6.559-7.363-.53-5.2.983-11.378,3.015-11.378" transform="translate(-220.826 -179.212)" fill="#cfbfd9" fill-rule="evenodd"/>
          <path id="Trazado_902729" data-name="Trazado 902729" d="M469.215,355.914c3.017,0,5.466,2.156,5.488,4.823A13.317,13.317,0,0,1,476.144,367a12.532,12.532,0,0,1-1.982,7.127,4.129,4.129,0,0,1,.12.989c0,2.558-2.342,4.632-5.233,4.632s-5.233-2.074-5.233-4.632a4.268,4.268,0,0,1,1.01-2.735c1.086-1.312.01-2.7-1.2-3.547-1.9-1.317.1-6.137.1-8.059,0-2.683,2.457-4.858,5.488-4.858" transform="translate(-226.839 -174.448)" fill="#5343b6" fill-rule="evenodd"/>
          <path id="Trazado_902730" data-name="Trazado 902730" d="M452.874,354.3a10.308,10.308,0,0,1,3.656,1.832c3.27,2.583.752,9.85-2.508,11.977-.891.581-2.195-1.417-3.994-3.013-2.042-1.811-3.379-1.013-4.874-4.1a5.352,5.352,0,0,1-.552-3.062c.431-3.13,4.2-4.748,8.273-3.636" transform="translate(-217.895 -173.483)" fill="#5343b6" fill-rule="evenodd"/>
          <path id="Trazado_902731" data-name="Trazado 902731" d="M464.526,379.337c1.35-.015,1.813,1.364,1.936,2.658a2.164,2.164,0,0,1-1.848,2.388,1.075,1.075,0,0,1-.788-.342,10.18,10.18,0,0,0-.678-3.486,1.353,1.353,0,0,1,1.379-1.218" transform="translate(-227.007 -185.928)" fill="#cfbfd9" fill-rule="evenodd"/>
          <path id="Trazado_902732" data-name="Trazado 902732" d="M464.917,381.246c.829-.01,1.113.838,1.189,1.632a1.352,1.352,0,0,1-1.055,1.462,2.21,2.21,0,0,0,.077-.824,3.892,3.892,0,0,0-.719-2.114.841.841,0,0,1,.508-.155" transform="translate(-227.625 -186.864)" fill="#ab91bd" fill-rule="evenodd"/>
          <path id="Trazado_902733" data-name="Trazado 902733" d="M500.764,695.176c-1.617-23.64-11.9-27.471-17.464-24.987,4.053,8.365,7.558,18.023,11.7,24.755,1.093.7,3.939.664,5.769.232" transform="translate(-236.885 -328.166)" fill="#9288d1" fill-rule="evenodd"/>
          <path id="Trazado_902734" data-name="Trazado 902734" d="M454.8,389.352c5.608-.007-.444-10.228-3.983-12.834a23.333,23.333,0,0,0-.176,5.828c.33,3.238,1.3,6.041,4.159,7.005" transform="translate(-220.826 -184.547)" fill="#dfd5e6" fill-rule="evenodd"/>
        </g>
      </g>
    </g>
  </g>
</svg>
