<svg xmlns="http://www.w3.org/2000/svg" xmlns:xlink="http://www.w3.org/1999/xlink" width="90" height="90" viewBox="0 0 90 90">
  <defs>
    <clipPath id="clip-path">
      <rect id="Rectángulo_402461" data-name="Rectángulo 402461" width="52.946" height="53.017" fill="#fff"/>
    </clipPath>
  </defs>
  <g id="Grupo_1102765" data-name="Grupo 1102765" transform="translate(-762.051 -6508.913)">
    <circle id="Elipse_11504" data-name="Elipse 11504" cx="45" cy="45" r="45" transform="translate(762.051 6508.913)" fill="#382a8e"/>
    <g id="Grupo_1102182" data-name="Grupo 1102182" transform="translate(780.509 6527.404)">
      <g id="Grupo_1102181" data-name="Grupo 1102181" clip-path="url(#clip-path)">
        <path id="Trazado_901760" data-name="Trazado 901760" d="M135.9,24.991V.171c2.435,0,4.815-.12,7.178.036a7.354,7.354,0,0,1,5.23,2.978A7.3,7.3,0,0,1,153.382.237C155.807.073,158.251.2,160.737.2V24.991Zm21.7-9.263V3.233c-1.068,0-2.063-.016-3.058,0a4.572,4.572,0,0,0-4.651,4.452c-.1,3.095-.012,6.195,0,9.293,0,.04.092.078.205.169,2.206-1.7,4.846-1.38,7.5-1.422M139.029,3.16V15.726c2.642.052,5.312-.284,7.668,1.548,0-3.549.136-6.857-.052-10.147a3.929,3.929,0,0,0-3.3-3.67,29.072,29.072,0,0,0-4.318-.3m11.252,18.706h7.33V18.953c-4.145-.518-6.475.4-7.33,2.914m-3.964.026c-.853-2.942-3.814-3.4-7.271-2.857v2.857Z" transform="translate(-107.791 -0.101)" fill="#fff"/>
        <path id="Trazado_901761" data-name="Trazado 901761" d="M9.378,7.808h6.349c0-1.229-.079-2.424.018-3.605A4.321,4.321,0,0,1,18.625.369a4.415,4.415,0,0,1,4.739.781,4.341,4.341,0,0,1,1.621,3.445c.017,5.276.061,10.553-.02,15.827A4.535,4.535,0,0,1,20.3,24.953,4.614,4.614,0,0,1,15.7,20.435c-.058-1.029-.009-2.064-.009-3.179H9.377c0,1.011.014,2,0,2.993A4.654,4.654,0,1,1,.067,20.2q-.03-7.707,0-15.414a4.657,4.657,0,1,1,9.309.046c.011.96,0,1.921,0,2.975m-6.207,4.63c0,2.479,0,4.958,0,7.437,0,1.234.541,1.924,1.5,1.954,1,.032,1.6-.683,1.6-1.957q.007-7.385,0-14.771c0-1.219-.556-1.932-1.5-1.964-.98-.034-1.594.71-1.6,1.967-.006,2.445,0,4.889,0,7.334m18.712.108c0-2.546.016-5.093-.007-7.639-.01-1.112-.664-1.8-1.581-1.77A1.565,1.565,0,0,0,18.808,4.9c-.016,5.058-.031,10.117.027,15.175a2.175,2.175,0,0,0,.784,1.536c1.02.722,2.236-.119,2.255-1.526.033-2.512.009-5.024.009-7.536m-6.267-1.512H9.466v2.954h6.15Z" transform="translate(-0.041 0)" fill="#fff"/>
        <path id="Trazado_901762" data-name="Trazado 901762" d="M160.852,153.6H153.7v7.188H143.281v-7.157h-7.217V143.237h7.179v-7.261h10.4v7.2h7.211Zm-14.491-14.5v7.261h-7.2v4.152h7.262v7.185h4.134v-7.242h7.2v-4.135h-7.243v-7.22Z" transform="translate(-107.917 -107.847)" fill="#fff"/>
        <path id="Trazado_901763" data-name="Trazado 901763" d="M24.973,146.124a16.9,16.9,0,0,1-5.342,12.254,7.184,7.184,0,0,1-6.79,2.141,1.916,1.916,0,0,0-.817.018,6.829,6.829,0,0,1-5.734-1.374c-4.762-3.47-7.384-10.936-5.854-16.63A9.039,9.039,0,0,1,11.9,136.192a2.131,2.131,0,0,0,1.177,0,9.093,9.093,0,0,1,11.766,7.976c.059.652.084,1.306.125,1.96m-3.123-.154c-.038-.514-.042-1.173-.141-1.817a5.9,5.9,0,0,0-8.691-4.526,1.323,1.323,0,0,1-1.1-.029,5.8,5.8,0,0,0-8.557,4.311,14.424,14.424,0,0,0,.013,4.507,12.819,12.819,0,0,0,4.32,7.894,3.994,3.994,0,0,0,4.376.983,1.15,1.15,0,0,1,.785-.025c1.872.775,3.375.065,4.693-1.194a13.822,13.822,0,0,0,4.3-10.1" transform="translate(0 -107.686)" fill="#fff"/>
      </g>
    </g>
  </g>
</svg>
