<svg xmlns="http://www.w3.org/2000/svg" xmlns:xlink="http://www.w3.org/1999/xlink" width="60" height="60" viewBox="0 0 60 60">
  <defs>
    <clipPath id="clip-path">
      <rect id="Rectángulo_402491" data-name="Rectángulo 402491" width="38.178" height="38.169" fill="#fff"/>
    </clipPath>
  </defs>
  <g id="Grupo_1102777" data-name="Grupo 1102777" transform="translate(-766.467 -3656.542)">
    <circle id="Elipse_11490" data-name="Elipse 11490" cx="30" cy="30" r="30" transform="translate(766.467 3656.542)" fill="#4635b1"/>
    <g id="Grupo_1102216" data-name="Grupo 1102216" transform="translate(774.798 3667.604)">
      <g id="Grupo_1102215" data-name="Grupo 1102215" clip-path="url(#clip-path)">
        <path id="Trazado_901872" data-name="Trazado 901872" d="M12.26,38.137V28.92c-1.657,0-3.245-.032-4.831.011a3.626,3.626,0,0,1-2.743-.94,3.82,3.82,0,0,0-3.462-.84c-.024.352-.049.712-.076,1.116H0V16.656H1.147c.022.37.043.714.067,1.112a3.223,3.223,0,0,0,3.07-.8c1.275-1.316,2.559-2.593,2.906-4.489.1-.536.119-1.087.194-1.628A1.805,1.805,0,0,1,9.268,9.21a1.786,1.786,0,0,1,1.756,1.774c.054,2.111.2,4.245-1.064,6.134-.289.431-.053.676.377.7.613.04,1.231.01,1.931.01V0h25.9V.786q0,15.073.011,30.146a1.565,1.565,0,0,1-.51,1.234c-1.882,1.846-3.729,3.728-5.611,5.573a1.423,1.423,0,0,1-.879.411c-6.143.023-12.287.017-18.43.016-.12,0-.241-.014-.487-.03m24.629-7.391V1.228h-23.3V17.841c.826,0,1.594-.022,2.361,0a1.835,1.835,0,0,1,1.676,2.68,1.067,1.067,0,0,0,.01.784c.352.743-.114,1.391-.13,2.053s.517,1.318.128,2.046a.628.628,0,0,0-.1.2,1.058,1.058,0,0,0,0,.467c.676,1.713-.08,2.839-1.924,2.847-.684,0-1.369,0-2.04,0V36.9H30.775V30.747ZM9.821,27.69c.013-.146.019-.195.022-.244a13.371,13.371,0,0,0,.064-2.964A13.049,13.049,0,0,1,9.9,22.214a11.287,11.287,0,0,0-.046-2.663c-.064-.34-.074-.536-.411-.721a1.519,1.519,0,0,1-.6-2.235c1.132-1.7,1-3.6.946-5.48-.007-.226-.357-.443-.548-.664-.211.225-.52.417-.611.684a6.781,6.781,0,0,0-.156,1.252c-.34,2.457-1.927,4.122-3.608,5.747-1.01.977-2.239.942-3.483.955-.042,0-.083.043-.144.077v6.6a1.385,1.385,0,0,0,.333.06,5.183,5.183,0,0,1,4.174,1.4,2.035,2.035,0,0,0,1.15.451c.962.064,1.931.021,2.934.021m22.232,7.921,3.538-3.531H32.054ZM13.831,19.065H11.823c-.432,0-.8.191-.715.632a.932.932,0,0,0,.693.554c1.336.055,2.676.026,4.015.027.425,0,.81-.154.708-.619a.966.966,0,0,0-.688-.566,16.8,16.8,0,0,0-2-.027M13.763,25.2a21.275,21.275,0,0,0,2.154-.027c.23-.023.428-.359.641-.551-.2-.209-.394-.59-.6-.6-1.411-.054-2.826-.055-4.237,0-.222.008-.431.368-.646.565.227.206.435.557.684.589a15.659,15.659,0,0,0,2,.026m.08-2.435a14.033,14.033,0,0,0,1.929-.028,1.054,1.054,0,0,0,.75-.589c.115-.47-.309-.61-.715-.612-1.313-.007-2.627,0-3.94,0-.409,0-.783.116-.783.592,0,.507.384.64.827.639h1.933m-.024,3.7a16.915,16.915,0,0,0-2,.026c-.266.032-.5.353-.745.543.249.218.489.614.748.626,1.335.064,2.674.034,4.012.026.423,0,.8-.2.7-.649a.974.974,0,0,0-.7-.547,17.015,17.015,0,0,0-2-.025" transform="translate(0 0.001)" fill="#fff"/>
        <path id="Trazado_901873" data-name="Trazado 901873" d="M134.113,98.857h-6.118V92.719c1.572,0,3.108-.055,4.639.021a2.213,2.213,0,0,0,2.12-.9c.2-.281.429-.545.714-.9l.837.972.181.159c-.574.5-1.137,1.022-1.725,1.509a1.735,1.735,0,0,0-.664,1.546c.055,1.213.016,2.431.016,3.732m-4.877-4.836V97.6h3.579V95.642L132.6,95.5l-1.446,1.752L129.476,95.7l.729-.943.831.75-.155-.229,1.675-1.26Z" transform="translate(-108.897 -77.37)" fill="#fff"/>
        <path id="Trazado_901874" data-name="Trazado 901874" d="M134.135,163.128H128.09v-6.067h6.045Zm-4.842-1.232h3.613v-3.61h-3.613Z" transform="translate(-108.978 -133.627)" fill="#fff"/>
        <path id="Trazado_901875" data-name="Trazado 901875" d="M157.322,17.517l-.986,3.192a3.762,3.762,0,0,0-3,.057l-1-3.249,2.491-1.924,2.493,1.925m-3.013,1.61h1.031l.349-1.082-.859-.643-.861.647.34,1.078" transform="translate(-129.608 -13.266)" fill="#fff"/>
        <path id="Trazado_901876" data-name="Trazado 901876" d="M115.088,20.581H111.98l-.936-3.036,2.5-1.91,2.491,1.924-.943,3.022m-.687-2.506-.871-.635-.857.643.356,1.084h1.021l.35-1.091" transform="translate(-94.476 -13.302)" fill="#fff"/>
        <path id="Trazado_901877" data-name="Trazado 901877" d="M194.677,20.738l-1.008-3.232,2.491-1.93,2.494,1.932-.993,3.184a3.76,3.76,0,0,0-2.983.046m.974-1.625h1.032l.337-1.09-.868-.634-.856.651.355,1.074" transform="translate(-164.773 -13.252)" fill="#fff"/>
        <path id="Trazado_901878" data-name="Trazado 901878" d="M135.776,53.577h-3.11l-.931-3.032,2.49-1.924,2.49,1.936-.938,3.02m-1.556-3.144-.863.653.367,1.072h1.018c.114-.361.228-.724.342-1.088l-.864-.637" transform="translate(-112.079 -41.366)" fill="#fff"/>
        <path id="Trazado_901879" data-name="Trazado 901879" d="M178.033,49.863l-.988,3.231h-3.117l-.941-3.031,2.616-2a3.848,3.848,0,0,0,2.43,1.8m-1.687.72-.877-.625-.844.638.341,1.085h1.028l.352-1.1" transform="translate(-147.176 -40.887)" fill="#fff"/>
        <rect id="Rectángulo_402483" data-name="Rectángulo 402483" width="7.299" height="1.145" transform="translate(28.351 15.401)" fill="#fff"/>
        <rect id="Rectángulo_402484" data-name="Rectángulo 402484" width="7.291" height="1.162" transform="translate(28.341 20.325)" fill="#fff"/>
        <rect id="Rectángulo_402485" data-name="Rectángulo 402485" width="7.326" height="1.109" transform="translate(28.344 23.443)" fill="#fff"/>
        <rect id="Rectángulo_402486" data-name="Rectángulo 402486" width="7.298" height="1.148" transform="translate(28.347 28.347)" fill="#fff"/>
        <rect id="Rectángulo_402487" data-name="Rectángulo 402487" width="3.006" height="1.165" transform="translate(28.344 25.876)" fill="#fff"/>
        <rect id="Rectángulo_402488" data-name="Rectángulo 402488" width="2.995" height="1.168" transform="translate(32.663 25.874)" fill="#fff"/>
        <rect id="Rectángulo_402489" data-name="Rectángulo 402489" width="2.996" height="1.149" transform="translate(28.351 17.871)" fill="#fff"/>
        <rect id="Rectángulo_402490" data-name="Rectángulo 402490" width="2.985" height="1.138" transform="translate(32.655 17.899)" fill="#fff"/>
      </g>
    </g>
  </g>
</svg>
