<svg xmlns="http://www.w3.org/2000/svg" xmlns:xlink="http://www.w3.org/1999/xlink" width="90" height="90" viewBox="0 0 90 90">
  <defs>
    <clipPath id="clip-path">
      <rect id="Rectángulo_402492" data-name="Rectángulo 402492" width="60.141" height="61.117" fill="#fff"/>
    </clipPath>
  </defs>
  <g id="Grupo_1102778" data-name="Grupo 1102778" transform="translate(-336.967 -3922.478)">
    <path id="Trazado_876532" data-name="Trazado 876532" d="M45,0A45,45,0,1,1,0,45,45,45,0,0,1,45,0Z" transform="translate(336.967 3922.478)" fill="#382a8e"/>
    <g id="Grupo_1102218" data-name="Grupo 1102218" transform="translate(351.896 3936.919)">
      <g id="Grupo_1102217" data-name="Grupo 1102217" clip-path="url(#clip-path)">
        <path id="Trazado_901880" data-name="Trazado 901880" d="M6.684,130.025c-2.865,1.357-3.083,1.279-4.5-1.6-.615-1.246-1.243-2.486-1.843-3.74-.656-1.372-.385-2.22,1-2.925A1.828,1.828,0,0,0,2.48,120.2a3.445,3.445,0,0,1,1.369-2.072,20.528,20.528,0,0,1,4.219-2.188,3.6,3.6,0,0,1,2.473.083,1.221,1.221,0,0,0,1.545-.217A31.8,31.8,0,0,0,18.31,108c.943-1.562,1.735-3.215,2.659-4.79a1.831,1.831,0,0,1,1.076-.9c.3-.037.8.46.989.833q5.1,10.235,10.124,20.51a1.375,1.375,0,0,1,.043,1.184,1.553,1.553,0,0,1-1.225.38,46.394,46.394,0,0,0-12.823-.554c-.551.069-1.1.173-1.647.262a2.28,2.28,0,0,0-1.969,1.669c-.641,1.489-.078,2.387.481,3.479.706,1.379,1.448,2.739,2.139,4.125a3.137,3.137,0,0,1-1.22,4.405,3.227,3.227,0,0,1-4.468-1.444c-.934-1.707-1.823-3.439-2.69-5.181-.335-.673-.666-1.161-1.54-1.214a4.849,4.849,0,0,1-1.554-.748m5.735-11.511c.639,1.3,1.419,2.944,2.275,4.55a1.039,1.039,0,0,0,.922.359,30.765,30.765,0,0,1,9.575-.882c.3.008.594-.025,1.045-.046l-6.372-12.738-7.445,8.757m-2.744-1.369C7.6,118.288,6.057,119.1,4.571,120c-.185.112-.227.768-.09,1.056,1.158,2.437,2.369,4.849,3.571,7.265a.89.89,0,0,0,1.362.479c1.265-.664,2.544-1.3,3.8-1.975a.991.991,0,0,0,.421-1.5q-1.762-3.511-3.487-7.042c-.192-.391-.339-.805-.477-1.134M22.09,105.532a2.667,2.667,0,0,0-.48,3.514c2.2,4.128,4.28,8.324,6.284,12.551.6,1.269,1.443,1.484,2.787,1.351L22.09,105.532M10.981,130.16c.346.666.618,1.193.892,1.718.769,1.475,1.517,2.961,2.316,4.419a1.236,1.236,0,0,0,1.8.618,1.1,1.1,0,0,0,.569-1.594c-1.07-2.108-2.171-4.2-3.281-6.341l-2.294,1.18m-9.031-6.547,2.622,5.3,1.278-.68-2.629-5.289-1.271.671" transform="translate(0 -77.897)" fill="#fff"/>
        <path id="Trazado_901881" data-name="Trazado 901881" d="M172.618,93.534c0-1.7-.014-3.213,0-4.722a2.662,2.662,0,0,1,2.771-2.9,1.384,1.384,0,0,0,.887-.529,2.647,2.647,0,0,1,4.194-.593,1.217,1.217,0,0,0,.694.289c2.456-.092,3.236.592,3.47,3.163.292.02.6.03.9.062a2.467,2.467,0,0,1,2.332,2.317c0,3.893-.058,7.788-.227,11.677a5.742,5.742,0,0,1-1.858,3.774,1.707,1.707,0,0,0-.481,1.309c.634,2.858,1.359,5.7,2.064,8.538a3.926,3.926,0,0,0,.273.66c.3.661.512,1.366-.352,1.714-.88.354-1.211-.362-1.439-1.012-.605-1.721-1.247-3.435-1.724-5.193-.4-1.486-.6-3.029-.868-4.479l-6.491.328c-.232,1.2-.415,2.657-.806,4.051-.514,1.83-1.183,3.616-1.8,5.415-.224.649-.6,1.219-1.4.883-.775-.327-.585-.944-.385-1.617.81-2.733,1.563-5.482,2.319-8.23a1.572,1.572,0,0,0-.781-1.952,8.975,8.975,0,0,1-2.673-2.807,65.132,65.132,0,0,1-3.074-6.572,3.014,3.014,0,0,1,.666-3.722c1.175-1.022,2.411-.756,3.787.152m1.916.047c0,1.55.059,3.1-.037,4.649-.027.442-.5.855-.772,1.282-.395-.313-.951-.547-1.152-.955-.523-1.064-.859-2.219-1.344-3.3-.113-.253-.614-.585-.771-.514a1.194,1.194,0,0,0-.639.824,3.267,3.267,0,0,0,.331,1.367q.818,1.98,1.708,3.931c1.887,4.119,3.921,5.341,8.431,5.079a14.757,14.757,0,0,0,1.654-.212c2.305-.4,3.656-1.564,3.812-3.909.237-3.562.19-7.144.2-10.718,0-.291-.462-.584-.709-.875-.226.313-.616.611-.647.943a26.253,26.253,0,0,0-.029,2.86c.011.685-.07,1.373-.905,1.408-.922.039-1.023-.672-1.019-1.41.011-1.988.042-3.977-.029-5.962-.014-.393-.445-.771-.684-1.156-.229.391-.64.774-.655,1.173-.075,1.985-.053,3.974-.048,5.962,0,.689-.086,1.37-.922,1.393-.924.026-1.009-.693-1-1.426.017-2.266.019-4.532.023-6.8,0-.557.061-1.283-.721-1.2-.285.032-.687.776-.7,1.206-.071,2.224-.037,4.452-.031,6.678,0,.7-.115,1.341-.974,1.335s-.954-.663-.95-1.353q.015-2.326,0-4.651c0-.583.116-1.357-.745-1.3-.25.015-.621.8-.646,1.244-.082,1.466-.031,2.94-.032,4.411" transform="translate(-127.761 -63.963)" fill="#fff"/>
        <path id="Trazado_901882" data-name="Trazado 901882" d="M110.23,28.806l-.981-5.208-6.539.321c.173,1.814-1.23,2.819-2.642,4.011.238-1.394.446-2.636.664-3.877a1.327,1.327,0,0,0-.648-1.449,11.159,11.159,0,0,1-2.859-2.954,59.913,59.913,0,0,1-3.073-6.566,3,3,0,0,1,.672-3.716c1.17-1,2.41-.8,3.783.191,0-1.634-.005-3.077,0-4.519.009-2.088.788-2.91,2.888-3.134a1.149,1.149,0,0,0,.718-.427c1.271-1.748,2.506-1.933,4.326-.625a1.072,1.072,0,0,0,.608.215c2.481-.09,3.26.593,3.468,3.131a7.987,7.987,0,0,1,1.477.211,2.312,2.312,0,0,1,1.763,2.181c-.009,3.93-.058,7.863-.241,11.788a5.577,5.577,0,0,1-1.915,3.74,1.647,1.647,0,0,0-.421,1.112,7.535,7.535,0,0,0,.3,2.355c.51,1.44.055,2.411-1.343,3.22m1.852-16.8-.1,0c0-1.63.037-3.261-.032-4.888-.013-.31-.447-.6-.687-.9-.233.306-.636.595-.668.92a26.184,26.184,0,0,0-.031,2.859c.01.731-.077,1.453-1,1.433-.837-.018-.929-.7-.925-1.387.013-1.987.042-3.977-.027-5.962-.014-.4-.431-.787-.662-1.18-.237.383-.663.758-.678,1.149-.076,1.985-.053,3.974-.048,5.962,0,.735-.093,1.45-1.015,1.417-.838-.029-.915-.715-.91-1.4.017-2.266.053-4.533-.009-6.8-.012-.434-.394-1.185-.679-1.222-.773-.1-.743.613-.744,1.179,0,2.266-.01,4.532-.008,6.8,0,.664-.159,1.234-.941,1.246s-.973-.537-.97-1.213c.006-1.63.052-3.262-.032-4.888-.022-.435-.453-.85-.7-1.274-.232.428-.655.852-.663,1.284-.059,3.02,0,6.043-.067,9.062-.009.438-.49.865-.753,1.3-.4-.3-.963-.526-1.164-.929-.51-1.026-.812-2.154-1.3-3.194-.142-.3-.618-.451-.942-.67-.185.354-.394.7-.543,1.067a.693.693,0,0,0,.093.457c1.019,2.236,1.937,4.527,3.1,6.685a5.785,5.785,0,0,0,5.123,3,19.754,19.754,0,0,0,4.031-.244,3.922,3.922,0,0,0,3.6-3.714c.234-1.966.235-3.959.34-5.94" transform="translate(-71.413 0)" fill="#fff"/>
        <path id="Trazado_901883" data-name="Trazado 901883" d="M21.314,61.953c-.69,2.327-2.372,2.076-4.107,1.7l-.464,2.582h-1.75c-.046-.111-.112-.188-.1-.242.537-1.823.322-3.226-1.569-4.314a6.734,6.734,0,0,1-2.146-2.794,50.253,50.253,0,0,1-2.558-5.763,4.446,4.446,0,0,1-.09-2.648c.541-1.786,2.072-2.112,4.51-1.1,0-1.5-.007-2.956,0-4.416.012-2,.846-2.856,2.848-3.064a1.424,1.424,0,0,0,.853-.594,2.644,2.644,0,0,1,4.031-.638,1.511,1.511,0,0,0,.773.407c2.586-.019,3.319.605,3.488,3.123.243.026.5.062.76.082a2.555,2.555,0,0,1,2.519,2.52c.056,1.984.014,3.972.014,5.963l-1.91.728c0-2.046.041-4.018-.032-5.985-.016-.438-.385-1.19-.668-1.228-.8-.108-.718.631-.723,1.18a20.543,20.543,0,0,1-.049,2.856c-.062.415-.6.758-.921,1.134-.316-.381-.887-.75-.9-1.144-.092-2.064-.009-4.135-.075-6.2-.013-.409-.378-1.118-.643-1.148-.806-.092-.727.629-.729,1.181q-.015,2.863-.019,5.726c0,.742.021,1.582-.989,1.557s-.934-.884-.931-1.61c.009-2.227.047-4.454-.011-6.68-.011-.4-.385-1.1-.658-1.13-.778-.1-.767.59-.767,1.163,0,2.187-.007,4.374-.007,6.561,0,.7.029,1.477-.922,1.5-1.043.02-.989-.812-.988-1.544,0-1.551.048-3.1-.032-4.651-.021-.4-.443-.782-.68-1.172-.237.382-.673.761-.68,1.148-.057,2.981.005,5.965-.067,8.946a1.928,1.928,0,0,1-.765,1.488c-.768.333-1.044-.457-1.276-1.054-.373-.962-.674-1.957-1.119-2.885-.165-.343-.647-.535-.984-.8-.185.39-.623.877-.517,1.157,1.121,2.958,1.992,6.065,4.28,8.419a6.165,6.165,0,0,0,4.348,1.668c.79.037,1.583.006,2.421.006" transform="translate(-6.375 -30.458)" fill="#fff"/>
        <path id="Trazado_901884" data-name="Trazado 901884" d="M123.736,113.837c-.2-.136-.586-.26-.667-.491-.115-.328-.16-.886.033-1.084,1.36-1.391,2.764-2.741,4.222-4.027a1.231,1.231,0,0,1,1.151.12,1.074,1.074,0,0,1,.158,1.041c-1.443,1.469-2.954,2.872-4.452,4.287-.078.074-.22.079-.444.155" transform="translate(-93.62 -82.327)" fill="#fff"/>
        <path id="Trazado_901885" data-name="Trazado 901885" d="M140.5,151.7a5.941,5.941,0,0,1,1.658-.037,1.44,1.44,0,0,1,.908.862c.06.236-.422.862-.706.893-1.934.208-3.878.345-5.822.392-.284.007-.878-.689-.812-.888a1.539,1.539,0,0,1,.973-.931c1.252-.194,2.532-.215,3.8-.3v.011" transform="translate(-103.328 -115.42)" fill="#fff"/>
        <path id="Trazado_901886" data-name="Trazado 901886" d="M134.959,129.1c.34.266.813.454.87.728.071.341-.091.976-.342,1.1-1.629.8-3.3,1.538-4.988,2.2a1.247,1.247,0,0,1-1.079-.419,1.071,1.071,0,0,1,.113-1.028c1.754-.9,3.551-1.706,5.425-2.582" transform="translate(-98.468 -98.286)" fill="#fff"/>
      </g>
    </g>
  </g>
</svg>
