<svg xmlns="http://www.w3.org/2000/svg" xmlns:xlink="http://www.w3.org/1999/xlink" width="90" height="90" viewBox="0 0 90 90">
  <defs>
    <clipPath id="clip-path">
      <rect id="Rectángulo_402460" data-name="Rectángulo 402460" width="61.554" height="57.4" fill="#fff"/>
    </clipPath>
  </defs>
  <g id="Grupo_1102766" data-name="Grupo 1102766" transform="translate(-341.051 -6508.913)">
    <path id="Trazado_876532" data-name="Trazado 876532" d="M45,0A45,45,0,1,1,0,45,45,45,0,0,1,45,0Z" transform="translate(341.051 6508.913)" fill="#382a8e"/>
    <g id="Grupo_1102180" data-name="Grupo 1102180" transform="translate(355.273 6523.208)">
      <g id="Grupo_1102179" data-name="Grupo 1102179" clip-path="url(#clip-path)">
        <path id="Trazado_901757" data-name="Trazado 901757" d="M54.824,23.12c0,9.081.006,17.939-.01,26.8A10.44,10.44,0,0,1,54.58,52.3a6.532,6.532,0,0,1-6.144,5.039c-4.487.076-8.976.051-13.463-.012a1.6,1.6,0,0,1-1.235-.9c-.135-.814.569-.994,1.286-.992q6.251.011,12.5,0c3.424,0,5.362-1.938,5.364-5.359,0-9.019-.009-18.038.02-27.057a1.713,1.713,0,0,0-.943-1.706Q41.777,15.182,31.636,8.97a1.4,1.4,0,0,0-1.713,0q-10.194,6.24-20.433,12.4a1.528,1.528,0,0,0-.847,1.517c.027,9.139.011,18.278.021,27.418a4.806,4.806,0,0,0,5.118,5.119c4.087.014,8.175,0,12.262,0,.241,0,.543-.091.709.021a11.063,11.063,0,0,1,1.124.976c-.352.31-.7.886-1.056.889-4.727.047-9.464.181-14.181-.055a6.486,6.486,0,0,1-5.9-6.745c-.021-8.618-.007-17.236-.007-25.854v-1.53c-.684.392-1.253.712-1.816,1.042-1.219.714-1.494.659-2.207-.512Q1.582,21.819.483,19.956C-.262,18.7-.2,18.464,1.074,17.68,10.221,12.069,19.4,6.512,28.489.806a3.663,3.663,0,0,1,4.579,0c9.019,5.664,18.131,11.18,27.21,16.748,1.548.949,1.582,1.086.669,2.614q-.924,1.547-1.85,3.093c-1.018,1.7-1.107,1.716-2.762.72-.436-.262-.885-.5-1.512-.858M2.311,19.235l1.866,3.113c.486-.292.891-.534,1.295-.779Q17.534,14.244,29.585,6.9a2,2,0,0,1,2.4.006q10.855,6.652,21.752,13.235c1.188.722,2.377,1.441,3.643,2.209l1.846-3.092c-.283-.208-.5-.387-.729-.53Q45.033,10.47,31.578,2.2a1.389,1.389,0,0,0-1.713.083Q16.619,10.435,3.352,18.553c-.334.205-.657.429-1.041.681" transform="translate(0 0)" fill="#fff"/>
        <path id="Trazado_901758" data-name="Trazado 901758" d="M70.38,83.024c.765-.619,1.482-1.131,2.119-1.728,2.658-2.491,5.706-3.533,9.257-2.38a9.225,9.225,0,0,1,6.6,7.575A17.432,17.432,0,0,1,82.777,102.6c-3.681,3.5-7.661,6.685-11.489,10.031a1.226,1.226,0,0,1-1.88-.051c-3.741-3.264-7.607-6.393-11.228-9.785-4.6-4.309-6.769-9.7-5.837-16.023a9.334,9.334,0,0,1,6.5-7.808c3.622-1.26,6.75-.194,9.466,2.385.606.576,1.3,1.056,2.077,1.676m-.025,27.88c3.887-3.393,7.721-6.552,11.333-9.947a15.947,15.947,0,0,0,5-12.438A7.884,7.884,0,0,0,81.815,81c-3.073-1.352-5.777-.474-8.1,1.823a2.666,2.666,0,0,1-.275.232c-3.773,2.831-2.373,2.814-6.056.057a4.753,4.753,0,0,1-.457-.388c-2.084-2.02-4.508-2.918-7.348-1.979a7.494,7.494,0,0,0-5.3,6.139,14.994,14.994,0,0,0,4.32,13.542c3.661,3.675,7.74,6.933,11.752,10.476" transform="translate(-39.6 -59.581)" fill="#fff"/>
        <path id="Trazado_901759" data-name="Trazado 901759" d="M96.79,119.32c0-1.229.022-2.341-.007-3.451-.025-.963.394-1.388,1.365-1.371,1.68.029,3.361.023,5.042,0,.91-.011,1.32.4,1.3,1.306-.019,1.116,0,2.232,0,3.513,1.171,0,2.275.029,3.377-.008,1.017-.035,1.464.393,1.441,1.423-.036,1.64-.029,3.283,0,4.924.016.964-.4,1.4-1.369,1.372-1.11-.028-2.22-.006-3.447-.006,0,1.223-.022,2.333.006,3.443.024.963-.4,1.39-1.366,1.374-1.68-.026-3.361-.02-5.042,0-.908.009-1.319-.407-1.3-1.312.019-1.115,0-2.23,0-3.5-1.179,0-2.284-.029-3.387.008-1.024.034-1.454-.411-1.432-1.433.036-1.64.03-3.283,0-4.923-.016-.971.416-1.388,1.377-1.362,1.079.029,2.159.007,3.439.007m5.77,10.527c0-1.185.029-2.263-.008-3.339-.036-1.032.422-1.46,1.441-1.425,1.1.038,2.209.008,3.316.008v-3.841c-1.169,0-2.282-.022-3.393.006-.973.025-1.387-.419-1.362-1.38.029-1.11.007-2.222.007-3.358h-3.84c0,1.158-.029,2.236.008,3.312.035,1.029-.418,1.463-1.439,1.429-1.1-.037-2.209-.008-3.318-.008v3.841c1.168,0,2.281.022,3.392-.007.972-.025,1.388.417,1.364,1.378-.029,1.11-.007,2.222-.007,3.383Z" transform="translate(-69.864 -86.976)" fill="#fff"/>
      </g>
    </g>
  </g>
</svg>
