<svg xmlns="http://www.w3.org/2000/svg" xmlns:xlink="http://www.w3.org/1999/xlink" width="90" height="90" viewBox="0 0 90 90">
  <defs>
    <clipPath id="clip-path">
      <rect id="Rectángulo_402428" data-name="Rectángulo 402428" width="60.8" height="60.896" fill="#fff"/>
    </clipPath>
  </defs>
  <g id="Grupo_1102763" data-name="Grupo 1102763" transform="translate(-695.5 -577.966)">
    <circle id="Elipse_11522" data-name="Elipse 11522" cx="45" cy="45" r="45" transform="translate(695.5 577.966)" fill="#382a8e"/>
    <g id="Grupo_1102146" data-name="Grupo 1102146" transform="translate(710.101 592.518)">
      <g id="Grupo_1102145" data-name="Grupo 1102145" clip-path="url(#clip-path)">
        <path id="Trazado_901636" data-name="Trazado 901636" d="M11.793,65.4c-2.2-2.964-1.775-5.272,1-7.006a20.427,20.427,0,0,1,.055-4.02c.286-1.355,1.47-2.105,2.843-2.568-.332-2.567.66-4.38,3.133-5.25-.254-3.633,1.5-5.413,5.045-5.186.229.015.527.058.681-.059,1.221-.925,2.55-.655,3.888-.427q4.391.749,8.785,1.477c2.359.394,3.552,2.168,3.446,5.221a4.349,4.349,0,0,1,3.1,5.216,4.384,4.384,0,0,1,3.17,5.2c3.542,1.818,4.175,4.276,1.81,7.41,1.175,1.143,2.347,2.324,3.577,3.439a1.257,1.257,0,0,0,1.02.149,4.1,4.1,0,0,1,4.344,1.18c.639.652,1.31,1.274,1.931,1.942a3.883,3.883,0,0,1,.078,5.487Q53.238,84.2,46.647,90.655a3.884,3.884,0,0,1-5.488-.025c-.785-.728-1.549-1.484-2.271-2.274A3.6,3.6,0,0,1,38,84.507a1.191,1.191,0,0,0-.436-1.521c-.39-.336-.735-.723-1.1-1.088-3.421-3.419-3.422-3.437-8.272-3.134a2.771,2.771,0,0,0-1.574.654c-1.263,1.145-2.469,2.359-3.616,3.62a1.583,1.583,0,0,0-.243,1.3,4.1,4.1,0,0,1-1,4.285c-.684.719-1.377,1.432-2.111,2.1a3.938,3.938,0,0,1-5.58-.013c-.87-.812-1.688-1.679-2.531-2.52a1.165,1.165,0,0,1-.155-1.784c.615-.649,1.282-.474,1.871.111.761.755,1.5,1.528,2.279,2.267a1.6,1.6,0,0,0,2.59.057c.669-.62,1.32-1.264,1.933-1.939a1.5,1.5,0,0,0-.036-2.308c-4.148-4.157-8.278-8.334-12.446-12.471-1.135-1.126-1.814-1.07-2.937.022q-.725.706-1.432,1.431c-1.051,1.082-1.041,1.838.043,2.941.7.708,1.4,1.4,2.1,2.107.585.588.767,1.241.119,1.871a1.149,1.149,0,0,1-1.78-.138c-.872-.868-1.77-1.713-2.6-2.619a3.923,3.923,0,0,1-.031-5.4c.74-.827,1.544-1.6,2.354-2.359a4.147,4.147,0,0,1,3.773-.948,1.391,1.391,0,0,0,1.034-.166c1.227-1.123,2.394-2.312,3.568-3.465m35.226,1.686a4.61,4.61,0,0,0-.352.3c-.617.667-1.334,1.182-2.123.371-.812-.835-.159-1.5.462-2.113.763-.752,1.548-1.485,2.254-2.288A1.735,1.735,0,0,0,44.8,60.906c-.3.253-.572.548-.851.83-.6.613-1.276.894-1.955.179-.631-.665-.339-1.3.235-1.867.593-.585,1.2-1.161,1.759-1.775a1.75,1.75,0,1,0-2.443-2.5c-.3.262-.571.551-.847.836-.586.6-1.26.96-1.958.273s-.381-1.358.228-1.96a27.7,27.7,0,0,0,2.072-2.131,1.609,1.609,0,0,0-.16-2.352,1.591,1.591,0,0,0-2.264-.073c-.433.344-.8.765-1.2,1.15-.555.536-1.185.726-1.789.158-.654-.615-.488-1.277.1-1.87.613-.621,1.242-1.227,1.847-1.855.9-.928.974-1.987.22-2.722-.776-.757-1.747-.672-2.718.266-.742.716-1.43,1.492-2.2,2.174a1.629,1.629,0,0,0-.568,2.023,4.031,4.031,0,0,1-2.818,5.123c-.37.108-.752.171-1.123.254a4.275,4.275,0,0,1-3.611,4.072.915.915,0,0,0-.614.535,4.337,4.337,0,0,1-4.12,3.736c-.639,3.4-2.6,4.613-5.949,3.764a1.037,1.037,0,0,0-.83.157c-1.185,1.1-2.327,2.253-3.422,3.327L20.908,81.776a23.634,23.634,0,0,0,2.131-2.247,7.72,7.72,0,0,1,8.028-3.143,4.765,4.765,0,0,0,4.906-1.692,1.087,1.087,0,0,1,1.764-.116,1.171,1.171,0,0,1-.08,1.791c-.515.54-1.051,1.06-1.445,1.456l3.634,3.734L50.559,70.812l-3.541-3.73M43.894,89.457a5.127,5.127,0,0,0,1.2-.645q6.383-6.324,12.719-12.694a1.585,1.585,0,0,0-.018-2.43c-.627-.662-1.266-1.315-1.936-1.934a1.58,1.58,0,0,0-2.425.026Q47.105,78.077,40.8,84.4a1.561,1.561,0,0,0,.008,2.5c.6.638,1.206,1.266,1.86,1.841a7.439,7.439,0,0,0,1.222.719M28.076,52.577c1.138-.05,1.737-.495,1.96-1.364.206-.8-.1-1.283-.906-1.645a9.455,9.455,0,0,1-4.983-5c-.282-.664-.714-1.033-1.337-.82-.541.184-1.272.579-1.4,1.027a2.335,2.335,0,0,0,.384,1.906c1.676,1.839,3.476,3.567,5.262,5.3a4.156,4.156,0,0,0,1.016.593m-2.027,2.57a4.392,4.392,0,0,0-.51-1.177C24,52.383,22.46,50.786,20.831,49.291a1.546,1.546,0,0,0-2.25.156,1.514,1.514,0,0,0-.144,2.24c1.51,1.615,3.063,3.2,4.716,4.665a2.132,2.132,0,0,0,1.839.112c.471-.192.736-.889,1.057-1.316M16.564,53.93c-.526.444-1.257.769-1.412,1.272a2.375,2.375,0,0,0,.336,1.911,34.736,34.736,0,0,0,3.149,3.211,1.751,1.751,0,1,0,2.421-2.51c-.986-1.025-1.986-2.037-3.025-3.007a8.871,8.871,0,0,0-1.469-.877m-3.737,8.085c-.124,1.181,1.911,3.22,3.1,3.107a1.774,1.774,0,0,0,1.6-1.766,4.137,4.137,0,0,0-2.915-2.925,1.787,1.787,0,0,0-1.781,1.584M26.142,42.932a7.128,7.128,0,0,0,3.4,4.163L32.6,44.113l-6.46-1.181" transform="translate(0 -30.977)" fill="#fff"/>
        <path id="Trazado_901637" data-name="Trazado 901637" d="M46.046,7.885a8.364,8.364,0,0,1-1.131-.773c-1.3-1.265-2.577-2.564-3.87-3.842-.61-.6-.9-1.267-.2-1.946.645-.625,1.293-.369,1.865.206,1.338,1.344,2.72,2.649,4,4.05a1.959,1.959,0,0,1,.32,1.473c-.051.3-.593.527-.974.833" transform="translate(-30.804 -0.731)" fill="#fff"/>
        <path id="Trazado_901638" data-name="Trazado 901638" d="M186.752,8.286c-.292-.243-.751-.451-.887-.79a1.362,1.362,0,0,1,.119-1.193c1.487-1.581,3.013-3.131,4.619-4.59a1.472,1.472,0,0,1,1.437.135,1.466,1.466,0,0,1,.155,1.43c-1.49,1.63-3.086,3.162-4.666,4.708-.152.149-.429.172-.777.3" transform="translate(-141.536 -1.205)" fill="#fff"/>
        <path id="Trazado_901639" data-name="Trazado 901639" d="M122.056,3.706a13.077,13.077,0,0,1,.049-2.6c.093-.45.74-1.152,1.046-1.108.469.068,1.193.657,1.224,1.068a38.6,38.6,0,0,1,.006,5.442c-.027.4-.682.976-1.132,1.07-.715.15-1.161-.414-1.191-1.149-.037-.907-.009-1.817-.009-2.726h.007" transform="translate(-92.955 0)" fill="#fff"/>
        <path id="Trazado_901640" data-name="Trazado 901640" d="M32.43,216.443c-.468.3-.95.842-1.4.816-.406-.024-1.131-.732-1.08-1.031a1.711,1.711,0,0,1,1.091-1.188c.41-.063.921.538,1.388.846q0,.279,0,.557" transform="translate(-22.817 -163.822)" fill="#fff"/>
        <path id="Trazado_901641" data-name="Trazado 901641" d="M168.657,167.44c-.469.286-.962.825-1.4.783-.414-.04-1.127-.759-1.069-1.055A1.734,1.734,0,0,1,167.313,166c.4-.062.9.547,1.356.859Z" transform="translate(-126.606 -126.463)" fill="#fff"/>
      </g>
    </g>
  </g>
</svg>
