<svg xmlns="http://www.w3.org/2000/svg" xmlns:xlink="http://www.w3.org/1999/xlink" width="90" height="90" viewBox="0 0 90 90">
  <defs>
    <clipPath id="clip-path">
      <rect id="Rectángulo_402493" data-name="Rectángulo 402493" width="61.809" height="61.79" fill="#fff"/>
    </clipPath>
  </defs>
  <g id="Grupo_1102779" data-name="Grupo 1102779" transform="translate(-757.967 -3922.478)">
    <circle id="Elipse_11514" data-name="Elipse 11514" cx="45" cy="45" r="45" transform="translate(757.967 3922.478)" fill="#382a8e"/>
    <g id="Grupo_1102220" data-name="Grupo 1102220" transform="translate(772.563 3936.583)">
      <g id="Grupo_1102219" data-name="Grupo 1102219" clip-path="url(#clip-path)">
        <path id="Trazado_901887" data-name="Trazado 901887" d="M2.918,61.79c.214-3.306.254-6.5.66-9.637.671-5.193,3.7-8.472,8.718-9.965a7.564,7.564,0,0,0,1.623-1.1,16.366,16.366,0,0,1-6.4-4.495,15.169,15.169,0,0,1-3.214-6.528c-.442-.081-.838-.13-1.221-.227A3.91,3.91,0,0,1,.951,23.471a1.682,1.682,0,0,0,.343-1.83,19.181,19.181,0,0,1-1.1-9A14.946,14.946,0,0,1,13.763.136a101.833,101.833,0,0,1,10.372,0,14.05,14.05,0,0,1,7.411,2.676L33.155,1.28c2.388,1.6,2.559,1.536,2.826-1.147h5.726c.553,2.779.708,2.844,2.73,1.2l4,4.057c-.254.59-.916,1.4-.742,1.942.155.482,1.236.665,2.067,1.055v5.473c-2.755.627-2.84.83-1.288,2.566L44.308,20.6c-2-1.481-2.188-1.411-2.565,1.333H36.017c-.32-.817.28-2.29-1.214-2.21-1.312.071-.882,1.249-.9,2.178a4.3,4.3,0,0,1,4.04,4.057h1.446q9.835,0,19.669,0c2.106,0,2.733.635,2.737,2.735,0,.965.01,1.931,0,2.9-.021,1.669-.719,2.348-2.488,2.351-7.964.01-15.929.069-23.892-.038-2.1-.028-3.816.151-4.782,2.311A9.116,9.116,0,0,1,29.2,37.941h1.478q10.2,0,20.393,0c2.174,0,2.754.6,2.757,2.81q0,1.207,0,2.413c0,2.114-.628,2.751-2.711,2.752q-8.929,0-17.859,0h-1.4c.656,1.252,1.221,2.467,1.932,3.589.177.279.826.359,1.259.36q11.886.03,23.771.015c2.449,0,2.977.53,2.978,2.969,0,.965.023,1.932-.007,2.9a1.973,1.973,0,0,1-2,2.112c-.4.036-.8.02-1.206.02H34.853v3.91Zm3.1-37.464c0,.965-.014,1.931,0,2.9A12.962,12.962,0,0,0,17.668,39.867a12.786,12.786,0,0,0,13.947-10.6,54.006,54.006,0,0,0,.257-7.7c.031-2.478-1.1-3.568-3.622-3.576-2.454-.007-4.908-.039-7.361.008a15.352,15.352,0,0,1-7.88-1.863,1.439,1.439,0,0,0-1.09-.095c-1.413.573-2.8,1.207-4.183,1.858a2.812,2.812,0,0,0-1.716,2.683c-.012,1.247,0,2.494,0,3.741M30.311,3.98C28.33,3.341,26.624,2.438,24.858,2.3c-3.6-.285-7.226-.172-10.842-.189a8.281,8.281,0,0,0-1.786.262c-7.2,1.584-13.17,9.3-8.669,19.548.016.036.145.022.444.059-.121-1.889,0-3.843,1.636-5.013a42.727,42.727,0,0,1,4.781-2.611L8.1,11.61,9.81,10.5c2.209,3.072,5.081,5.06,8.753,5.352,3.558.283,7.152.144,10.73.114.306,0,.831-.574.846-.9s-.424-.792-.778-.974a3.723,3.723,0,0,0-1.345-.113V8.371c.824-.368,1.906-.546,2.016-.974.152-.591-.429-1.37-.753-2.216l1.033-1.2M12.14,59.784h4.768a6.281,6.281,0,0,0-.843-.621c-1.05-.486-1.274-1.169-.914-2.309a56.865,56.865,0,0,0,1.461-5.837,15.082,15.082,0,0,0,.028-2.781l-2.21,1-2.018-4.957a8.547,8.547,0,0,0-.871.271,9.357,9.357,0,0,0-6,7.951c-.259,2.414-.333,4.848-.49,7.27H9.949c0-1.746.01-3.391,0-5.036-.009-1.044.245-2.222-.152-3.1-.6-1.328.087-1.765,1.042-2.439,2.17,3.357.6,7.079,1.3,10.587m15.775.013h4.9c-.107-1.958-.184-3.838-.321-5.715A18.317,18.317,0,0,0,32.1,51.1c-.82-3.381-3.807-6.35-6.671-6.693l-1.988,4.825-2.169-.98a16.567,16.567,0,0,0,.028,2.861,36.371,36.371,0,0,0,1.256,5.019c.53,1.542.481,2.694-1.21,3.357-.066.026-.081.184-.126.3H25.9c0-2.406-.007-4.731,0-7.056a4.26,4.26,0,0,1,1.308-3.455l1.2,1.068c-.887,3.276-.273,6.348-.492,9.449M41.839,39.918H40.38c-4.092,0-8.187-.057-12.277.034A26.532,26.532,0,0,0,24,40.727c.53.7.709,1.2,1.023,1.308,2.91,1.013,5.717,2.5,8.989,1.917a16.781,16.781,0,0,1,2.884-.025h4.817a4.7,4.7,0,0,0,.125-.688c.01-1.04,0-2.08,0-3.32m5.909-29.873C45.621,8.851,45.369,8.3,45.791,5.767c.125-.752-1.092-1.783-1.861-1.575a2.978,2.978,0,0,1-3.771-1.487A1.516,1.516,0,0,0,37.6,2.681,2.976,2.976,0,0,1,33.845,4.2a1.585,1.585,0,0,0-1.8,1.759c.453,1.807.024,2.824-1.61,3.824a1.671,1.671,0,0,0-.014,2.476c1.631.992,2.08,2.043,1.631,3.819a1.582,1.582,0,0,0,1.8,1.77,2.96,2.96,0,0,1,3.752,1.545,1.518,1.518,0,0,0,2.564-.068,2.972,2.972,0,0,1,3.675-1.494,1.541,1.541,0,0,0,1.816-1.825c-.348-1.328-.172-2.653,1.034-3.307,1.256-.681,1.228-1.566,1.049-2.656M34.605,55.755H49.718V52.008H34.379c.078,1.292.15,2.486.226,3.747m15.143-27.62a1.6,1.6,0,0,0-.393-.125c-3.815-.01-7.629-.021-11.444,0a1.8,1.8,0,0,0-.835.34c-1.086.666-2.158,1.353-3.236,2.033l-.236-.3-.519,1.794H49.748ZM51.734,40H43.948v3.848h7.786Zm.188-8.158h7.8V28.067h-7.8Zm-.017,23.929h7.837V52.01H51.906ZM19.153,50.947l-.427.024c-.447,1.767-.9,3.534-1.338,5.3-.261,1.043.377,2.239,1.405,2.169.669-.046,1.885-.917,1.832-1.259-.328-2.1-.949-4.163-1.472-6.237m-3.079-9.04q-.021-.181-.042-.362a1.654,1.654,0,0,0-.586.257.693.693,0,0,0-.061.514,17.114,17.114,0,0,0,4,1.265c.885.078,1.85-.641,2.758-1.051.18-.081.258-.385.384-.586-.213-.112-.43-.328-.638-.321-1.939.073-3.876.184-5.814.284M33.931,27.873c1.3-.2,1.966-.9,1.947-1.929-.019-1.049-.716-1.723-1.947-1.825Zm-30-3.8C2.665,24.283,1.987,24.983,2,26s.716,1.716,1.933,1.85Zm11.581,22.43,2.1-1.075L14.6,44.317l.917,2.19m4.765-1.044,2.152,1.014.84-2.206-2.992,1.192M18.65,48.891l.633.006q.045-.823.089-1.645l-.9.034q.088.8.175,1.605" transform="translate(0.001 0)" fill="#fff"/>
        <path id="Trazado_901888" data-name="Trazado 901888" d="M44.235,91.18a2.963,2.963,0,0,1,3.019,2.936,3,3,0,0,1-2.943,3.034,3.059,3.059,0,0,1-3.042-2.959,3,3,0,0,1,2.966-3.01m1.452,2.977c-.674-.463-1.085-.964-1.428-.921a1.4,1.4,0,0,0-.868.985c-.044.23.55.817.859.819.38,0,.762-.44,1.437-.882" transform="translate(-31.308 -69.174)" fill="#fff"/>
        <path id="Trazado_901889" data-name="Trazado 901889" d="M90.949,94.007a2.948,2.948,0,0,1,3.118-2.822A2.981,2.981,0,0,1,96.911,94.3a3.033,3.033,0,0,1-3.138,2.846,2.99,2.99,0,0,1-2.823-3.14m4.4.232c-.683-.518-1.074-1.04-1.4-1a1.448,1.448,0,0,0-.943.935c-.059.217.509.832.836.866.363.037.773-.383,1.507-.8" transform="translate(-68.996 -69.175)" fill="#fff"/>
        <path id="Trazado_901890" data-name="Trazado 901890" d="M66.336,138.173v-1.719c2.365-.689,5.119.893,7.132-1.519l1.559.768c-1.195,2.914-4.015,2.846-8.691,2.471" transform="translate(-50.326 -102.368)" fill="#fff"/>
        <path id="Trazado_901891" data-name="Trazado 901891" d="M139.136,30.765a6.958,6.958,0,1,1,6.952-6.986,6.976,6.976,0,0,1-6.952,6.986m0-11.906a4.959,4.959,0,1,0,4.954,5.014,4.97,4.97,0,0,0-4.954-5.014" transform="translate(-100.228 -12.782)" fill="#fff"/>
        <path id="Trazado_901892" data-name="Trazado 901892" d="M148.789,36.222a2.966,2.966,0,1,1,5.931.126,2.966,2.966,0,1,1-5.931-.126m3.043,1.472c.421-.716.85-1.123.818-1.49-.028-.322-.643-.888-.873-.831a1.415,1.415,0,0,0-.927.937c-.036.329.48.718.982,1.384" transform="translate(-112.878 -25.258)" fill="#fff"/>
      </g>
    </g>
  </g>
</svg>
