<svg xmlns="http://www.w3.org/2000/svg" xmlns:xlink="http://www.w3.org/1999/xlink" width="90" height="90" viewBox="0 0 90 90">
  <defs>
    <clipPath id="clip-path">
      <rect id="Rectángulo_402462" data-name="Rectángulo 402462" width="64.662" height="64.696" fill="#fff"/>
    </clipPath>
  </defs>
  <g id="Grupo_1102767" data-name="Grupo 1102767" transform="translate(-1183.998 -6508.913)">
    <circle id="Elipse_11505" data-name="Elipse 11505" cx="45" cy="45" r="45" transform="translate(1183.998 6508.913)" fill="#382a8e"/>
    <g id="Grupo_1102184" data-name="Grupo 1102184" transform="translate(1196.598 6521.565)">
      <g id="Grupo_1102183" data-name="Grupo 1102183" clip-path="url(#clip-path)">
        <path id="Trazado_901764" data-name="Trazado 901764" d="M25.8,15.023h-4.77q-8.782,0-17.563,0c-1.192,0-2.333-.317-2.669-1.508a4.083,4.083,0,0,1,.265-2.6c.45-.979,1.548-1.021,2.563-1.019q10.245.019,20.491.007H25.8c.027-.5.07-.946.072-1.39.007-2.333.025-4.667-.005-7C25.851.426,26.314-.006,27.4,0Q32.8.049,38.213,0c1.17-.012,1.577.492,1.562,1.611-.036,2.705-.012,5.411-.012,8.291h1.479q10.182,0,20.363,0a10.738,10.738,0,0,1,1.4.042,2.515,2.515,0,0,1,.561,4.829,5.536,5.536,0,0,1-1.745.238q-10.309.023-20.618.01H39.863c-.944,4.253-3.425,6.419-7.158,6.359-3.657-.059-6.1-2.259-6.908-6.359M37.654,2.179H28.007c0,4.437-.113,8.794.045,13.141.087,2.4,2.392,4.067,4.927,3.964,2.613-.106,4.6-1.821,4.651-4.283.089-4.23.025-8.462.025-12.822M25.8,12.107A1.318,1.318,0,0,0,25.44,12q-10.993-.013-21.986,0a2.956,2.956,0,0,0-.9.318l.036.378a7.727,7.727,0,0,0,1.255.232c1.312.031,2.626.012,3.939.012q8.452,0,16.9-.009c.519,0,1.314.256,1.115-.816m14.127.055-.243.316a3.091,3.091,0,0,0,1.044.434q10.612.038,21.224,0a4.19,4.19,0,0,0,1.139-.342l-.071-.412Z" transform="translate(-0.511 0)" fill="#fff"/>
        <path id="Trazado_901765" data-name="Trazado 901765" d="M57.7,172.606c0,3.87,0,7.386,0,10.9,0,1.677-.235,1.9-1.907,1.906q-6.425,0-12.85,0c-1.742,0-1.939-.2-1.941-2,0-3.1,0-6.192,0-9.288,0-.4-.037-.808-.069-1.446-1.155,1.064-2.1,2.029-3.145,2.853a3.242,3.242,0,0,1-1.791.69c-3.094.068-6.191.044-9.287.027a3.66,3.66,0,1,1-.105-7.315c2.119-.057,4.242-.064,6.36.006a2.845,2.845,0,0,0,2.24-.911c1.8-1.74,3.605-3.475,5.5-5.1a3.81,3.81,0,0,1,2.209-.9c4.324-.085,8.652-.076,12.976-.005a3.391,3.391,0,0,1,2,.8c2.013,1.755,3.909,3.643,5.908,5.414a2.852,2.852,0,0,0,1.663.658c2.118.077,4.24.012,6.36.037,2.516.03,4.064,1.5,4.015,3.764-.048,2.205-1.581,3.558-4.063,3.565-2.926.008-5.853-.036-8.779.023a2.963,2.963,0,0,1-2.363-.946c-.85-.869-1.777-1.663-2.927-2.726m-2.193,10.66c.024-.515.064-.968.065-1.421.005-3.648-.024-7.3.031-10.945a5.589,5.589,0,0,1,.6-1.678,5.65,5.65,0,0,1,1.627.667c1.385,1.184,2.66,2.5,4.037,3.691a2.454,2.454,0,0,0,1.44.573c2.8.054,5.6.034,8.4.023,1.365-.005,2.024-.527,2.035-1.558s-.639-1.551-2.015-1.561c-2.333-.017-4.668.043-7-.04a3.078,3.078,0,0,1-1.789-.717c-2.035-1.8-3.966-3.709-6-5.505a2.979,2.979,0,0,0-1.772-.7q-5.789-.093-11.58,0a3.181,3.181,0,0,0-1.877.753c-2.008,1.762-3.9,3.654-5.911,5.414a3.288,3.288,0,0,1-1.9.754c-2.415.089-4.835.039-7.253.041-1.008,0-1.657.483-1.674,1.5-.018,1.08.641,1.606,1.706,1.615s2.121.009,3.182,0c2.12-.013,4.449.508,6.3-.206,1.8-.7,3.09-2.69,4.663-4.046a6.235,6.235,0,0,1,1.617-.73,5.8,5.8,0,0,1,.653,1.769c.061,3.647.028,7.3.035,10.945,0,.445.057.89.089,1.355Z" transform="translate(-17.042 -120.72)" fill="#fff"/>
        <path id="Trazado_901766" data-name="Trazado 901766" d="M188.569,68.154c.69,0,1.532-.017,2.374,0a2.7,2.7,0,0,1,2.912,2.828q.05,5.594,0,11.189a2.688,2.688,0,0,1-2.879,2.862q-7.374.037-14.749,0a2.62,2.62,0,0,1-2.826-2.771q-.074-5.657,0-11.316a2.654,2.654,0,0,1,2.932-2.793c.837-.018,1.675,0,2.376,0a10.737,10.737,0,0,1,.959-2.459c1.139-1.562,6.675-1.607,7.855-.063a11.349,11.349,0,0,1,1.047,2.523m3.216,6.754c-1.8.556-3.4,1.043-5,1.562-.17.055-.25.35-.42.443a6.222,6.222,0,0,1-2.031.974c-1.4.15-2.941.337-3.753-1.332a.365.365,0,0,0-.213-.131c-1.567-.485-3.136-.966-4.867-1.5,0,2.543-.034,4.908.047,7.269.009.269.663.737,1.022.741,4.7.05,9.41.027,14.116.04.74,0,1.105-.287,1.1-1.043-.008-2.244,0-4.487,0-7.025m-8.22-4.676c-2.242,0-4.485-.019-6.727.017-.419.007-1.133.157-1.193.38-.168.623-.255,1.823-.036,1.906,1.779.676,3.636,1.15,5.472,1.674.045.013.122-.142.191-.149,1.349-.135,2.885-.717,4-.264a4.139,4.139,0,0,0,3.077-.02,22,22,0,0,1,2.422-.737c1.255-.217,1.03-1.1,1.008-1.923-.025-.939-.7-.889-1.359-.887q-3.427.007-6.854,0m-2.33-2.08c1.393,0,2.706.036,4.014-.026.307-.015.6-.359.9-.552-.3-.285-.583-.779-.914-.815a30.262,30.262,0,0,0-3.05-.045c-.917-.006-1.215.44-.948,1.438" transform="translate(-129.217 -48.073)" fill="#fff"/>
        <path id="Trazado_901767" data-name="Trazado 901767" d="M1.605,74.867c-1.569-4.575-1.046-7.3,1.66-8.989,2.477-1.547,5.145-1.06,7.578,1.44a5.368,5.368,0,0,1,5.45-2.216c3.531.614,5.421,3.914,4.426,7.654A16.909,16.909,0,0,1,16.9,79.433c-1.609,1.857-3.363,3.59-5.043,5.386a1.22,1.22,0,0,1-2.055.02c-2.079-2.291-4.2-4.549-6.208-6.9a2.015,2.015,0,0,0-1.884-.932c-.724.073-1.572.1-1.693-.879-.132-1.068.753-1.153,1.592-1.264m9.155,8.046c2.72-2.712,5.442-5.246,7.079-8.622a11.107,11.107,0,0,0,.987-3.879A3.164,3.164,0,0,0,16.462,67.3a3.251,3.251,0,0,0-3.835,1.206c-.3.407-.521.873-.8,1.3-.646.991-1.4.976-2.052-.038-.229-.357-.418-.74-.664-1.083A3.332,3.332,0,0,0,5.1,67.315a3.327,3.327,0,0,0-2.333,3.412,16.4,16.4,0,0,0,.66,2.95c.259,1,.885,1.34,1.956,1.311.975-.026,1.61-.189,1.824-1.233a3.4,3.4,0,0,1,.521-1.289c.294-.408.739-.973,1.121-.975.36,0,.812.588,1.06,1.012a10.277,10.277,0,0,1,.64,1.765c.688-1.241,3.059-1.886,4.13-1.167a1.227,1.227,0,0,1,.488,1.026c-.112.349-.644.852-.924.811-1.543-.23-1.847.723-2.051,1.886a5.512,5.512,0,0,1-.445,1.584c-.21.4-.67,1-.955.964a1.777,1.777,0,0,1-1.132-.928,23.423,23.423,0,0,1-.957-2.834c-.51,1.939-1.938,1.2-3.231,1.565l5.282,5.736" transform="translate(0 -48.444)" fill="#fff"/>
        <path id="Trazado_901768" data-name="Trazado 901768" d="M103.808,110.088a7.9,7.9,0,1,1-.049-15.8,7.946,7.946,0,0,1,7.891,7.831,7.864,7.864,0,0,1-7.842,7.971m-.071-2.094a5.787,5.787,0,1,0-5.805-5.832,5.808,5.808,0,0,0,5.805,5.832" transform="translate(-71.445 -70.276)" fill="#fff"/>
        <path id="Trazado_901769" data-name="Trazado 901769" d="M120.46,44.522a3.326,3.326,0,0,1-6.652.019,3.326,3.326,0,1,1,6.652-.019M117.1,42.735c-.568.824-1.1,1.265-1.163,1.764a1,1,0,0,0,1.261,1.165,1.75,1.75,0,0,0,1.092-1.217c.028-.432-.595-.907-1.19-1.712" transform="translate(-84.827 -30.672)" fill="#fff"/>
      </g>
    </g>
  </g>
</svg>
