<svg xmlns="http://www.w3.org/2000/svg" xmlns:xlink="http://www.w3.org/1999/xlink" width="90" height="90" viewBox="0 0 90 90">
  <defs>
    <clipPath id="clip-path">
      <rect id="Rectángulo_402494" data-name="Rectángulo 402494" width="66.959" height="65.209" fill="#fff"/>
    </clipPath>
  </defs>
  <g id="Grupo_1102780" data-name="Grupo 1102780" transform="translate(-1179.914 -3922.478)">
    <circle id="Elipse_11513" data-name="Elipse 11513" cx="45" cy="45" r="45" transform="translate(1179.914 3922.478)" fill="#382a8e"/>
    <g id="Grupo_1102222" data-name="Grupo 1102222" transform="translate(1191.935 3934.873)">
      <g id="Grupo_1102221" data-name="Grupo 1102221" clip-path="url(#clip-path)">
        <path id="Trazado_901893" data-name="Trazado 901893" d="M20.92,115.726a36.223,36.223,0,0,1-1.783,3.481c-1.827,2.806-4.442,3.6-7.605,2.528a2.7,2.7,0,0,0-1.625.048c-2.926,1-5.662.3-7.354-2.293A14.271,14.271,0,0,1,1.36,105.259c1.325-3.01,3.9-4.193,7.171-3.64.346.059.695.105.973.147A35.841,35.841,0,0,1,10.558,98a3.236,3.236,0,0,1,3.424-2.276,1.484,1.484,0,0,1,.946.9,1.284,1.284,0,0,1-.588,1.043c-2,1.116-2.314,1.566-2.408,4.039.393-.052.772-.08,1.141-.155a6.063,6.063,0,0,1,6.411,2.409,5.573,5.573,0,0,0,1.441.979,13.325,13.325,0,0,1,2.222,1.442c1.7,1.663,3.225,3.509,4.974,5.113a4.439,4.439,0,0,0,2.7,1.146c5.627.031,4.069.705,7.988-3.312q1.6-1.638,3.151-3.322a3.362,3.362,0,0,0,.627-1,7.2,7.2,0,0,1,11.4-3.147c.175.133.353.263.587.437a7.287,7.287,0,0,1,6.988-1.839,7.117,7.117,0,0,1,3.789,11.4c-3.1,3.837-6.552,7.386-9.857,11.054-.81.9-1.469.476-2.125-.255-2.607-2.905-5.231-5.794-7.988-8.843-1.319,1.6-2.635,3.1-3.826,4.7a3.038,3.038,0,0,0-.3,1.678c-.025,3.5,0,7-.016,10.505-.011,2.86-1.554,4.4-4.416,4.409q-4.377.018-8.755,0c-3.02-.009-4.511-1.516-4.523-4.582s-.179-6.119.051-9.154c.192-2.53-1.047-4.119-2.675-5.633M42.229,109a17.235,17.235,0,0,0-2.015,2.014c-2.231,3.1-5.158,4.258-8.969,3.908a7.1,7.1,0,0,1-5.089-2.25c-1.574-1.761-3.251-3.432-4.976-5.239.051,5.134.024,5.158,3,8.633a6.1,6.1,0,0,1,1.544,4.3c-.06,3.454-.034,6.909-.009,10.363.012,1.606.62,2.2,2.207,2.205,2.916.016,5.833.011,8.749,0,1.829-.005,2.4-.573,2.4-2.414.01-3.41.044-6.82-.015-10.229a5.719,5.719,0,0,1,1.516-4.169c1.141-1.255,2.208-2.577,3.263-3.818L42.229,109m-22.839,1.987a33.434,33.434,0,0,0-.943-4.3c-.993-2.795-3.12-3.8-5.877-2.741a4.7,4.7,0,0,1-3.577.05c-2.717-.985-4.875-.042-5.89,2.6a12.474,12.474,0,0,0,.935,11.248c1.343,2.28,3.21,2.693,5.66,1.679a3.026,3.026,0,0,1,2.1-.018c2.512,1.039,4.326.552,5.736-1.781a14.89,14.89,0,0,0,1.853-6.741m31.816.21c-1.017.115-1.884.488-2.3.2-.928-.639-.227-1.4.262-2.051.136-.179.274-.356.412-.533,1.144-1.461,1.716-1.449,2.711.061.409.621.812,1.246,1.372,2.107.419-1.278.686-2.312,1.107-3.279.2-.47.735-1.167,1.05-1.133a2.2,2.2,0,0,1,1.311,1.036,28.535,28.535,0,0,1,1.38,2.788c1.242-1.259,2.661-.8,3.968-.835,2.022-.059,2.268-.257,2.228-2.307a5.082,5.082,0,0,0-.187-1.323c-1.1-3.732-5.609-4.735-8.551-1.912-1.28,1.228-1.526,1.244-2.646.173-2.345-2.243-5.373-2.412-7.452-.417-2,1.918-2,5.05.066,7.4,2.465,2.795,4.986,5.539,7.485,8.3.355.393.72.778,1.147,1.238l7.919-8.78-.236-.354a7.039,7.039,0,0,0-2.288.477c-2.355,1.44-2.321,1.493-3.577-.94a2.474,2.474,0,0,0-.333-.361,26.91,26.91,0,0,1-.941,2.745,1.884,1.884,0,0,1-1.054,1.017c-.32.069-.875-.368-1.137-.72-.693-.929-1.284-1.935-1.717-2.6" transform="translate(0 -69.894)" fill="#fff"/>
        <path id="Trazado_901894" data-name="Trazado 901894" d="M76.966,9.492c1.6-.488,1.947-1.727,2.108-2.969a40.731,40.731,0,0,0,.217-4.159c.048-1.784,1.034-2.615,2.781-2.3A5.948,5.948,0,0,1,86.918,5.6c.044.982.007,1.967.007,3.176,1.451,0,2.822-.011,4.193,0,3.444.035,5.023,2.547,3.539,5.631q-1.632,3.39-3.288,6.767A3.556,3.556,0,0,1,88.174,23.5c-3.182.039-6.368.061-9.548-.057-1.094-.041-2.116-.479-2.922.715a1.894,1.894,0,0,1-1.353.458c-1.882.05-3.769.088-5.648,0a2.436,2.436,0,0,1-2.456-2.531q-.076-6.121,0-12.243a2.515,2.515,0,0,1,2.686-2.586c1.748-.036,3.5,0,5.247-.01,1.472-.005,2.266.874,2.786,2.248m4.6-7.2c-.1,1.425-.11,2.856-.311,4.261-.332,2.32-1.111,4.357-3.717,5.082-.292.081-.6.706-.611,1.088-.061,2.019-.029,4.04-.029,6.061,0,2.166.323,2.528,2.536,2.565,2.6.043,5.21-.022,7.812.045a2.283,2.283,0,0,0,2.384-1.54c.985-2.162,2.065-4.28,3.09-6.424.767-1.6.215-2.459-1.6-2.485-1.257-.018-2.515.027-3.771-.015a2.343,2.343,0,0,1-2.57-2.616c-.018-.853.023-1.708-.02-2.559a3.571,3.571,0,0,0-3.19-3.463M68.388,15.877c0,1.839.017,3.679-.009,5.518-.01.7.165,1.113.963,1.1,1.48-.026,2.965.051,4.438-.051a1.33,1.33,0,0,0,.908-.925c.064-3.723.035-7.447.045-11.171,0-.677-.263-.965-.962-.948-1.435.033-2.872.045-4.306,0-.831-.029-1.106.294-1.089,1.1.037,1.794.012,3.589.012,5.384" transform="translate(-48.37 0)" fill="#fff"/>
        <path id="Trazado_901895" data-name="Trazado 901895" d="M101.942,95.687a6.7,6.7,0,1,1,.072,13.391,6.7,6.7,0,1,1-.072-13.391m.089,2.166a4.526,4.526,0,1,0,4.5,4.536,4.539,4.539,0,0,0-4.5-4.536" transform="translate(-69.584 -69.905)" fill="#fff"/>
        <path id="Trazado_901896" data-name="Trazado 901896" d="M42.563,135.753c2.709-.024,4.876,3,4,5.357a1.294,1.294,0,0,1-.986.688,1.486,1.486,0,0,1-.979-.729,3.274,3.274,0,0,1-.159-1.182c-.21-1.653-.812-2.161-2.4-1.866-.779.145-1.506.058-1.536-.748-.017-.446.636-1,1.1-1.351.279-.213.775-.142.958-.168" transform="translate(-29.591 -99.176)" fill="#fff"/>
      </g>
    </g>
  </g>
</svg>
