<svg xmlns="http://www.w3.org/2000/svg" xmlns:xlink="http://www.w3.org/1999/xlink" width="90" height="90" viewBox="0 0 90 90">
  <defs>
    <clipPath id="clip-path">
      <rect id="Rectángulo_402512" data-name="Rectángulo 402512" width="61.368" height="73.306" fill="#698d59"/>
    </clipPath>
  </defs>
  <g id="Grupo_1102784" data-name="Grupo 1102784" transform="translate(-904.274 -4888.681)">
    <path id="Trazado_876531" data-name="Trazado 876531" d="M45,0A45,45,0,1,1,0,45,45,45,0,0,1,45,0Z" transform="translate(904.274 4888.681)" fill="#fff"/>
    <g id="Grupo_1102234" data-name="Grupo 1102234" transform="translate(918.84 4897.027)">
      <g id="Grupo_1102233" data-name="Grupo 1102233" clip-path="url(#clip-path)">
        <path id="Trazado_901936" data-name="Trazado 901936" d="M4.672,49.651c0-3.96.011-7.7-.018-11.436a1.741,1.741,0,0,0-.42-1.026,3.607,3.607,0,0,1-.467-3.884c.5-1.329,1.726-1.4,2.97-1.393,3.98.027,7.96.01,12.029.01V29.794c-2.118-1.1-2.676-2.011-2.231-4.112.556-2.626,2.811-1.881,4.646-2.092a9.136,9.136,0,0,1,2.122-6.6,8.909,8.909,0,0,1,6.19-2.874c0-3.747.078-7.434-.037-11.115A2.376,2.376,0,0,1,31.41.345a6.48,6.48,0,0,1,5.282.485,5.4,5.4,0,0,0,4.955.282C43.041.539,43.663.986,43.679,2.53c.024,2.265.09,4.534-.048,6.791a2.5,2.5,0,0,1-1.152,1.766,6.542,6.542,0,0,1-5.842.16c-.449-.2-.883-.434-1.335-.625-2.429-1.024-3.447-.386-3.435,2.144,0,.434,0,.869,0,1.279,5.829,1.113,7.977,3.565,8.336,9.531,1.822.285,4.437-.611,4.657,2.562.148,2.135-.275,2.76-2.314,3.574v2.21h6.482c1.969,0,3.939.025,5.907-.009,1.112-.02,2.306.169,2.558,1.28a10.907,10.907,0,0,1-.129,3.662c-.091.723-.632,1.409-.646,2.118-.067,3.4-.024,6.793-.017,10.19a3.371,3.371,0,0,0,.112.489c.909,0,1.872-.014,2.835,0,1.549.027,1.945.519,1.6,2.011a25.634,25.634,0,0,1-9.777,14.85c-13.027,10.085-33.5,8.778-44.8-2.86A24.594,24.594,0,0,1,.139,51.79C-.243,50.1.105,49.669,1.876,49.653c.876-.009,1.752,0,2.8,0m16.66-20.015V49.58h4.616c0-1.824.026-3.581-.009-5.337-.023-1.18.48-1.712,1.673-1.692,1.966.033,3.935.058,5.9-.008,1.4-.047,1.971.506,1.916,1.909-.067,1.7-.016,3.4-.016,5.082h4.642v-19.9ZM7.114,49.547H18.739V37.92H7.114Zm35.5-.014H54.234V37.907H42.609ZM23.653,23.555h14.03c.287-3.7-1.715-6.466-4.994-6.923a18.924,18.924,0,0,0-2.652-.063c-4.183.013-6.614,2.628-6.383,6.985M48.437,52.077l-1.486,6.477c2.128.765,4.141,1.518,6.18,2.193a1.287,1.287,0,0,0,1.127-.236,20.966,20.966,0,0,0,4.425-8.434ZM2.679,52.057a20.926,20.926,0,0,0,4.363,8.387,1.28,1.28,0,0,0,1.106.328c2.088-.681,4.147-1.447,6.211-2.184l-1.544-6.531Zm14.009,5.9,12.7-1.4V52.09H15.249l1.439,5.868m15.248-1.464c3.94.486,7.682.969,11.432,1.382.409.045,1.156-.214,1.245-.492.54-1.7.935-3.439,1.4-5.253H31.936Zm-2.558,8.59v-6.12L18.057,60.189l-.256.473c1.361,1.7,2.707,3.417,4.1,5.092a1.162,1.162,0,0,0,.9.241c2.176-.276,4.346-.6,6.571-.91m2.548-.018c2.261.324,4.52.657,6.784.956a.837.837,0,0,0,.642-.265c1.4-1.7,2.765-3.429,4.142-5.149l-.31-.491L31.926,58.982Zm9.33-61.319a8.4,8.4,0,0,1-5.988-.928,5.852,5.852,0,0,0-2.569-.3,1.136,1.136,0,0,0-.791.782c-.079,1.54-.038,3.087-.038,4.116,2.029.568,3.768.955,5.432,1.551a4.656,4.656,0,0,0,3.954.022ZM41.1,69.189a34.382,34.382,0,0,0-20.72-.011c5.542,2.275,14.512,2.29,20.72.011m.717-2.207c.935.32,2.01,1.105,2.7.85a22.642,22.642,0,0,0,7.62-5.012L46,60.866l-4.188,6.116M9.5,62.756l-.12.461c1.848,1.254,3.722,2.473,5.538,3.773a3.3,3.3,0,0,0,4.462-.123l-4.115-6L9.5,62.756m9.61-36.7-.363.431c.34.236.678.678,1.019.68,7.279.04,14.559.023,21.838.038.95,0,1.054-.385.722-1.149ZM28.4,49.56h4.536V45H28.4ZM6.107,34.327l-.358.431c.336.236.669.673,1.008.678,3.734.049,7.469.019,11.2.039.945.005,1.055-.381.728-1.149ZM55.359,35.4l.262-.335c-.282-.257-.562-.734-.848-.737q-5.748-.075-11.5,0c-.29,0-.573.522-.859.8l.308.269Z" transform="translate(0 0)" fill="#698d59"/>
        <rect id="Rectángulo_402502" data-name="Rectángulo 402502" width="14.057" height="2.162" transform="translate(23.638 33.197)" fill="#698d59"/>
        <rect id="Rectángulo_402503" data-name="Rectángulo 402503" width="14.064" height="2.195" transform="translate(23.648 37.933)" fill="#698d59"/>
        <rect id="Rectángulo_402504" data-name="Rectángulo 402504" width="2.246" height="2.168" transform="translate(9.478 40.311)" fill="#698d59"/>
        <rect id="Rectángulo_402505" data-name="Rectángulo 402505" width="2.166" height="2.244" transform="translate(14.22 40.222)" fill="#698d59"/>
        <rect id="Rectángulo_402506" data-name="Rectángulo 402506" width="2.203" height="2.229" transform="translate(9.474 44.983)" fill="#698d59"/>
        <rect id="Rectángulo_402507" data-name="Rectángulo 402507" width="2.169" height="2.246" transform="translate(14.218 44.999)" fill="#698d59"/>
        <rect id="Rectángulo_402508" data-name="Rectángulo 402508" width="2.202" height="2.194" transform="translate(44.957 40.264)" fill="#698d59"/>
        <rect id="Rectángulo_402509" data-name="Rectángulo 402509" width="2.168" height="2.246" transform="translate(49.702 40.247)" fill="#698d59"/>
        <rect id="Rectángulo_402510" data-name="Rectángulo 402510" width="2.229" height="2.203" transform="translate(44.918 45.022)" fill="#698d59"/>
        <rect id="Rectángulo_402511" data-name="Rectángulo 402511" width="2.168" height="2.246" transform="translate(49.702 44.975)" fill="#698d59"/>
      </g>
    </g>
  </g>
</svg>
