<svg xmlns="http://www.w3.org/2000/svg" xmlns:xlink="http://www.w3.org/1999/xlink" width="108" height="108" viewBox="0 0 108 108">
  <defs>
    <filter id="Trazado_879815" x="0" y="0" width="108" height="108" filterUnits="userSpaceOnUse">
      <feOffset dy="3" input="SourceAlpha"/>
      <feGaussianBlur stdDeviation="3" result="blur"/>
      <feFlood flood-opacity="0.161"/>
      <feComposite operator="in" in2="blur"/>
      <feComposite in="SourceGraphic"/>
    </filter>
    <clipPath id="clip-path">
      <rect id="Rectángulo_402495" data-name="Rectángulo 402495" width="59.242" height="58.834" fill="#fff"/>
    </clipPath>
  </defs>
  <g id="Grupo_1102785" data-name="Grupo 1102785" transform="translate(-256.5 -5364.026)">
    <g transform="matrix(1, 0, 0, 1, 256.5, 5364.03)" filter="url(#Trazado_879815)">
      <path id="Trazado_879815-2" data-name="Trazado 879815" d="M45,0A45,45,0,1,1,0,45,45,45,0,0,1,45,0Z" transform="translate(9 6)" fill="#b771e5"/>
    </g>
    <g id="Grupo_1102224" data-name="Grupo 1102224" transform="translate(280.879 5385.609)">
      <g id="Grupo_1102223" data-name="Grupo 1102223" clip-path="url(#clip-path)">
        <path id="Trazado_901897" data-name="Trazado 901897" d="M21.32,93.223l5.559,1.11c.033-.645.072-1.053.073-1.461,0-5.21.024-10.42-.022-15.629a4.978,4.978,0,0,0-.544-2.189c-2.615-4.981-5.287-9.931-8.108-15.2-1.56,1.432-3.028,2.764-4.474,4.119a9.227,9.227,0,0,0-.795.993c-.4.5-.762,1.261-1.549.687-.837-.611-.25-1.266.194-1.769,1.045-1.182,2.1-2.36,3.25-3.442a15.246,15.246,0,0,1,2.429-1.763,1.645,1.645,0,0,1,2.625.648q4.2,7.783,8.337,15.6a3.978,3.978,0,0,1,.393,1.777c.029,5.711.022,11.423.014,17.134,0,1.557-.681,2.287-2.2,2.077a39.934,39.934,0,0,1-5.409-1.139,1.613,1.613,0,0,0-1.9.475c-1.871,1.948-3.774,3.867-5.739,5.719a2.952,2.952,0,0,1-1.8.744c-3.356.071-6.714.034-10.072.034-.154,0-.351.06-.456-.012-.392-.27-.754-.584-1.127-.882.384-.29.76-.816,1.153-.83a48.43,48.43,0,0,1,6.939.008,6.959,6.959,0,0,0,6.782-2.839,36.2,36.2,0,0,1,3.556-3.456c-.534-.345-.877-.572-1.226-.79A20.132,20.132,0,0,1,8.777,69.334c.112-.328.152-.749.38-.952a5.748,5.748,0,0,1,1.244-.668c.117.431.445.939.319,1.279a18.623,18.623,0,0,0-1.236,7.826,18.218,18.218,0,0,0,9.439,15.135.906.906,0,0,0,1.375-.221,4.4,4.4,0,0,1,1.167-1.107,1.171,1.171,0,0,1,1.1.052,1.165,1.165,0,0,1,.066,1.088,8.915,8.915,0,0,1-1.306,1.458" transform="translate(0 -44.784)" fill="#fff"/>
        <path id="Trazado_901898" data-name="Trazado 901898" d="M148.446,117.268l-13.008,4.022c-.883.273-1.751.618-2.651.808s-1.226.61-1.206,1.574c.068,3.162.026,6.327.025,9.491,0,.27.095.6-.027.8a8.621,8.621,0,0,1-.93,1.091c-.27-.365-.742-.714-.772-1.1-.1-1.266-.038-2.544-.039-3.817,0-2.315-.005-4.63,0-6.945,0-1.568.405-2.115,1.93-2.59q7.833-2.439,15.671-4.859c1.8-.556,2.548-.1,2.959,1.763a20.207,20.207,0,0,1-8.712,21.234c-.321.21-.646.414-1.118.717,1.542,1.536,3.135,2.939,4.5,4.536a5.109,5.109,0,0,0,4.609,1.913c2.652-.167,5.323-.072,7.984-.01a1.611,1.611,0,0,1,1.261.666c.242.686-.3,1.034-.988,1.035-3.7,0-7.409.024-11.112-.029a2.149,2.149,0,0,1-1.252-.679q-3.025-2.949-5.978-5.972a1.287,1.287,0,0,0-1.5-.359c-1.959.542-3.949,1-5.952,1.346-1.547.265-2.278-.487-2.3-2.089a4.951,4.951,0,0,1,.039-1.494c.113-.359.533-.622.817-.927.3.291.765.539.851.883a9.883,9.883,0,0,1,.039,2.114l6.086-1.325a7.359,7.359,0,0,1-1.208-1.317,3.262,3.262,0,0,1-.093-1.225c.442.015,1.017-.14,1.3.08a9.745,9.745,0,0,1,1.368,1.57,18.184,18.184,0,0,0,9.409-20.905" transform="translate(-99.743 -88.769)" fill="#fff"/>
        <path id="Trazado_901899" data-name="Trazado 901899" d="M27,35.016a2.215,2.215,0,0,1,1.632-2.2A19.985,19.985,0,0,1,46.764,33.86c1.537.855,1.731,1.75.735,3.206q-4.54,6.635-9.1,13.257c-1.126,1.634-2.379,1.556-3.327-.2-2.228-4.14-4.457-8.279-6.646-12.44a1.556,1.556,0,0,0-1.6-.966c-5.17.038-10.34.02-15.51.018a2.558,2.558,0,0,1-1.027-.061c-.3-.141-.713-.529-.681-.752a1.407,1.407,0,0,1,.716-.853,2.394,2.394,0,0,1,1.026-.047H27m2.878,1.708,6.9,12.881,9.552-13.913c-5.876-4-14.728-3.12-17.464-.674a22.885,22.885,0,0,1,2.862.037c.385.05.716.511,1.071.786-.336.295-.63.73-1.02.848a7.686,7.686,0,0,1-1.9.036" transform="translate(-7.379 -23.92)" fill="#fff"/>
        <path id="Trazado_901900" data-name="Trazado 901900" d="M151.4,56.979c1.151,2.16,2.212,3.989,3.112,5.9.634,1.342.114,2.31-1.322,2.759-5.147,1.608-10.3,3.193-15.451,4.789-.719.223-1.511.27-1.814-.484a2.235,2.235,0,0,1,.152-1.771c1.25-1.99,2.626-3.9,3.955-5.842.363-.529.872-.953,1.4-.423a1.455,1.455,0,0,1,.024,1.369c-1.062,1.694-2.231,3.322-3.562,5.265l15.278-4.729-3-5.367a7.241,7.241,0,0,1-1.371,1.224,1.419,1.419,0,0,1-1.2-.064c-.171-.111-.144-.807.029-1.1a8.326,8.326,0,0,1,1.2-1.319l-1.944-1.718c-.925,1.336-1.795,2.587-2.659,3.841-.366.531-.76,1.1-1.478.579s-.3-1.075.062-1.6c.81-1.175,1.6-2.362,2.429-3.524a1.828,1.828,0,0,1,2.956-.448c.637.5,1.235,1.044,1.9,1.608a5.977,5.977,0,0,0,.817-.785,5.8,5.8,0,0,1,5.882-2.479c1.828.208,3.7-.012,5.55.081.437.022,1.144.48,1.21.835.138.737-.549.888-1.173.889-2.276,0-4.555.055-6.829-.02a2.853,2.853,0,0,0-2.521,1.04,14.933,14.933,0,0,1-1.631,1.5" transform="translate(-104.36 -40.417)" fill="#fff"/>
        <path id="Trazado_901901" data-name="Trazado 901901" d="M33.387,216.672a2.55,2.55,0,0,1-2.542,2.481,2.533,2.533,0,0,1,.1-5.059,2.555,2.555,0,0,1,2.444,2.578m-1.47-.016c-.474-.357-.733-.7-1.008-.713-.218-.01-.66.412-.636.594a1.051,1.051,0,0,0,.605.763c.223.052.544-.318,1.039-.644" transform="translate(-21.882 -164.514)" fill="#fff"/>
        <path id="Trazado_901902" data-name="Trazado 901902" d="M229.765,30.835a2.5,2.5,0,0,1,2.439-2.557,2.551,2.551,0,0,1,2.453,2.568,2.507,2.507,0,0,1-2.407,2.477,2.443,2.443,0,0,1-2.484-2.488m2.365-1.107c-.305.561-.638.9-.586,1.152s.484.448.75.667c.189-.252.536-.51.526-.754-.011-.282-.337-.551-.69-1.065" transform="translate(-176.556 -21.729)" fill="#fff"/>
        <path id="Trazado_901903" data-name="Trazado 901903" d="M236.013,224.681a2.47,2.47,0,0,1-2.446,2.542,2.532,2.532,0,0,1-2.453-2.562,2.564,2.564,0,0,1,2.416-2.5,2.5,2.5,0,0,1,2.484,2.516m-1.437.077c-.449-.362-.7-.706-.985-.744-.2-.026-.651.393-.633.579a1.039,1.039,0,0,0,.568.786c.235.052.562-.313,1.05-.622" transform="translate(-177.593 -170.716)" fill="#fff"/>
        <path id="Trazado_901904" data-name="Trazado 901904" d="M18.339,2.465A2.565,2.565,0,0,1,15.9,5.051a2.531,2.531,0,0,1-2.471-2.427,2.46,2.46,0,1,1,4.914-.158m-1.475.093c-.465-.359-.722-.707-1-.723-.216-.013-.662.411-.639.6a1.055,1.055,0,0,0,.6.771c.222.053.546-.32,1.035-.643" transform="translate(-10.314 0)" fill="#fff"/>
        <path id="Trazado_901905" data-name="Trazado 901905" d="M5.011,196.511a2.432,2.432,0,0,1-2.486-2.483A2.47,2.47,0,0,1,4.98,191.5a2.53,2.53,0,0,1,2.451,2.443,2.5,2.5,0,0,1-2.42,2.572m.021-3.563c-.358.477-.729.754-.718,1.016s.387.536.6.8c.241-.238.637-.451.68-.721s-.28-.581-.565-1.1" transform="translate(-1.941 -147.15)" fill="#fff"/>
        <path id="Trazado_901906" data-name="Trazado 901906" d="M41.874,27.733a2.5,2.5,0,1,1,2.411-2.577,2.472,2.472,0,0,1-2.411,2.577M41.9,26.3c.284-.519.607-.842.565-1.108s-.447-.479-.694-.714c-.212.272-.581.539-.589.817s.362.537.717,1.006" transform="translate(-30.25 -17.472)" fill="#fff"/>
        <path id="Trazado_901907" data-name="Trazado 901907" d="M206.267,10.783a2.424,2.424,0,0,1-2.484-2.48,2.419,2.419,0,0,1,2.326-2.516,2.5,2.5,0,0,1,.158,5m.885-2.529c-.428-.328-.731-.726-.948-.684a.989.989,0,0,0-.642.728.981.981,0,0,0,.675.694c.223.028.5-.385.915-.738" transform="translate(-156.591 -4.445)" fill="#fff"/>
        <path id="Trazado_901908" data-name="Trazado 901908" d="M207.543,204.65a2.5,2.5,0,0,1,.184-5,2.5,2.5,0,0,1-.184,5m.1-3.563c-.333.481-.685.766-.669,1.028.017.279.384.536.6.8.245-.243.65-.465.688-.737s-.306-.579-.616-1.094" transform="translate(-157.633 -153.417)" fill="#fff"/>
        <path id="Trazado_901909" data-name="Trazado 901909" d="M218.6,210.9c-.843-.161-1.191-.622-.9-1.27q1.723-3.844,3.583-7.625c.132-.267.742-.3,1.131-.438.127.4.471.888.346,1.174-1.112,2.537-2.3,5.042-3.493,7.541-.131.274-.475.447-.666.619" transform="translate(-167.206 -154.886)" fill="#fff"/>
        <path id="Trazado_901910" data-name="Trazado 901910" d="M26.8,11.333c-.9-.123-1.228-.6-.943-1.238q1.721-3.842,3.59-7.616c.134-.27.745-.3,1.135-.446.127.391.469.876.346,1.157-1.114,2.534-2.3,5.037-3.5,7.533-.13.272-.46.449-.632.61" transform="translate(-19.795 -1.562)" fill="#fff"/>
        <path id="Trazado_901911" data-name="Trazado 901911" d="M220.49,5.672c1.049.478,1.485.887,1.187,1.553q-1.739,3.883-3.63,7.7c-.128.257-.744.272-1.133.4-.118-.394-.446-.881-.32-1.168,1.112-2.526,2.306-5.016,3.473-7.517.148-.318.283-.642.424-.964" transform="translate(-166.414 -4.358)" fill="#fff"/>
        <path id="Trazado_901912" data-name="Trazado 901912" d="M20.233,194.007c-.161.411-.257.7-.386.979q-1.561,3.352-3.133,6.7c-.268.572-.545,1.223-1.344.883S14.83,201.59,15.1,201c1.093-2.338,2.162-4.688,3.306-7a1.511,1.511,0,0,1,1.046-.657c.23-.029.522.43.777.662" transform="translate(-11.397 -148.57)" fill="#fff"/>
      </g>
    </g>
  </g>
</svg>
