<svg xmlns="http://www.w3.org/2000/svg" xmlns:xlink="http://www.w3.org/1999/xlink" width="108" height="108" viewBox="0 0 108 108">
  <defs>
    <filter id="Elipse_11515" x="0" y="0" width="108" height="108" filterUnits="userSpaceOnUse">
      <feOffset dy="3" input="SourceAlpha"/>
      <feGaussianBlur stdDeviation="3" result="blur"/>
      <feFlood flood-opacity="0.161"/>
      <feComposite operator="in" in2="blur"/>
      <feComposite in="SourceGraphic"/>
    </filter>
    <clipPath id="clip-path">
      <rect id="Rectángulo_402496" data-name="Rectángulo 402496" width="53.908" height="53.939" fill="#fff"/>
    </clipPath>
  </defs>
  <g id="Grupo_1102786" data-name="Grupo 1102786" transform="translate(-822.5 -5364.026)">
    <g transform="matrix(1, 0, 0, 1, 822.5, 5364.03)" filter="url(#Elipse_11515)">
      <circle id="Elipse_11515-2" data-name="Elipse 11515" cx="45" cy="45" r="45" transform="translate(9 6)" fill="#382a8e"/>
    </g>
    <g id="Grupo_1102226" data-name="Grupo 1102226" transform="translate(853.051 5386.057)">
      <g id="Grupo_1102225" data-name="Grupo 1102225" clip-path="url(#clip-path)">
        <path id="Trazado_901913" data-name="Trazado 901913" d="M42.4,44.8c0,2.058.006,3.782,0,5.506-.011,2.379-1.242,3.626-3.6,3.626q-17.589.007-35.179,0A3.252,3.252,0,0,1,0,50.314Q0,29.25,0,8.187c0-2.431,1.227-3.665,3.673-3.68,2.493-.016,4.985,0,7.589,0-.043-1.343.777-1.507,1.8-1.414.395.036.8-.011,1.194.009A3.44,3.44,0,0,0,17.705,1.69C19.647-.9,23.624-.4,25.337,2.4a1.232,1.232,0,0,0,1.274.7c.939-.042,1.883.023,2.822-.02.98-.045,1.8.058,1.665,1.417,2.5,0,4.886,0,7.268,0,2.965,0,4.036,1.084,4.036,4.069,0,4.633-.011,9.265.015,13.9a4.747,4.747,0,0,0,.337,1.666,12.983,12.983,0,0,1-.01,9.937A3.161,3.161,0,0,0,44.4,38.292a.367.367,0,0,0,.207.047c1.627-.438,2.432.779,3.379,1.687q2.546,2.443,5.064,4.915a1.975,1.975,0,0,1,.075,3.2c-.616.662-1.247,1.311-1.885,1.953-1.135,1.143-2.137,1.175-3.292.071-1.776-1.7-3.531-3.414-5.546-5.365M5.081,9.567V48.854H37.34V40.38c-.1-.03-.139-.058-.166-.048a2.983,2.983,0,0,0-.3.129A12.737,12.737,0,0,1,23.146,39.31a2.59,2.59,0,0,0-1.4-.378c-4.054-.029-8.109-.017-12.163-.017-.636,0-1.34,0-1.372-.847-.037-.971.734-.9,1.394-.9q4.344,0,8.688,0h2.487a34.476,34.476,0,0,1-1.659-3.189,1.271,1.271,0,0,0-1.424-.948c-2.751.045-5.5.017-8.254.017-.624,0-1.222-.1-1.239-.879-.018-.807.587-.871,1.213-.869,1.955.007,3.91,0,5.864,0h2.891V27.178H13.308c-1.339,0-2.679,0-4.018,0-.613,0-1.182-.239-1.049-.909.066-.331.625-.625,1.02-.807a2.506,2.506,0,0,1,.967-.026h8.283l2.077-4.118H9.609c-.678,0-1.418-.006-1.4-.933.018-.885.753-.813,1.374-.814,3.946,0,7.892.022,11.837-.026a3.09,3.09,0,0,0,1.657-.562,12.741,12.741,0,0,1,13.33-1.437l.945.41V9.569H31.092c.126,1.226-.617,1.364-1.578,1.36-5.466-.021-10.933-.034-16.4.011-1.081.009-1.846-.172-1.9-1.372ZM39.15,40.041c0,3.088,0,6.012,0,8.937,0,1.646-.06,1.7-1.728,1.7H4.947c-1.618,0-1.691-.077-1.691-1.746q0-19.713,0-39.425c0-1.661.1-1.76,1.8-1.761,2.052,0,4.1,0,6.2,0V6.258c-2.55,0-5.039-.009-7.527,0-1.558.008-1.983.449-1.983,2.026q0,20.962,0,41.923c0,1.478.484,1.979,1.925,1.98q17.54.006,35.081,0c1.414,0,1.895-.478,1.9-1.879.01-2.534-.066-5.071.033-7.6a2.646,2.646,0,0,0-1.536-2.668m2.824-10.883a11.056,11.056,0,1,0-22.113-.032,11.056,11.056,0,0,0,22.113.032M29.276,4.84c-1.267,0-2.455-.032-3.641.011a1.35,1.35,0,0,1-1.543-1.011,3.066,3.066,0,0,0-5.785.031,1.276,1.276,0,0,1-1.447.978c-1.246-.036-2.494-.01-3.719-.01V9.122H29.276ZM45.749,40.081,43.24,42.265,49.4,49.1l2.552-2.251-6.2-6.772m-5.1-19.525c0-4.33.012-8.525-.008-12.719,0-1.061-.525-1.549-1.649-1.567-1.917-.032-3.835-.011-5.752-.012H31.168V7.749c2.256,0,4.425.024,6.594-.011,1.015-.017,1.42.371,1.4,1.412-.046,2.893.048,5.79-.045,8.681a2.727,2.727,0,0,0,1.533,2.724m-.6,17.458,2.373,2.424.586-.66-2.182-2.487-.776.723" transform="translate(0 0.001)" fill="#fff"/>
        <path id="Trazado_901914" data-name="Trazado 901914" d="M50.764,62.992q5.81,0,11.619,0c.64,0,1.366-.015,1.37.829,0,.885-.736.923-1.425.923q-11.565,0-23.129,0c-.217,0-.5.073-.637-.036a7.956,7.956,0,0,1-.847-.938c.3-.255.569-.688.892-.73a19.289,19.289,0,0,1,2.493-.041h9.664" transform="translate(-29.521 -49.292)" fill="#fff"/>
        <path id="Trazado_901915" data-name="Trazado 901915" d="M50.911,197.984q5.7,0,11.4,0a2.4,2.4,0,0,1,.964.055c.283.135.631.456.656.723a1.144,1.144,0,0,1-.508.834,1.815,1.815,0,0,1-.943.129q-11.512.009-23.023,0c-.253,0-.574.082-.745-.04-.313-.225-.737-.572-.739-.871,0-.272.458-.614.785-.8.221-.125.566-.034.856-.035H50.911" transform="translate(-29.726 -154.949)" fill="#fff"/>
        <path id="Trazado_901916" data-name="Trazado 901916" d="M108.443,109.36a9.443,9.443,0,1,1-.045-18.886,9.443,9.443,0,0,1,.045,18.886m2.185-8.564c-.031.123-.1.328-.133.537-.242,1.351-.428,2.716-.75,4.047a1.4,1.4,0,0,1-.909.841c-.211.047-.6-.472-.823-.793a1.95,1.95,0,0,1-.147-.735q-.4-2.212-.8-4.423a4.014,4.014,0,0,0-.427,1.253c-.161.657.087,1.6-.913,1.74s-1-.861-1.407-1.4c-.266-.35-.539-.9-.873-.952a17.115,17.115,0,0,0-2.649-.045,7.69,7.69,0,0,0,8.654,6.7c3.433-.435,6.709-3.845,6.368-6.771Zm5.314-1.681c-.119-3.631-3.47-6.74-7.331-6.892a7.694,7.694,0,0,0-7.822,7.008h4.469c.216-1.317.457-2.851.725-4.381.1-.562.151-1.236.947-1.233.768,0,.865.61.967,1.209.29,1.7.6,3.4.908,5.095.357-1.121.524-2.263.816-3.372.089-.337.518-.8.805-.808s.743.4.894.726c.3.65.407,1.386.667,2.058.092.239.389.552.606.563,1.113.057,2.231.026,3.348.026" transform="translate(-77.462 -70.819)" fill="#fff"/>
        <path id="Trazado_901917" data-name="Trazado 901917" d="M95.509,15.643c-.667.517-1.011.986-1.423,1.056a.844.844,0,0,1-1.03-1.016,1.491,1.491,0,0,1,.975-.979c.352-.046.777.465,1.478.939" transform="translate(-72.821 -11.508)" fill="#fff"/>
      </g>
    </g>
  </g>
</svg>
