<svg xmlns="http://www.w3.org/2000/svg" xmlns:xlink="http://www.w3.org/1999/xlink" width="85.854" height="85.854" viewBox="0 0 85.854 85.854">
  <defs>
    <filter id="Elipse_11498" x="0" y="0" width="85.854" height="85.854" filterUnits="userSpaceOnUse">
      <feOffset dy="3" input="SourceAlpha"/>
      <feGaussianBlur stdDeviation="3" result="blur"/>
      <feFlood flood-opacity="0.161"/>
      <feComposite operator="in" in2="blur"/>
      <feComposite in="SourceGraphic"/>
    </filter>
    <clipPath id="clip-path">
      <rect id="Rectángulo_402436" data-name="Rectángulo 402436" width="42.035" height="41.986" fill="#fff"/>
    </clipPath>
  </defs>
  <g id="Grupo_1102763" data-name="Grupo 1102763" transform="translate(-821.487 -992.475)">
    <g transform="matrix(1, 0, 0, 1, 821.49, 992.47)" filter="url(#Elipse_11498)">
      <circle id="Elipse_11498-2" data-name="Elipse 11498" cx="33.927" cy="33.927" r="33.927" transform="translate(9 6)" fill="#382a8e"/>
    </g>
    <g id="Grupo_1102162" data-name="Grupo 1102162" transform="translate(843.396 1011.408)">
      <g id="Grupo_1102161" data-name="Grupo 1102161" clip-path="url(#clip-path)">
        <path id="Trazado_901692" data-name="Trazado 901692" d="M10.858,129.679H23.713c2.513,0,3.358.56,4.353,2.937.282-.2.558-.388.822-.591,2.523-1.937,5.037-3.885,7.568-5.811a3.45,3.45,0,0,1,4.27,5.42c-4.873,3.906-9.741,7.818-14.643,11.687a2.343,2.343,0,0,1-1.461.333c-4.4-.225-8.8-.494-13.2-.749-.145-.008-.29,0-.566,0,0,.489,0,.972,0,1.456A.942.942,0,0,1,9.8,145.45c-2.919,0-5.838.011-8.757-.006-.827,0-1.192-.47-.987-1.254q2.137-8.161,4.3-16.316a1.024,1.024,0,0,1,1.155-.827q2.1.023,4.2,0c.815-.008,1.176.38,1.149,1.18-.015.437,0,.874,0,1.451m.042,11.384c.281.035.536.083.793.1,4.282.251,8.564.508,12.848.728a1.663,1.663,0,0,0,1.006-.371c2.613-2.059,5.2-4.144,7.8-6.223,2.073-1.659,4.156-3.307,6.213-4.986a1.673,1.673,0,0,0,.324-2.469,1.7,1.7,0,0,0-2.429-.183c-.191.135-.372.282-.557.424-3.307,2.544-6.622,5.078-9.917,7.639a4.46,4.46,0,0,1-2.91.983c-2.919-.032-5.838-.016-8.756-.007-.67,0-1.31-.085-1.286-.921.022-.775.643-.846,1.275-.844q4.422.013,8.844,0c1.287,0,2.085-.656,2.109-1.711.025-1.085-.8-1.784-2.122-1.785q-6,0-12,0H10.9Zm-3.213.045c-.527-.417-.865-.883-1.134-.846-.343.047-.63.5-.941.78.293.3.552.766.891.834.267.054.633-.389,1.184-.768" transform="translate(0 -103.467)" fill="#fff"/>
        <path id="Trazado_901693" data-name="Trazado 901693" d="M53.768,21.491c-2.633-3.877-1.261-7.479.742-9.289,2.681-2.423,5.967-2.327,9.527.3,2.492-2.221,5.266-2.781,8.274-1.162,2.728,1.469,3.613,3.86,3.148,8.118a2.648,2.648,0,0,1,1.016.079c.333.174.737.517.783.835.036.244-.423.573-.687.84a.438.438,0,0,1-.338.039c-1.412-.3-2.284.465-3.2,1.414-2.593,2.686-5.276,5.284-7.924,7.917-.988.982-1.188.979-2.2-.025-2.278-2.26-4.541-4.535-6.849-6.764a2.211,2.211,0,0,0-1.277-.521c-.956-.078-1.923-.029-2.886-.023-.608,0-1.055-.207-1.05-.882s.472-.875,1.066-.876c.575,0,1.151,0,1.855,0m5.5,0c.292-1.416.528-2.766.87-4.089.09-.347.523-.865.77-.85a1.493,1.493,0,0,1,.983.743,15.886,15.886,0,0,1,.794,2.031c.33.866.664,1.729,1.076,2.8.12-.564.193-.875.252-1.189.259-1.363.342-1.437,1.7-1.438,2.276,0,4.553-.041,6.827.022a1.086,1.086,0,0,0,1.265-.965,5.055,5.055,0,0,0-2.212-5.618,4.9,4.9,0,0,0-6.052.661c-1.467,1.46-1.6,1.392-3.045-.011a4.93,4.93,0,0,0-7.237.39,5.1,5.1,0,0,0,.834,7.314,1.019,1.019,0,0,0,.55.191c.844.02,1.688.009,2.628.009m4.706,7.559,7.74-7.786c-1.843,0-3.7-.018-5.559.028-.187,0-.471.376-.528.62-.28,1.19-.461,2.4-.764,3.588-.074.29-.475.688-.731.692a1.638,1.638,0,0,1-.942-.564c-.169-.165-.193-.478-.286-.723q-.777-2.053-1.556-4.1c-.1,2.048-1.063,2.914-3.081,2.4l5.707,5.849" transform="translate(-41.939 -8.586)" fill="#fff"/>
        <path id="Trazado_901694" data-name="Trazado 901694" d="M218.322,14.654a1.312,1.312,0,1,1-1.345,1.233,1.333,1.333,0,0,1,1.345-1.233" transform="translate(-178.965 -12.086)" fill="#fff"/>
        <path id="Trazado_901695" data-name="Trazado 901695" d="M13.286,109.648a1.313,1.313,0,1,1-1.309,1.272,1.331,1.331,0,0,1,1.309-1.272" transform="translate(-9.878 -90.44)" fill="#fff"/>
        <path id="Trazado_901696" data-name="Trazado 901696" d="M49.145,1.044c-.348.213-.711.61-1.041.584-.294-.023-.8-.557-.764-.788A1.23,1.23,0,0,1,48.162,0c.3-.036.662.409,1,.642l-.013.4" transform="translate(-39.046 -0.001)" fill="#fff"/>
        <path id="Trazado_901697" data-name="Trazado 901697" d="M13.375,58.891c.21.351.63.742.571,1.041a1.236,1.236,0,0,1-.9.759c-.23.024-.725-.526-.727-.823,0-.33.419-.663.657-.995l.4.018" transform="translate(-10.163 -48.56)" fill="#fff"/>
        <path id="Trazado_901698" data-name="Trazado 901698" d="M204.159,91.051c-.351.21-.742.63-1.041.572a1.236,1.236,0,0,1-.759-.9c-.023-.23.526-.725.823-.728.33,0,.663.419,1,.656q-.009.2-.018.4" transform="translate(-166.909 -74.231)" fill="#fff"/>
        <path id="Trazado_901699" data-name="Trazado 901699" d="M208.324,208.907c.226.34.663.71.619,1.01a1.233,1.233,0,0,1-.856.8c-.23.035-.754-.488-.769-.782-.018-.332.386-.686.607-1.031h.4" transform="translate(-170.999 -172.311)" fill="#fff"/>
      </g>
    </g>
  </g>
</svg>
