<svg xmlns="http://www.w3.org/2000/svg" xmlns:xlink="http://www.w3.org/1999/xlink" width="90" height="90" viewBox="0 0 90 90">
  <defs>
    <clipPath id="clip-path">
      <rect id="Rectángulo_402429" data-name="Rectángulo 402429" width="61.987" height="61.889" fill="#fff"/>
    </clipPath>
  </defs>
  <g id="Grupo_1102764" data-name="Grupo 1102764" transform="translate(-1115.5 -577.966)">
    <path id="Trazado_876532" data-name="Trazado 876532" d="M45,0A45,45,0,1,1,0,45,45,45,0,0,1,45,0Z" transform="translate(1115.5 577.966)" fill="#382a8e"/>
    <g id="Grupo_1102148" data-name="Grupo 1102148" transform="translate(1129.507 592.021)">
      <g id="Grupo_1102147" data-name="Grupo 1102147" clip-path="url(#clip-path)">
        <path id="Trazado_901642" data-name="Trazado 901642" d="M5.1,73.284c.283-3.948,2.478-6.338,5.79-6.007a7.22,7.22,0,0,1,3.628,1.641,64.376,64.376,0,0,1,5.044,4.969,5.221,5.221,0,0,1,1.166,6.151,1.124,1.124,0,0,0,.339,1.54c.942.805,1.852,1.65,2.877,2.57l-1.836,1.535c-.78-.779-1.705-1.654-2.57-2.584A1.208,1.208,0,0,0,18,82.753a24.085,24.085,0,0,1-3.247.729c1.23.924,1.827,2.5,3.848,2.639,2.313.156,3.373,3.113,1.883,4.946a18.722,18.722,0,0,1-2.822,2.814A3.065,3.065,0,0,1,12.7,91.813a2.989,2.989,0,0,0-1.084-2.186,11.918,11.918,0,0,1-1.273-1.276,3.307,3.307,0,0,0-2.633-1.263c-2.839-.11-7.535-5-7.694-7.807-.172-3.038,1.475-5,5.092-6m2.964,11.7c1.613.14,2.059-1.167,2.913-1.858.929-.752.854-1.553.011-2.383-1.585-1.561-3.117-3.177-4.712-4.728A1.63,1.63,0,0,0,5.17,75.6a3.311,3.311,0,0,0-3,3.408c.1,1.949,4.131,5.908,5.9,5.975m2.988,1.1c.793.76,1.412,1.351,2.028,1.945.951.916,1.932,1.744,1.767,3.34-.093.9.911,1.259,1.656.64a13.2,13.2,0,0,0,1.9-1.9,1.734,1.734,0,0,0,.361-1.339c-.082-.282-.746-.584-1.124-.554a2.591,2.591,0,0,1-2.331-1.073q-1.183-1.41-2.374-2.814l-.313.385-1.575,1.374m-.6-15.431c.51.625.908,1.125,1.319,1.613.432.512.877,1.013,1.317,1.518l.455-.232c-.168-1.041-.014-2.318-.569-3.077-1.322-1.808-4.231-1.324-5.258.691-.9,1.762-.465,2.5,1.462,2.476.194,0,.388-.028.706-.053L8.846,72.259l1.611-1.6M15.768,73.1c-1.081,3.185,1.305,4.34,2.99,6.1,1.043-3.195-1.551-4.268-2.99-6.1M9.41,75.909c1.045,1.922,2.641,2.15,4.5,1.751-1.021-1.884-2.621-2.138-4.5-1.751M17,80.772c-.733-.941-1.929-1.136-3.442-.617A2.872,2.872,0,0,0,17,80.772" transform="translate(0 -49.908)" fill="#fff"/>
        <path id="Trazado_901643" data-name="Trazado 901643" d="M60.318,16V13.759h4.455c-2.211-2.238-3.214-4.592-2.727-7.432a7.4,7.4,0,0,1,2.464-4.4c3.189-2.816,6.934-2.5,11.3,1A8.009,8.009,0,0,1,82.985.073a7.439,7.439,0,0,1,4.671,2.49c2.773,3.1,2.561,6.968-.769,11.146h3.282V16c-1.27,0-2.512.1-3.732-.025a3.858,3.858,0,0,0-3.468,1.446c-1.925,2.076-3.978,4.034-5.989,6.029-1.01,1-1.439,1-2.458-.014-2.253-2.239-4.472-4.514-6.764-6.712a2.783,2.783,0,0,0-1.668-.691C64.213,15.949,62.328,16,60.318,16M79.5,13.752c1.383,0,2.328.035,3.269-.017a1.994,1.994,0,0,0,1.16-.371,20.928,20.928,0,0,0,2.332-2.391,5.453,5.453,0,0,0,.21-6.373,5.147,5.147,0,0,0-5.962-2.14,11.767,11.767,0,0,0-3.334,2.275C75.849,5.884,75.6,5.947,74.33,4.689a15.774,15.774,0,0,0-1.3-1.242,5.185,5.185,0,0,0-5.787-.711A5.218,5.218,0,0,0,64.134,7.67c-.057,2.835,2.005,4.313,3.8,5.936.155.14,1.074-.2,1.268-.531.8-1.365,1.4-2.842,2.186-4.218.283-.5.87-1.165,1.3-1.151.446.015.935.711,1.28,1.2a6.353,6.353,0,0,1,.862,1.718c.811,2.531,2.278,3.93,4.673,3.13M80.931,16a31.037,31.037,0,0,0-3.393.023c-1.783.2-2.954-.358-3.534-2.145a19.969,19.969,0,0,0-1.348-2.668l-2.3,4.487,5.436,5.471L80.931,16" transform="translate(-44.766 0)" fill="#fff"/>
        <path id="Trazado_901644" data-name="Trazado 901644" d="M66.472,144.448c-.067-.331-.048-.5-.122-.566-2.278-1.949-2.073-4.583-1.916-7.158a5.2,5.2,0,0,1,10.354.182c.126,2.55.242,5.113-1.956,7.027-.067.058-.029.236-.054.514h3.713c2.492,0,4.984-.021,7.476.009a3.133,3.133,0,1,1-.019,6.263c-2.31.029-4.62.007-7.049.007v9.183H74.712v-1.195q0-4.125,0-8.249c0-1.735.163-1.889,1.947-1.892q3.351-.005,6.7,0c.762,0,1.623-.011,1.6-1.013s-.9-.962-1.651-.961c-3.523,0-7.047.037-10.569-.029-.689-.013-1.915-.342-1.956-.651-.145-1.08-.3-2.643.31-3.248,1.7-1.672,1.649-3.6,1.522-5.609a3.026,3.026,0,0,0-6.042.062c-.121,2.022-.119,3.924,1.567,5.6.609.6.287,2.225.206,3.369-.014.2-.932.48-1.436.488-3.05.046-6.1.023-9.151.023-.558,0-1.117-.009-1.675,0-.8.016-1.857-.173-1.84,1.015.015,1.074,1.011.951,1.781.952q3.158,0,6.316,0c.258,0,.516.007.773,0,.893-.02,1.371.391,1.371,1.307,0,3.3,0,6.609,0,10.021H62.4v-9.176c-2.507,0-4.855.027-7.2-.008a3.133,3.133,0,1,1,.1-6.262c3.222-.023,6.445-.007,9.667-.007h1.513" transform="translate(-38.611 -98.02)" fill="#fff"/>
        <path id="Trazado_901645" data-name="Trazado 901645" d="M138.544,109.57c-.142,1.6.35,3.466-1.3,4.371a16.716,16.716,0,0,1-3.9,1.019V112.5c.493,0,1.028-.013,1.562,0,.958.028,1.433-.4,1.43-1.383q-.014-5.8,0-11.6c0-.892-.393-1.37-1.311-1.368q-1.74.005-3.479,0c-.92,0-1.316.476-1.308,1.369.011,1.2,0,2.394,0,3.688h-2.089c0-1.582-.122-3.205.038-4.8a2.885,2.885,0,0,1,2.822-2.392c1.5-.054,3.008-.058,4.509,0a3.055,3.055,0,0,1,2.958,2.988c.034.642.005,1.286.005,2.04h8.166c0-.578-.014-1.2,0-1.823a3.09,3.09,0,0,1,3.135-3.213q2.061-.053,4.123,0a3.062,3.062,0,0,1,3.134,3.209q.04,6.12,0,12.241a3.066,3.066,0,0,1-3.155,3.188c-1.288.032-2.577.021-3.866,0a3.133,3.133,0,0,1-3.372-3.371c-.009-.548,0-1.1,0-1.711ZM154.9,105.3c0-1.891-.018-3.782.007-5.672.013-1.03-.436-1.5-1.472-1.478-1.074.027-2.149.02-3.223,0-.969-.017-1.414.43-1.411,1.4q.017,5.8,0,11.6a1.172,1.172,0,0,0,1.336,1.344c1.074-.005,2.15-.029,3.223.008,1.093.037,1.567-.439,1.547-1.537-.034-1.89-.01-3.781-.01-5.672m-16.357,1.961h8.019v-3.865h-8.019Z" transform="translate(-95.074 -71.23)" fill="#fff"/>
        <path id="Trazado_901646" data-name="Trazado 901646" d="M2.356,139.769l1.913-.293c2.4,11.063,8.9,18.564,19.553,22.521l-.617,1.846C14.191,162.5,2.33,148.85,2.356,139.769" transform="translate(-1.748 -103.513)" fill="#fff"/>
        <path id="Trazado_901647" data-name="Trazado 901647" d="M171.091,174.2c.407.2.714.336,1.007.5.258.143.5.314.879.556a31.192,31.192,0,0,1-17.536,14.531l-.713-2.052A29.235,29.235,0,0,0,171.091,174.2" transform="translate(-114.833 -129.286)" fill="#fff"/>
        <path id="Trazado_901648" data-name="Trazado 901648" d="M181.773,21.649l1.188-1.806A31.246,31.246,0,0,1,195.7,37.167l-2.059.666a29.4,29.4,0,0,0-11.868-16.184" transform="translate(-134.905 -14.727)" fill="#fff"/>
        <path id="Trazado_901649" data-name="Trazado 901649" d="M10.644,33.033A31.253,31.253,0,0,1,21.782,19.945l1.255,1.767A29.627,29.627,0,0,0,12.626,33.891l-1.982-.858" transform="translate(-7.9 -14.802)" fill="#fff"/>
      </g>
    </g>
  </g>
</svg>
