<svg xmlns="http://www.w3.org/2000/svg" xmlns:xlink="http://www.w3.org/1999/xlink" width="91.132" height="89.608" viewBox="0 0 91.132 89.608">
  <defs>
    <clipPath id="clip-path">
      <rect id="Rectángulo_401490" data-name="Rectángulo 401490" width="91.132" height="89.608" fill="#b771e5"/>
    </clipPath>
  </defs>
  <g id="Grupo_1103122" data-name="Grupo 1103122" transform="translate(-698.868 -997.652)">
    <g id="Grupo_1102799" data-name="Grupo 1102799" transform="translate(698.868 997.652)">
      <g id="Grupo_1099671" data-name="Grupo 1099671" clip-path="url(#clip-path)">
        <path id="Trazado_876973" data-name="Trazado 876973" d="M28.444,51.042C31.466,40.781,37.091,35.86,45.658,35.9c8.393.035,14,5,16.924,15.086,3.1-.42,6.219-.912,9.354-1.246,2.734-.292,5.484-.487,8.232-.578,3.2-.106,5.1,1.736,5.039,4.915-.031,1.6.165,2.57,1.942,3.287A6.316,6.316,0,0,1,91.084,63.5q.088,20.832,0,41.664c-.019,4.185-3.314,7.139-7.721,7.145q-18.354.028-36.709.007-19.18,0-38.36,0c-5.354,0-8.275-2.922-8.277-8.277C.015,90.945.048,77.852,0,64.759c-.014-3.776,1.438-6.465,5.014-7.927a2.024,2.024,0,0,0,.85-1.135A3.9,3.9,0,0,0,5.9,54.424c.024-3.607,1.842-5.513,5.482-5.238,5.115.386,10.208,1.051,15.309,1.6.594.064,1.184.169,1.757.253m18.665,57.326c.491-.138.9-.224,1.292-.366a96.882,96.882,0,0,1,31.575-5.953c1.771-.034,2.328-.839,2.325-2.5q-.044-22.493-.021-44.986c0-2.051-.475-2.629-2.477-2.436-5.23.5-10.443,1.176-15.669,1.723-1.162.121-1.609.547-1.795,1.764a16.081,16.081,0,0,1-6.118,10.529,8.221,8.221,0,0,0-3.285,6.268,4.868,4.868,0,0,1-4.811,4.628c-1.4.067-2.815.026-4.222.017-3.546-.021-5.4-1.738-5.7-5.3A6.637,6.637,0,0,0,35.757,66.8a17.87,17.87,0,0,1-7.2-12.966c-5.623-.574-11.258-1.206-16.9-1.7-2.421-.211-2.809.266-2.81,2.649q-.006,22.309,0,44.618c0,2.216.365,2.579,2.518,2.635a96.775,96.775,0,0,1,30.691,5.755c.616.223,1.244.41,1.919.631V83.007a5.928,5.928,0,0,0-.663-.066c-1.07.029-2.1-.173-2.1-1.465,0-1.425,1.133-1.515,2.245-1.5,1.285.02,2.571,0,3.856.006,1.158,0,2.588-.2,2.595,1.5.007,1.563-1.369,1.42-2.46,1.495-.1.007-.191.111-.342.2Zm-.066-34.323c1.734.145,2.848-.349,2.941-1.978.205-3.616,1.933-6.252,4.675-8.551a13.2,13.2,0,0,0,4.66-13.182A13.964,13.964,0,0,0,46.85,38.9,14.12,14.12,0,0,0,32.62,47.53a13.81,13.81,0,0,0,4.246,16.352A10.879,10.879,0,0,1,41.108,71.7c.177,1.951.846,2.436,2.985,2.228,0-2.672.076-5.362-.043-8.043a4.875,4.875,0,0,0-.922-2.611c-1.866-2.423-3.907-4.709-5.811-7.1a1.923,1.923,0,0,1-.393-1.623,2.122,2.122,0,0,1,1.553-.962q7.069-.111,14.139,0a2.142,2.142,0,0,1,1.563.947,1.811,1.811,0,0,1-.388,1.6A57.439,57.439,0,0,1,48.97,60.91c-.444.379-1.46.088-2.213.1a5.313,5.313,0,0,1,.253-2.094A15.142,15.142,0,0,1,49.189,56.6H41.466c1.578,1.891,3.081,3.491,4.329,5.271a6.65,6.65,0,0,1,1.193,3.265c.164,2.923.055,5.86.055,8.913m7.749,34.8.079.52h1.369q13.392,0,26.783,0c3.483,0,5.138-1.679,5.141-5.195q.012-11.833,0-23.665c0-5.443.014-10.885-.007-16.327-.009-2.362-.971-3.719-2.92-4.192v2.029q0,18.895,0,37.79c0,3.315-1.762,4.98-5.058,5.2-4.2.284-8.426.551-12.585,1.187-4.3.658-8.537,1.751-12.8,2.653M5.895,59.683a4.809,4.809,0,0,0-2.938,4.752q.036,19.913.015,39.826,0,5.087,5.052,5.1,13.581.018,27.162,0c.362,0,.724-.065,1.085-.1a91.436,91.436,0,0,0-25.294-4.278c-3.32-.108-5.071-1.855-5.079-5.163-.015-6.913,0-13.826,0-20.739v-19.4" transform="translate(0 -22.711)" fill="#b771e5"/>
        <path id="Trazado_876974" data-name="Trazado 876974" d="M122.907,4.378a11.145,11.145,0,0,1-.065,2.907c-.163.588-.965,1-1.48,1.488-.459-.485-1.271-.941-1.313-1.459a33.725,33.725,0,0,1,.006-5.838c.049-.533.959-.986,1.475-1.476.459.485,1.183.906,1.317,1.468a12.8,12.8,0,0,1,.061,2.911" transform="translate(-75.877 0.001)" fill="#b771e5"/>
        <path id="Trazado_876975" data-name="Trazado 876975" d="M155.813,18.228a4.041,4.041,0,0,1-.489,1.116,52.123,52.123,0,0,1-4.151,4.088,2.165,2.165,0,0,1-2.016-.122c-.293-.2-.285-1.468.05-1.858a41.442,41.442,0,0,1,4.13-4.107A2.076,2.076,0,0,1,155,17.19c.349.1.558.688.815,1.038" transform="translate(-94.24 -10.815)" fill="#b771e5"/>
        <path id="Trazado_876976" data-name="Trazado 876976" d="M82.5,16.242a6.634,6.634,0,0,1,1.208.714,37.326,37.326,0,0,1,3.57,3.66c.392.5.176,1.475.237,2.234-.754-.069-1.726.135-2.222-.26a26.855,26.855,0,0,1-3.621-3.607,2.39,2.39,0,0,1-.372-1.8c.072-.37.763-.619,1.2-.938" transform="translate(-51.417 -10.276)" fill="#b771e5"/>
        <path id="Trazado_876977" data-name="Trazado 876977" d="M162.831,180.59a4.243,4.243,0,0,1,1.627-.088,8.939,8.939,0,0,1,1.8,1.176c-.5.571-.935,1.543-1.519,1.644-2.458.427-4.992.426-7.439.891-4.9.932-9.768,2.071-14.651,3.112a3.5,3.5,0,0,1-1.765.193c-.514-.2-1.218-.927-1.162-1.327a2.137,2.137,0,0,1,1.236-1.494c4.064-1.063,8.141-2.11,12.261-2.921,3.163-.623,6.4-.9,9.6-1.326l.018.141" transform="translate(-88.399 -114.164)" fill="#b771e5"/>
        <path id="Trazado_876978" data-name="Trazado 876978" d="M37.866,179.919a106.17,106.17,0,0,1,23.068,4.187c1.075.322,2.09.81,1.664,2.142-.42,1.314-1.507,1.149-2.594.811a100.328,100.328,0,0,0-21.562-4.136c-1.1-.092-2.349-.229-2.1-1.6.122-.681,1.264-1.18,1.526-1.4" transform="translate(-22.973 -113.836)" fill="#b771e5"/>
        <path id="Trazado_876979" data-name="Trazado 876979" d="M164.411,159.364c.5.429,1.642.928,1.764,1.609.245,1.366-1,1.517-2.1,1.605a98.647,98.647,0,0,0-21.2,3.933c-.408.125-.873.4-1.227.3a11.544,11.544,0,0,1-1.92-.914c.395-.64.669-1.7,1.2-1.852,3.571-1.034,7.168-2.027,10.814-2.74,4.009-.783,8.079-1.251,12.669-1.937" transform="translate(-88.404 -100.831)" fill="#b771e5"/>
        <path id="Trazado_876980" data-name="Trazado 876980" d="M39.719,140.491a95.821,95.821,0,0,1,21.022,4.017,3.951,3.951,0,0,1,1.716,1.176,1.359,1.359,0,0,1-.235,1.279,3.926,3.926,0,0,1-2.164.35c-4.239-.9-8.433-2.027-12.687-2.847-2.812-.542-5.7-.693-8.551-1.028-1.188-.139-2.766,0-2.583-1.8.168-1.648,1.586-1.345,2.751-1.215.243.027.487.043.731.065" transform="translate(-22.918 -88.78)" fill="#b771e5"/>
        <path id="Trazado_876981" data-name="Trazado 876981" d="M163.338,140.614c.305-.015.68-.15.9-.021.655.378,1.251.86,1.87,1.3-.547.538-1.031,1.439-1.653,1.548-2.278.4-4.634.37-6.9.8-5.027.962-10.019,2.106-15.024,3.178-.3.064-.625.271-.879.2-.711-.2-1.751-.32-2.009-.814-.542-1.034.255-1.676,1.268-1.935,3.484-.891,6.942-1.923,10.466-2.613,3.947-.772,7.955-1.231,11.937-1.826.009.059.017.118.026.177" transform="translate(-88.241 -88.856)" fill="#b771e5"/>
        <path id="Trazado_876982" data-name="Trazado 876982" d="M37.716,159.916a106.3,106.3,0,0,1,23.068,4.174c.974.291,1.741.779,1.414,1.945-.336,1.2-1.281,1.151-2.229.865a107.624,107.624,0,0,0-22.138-4.084c-.6-.051-1.136-.96-1.7-1.47l1.587-1.431" transform="translate(-22.859 -101.18)" fill="#b771e5"/>
        <path id="Trazado_876983" data-name="Trazado 876983" d="M39.533,112.4c2.95.408,5.9.829,8.852,1.219,1.049.139,1.939.673,1.575,1.71a2.5,2.5,0,0,1-2.035,1.183c-3.15-.223-6.284-.674-9.422-1.053-1.106-.133-2.416-.24-2.267-1.754s1.419-1.387,2.552-1.24c.241.031.485.044.728.065l.018-.131" transform="translate(-22.919 -71.104)" fill="#b771e5"/>
        <path id="Trazado_876984" data-name="Trazado 876984" d="M42.234,99.426a37.3,37.3,0,0,1-4.541-.48c-.6-.131-1.048-.931-1.565-1.428.578-.486,1.145-1.364,1.738-1.382a39.584,39.584,0,0,1,5.281.395c.966.1,1.885.4,1.792,1.625-.1,1.354-1.115,1.4-2.158,1.311-.183-.016-.364-.035-.547-.053v.012" transform="translate(-22.858 -60.821)" fill="#b771e5"/>
      </g>
    </g>
  </g>
</svg>
