<svg xmlns="http://www.w3.org/2000/svg" xmlns:xlink="http://www.w3.org/1999/xlink" width="320.783" height="312.568" viewBox="0 0 320.783 312.568">
  <defs>
    <clipPath id="clip-path">
      <rect id="Rectángulo_402545" data-name="Rectángulo 402545" width="320.783" height="312.568" transform="translate(0 0)" fill="none"/>
    </clipPath>
  </defs>
  <g id="Grupo_1102779" data-name="Grupo 1102779" transform="translate(-219.276 -2509.161)">
    <g id="Grupo_1102262" data-name="Grupo 1102262" transform="translate(219.276 2509.163)">
      <g id="Grupo_1102261" data-name="Grupo 1102261" transform="translate(0 -0.002)" clip-path="url(#clip-path)">
        <path id="Trazado_902308" data-name="Trazado 902308" d="M620.427,352.552a.187.187,0,0,1-.115-.335,5.682,5.682,0,0,1,5.8-.219.187.187,0,0,1-.164.337,5.214,5.214,0,0,0-5.4.178.187.187,0,0,1-.114.039" transform="translate(-501.313 -283.961)" fill="#a5916d"/>
        <path id="Trazado_902309" data-name="Trazado 902309" d="M476.762,956.9c-68.837-35.973-92.308-73.251-99.78-98.564H421.2a25.89,25.89,0,0,1-3.427,11.314,10.484,10.484,0,1,0,17.952-.013,25.869,25.869,0,0,1-3.42-11.3h44.461v41.19l.815-.073a27.47,27.47,0,0,0,11.263-3.572,8.986,8.986,0,1,1,.013,15.375,27.486,27.486,0,0,0-11.275-3.58l-.815-.073Z" transform="translate(-304.698 -693.757)" fill="#a386b7"/>
        <path id="Trazado_902310" data-name="Trazado 902310" d="M905.176,787.148a25.588,25.588,0,0,1,9.829,3.291,10.484,10.484,0,1,0-.013-17.952,25.568,25.568,0,0,1-9.816,3.283v-39.54h52.353l.024-.724a27.263,27.263,0,0,0-3.666-14.595,8.986,8.986,0,1,1,15.375-.013,27.277,27.277,0,0,0-3.673,14.608l.024.724h39.341c-7.472,25.313-30.943,62.592-99.779,98.564Z" transform="translate(-731.614 -571.649)" fill="#ebe6de"/>
        <path id="Trazado_902311" data-name="Trazado 902311" d="M904.2,834.315V786.148l.21.025a25.784,25.784,0,0,1,9.9,3.314,10.3,10.3,0,1,0-.01-17.629,25.747,25.747,0,0,1-9.891,3.308l-.21.025V735.254h52.359l.018-.543a27.075,27.075,0,0,0-3.641-14.495,9.174,9.174,0,1,1,15.7-.009,27.1,27.1,0,0,0-3.646,14.5l.018.543h39.411l-.071.24c-7.4,25.074-30.736,62.548-99.872,98.677Zm.374-47.743V833.7c68.586-35.909,91.893-73.1,99.341-98.068H964.643l-.03-.905a27.472,27.472,0,0,1,3.7-14.708,8.8,8.8,0,1,0-15.053.009,27.456,27.456,0,0,1,3.693,14.7l-.031.905H904.574v39.14a25.372,25.372,0,0,0,9.535-3.233,10.672,10.672,0,1,1,.01,18.274,25.407,25.407,0,0,0-9.545-3.239" transform="translate(-730.824 -570.86)" fill="#806432"/>
        <path id="Trazado_902312" data-name="Trazado 902312" d="M412.6,534.111a8.989,8.989,0,0,1-7.691-13.637,27.389,27.389,0,0,0,3.673-12.8l.026-.773H362.4a79.383,79.383,0,0,1-2.93-21.08c0-16.127,5.1-31.207,14.374-42.463,9.546-11.592,22.755-17.976,37.2-17.976a62.242,62.242,0,0,1,38.678,13.572,63.848,63.848,0,0,1,12.891,13.44v19.049a25.63,25.63,0,0,1-8.963-3.171,10.484,10.484,0,1,0,.013,17.952,25.605,25.605,0,0,1,8.95-3.164V506.9H416.589l.025.773a27.38,27.38,0,0,0,3.666,12.79,8.989,8.989,0,0,1-7.684,13.649" transform="translate(-290.545 -343.815)" fill="#695bc0"/>
        <path id="Trazado_902313" data-name="Trazado 902313" d="M491.848,331.927a4.69,4.69,0,0,0-2.261.722,40.018,40.018,0,0,1-4.137-1.868s-11.285-5.554-11.883-5.876l-8.145-10.219-6.277,2.887s9.161,10.864,9.74,11.343,16.761,6.136,18.167,6.682c0,0,1.419,1.293,2.337,2.074a9.737,9.737,0,0,0,2.439,1.269,10.273,10.273,0,0,0,2.486.87c1.233.267.206-.568.206-.568s-2.181-.918-2.074-1.084c.083-.128,1.242.447,2.6.757.35.08.7.157,1.014.226.835.18,1.2-.3.363-.628a8.178,8.178,0,0,0-1.168-.377,6.775,6.775,0,0,1-1.072-.42,8.859,8.859,0,0,1-1.1-.44c.033-.029-.058-.172.316-.1a20.664,20.664,0,0,0,2.032.567c.382.043,1.173.183,1.173.183s1.4.134,1.41-.062c.021-.428-.841-.666-1.371-.656a5.526,5.526,0,0,0-1.171-.293s-1.624-.639-1.529-.879a11.531,11.531,0,0,1,2.064.123c1.1.075,1.9.075,1.96-.138.093-.338-.784-.466-.784-.466s-.774-.113-1.027-.17c-.3-.068-1.169-.34-1.169-.34s-2.986-1.094-2.878-1.314.6-.68.811-.679.587.211.8.212.664-.04.7-.3-1.138-.811-1.138-.811a3.315,3.315,0,0,0-1.426-.224" transform="translate(-371.106 -254.347)" fill="#948ad2"/>
        <path id="Trazado_902314" data-name="Trazado 902314" d="M459.835,299.009s-2.032,1.841-2.878,2.447c-.7.5-4.127,2.148-4.127,2.148s-3.406-5.2-4.9-7.81c-1.807-3.165-3.059-7.87-2.632-8a6.27,6.27,0,0,1,4.372.12c5.271,2.412,10.16,11.093,10.16,11.093" transform="translate(-359.851 -232.341)" fill="#a5916d"/>
        <path id="Trazado_902315" data-name="Trazado 902315" d="M619.411,415.173a1.955,1.955,0,0,0,2.23-.854c.09.979-1.4,1.465-2.23.854" transform="translate(-500.643 -334.876)" fill="#7265c4"/>
        <path id="Trazado_902316" data-name="Trazado 902316" d="M345.291,761.386s-.225,3.983-.227,3.991c-.083.506-.409,1.755-.409,2.214,0,1.727,7.683-1.466,5.961-2.231-.156-.069-.972-.593-1.024-1.181-.079-.905-.279-2.737-.279-2.737Z" transform="translate(-278.57 -615.394)" fill="#948ad2"/>
        <path id="Trazado_902317" data-name="Trazado 902317" d="M349.45,781.727a27.744,27.744,0,0,1-2.728.66c-.924.132-2.142-.98-2.8-.679-.719.33-.691,3.306-.691,3.306s9.673.847,12.393-.029c1.078-.347-2.491-2.027-6.179-3.258" transform="translate(-277.423 -631.778)" fill="#5e2b80"/>
        <path id="Trazado_902318" data-name="Trazado 902318" d="M280.894,760.135s-.225,3.982-.227,3.99c-.083.506-.409,1.755-.409,2.215,0,1.727,7.683-1.466,5.961-2.231-.156-.069-1.214-.984-1.266-1.572-.079-.905-.037-2.346-.037-2.346Z" transform="translate(-226.52 -614.383)" fill="#948ad2"/>
        <path id="Trazado_902319" data-name="Trazado 902319" d="M284.814,780.475a27.664,27.664,0,0,1-2.728.66c-.924.132-2.142-.98-2.8-.679-.719.331-.748,3.306-.748,3.306s9.6.393,12.45-.029c1.12-.166-2.491-2.027-6.179-3.258" transform="translate(-225.134 -630.766)" fill="#5e2b80"/>
        <path id="Trazado_902320" data-name="Trazado 902320" d="M283.274,429.854a48.866,48.866,0,0,0-.771,11.811c.531,5.094.572,23.188.572,23.188L281.05,493.8l4.8.112s5.7-28.937,5.591-28.194,1.91-20.375,1.91-20.375l-6.792-16.13Z" transform="translate(-227.16 -346.917)" fill="#8e6ba6"/>
        <path id="Trazado_902321" data-name="Trazado 902321" d="M284.47,409.911s-5.9,6.2-3.7,12.962c.881,2.718,9.1,28.683,9.208,30.806s2.78,25.581,2.78,25.581l5.586-.168,1.209-26.081-1.6-35.141-3.391-5.927Z" transform="translate(-226.536 -331.313)" fill="#a386b7"/>
        <path id="Trazado_902322" data-name="Trazado 902322" d="M321.591,270.168a55.034,55.034,0,0,0-6.136-5.278,19.964,19.964,0,0,0-3.525-2.484c-1.5-.517-4.076-1.895-7.8,3.731-2.664,4.026-19.475,24.872-22.234,25.574l18.02,8.6c.493-4.106,9.4-11.863,10.682-13.31,2.865-3.235,12.821-14.795,10.992-16.829" transform="translate(-227.844 -211.661)" fill="#ebe6de"/>
        <path id="Trazado_902323" data-name="Trazado 902323" d="M460.855,259.2l-5.613,3.277s-.158,4.778,1.677,6.019c1.54,1.041,2.712-1.458,2.712-1.458s2.088-2.884,3.673-3.783-2.448-4.055-2.448-4.055" transform="translate(-367.949 -209.5)" fill="#948ad2"/>
        <path id="Trazado_902324" data-name="Trazado 902324" d="M478.961,261.3a11.7,11.7,0,0,0,1.457,3.625,9.091,9.091,0,0,1,1.933-1.673c.732-.414.266-1.31-.447-2.154-1.007-1.046-2-1.9-2-1.9l-1.079.63a5.008,5.008,0,0,0,.137,1.473" transform="translate(-386.997 -209.5)" fill="#5c4dba"/>
        <path id="Trazado_902325" data-name="Trazado 902325" d="M482.125,215.341c-.094-.116-4.709,5.611-4.14,8.3s3.359,5.138,5.3,4.464c2.144-.746,6.132-7.489,4.7-10.762s-5.86-2-5.86-2" transform="translate(-386.295 -173.853)" fill="#948ad2"/>
        <path id="Trazado_902326" data-name="Trazado 902326" d="M480.2,202.8a8.759,8.759,0,0,0-7.745-.156c-3.014,1.574-3.7,5.533-2.757,7.949a3.9,3.9,0,0,1-.137,3.78l1.6-.931a7.58,7.58,0,0,0,1.056-2.612c.122-1.159,1.817-.954,2.645-1.479.637-.4,1.451-1.72,2.482-2.4,0,0,2.6-.318,3.872.4,2.176,1.218,1.867-2.948-1.014-4.546" transform="translate(-379.319 -163.115)" fill="#5e2b80"/>
        <path id="Trazado_902327" data-name="Trazado 902327" d="M446.731,345.234a11.087,11.087,0,0,0-2.483-.131,45.443,45.443,0,0,1-3.76-2.99s-10.157-8.6-10.689-9.085l-5.573-12.313-7.357,1.092s6.857,14.476,7.337,15.106,15.546,9.414,16.844,10.343c0,0,1.147,1.66,1.9,2.681a11.059,11.059,0,0,0,2.18,1.926,11.666,11.666,0,0,0,2.315,1.551c1.184.61.331-.495.331-.495s-2-1.512-1.853-1.643c.111-.1,1.154.786,2.457,1.474.335.177.666.35.972.507.8.412,1.276.052.5-.509a9.3,9.3,0,0,0-1.094-.7,7.674,7.674,0,0,1-.988-.712,9.292,9.292,0,0,1-.981-.716c.04-.019-.054-.209.307-.032.435.213,1.261.863,1.923,1.128.375.15,1.142.51,1.142.51a6.786,6.786,0,0,0,1.174.079c.231-.353-.443-.628-.978-.767a6.227,6.227,0,0,0-1.116-.616s-1.5-1.082-1.349-1.289c.056-.079.938.521,2.017.925,1.236.461,1.829.211,1.939.013.168-.3-.587-.488-.587-.488a10.826,10.826,0,0,1-1.279-.379c-.285-.15-3.593-2.65-3.436-2.834s.666-.185.878-.124.587.212.8.273a.713.713,0,0,0,.673-.433c.089-.248-.7-.7-.7-.7a4.2,4.2,0,0,0-1.466-.655" transform="translate(-336.936 -259.219)" fill="#948ad2"/>
        <path id="Trazado_902328" data-name="Trazado 902328" d="M404.1,279.671s2.117-.671,3.474-1.291c.909-.415,4.875-2.383,4.875-2.383a86.851,86.851,0,0,0-2.866-9.779c-4.242-9.491-9.063-2.946-9.718-1.42-1.463,3.413,4.234,14.873,4.234,14.873" transform="translate(-323.003 -211.099)" fill="#a5916d"/>
        <path id="Trazado_902329" data-name="Trazado 902329" d="M862.276,506.9a25.761,25.761,0,0,1,3.478-13.07,10.484,10.484,0,1,0-17.953.012,25.746,25.746,0,0,1,3.471,13.057H800.378V481.352l-.84.1a27.131,27.131,0,0,0-10.372,3.478,8.987,8.987,0,1,1-.012-15.375,27.157,27.157,0,0,0,10.385,3.486l.84.1V452.391a63.815,63.815,0,0,1,12.891-13.44,62.241,62.241,0,0,1,38.677-13.571c14.44,0,27.649,6.384,37.2,17.976,9.268,11.256,14.373,26.337,14.373,42.463a79.382,79.382,0,0,1-2.929,21.08Z" transform="translate(-626.816 -343.816)" fill="#8e6ba6"/>
        <path id="Trazado_902330" data-name="Trazado 902330" d="M1359.422,1012.351h-15.251a1.368,1.368,0,1,1,0-2.735h15.251a1.368,1.368,0,1,1,0,2.735" transform="translate(-1085.329 -816.028)" fill="#a386b7"/>
        <path id="Trazado_902331" data-name="Trazado 902331" d="M1354.606,1023.609h-18.247a1.368,1.368,0,0,1,0-2.736h18.247a1.368,1.368,0,1,1,0,2.736" transform="translate(-1079.015 -825.127)" fill="#8e6ba6"/>
        <path id="Trazado_902332" data-name="Trazado 902332" d="M1125.056,1493.488s-1.4,1.389-1.436,1.9-.125,5.972.449,6.481,2.258.871,1.716,1.445c-.41.434-3.558.341-5.645.225-.609-.034-1.373-4.961-1.614-5.684-.35-1.052-1.613-3.341-1.294-4.074a9.727,9.727,0,0,1,2.354-1.856,9.646,9.646,0,0,0,2.153-2.325Z" transform="translate(-902.968 -1203.977)" fill="#948ad2"/>
        <path id="Trazado_902333" data-name="Trazado 902333" d="M1249,1527.349s-1.257,3.6-1.258,3.608c-.093.571-.462,1.979-.462,2.5,0,1.948,8.665-1.653,6.723-2.516a2.081,2.081,0,0,1-.786-1.365,4.605,4.605,0,0,1,.73-2.3Z" transform="translate(-1008.121 -1234.426)" fill="#948ad2"/>
        <path id="Trazado_902334" data-name="Trazado 902334" d="M1265.26,1171.276l3.137,8.124s2.047,19.389.855,31c-.5,4.854-11.289,30.838-11.289,30.838l-5.36-.766,7.179-30.77-2.642-11.767-3.738-23.259Z" transform="translate(-1012.424 -946.691)" fill="#8e6ba6"/>
        <path id="Trazado_902335" data-name="Trazado 902335" d="M1154.588,1173.485l-2.691,9.047-4.093,27.3-13.843,25.542s2.082,3.2,4.317,3.7l19.648-25.815,10.648-32.317-.374-7.18Z" transform="translate(-916.53 -948.476)" fill="#a386b7"/>
        <path id="Trazado_902336" data-name="Trazado 902336" d="M1336.09,1047.434a3.643,3.643,0,0,0-1.655,1.119,29.045,29.045,0,0,1-3.639-.976s-10.014-3.1-10.55-3.287l-8.415-8.125-4.427,3.944s9.344,8.541,9.895,8.883,14.469,2.6,15.69,2.845c0,0,1.372.953,2.25,1.518a7.193,7.193,0,0,0,2.177.734,7.3,7.3,0,0,0,2.139.347c1.03.017.055-.578.055-.578s-1.906-.451-1.853-.629c.041-.137,1.071.184,2.21.217.293.008.582.016.848.019.7.01.9-.512.168-.666a5.766,5.766,0,0,0-1-.133,4.784,4.784,0,0,1-.931-.192,6.273,6.273,0,0,1-.959-.206c.021-.034-.079-.152.232-.155a14.37,14.37,0,0,0,1.72.148c.311-.032.966-.052.966-.052a5.511,5.511,0,0,0,1.064-.249c.035-.411-.752-.551-1.17-.439a3.8,3.8,0,0,0-.985-.052s-1.41-.294-1.381-.539c.024-.2,3.506-.3,3.517-.711.01-.339-1.039-.368-1.039-.368s-.635.042-.848.036c-.249-.007-.992-.1-.992-.1s-2.578-.463-2.535-.693.347-.761.514-.8.506.087.673.048a.508.508,0,0,0,.332-.524c-.026-.256-.9-.448-.9-.448a2.288,2.288,0,0,0-1.174.061" transform="translate(-1056.716 -837.486)" fill="#948ad2"/>
        <path id="Trazado_902337" data-name="Trazado 902337" d="M1289.08,1010.667l-4.212,5.722s-3.723-4.463-5.4-6.7c-2.031-2.719-4.257-6.483-3.928-6.686a4.352,4.352,0,0,1,3.441-.828c4.7,1.222,10.1,8.5,10.1,8.5" transform="translate(-1030.94 -809.927)" fill="#8e6ba6"/>
        <path id="Trazado_902338" data-name="Trazado 902338" d="M1118.356,1501.541s2.959,9.06,4.226,9.506c.337.119,2.23.6,2.534,1.322a.358.358,0,0,1,.02.065.753.753,0,0,1-.756.882h-6.011s-.854-4.071-1.191-5.859c0,0-1.786-4.371-1.588-4.768s2.766-1.147,2.766-1.147" transform="translate(-901.67 -1213.629)" fill="#5e2b80"/>
        <path id="Trazado_902339" data-name="Trazado 902339" d="M1244.711,1549.478l.967-3.177a8.693,8.693,0,0,0,3.151.744,31.235,31.235,0,0,0,3.076-.744c4.159,1.387,7.566,2.061,6.946,3.177Z" transform="translate(-1006.045 -1249.807)" fill="#5e2b80"/>
        <path id="Trazado_902340" data-name="Trazado 902340" d="M1450.315,1104.717a2.086,2.086,0,0,0,1.836-1.109,1.309,1.309,0,0,1-1.836,1.109" transform="translate(-1172.226 -891.998)" fill="#7265c4"/>
        <path id="Trazado_902341" data-name="Trazado 902341" d="M1204.934,1000.159a48.953,48.953,0,0,0-6.709,1.12c-1.4.491-3.306,5.081-3.306,5.081s7.618,22.023,7.32,25.961-1.146,9.769-1.146,9.769,15,.947,20.685-1.3c0,0-1.795-8.922-1.795-11.264s-1.007-25.758-1.725-26.985-2.163-1.924-4.9-2.522-8.419.135-8.419.135" transform="translate(-965.801 -808.086)" fill="#5e2b80"/>
        <path id="Trazado_902342" data-name="Trazado 902342" d="M1248.149,965.9l-1,6.553s3.01,3.471,5.192,2.794c1.831-.568,1.35-3.14,1.35-3.14s-1-3.708-.7-5.563-4.842-.644-4.842-.644" transform="translate(-1008.015 -780.384)" fill="#948ad2"/>
        <path id="Trazado_902343" data-name="Trazado 902343" d="M1256.86,966.549c.3-1.855-4.842-.644-4.842-.644l-.083.543a3.019,3.019,0,0,0,.557.913,6.79,6.79,0,0,0,4.5,2.021,10.042,10.042,0,0,1-.128-2.834" transform="translate(-1011.884 -780.384)" fill="#7265c4"/>
        <path id="Trazado_902344" data-name="Trazado 902344" d="M1246.292,910.561c-.145-.053-1.165,7.463.77,9.531s5.7,2.745,7.056,1.116c1.5-1.8,1.42-9.88-1.588-12.007s-6.238,1.359-6.238,1.359" transform="translate(-1007.002 -734.312)" fill="#948ad2"/>
        <path id="Trazado_902345" data-name="Trazado 902345" d="M1235.7,890.936a8.366,8.366,0,0,0-4.384,2.484c-1.055.124-2.49.7-3.972,3.141a6.068,6.068,0,0,0,1.644,7.945,4.734,4.734,0,0,1,2.092,3.506l.335-.969a5.4,5.4,0,0,0,.265-2.292,4.451,4.451,0,0,0-.343-1.378c-.51-1.088,1.1-1.81,1.546-2.715.346-.7.363-2.291.909-3.443l.653-.879a4.165,4.165,0,0,1,2.977-.835c1.472.328,1.26-5.168-1.722-4.564" transform="translate(-991.32 -720.067)" fill="#5e2b80"/>
        <path id="Trazado_902346" data-name="Trazado 902346" d="M1251.187,941.874c.015.917-.4,1.668-.938,1.677s-.977-.727-.993-1.644.4-1.668.937-1.677.977.727.993,1.644" transform="translate(-1009.719 -759.946)" fill="#948ad2"/>
        <rect id="Rectángulo_402531" data-name="Rectángulo 402531" width="30.279" height="26.267" transform="translate(248.269 197.619)" fill="#4635b1"/>
        <rect id="Rectángulo_402532" data-name="Rectángulo 402532" width="26.266" height="26.267" transform="translate(267.11 197.619)" fill="#695bc0"/>
        <path id="Trazado_902347" data-name="Trazado 902347" d="M1257.5,1082.968c-1.546-.448-19.253-4.984-19.92-5.422s-11.6-10.656-11.6-10.656l6.265-3.314,9.791,9.644c.668.28,13.209,5.05,13.209,5.05a37.5,37.5,0,0,0,4.166,1.5,15.94,15.94,0,0,1,2.705-.795,3.756,3.756,0,0,1,1.528.126s1.1.336,1.1.6a.542.542,0,0,1-.5.481c-.222.013-.643-.17-.865-.157s-.687.507-.774.734c-.053.138,3.049,2.4,3.2,2.713.071.071,3.791-.182,3.638.055,0,.382-.443.271-.446.325-.057,1.018-5.326,1.775-5.687,1.674-.6-.17-5.806-2.557-5.806-2.557" transform="translate(-990.898 -859.64)" fill="#948ad2"/>
        <path id="Trazado_902348" data-name="Trazado 902348" d="M1204,1025.835l7.176-4.7s-8.312-12.6-11.148-13.906c-1.953-.9-4.385.455-5.338,3.769-1.034,3.6,9.311,14.835,9.311,14.835" transform="translate(-965.559 -813.882)" fill="#8e6ba6"/>
        <path id="Trazado_902349" data-name="Trazado 902349" d="M1431.116,1032.39l-1.217,1.167v-6.816a1.279,1.279,0,0,0-1.28-1.279h-10.642a1.279,1.279,0,0,0-1.28,1.279v7.921l-1.311-2.272-4.494,1.311s3.606,6.864,5.8,7.983c2.941,1.5,10.244,1.464,13.2,0,1.8-.891,4.869-6.386,4.869-6.386Z" transform="translate(-1140.363 -828.836)" fill="#a386b7"/>
        <path id="Trazado_902350" data-name="Trazado 902350" d="M1463.86,1096.664c-.208-2.358-1.795-4.191-3.721-4.191s-3.524,1.847-3.724,4.217a24.871,24.871,0,0,0,7.445-.026" transform="translate(-1177.156 -882.998)" fill="#8e6ba6"/>
        <path id="Trazado_902351" data-name="Trazado 902351" d="M1095.54,109.063c-1.084,1.844-3.022,1.769-5.1,2.286-1.4.347-2.253,2.643-2.12,4.379.338,4.4-3.109,3.652-5.883,5.473-6.644,4.361-2.358,15.741,4.9,16.476a7.69,7.69,0,0,0,4.4-.814,18.273,18.273,0,0,1,2.936-1.738c2.448-.866,5.173-1.167,7.128-3.048,2.8-2.692.48-4.008,1.2-5.967s3.834-.977,4.427-5.037c.641-4.392-.061-8.177-1.681-10.359-2.681-3.609-7.39-3.855-9.107-2.76a3.309,3.309,0,0,0-1.1,1.108" transform="translate(-872.218 -86.791)" fill="#695bc0"/>
        <path id="Trazado_902352" data-name="Trazado 902352" d="M1252.554,136.205c-.258-.546-2.556,1.07-3.066.762s2.059-2.9,1.8-3.349c-.482-.834-2.987,2.663-3.233,2.293s2.158-4.1,1.3-4.308-2.09,4.131-2.531,3.852,1.508-3.929.677-4.674c-.444-.4-2.539,6.661-3.3,6.955s-1.615-2.789-2.331-2.668,2.345,5.668,2.2,6.1-2.953,9.488-4.607,12.224c-1-.476-1.965-.955-2.89-1.422-.371,2.1-.412,4.312-.9,6.373,3.21,1.411,6.074,2.434,7.006,2.091,2.839-1.045,4.239-14.825,4.695-17.4s1.67-3.078,2.361-4.429,3.084-1.86,2.826-2.406" transform="translate(-998.735 -105.692)" fill="#786cc6"/>
        <path id="Trazado_902353" data-name="Trazado 902353" d="M1179.917,219.657l-4.751,4.792s6.277,3.4,11.6,5.743c.488-2.062.528-4.273.9-6.373-4.4-2.221-7.749-4.163-7.749-4.163" transform="translate(-949.834 -177.539)" fill="#8e6ba6"/>
        <path id="Trazado_902354" data-name="Trazado 902354" d="M1354.515,489.5a37.925,37.925,0,0,1,3.76,5.337c.079.152.11,1.029.189,1.189,3.243,2.134,6.679,1.542,9.5.663-1.857-.8-4.442-1.735-4.685-2.124a40.492,40.492,0,0,1-3.978-6.9c-1.453,1.446-2.824,1.28-4.785,1.835" transform="translate(-1094.795 -394.159)" fill="#948ad2"/>
        <path id="Trazado_902355" data-name="Trazado 902355" d="M1373.6,525.684c-.284,1.295-.17,3.923.087,3.981.307.069,11.2,1.677,12.589.279.838-.841-.744-1.487-3.022-2.527-2.82.879-9.55-.856-9.654-1.734" transform="translate(-1110.088 -424.887)" fill="#5e2b80"/>
        <path id="Trazado_902356" data-name="Trazado 902356" d="M1359.334,540.725a37.909,37.909,0,0,1,3.76,5.337c.079.152.11,1.029.189,1.189,3.244,2.134,6.679,1.542,9.5.663-1.857-.8-4.443-1.735-4.685-2.123a40.51,40.51,0,0,1-3.978-6.9c-1.453,1.446-2.824,1.279-4.786,1.835" transform="translate(-1098.69 -435.561)" fill="#948ad2"/>
        <path id="Trazado_902357" data-name="Trazado 902357" d="M1378.422,576.908c-.283,1.295-.17,3.924.087,3.981.307.069,11.2,1.677,12.59.279.838-.841-.744-1.487-3.022-2.527-2.821.879-9.55-.856-9.655-1.734" transform="translate(-1113.984 -466.289)" fill="#5e2b80"/>
        <path id="Trazado_902358" data-name="Trazado 902358" d="M1234.744,398.308l-5.661,1.961L1198.6,374.983a202.285,202.285,0,0,1,20.769,1.267c3.986.407,15.374,22.058,15.374,22.058" transform="translate(-968.777 -303.081)" fill="#4635b1"/>
        <path id="Trazado_902359" data-name="Trazado 902359" d="M1134.906,356.407a17.294,17.294,0,0,0-.916,3.3c-.332,3.771,1.617,8.563,3.716,9.3,2.154.752,15.382,4.443,23.351,3.32l17.27,23.022,5.758-2.528L1170.6,369.134s-2.6-4.079-4.737-5.038-19.511-5.59-19.511-5.59l-2.689-3.91Z" transform="translate(-916.524 -286.603)" fill="#695bc0"/>
        <path id="Trazado_902360" data-name="Trazado 902360" d="M1149.979,215.013a35.867,35.867,0,0,0-1.938-3.167,7.4,7.4,0,0,0-3.548-2.66s-.856.017-1.838.066a.791.791,0,0,1-.185.327c-.37.278-2.485-.081-3.853.85-4.581,3.941-3.314,23.04-2.954,29.073l11.13.409s1.064-13.257,3.9-16.592c1.974-2.323.7-5.688-.712-8.307" transform="translate(-917.554 -169.075)" fill="#a386b7"/>
        <path id="Trazado_902361" data-name="Trazado 902361" d="M1173.637,172.641a57.089,57.089,0,0,1-1.3,6.831c-.536,1.336,2.945,4.192,5.842,5.059s-.885-2.95-.765-4.378.647-8.188.647-8.188Z" transform="translate(-947.502 -138.992)" fill="#948ad2"/>
        <path id="Trazado_902362" data-name="Trazado 902362" d="M1182.645,173.9l.146-1.939-4.42.675s-.112.646-.235,1.559a3.623,3.623,0,0,0,4.509-.3" transform="translate(-952.236 -138.992)" fill="#5c4dba"/>
        <path id="Trazado_902363" data-name="Trazado 902363" d="M1170.966,122.925a5.019,5.019,0,0,0-2.818,2.041c-1.076,1.647-1.814,6.5,1.729,8.761s6.3-.938,6.345-4.062-.621-7.291-5.256-6.74" transform="translate(-943.444 -99.314)" fill="#948ad2"/>
        <path id="Trazado_902364" data-name="Trazado 902364" d="M1210.831,145.931c-.3.754-.9,1.221-1.339,1.045s-.547-.931-.245-1.685.9-1.221,1.34-1.045.547.931.244,1.684" transform="translate(-977.243 -116.558)" fill="#948ad2"/>
        <path id="Trazado_902365" data-name="Trazado 902365" d="M1162.808,151.411c.257.812.022,1.611-.525,1.786s-1.2-.343-1.456-1.155-.022-1.611.525-1.785,1.2.343,1.455,1.154" transform="translate(-938.161 -121.418)" fill="#948ad2"/>
        <path id="Trazado_902366" data-name="Trazado 902366" d="M1248.14,250.415s1.191.032,1.531,0c1.954-.188,1.143,2.7,1.143,2.7s-.954-.935-1.337-.935a5.9,5.9,0,0,0-.914.1Z" transform="translate(-1008.817 -202.392)" fill="#5e2b80"/>
        <path id="Trazado_902367" data-name="Trazado 902367" d="M1274.885,349.2s.8,1.251,1.708.688,2.464-1.652,2.755-.832.233,1.5-.082,1.669a13.865,13.865,0,0,1-3.911,1.518,3.291,3.291,0,0,1-2.312-1.112Z" transform="translate(-1028.944 -281.888)" fill="#8e6ba6"/>
        <path id="Trazado_902368" data-name="Trazado 902368" d="M1205.6,291.462a6.6,6.6,0,0,0-.776-3.019,59.377,59.377,0,0,0-8.087-9.333c-.864-.5-.243-2.442-.243-2.442l-3.46-1.868-1.8-.975s-4.086,6.237-4.4,6.826.242,2.516-.173,3.7.016,7.622-.57,8.329c-.458.458-.885.522-1.026.8a.472.472,0,0,0,.022.548c.469.6,2.864.1,2.864.1.018-.037,1-1.423.85-2.248-.154-.8.335-5.6.666-5.6.291,0,1.671,2.135,2.221,2.541v0a.3.3,0,0,0,.151.07,9.4,9.4,0,0,1,3.516,1.125,1.778,1.778,0,0,1,.213,1.063c.007.338-.011.721-.041,1.11-.055.714-.154,1.446-.224,1.927.607,0,1.216.006,1.824,0a3.146,3.146,0,0,1,2.776-1.525,3.18,3.18,0,0,1,2.684,1.37c1.02-.055,1.416.443,2.291.359.048-.305.736-2.472.722-2.862" transform="translate(-957.776 -221.32)" fill="#5e2b80"/>
        <path id="Trazado_902369" data-name="Trazado 902369" d="M1221.451,249.942A1.71,1.71,0,0,0,1220,249.5a5.162,5.162,0,0,1-1.264.02,4.183,4.183,0,0,0-3.394.808c-.82.82-.923,3.743,0,5.115s3.533,1.719,3.763,2.343,2.494.923,2.817.162a.757.757,0,0,0,.6.064,1.425,1.425,0,0,0,.855-1.98c-.3-.9-1.57-2.748-1.34-4.41a1.873,1.873,0,0,0-.588-1.675" transform="translate(-981.78 -201.639)" fill="#695bc0"/>
        <path id="Trazado_902370" data-name="Trazado 902370" d="M1246.7,279.083a.409.409,0,0,0-.014.552,5.474,5.474,0,0,0,1.07,1.011c.5.288.981-.932.981-1.478,0-.523-1.152-.993-2.037-.084" transform="translate(-1007.56 -225.155)" fill="#5e2b80"/>
        <path id="Trazado_902371" data-name="Trazado 902371" d="M1229.783,325.032a.474.474,0,0,0-.5-.455h-.009a2.3,2.3,0,0,0-2.1,2.646.576.576,0,0,1,0,.195,14.013,14.013,0,0,1-.876,1.837l2.422.605c.592-1.025,1.179-1.981,1.179-1.981Z" transform="translate(-991.161 -262.34)" fill="#8e6ba6"/>
        <path id="Trazado_902372" data-name="Trazado 902372" d="M1215.546,349.5s-.916,2.745-1.178,3.793c.739.425,1.187-.409,2.863.052.044-.33.635-2.365.635-2.865a16.274,16.274,0,0,1,1.336-2.4.133.133,0,0,0-.079-.2c-.733-.2-1.663-.58-2.4-.783a.2.2,0,0,0-.234.1,21.513,21.513,0,0,0-.948,2.3" transform="translate(-981.52 -280.542)" fill="#8e6ba6"/>
        <path id="Trazado_902373" data-name="Trazado 902373" d="M1210.6,374.421a1.647,1.647,0,0,1,1.5-.853c.786,0,2.041,1.173,2.041,1.173a2.062,2.062,0,0,1-1.4.363c-1.025,0-2.5.079-2.145-.684" transform="translate(-978.432 -301.938)" fill="#8e6ba6"/>
        <path id="Trazado_902374" data-name="Trazado 902374" d="M1234.709,373.559a1.645,1.645,0,0,1,1.5-.853,2.11,2.11,0,0,1,.991.371.629.629,0,0,1-.318,1.166h-.03c-1.025,0-2.5.079-2.144-.684" transform="translate(-997.917 -301.242)" fill="#8e6ba6"/>
        <path id="Trazado_902375" data-name="Trazado 902375" d="M1273.119,373.559a2.066,2.066,0,0,1,1.806-.853,2.875,2.875,0,0,1,1.193.371c.644.329.374,1.161-.382,1.166h-.036c-1.233,0-3.006.079-2.581-.684" transform="translate(-1028.954 -301.242)" fill="#8e6ba6"/>
        <path id="Trazado_902376" data-name="Trazado 902376" d="M1218.04,250.552a.761.761,0,0,1,.063-1.065,3.678,3.678,0,0,0-2.759.845c-.82.82-.923,3.743,0,5.116.829,1.233,3.018,1.638,3.623,2.159.626-1.066-.332-1.964-.558-2.466s1.125-1.766,1.281-2.771-1.085-1.253-1.65-1.818" transform="translate(-981.78 -201.648)" fill="#5e2b80"/>
        <path id="Trazado_902377" data-name="Trazado 902377" d="M1206.464,250.32a3.017,3.017,0,0,1-1.847-.081c-1.028-.364-2.05,1.472-2.05,1.472a8.648,8.648,0,0,0,1.715,2.563c.762.5,2.183-3.954,2.183-3.954" transform="translate(-971.982 -202.218)" fill="#695bc0"/>
        <path id="Trazado_902378" data-name="Trazado 902378" d="M1179.009,279.138c0-.457-1.4-1.775-2.073-1.562a33.266,33.266,0,0,0-3.3,1.869l-11.715-2.755s-2.957-6.742-3.245-12.534a16.064,16.064,0,0,0-6.233,2.121c1.025,5.539,3.515,14.518,6.267,16.2,1.158.709,14.984-.848,14.984-.848a17.783,17.783,0,0,0,3.589.2c2.932-.81,1.729-1.777,1.729-2.7" transform="translate(-931.467 -213.505)" fill="#948ad2"/>
        <path id="Trazado_902379" data-name="Trazado 902379" d="M1153.633,214.207c-.362-1.748-.786-3.5-2.676-4.057a3.817,3.817,0,0,0-3.422.752,4.667,4.667,0,0,0-1.419,3.762,53.96,53.96,0,0,0,.8,9.506c2.125-1.183,5.217-1.048,7.661-1.379a33.088,33.088,0,0,0-.943-8.584" transform="translate(-926.356 -169.744)" fill="#8e6ba6"/>
        <path id="Trazado_902380" data-name="Trazado 902380" d="M588.105,77.173c-1.24,6.583-5.2,20.426-11.65,20.209-.314-9.031-.757-16.79-1.376-19.241a12.581,12.581,0,0,0-.512-1.475c4.019.349,6.434-5.778,7.359-10.094-.824,2.739-2.691,7.127-5.138,8.593a3.045,3.045,0,0,1-2.8.3c-2.333-4.345-6.74-7.252-8.868-9.838-1.683-2.07-.6-10.346-.187-12.972a44.292,44.292,0,0,0-.958,10.62c.329,3.509,2.139,3.731,6.287,8.444,3.322,3.717,4.481,5.722,4.6,19.966a5.794,5.794,0,0,1-.918.118c-3.4.062-6.528-3.241-8.259-6.13,1.368,2.628,3.794,5.6,6.64,6.505a6.365,6.365,0,0,0,1.618.281,6.8,6.8,0,0,0,.924-.053c.074,1.249.456,25.722.118,41.533,1,.012.821-.457,1.8-.379-.038-4.283.18-20.3-.275-34.351,7.526-.3,10.686-14.229,11.589-22.034" transform="translate(-455.789 -42.556)" fill="#5e2b80"/>
        <path id="Trazado_902381" data-name="Trazado 902381" d="M538.805,52.984a5.665,5.665,0,0,0,3.821.927l-5.557-4.456a5.664,5.664,0,0,0,1.736,3.528" transform="translate(-434.089 -39.973)" fill="#4635b1"/>
        <path id="Trazado_902382" data-name="Trazado 902382" d="M537.069,49.317l5.557,4.456a5.663,5.663,0,0,0-1.736-3.528,5.665,5.665,0,0,0-3.821-.927" transform="translate(-434.089 -39.834)" fill="#695bc0"/>
        <path id="Trazado_902383" data-name="Trazado 902383" d="M665.481,272.9a5.664,5.664,0,0,0,3.5-1.8l-7.118.269a5.664,5.664,0,0,0,3.622,1.531" transform="translate(-534.952 -219.115)" fill="#4635b1"/>
        <path id="Trazado_902384" data-name="Trazado 902384" d="M661.859,264.9l7.118-.269a4.639,4.639,0,0,0-7.118.269" transform="translate(-534.952 -212.651)" fill="#695bc0"/>
        <path id="Trazado_902385" data-name="Trazado 902385" d="M678.143,231.724a4.606,4.606,0,0,0,1.7-2.709l-4.865,3.141a4.606,4.606,0,0,0,3.168-.432" transform="translate(-545.553 -185.102)" fill="#4635b1"/>
        <path id="Trazado_902386" data-name="Trazado 902386" d="M674.976,231.7l4.865-3.142a3.772,3.772,0,0,0-4.865,3.142" transform="translate(-545.553 -184.641)" fill="#695bc0"/>
        <path id="Trazado_902387" data-name="Trazado 902387" d="M654.42,228.315a4.605,4.605,0,0,0,2.274,2.247l-2.006-5.433a4.605,4.605,0,0,0-.268,3.186" transform="translate(-528.784 -181.962)" fill="#4635b1"/>
        <path id="Trazado_902388" data-name="Trazado 902388" d="M656.627,225.128l2.006,5.433a3.771,3.771,0,0,0-2.006-5.433" transform="translate(-530.723 -181.961)" fill="#695bc0"/>
        <path id="Trazado_902389" data-name="Trazado 902389" d="M566.789,87.016a4.216,4.216,0,0,0-1.467,2.534l4.352-3.031a4.217,4.217,0,0,0-2.885.5" transform="translate(-456.925 -69.874)" fill="#4635b1"/>
        <path id="Trazado_902390" data-name="Trazado 902390" d="M569.674,86.807l-4.352,3.031a3.454,3.454,0,0,0,4.352-3.031" transform="translate(-456.925 -70.162)" fill="#695bc0"/>
        <path id="Trazado_902391" data-name="Trazado 902391" d="M648.1,152.685a4.217,4.217,0,0,0-2.74,1.031l5.287.412a4.217,4.217,0,0,0-2.547-1.443" transform="translate(-521.619 -123.401)" fill="#4635b1"/>
        <path id="Trazado_902392" data-name="Trazado 902392" d="M650.65,158.508l-5.287-.412a3.454,3.454,0,0,0,5.287.412" transform="translate(-521.619 -127.782)" fill="#695bc0"/>
        <path id="Trazado_902393" data-name="Trazado 902393" d="M566.655,239.483a4.217,4.217,0,0,0-2.74,1.031l5.287.412a4.216,4.216,0,0,0-2.547-1.443" transform="translate(-455.788 -193.556)" fill="#4635b1"/>
        <path id="Trazado_902394" data-name="Trazado 902394" d="M569.2,245.3l-5.287-.412a3.453,3.453,0,0,0,5.287.412" transform="translate(-455.789 -197.936)" fill="#695bc0"/>
        <path id="Trazado_902395" data-name="Trazado 902395" d="M583.573,223.3a4.216,4.216,0,0,0-2.12-2.018l1.929,4.94a4.217,4.217,0,0,0,.191-2.921" transform="translate(-469.963 -178.849)" fill="#4635b1"/>
        <path id="Trazado_902396" data-name="Trazado 902396" d="M581.752,226.217l-1.929-4.94a3.454,3.454,0,0,0,1.929,4.94" transform="translate(-468.333 -178.848)" fill="#695bc0"/>
        <path id="Trazado_902397" data-name="Trazado 902397" d="M641.328,137.434a2.7,2.7,0,0,0-1.335-1.31l1.184,3.174a2.693,2.693,0,0,0,.151-1.864" transform="translate(-517.278 -110.023)" fill="#4635b1"/>
        <path id="Trazado_902398" data-name="Trazado 902398" d="M640.059,139.3l-1.184-3.174a2.206,2.206,0,0,0,1.184,3.174" transform="translate(-516.161 -110.023)" fill="#695bc0"/>
        <path id="Trazado_902399" data-name="Trazado 902399" d="M543.124,105.269a4.217,4.217,0,0,0-2.919.216l4.956,1.887a4.216,4.216,0,0,0-2.037-2.1" transform="translate(-436.624 -84.933)" fill="#4635b1"/>
        <path id="Trazado_902400" data-name="Trazado 902400" d="M545.162,109.068l-4.956-1.887a3.453,3.453,0,0,0,4.956,1.887" transform="translate(-436.625 -86.629)" fill="#695bc0"/>
        <path id="Trazado_902401" data-name="Trazado 902401" d="M646.386,345.4h.773V315.074a.387.387,0,1,0-.773,0Z" transform="translate(-522.445 -254.347)" fill="#a386b7"/>
        <path id="Trazado_902402" data-name="Trazado 902402" d="M599.444,465.94s3.557-4.276,6.419-3.058,3.331-.981,4.829-.256a16.791,16.791,0,0,1,3.371,2.553Z" transform="translate(-484.504 -373.798)" fill="#4635b1"/>
        <path id="Trazado_902403" data-name="Trazado 902403" d="M623.12,356.012a5.909,5.909,0,0,1-2.781-.726.187.187,0,0,1,.175-.331,4.97,4.97,0,0,0,5.395-.179.187.187,0,0,1,.235.292,5.213,5.213,0,0,1-3.023.944" transform="translate(-501.312 -286.716)" fill="#ebe6de"/>
        <path id="Trazado_902404" data-name="Trazado 902404" d="M609.793,342.582l-.334-.2c-.251-.148-2.454-1.476-2.528-2.5a.708.708,0,0,1,.284-.621,1.028,1.028,0,0,1,1.058-.242c1.056.419,1.428,2.893,1.467,3.174Zm-1.839-3.245a.828.828,0,0,0-.5.22.336.336,0,0,0-.145.3c.043.6,1.245,1.5,2,1.985-.165-.848-.554-2.231-1.166-2.473a.486.486,0,0,0-.18-.035" transform="translate(-490.554 -273.967)" fill="#ebe6de"/>
        <path id="Trazado_902405" data-name="Trazado 902405" d="M607.206,358.936a.52.52,0,0,1-.458-.284.689.689,0,0,1-.059-.611c.3-.815,2.06-1.427,2.26-1.494l.458-.154-.235.423c-.2.352-1.21,2.109-1.958,2.121Zm1.366-1.844c-.593.252-1.38.666-1.531,1.078a.313.313,0,0,0,.028.289c.062.1.114.1.139.1.322-.005.916-.759,1.364-1.469" transform="translate(-490.324 -288.056)" fill="#ebe6de"/>
        <path id="Trazado_902406" data-name="Trazado 902406" d="M620.027,355.04a.321.321,0,1,1-.321-.321.321.321,0,0,1,.321.321" transform="translate(-500.622 -286.703)" fill="#ebe6de"/>
        <path id="Trazado_902407" data-name="Trazado 902407" d="M36.5,1028.831l1.131.963L39,1029.16l1.192,1.17,1.256-1.128,1.405,1.263,1.284-.9,1.55.993-.375.589-1.159-.743-1.355.945-1.351-1.214-1.277,1.147L38.858,1030l-1.342.62-1.048-.893-.8.592-.414-.561Z" transform="translate(-28.497 -831.559)" fill="#ebe6de"/>
        <path id="Trazado_902408" data-name="Trazado 902408" d="M744.883,94.281,740.3,93.222l-1.212,3.263-4.557-.887-1.653,2.977-3.506-.227-.016,1.408,4.69.3,1.566-2.821,4.74.923,1.192-3.21,4.152.959Z" transform="translate(-589.508 -75.347)" fill="#ebe6de"/>
        <path id="Trazado_902409" data-name="Trazado 902409" d="M1516.186,509.955l1.653-2.794-1.363-2.946a.446.446,0,0,1,.5-.623l3.168.71,2.38-2.207a.446.446,0,0,1,.748.286l.3,3.232,2.835,1.582a.446.446,0,0,1-.041.8l-2.979,1.288-.629,3.185a.446.446,0,0,1-.772.209l-2.146-2.436-3.223.386a.446.446,0,0,1-.437-.67" transform="translate(-1225.415 -405.724)" fill="#695bc0"/>
        <path id="Trazado_902410" data-name="Trazado 902410" d="M47.664,880.713a3.462,3.462,0,0,1,2.228-1.962,2.681,2.681,0,0,1,3.377,1.855c.493,1.64-.361,4.012-3.586,6.821-4.239-.563-6.26-2.071-6.753-3.71a2.682,2.682,0,0,1,1.793-3.41,3.465,3.465,0,0,1,2.941.407" transform="translate(-34.598 -710.157)" fill="#695bc0"/>
        <path id="Trazado_902411" data-name="Trazado 902411" d="M.61,904.311a35.772,35.772,0,0,0,4.012-.749c.4-.1,1.12-.151,1.312-.561a.432.432,0,0,0-.136-.577c-.375-.259-.944.019-1.346.118-1.226.3-2.627.584-4.06.787a.507.507,0,0,0-.381.6.513.513,0,0,0,.6.382" transform="translate(0 -729.303)" fill="#695bc0"/>
        <path id="Trazado_902412" data-name="Trazado 902412" d="M111.431,895.478c.589-.134,1.175-.279,1.762-.423a5.533,5.533,0,0,0,1.733-.523.435.435,0,0,0-.183-.814,5.483,5.483,0,0,0-1.773.336c-.586.145-1.173.289-1.757.443a.5.5,0,0,0,.218.98" transform="translate(-89.585 -722.346)" fill="#695bc0"/>
        <path id="Trazado_902413" data-name="Trazado 902413" d="M37.036,931.786a6.285,6.285,0,0,1,1.81-2.654.406.406,0,0,0-.461-.655,4.673,4.673,0,0,0-2.306,3.019.5.5,0,0,0,.958.29" transform="translate(-29.141 -750.415)" fill="#695bc0"/>
        <path id="Trazado_902414" data-name="Trazado 902414" d="M75.316,939.313a4.438,4.438,0,0,1-.136-1.835c.053-.379.518-1.514-.215-1.528-.69-.013-.781,1.138-.827,1.627a5.25,5.25,0,0,0,.193,1.955c.182.62,1.162.407.985-.219" transform="translate(-59.905 -756.487)" fill="#695bc0"/>
        <path id="Trazado_902415" data-name="Trazado 902415" d="M100.129,923.7l1.151.473c.383.158.778.426,1.187.234a.444.444,0,0,0,.185-.584c-.146-.384-.723-.493-1.073-.635l-1.153-.467a.515.515,0,0,0-.637.341.522.522,0,0,0,.341.637" transform="translate(-80.636 -745.771)" fill="#695bc0"/>
        <path id="Trazado_902416" data-name="Trazado 902416" d="M30.182,863.328c-1.972-2.7-1.951-2.718-2.262-2.9a.445.445,0,0,0-.661.469c.088.37.08.307,2.165,3.138a.52.52,0,0,0,.73.027.529.529,0,0,0,.027-.73" transform="translate(-22.023 -695.393)" fill="#695bc0"/>
        <path id="Trazado_902417" data-name="Trazado 902417" d="M65.847,855.45a7.676,7.676,0,0,0,.048-1.641c-.04-.51-.032-1.3-.571-1.529a.381.381,0,0,0-.382.088c-.348.384-.1,1.031-.065,1.5a9.073,9.073,0,0,1-.029,1.543.505.505,0,0,0,.481.518.512.512,0,0,0,.518-.481" transform="translate(-52.342 -688.844)" fill="#695bc0"/>
        <path id="Trazado_902418" data-name="Trazado 902418" d="M99.542,860.007c.032-.25-.2-.421-.419-.452-.443-.062-.879.459-1.171.742a8.827,8.827,0,0,0-.925,1.068.509.509,0,0,0,.164.695.517.517,0,0,0,.694-.164c1.115-1.394,1.577-1.272,1.656-1.889" transform="translate(-78.36 -694.736)" fill="#695bc0"/>
        <path id="Trazado_902419" data-name="Trazado 902419" d="M1594.274,661.39c-.489,3.854,3.524,6.912,7.094,6.671a8.783,8.783,0,0,0,7.87-7.379c.624-4.2-1.9-7.553-5.8-7.861a4.867,4.867,0,0,0-5.13,6.492c.786,2.445,3.019,3.357,4.143,2.682a1.118,1.118,0,0,0-.237-2.086,1.1,1.1,0,0,0-1.09.47c-.929-.369-1.813-2.06-1.213-3.886.766-2.332,3.715-2.466,5.546-1.378,2.331,1.384,2.7,4.366,1.843,6.741a7.174,7.174,0,0,1-6.015,4.649,5.589,5.589,0,0,1-5.921-5.111.546.546,0,0,0-1.09,0" transform="translate(-1288.549 -527.631)" fill="#ebe6de"/>
        <path id="Trazado_902420" data-name="Trazado 902420" d="M123.556,1083.132c-.25,1.974,1.805,3.541,3.633,3.416a4.5,4.5,0,0,0,4.03-3.779,3.307,3.307,0,0,0-2.97-4.026,2.493,2.493,0,0,0-2.627,3.325c.4,1.252,1.546,1.719,2.122,1.374a.572.572,0,0,0-.122-1.069.562.562,0,0,0-.558.241,1.641,1.641,0,0,1-.621-1.99c.392-1.194,1.9-1.263,2.84-.706a2.821,2.821,0,0,1,.944,3.453,3.674,3.674,0,0,1-3.08,2.381,2.862,2.862,0,0,1-3.033-2.618.279.279,0,0,0-.558,0" transform="translate(-99.848 -871.893)" fill="#695bc0"/>
        <path id="Trazado_902421" data-name="Trazado 902421" d="M148.267,704.382l-.03-3.7-3.061-2.071a.508.508,0,0,1,.124-.9l3.506-1.17,1.023-3.551a.508.508,0,0,1,.9-.161l2.2,2.972,3.693-.124a.508.508,0,0,1,.43.8L154.9,699.49l1.259,3.475a.508.508,0,0,1-.63.657L152,702.508l-2.915,2.271a.508.508,0,0,1-.82-.4" transform="translate(-117.16 -559.818)" fill="#a386b7"/>
        <path id="Trazado_902422" data-name="Trazado 902422" d="M1501.465,832.145a3.088,3.088,0,1,1,3.294,2.866,3.088,3.088,0,0,1-3.294-2.866" transform="translate(-1213.562 -669.917)" fill="#695bc0"/>
        <path id="Trazado_902423" data-name="Trazado 902423" d="M1520.515,878.17a20.685,20.685,0,0,0-.6-2.718.705.705,0,0,0-1.363.282,22.141,22.141,0,0,0,.582,2.923.737.737,0,0,0,.935.448.753.753,0,0,0,.448-.934" transform="translate(-1227.375 -707.223)" fill="#695bc0"/>
        <path id="Trazado_902424" data-name="Trazado 902424" d="M1539.535,862.176a30.621,30.621,0,0,1-2.86-2.065.706.706,0,0,0-.927,1.064,13.445,13.445,0,0,0,3.12,2.346.758.758,0,0,0,1.006-.34.766.766,0,0,0-.34-1.006" transform="translate(-1241.104 -695.055)" fill="#695bc0"/>
        <path id="Trazado_902425" data-name="Trazado 902425" d="M1545.382,840.514a.531.531,0,0,0-.135.713c.346.627,1.224.6,1.848.575a6.671,6.671,0,0,0,1.917-.365.748.748,0,0,0-.5-1.411c-1.786.61-2.462-.052-3.134.488" transform="translate(-1248.889 -678.92)" fill="#695bc0"/>
        <path id="Trazado_902426" data-name="Trazado 902426" d="M1534.713,810.385c-.9,1.315-1.633,1.759-1.518,2.482a.622.622,0,0,0,.81.533c.482-.11.745-.621,1.035-.981.277-.344.55-.69.8-1.056a.769.769,0,0,0-.073-1.051.75.75,0,0,0-1.051.073" transform="translate(-1239.204 -654.794)" fill="#695bc0"/>
        <path id="Trazado_902427" data-name="Trazado 902427" d="M1515.367,803.462a3.277,3.277,0,0,0-.723-1.457.647.647,0,0,0-1.053.358,3.137,3.137,0,0,0,.365,1.6.748.748,0,1,0,1.411-.5" transform="translate(-1223.359 -648.099)" fill="#695bc0"/>
        <path id="Trazado_902428" data-name="Trazado 902428" d="M1492.038,815.2c-1.3-.984-1.559-1.261-2.068-1.208a.616.616,0,0,0-.568.653c.121.622.483.791,1.674,1.66a.752.752,0,0,0,1.034-.072.739.739,0,0,0-.072-1.033" transform="translate(-1203.811 -657.907)" fill="#695bc0"/>
        <path id="Trazado_902429" data-name="Trazado 902429" d="M1474.813,840.64a.685.685,0,0,0,.247,1.226c.53.069.735-.016,3.307-.486a.77.77,0,0,0,.694-.8.752.752,0,0,0-.8-.694c-2.671.482-2.938.48-3.45.751" transform="translate(-1191.79 -678.838)" fill="#695bc0"/>
        <path id="Trazado_902430" data-name="Trazado 902430" d="M1487.575,864.712c-1.41,1.364-1.616,1.123-2.172,1.958a.633.633,0,0,0,.609.908,2.671,2.671,0,0,0,1.463-.788c.431-.341.843-.707,1.238-1.088a.76.76,0,0,0-.074-1.063.77.77,0,0,0-1.064.074" transform="translate(-1200.524 -698.703)" fill="#695bc0"/>
        <path id="Trazado_902431" data-name="Trazado 902431" d="M262.8,868.654h3.02V708.295a1.51,1.51,0,1,0-3.02,0Z" transform="translate(-212.406 -571.263)" fill="#5e2b80"/>
        <path id="Trazado_902432" data-name="Trazado 902432" d="M369.181,857.209h3.02V694.135a1.51,1.51,0,1,0-3.02,0Z" transform="translate(-298.393 -559.818)" fill="#5e2b80"/>
        <rect id="Rectángulo_402533" data-name="Rectángulo 402533" width="20.785" height="1.81" transform="translate(52.536 152.905)" fill="#5e2b80"/>
        <rect id="Rectángulo_402534" data-name="Rectángulo 402534" width="20.785" height="1.81" transform="translate(52.536 177.154)" fill="#5e2b80"/>
        <rect id="Rectángulo_402535" data-name="Rectángulo 402535" width="20.785" height="1.81" transform="translate(52.536 201.403)" fill="#5e2b80"/>
        <rect id="Rectángulo_402536" data-name="Rectángulo 402536" width="20.785" height="1.81" transform="translate(52.536 225.652)" fill="#5e2b80"/>
        <path id="Trazado_902433" data-name="Trazado 902433" d="M240.7,1257.106H227.584a1.96,1.96,0,0,0-1.96,1.96v7.36h2.193v-6.978H240.7Z" transform="translate(-182.362 -1016.063)" fill="#8e6ba6"/>
        <path id="Trazado_902434" data-name="Trazado 902434" d="M213.476,1148.686l-4.064-4.288s-4.35,2.392-9.422,4.678c-1.394-2.427-3.669-10.409-3.792-10.789s2.665-5.177,2.041-5.3-1.433,2.561-2.093,2.289-2.354-6.49-2.751-6.151c-.742.635.891,3.868.5,4.1s-1.384-3.583-2.139-3.421,1.276,3.477,1.053,3.8-2.346-2.79-2.785-2.07c-.238.391,1.959,2.707,1.507,2.967s-2.432-1.2-2.668-.728,1.847.965,2.426,2.161,1.631,1.662,1.98,3.923,1.3,14.347,3.767,15.318c2.152.848,16.439-6.491,16.439-6.491" transform="translate(-152.636 -912.613)" fill="#948ad2"/>
        <path id="Trazado_902435" data-name="Trazado 902435" d="M484.825,1474.236a76.43,76.43,0,0,0,.133-10.93c1.989-.1,3.672-.227,5.659-.358-.828,5.672-1.384,11.512-1.384,11.512l.136,1.121.073,3.323-11.256.083a50.5,50.5,0,0,0,5.691-3.13,2.26,2.26,0,0,0,.948-1.621" transform="translate(-386.497 -1182.436)" fill="#948ad2"/>
        <path id="Trazado_902436" data-name="Trazado 902436" d="M486.546,1532.65l-11.869.14c-.43-.038-.534-.386-.385-.6.307-.441,1.662-.765,3.186-1.468,2.673.278,8.264-1.547,8.685-2.161.244,1.229.622,4.036.383,4.088" transform="translate(-383.297 -1235.469)" fill="#5e2b80"/>
        <path id="Trazado_902437" data-name="Trazado 902437" d="M594.176,1455.586a76.45,76.45,0,0,0-5.649-9.359c1.637-1.134,3.26-2.289,4.88-3.448,2.286,5.256,4.632,10.673,4.632,10.673l.707.881,1.813,2.784-9.521,6a50.524,50.524,0,0,0,3.186-5.659,2.261,2.261,0,0,0-.048-1.877" transform="translate(-475.68 -1166.135)" fill="#948ad2"/>
        <path id="Trazado_902438" data-name="Trazado 902438" d="M609.523,1506.229l-9.874,6.125c-.386.194-.658-.046-.644-.307.028-.536,1.01-1.526,1.934-2.926,2.418-1.172,6.184-5.7,6.219-6.443.854.916,2.54,3.381,2.365,3.551" transform="translate(-484.149 -1214.548)" fill="#5e2b80"/>
        <path id="Trazado_902439" data-name="Trazado 902439" d="M481.469,940.447c.88-4.292-1.88-8.546-5.751-10.144.026-2.443-.765-5.536-2.433-7.208-3.29-3.3-9.568-4.454-11.987-.25-3.2,1.808-5.709,5.723-4.757,9.29-3.1,3.207-1.92,9.011,2.6,11.751a9.508,9.508,0,0,0,4.978,8.713,21.034,21.034,0,0,1,2.087,1.043c-.2-.186,2.331,6.852,10.184,3.631,8.013-3.287,10.307-12.541,5.084-16.828" transform="translate(-367.603 -743.702)" fill="#5e2b80"/>
        <path id="Trazado_902440" data-name="Trazado 902440" d="M478.048,1251.184c.975-5.406-2.411-18.811-4.476-24.705-2.148-6.13-3.514-32.071-3.514-32.071l2.435-2.847,9.939-.6s-4.229,12.993-4.229,17.457,2.057,15.989,4.474,21.985c2.229,5.532,1.3,17.131.628,20.945a14.411,14.411,0,0,1-5.257-.168" transform="translate(-379.927 -962.604)" fill="#8e6ba6"/>
        <path id="Trazado_902441" data-name="Trazado 902441" d="M484.944,1197.255c.455.455,3.126,3.618,3.126,5.829s-5.034,22.111-3.826,23.317,5.678,4.226,8.53,8.432a176.433,176.433,0,0,1,8.964,16.23,21.393,21.393,0,0,1-5.959,2.8c-.334-1.814-16.61-19.757-18.469-23.509s-2.866-20.9-3.806-23.183-3.447-8.066-3.447-8.066Z" transform="translate(-379.927 -967.688)" fill="#a386b7"/>
        <path id="Trazado_902442" data-name="Trazado 902442" d="M409.263,1120.734s-6.135,7-12.926,9.637a7.6,7.6,0,0,0-1.974,1.217c0,.715,1.274.2,1.274.2a2.143,2.143,0,0,0-.2,1.544c.224.849,1.7.285,2.51.285.369,0,2.262-2.118,4.819-3.364,3.026-1.474,6.6-2.916,7.032-3.352.806-.8-.292-6.422-.531-6.165" transform="translate(-318.746 -905.833)" fill="#8a80ce"/>
        <path id="Trazado_902443" data-name="Trazado 902443" d="M475.289,1017.615s-6.175-.625-9.4,1.429-5.28,9.38-5.28,12.507,2.323,19.565,1.43,22.691c0,0,10.2-.446,13.695-.446s4.207-1.34,4.207-1.34-7.249-7.147-7.249-10.273,2.6-24.568,2.6-24.568" transform="translate(-372.292 -822.42)" fill="#695bc0"/>
        <path id="Trazado_902444" data-name="Trazado 902444" d="M97.4,1328.278v10.709h1.159v-9.737h7.677v3.342a6.235,6.235,0,0,0-5.287,6.394,5.891,5.891,0,1,0,11.733,0,6.235,6.235,0,0,0-5.287-6.394v-3.342h1.593v-1.269h-1.593v-3.856h1.593v-1.269h-1.593v-4.29h21v-1.9h-11.6v-10.905a6.465,6.465,0,0,1,6.261-6.17h9.979v-1.9h-9.979a8.247,8.247,0,0,0-8,8.074v10.905h-7.66v-6.117h-1.159v12.311h-3.886a5.207,5.207,0,0,0-4.949,5.421m8.836-.3H98.568a3.958,3.958,0,0,1,3.781-3.856h3.886Z" transform="translate(-78.723 -1048.86)" fill="#8e6ba6"/>
        <path id="Trazado_902445" data-name="Trazado 902445" d="M96.745,1463.93s.234,4.13.235,4.139c.086.524.424,1.82.424,2.3,0,1.79-7.967-1.52-6.182-2.314a5.623,5.623,0,0,0,1.312-1.63,13.892,13.892,0,0,0,.592-2.986Z" transform="translate(-73.52 -1182.83)" fill="#786cc6"/>
        <path id="Trazado_902446" data-name="Trazado 902446" d="M64.509,1487.11a28.677,28.677,0,0,0,2.828.684c.958.137,2.221-1.016,2.9-.7.746.343.789,3.491.789,3.491s-10.014.333-12.923-.094c-1.162-.17,2.584-2.1,6.408-3.378" transform="translate(-46.787 -1201.906)" fill="#5e2b80"/>
        <path id="Trazado_902447" data-name="Trazado 902447" d="M329.133,1224.736h2.2v-41.93a2.866,2.866,0,0,1,3.087-2.566h19.8a.915.915,0,1,0,0-1.829h-19.8c-2.916,0-5.288,1.971-5.288,4.394Z" transform="translate(-266.024 -952.458)" fill="#8e6ba6"/>
        <path id="Trazado_902448" data-name="Trazado 902448" d="M219.334,1374.134a13.4,13.4,0,1,1-13.281,13.4,13.342,13.342,0,0,1,13.281-13.4" transform="translate(-166.544 -1110.652)" fill="#8e6ba6"/>
        <path id="Trazado_902449" data-name="Trazado 902449" d="M190.974,1375.238a16.173,16.173,0,1,0,16.173-16.318,16.246,16.246,0,0,0-16.173,16.318m1.533,0a14.641,14.641,0,1,1,14.64,14.771,14.706,14.706,0,0,1-14.64-14.771" transform="translate(-154.356 -1098.355)" fill="#8e6ba6"/>
        <rect id="Rectángulo_402537" data-name="Rectángulo 402537" width="6.498" height="25.175" transform="translate(63.409 233.116)" fill="#8e6ba6"/>
        <path id="Trazado_902450" data-name="Trazado 902450" d="M173.707,1428.971h-5.5a5.4,5.4,0,0,0-5.373,5.421v10.71h1.258v-10.71a4.139,4.139,0,0,1,4.115-4.152h5.5Z" transform="translate(-131.613 -1154.974)" fill="#a386b7"/>
        <rect id="Rectángulo_402538" data-name="Rectángulo 402538" width="17.088" height="2.932" transform="translate(22.731 259.91)" fill="#8e6ba6"/>
        <rect id="Rectángulo_402539" data-name="Rectángulo 402539" width="10.148" height="1.269" transform="translate(31.852 279.122)" fill="#a386b7"/>
        <rect id="Rectángulo_402540" data-name="Rectángulo 402540" width="23.431" height="1.904" transform="translate(41.444 267.803)" fill="#a386b7"/>
        <rect id="Rectángulo_402541" data-name="Rectángulo 402541" width="30.507" height="2.976" transform="translate(39.4 259.866)" fill="#8e6ba6"/>
        <path id="Trazado_902451" data-name="Trazado 902451" d="M359.663,1236.438h1.887v-41.931a2.61,2.61,0,0,1,2.647-2.565h17.8v-1.828H364.2a4.471,4.471,0,0,0-4.534,4.394Z" transform="translate(-290.7 -961.916)" fill="#a386b7"/>
        <path id="Trazado_902452" data-name="Trazado 902452" d="M179.213,1486.015c0,3.549,3.171,6.426,7.081,6.426s7.081-2.877,7.081-6.426-3.17-6.426-7.081-6.426-7.081,2.877-7.081,6.426" transform="translate(-144.85 -1195.886)" fill="#8e6ba6"/>
        <path id="Trazado_902453" data-name="Trazado 902453" d="M193.656,1496.608a4.332,4.332,0,1,0,4.312-3.913,4.127,4.127,0,0,0-4.312,3.913" transform="translate(-156.524 -1206.48)" fill="#a386b7"/>
        <path id="Trazado_902454" data-name="Trazado 902454" d="M102.9,1292.211c2.048-2.047,30.586-1.06,30.586-1.06s-24.177,5.9-25.589,6.669-6.665,26.735-6.672,27.074c-1.458-.347-2.341-.084-3.825-.388.238-4.512,2.2-29,5.5-32.295" transform="translate(-78.723 -1043.388)" fill="#4635b1"/>
        <path id="Trazado_902455" data-name="Trazado 902455" d="M116.21,1466.671s.234,4.13.235,4.139c.086.524.424,1.819.424,2.3,0,1.79-7.967-1.521-6.182-2.314.162-.072,1.259-1.021,1.312-1.63.082-.94.039-2.433.039-2.433Z" transform="translate(-89.253 -1185.445)" fill="#948ad2"/>
        <path id="Trazado_902456" data-name="Trazado 902456" d="M83.973,1487.766a28.715,28.715,0,0,0,2.828.684c.958.137,2.221-1.016,2.9-.7.746.343.789,3.491.789,3.491s-10.014.333-12.924-.093c-1.162-.17,2.584-2.1,6.408-3.378" transform="translate(-62.519 -1202.437)" fill="#5e2b80"/>
        <path id="Trazado_902457" data-name="Trazado 902457" d="M150.346,1294.23s-.246,6.478-2.4,6.556-15.993.387-23.787-.313l-5.244,23.176-6.158-.593s1.855-15.478,2.514-21.365c.649-5.792,2.519-10.651,5.794-10.769s24.8-3.448,24.8-3.448Z" transform="translate(-91.135 -1040.607)" fill="#695bc0"/>
        <path id="Trazado_902458" data-name="Trazado 902458" d="M255.9,1161.013s3.494.886,3.02,7.709-4.248,27.468-11.226,29.089-11.524-13.075-11.524-13.075,4.4-1.447,6.237-8.277c1.27-4.732,4.675-15.411,5.528-15.925,2.117-1.276,7.967.479,7.967.479" transform="translate(-190.885 -937.633)" fill="#ebe6de"/>
        <path id="Trazado_902459" data-name="Trazado 902459" d="M262.8,1318.128h1.887v-12.371c0-2.913,2.907-6.17,6.8-6.17h10.833v-1.9H271.479c-4.626,0-8.684,3.773-8.684,8.074Z" transform="translate(-212.406 -1048.86)" fill="#a386b7"/>
        <path id="Trazado_902460" data-name="Trazado 902460" d="M285.033,1388.367a15.254,15.254,0,1,0,15.254-15.39,15.322,15.322,0,0,0-15.254,15.39" transform="translate(-230.38 -1109.717)" fill="#a386b7"/>
        <path id="Trazado_902461" data-name="Trazado 902461" d="M267.715,1374.245a18.575,18.575,0,1,0,18.574-18.74,18.658,18.658,0,0,0-18.574,18.74m1.76,0a16.815,16.815,0,1,1,16.814,16.964,16.89,16.89,0,0,1-16.814-16.964" transform="translate(-216.382 -1095.595)" fill="#a386b7"/>
        <path id="Trazado_902462" data-name="Trazado 902462" d="M298.974,1399.739a12.581,12.581,0,1,0,12.58-12.693,12.637,12.637,0,0,0-12.58,12.693" transform="translate(-241.648 -1121.088)" fill="#8e6ba6"/>
        <path id="Trazado_902463" data-name="Trazado 902463" d="M349.823,1441.2a2.831,2.831,0,1,0,2.831-2.856,2.843,2.843,0,0,0-2.831,2.856" transform="translate(-282.747 -1162.552)" fill="#8e6ba6"/>
        <rect id="Rectángulo_402542" data-name="Rectángulo 402542" width="19.206" height="3.327" transform="translate(13.799 288.753)" fill="#8e6ba6"/>
        <rect id="Rectángulo_402543" data-name="Rectángulo 402543" width="10.903" height="3.327" transform="translate(22.102 288.753)" fill="#8e6ba6"/>
        <rect id="Rectángulo_402544" data-name="Rectángulo 402544" width="1.258" height="29.273" transform="translate(40.815 262.807)" fill="#a386b7"/>
        <path id="Trazado_902464" data-name="Trazado 902464" d="M212.247,1511.746a.776.776,0,1,0,.776-.783.78.78,0,0,0-.776.783" transform="translate(-171.55 -1221.244)" fill="#8e6ba6"/>
        <path id="Trazado_902465" data-name="Trazado 902465" d="M298.966,1067.736a2.187,2.187,0,0,1,3.482,1.243,5.385,5.385,0,0,1,.982.026,7.952,7.952,0,0,1,1.438.981,6.022,6.022,0,0,1,2.422,4.837,7.2,7.2,0,0,1-2.267,5.435,5.639,5.639,0,0,1-1.45,1.233c-.678.364-1.214.075-1.852.229-.537.13-.725.7-1.358.492-.887-.286-1.819-1.4-2.919-1.233a11.086,11.086,0,0,1-3.642-.827c-3.259-1.271-1.059-7.579-.434-9.818.587-2.105,3.581-3.36,5.6-2.6" transform="translate(-236.06 -862.623)" fill="#ebe6de"/>
        <path id="Trazado_902466" data-name="Trazado 902466" d="M307.22,1129.532l-.847,2.31-.456,1.292s-.032,2.311.507,2.909c.927,1.03,4.742-2.788,4.742-2.788l1.208-7.266Z" transform="translate(-247.259 -910.087)" fill="#948ad2"/>
        <path id="Trazado_902467" data-name="Trazado 902467" d="M313.874,1128.343a8.343,8.343,0,0,1-5.617,3.521l.855-2.332,5.154-3.544Z" transform="translate(-249.151 -910.087)" fill="#5c4dba"/>
        <path id="Trazado_902468" data-name="Trazado 902468" d="M306.622,1084.83a3.649,3.649,0,0,0-5.29,1.81,27.549,27.549,0,0,0-1.045,3.357c-.744,3.1.2,6.489,1.613,6.8s5.767-.84,6.885-5.231c.69-2.71-.125-5.49-2.163-6.737" transform="translate(-242.498 -876.392)" fill="#948ad2"/>
        <path id="Trazado_902469" data-name="Trazado 902469" d="M339.716,1118.437a1.063,1.063,0,1,0,1.292-1.019,1.175,1.175,0,0,0-1.292,1.019" transform="translate(-274.548 -903.143)" fill="#948ad2"/>
        <path id="Trazado_902470" data-name="Trazado 902470" d="M304.336,1128.84s1.864.609,2.016,1.293a2.544,2.544,0,0,1-.989,2.434c-.913.76-2.865.291-3.4-.127a3.224,3.224,0,0,1-.406-3.182c.532-.989,2.776-.418,2.776-.418" transform="translate(-243.536 -912.259)" fill="#ebe6de"/>
        <path id="Trazado_902471" data-name="Trazado 902471" d="M309.525,1134.308s-.011.763-.266.9a2.363,2.363,0,0,1-.849.272,1.217,1.217,0,0,1-1.139-.517.943.943,0,0,1-.065-.11,3.391,3.391,0,0,1-.228-1.052,4.118,4.118,0,0,1,1.242-.114,5.2,5.2,0,0,1,1.306.621" transform="translate(-248.116 -916.295)" fill="#948ad2"/>
        <path id="Trazado_902472" data-name="Trazado 902472" d="M420.271,1154.47c.738-.737,4.162-1.876,6.757-3.752,1.148-.829,3.354-1.921,5.5-3.109a13.8,13.8,0,0,1,4.047,3.266c-3.885,1.786-8.1,3.582-8.743,4.221-1.208,1.206-3.311,3.931-3.8,3.931s-4.229-1.094-4.788-1.653.291-2.167,1.029-2.9" transform="translate(-338.709 -927.561)" fill="#8a80ce"/>
        <path id="Trazado_902473" data-name="Trazado 902473" d="M489.3,1042.845c2.708-1.5,5.321-3.148,5.6-4.618.492-2.635-1.745-14.026-.492-16.214a14.633,14.633,0,0,1,4.072-4.02,3.869,3.869,0,0,1,2.506,2.948c.448,1.965-.358,19.654-.805,21.262-.21.755-3.273,3.761-6.712,5.342-1.059-1.306-2.6-3.83-4.164-4.7" transform="translate(-395.482 -822.798)" fill="#4635b1"/>
        <path id="Trazado_902474" data-name="Trazado 902474" d="M266.782,1271.221l-10.8,2.829a26.979,26.979,0,0,1-4.6,2.744c-1.428.454-3.172,2.027-2.831,2.51s2.136-1.157,2.427-1.107-1.054,1.99-1.273,3.263-.656,2.508.074,2.408,1.259-2.966,1.259-2.966,1.122-2.166,1.3-1.911-.749,1.743-.749,1.743-.221,1.608-.318,2.174c-.072.422.316,1.689.647,1.223.195-.274.1-1.319.329-1.915a9.461,9.461,0,0,1,1.221-2.194s-.811,3.665-.3,3.753,1.037-2.949,1.037-2.949,1.246-2.529,1.79-2.755,2.039-1.189,3.195-1.59,5.935.921,8.068.948,5.592-1.292,5.879-2.964a2.1,2.1,0,0,0-.716-1.614,5.662,5.662,0,0,0-5.642-1.631" transform="translate(-200.858 -1027.317)" fill="#948ad2"/>
        <path id="Trazado_902475" data-name="Trazado 902475" d="M339.072,1164.912s3.267-.581,6.224,4.738,1.043,19.029,1.043,19.029l-6.358-3.245Z" transform="translate(-274.057 -941.532)" fill="#a5916d"/>
        <path id="Trazado_902476" data-name="Trazado 902476" d="M403.316,1183.819c-.384,0-2.395.126-2.711-.189s1.04-1.123,1.177-.986.712-.164.9.028.767-.027.931.136.082,1.011-.3,1.011" transform="translate(-323.753 -955.847)" fill="#786cc6"/>
        <path id="Trazado_902477" data-name="Trazado 902477" d="M496.638,980.932a30.775,30.775,0,0,0-.55,5.272c.138,1.491-.524,6.3-3.494,6.313s-.952-4.99-.672-6.451.733-7.105.733-7.105Z" transform="translate(-396.848 -791.25)" fill="#948ad2"/>
        <path id="Trazado_902478" data-name="Trazado 902478" d="M498.709,980.759a13.438,13.438,0,0,1,.27-2.221l3.9,2.052s-.14.773-.282,1.758a3.623,3.623,0,0,1-3.884-1.589" transform="translate(-403.085 -790.909)" fill="#5c4dba"/>
        <path id="Trazado_902479" data-name="Trazado 902479" d="M496.618,931.257a5.112,5.112,0,0,1,2.584,2.415c.911,1.819,1.211,6.912-2.46,8.869s-6.092-1.652-5.864-4.885,1.246-7.47,5.74-6.4" transform="translate(-396.744 -752.557)" fill="#948ad2"/>
        <path id="Trazado_902480" data-name="Trazado 902480" d="M485.176,954.572c-.1.839.2,1.553.662,1.6s.916-.6,1.012-1.439-.2-1.553-.662-1.6-.916.6-1.012,1.438" transform="translate(-392.132 -770.374)" fill="#948ad2"/>
        <path id="Trazado_902481" data-name="Trazado 902481" d="M531.964,963.37c-.323.811-.162,1.663.359,1.9s1.2-.225,1.527-1.036.162-1.663-.359-1.9-1.2.224-1.527,1.036" transform="translate(-429.828 -777.761)" fill="#948ad2"/>
        <path id="Trazado_902482" data-name="Trazado 902482" d="M1400.807,270.591l7.165,9.833,4.743-5.188Z" transform="translate(-1132.211 -218.707)" fill="#8e6ba6"/>
        <path id="Trazado_902483" data-name="Trazado 902483" d="M1413.358,272.518l-.643,2.717-11.907-4.644Z" transform="translate(-1132.211 -218.707)" fill="#a386b7"/>
        <path id="Trazado_902484" data-name="Trazado 902484" d="M1412.715,276.274l-11.908-5.682,11.068,9.833Z" transform="translate(-1132.211 -218.707)" fill="#a386b7"/>
        <path id="Trazado_902485" data-name="Trazado 902485" d="M1464.83,331.273A12.237,12.237,0,0,1,1460,329.4a8.371,8.371,0,0,1-3.659-5.016.321.321,0,0,1,.642-.006,7.915,7.915,0,0,0,3.357,4.477,11.844,11.844,0,0,0,4.555,1.781.321.321,0,0,1-.062.639m-7.85-6.895v0Z" transform="translate(-1177.094 -261.924)" fill="#ebe6de"/>
        <path id="Trazado_902486" data-name="Trazado 902486" d="M1490.968,334.182a33.465,33.465,0,0,1-10.554-4.074c-2.711-1.613-4.9-4.073-7.662-5.438a.321.321,0,1,1,.285-.576c2.862,1.413,5.031,3.87,7.706,5.462a32.822,32.822,0,0,0,10.352,4,20.066,20.066,0,0,0,4.713.292.321.321,0,0,1,.027.642,20.861,20.861,0,0,1-4.866-.3" transform="translate(-1190.216 -261.924)" fill="#ebe6de"/>
        <path id="Trazado_902487" data-name="Trazado 902487" d="M710.945,718.908s-7.881-14.065-9.8-17.055-6.912-14.871-7.09-15.339,3.439-6.091,2.632-6.283-1.7,2.964-2.563,2.587-3.378-7.977-3.87-7.6c-.919.705,1.357,4.714.867,4.967s-1.973-4.411-2.935-4.273,1.829,4.274,1.56,4.639-3.166-3.532-3.69-2.7c-.285.451,2.664,3.4,2.1,3.679s-3.189-1.628-3.467-1.079,2.426,1.3,3.234,2.783,2.185,2.121,2.757,4.864,1.426,12.667,4.355,17.619,9.369,15.911,9.369,15.911Z" transform="translate(-553.388 -545.738)" fill="#8a80ce"/>
        <path id="Trazado_902488" data-name="Trazado 902488" d="M923.443,1055.643s-.642-.8-.834-1.083c-.226-.331-.826-1.376-.826-1.376s-1.919-3.736-1.632-3.856.975.338,1.174.527.451.391.65.58a.535.535,0,0,0,.757-.034c.252-.231-.379-1.158-.66-1.434a43.479,43.479,0,0,0-3.979-2.9c-.342-.244-2.478-7.338-3.4-9.71h0c-1.4-3.928-2.638-8.036-2.784-8.453l-.881-17.835-6.662-2.22s.7,19.807.847,20.793c.07.469,4.016,9.323,4.02,9.321,2.218,4.237,4.182,7.965,4.539,8.691,0,0,.484,2.461.7,4.047a13.832,13.832,0,0,0,1.18,3.394,10.311,10.311,0,0,0,1.481,3.169c.948,1.362.674-.374.674-.374s-1.3-2.846-1.06-2.913c.187-.052.806,1.546,1.839,3.063.265.391.529.775.774,1.126.643.921,1.394.78.875-.294a11.066,11.066,0,0,0-.793-1.412,9.256,9.256,0,0,1-.666-1.368,12.2,12.2,0,0,1-.677-1.415c.056,0,.09-.221.384.184.354.487.878,1.693,1.455,2.369.327.383.962,1.225.962,1.225a10.5,10.5,0,0,0,1.266,1.2c.475-.27-.112-1.41-.624-1.871a7.474,7.474,0,0,0-.867-1.331s-1.006-2.075-.715-2.226c.24-.125,3.608,4.366,4.066,4.061.373-.249-.579-1.646-.579-1.646" transform="translate(-730.959 -814.599)" fill="#786cc6"/>
        <path id="Trazado_902489" data-name="Trazado 902489" d="M772.326,826.29a23.554,23.554,0,0,0-2.152-11.354c-1.5-3.116-5.2-4.884-8.582-4.889-10.73-.014-12.094,14.163-18.924,19.631-2.087,1.671-4.42,3.032-6.394,4.834-7.292,6.654-4.008,18.971,2.688,24.8,4.647,4.048,11.949,6.348,17.676,3.183a18.01,18.01,0,0,0,6.876-7.406c2.294-4.27,3.773-9.2,5.406-13.747a51.313,51.313,0,0,0,3.407-15.057" transform="translate(-591.758 -654.726)" fill="#5e2b80"/>
        <path id="Trazado_902490" data-name="Trazado 902490" d="M748.855,1547.94s-.756,5.232-2.056,6.921a13.362,13.362,0,0,0-1.757,2.308c-.815,1.594-.364,3.968.237,5.275.309.671-.022.669.681.885a4.317,4.317,0,0,0,5.178-2.426,12.3,12.3,0,0,0,1.016-4.459,16.118,16.118,0,0,1,1.7-7.167Z" transform="translate(-601.827 -1251.132)" fill="#948ad2"/>
        <path id="Trazado_902491" data-name="Trazado 902491" d="M881.822,1560.421s.467,5.9.088,7.818c-.2,1.027-1.333,3.141-.814,4.107a2.6,2.6,0,0,0,1.111,1.208l13.43.216c.732.012.248-.458-.342-.891a27.083,27.083,0,0,0-4.829-2.666c-.2-.1-.933-.562-1.2-.723a9.31,9.31,0,0,1-1.921-1.693c-.964-1.072-1.048-6.268-1.048-6.268Z" transform="translate(-712.042 -1261.219)" fill="#948ad2"/>
        <path id="Trazado_902492" data-name="Trazado 902492" d="M886.122,1145.132s1.691,9.58.581,15.861-6.44,64.5-6.44,64.5l-5.923.333s-1.242-24.319-1.019-27.7a52.347,52.347,0,0,1,1.98-9.042l-.589-19.635,7.474-25.8Z" transform="translate(-705.845 -924.364)" fill="#5e2b80"/>
        <path id="Trazado_902493" data-name="Trazado 902493" d="M779.522,1131.693s-4.664,7.005-5.774,12.8.815,23.615-1.321,31.213c-1.156,4.112-5.539,10.464-6.205,15.778s-3.28,19.236-3.28,19.236l5.92,1.171,13.759-34.767,10.792-31.424,2.765-16.184Z" transform="translate(-616.653 -912.94)" fill="#5e2b80"/>
        <path id="Trazado_902494" data-name="Trazado 902494" d="M830.795,932.893s-6.174-.392-8.617,2.265,5.419,23.678,5.863,27.06-2.265,12.374-2.265,12.374,14.506,2.913,18.651.175c0,0,.444-24.32,0-26.735s-4.145-12.24-5.034-13.207-8.6-1.932-8.6-1.932" transform="translate(-664.15 -754)" fill="#695bc0"/>
        <path id="Trazado_902495" data-name="Trazado 902495" d="M870.275,889.455s-.032.182-.089.491c-.275,1.481-1.335,6.4-2.051,7.748-.866,1.633,2.963,6.841,6.648,6.2,1.1-.189-.927-4.785-.83-5.272.186-.932.439-2.2.7-3.506.146-.736.294-1.481.432-2.182l.716-3.62Z" transform="translate(-701.574 -718.796)" fill="#948ad2"/>
        <path id="Trazado_902496" data-name="Trazado 902496" d="M878.65,889.947c.057-.309.089-.49.089-.49l5.522-.137-.716,3.62c-.138.7-.285,1.438-.43,2.169a5.173,5.173,0,0,1-2.637-1.319,6.95,6.95,0,0,1-2-2.964c.068-.348.125-.649.167-.878" transform="translate(-710.039 -718.797)" fill="#5c4dba"/>
        <path id="Trazado_902497" data-name="Trazado 902497" d="M873.688,824.643a4.984,4.984,0,0,0-4.234,1.806c-1.632,2.106-3.39,8.618.663,12.159s8.057-.467,8.651-4.716.825-9.4-5.08-9.248" transform="translate(-701.27 -666.51)" fill="#948ad2"/>
        <path id="Trazado_902498" data-name="Trazado 902498" d="M922.588,862.822c-.484.939-1.3,1.459-1.814,1.161s-.545-1.3-.062-2.238,1.3-1.458,1.814-1.161.545,1.3.062,2.238" transform="translate(-743.892 -695.504)" fill="#948ad2"/>
        <path id="Trazado_902499" data-name="Trazado 902499" d="M863.717,820.8s-3.477,6.193-5.965,6.479-2.814,3.577-2.814,3.577.889-7.582,3.352-9.044a9.162,9.162,0,0,1,5.427-1.011" transform="translate(-691.009 -663.36)" fill="#5e2b80"/>
        <path id="Trazado_902500" data-name="Trazado 902500" d="M749.618,1598.687a6.622,6.622,0,0,1-6.49-2.707c-.82,1.6-1.22,3.981-.617,5.294.531,1.156,2.084,1.123,3.306,1.168a3.193,3.193,0,0,0,2.934-1.792,10.71,10.71,0,0,0,.867-1.963" transform="translate(-599.904 -1289.96)" fill="#5e2b80"/>
        <path id="Trazado_902501" data-name="Trazado 902501" d="M889.14,1606.452a12.181,12.181,0,0,1-7.646-.3c-.379,1.071-.881,2.415-.615,3.19.326.949.79,1.163,1.2,1.174,3.245.085,11.884.2,14.358.233a.4.4,0,0,0,.314-.663c-.614-.731-7.347-3.473-7.611-3.635" transform="translate(-711.915 -1298.182)" fill="#5e2b80"/>
        <path id="Trazado_902502" data-name="Trazado 902502" d="M862.049,855.615c.2,1.1-.2,2.108-.909,2.253s-1.439-.63-1.642-1.73.2-2.108.909-2.252,1.439.63,1.641,1.73" transform="translate(-694.653 -690.143)" fill="#948ad2"/>
        <path id="Trazado_902503" data-name="Trazado 902503" d="M784.262,879.356s8.717,9.355,10.013,13.125-1.264,9.163-4.8,9.4-11.4-16.6-11.4-16.6Z" transform="translate(-628.885 -710.744)" fill="#695bc0"/>
        <path id="Trazado_902504" data-name="Trazado 902504" d="M794.226,208.344l-9.844,2.143a4.375,4.375,0,0,1-5.206-3.344l-.917-4.213a4.376,4.376,0,0,1,3.344-5.206l9.844-2.143a4.375,4.375,0,0,1,5.206,3.344l.917,4.213a4.375,4.375,0,0,1-3.344,5.206" transform="translate(-628.95 -157.997)" fill="#a386b7"/>
        <path id="Trazado_902505" data-name="Trazado 902505" d="M766.166,244.356l-4.217,6.816,6.471-2.785Z" transform="translate(-615.85 -197.502)" fill="#a386b7"/>
        <path id="Trazado_902506" data-name="Trazado 902506" d="M807.664,212.962l1.641-.4s1.727-2.019,1.667-2.582-.662-1.646-.373-1.864a1.106,1.106,0,0,1,1.54.141c.432.456.605,2.438.828,2.523a8.925,8.925,0,0,0,1.781-.311,1.252,1.252,0,0,1,1.234.4h0a.668.668,0,0,1,.024.841l-.3.39.376.319a.667.667,0,0,1,.08.938l-.24.287.25.181a.668.668,0,0,1,.1.989l-.217.239.055.063a.667.667,0,0,1-.02.9l-.221.23-4.372,1.068a3.088,3.088,0,0,1-1.251.045l-1.6.122a.349.349,0,0,1-.366-.27l-.877-3.84a.349.349,0,0,1,.257-.416" transform="translate(-652.585 -168.009)" fill="#fff"/>
        <path id="Trazado_902507" data-name="Trazado 902507" d="M947.232.442c8.818,1.642,15.149,7.365,14.141,12.782-.5,2.709-2.748,4.828-5.968,6.065l2.091,8.653L951.12,20.33a24.734,24.734,0,0,1-7.542-.272c-8.818-1.642-15.149-7.365-14.141-12.782S938.413-1.2,947.232.442" transform="translate(-751.138 0.002)" fill="#ebe6de"/>
        <path id="Trazado_902508" data-name="Trazado 902508" d="M998.373,30.194a5.66,5.66,0,1,1-2.651-7.554,5.659,5.659,0,0,1,2.651,7.554" transform="translate(-798.242 -17.846)" fill="#695bc0"/>
        <path id="Trazado_902509" data-name="Trazado 902509" d="M999.624,48.992a3.026,3.026,0,1,0,5.455,2.621Z" transform="translate(-807.71 -39.598)" fill="#538040"/>
        <path id="Trazado_902510" data-name="Trazado 902510" d="M1621.466,808.14l-1.951.2-.666-3.1-2.887-.062-.878-2.241-1.134.444,1.174,3,2.736.059.692,3.228,2.935-.3Z" transform="translate(-1304.485 -648.973)" fill="#a386b7"/>
        <path id="Trazado_902511" data-name="Trazado 902511" d="M1540,598.1l-4.564-2-1.037,3.151-1.51-.5,1.583-4.812,4.537,1.987,1.157-3.728,4.176,1.74,1.715-3.667,1.44.674-2.361,5.046-3.97-1.654Z" transform="translate(-1238.966 -477.092)" fill="#a386b7"/>
      </g>
    </g>
  </g>
</svg>
