<svg xmlns="http://www.w3.org/2000/svg" xmlns:xlink="http://www.w3.org/1999/xlink" width="90" height="90" viewBox="0 0 90 90">
  <defs>
    <clipPath id="clip-path">
      <rect id="Rectángulo_402465" data-name="Rectángulo 402465" width="63.841" height="60.8" fill="#fff"/>
    </clipPath>
  </defs>
  <g id="Grupo_1102766" data-name="Grupo 1102766" transform="translate(-336.967 -1131.576)">
    <path id="Trazado_876532" data-name="Trazado 876532" d="M45,0A45,45,0,1,1,0,45,45,45,0,0,1,45,0Z" transform="translate(336.967 1131.576)" fill="#382a8e"/>
    <g id="Grupo_1102190" data-name="Grupo 1102190" transform="translate(350.046 1146.176)">
      <g id="Grupo_1102189" data-name="Grupo 1102189" clip-path="url(#clip-path)">
        <path id="Trazado_901780" data-name="Trazado 901780" d="M53.562,39.411c.313.394.5.863.8.968a3.79,3.79,0,0,1,2.254,2.73c1.357,3.773,2.742,7.535,4.109,11.3.885,2.443.316,3.681-2.086,4.564-1.5.55-2.987,1.119-4.5,1.625a2.683,2.683,0,0,1-3.647-1.69c-1.6-4.266-3.174-8.543-4.653-12.851a6,6,0,0,1,.122-2.373,4.618,4.618,0,0,1,.285-.905l-.324-.113c-.151.393-.317.78-.45,1.179A23.337,23.337,0,0,1,21.047,59.733C10.722,58.9,1.907,50.542.281,40.056c-2.09-13.483,7.711-25.666,21.608-26.8a1.757,1.757,0,0,0,1.679-1.217,21.161,21.161,0,0,1,40.138,6.714c.822,8.123-2.157,14.733-8.729,19.659-.4.3-.816.574-1.416.994M22.2,15.5C11.089,15.884,2.05,25.617,2.223,36.759A21.1,21.1,0,0,0,23.409,57.6c9.314-.01,19.844-7.991,19.953-15.225a21.739,21.739,0,0,1-14.49-5.068c-1.061,3.233-3.361,4.91-6.13,4.6a5.414,5.414,0,0,1-4.866-5.1,7.282,7.282,0,0,1,.935-3.476c.988-1.82,2.84-2.408,4.947-2.553A22,22,0,0,1,22.2,15.5M51.76,40.822c-.662-2.46-.625-2.407,1.341-3.789,6.689-4.7,9.511-11.151,8.227-19.212A18.972,18.972,0,1,0,46,39.85a1.413,1.413,0,0,1,1.822.966c.138.379.3.749.495,1.238l3.445-1.233m7.18,15.367a4.862,4.862,0,0,0-.1-.493c-1.527-4.189-3.041-8.383-4.625-12.55a1.257,1.257,0,0,0-1.133-.411,41.751,41.751,0,0,0-4.482,1.64A1.374,1.374,0,0,0,48,45.562q2.156,6.186,4.494,12.307a1.338,1.338,0,0,0,1.188.53c1.524-.451,3.013-1.029,4.5-1.607a3.047,3.047,0,0,0,.766-.6m-35.631-23.1a3.333,3.333,0,0,0-3.3,3.312,3.4,3.4,0,0,0,3.453,3.32,3.345,3.345,0,0,0,3.206-3.406,3.284,3.284,0,0,0-3.361-3.226" transform="translate(0 0)" fill="#fff"/>
        <path id="Trazado_901781" data-name="Trazado 901781" d="M65.9,198.544a17.821,17.821,0,0,1-9.706-2.936c-1.325-.867-1.407-1.254-.532-2.524,1.321-1.916,2.68-3.806,3.981-5.735a1.419,1.419,0,0,1,2.274-.48,7.158,7.158,0,0,0,8.125-.02,1.367,1.367,0,0,1,2.182.421c1.36,2,2.737,3.989,4.155,5.948a1.369,1.369,0,0,1-.439,2.267A18.007,18.007,0,0,1,65.9,198.544m-8.125-4.664c4.455,3.258,12.535,3.215,16.335-.056l-3.344-4.788a9.93,9.93,0,0,1-9.621.014l-3.37,4.83" transform="translate(-42.611 -144.253)" fill="#fff"/>
        <path id="Trazado_901782" data-name="Trazado 901782" d="M24.61,104.931c.395-6.915,3.562-12.105,9.679-15.426,1.5-.816,1.888-.659,2.62.89.954,2.016,1.878,4.045,2.854,6.05.459.943.372,1.589-.642,2.116a7.344,7.344,0,0,0-4.166,7.383c.047,1.044-.394,1.5-1.407,1.574-2.226.164-4.447.392-6.674.549-2.033.143-2.136.028-2.261-2.043-.022-.363,0-.728,0-1.093m8.06.427a10.123,10.123,0,0,1,4.254-8.083,1.079,1.079,0,0,0,.3-.981c-.674-1.567-1.435-3.1-2.167-4.637-4.83,2.286-8.937,8.708-8.034,14.209l5.645-.508" transform="translate(-19.031 -68.86)" fill="#fff"/>
        <path id="Trazado_901783" data-name="Trazado 901783" d="M136.075,56.427a15.316,15.316,0,1,1,15.387-15.278,15.322,15.322,0,0,1-15.387,15.278m.115-2.2a13.118,13.118,0,1,0-13.174-13.113,13.148,13.148,0,0,0,13.174,13.113" transform="translate(-93.457 -19.954)" fill="#fff"/>
        <path id="Trazado_901784" data-name="Trazado 901784" d="M180.021,49.037c-.18,2.411-.322,4.826-.551,7.232-.174,1.829-1.3,3.038-2.733,3.084a2.933,2.933,0,0,1-2.877-2.921c-.308-3.085-.544-6.182-.655-9.28a3.332,3.332,0,0,1,3.5-3.561,3.415,3.415,0,0,1,3.407,3.669c0,.592-.084,1.183-.129,1.774l.039,0M176.375,57.1l.566-.007a9.493,9.493,0,0,0,.4-1.6c.208-2.631.374-5.265.543-7.9.061-.95-.112-1.829-1.309-1.785-1.1.04-1.239.906-1.183,1.784.168,2.634.337,5.267.551,7.9a9.024,9.024,0,0,0,.429,1.607" transform="translate(-133.979 -33.719)" fill="#fff"/>
        <path id="Trazado_901785" data-name="Trazado 901785" d="M175.174,118.192a2.94,2.94,0,0,1,2.989-3.162,2.979,2.979,0,0,1,3.039,3.263,3.02,3.02,0,1,1-6.028-.1m2.854,1.539c.508-.7.967-1.063.916-1.326-.082-.421-.5-.776-.778-1.159-.262.3-.7.579-.74.906-.043.367.274.778.6,1.579" transform="translate(-135.504 -88.98)" fill="#fff"/>
      </g>
    </g>
  </g>
</svg>
