<svg xmlns="http://www.w3.org/2000/svg" xmlns:xlink="http://www.w3.org/1999/xlink" width="90" height="90" viewBox="0 0 90 90">
  <defs>
    <clipPath id="clip-path">
      <rect id="Rectángulo_402431" data-name="Rectángulo 402431" width="69.538" height="68.121" fill="#fff"/>
    </clipPath>
  </defs>
  <g id="Grupo_1103123" data-name="Grupo 1103123" transform="translate(-1116 -1083.502)">
    <path id="Trazado_903748" data-name="Trazado 903748" d="M45,0A45,45,0,1,1,0,45,45,45,0,0,1,45,0Z" transform="translate(1116 1083.502)" fill="#b771e5"/>
    <g id="Grupo_1102152" data-name="Grupo 1102152" transform="translate(1124.157 1095.553)">
      <g id="Grupo_1102151" data-name="Grupo 1102151" clip-path="url(#clip-path)">
        <path id="Trazado_901654" data-name="Trazado 901654" d="M67.181,146.333c2.714,0,5.218.031,7.721-.028a2.723,2.723,0,0,0,1.322-.609c1.854-1.3,3.672-2.651,5.525-3.953s3.755-1.07,4.922.548c1.123,1.558.705,3.539-1.079,4.851-2.148,1.58-4.262,3.222-6.518,4.633a9.2,9.2,0,0,1-3.6,1.161,36.729,36.729,0,0,1-4.66.046c0,2.844-.066,5.549.027,8.248.049,1.421-.365,1.986-1.862,1.956q-5.963-.119-11.93,0c-1.492.03-1.919-.525-1.871-1.948.09-2.7.026-5.405.026-8.257-1.82,0-3.478.1-5.114-.04a6.188,6.188,0,0,1-2.783-.892c-2.35-1.55-4.607-3.244-6.877-4.913-1.806-1.327-2.217-3.27-1.079-4.844,1.171-1.619,3.062-1.836,4.923-.554a11.237,11.237,0,0,1,1.945,1.424c3.479,3.747,7.932,3.415,12.571,3.05-1.3-1.726-2.08-3.614-1.346-5.636a7.7,7.7,0,0,1,2.153-3.156,5.656,5.656,0,0,1,7.448.444c2.21,2.125,2.312,4.988.136,8.465m2.11,15.212c0-2.858.089-5.528-.034-8.188-.073-1.581.5-2.031,2-1.921a38.313,38.313,0,0,0,4.679,0,3.646,3.646,0,0,0,1.813-.548c2.363-1.625,4.668-3.334,7-5.008,1.009-.725,1.388-1.666.63-2.714-.782-1.081-1.789-.89-2.774-.172-1.911,1.393-3.8,2.818-5.77,4.127a4.261,4.261,0,0,1-2.2.707q-11.63.075-23.26,0a4.256,4.256,0,0,1-2.194-.725c-2.008-1.34-3.936-2.8-5.9-4.206a1.7,1.7,0,0,0-2.645.286,1.728,1.728,0,0,0,.546,2.613,36.379,36.379,0,0,1,3.406,2.5,11.784,11.784,0,0,0,9.91,3.212c2.213-.245,2.236-.044,2.237,2.176,0,2.6,0,5.2,0,7.862ZM67.27,142.117a4.264,4.264,0,1,0-8.528-.05,4.264,4.264,0,0,0,8.528.05" transform="translate(-27.018 -95.067)" fill="#fff"/>
        <path id="Trazado_901655" data-name="Trazado 901655" d="M7.447,75.962c.158-.956.04-1.911.461-2.377a3.405,3.405,0,0,1,2.333-1.177c1.9.136,4.146-1.029,5.6,1.045a6.89,6.89,0,0,1,.467,2.507c1.151,0,2.342-.022,3.532,0a3.671,3.671,0,0,1,3.9,3.734c.092,3.269.1,6.545,0,9.813A3.627,3.627,0,0,1,19.8,93.192q-7.927.039-15.855,0a3.681,3.681,0,0,1-3.912-3.87q-.057-4.756,0-9.513a3.7,3.7,0,0,1,3.8-3.841c1.2-.038,2.4-.007,3.618-.007m-5.9,8.984c0,1.369-.065,2.972.02,4.566a2.09,2.09,0,0,0,2.249,2.151q8.067.046,16.135.005a1.985,1.985,0,0,0,2.194-1.85c.132-1.669.033-3.356.033-4.872Zm10.313-1.295c2.565,0,5.131.031,7.7-.009,2.081-.032,2.738-.871,2.7-3.275-.035-2.077-.788-2.878-2.792-2.883q-7.545-.019-15.09,0c-2.045,0-2.809.786-2.832,2.826-.029,2.515.605,3.307,2.776,3.335,2.514.032,5.03.008,7.545.007M14.477,75.9c.4-1.556-.015-2.262-1.585-2.06a17.115,17.115,0,0,1-2.1.015c-1.757.009-1.91.226-1.427,2.044Z" transform="translate(0 -50.388)" fill="#fff"/>
        <path id="Trazado_901656" data-name="Trazado 901656" d="M169.17,72.747a25.912,25.912,0,0,1,2.964-2.078,2.126,2.126,0,0,1,1.824.01c2.862,1.958,5.668,4,8.431,6.1a2.322,2.322,0,0,1,.767,1.614c.063,4.123.008,8.248.052,12.372.012,1.114-.393,1.512-1.5,1.506q-8.676-.047-17.352,0c-1.127.007-1.485-.421-1.474-1.517.044-4.124.009-8.248.03-12.373,0-.425.06-1.113.305-1.23,1.789-.851,1.421-2.425,1.483-3.9.032-.761-.436-1.8.9-2.038,2.05-.371,3.049.005,3.567,1.532m-4.745,17.874h17.244c0-4.032.017-7.953-.027-11.873a1.6,1.6,0,0,0-.6-1.089c-2.621-1.946-5.278-3.845-7.993-5.808-1.387.994-2.71,1.987-4.081,2.909-1,.67-1.378.423-1.563-.754a4.648,4.648,0,0,0-.622-1.254,3.923,3.923,0,0,0-.544,1.3c-.024,1.507.234,3.068-1.551,3.882-.174.079-.251.53-.252.808-.016,3.921-.011,7.841-.011,11.874" transform="translate(-113.67 -49.178)" fill="#fff"/>
        <path id="Trazado_901657" data-name="Trazado 901657" d="M104.783,6.7a6.334,6.334,0,0,1-1.864,4.631c-2.683,2.723-5.41,5.4-8.087,8.13-.686.7-1.2.686-1.877-.008-2.677-2.728-5.431-5.382-8.081-8.136a6.585,6.585,0,0,1-.5-8.691A6.62,6.62,0,0,1,92.9.85a1.765,1.765,0,0,0,2,0A6.655,6.655,0,0,1,104.783,6.7M93.826,18.1c2.82-2.77,5.619-5.372,8.237-8.145a4.976,4.976,0,0,0-.147-6.747,5.022,5.022,0,0,0-6.708-.757,1.745,1.745,0,0,1-2.573.041,5.023,5.023,0,0,0-6.818.777,5.047,5.047,0,0,0,.048,6.875c2.571,2.689,5.259,5.267,7.961,7.957" transform="translate(-57.903 0)" fill="#fff"/>
        <path id="Trazado_901658" data-name="Trazado 901658" d="M179.324,38.032c-.183.225-.351.624-.6.679a1.025,1.025,0,0,1-.871-.352,24.285,24.285,0,0,0-1.475-2.448c-2.01-2.3-4.132-4.5-6.164-6.779a6.581,6.581,0,0,1-.775-1.535,4.407,4.407,0,0,1,1.671.373,26.8,26.8,0,0,1,7.678,9c.164.309.314.627.532,1.065" transform="translate(-118.247 -19.259)" fill="#fff"/>
        <path id="Trazado_901659" data-name="Trazado 901659" d="M47.021,28.026a6.128,6.128,0,0,1-.762.839A27.435,27.435,0,0,0,38.6,37.845c-.193.361-.8.5-1.221.741-.033-.486-.258-1.07-.068-1.441a26.577,26.577,0,0,1,8.14-9.518c.335-.243.95-.1,1.435-.134l.133.534" transform="translate(-25.986 -19.178)" fill="#fff"/>
      </g>
    </g>
  </g>
</svg>
