<svg xmlns="http://www.w3.org/2000/svg" xmlns:xlink="http://www.w3.org/1999/xlink" width="85.854" height="85.854" viewBox="0 0 85.854 85.854">
  <defs>
    <filter id="Elipse_11501" x="0" y="0" width="85.854" height="85.854" filterUnits="userSpaceOnUse">
      <feOffset dy="3" input="SourceAlpha"/>
      <feGaussianBlur stdDeviation="3" result="blur"/>
      <feFlood flood-opacity="0.161"/>
      <feComposite operator="in" in2="blur"/>
      <feComposite in="SourceGraphic"/>
    </filter>
    <clipPath id="clip-path">
      <rect id="Rectángulo_402437" data-name="Rectángulo 402437" width="51.278" height="43.391" fill="#fff"/>
    </clipPath>
  </defs>
  <g id="Grupo_1102762" data-name="Grupo 1102762" transform="translate(-256.743 -1308.475)">
    <g transform="matrix(1, 0, 0, 1, 256.74, 1308.47)" filter="url(#Elipse_11501)">
      <circle id="Elipse_11501-2" data-name="Elipse 11501" cx="33.927" cy="33.927" r="33.927" transform="translate(9 6)" fill="#b771e5"/>
    </g>
    <g id="Grupo_1102164" data-name="Grupo 1102164" transform="translate(275.276 1323)">
      <g id="Grupo_1102163" data-name="Grupo 1102163" clip-path="url(#clip-path)">
        <path id="Trazado_901700" data-name="Trazado 901700" d="M3.455,76.447c-2.157-3.574-1.842-6.665.834-8.661a5.736,5.736,0,0,1,7.766.866c2.207,2.524,1.793,5.512-1.195,8.706a10.9,10.9,0,0,1,1.654,1.607,13.845,13.845,0,0,0,6.712,4.921c1.314.535,2.462,1.577,3.8,1.911a4.146,4.146,0,0,0,2.867-.779A12.575,12.575,0,0,0,28.083,82.6c-1.96-2.456-2.146-4.564-.59-6.369a4.337,4.337,0,0,1,5.413-.939c2.087,1.195,2.625,3.283,1.558,6.219,1.94.946,2.437,2.626,2.368,4.659-.075,2.2-.006,4.412-.021,6.618a2.244,2.244,0,0,1-2.51,2.531c-2.169.021-4.339-.015-6.508.015-.934.013-1.351-.352-1.32-1.3.038-1.171.009-2.345.009-3.677-.936.261-1.771.472-2.592.727a6.309,6.309,0,0,1-4.811-.364c-1.674-.814-3.375-1.571-5.212-2.421,0,1.957,0,3.747,0,5.537,0,1.317-.162,1.489-1.434,1.492-3.089.007-6.177.013-9.266,0A2.811,2.811,0,0,1,.033,92.178C.016,89.016.1,85.851.006,82.692c-.087-2.816.667-5.074,3.449-6.245M21.124,86.476c-.468-.224-1.081-.556-1.722-.819-3.182-1.3-6.233-2.782-8.176-5.823a2.38,2.38,0,0,0-.386-.392A3.7,3.7,0,0,0,7.62,78.117a4.146,4.146,0,0,1-1.514-.208A3.416,3.416,0,0,0,1.65,81.036C1.514,84.852,1.593,88.676,1.6,92.5a1.126,1.126,0,0,0,1.143,1.242c3.148.034,6.3.015,9.57.015,0-1.818-.025-3.534.014-5.248a1.254,1.254,0,0,0-.69-1.2,22.779,22.779,0,0,1-3-2.537c-.234-.234-.06-.874-.073-1.327a4.747,4.747,0,0,1,1.265.436,31.6,31.6,0,0,0,3.133,2.348c1.905,1.012,3.93,1.8,5.907,2.675.28.124.575.215.6.225l1.648-2.65m6.915,7.291c2.227,0,4.283.036,6.334-.039a1.221,1.221,0,0,0,.849-.838c.064-2.646.1-5.3.006-7.941a2.065,2.065,0,0,0-2.944-1.875,3.657,3.657,0,0,1-1.609.274,1.892,1.892,0,0,0-1.822.75,14.874,14.874,0,0,1-1.395,1.56,8.854,8.854,0,0,1-2.136,1.42c-1.04.442-2.194.615-3.243,1.042-.319.13-.451.718-.669,1.1.386.2.786.592,1.155.566a10.84,10.84,0,0,0,2.015-.532c1.88-.516,3.791-.949,5.054-2.673.136-.186.692-.064,1.053-.084.014.369.189.881.012,1.082-.6.679-1.337,1.234-1.993,1.867-.262.253-.614.574-.637.885-.078,1.091-.03,2.191-.03,3.442m-16.148-21.4a4.189,4.189,0,1,0-4.176,4.223,4.191,4.191,0,0,0,4.176-4.223m21.631,6.648a2.76,2.76,0,0,0-5.52.069,2.76,2.76,0,1,0,5.52-.069" transform="translate(0 -51.944)" fill="#fff"/>
        <path id="Trazado_901701" data-name="Trazado 901701" d="M181.049,109.883c3.128,1.143,4.252,3.444,4.078,6.588-.091,1.65,0,3.309-.023,4.964a2.374,2.374,0,0,1-2.613,2.6q-4.027.038-8.054,0a2.421,2.421,0,0,1-2.634-2.7c-.013-1.729.049-3.459-.017-5.186a6.184,6.184,0,0,1,1.9-5.047c-.837-1.256-1.55-2.594-1-4.105a6.433,6.433,0,0,1,1.456-2.386,4.245,4.245,0,0,1,5.21-.39c1.793,1.151,2.4,3.095,1.7,5.664m-.574,12.6c.8,0,1.456.015,2.108,0,.676-.019.976-.4.972-1.067-.013-2.166.03-4.333-.038-6.5a3.67,3.67,0,0,0-2.69-3.393,2.055,2.055,0,0,0-1.4.171,5.182,5.182,0,0,1-3.709.567,1.625,1.625,0,0,0-1.366.458,4.442,4.442,0,0,0-.937,2.166c-.125,2.2-.094,4.4-.016,6.6a1.347,1.347,0,0,0,.906.948c1.488.1,2.988.045,4.616.045,0-.507,0-.9,0-1.292,0-1.322-.051-2.647.045-3.962.024-.327.528-.62.812-.928a4.144,4.144,0,0,1,.67.952,3.455,3.455,0,0,1,.028,1.093c0,1.347,0,2.694,0,4.14M179.832,108a2.856,2.856,0,0,0-2.808-2.913,2.876,2.876,0,1,0-.07,5.75A2.84,2.84,0,0,0,179.832,108" transform="translate(-133.866 -80.665)" fill="#fff"/>
        <path id="Trazado_901702" data-name="Trazado 901702" d="M70,22.3A11.148,11.148,0,1,1,81.14,11.146,11.113,11.113,0,0,1,70,22.3m-.052-1.557A9.591,9.591,0,1,0,60.394,11.1a9.577,9.577,0,0,0,9.555,9.643" transform="translate(-45.855 0)" fill="#fff"/>
        <path id="Trazado_901703" data-name="Trazado 901703" d="M81.958,39.386a10.27,10.27,0,0,1,7.13,2.933c.688.64.7,1.145.022,1.828a10.487,10.487,0,0,1-14.6-.013c-.688-.7-.626-1.2.052-1.829a10.464,10.464,0,0,1,7.4-2.918m1.233,1.392a7.928,7.928,0,0,1,.941,2.384,7.213,7.213,0,0,1-.752,2.273,8.543,8.543,0,0,0,4.56-2.411l-4.75-2.246m-7.513,2.273A8.316,8.316,0,0,0,80.227,45.4a6.766,6.766,0,0,1-.731-2.187,8.452,8.452,0,0,1,.931-2.443l-4.749,2.283m6.166-1.044c-.4.585-.813.919-.787,1.216s.477.572.743.856c.277-.272.739-.521.778-.824s-.356-.647-.733-1.248" transform="translate(-57.685 -30.693)" fill="#fff"/>
        <path id="Trazado_901704" data-name="Trazado 901704" d="M127.407,28.481a.758.758,0,0,1-.693-1.169,12.942,12.942,0,0,1,1.346-1.985.93.93,0,0,1,.852-.215c.221.092.506.608.427.744-.5.872-1.09,1.693-1.663,2.521-.05.073-.2.078-.269.1" transform="translate(-98.659 -19.543)" fill="#fff"/>
        <path id="Trazado_901705" data-name="Trazado 901705" d="M107.224,22.955a2.647,2.647,0,0,1-.024.974,4.618,4.618,0,0,1-.729.947c-.264-.3-.7-.565-.755-.9a6.8,6.8,0,0,1,0-2.175c.053-.321.5-.578.763-.865.247.271.6.5.712.821a3.8,3.8,0,0,1,.029,1.193h0" transform="translate(-82.316 -16.319)" fill="#fff"/>
        <path id="Trazado_901706" data-name="Trazado 901706" d="M82.015,28.848a2.722,2.722,0,0,1-.606-.471,9.524,9.524,0,0,1-1.145-1.728c-.14-.307.05-.764.091-1.154.376.087.881.052,1.1.286A8.669,8.669,0,0,1,82.7,27.574c.323.592.118,1.053-.682,1.274" transform="translate(-62.51 -19.868)" fill="#fff"/>
      </g>
    </g>
  </g>
</svg>
