<svg xmlns="http://www.w3.org/2000/svg" xmlns:xlink="http://www.w3.org/1999/xlink" width="66" height="66" viewBox="0 0 66 66">
  <defs>
    <clipPath id="clip-path">
      <rect id="Rectángulo_402516" data-name="Rectángulo 402516" width="38.896" height="38.899" fill="#fff"/>
    </clipPath>
  </defs>
  <g id="Grupo_1102780" data-name="Grupo 1102780" transform="translate(-222.276 -2897.529)">
    <circle id="Elipse_11490" data-name="Elipse 11490" cx="33" cy="33" r="33" transform="translate(222.276 2897.529)" fill="#2a206a"/>
    <g id="Grupo_1102238" data-name="Grupo 1102238" transform="translate(235.827 2911.08)">
      <g id="Grupo_1102235" data-name="Grupo 1102235" clip-path="url(#clip-path)">
        <path id="Trazado_901937" data-name="Trazado 901937" d="M37.617,31.415v1.238c-.268.013-.533.037-.8.038-2.354,0-4.708,0-7.062.007a3.634,3.634,0,0,0-3,1.437c1.246-.065,2.569-.174,3.893-.193,2.227-.033,4.455-.012,6.682-.008,1.124,0,1.55.436,1.561,1.564,0,.228,0,.456,0,.684-.014,1.064-.46,1.524-1.535,1.527-2.708.009-5.417-.015-8.125.022a2.225,2.225,0,0,0-1.209.426,3.762,3.762,0,0,1-4.646-.035,2.022,2.022,0,0,0-1.144-.394c-6.682-.024-13.364-.017-20.047-.017-1.954,0-2.195-.244-2.188-2.17.007-2.077,0-4.154,0-6.23,0-1.237.4-1.641,1.626-1.644,2.177-.005,4.354,0,6.53,0,.174,0,.347-.021.457-.029.184-.734.163-1.6.585-2.054.4-.429,1.262-.425,2.017-.638V23.819c-.778-.218-1.588-.4-2.367-.669A13.19,13.19,0,0,1,1.863,3.957c.956-1.6,2.059-1.813,3.621-.654A10.649,10.649,0,0,1,14.35.118,10.472,10.472,0,0,1,21.086,3.57a10.743,10.743,0,0,1-.473,14.862,7.623,7.623,0,0,1,.5.738,1.849,1.849,0,0,1-.757,2.563c-1.435.718-2.957,1.262-4.449,1.865a5.212,5.212,0,0,1-.823.187v1.361c1.877-.3,2.877.4,2.435,2.52.431,0,.727,0,1.023,0,1.1.018,1.518.428,1.528,1.509.007.7,0,1.41,0,2.241,1.8-.058,3.55-.03,5,1.311.14-.433.217-.773.356-1.085A4.078,4.078,0,0,1,29,28.965c2.421-.124,4.854-.032,7.332-.032V30.16H34.446c-1.62,0-3.24-.014-4.86,0A3.029,3.029,0,0,0,26.5,32.6c1.483-1.243,3.175-1.213,4.875-1.192,1.8.022,3.594,0,5.391.005ZM16.544,19.484c-.236-.168-.369-.27-.509-.362a1.835,1.835,0,0,1-.352-3.021c.121-.129.255-.247.372-.38a.6.6,0,0,0-.167-1.056c-.373-.212-.768-.385-1.147-.586a1.432,1.432,0,0,1-.9-1.65,1.38,1.38,0,0,1,1.532-1.084c1.149.068,2.291.25,3.437.378a3.178,3.178,0,0,0,.9.063c.932-.172,1.854-.4,2.812-.608V10.007c-1.81.5-2.766-.531-3.57-1.835a1.664,1.664,0,0,0-.139-.18c-.4-.488-.891-.546-1.294-.078A2.819,2.819,0,0,1,15,8.857c-.681-.042-1.366,0-2.049-.009-.935-.01-1.49-.4-1.634-1.151-.135-.7.234-1.253,1.075-1.605.657-.275,1.316-.546,1.974-.818l-.038-.2H12.554c-1.881,0-2.442-.533-2.521-2.393-.031-.72-.149-.795-.831-.473A9.354,9.354,0,0,0,5.344,5.533c-.621.932-.509,1.355.527,1.834a1.854,1.854,0,0,0,.874.194,5.954,5.954,0,0,1,3.319.879,1.818,1.818,0,0,1,1.213,1.667,1.781,1.781,0,0,1-1.251,1.639c-.432.2-.851.436-1.276.656l.063.24c.234.057.465.124.7.168.572.1,1.146.192,1.718.3a1.4,1.4,0,0,1,.115,2.784,5.605,5.605,0,0,1-.733.189c-.53.079-.727.417-.886.9-.23.691-.567,1.346-.886,2.079a9.236,9.236,0,0,0,7.7.428M8.865,28.919v2.523h3.619v1.278H8.849v1.225h2.388v1.242H8.847v1.172a1.257,1.257,0,0,0,.256.067c.86.007,1.724-.035,2.58.026.7.05.911-.188.887-.888-.042-1.239.39-1.663,1.624-1.625,3.5.108,7.023-.3,10.563.285a3.781,3.781,0,0,0-3.1-1.53q-3.492,0-6.985,0h-.808V31.407h4.907V28.919h-9.9m10.673-9.593a10.746,10.746,0,0,1-13.4-.6A10.477,10.477,0,0,1,2.8,13.16,10.627,10.627,0,0,1,4.61,4.349c-.69-.7-1.087-.678-1.545.069a11.666,11.666,0,0,0-1.373,9.476,11.941,11.941,0,0,0,17.722,6.973c.844-.534.877-.941.124-1.542m-8.307-4.72-.013-.216c-.809-.139-1.623-.259-2.427-.422A1.4,1.4,0,0,1,7.563,12.7,1.43,1.43,0,0,1,8.4,11.15c.449-.231.912-.437,1.35-.689.334-.192.423-.512.042-.7A6.429,6.429,0,0,0,7.645,8.9c-1.223-.1-2.411-.114-3.324-1.129a9.1,9.1,0,0,0,2.69,9.988c.213.176.847.006,1.181-.185.211-.121.259-.575.324-.892A2.112,2.112,0,0,1,10.3,14.861c.315-.061.621-.169.931-.255m1.4-7.25.05.223c.725,0,1.452-.035,2.175.01a2.32,2.32,0,0,0,1.958-.723,1.9,1.9,0,0,1,2.877.211,8.155,8.155,0,0,1,.817,1.092,1.428,1.428,0,0,0,1.809.6C21.267,3,14.985.27,11.194,1.643c.031.411.094.811.084,1.208-.018.719.314,1.009,1.016.979.606-.026,1.213-.011,1.82,0a1.4,1.4,0,0,1,1.534,1.064,1.412,1.412,0,0,1-1,1.653c-.667.281-1.343.542-2.015.812m1.217,29.082h.97c2.631,0,5.262.011,7.892-.01a1.643,1.643,0,0,1,1.274.5,2.4,2.4,0,0,0,3.523,0,1.992,1.992,0,0,1,1.181-.47c2.681-.041,5.362-.02,8.044-.024.291,0,.581-.035.872-.054v-1.2h-.857c-2.251,0-4.5.037-6.754-.012-1.622-.035-3.143.107-4.266,1.582-1.121-1.434-2.6-1.623-4.21-1.584-2.275.056-4.553.014-6.829.014h-.839ZM17.823,18.9a9.563,9.563,0,0,0,4.582-6.349,9.238,9.238,0,0,0-1.521.26A4.744,4.744,0,0,1,18,12.823a17.834,17.834,0,0,0-2.845-.27l-.053.286c.458.236.92.463,1.372.71a1.838,1.838,0,0,1,.508,3.035c-.137.148-.291.281-.424.433a.6.6,0,0,0,.119,1.015c.366.259.718.539,1.148.865m-1.564,7.569H10.07V27.6h6.189ZM7.472,28.974H6.314v2.391H7.472Zm-5.028.009H1.314v2.386H2.445Zm1.4,2.39H4.97V28.945H3.847Zm3.638,1.386H6.306V33.89H7.486ZM6.321,35.207v1.147c1.264.2,1.39.067,1.1-1.147Zm7.425-11.273H12.63V25.1h1.115ZM2.474,32.753H1.308v1.125H2.474Zm2.5-.01H3.831V33.9h1.14Zm-2.508,2.5H1.292v1.119H2.463Zm1.351,1.129h1.15v-1.14H3.814Z" transform="translate(0 -0.043)" fill="#fff"/>
        <path id="Trazado_901938" data-name="Trazado 901938" d="M182.165,12.313c0,2.608.015,5.216-.014,7.823a3.39,3.39,0,0,1-.316,1.373c-.79,1.667-1.641,3.306-2.452,4.963a1.689,1.689,0,0,1-3.2-.008c-.822-1.68-1.686-3.34-2.5-5.026a2.968,2.968,0,0,1-.3-1.232q-.029-7.785-.007-15.571A4.424,4.424,0,0,1,176.514.191,4.236,4.236,0,0,1,181.411,2a5.517,5.517,0,0,1,.72,2.494c.091,2.6.033,5.214.033,7.822m-3.708,7.7h2.405V11.348h-2.405Zm-1.366-8.669h-2.374v8.7h2.374Zm-2.384-6.376H180.9a3.168,3.168,0,0,0-1.542-3.265,2.925,2.925,0,0,0-3.291.094,3.057,3.057,0,0,0-1.358,3.172m.426,16.407c.915,2.483.915,2.483,3.4,2.476a1.561,1.561,0,0,0,.451-.012.719.719,0,0,0,.4-.259c.374-.7.717-1.414,1.111-2.2ZM174.7,7.48h6.167V6.332H174.7Zm0,2.508h6.165V8.861H174.7Zm2.391,15.138-.182.16.926,1.021.89-1.181Z" transform="translate(-147.046 0)" fill="#fff"/>
        <rect id="Rectángulo_402513" data-name="Rectángulo 402513" width="1.186" height="1.145" transform="translate(21.37 23.911)" fill="#fff"/>
        <rect id="Rectángulo_402514" data-name="Rectángulo 402514" width="1.149" height="1.123" transform="translate(18.887 23.914)" fill="#fff"/>
        <rect id="Rectángulo_402515" data-name="Rectángulo 402515" width="1.116" height="1.143" transform="translate(23.906 23.918)" fill="#fff"/>
      </g>
    </g>
  </g>
</svg>
