<svg xmlns="http://www.w3.org/2000/svg" xmlns:xlink="http://www.w3.org/1999/xlink" width="85.854" height="85.854" viewBox="0 0 85.854 85.854">
  <defs>
    <filter id="Elipse_11500" x="0" y="0" width="85.854" height="85.854" filterUnits="userSpaceOnUse">
      <feOffset dy="3" input="SourceAlpha"/>
      <feGaussianBlur stdDeviation="3" result="blur"/>
      <feFlood flood-opacity="0.161"/>
      <feComposite operator="in" in2="blur"/>
      <feComposite in="SourceGraphic"/>
    </filter>
    <clipPath id="clip-path">
      <rect id="Rectángulo_402447" data-name="Rectángulo 402447" width="44.043" height="44.075" fill="#fff"/>
    </clipPath>
  </defs>
  <g id="Grupo_1102764" data-name="Grupo 1102764" transform="translate(-821.487 -1308.475)">
    <g id="Grupo_1102763" data-name="Grupo 1102763">
      <g transform="matrix(1, 0, 0, 1, 821.49, 1308.47)" filter="url(#Elipse_11500)">
        <circle id="Elipse_11500-2" data-name="Elipse 11500" cx="33.927" cy="33.927" r="33.927" transform="translate(9 6)" fill="#382a8e"/>
      </g>
      <g id="Grupo_1102166" data-name="Grupo 1102166" transform="translate(840.002 1326.364)">
        <g id="Grupo_1102165" data-name="Grupo 1102165" clip-path="url(#clip-path)">
          <path id="Trazado_901707" data-name="Trazado 901707" d="M17.088,2.847h1.066q11.633,0,23.265,0c1.868,0,2.623.762,2.623,2.648q0,17.982,0,35.964c0,1.854-.774,2.614-2.659,2.614q-14.43,0-28.86,0c-2.6,0-4.019-1.411-4.022-3.987,0-3.345-.01-6.69.009-10.034a.858.858,0,0,0-.641-.96C3.169,27.181.39,23.688.037,18.627-.321,13.492,1.952,9.6,6.477,7.094a.986.986,0,0,0,.615-1.023c-.036-1.242-.021-2.486-.009-3.729A2.143,2.143,0,0,1,9.393.008c1.717-.014,3.434-.007,5.15,0C16.2.01,16.957.75,17.038,2.43c.005.112.026.224.05.418M32.479,16.213c-.315.366-.577.724-.893,1.027a1.562,1.562,0,0,0-.47,1.98,2.7,2.7,0,0,1-1.644,3.325,2.662,2.662,0,0,1-3.525-1.332c-.4-1.073-1.082-1.141-1.96-1.1a1.352,1.352,0,0,0-.134.259A12.11,12.11,0,0,1,16.1,29.185a1.009,1.009,0,0,0-.462.774c-.037,2.279.032,4.56-.037,6.837-.059,1.943.419,3.94-.6,5.851h.731q12.787,0,25.575,0c1.21,0,1.308-.1,1.308-1.328q0-17.849,0-35.7c0-1.264-.084-1.346-1.379-1.346q-11.633,0-23.266,0c-.287,0-.574.024-.934.04a12.438,12.438,0,0,1-.009,1.366,1.4,1.4,0,0,0,.891,1.575,11.415,11.415,0,0,1,5.894,7.822c.254,1.141.3,2.329.449,3.515.795.241,1.518.391,2.11-.607a1.952,1.952,0,0,1,2.184-.876c1.036.312,1.467-.227,2.037-.859s.731-1.035.163-1.838a5.491,5.491,0,0,1,.57-6.875,5.683,5.683,0,0,1,9.73,5.094,5.73,5.73,0,0,1-8.576,3.582M7.081,11.84a7.736,7.736,0,0,0-2.249,8.915,7.812,7.812,0,0,0,14.852-1.278c.613-2.9-.579-6.342-2.651-7.5,0,.531.016,1.026,0,1.52a2.1,2.1,0,0,1-2.141,2.139q-2.838.043-5.678,0a2.1,2.1,0,0,1-2.127-2.152c-.018-.492,0-.985,0-1.644M7.006,8.5C3,10.215.581,15.519,1.662,20.116a10.661,10.661,0,0,0,21.012-1.3c.479-4.166-2.312-9.3-5.584-10.282a1.949,1.949,0,0,0,.836,2.168,8.846,8.846,0,0,1,3.211,8.71A9.228,9.228,0,0,1,3.544,21.378a9.136,9.136,0,0,1,2.63-10.672A1.881,1.881,0,0,0,7.006,8.5m8.6-.639c0-1.806-.012-3.613.006-5.419.007-.715-.3-1.019-1.016-1.011-1.688.018-3.376.022-5.063,0C8.76,1.414,8.5,1.769,8.5,2.508q.026,5.33,0,10.66c0,.759.306,1.069,1.062,1.058,1.658-.024,3.317-.029,4.974,0,.82.015,1.094-.351,1.082-1.131-.029-1.747-.009-3.494-.009-5.241M9.966,29.722c-.013.265-.036.526-.036.786q0,4.837,0,9.675a2.181,2.181,0,0,0,2.1,2.46c1.294.02,2.158-.966,2.161-2.485q.007-4.837,0-9.675c0-.256-.027-.512-.04-.761-.745.049-1.422.127-2.1.127s-1.35-.079-2.08-.127M35.547,15.637a4.259,4.259,0,1,0-4.295-4.267,4.278,4.278,0,0,0,4.295,4.267M28.36,18.493a1.414,1.414,0,1,0,1.457,1.37,1.432,1.432,0,0,0-1.457-1.37" transform="translate(0 0)" fill="#fff"/>
          <path id="Trazado_901708" data-name="Trazado 901708" d="M120,120.02h1.409v1.341H100.189v-1.321l1.343-.081v-5.583h4.277v5.58h2.822V110.1h4.245v9.836h2.852v-15.5H120Zm-1.458-14.189h-1.309V119.96h1.309Zm-7.107,5.685H110.13v8.443h1.309Zm-7.093,4.278h-1.31v4.166h1.31Z" transform="translate(-82.388 -85.878)" fill="#fff"/>
          <path id="Trazado_901709" data-name="Trazado 901709" d="M147.245,212.492h-7.027v-4.138h7.027Zm-5.628-1.414h4.18v-1.31h-4.18Z" transform="translate(-115.304 -171.334)" fill="#fff"/>
          <path id="Trazado_901710" data-name="Trazado 901710" d="M100.139,208.274h5.572v4.167h-5.572Zm1.411,2.755H104.3v-1.314H101.55Z" transform="translate(-82.347 -171.268)" fill="#fff"/>
          <path id="Trazado_901711" data-name="Trazado 901711" d="M193.828,212.543h-5.58v-4.159h5.58Zm-1.4-2.741h-2.756v1.29h2.756Z" transform="translate(-154.8 -171.359)" fill="#fff"/>
          <rect id="Rectángulo_402438" data-name="Rectángulo 402438" width="1.351" height="1.304" transform="translate(5.689 18.537)" fill="#fff"/>
          <rect id="Rectángulo_402439" data-name="Rectángulo 402439" width="1.351" height="1.287" transform="translate(8.561 18.555)" fill="#fff"/>
          <rect id="Rectángulo_402440" data-name="Rectángulo 402440" width="1.351" height="1.314" transform="translate(11.38 18.532)" fill="#fff"/>
          <rect id="Rectángulo_402441" data-name="Rectángulo 402441" width="1.341" height="1.325" transform="translate(14.222 18.542)" fill="#fff"/>
          <rect id="Rectángulo_402442" data-name="Rectángulo 402442" width="1.332" height="1.316" transform="translate(17.07 18.547)" fill="#fff"/>
          <rect id="Rectángulo_402443" data-name="Rectángulo 402443" width="4.176" height="1.319" transform="translate(9.978 2.895)" fill="#fff"/>
          <rect id="Rectángulo_402444" data-name="Rectángulo 402444" width="4.183" height="1.325" transform="translate(9.974 5.734)" fill="#fff"/>
          <rect id="Rectángulo_402445" data-name="Rectángulo 402445" width="4.183" height="1.325" transform="translate(9.974 8.577)" fill="#fff"/>
          <rect id="Rectángulo_402446" data-name="Rectángulo 402446" width="4.163" height="1.337" transform="translate(9.984 11.429)" fill="#fff"/>
          <path id="Trazado_901712" data-name="Trazado 901712" d="M191.066,53.718l-3.955,3.944-1.794-1.848.97-.849.878.789,2.9-3.084,1,1.048" transform="translate(-152.39 -43.312)" fill="#fff"/>
        </g>
      </g>
    </g>
  </g>
</svg>
