<svg xmlns="http://www.w3.org/2000/svg" xmlns:xlink="http://www.w3.org/1999/xlink" width="90" height="90" viewBox="0 0 90 90">
  <defs>
    <clipPath id="clip-path">
      <rect id="Rectángulo_402467" data-name="Rectángulo 402467" width="63.931" height="58.629" fill="#fff"/>
    </clipPath>
  </defs>
  <g id="Grupo_1102767" data-name="Grupo 1102767" transform="translate(-1179.914 -1131.576)">
    <circle id="Elipse_11509" data-name="Elipse 11509" cx="45" cy="45" r="45" transform="translate(1179.914 1131.576)" fill="#382a8e"/>
    <g id="Grupo_1102194" data-name="Grupo 1102194" transform="translate(1192.949 1145)">
      <g id="Grupo_1102193" data-name="Grupo 1102193" clip-path="url(#clip-path)">
        <path id="Trazado_901794" data-name="Trazado 901794" d="M0,44.593c.4-5.516,3-9.642,8.137-12.028a1.747,1.747,0,0,0,1.142-1.473,22.006,22.006,0,0,1,8.064-13.865,1.889,1.889,0,0,0,.557-1.47A13.649,13.649,0,0,1,30.366.046,13.363,13.363,0,0,1,44.822,13.3a7.062,7.062,0,0,0,2.616,5.936,19.9,19.9,0,0,1,5.915,11.444,1.489,1.489,0,0,0,1.185,1.359,13.561,13.561,0,0,1-1.372,26.181,13.093,13.093,0,0,1-11.25-2.664,1.533,1.533,0,0,0-1.807-.231,21.755,21.755,0,0,1-16.611.355,1.811,1.811,0,0,0-1.928.279c-4.559,3.132-9.409,3.567-14.3.984C2.417,54.382.133,50.128,0,44.593M50.7,31.268A19.433,19.433,0,0,0,43.714,19.44a13.784,13.784,0,0,1-24.807.042A19.42,19.42,0,0,0,11.98,31.354c5.85-.277,10.5,1.755,13.409,6.793,2.935,5.076,2.374,10.143-.782,14.981,4.144,1.84,11.239,1.583,14.492-.49-5.851-8.954-.168-20.981,11.6-21.37M50.418,34.1A10.853,10.853,0,1,0,61.248,44.953,10.857,10.857,0,0,0,50.418,34.1M16.742,46.828a9.311,9.311,0,0,1,5.154,5c3.683-3.569,3.466-10.418-.414-14.446a10.88,10.88,0,0,0-15.351-.279C2,41.072,1.652,47.977,5.436,51.861a9.272,9.272,0,0,1,5.149-5.035c-2.843-3.019-3.076-6.25-.67-8.554a5.425,5.425,0,0,1,7.582.067c2.339,2.318,2.081,5.574-.755,8.489M30.629,24.641l4.45-.628c-2.831-2.707-2.841-4.906-.4-7.492a2.637,2.637,0,0,0,.681-1.644c0-3.241,1.365-5.527,4.411-6.751a6.155,6.155,0,0,0,.675-.382,11.021,11.021,0,0,0-7.783-4.819c2.176,4.278.736,7.313-2.5,9.732a4.592,4.592,0,0,1-2.465.99,13.539,13.539,0,0,0-5.665,1.2c-1.6.742-1.673.9-.679,2.525,1.011-.507,2.017-1.046,3.05-1.524a3.63,3.63,0,0,1,5.34,2.833c.3,1.878.562,3.762.887,5.954M13.669,56.124c1.756-.547,3.394-1.049,5.026-1.571.9-.289.955-.862.623-1.682A6.167,6.167,0,0,0,13.7,49,6.165,6.165,0,0,0,8,52.922c-.306.782-.245,1.32.59,1.593,1.667.545,3.344,1.061,5.083,1.609M30.116,2.971c-4.942.389-9.273,4.753-9.458,9.2a55.3,55.3,0,0,1,5.845-1.16A3.486,3.486,0,0,0,29.237,9.79c.337-.432.89-.728,1.13-1.2a3.858,3.858,0,0,0,.546-1.978,29.973,29.973,0,0,0-.8-3.644M41.6,10.409c-2.672.846-3.513,1.878-3.435,4.515A4.581,4.581,0,0,1,36.518,18.6c-1.317,1.24-1.227,2.029.209,3.068.337.244.691.464,1.018.682A10.456,10.456,0,0,0,41.6,10.409M13.651,44.895a2.7,2.7,0,0,0,2.735-2.6,2.715,2.715,0,1,0-5.429-.045,2.7,2.7,0,0,0,2.694,2.64m14.094-21c-.255-1.777-.442-3.328-.715-4.864a.89.89,0,0,0-1.419-.707c-1.022.493-2.033,1.009-3.15,1.567a10.932,10.932,0,0,0,5.284,4" transform="translate(0 0)" fill="#fff"/>
        <path id="Trazado_901795" data-name="Trazado 901795" d="M176.442,156.521c0,.953,0,1.747,0,2.541-.005.881-.355,1.506-1.32,1.517s-1.347-.584-1.357-1.477c-.009-.8,0-1.592,0-2.578-.753,0-1.372.021-1.99,0a4.5,4.5,0,0,1-4.25-3.4,4.646,4.646,0,0,1,2.237-5.1,4.251,4.251,0,0,0,1.346-1.354,4.583,4.583,0,0,1,8.036.075A3.8,3.8,0,0,0,180.405,148a4.632,4.632,0,0,1,2.284,5.081,4.494,4.494,0,0,1-4.22,3.434c-.621.028-1.245,0-2.028,0m-1.4-2.672v-.008c1.058,0,2.119.044,3.174-.012a1.716,1.716,0,0,0,1.824-1.731,1.65,1.65,0,0,0-1.555-1.834,1.649,1.649,0,0,1-1.619-1.616,1.774,1.774,0,0,0-3.524,0,1.581,1.581,0,0,1-1.489,1.59,1.7,1.7,0,0,0-1.667,1.987c.122,1.187.97,1.607,2.062,1.626.931.016,1.863,0,2.794,0" transform="translate(-124.732 -107.542)" fill="#fff"/>
      </g>
    </g>
  </g>
</svg>
