<svg xmlns="http://www.w3.org/2000/svg" xmlns:xlink="http://www.w3.org/1999/xlink" width="90" height="90" viewBox="0 0 90 90">
  <defs>
    <clipPath id="clip-path">
      <rect id="Rectángulo_402517" data-name="Rectángulo 402517" width="54.835" height="54.823" fill="#fff"/>
    </clipPath>
  </defs>
  <g id="Grupo_1102762" data-name="Grupo 1102762" transform="translate(-337.467 -3865.318)">
    <path id="Trazado_876532" data-name="Trazado 876532" d="M45,0A45,45,0,1,1,0,45,45,45,0,0,1,45,0Z" transform="translate(337.467 3865.318)" fill="#382a8e"/>
    <g id="Grupo_1102240" data-name="Grupo 1102240" transform="translate(355.049 3882.907)">
      <g id="Grupo_1102239" data-name="Grupo 1102239" clip-path="url(#clip-path)">
        <path id="Trazado_901939" data-name="Trazado 901939" d="M0,27.358Q0,17.512,0,7.666C.006,3.07,3.054.006,7.633,0Q20.1,0,32.569,0a7.182,7.182,0,0,1,7.577,7.5q.043,19.906,0,39.812a7.184,7.184,0,0,1-7.574,7.5q-12.521.01-25.043,0A7.218,7.218,0,0,1,0,47.264q-.01-9.953,0-19.906M11.7,5.9c-1.3,0-2.569-.007-3.842,0-1.606.01-1.951.35-1.955,1.955-.008,3.532,0,7.065-.005,10.6,0,.618.024,1.335-.856,1.3-.8-.029-.76-.7-.76-1.284,0-3.675-.009-7.35.006-11.025A2.942,2.942,0,0,1,7.419,4.286c.8-.012,1.6,0,2.311,0V1.62c-.514,0-1.043.033-1.568-.005-4.025-.3-6.624,2.475-6.586,6.577q.176,19.212,0,38.427c-.037,4.056,2.492,6.724,6.684,6.626,6.811-.158,13.629-.041,20.444-.044,1.534,0,3.072.05,4.6-.046a5.538,5.538,0,0,0,5.232-5.481c0-.143,0-.285,0-.428q0-19.856,0-39.712a5.484,5.484,0,0,0-4.123-5.671,25.715,25.715,0,0,0-4-.312V4.284c.633,0,1.273,0,1.913,0,2.438,0,3.54,1.079,3.541,3.512q.01,19.589,0,39.177c0,2.5-1.089,3.563-3.6,3.563q-12.2,0-24.405,0c-2.507,0-3.585-1.074-3.585-3.571q0-11.935,0-23.87c0-.25-.088-.554.022-.738a6.571,6.571,0,0,1,.808-.929,3.729,3.729,0,0,1,.746.876,2.878,2.878,0,0,1,.04,1.059q0,11.775,0,23.549c0,1.682.325,2,2.013,2.006q12.149.006,24.3,0c1.718,0,2.043-.339,2.043-2.085q0-19.428,0-38.856c0-.285.1-.641-.034-.841-.289-.436-.673-1.1-1.063-1.129-1.546-.13-3.11-.053-4.688-.053-.037.266-.075.437-.084.61-.144,2.731-1.063,3.617-3.775,3.62q-4.5.005-8.991,0c-2.841,0-3.737-.878-3.849-3.747-.005-.136-.036-.272-.072-.535m8.338-1.618c2.35,0,4.7,0,7.051,0,1.177,0,1.81-.482,1.806-1.34,0-.823-.608-1.314-1.721-1.316q-7.1-.016-14.209,0c-1.131,0-1.693.479-1.683,1.336s.59,1.315,1.7,1.319c2.35.009,4.7,0,7.051,0M13.525,5.945c-.336,2.088.092,2.62,2,2.621q4.549,0,9.1,0c1.932,0,2.438-.66,1.981-2.621Z" transform="translate(0 0)" fill="#fff"/>
        <path id="Trazado_901940" data-name="Trazado 901940" d="M210,43.413V32.36a4.761,4.761,0,0,0-.737-.123c-2.354-.009-4.709.015-7.063-.019-.695-.01-.959.21-.923.916.046.925.012,1.854.008,2.782,0,.584-.157,1.192-.84,1.075a1.343,1.343,0,0,1-.742-1.044q-.061-13.431-.025-26.862a2.732,2.732,0,0,1,1.867-2.726.867.867,0,0,0,.664-1.017c-.032-.64-.023-1.285,0-1.926a3.457,3.457,0,0,1,6.912-.048,5.629,5.629,0,0,1,.006.855c-.115,1.106-.037,1.971,1.263,2.5,1.011.409,1.282,1.526,1.28,2.638-.013,5.458-.006,10.916-.006,16.374,0,6.029.058,12.058-.045,18.085a11.863,11.863,0,0,1-.967,4.094c-.728,1.812-1.724,3.515-2.589,5.273a2.572,2.572,0,0,1-4.808-.03,17.9,17.9,0,0,0-1.108-2.192,16.7,16.7,0,0,1-2.49-11.03c.053-.6.026-1.24.814-1.238s.812.652.813,1.248c0,1.135,0,2.271,0,3.471Zm-8.654-29.207V30.542h8.622V14.23h-1.615v1.334c0,3.5-.01,6.992,0,10.489a2.812,2.812,0,0,1-1.538,2.827c-1.853.905-3.8-.446-3.824-2.689-.033-3.567-.01-7.135-.011-10.7,0-.413,0-.826,0-1.281Zm.1,30.932c-.018.191-.052.274-.027.328,1.151,2.439,2.271,4.894,3.484,7.3.361.716,1.254.568,1.67-.244,1.036-2.025,2.041-4.066,3.035-6.111a9.006,9.006,0,0,0,.393-1.274ZM204.6,19.723c0,2.1.008,4.2,0,6.307,0,.744.122,1.423,1.02,1.453.964.031,1.124-.659,1.122-1.456q-.014-6.253,0-12.507c0-.753-.155-1.433-1.021-1.462-.939-.032-1.128.664-1.122,1.467.014,2.067,0,4.133,0,6.2m5.429-7.308c0-1.159.029-2.26-.01-3.359a1.227,1.227,0,0,0-1.283-1.3c-2.032-.034-4.064-.028-6.1-.005a1.188,1.188,0,0,0-1.3,1.158c-.061,1.162-.016,2.33-.016,3.475,1.4.288,1.4.288,2.109-.768a2.605,2.605,0,0,1,4.4-.01c.551.982,1.162,1.068,2.2.808M203.8,6.058h3.719a27.908,27.908,0,0,0-.02-2.806,1.771,1.771,0,0,0-1.843-1.592,1.816,1.816,0,0,0-1.842,1.721c-.07.844-.014,1.7-.014,2.676" transform="translate(-156.851 -0.022)" fill="#fff"/>
        <path id="Trazado_901941" data-name="Trazado 901941" d="M71.094,72.252c-1.033,0-2.068.029-3.1-.006a2.81,2.81,0,0,1-2.981-3.038C65,68,65.02,66.784,65.006,65.573a2.9,2.9,0,0,1,1.145-2.415c1.085-.868,2.156-1.754,3.263-2.594a2.691,2.691,0,0,1,3.541.018,26.8,26.8,0,0,1,3.228,2.627,4.406,4.406,0,0,1,1.095,2.3,21.763,21.763,0,0,1,.039,3.842,2.764,2.764,0,0,1-2.909,2.889c-1.1.041-2.209.007-3.314.008m3.025-1.661c1.131.073,1.553-.424,1.6-1.371.2-4.228.207-4.228-3.083-6.842-.167-.133-.343-.256-.5-.4a1.351,1.351,0,0,0-1.927-.006c-.971.783-1.98,1.522-2.9,2.359a2.067,2.067,0,0,0-.638,1.256,35.268,35.268,0,0,0-.016,3.74c.038.993.473,1.293,1.574,1.175,0-.988,0-1.983,0-2.978.011-1.94,1.169-3.27,2.874-3.309,1.767-.04,2.982,1.268,3.019,3.275.019,1.023,0,2.047,0,3.1m-1.626-.008c0-1.223.043-2.358-.015-3.487a1.209,1.209,0,0,0-1.336-1.226,1.159,1.159,0,0,0-1.26,1.176c-.05,1.159-.013,2.322-.013,3.537Z" transform="translate(-51.091 -47.085)" fill="#fff"/>
        <path id="Trazado_901942" data-name="Trazado 901942" d="M51.53,139.917h9.848c.25,0,.552-.088.738.021a6.557,6.557,0,0,1,.935.792,8.589,8.589,0,0,1-.956.781c-.156.1-.418.023-.632.023h-19.8c-.25,0-.554.077-.737-.037a5.484,5.484,0,0,1-.841-.787,5.589,5.589,0,0,1,.862-.768c.186-.11.488-.024.738-.024H51.53" transform="translate(-31.502 -109.94)" fill="#fff"/>
        <path id="Trazado_901943" data-name="Trazado 901943" d="M51.634,170.019c3.39,0,6.78-.009,10.169.014a1.741,1.741,0,0,1,1.063.321.733.733,0,0,1-.441,1.222,4.784,4.784,0,0,1-1.065.059q-9.795,0-19.589,0c-.214,0-.474.074-.633-.02a10.53,10.53,0,0,1-1.055-.8c.353-.266.7-.752,1.061-.761,2.532-.067,5.066-.036,7.6-.036h2.89" transform="translate(-31.504 -133.619)" fill="#fff"/>
        <path id="Trazado_901944" data-name="Trazado 901944" d="M46.344,200.04c1.641,0,3.283,0,4.924,0,.585,0,1.13.086,1.129.811s-.577.805-1.143.806q-4.978,0-9.955,0c-.571,0-1.149-.094-1.136-.816.012-.7.563-.8,1.15-.8,1.677.01,3.354,0,5.031,0" transform="translate(-31.566 -157.217)" fill="#fff"/>
      </g>
    </g>
  </g>
</svg>
