<svg xmlns="http://www.w3.org/2000/svg" xmlns:xlink="http://www.w3.org/1999/xlink" width="90" height="90" viewBox="0 0 90 90">
  <defs>
    <clipPath id="clip-path">
      <rect id="Rectángulo_402434" data-name="Rectángulo 402434" width="64.663" height="64.668" fill="#fff"/>
    </clipPath>
  </defs>
  <g id="Grupo_1103126" data-name="Grupo 1103126" transform="translate(-1113.926 -1798.803)">
    <path id="Trazado_903756" data-name="Trazado 903756" d="M45,0A45,45,0,1,1,0,45,45,45,0,0,1,45,0Z" transform="translate(1113.926 1798.803)" fill="#b771e5"/>
    <g id="Grupo_1102158" data-name="Grupo 1102158" transform="translate(1126.594 1811.469)">
      <g id="Grupo_1102157" data-name="Grupo 1102157" clip-path="url(#clip-path)">
        <path id="Trazado_901677" data-name="Trazado 901677" d="M25.911,166.374H12.321a3.114,3.114,0,0,1-1.126-.027c-.475-.2-1.183-.521-1.246-.885-.139-.8.575-.991,1.267-.992l8.839,0c1.81,0,3.622-.057,5.429.023a1.305,1.305,0,0,0,1.565-1.186,6.441,6.441,0,0,1,.556-1.537,2.5,2.5,0,0,1,2.4-1.348c1.473-.012,2.947-.026,4.419,0,1.745.028,2.4.523,2.969,2.175.651,1.875.651,1.876,2.684,1.876q10.859,0,21.719,0c1.084,0,2.391-.034,2.615,1.2a9.756,9.756,0,0,1-.264,4c-.1.4-1.267.736-1.948.741-6.86.054-13.721.033-20.582.033H40.06c.427,1.322.8,2.512,1.2,3.691.232.683.423,1.393-.452,1.688-.9.3-1.144-.453-1.362-1.1-1.263-3.742-2.539-7.481-3.751-11.24-.278-.863-.671-1.264-1.606-1.169-.75.077-1.514,0-2.271.017-2.922.049-2.266-.448-3.195,2.259-1.881,5.485-3.7,10.993-5.538,16.492-.145.432-.266.872-.442,1.451H42.027c-.27-.841-.524-1.617-.768-2.394-.213-.677-.606-1.486.353-1.829,1.054-.376,1.216.567,1.476,1.269.015.039.035.077.048.117.314.913.376,2.143,1.013,2.648.619.491,1.847.151,2.77.35.47.1,1.167.541,1.218.9.11.786-.579.967-1.286.966q-14.521-.01-29.042,0c-.71,0-1.395-.19-1.276-.976.055-.363.755-.793,1.227-.895.923-.2,2.15.137,2.768-.355.636-.508.7-1.737,1.009-2.652q1.333-3.94,2.66-7.883c.131-.389.223-.791.381-1.361H3.294c-2.933,0-3.308-.384-3.292-3.367,0-.168-.006-.337,0-.5a1.955,1.955,0,0,1,2.05-2.081,31.5,31.5,0,0,1,4.036.028c.437.039.828.589,1.241.906-.411.317-.8.868-1.237.907-1.329.12-2.675.044-4.1.044v2.2H23.368c2.019,0,2.019,0,2.543-2.2m36.772.054H38.813c.379,2.146.379,2.146,2.4,2.146H62.683Z" transform="translate(0 -119.895)" fill="#fff"/>
        <path id="Trazado_901678" data-name="Trazado 901678" d="M158.9,71.036c1.624,0,3.175.039,4.724-.011a5.179,5.179,0,0,0,3.775-1.775,1.082,1.082,0,0,1,1.824-.028A5.825,5.825,0,0,0,174,71.053c1.212-.042,2.426-.008,3.723-.008a9.528,9.528,0,0,0-.84-5.524c-.125-.265-.4-.52-.393-.776a7.874,7.874,0,0,1,.274-1.421c.457.175,1.12.216,1.337.548a11.129,11.129,0,0,1,1.66,5.61c.081,1.493.417,2.979.408,4.467a17.216,17.216,0,0,1-.614,3.213l-.371-.01c.235.28.475.555.7.842a5,5,0,0,1-.213,6.583,4.927,4.927,0,0,1-6.531.692,1.5,1.5,0,0,0-1.68-.2,8.319,8.319,0,0,1-6.39-.015,1.558,1.558,0,0,0-1.211.041c-2.614,1.634-5.267,1.393-7.034-.707-1.727-2.052-1.51-4.771.562-7.048a1.884,1.884,0,0,0,.115-.177,4.319,4.319,0,0,1-.672-4.534,14.46,14.46,0,0,0,.133-3.511,11.375,11.375,0,0,1,16.842-9.44c.257.142.609.245.732.468a6.591,6.591,0,0,1,.415,1.294c-.471.094-.992.366-1.4.25-1.478-.419-2.892-1.29-4.379-1.416-6.21-.526-10.865,4.385-10.267,10.764m2.638,1.871a52.709,52.709,0,0,0,.274,5.45,6.448,6.448,0,0,0,5.882,5.368c3.163.222,6.106-1.456,6.875-4.391a38.576,38.576,0,0,0,.6-6.452c-2.713.169-4.976-.122-6.835-1.858-1.884,1.77-4.161,2.006-6.792,1.882M174.3,83.778a3.1,3.1,0,0,0,4.708-3.293,2.569,2.569,0,0,0-1.807-2.138l-2.9,5.431m-11.941,0-2.908-5.468a2.852,2.852,0,0,0-1.884,2.6,3.122,3.122,0,0,0,4.792,2.873m-2.694-10.758a1.449,1.449,0,0,0-1.332,1.486,1.4,1.4,0,0,0,1.332,1.515Zm17.351,3.029c.932-.224,1.415-.793,1.253-1.63a5.134,5.134,0,0,0-.885-1.488l-.367.208Z" transform="translate(-116.35 -43.543)" fill="#fff"/>
        <path id="Trazado_901679" data-name="Trazado 901679" d="M12.62,58.166c1.593-.042,3.364-.152,4.812,1.021,1.387,1.124,2.741,2.3,4.013,3.551a6.044,6.044,0,0,1,1.881,4.412c-.007,1.54-.187,3.079-.241,4.62a2.038,2.038,0,0,0,.321.9,3.534,3.534,0,0,1-2.11,5.171,1.635,1.635,0,0,0-.893.951c-1.2,4.2-4.428,6.828-8.453,6.82s-7.273-2.684-8.418-6.862a1.652,1.652,0,0,0-.942-.921,3.525,3.525,0,0,1-2.041-5.2,1.956,1.956,0,0,0,.2-1.125C.227,68.2.494,65.049,2.577,62.274a10.052,10.052,0,0,1,8.014-4.1c.63-.026,1.261,0,2.028,0m-.234,12.71A5.523,5.523,0,0,0,16.421,70c.675-.447,1.429-1.3,2.018-1.2s.989,1.194,1.561,1.763a1.555,1.555,0,0,0,1.082.33c.149-.008.366-.5.391-.78.058-.667.01-1.344.022-2.016a5.361,5.361,0,0,0-3.141-5.3,1.93,1.93,0,0,1-.872-.671c-.875-1.729-2.345-2.139-4.115-2.023-.753.049-1.512.005-2.269.009-5.166.026-8.593,3.436-8.623,8.622C2.46,71.382,2.263,70.9,4.66,70.971c1.115.035,2.172.129,2.5-1.345.048-.215.729-.478,1.024-.394s.521.555.663.9c.085.208-.048.507-.077.72,1.161.378,1.675-.117,1.9-1.1a1.474,1.474,0,0,1,.332-.8c.322-.252.818-.57,1.122-.476.286.089.549.661.584,1.043a4.385,4.385,0,0,1-.323,1.351M5.311,72.987c0,1.466-.054,2.931.011,4.39a6.581,6.581,0,0,0,6.1,6.27,6.48,6.48,0,0,0,7.072-5.437,39.735,39.735,0,0,0,.165-5.783,3.637,3.637,0,0,0-.525-1.225c-3.989,2.833-8.458,1.053-12.823,1.784m15.772-.148-.451.252v2.8l.372.2c.327-.538.9-1.069.913-1.616s-.533-1.088-.834-1.633m-18.2,3.243.367-.252V73.024l-.4-.177c-.288.521-.817,1.049-.8,1.559.019.567.535,1.118.834,1.676" transform="translate(-0.047 -43.459)" fill="#fff"/>
        <path id="Trazado_901680" data-name="Trazado 901680" d="M94.994,22.286a11.143,11.143,0,1,1,11.212-11.059A11.094,11.094,0,0,1,94.994,22.286m.247-20.369a9.253,9.253,0,1,0,9.091,9.381,9.271,9.271,0,0,0-9.091-9.381" transform="translate(-62.735 0)" fill="#fff"/>
        <path id="Trazado_901681" data-name="Trazado 901681" d="M122.478,179.867a2.834,2.834,0,1,1-2.891-2.833,2.844,2.844,0,0,1,2.891,2.833m-2.82,1.425c.455-.7.93-1.107.873-1.423a1.348,1.348,0,0,0-.967-.826c-.249-.033-.809.532-.812.833,0,.362.437.728.906,1.415" transform="translate(-87.311 -132.324)" fill="#fff"/>
        <path id="Trazado_901682" data-name="Trazado 901682" d="M111.251,52.091c-1.177,0-2.355.042-3.53-.01-1.574-.07-2.138-.851-2.105-2.78.028-1.656.681-2.391,2.218-2.4q3.467-.033,6.935,0c1.47.016,2.126.753,2.167,2.328.05,1.949-.5,2.73-2.028,2.862-.084.007-.168.008-.252.008h-3.4v0m-3.7-1.988H115V48.839h-7.447Z" transform="translate(-78.942 -35.039)" fill="#fff"/>
        <path id="Trazado_901683" data-name="Trazado 901683" d="M111.289,26.011c-1.219,0-2.439.044-3.655-.01-1.485-.066-2.043-.861-2.017-2.725.022-1.628.641-2.411,2.057-2.433q3.592-.057,7.185,0c1.427.021,2.053.793,2.079,2.411.031,1.876-.519,2.676-1.994,2.746-1.216.058-2.436.012-3.655.012M115,22.8h-7.448v1.266H115Z" transform="translate(-78.943 -15.558)" fill="#fff"/>
      </g>
    </g>
  </g>
</svg>
