<svg xmlns="http://www.w3.org/2000/svg" xmlns:xlink="http://www.w3.org/1999/xlink" width="90" height="90" viewBox="0 0 90 90">
  <defs>
    <clipPath id="clip-path">
      <rect id="Rectángulo_402518" data-name="Rectángulo 402518" width="60.92" height="59.442" fill="#fff" stroke="#fff" stroke-width="1"/>
    </clipPath>
  </defs>
  <g id="Grupo_1102763" data-name="Grupo 1102763" transform="translate(-758.467 -3864)">
    <circle id="Elipse_11516" data-name="Elipse 11516" cx="45" cy="45" r="45" transform="translate(758.467 3864)" fill="#382a8e"/>
    <g id="Grupo_1102242" data-name="Grupo 1102242" transform="translate(772.938 3873.604)">
      <g id="Grupo_1102241" data-name="Grupo 1102241" clip-path="url(#clip-path)">
        <path id="Trazado_901945" data-name="Trazado 901945" d="M22.751,39.412c-.281-.553-.468-.942-.674-1.32a57.374,57.374,0,0,1-6.869-19.5C13.981,9.872,18.135,2.9,26.058.63,34.91-1.9,44.113,3.468,45.7,12.233c.7,3.9-.026,7.763-.988,11.559a60.9,60.9,0,0,1-5.88,14.365c-.191.348-.364.706-.611,1.186.454.035.793.082,1.133.083,3.532.005,7.064.028,10.6-.017a1.515,1.515,0,0,1,1.618.923c2.965,5.815,5.978,11.605,8.97,17.406.706,1.369.5,1.7-1.079,1.7q-29.045,0-58.09,0c-1.465,0-1.673-.346-1-1.657,2.975-5.764,5.968-11.519,8.916-17.3a1.717,1.717,0,0,1,1.779-1.1c3.814.05,7.629.021,11.686.021m7.81,9c2.018-3.073,3.982-5.853,5.726-8.764,4.353-7.267,7.618-14.929,8.2-23.532A13.541,13.541,0,0,0,33.365,1.723C26,.356,18.9,4.436,16.914,11.183a18.045,18.045,0,0,0-.22,7.606,51.665,51.665,0,0,0,5.912,17.273,89.691,89.691,0,0,0,7.954,12.351m28.472,9.538c-1.521-2.945-2.955-5.752-4.437-8.532a.977.977,0,0,0-.859-.324q-6.3,1.61-12.57,3.313c-.261.071-.632.451-.625.677.052,1.611.189,3.22.3,4.867ZM38.663,46.073c-.988-.055-1.921-.032-2.828-.177a2.374,2.374,0,0,0-2.8,1.3,20.524,20.524,0,0,1-1.745,2.339c-.554.74-1.093.752-1.649,0-.8-1.075-1.559-2.184-2.429-3.2a2.232,2.232,0,0,0-1.367-.721c-1.576-.125-3.163-.124-4.747-.149-1.158-.019-2.316,0-3.48,0v5.583H38.98c-.1-1.592-.206-3.239-.317-4.979m.4,6.443c-2.028.171-3.843.241-5.631.5-1.922.275-3.82.721-5.726,1.1q-5.046,1-10.09,2.01v1.814H39.369c-.1-1.748-.194-3.428-.307-5.42M50.3,41.054c-3.293,1.524-6.484,2.989-9.657,4.488a.966.966,0,0,0-.486.706c.042,1.568.154,3.134.253,4.862l13.279-3.5L50.3,41.054M15.618,51.4l-6.723-7L2.445,56.892l.2.184L15.618,51.4m.48-2.472a19.083,19.083,0,0,0-.761-7.412,1.165,1.165,0,0,0-.8-.65c-1.045-.083-2.1-.04-3.152-.046-1.126-.006-1.083,1.054-1.465,1.687a1.077,1.077,0,0,0,.161,1.017c2.051,1.895,4.149,3.739,6.015,5.4m-.044,3.86L4.659,57.778l.076.159H16.054Zm30.62-11.634-.067-.3c-2.967,0-5.934-.007-8.9.014a.837.837,0,0,0-.6.323C36.436,42.217,35.8,43.266,35,44.553c1.6,0,3.05.345,4.226-.071,2.555-.9,4.972-2.193,7.446-3.324m-29.975-.3c.24,1.005.4,1.8.634,2.565a.8.8,0,0,0,.573.461c2.527.031,5.054.021,7.635.021-.537-.858-1.073-1.754-1.658-2.617a.987.987,0,0,0-.67-.411c-2.1-.031-4.2-.019-6.514-.019m.953,11.685v2.1l9.34-1.842-.02-.262Z" transform="translate(0 0)" fill="#fff" stroke="#fff" stroke-width="1"/>
        <path id="Trazado_901946" data-name="Trazado 901946" d="M89.617,38.95C83.06,38.607,78.145,33.423,78.5,27.221A11.335,11.335,0,1,1,89.617,38.95m1.418-1.61a9.628,9.628,0,0,0,7.7-5.4c.422-1.015-.376-1.308-.958-1.639-.677-.385-1.06-.017-1.37.675a20.828,20.828,0,0,1-1.6,2.852c-.383.586-1.117.857-1.47.121a45.782,45.782,0,0,1-2.043-5.1,5.871,5.871,0,0,1,.6-5.126c.919-1.536,2.1-2.021,3.708-1.217.312.156.612.338.927.513a8.84,8.84,0,0,1,.607-.692c.2-.19.446-.338.794-.594l-2.46-2.307a9.594,9.594,0,0,1-10.421-.53L82.7,20.68c1.622,1.529,3.139,2.9,4.579,4.352a3.221,3.221,0,0,1,.839,1.582,16.582,16.582,0,0,1,.226,3.012c0,1.163-.3,2.379,1,3.138.171.1.232.414.312.64.47,1.322.931,2.648,1.382,3.934m-1.493.3c-.486-1.459-.884-2.672-1.3-3.878a.883.883,0,0,0-.326-.349,2.815,2.815,0,0,1-1.047-2.585,19.162,19.162,0,0,0,.032-2.914,3.841,3.841,0,0,0-.765-1.974c-1.015-1.179-2.18-2.232-3.306-3.312-.835-.8-1.164-.731-1.729.293a9.888,9.888,0,0,0,5.116,13.92,25.936,25.936,0,0,0,3.328.8m8.923-14.449a1.812,1.812,0,0,0-.395.229c-1.367,1.336-1.348,1.3-3.025.449-.409-.208-1.332-.277-1.413-.112-.5,1.02-1.253,2.177-1.127,3.19a24.982,24.982,0,0,0,1.585,4.894c.017.049.136.062.3.129a8.18,8.18,0,0,0,.762-1.621,1.873,1.873,0,0,1,2.271-1.517,10.15,10.15,0,0,1,2.092.636c.463-2.5.072-4.9-1.047-6.277M86.855,18.36c2.213.5,4.411,1.786,6.7.107a8.624,8.624,0,0,0-6.7-.107" transform="translate(-59.36 -12.314)" fill="#fff" stroke="#fff" stroke-width="1"/>
      </g>
    </g>
  </g>
</svg>
