<svg xmlns="http://www.w3.org/2000/svg" xmlns:xlink="http://www.w3.org/1999/xlink" width="90" height="90" viewBox="0 0 90 90">
  <defs>
    <clipPath id="clip-path">
      <rect id="Rectángulo_402472" data-name="Rectángulo 402472" width="56.701" height="48.638" fill="#fff"/>
    </clipPath>
  </defs>
  <g id="Grupo_1102768" data-name="Grupo 1102768" transform="translate(-690.717 -1591.37)">
    <circle id="Elipse_11510" data-name="Elipse 11510" cx="45" cy="45" r="45" transform="translate(690.717 1591.37)" fill="#382a8e"/>
    <g id="Grupo_1102198" data-name="Grupo 1102198" transform="translate(709.384 1612.051)">
      <g id="Grupo_1102197" data-name="Grupo 1102197" clip-path="url(#clip-path)">
        <path id="Trazado_901801" data-name="Trazado 901801" d="M25.3,150.651q-11.576,0-23.152,0c-1.806,0-2.141-.344-2.142-2.177q0-4.736,0-9.471c0-1.47.412-1.876,1.9-1.876q23.472,0,46.944.034a3.612,3.612,0,0,1,2.133.835c1.722,1.46,3.336,3.048,4.979,4.6.994.939.985,1.61-.021,2.559-1.581,1.493-3.207,2.941-4.749,4.473a3.4,3.4,0,0,1-2.613,1.042c-7.76-.033-15.52-.018-23.28-.018M1.846,138.783v10.1a4.488,4.488,0,0,0,.476.06q23.149.005,46.3,0a1.563,1.563,0,0,0,.959-.2c1.758-1.582,3.478-3.208,5.253-4.861-1.591-1.49-3.083-2.827-4.5-4.24a2.916,2.916,0,0,0-2.272-.869q-22.382.037-44.764.017H1.846" transform="translate(-0.003 -102.031)" fill="#fff"/>
        <path id="Trazado_901802" data-name="Trazado 901802" d="M21.219,81.961q-9.6,0-19.192,0C.371,81.959.007,81.6.005,79.945q0-4.8,0-9.6c0-1.486.425-1.931,1.863-1.931,12.838,0,25.675-.016,38.513.035a3.622,3.622,0,0,1,2.128.861c1.722,1.462,3.336,3.051,4.985,4.6,1,.938,1.013,1.634.026,2.563-1.677,1.579-3.327,3.192-5.078,4.685a3.437,3.437,0,0,1-2.033.773c-6.4.058-12.795.034-19.192.034M1.789,80.176c.331.035.539.075.748.075q18.81.006,37.62,0a1.588,1.588,0,0,0,.969-.195c1.761-1.582,3.482-3.208,5.256-4.859-1.617-1.512-3.074-2.955-4.63-4.279a3.188,3.188,0,0,0-1.888-.737c-12.284-.042-24.568-.031-36.852-.031H1.789Z" transform="translate(-0.002 -50.902)" fill="#fff"/>
        <path id="Trazado_901803" data-name="Trazado 901803" d="M16.993,13.533q-7.481,0-14.962,0C.386,13.53.005,13.146,0,11.5Q0,6.637.006,1.775C.01.477.471.005,1.754,0,11.9,0,22.045-.011,32.191.034a3.016,3.016,0,0,1,1.792.738c1.735,1.511,3.392,3.113,5.067,4.693,1,.945,1,1.622.007,2.561-1.52,1.434-3.106,2.8-4.559,4.3a3.983,3.983,0,0,1-3.182,1.232c-4.774-.057-9.549-.023-14.323-.023m-15.2-1.8a3.887,3.887,0,0,0,.5.081q14.766.007,29.533,0a1.51,1.51,0,0,0,.94-.254C34.482,10,36.169,8.4,37.927,6.752c-1.6-1.494-3.047-2.938-4.6-4.254a3.411,3.411,0,0,0-2-.8c-9.418-.051-18.836-.035-28.254-.035H1.788Z" transform="translate(0 0)" fill="#fff"/>
        <rect id="Rectángulo_402469" data-name="Rectángulo 402469" width="30.264" height="1.546" transform="translate(4.261 41.384)" fill="#fff"/>
        <path id="Trazado_901804" data-name="Trazado 901804" d="M161.585,155.945l.236,1.142c-2.5.839-5.009.339-6.191-1.193a3.8,3.8,0,0,1-.039-4.427c1.152-1.622,3.714-2.237,6.3-1.44l-.272,1.142c-3.414-.12-4.645.555-4.6,2.465.048,1.856,1.318,2.526,4.562,2.311" transform="translate(-115.258 -111.375)" fill="#fff"/>
        <path id="Trazado_901805" data-name="Trazado 901805" d="M128.808,84.535a7.22,7.22,0,0,1,.925,2.32c.015,1.073-.936,1.6-1.914,1.722-1.462.182-2.942.221-4.62.334,0-2.5-.026-4.787.039-7.069.007-.235.532-.615.847-.65a7.846,7.846,0,0,1,2.666-.015,4.812,4.812,0,0,1,2.544,1.312c.3.375-.339,1.505-.487,2.046m-3.544,3.341a24.414,24.414,0,0,0,2.314-1.031c.108-.061.041-.812-.1-.872a19.556,19.556,0,0,0-2.213-.668Zm.023-5.626v2.139a21.571,21.571,0,0,0,2.052-.779.993.993,0,0,0-.027-.763,20.283,20.283,0,0,0-2.025-.6" transform="translate(-91.667 -60.32)" fill="#fff"/>
        <rect id="Rectángulo_402470" data-name="Rectángulo 402470" width="21.804" height="1.467" transform="translate(4.208 23.894)" fill="#fff"/>
        <path id="Trazado_901806" data-name="Trazado 901806" d="M94.772,20.532c-1.254.233-2.316.424-2.655-1.174-.056-.265-.664-.5-1.052-.584a8.774,8.774,0,0,0-1.643-.024c-.325,1.3-.814,2.486-2.669,1.717.815-2.292,1.595-4.617,2.506-6.89.121-.3.909-.459,1.387-.456.521,0,1.375.132,1.507.447.949,2.269,1.751,4.6,2.619,6.964M91.6,17.377l-.841-2.538-.271.062-.734,2.475Z" transform="translate(-64.552 -9.763)" fill="#fff"/>
        <rect id="Rectángulo_402471" data-name="Rectángulo 402471" width="13.366" height="1.544" transform="translate(4.262 6.299)" fill="#fff"/>
      </g>
    </g>
  </g>
</svg>
