<svg xmlns="http://www.w3.org/2000/svg" xmlns:xlink="http://www.w3.org/1999/xlink" width="95" height="95" viewBox="0 0 95 95">
  <defs>
    <clipPath id="clip-path">
      <rect id="Rectángulo_402380" data-name="Rectángulo 402380" width="67.495" height="53.932" fill="none"/>
    </clipPath>
    <clipPath id="clip-path-3">
      <rect id="Rectángulo_402375" data-name="Rectángulo 402375" width="14.418" height="11.483" fill="none"/>
    </clipPath>
    <clipPath id="clip-path-4">
      <rect id="Rectángulo_402376" data-name="Rectángulo 402376" width="13.318" height="6.46" fill="none"/>
    </clipPath>
  </defs>
  <g id="Grupo_1102763" data-name="Grupo 1102763" transform="translate(11939.001 11831.741)">
    <g id="Grupo_1102124" data-name="Grupo 1102124" transform="translate(-11938.516 -11831.256)">
      <g id="Grupo_1098741" data-name="Grupo 1098741">
        <g id="Rectángulo_400898" data-name="Rectángulo 400898" transform="translate(-0.485 -0.485)" fill="#fff" stroke="#fff" stroke-width="3" opacity="0.859">
          <rect width="95" height="95" rx="47.5" stroke="none"/>
          <rect x="1.5" y="1.5" width="92" height="92" rx="46" fill="none"/>
        </g>
        <g id="Rectángulo_400907" data-name="Rectángulo 400907" transform="translate(-0.485 -0.485)" fill="none" stroke="#fff" stroke-width="3">
          <rect width="95" height="95" rx="47.5" stroke="none"/>
          <rect x="1.5" y="1.5" width="92" height="92" rx="46" fill="none"/>
        </g>
      </g>
    </g>
    <g id="Grupo_1102123" data-name="Grupo 1102123" transform="translate(-11925.249 -11807.288)">
      <g id="Grupo_1102105" data-name="Grupo 1102105" clip-path="url(#clip-path)">
        <g id="Grupo_1102104" data-name="Grupo 1102104" transform="translate(0 0)">
          <g id="Grupo_1102103" data-name="Grupo 1102103" clip-path="url(#clip-path)">
            <path id="Trazado_901592" data-name="Trazado 901592" d="M136.12,42.324l-2.133-.137.86,1.928,1.225-.188Z" transform="translate(-69.182 -21.782)" fill="#1d081e"/>
            <path id="Trazado_901593" data-name="Trazado 901593" d="M84.876,40.511c-.013-.124-.491-1.2-.556-1.544l-.424.754c-.206-1.05-1.115-4.037-1.115-4.037-.3,3.545-21.6,19.074-22.872,19.414l.674,3.262L59.9,55.121c-3.364.9-8.772-1.8-26.236-2.337,0,0,.02,6.028,1.489,7.083,1.189.854,15.164,1.809,26.423,3.3v.006l.006-.005H61.6l0-.01c.667-.592,23.472-20.822,23.281-22.651" transform="translate(-17.382 -18.424)" fill="#1d081e"/>
            <path id="Trazado_901594" data-name="Trazado 901594" d="M85.975,38.964c-2.013,4.461-22.558,22.2-22.558,22.2S38.444,58.542,38.16,58.258A2.4,2.4,0,0,1,38,57.447c-.013-.107-.025-.226-.037-.35-.029-.345-.061-.74-.086-1.16-.008-.1-.013-.206-.021-.313-.02-.391-.041-.8-.062-1.189,0-.1-.012-.21-.016-.309-.058-1.243-.086-2.28-.086-2.28L70.3,38.684l14.544-4.461.551,2.3.09.391.148.613.094.4.062.251.041.177v0l.062.264Z" transform="translate(-19.461 -17.67)" fill="#fff"/>
            <path id="Trazado_901595" data-name="Trazado 901595" d="M84.437,33.725c.014.06.007-.074,0,0-.3,3.545-22.148,20.291-23.424,20.631-3.364.9-8.158-.782-25.952-2.13C32.9,52.063,55.084,34.756,58.7,33.154c2.617-1.162,25.507-.59,25.741.572" transform="translate(-18.026 -16.79)" fill="#1d081e"/>
            <path id="Trazado_901596" data-name="Trazado 901596" d="M136.37,33.833l-.246-1.108-.63,1.258.465.1Z" transform="translate(-69.959 -16.897)" fill="#1d081e"/>
            <path id="Trazado_901597" data-name="Trazado 901597" d="M83.39,31.28a.647.647,0,0,1,.007.2c-.3,3.545-22.377,20.328-23.652,20.668-3.364.9-8.772-1.8-26.236-2.337-2.17-.074,20.388-17.711,24-19.313,2.617-1.161,25.649-.381,25.882.781" transform="translate(-17.226 -15.452)" fill="#4b1c4a"/>
            <path id="Trazado_901598" data-name="Trazado 901598" d="M82.224,35.9s13.325.465,13.906,1.394-4.067,3.816-4.881,3.874-13.325-1.375-13.209-1.9,3.428-3.138,4.183-3.37" transform="translate(-40.295 -18.534)" fill="#7f447f"/>
            <line id="Línea_628" data-name="Línea 628" x2="14.129" y2="1.875" transform="translate(25.636 31.555)" fill="none" stroke="#7f447f" stroke-linecap="round" stroke-linejoin="round" stroke-width="0.851"/>
            <line id="Línea_629" data-name="Línea 629" x2="14.129" y2="1.875" transform="translate(27.543 29.904)" fill="none" stroke="#7f447f" stroke-linecap="round" stroke-linejoin="round" stroke-width="0.851"/>
            <line id="Línea_630" data-name="Línea 630" x2="14.129" y2="1.875" transform="translate(29.452 28.176)" fill="none" stroke="#7f447f" stroke-linecap="round" stroke-linejoin="round" stroke-width="0.851"/>
            <path id="Trazado_901599" data-name="Trazado 901599" d="M85.577,39.371c-5.848,7.4-22.7,19.907-22.866,20.035l-.049.037-.062-.008L37.885,56.891c0-.1-.013-.209-.016-.309l24.706,2.539c1.013-.753,17.393-12.988,22.912-20.141Z" transform="translate(-19.553 -20.127)" fill="#dce8ef"/>
            <path id="Trazado_901600" data-name="Trazado 901600" d="M85.9,41.455C80.056,49.381,63.35,62.033,63.181,62.16l-.049.037-.062,0L38.051,59.464c-.008-.1-.012-.206-.02-.313L63.045,61.88c1.017-.774,17.249-13.162,22.763-20.825Z" transform="translate(-19.637 -21.198)" fill="#dce8ef"/>
            <path id="Trazado_901601" data-name="Trazado 901601" d="M86.183,42.844c-4.281,6.9-22.525,21.43-22.71,21.578l-.049.042-.061-.008L38.289,61.669c-.012-.107-.024-.226-.037-.35l25.077,2.824C64.4,63.291,82.05,49.035,86.079,42.4l.041.177v0Z" transform="translate(-19.751 -21.892)" fill="#dce8ef"/>
            <path id="Trazado_901602" data-name="Trazado 901602" d="M76.525,7.431,74.655,8.466,76.42,9.625l.93-.82Z" transform="translate(-38.547 -3.837)" fill="#d99230"/>
            <path id="Trazado_901603" data-name="Trazado 901603" d="M42.264,6.368c-.078-.1-1.062-.745-1.3-1l.05.864c-.74-.772-3.118-2.8-3.118-2.8,1.66,3.146-7.885,27.714-8.775,28.689l2.328,2.382-2.322-2.358c-2.346,2.575-8.354,3.223-23.347,12.195,0,0,3.271,5.064,5.077,5.159,1.462.077,13.741-6.663,24.026-11.483l0,0s0-.006,0-.008l.011-.005L34.892,38c.243-.859,8.52-30.2,7.372-31.635" transform="translate(-2.984 -1.774)" fill="#d99230"/>
            <path id="Trazado_901604" data-name="Trazado 901604" d="M42.654,5.6c.714,4.842-7.006,30.864-7.006,30.864S13.21,47.742,12.817,47.656a2.4,2.4,0,0,1-.573-.6c-.068-.084-.143-.178-.22-.275-.211-.275-.452-.59-.7-.93-.062-.082-.121-.167-.186-.252l-.694-.968c-.059-.084-.124-.17-.181-.251-.719-1.015-1.3-1.873-1.3-1.873L29.307,13.831,39.142,2.224l1.706,1.639.287.28.456.436.3.285.187.178.131.127,0,0,.194.188Z" transform="translate(-4.627 -1.148)" fill="#fff"/>
            <path id="Trazado_901605" data-name="Trazado 901605" d="M39.594,1.7c.044.044-.034-.065,0,0,1.66,3.146-7.692,29.037-8.582,30.011-2.346,2.575-7.289,3.745-23,12.216-1.911,1.03,7.425-25.516,9.6-28.814C19.192,12.72,38.77.846,39.594,1.7" transform="translate(-4.006 -0.854)" fill="#d99230"/>
            <path id="Trazado_901606" data-name="Trazado 901606" d="M72.718.89l-.805-.8.148,1.4.446-.165Z" transform="translate(-37.131 -0.047)" fill="#d99230"/>
            <path id="Trazado_901607" data-name="Trazado 901607" d="M37.508.044a.661.661,0,0,1,.114.165c1.66,3.146-7.864,29.191-8.754,30.166C26.521,32.95,20.513,33.6,5.521,42.569c-1.866,1.11,7.6-25.914,9.778-29.212C16.874,10.967,36.684-.808,37.508.044" transform="translate(-2.726 0)" fill="#e7b932"/>
            <g id="Grupo_1102093" data-name="Grupo 1102093" transform="translate(13.49 8.061)" style="mix-blend-mode: screen;isolation: isolate">
              <g id="Grupo_1102092" data-name="Grupo 1102092">
                <g id="Grupo_1102091" data-name="Grupo 1102091" clip-path="url(#clip-path-3)">
                  <path id="Trazado_901608" data-name="Trazado 901608" d="M29.611,23.021s11.468-6.8,12.459-6.332S40.7,22.1,40.052,22.584s-11.959,6.035-12.144,5.532,1.192-4.492,1.7-5.095" transform="translate(-27.891 -16.666)" fill="#e7b932"/>
                </g>
              </g>
            </g>
            <g id="Grupo_1102096" data-name="Grupo 1102096" transform="translate(8.949 28.905)" style="mix-blend-mode: screen;isolation: isolate">
              <g id="Grupo_1102095" data-name="Grupo 1102095">
                <g id="Grupo_1102094" data-name="Grupo 1102094" clip-path="url(#clip-path-4)">
                  <line id="Línea_631" data-name="Línea 631" y1="6.049" x2="12.906" transform="translate(0.206 0.206)" fill="none" stroke="#e7b932" stroke-linecap="round" stroke-linejoin="round" stroke-width="0.851"/>
                </g>
              </g>
            </g>
            <g id="Grupo_1102099" data-name="Grupo 1102099" transform="translate(9.663 26.486)" style="mix-blend-mode: screen;isolation: isolate">
              <g id="Grupo_1102098" data-name="Grupo 1102098">
                <g id="Grupo_1102097" data-name="Grupo 1102097" clip-path="url(#clip-path-4)">
                  <line id="Línea_632" data-name="Línea 632" y1="6.049" x2="12.906" transform="translate(0.206 0.206)" fill="none" stroke="#e7b932" stroke-linecap="round" stroke-linejoin="round" stroke-width="0.851"/>
                </g>
              </g>
            </g>
            <g id="Grupo_1102102" data-name="Grupo 1102102" transform="translate(10.337 24)" style="mix-blend-mode: screen;isolation: isolate">
              <g id="Grupo_1102101" data-name="Grupo 1102101">
                <g id="Grupo_1102100" data-name="Grupo 1102100" clip-path="url(#clip-path-4)">
                  <line id="Línea_633" data-name="Línea 633" y1="6.049" x2="12.906" transform="translate(0.206 0.206)" fill="none" stroke="#e7b932" stroke-linecap="round" stroke-linejoin="round" stroke-width="0.851"/>
                </g>
              </g>
            </g>
            <path id="Trazado_901609" data-name="Trazado 901609" d="M42.527,5.894C41.6,15.284,34.165,34.9,34.092,35.1l-.021.058-.057.027-22.178,11.2c-.059-.085-.123-.17-.18-.251l22.169-11.2c.445-1.181,7.63-20.322,8.415-29.323Z" transform="translate(-6.018 -2.899)" fill="#dce8ef"/>
            <path id="Trazado_901610" data-name="Trazado 901610" d="M44.212,7.38c-.645,9.83-7.879,29.5-7.951,29.7l-.022.058-.054.03L13.65,48.37c-.062-.082-.121-.166-.185-.252l22.53-11.206c.438-1.2,7.416-20.39,7.922-29.818Z" transform="translate(-6.952 -3.663)" fill="#dce8ef"/>
            <path id="Trazado_901611" data-name="Trazado 901611" d="M45.67,8.37c.12,8.117-7.394,30.2-7.47,30.423l-.019.061-.057.027L15.514,50.068c-.068-.083-.143-.177-.22-.274L37.928,38.635c.441-1.295,7.6-22.824,7.416-30.584l.13.127,0,0Z" transform="translate(-7.897 -4.157)" fill="#dce8ef"/>
          </g>
        </g>
      </g>
    </g>
  </g>
</svg>
