<svg xmlns="http://www.w3.org/2000/svg" xmlns:xlink="http://www.w3.org/1999/xlink" width="95" height="95" viewBox="0 0 95 95">
  <defs>
    <clipPath id="clip-path">
      <rect id="Rectángulo_402374" data-name="Rectángulo 402374" width="35.228" height="61.771" fill="none"/>
    </clipPath>
    <clipPath id="clip-path-3">
      <rect id="Rectángulo_402371" data-name="Rectángulo 402371" width="29.86" height="18.673" fill="none"/>
    </clipPath>
    <clipPath id="clip-path-4">
      <rect id="Rectángulo_402372" data-name="Rectángulo 402372" width="1.304" height="12.296" fill="none"/>
    </clipPath>
  </defs>
  <g id="Grupo_1102762" data-name="Grupo 1102762" transform="translate(12091.34 11831.741)">
    <g id="Grupo_1102126" data-name="Grupo 1102126" transform="translate(-12090.854 -11831.256)">
      <g id="Grupo_1098741" data-name="Grupo 1098741">
        <g id="Rectángulo_400898" data-name="Rectángulo 400898" transform="translate(-0.485 -0.485)" fill="#fff" stroke="#fff" stroke-width="3" opacity="0.859">
          <rect width="95" height="95" rx="47.5" stroke="none"/>
          <rect x="1.5" y="1.5" width="92" height="92" rx="46" fill="none"/>
        </g>
        <g id="Rectángulo_400907" data-name="Rectángulo 400907" transform="translate(-0.485 -0.485)" fill="none" stroke="#fff" stroke-width="3">
          <rect width="95" height="95" rx="47.5" stroke="none"/>
          <rect x="1.5" y="1.5" width="92" height="92" rx="46" fill="none"/>
        </g>
      </g>
    </g>
    <g id="Grupo_1102125" data-name="Grupo 1102125" transform="translate(-12061.454 -11815.127)">
      <g id="Grupo_1102089" data-name="Grupo 1102089" clip-path="url(#clip-path)">
        <g id="Grupo_1102088" data-name="Grupo 1102088">
          <g id="Grupo_1102087" data-name="Grupo 1102087" clip-path="url(#clip-path)">
            <path id="Trazado_901571" data-name="Trazado 901571" d="M35.487,10.217c.77-2.91,1.142-4.37,1.927-7.276a72.659,72.659,0,0,0-11.269.415s1.595,7.218,1.81,7.2,7.532-.335,7.532-.335" transform="translate(-14.51 -1.621)" fill="#4b1c4a"/>
            <path id="Trazado_901572" data-name="Trazado 901572" d="M36.646,47.983a63.671,63.671,0,0,0-11.813.294c.38-8.9,1.252-17.741,1.95-26.615a60.735,60.735,0,0,1,8.366-.222c.508,8.848,1.042,17.692,1.5,26.543" transform="translate(-13.782 -11.878)" fill="#9ec2e8"/>
            <path id="Trazado_901573" data-name="Trazado 901573" d="M35.154,81.142c-.853,8.58-8.593,16.1-17.217,16.322A17.3,17.3,0,0,1,2.7,89.44,18.918,18.918,0,0,1,.14,82.295c-1.4-9.722,7.949-17.752,16.985-17.965,7.443-.176,16.467,4.919,17.881,12.8a14.581,14.581,0,0,1,.148,4.011" transform="translate(0 -35.699)" fill="#9ec2e8"/>
            <path id="Trazado_901574" data-name="Trazado 901574" d="M35.825,91.761c-.629,7.052-7.314,13.965-14.6,13.909-7.19-.056-14.318-5.306-15.177-12.827a12.794,12.794,0,0,1,.594-5.864c.06-.162.121-.327.192-.486,3.885-2.306,9.377-2.96,13.7-2.993,4.408-.034,10.048.064,14.188,2.092.081.157.151.319.218.478a11.913,11.913,0,0,1,.886,5.693" transform="translate(-3.3 -46.338)" fill="#c7404e"/>
            <path id="Trazado_901575" data-name="Trazado 901575" d="M27.927,21.319s-.2-2.254.049-2.458a68.372,68.372,0,0,1,9.32-.279,6.927,6.927,0,0,1-.105,2.69c-.153.042-9.263.047-9.263.047" transform="translate(-15.455 -10.269)" fill="#9ec2e8"/>
            <path id="Trazado_901576" data-name="Trazado 901576" d="M37.414,1.32c0,.73-2.291,1.315-5.549,1.322s-5.721-.178-5.72-.907S28.587,0,31.867,0s5.546.591,5.547,1.32" transform="translate(-14.51)" fill="#4b1c4a"/>
            <path id="Trazado_901577" data-name="Trazado 901577" d="M35.8,85.977a.185.185,0,0,1-.018.085c-2,2.146-9.576,1.485-14.275,1.586-4.539.1-9.7,1.016-14.023-.675a.534.534,0,0,1-.016-.077.489.489,0,0,1,.209-.409c3.238-2.417,9.378-2.959,13.7-2.993,4.408-.034,10.725-.107,14.188,2.091a.466.466,0,0,1,.235.393" transform="translate(-4.143 -46.331)" fill="#dd5b6e"/>
            <g id="Grupo_1102083" data-name="Grupo 1102083" transform="translate(4.036 42.264)" style="mix-blend-mode: multiply;isolation: isolate">
              <g id="Grupo_1102082" data-name="Grupo 1102082">
                <g id="Grupo_1102081" data-name="Grupo 1102081" clip-path="url(#clip-path-3)">
                  <path id="Trazado_901578" data-name="Trazado 901578" d="M38.861,98.655c-.783,7.877-7.889,14.782-15.808,14.985a15.926,15.926,0,0,1-13.985-7.367c11.183,2.625,22.157-3.4,29.657-11.3a13.49,13.49,0,0,1,.136,3.683" transform="translate(-9.068 -94.972)" fill="#c9dbf0"/>
                </g>
              </g>
            </g>
            <path id="Trazado_901579" data-name="Trazado 901579" d="M25.475,111.723a.729.729,0,0,1-.612.78.647.647,0,0,1-.706-.627.727.727,0,0,1,.611-.784.647.647,0,0,1,.707.631" transform="translate(-13.405 -61.651)" fill="#dd5b6e"/>
            <path id="Trazado_901580" data-name="Trazado 901580" d="M38.594,111.587a.659.659,0,0,1-.629.71.7.7,0,0,1-.68-.693.668.668,0,0,1,.629-.722.707.707,0,0,1,.68.705" transform="translate(-20.692 -61.537)" fill="#dd5b6e"/>
            <path id="Trazado_901581" data-name="Trazado 901581" d="M35.488,102.928a.318.318,0,1,1-.332-.325.329.329,0,0,1,.332.325" transform="translate(-19.343 -56.943)" fill="#dd5b6e"/>
            <path id="Trazado_901582" data-name="Trazado 901582" d="M13.853,100.133a.339.339,0,0,1-.292.373.33.33,0,0,1-.362-.3.336.336,0,0,1,.292-.372.328.328,0,0,1,.363.3" transform="translate(-7.324 -55.406)" fill="#dd5b6e"/>
            <path id="Trazado_901583" data-name="Trazado 901583" d="M54.334,118.468a.31.31,0,1,1-.307-.334.32.32,0,0,1,.307.334" transform="translate(-29.811 -65.562)" fill="#dd5b6e"/>
            <path id="Trazado_901584" data-name="Trazado 901584" d="M52.024,99.712a1,1,0,0,1-1.017,1,1.056,1.056,0,0,1-1.016-1.051A.984.984,0,0,1,51,98.66a1.05,1.05,0,0,1,1.02,1.052" transform="translate(-27.744 -54.754)" fill="#dd5b6e"/>
            <path id="Trazado_901585" data-name="Trazado 901585" d="M42.827,79.706a2.621,2.621,0,0,1-2.7,2.611,2.762,2.762,0,0,1-2.7-2.705,2.5,2.5,0,0,1,2.575-2.63,2.865,2.865,0,0,1,2.82,2.724" transform="translate(-20.774 -42.723)" fill="#dd5b6e"/>
            <path id="Trazado_901586" data-name="Trazado 901586" d="M33.476,82.79a2.107,2.107,0,0,1-1.987,2.2A2.063,2.063,0,0,1,29.3,83.014a2.216,2.216,0,0,1,2.055-2.271,2.047,2.047,0,0,1,2.125,2.047" transform="translate(-16.258 -44.809)" fill="#dd5b6e"/>
            <path id="Trazado_901587" data-name="Trazado 901587" d="M32.982,73.045a1.212,1.212,0,0,1-1.149,1.208,1.106,1.106,0,0,1-1.209-1.066A1.254,1.254,0,0,1,31.8,71.96a1.093,1.093,0,0,1,1.179,1.085" transform="translate(-16.996 -39.935)" fill="#dd5b6e"/>
            <g id="Grupo_1102086" data-name="Grupo 1102086" transform="translate(12.775 13.83)" opacity="0.5">
              <g id="Grupo_1102085" data-name="Grupo 1102085">
                <g id="Grupo_1102084" data-name="Grupo 1102084" clip-path="url(#clip-path-4)">
                  <path id="Trazado_901588" data-name="Trazado 901588" d="M29.721,37.608a20.017,20.017,0,0,1,.4-6.476c.018-.083.3-.068.309.019a21.163,21.163,0,0,1-.387,6.477c-.02.089-.312.067-.321-.02" transform="translate(-29.212 -31.077)" fill="#f9fbfc"/>
                  <path id="Trazado_901589" data-name="Trazado 901589" d="M28.889,54.594a4.985,4.985,0,0,1,.182-3.2c.016-.04.3-.026.309.017a5.246,5.246,0,0,1-.17,3.2c-.017.044-.309.025-.321-.018" transform="translate(-28.707 -42.341)" fill="#f9fbfc"/>
                </g>
              </g>
            </g>
            <path id="Trazado_901590" data-name="Trazado 901590" d="M28.312,5.892a11.843,11.843,0,0,1,.826,3.939.456.456,0,0,0,.911,0,12.545,12.545,0,0,0-.859-4.181.456.456,0,0,0-.879.242" transform="translate(-15.701 -2.958)" fill="#5a2f59"/>
          </g>
        </g>
      </g>
    </g>
  </g>
</svg>
